M48
METRIC,LZ,000.000
;FILE_FORMAT=3:3
;TYPE=PLATED
;Layer: PTH_Through_Via
;EasyEDA v6.5.42, 2024-04-13 21:29:15
;c73c4833fc654ac79364f3211c6877f7,a2f4cb7aa3704937908c5b59a0d1150c,10
;Gerber Generator version 0.2
;Holesize 1 = 0.305 mm
T01C0.305
;Holesize 2 = 0.306 mm
T02C0.306
;Holesize 3 = 0.310 mm
T03C0.310
%
G05
G90
T01
X039878Y107950
X034798Y107950
X031623Y052451
X031623Y056769
X057074Y033581
X059563Y030734
X097028Y052578
X103759Y087630
X101462Y087630
X080264Y088646
X077597Y089789
X069342Y090297
X066294Y084836
X060071Y089662
X059817Y084582
X051435Y085090
X049164Y085090
X034671Y085090
X075311Y083820
X076962Y091948
X039370Y086995
X037465Y091186
X047371Y107188
X043561Y107315
X050673Y107188
X057150Y107950
X068834Y112522
X074168Y112903
X068326Y117602
X058928Y122174
X065532Y134874
X070739Y134493
X110617Y133223
X114046Y125222
X119126Y121793
X122936Y108458
X082931Y121793
X077851Y121666
X110744Y108077
X093345Y084582
X090678Y084582
X095631Y084582
X098425Y084455
X081661Y085344
X070104Y079248
X075946Y075311
X072898Y069469
X068961Y069342
X072009Y062611
X073025Y058166
X074803Y055880
X050038Y061722
X054737Y053848
X038227Y057404
X034925Y059690
X038227Y047371
X036576Y041783
X033147Y038354
X023241Y044831
X040259Y020574
X033147Y030353
X030480Y022352
X021590Y019304
X028448Y011684
X054737Y013970
X072390Y024638
X075692Y012573
X075692Y017018
X086106Y016764
X077978Y041275
X051943Y037846
X053721Y044450
X084455Y049022
X084328Y053467
X092202Y055499
X104013Y072898
X111760Y063627
X107188Y090424
X023876Y105537
X032004Y107315
X103251Y013589
X108458Y013589
X116840Y011557
X124333Y019685
X098806Y044958
X100330Y042672
X099441Y040132
X098806Y036449
X098933Y031623
X099060Y028829
X053467Y022606
X036068Y019812
X096393Y025654
X091948Y034163
T02
X073440Y094136
X077849Y050134
X110709Y049732
X072726Y096881
X071755Y033528
X078450Y098008
X079784Y131945
X090459Y108194
X111252Y070231
X043906Y130581
X069716Y066985
X102362Y020955
X059180Y020926
X054737Y034925
X057844Y083409
X047564Y073466
X092844Y050938
X117076Y059095
X119135Y111589
X113186Y116964
X113186Y080393
X056634Y088204
X030353Y104140
X055449Y088747
X087059Y046826
X041268Y057863
X045428Y056950
X076454Y029749
X061468Y103850
X069088Y105528
X050800Y105156
X108324Y122576
X083923Y022425
X040894Y031750
X044502Y021956
X103281Y120563
X112601Y070556
X102138Y064680
X090321Y078359
X061821Y048395
X081962Y048212
X087082Y089838
X074475Y098918
X067978Y082665
X037539Y078368
X041656Y026289
X072157Y106577
X063620Y109101
X107646Y061003
X068193Y051400
X068193Y055700
X088180Y103523
X100283Y093960
X103738Y116575
X066774Y054956
X063841Y046408
X078257Y078733
X079245Y069337
X077470Y036449
X109601Y083566
X047625Y131572
X044153Y077334
X063968Y083295
X085210Y044203
X049488Y077920
X041908Y066719
X046407Y026621
X062460Y090266
X062490Y047754
X071694Y047754
X071694Y054956
X047382Y052101
X063598Y063025
X064374Y089911
X062480Y091906
X054523Y094136
X089054Y104269
X064907Y107334
X070848Y105234
X084100Y090137
X084100Y066742
T03
X082042Y029083
M30
