M48
METRIC,LZ,000.000
;FILE_FORMAT=3:3
;TYPE=PLATED
;Layer: PTH_Through
;EasyEDA v6.5.22, 2023-03-19 17:06:04
;6de4cf73d5474d458a27f919fdc6bf28,a2f4cb7aa3704937908c5b59a0d1150c,10
;Gerber Generator version 0.2
;Holesize 1 = 0.351 mm
T01C0.351
;Holesize 2 = 0.712 mm
T02C0.712
;Holesize 3 = 0.800 mm
T03C0.800
;Holesize 4 = 0.889 mm
T04C0.889
;Holesize 5 = 0.900 mm
T05C0.900
;Holesize 6 = 0.901 mm
T06C0.901
;Holesize 7 = 0.915 mm
T07C0.915
;Holesize 8 = 1.000 mm
T08C1.000
;Holesize 9 = 1.001 mm
T09C1.001
;Holesize 10 = 1.022 mm
T10C1.022
;Holesize 11 = 1.200 mm
T11C1.200
%
G05
G90
T01
X121912Y049403
X121907Y016104
X024138Y016002
X024143Y049301
T02
X039624Y063373
X039624Y065913
X039624Y068453
X039624Y070993
X039624Y073533
X039624Y076073
X039624Y078613
X039624Y081153
X032004Y081153
X032004Y078613
X032004Y076073
X032004Y073533
X032004Y070993
X032004Y068453
X032004Y065913
X032004Y063373
X114427Y057658
X114427Y060198
X114427Y062738
X114427Y065278
X114427Y067818
X114427Y070358
X114427Y072898
X114427Y075438
X114427Y077978
X114427Y080518
X106807Y080518
X106807Y077978
X106807Y075438
X106807Y072898
X106807Y070358
X106807Y067818
X106807Y065278
X106807Y062738
X106807Y060198
X106807Y057658
X081026Y053086
X081026Y055626
X081026Y058166
X081026Y060706
X081026Y063246
X081026Y065786
X081026Y068326
X081026Y070866
X081026Y073406
X081026Y075946
X081026Y078486
X081026Y081026
X065786Y081026
X065786Y078486
X065786Y075946
X065786Y073406
X065786Y070866
X065786Y068326
X065786Y065786
X065786Y063246
X065786Y060706
X065786Y058166
X065786Y055626
X065786Y053086
X101473Y052959
X101473Y055499
X101473Y058039
X101473Y060579
X101473Y063119
X101473Y065659
X101473Y068199
X101473Y070739
X101473Y073279
X101473Y075819
X101473Y078359
X101473Y080899
X086233Y080899
X086233Y078359
X086233Y075819
X086233Y073279
X086233Y070739
X086233Y068199
X086233Y065659
X086233Y063119
X086233Y060579
X086233Y058039
X086233Y055499
X086233Y052959
X038227Y017145
X040767Y017145
X043307Y017145
X045847Y017145
X048387Y017145
X050927Y017145
X053467Y017145
X056007Y017145
X056007Y024765
X053467Y024765
X050927Y024765
X048387Y024765
X045847Y024765
X043307Y024765
X040767Y024765
X038227Y024765
X091313Y045847
X088773Y045847
X086233Y045847
X083693Y045847
X081153Y045847
X078613Y045847
X076073Y045847
X073533Y045847
X073533Y038227
X076073Y038227
X078613Y038227
X081153Y038227
X083693Y038227
X086233Y038227
X088773Y038227
X091313Y038227
X117602Y048641
X057531Y028575
X062865Y026035
T03
X026686Y129413
X028686Y129413
X022622Y122936
X024622Y122936
X099187Y015637
X099187Y017637
X053356Y122428
X055356Y122428
X072501Y127635
X070501Y127635
T04
X026289Y135128
X028829Y135128
X031369Y135128
X033909Y135128
X036449Y135128
X038989Y135128
X041529Y135128
X044069Y135128
X046609Y135128
T05
X070485Y014732
X080645Y014732
X028702Y047117
X028702Y057277
X031496Y039497
X031496Y029337
X045593Y130937
X055753Y130937
X059309Y124714
X059309Y134874
X070485Y019304
X080645Y019304
X063246Y028575
X053086Y028575
X033782Y044831
X033782Y054991
X038100Y044704
X038100Y054864
X052070Y111633
X062230Y111633
X106045Y133223
X095885Y133223
X048768Y111379
X048768Y121539
X045466Y111379
X045466Y121539
X021209Y136525
X021209Y126365
X042291Y127889
X032131Y127889
X021209Y108966
X021209Y119126
X024638Y108966
X024638Y119126
X037846Y111633
X027686Y111633
X027305Y124714
X037465Y124714
X055880Y128016
X045720Y128016
X040767Y124841
X050927Y124841
X115316Y045720
X105156Y045720
X034925Y029337
X034925Y039497
X115316Y040005
X105156Y040005
X115316Y019558
X105156Y019558
X115316Y051689
X105156Y051689
X115316Y048768
X105156Y048768
X115316Y042926
X105156Y042926
X115316Y037084
X105156Y037084
X115316Y033909
X105156Y033909
X115316Y031242
X105156Y031242
X115316Y025400
X105156Y025400
X115316Y022479
X105156Y022479
X115316Y028321
X105156Y028321
X032258Y130937
X042418Y130937
X116205Y136271
X106045Y136271
X092964Y022225
X092964Y012065
X105664Y083566
X115824Y083566
X041529Y012446
X031369Y012446
X031496Y109347
X027940Y109347
T06
X056134Y115189
X051054Y115189
X063246Y127000
X063246Y132080
X036068Y122174
X033528Y122174
X030988Y122174
X028448Y122174
X036068Y114554
X033528Y114554
X030988Y114554
X028448Y114554
X066929Y019204
X066929Y014324
T07
X072390Y116459
X072390Y111379
X064389Y115697
X059309Y115697
X042817Y122446
X039225Y118854
X058420Y019050
X063500Y019050
X058293Y014351
X063373Y014351
X083566Y018669
X088646Y018669
X043307Y114554
X038227Y114554
X062865Y026035
X057785Y026035
X063500Y122428
X063500Y119888
X056896Y118491
X051816Y118491
X094107Y049149
X089027Y049149
X073025Y049276
X067945Y049276
X073533Y122301
X068453Y122301
X044704Y028575
X039624Y028575
X113030Y054610
X107950Y054610
X032639Y025273
X032639Y020193
X066802Y126619
X066802Y131699
T08
X103030Y027432
X103030Y029972
X103030Y042672
X103030Y045212
X103030Y032512
X103030Y035052
X103030Y040132
X103030Y037592
X095090Y045212
X095090Y042672
X095090Y040132
X095090Y037592
X095090Y035052
X095090Y032512
X095090Y029972
X095090Y027432
X120520Y023071
X120520Y025839
X120520Y028611
X120520Y031379
X120520Y034150
X120520Y036919
X120520Y039690
X120485Y042443
X123363Y024440
X123363Y027208
X123363Y029980
X123363Y032748
X123363Y035519
X123363Y038288
X123363Y041059
X025530Y042334
X025530Y039566
X025530Y036794
X025530Y034026
X025530Y031255
X025530Y028486
X025530Y025715
X025565Y022962
X022687Y040965
X022687Y038197
X022687Y035425
X022687Y032657
X022687Y029886
X022687Y027117
X022687Y024346
X119761Y134620
X122301Y134620
X124841Y134620
X044577Y032893
X044577Y035433
X044577Y037973
X044577Y040513
X044577Y043053
X044577Y045593
X044577Y048133
X044577Y050673
X044577Y053213
X044577Y055753
X044577Y058293
X044577Y060833
X044577Y063373
X044577Y065913
X044577Y068453
X044577Y070993
X044577Y073533
X044577Y076073
X044577Y078613
X044577Y081153
X059817Y081153
X059817Y078613
X059817Y076073
X059817Y073533
X059817Y070993
X059817Y068453
X059817Y065913
X059817Y063373
X059817Y060833
X059817Y058293
X059817Y055753
X059817Y053213
X059817Y050673
X059817Y048133
X059817Y045593
X059817Y043053
X059817Y040513
X059817Y037973
X059817Y035433
X059817Y032893
X076200Y129921
X078740Y129921
X081280Y129921
X083820Y129921
X086360Y129921
X088900Y129921
X091440Y129921
X093980Y129921
X096520Y129921
X099060Y129921
X101600Y129921
X104140Y129921
X106680Y129921
X109220Y129921
X111760Y129921
X114300Y129921
X116840Y129921
X119380Y129921
X121920Y129921
X124460Y129921
X124460Y114681
X121920Y114681
X119380Y114681
X116840Y114681
X114300Y114681
X111760Y114681
X109220Y114681
X106680Y114681
X104140Y114681
X101600Y114681
X099060Y114681
X096520Y114681
X093980Y114681
X091440Y114681
X088900Y114681
X086360Y114681
X083820Y114681
X081280Y114681
X078740Y114681
X076200Y114681
X090424Y033147
X087884Y033147
X085344Y033147
X082804Y033147
X080264Y033147
X077724Y033147
X075184Y033147
X090424Y025527
X087884Y025527
X085344Y025527
X082804Y025527
X080264Y025527
X077724Y025527
X075184Y025527
X077978Y030099
X080010Y030099
X082169Y030099
X087376Y030861
X089281Y030861
T09
X044831Y012954
X047371Y012954
X087503Y013081
X084963Y013081
T10
X041148Y100965
X041148Y095885
X038608Y100965
X043688Y100965
X046228Y100965
X036068Y100965
X036068Y095885
X038608Y095885
X043688Y095885
X046228Y095885
X048768Y100965
X048768Y095885
X056388Y100965
X056388Y095885
X053848Y100965
X058928Y100965
X061468Y100965
X051308Y100965
X051308Y095885
X053848Y095885
X058928Y095885
X061468Y095885
X064008Y100965
X064008Y095885
X071628Y100965
X071628Y095885
X069088Y100965
X074168Y100965
X076708Y100965
X066548Y100965
X066548Y095885
X069088Y095885
X074168Y095885
X076708Y095885
X079248Y100965
X079248Y095885
X086868Y100965
X086868Y095885
X084328Y100965
X089408Y100965
X091948Y100965
X081788Y100965
X081788Y095885
X084328Y095885
X089408Y095885
X091948Y095885
X094488Y100965
X094488Y095885
X102108Y100965
X102108Y095885
X099568Y100965
X104648Y100965
X107188Y100965
X097028Y100965
X097028Y095885
X099568Y095885
X104648Y095885
X107188Y095885
X109728Y100965
X109728Y095885
T11
X068707Y032004
X068707Y026924
X066675Y037719
X066675Y042799
M30
