M48
METRIC,LZ,000.000
;FILE_FORMAT=3:3
;TYPE=PLATED
;Layer: PTH_Through
;EasyEDA v6.5.42, 2024-04-13 21:29:15
;c73c4833fc654ac79364f3211c6877f7,a2f4cb7aa3704937908c5b59a0d1150c,10
;Gerber Generator version 0.2
;Holesize 1 = 0.305 mm
T01C0.305
;Holesize 2 = 0.306 mm
T02C0.306
;Holesize 3 = 0.310 mm
T03C0.310
;Holesize 4 = 0.351 mm
T04C0.351
;Holesize 5 = 0.712 mm
T05C0.712
;Holesize 6 = 0.800 mm
T06C0.800
;Holesize 7 = 0.889 mm
T07C0.889
;Holesize 8 = 0.900 mm
T08C0.900
;Holesize 9 = 0.901 mm
T09C0.901
;Holesize 10 = 0.915 mm
T10C0.915
;Holesize 11 = 1.000 mm
T11C1.000
;Holesize 12 = 1.001 mm
T12C1.001
;Holesize 13 = 1.022 mm
T13C1.022
;Holesize 14 = 1.200 mm
T14C1.200
%
G05
G90
T01
X039878Y107950
X034798Y107950
X031623Y052451
X031623Y056769
X057074Y033581
X059563Y030734
X097028Y052578
X103759Y087630
X101462Y087630
X080264Y088646
X077597Y089789
X069342Y090297
X066294Y084836
X060071Y089662
X059817Y084582
X051435Y085090
X049164Y085090
X034671Y085090
X075311Y083820
X076962Y091948
X039370Y086995
X037465Y091186
X047371Y107188
X043561Y107315
X050673Y107188
X057150Y107950
X068834Y112522
X074168Y112903
X068326Y117602
X058928Y122174
X065532Y134874
X070739Y134493
X110617Y133223
X114046Y125222
X119126Y121793
X122936Y108458
X082931Y121793
X077851Y121666
X110744Y108077
X093345Y084582
X090678Y084582
X095631Y084582
X098425Y084455
X081661Y085344
X070104Y079248
X075946Y075311
X072898Y069469
X068961Y069342
X072009Y062611
X073025Y058166
X074803Y055880
X050038Y061722
X054737Y053848
X038227Y057404
X034925Y059690
X038227Y047371
X036576Y041783
X033147Y038354
X023241Y044831
X040259Y020574
X033147Y030353
X030480Y022352
X021590Y019304
X028448Y011684
X054737Y013970
X072390Y024638
X075692Y012573
X075692Y017018
X086106Y016764
X077978Y041275
X051943Y037846
X053721Y044450
X084455Y049022
X084328Y053467
X092202Y055499
X104013Y072898
X111760Y063627
X107188Y090424
X023876Y105537
X032004Y107315
X103251Y013589
X108458Y013589
X116840Y011557
X124333Y019685
X098806Y044958
X100330Y042672
X099441Y040132
X098806Y036449
X098933Y031623
X099060Y028829
X053467Y022606
X036068Y019812
X096393Y025654
X091948Y034163
T02
X073440Y094136
X077849Y050134
X110709Y049732
X072726Y096881
X071755Y033528
X078450Y098008
X079784Y131945
X090459Y108194
X111252Y070231
X043906Y130581
X069716Y066985
X102362Y020955
X059180Y020926
X054737Y034925
X057844Y083409
X047564Y073466
X092844Y050938
X117076Y059095
X119135Y111589
X113186Y116964
X113186Y080393
X056634Y088204
X030353Y104140
X055449Y088747
X087059Y046826
X041268Y057863
X045428Y056950
X076454Y029749
X061468Y103850
X069088Y105528
X050800Y105156
X108324Y122576
X083923Y022425
X040894Y031750
X044502Y021956
X103281Y120563
X112601Y070556
X102138Y064680
X090321Y078359
X061821Y048395
X081962Y048212
X087082Y089838
X074475Y098918
X067978Y082665
X037539Y078368
X041656Y026289
X072157Y106577
X063620Y109101
X107646Y061003
X068193Y051400
X068193Y055700
X088180Y103523
X100283Y093960
X103738Y116575
X066774Y054956
X063841Y046408
X078257Y078733
X079245Y069337
X077470Y036449
X109601Y083566
X047625Y131572
X044153Y077334
X063968Y083295
X085210Y044203
X049488Y077920
X041908Y066719
X046407Y026621
X062460Y090266
X062490Y047754
X071694Y047754
X071694Y054956
X047382Y052101
X063598Y063025
X064374Y089911
X062480Y091906
X054523Y094136
X089054Y104269
X064907Y107334
X070848Y105234
X084100Y090137
X084100Y066742
T03
X082042Y029083
T04
X121912Y049403
X121907Y016104
X024138Y016002
X024143Y049301
T05
X039624Y063373
X039624Y065913
X039624Y068453
X039624Y070993
X039624Y073533
X039624Y076073
X039624Y078613
X039624Y081153
X032004Y081153
X032004Y078613
X032004Y076073
X032004Y073533
X032004Y070993
X032004Y068453
X032004Y065913
X032004Y063373
X114427Y057658
X114427Y060198
X114427Y062738
X114427Y065278
X114427Y067818
X114427Y070358
X114427Y072898
X114427Y075438
X114427Y077978
X114427Y080518
X106807Y080518
X106807Y077978
X106807Y075438
X106807Y072898
X106807Y070358
X106807Y067818
X106807Y065278
X106807Y062738
X106807Y060198
X106807Y057658
X081026Y053086
X081026Y055626
X081026Y058166
X081026Y060706
X081026Y063246
X081026Y065786
X081026Y068326
X081026Y070866
X081026Y073406
X081026Y075946
X081026Y078486
X081026Y081026
X065786Y081026
X065786Y078486
X065786Y075946
X065786Y073406
X065786Y070866
X065786Y068326
X065786Y065786
X065786Y063246
X065786Y060706
X065786Y058166
X065786Y055626
X065786Y053086
X101473Y052959
X101473Y055499
X101473Y058039
X101473Y060579
X101473Y063119
X101473Y065659
X101473Y068199
X101473Y070739
X101473Y073279
X101473Y075819
X101473Y078359
X101473Y080899
X086233Y080899
X086233Y078359
X086233Y075819
X086233Y073279
X086233Y070739
X086233Y068199
X086233Y065659
X086233Y063119
X086233Y060579
X086233Y058039
X086233Y055499
X086233Y052959
X038227Y017145
X040767Y017145
X043307Y017145
X045847Y017145
X048387Y017145
X050927Y017145
X053467Y017145
X056007Y017145
X056007Y024765
X053467Y024765
X050927Y024765
X048387Y024765
X045847Y024765
X043307Y024765
X040767Y024765
X038227Y024765
X091313Y045847
X088773Y045847
X086233Y045847
X083693Y045847
X081153Y045847
X078613Y045847
X076073Y045847
X073533Y045847
X073533Y038227
X076073Y038227
X078613Y038227
X081153Y038227
X083693Y038227
X086233Y038227
X088773Y038227
X091313Y038227
X117602Y048641
X057531Y028575
X062865Y026035
T06
X026686Y129413
X028686Y129413
X022622Y122936
X024622Y122936
X099187Y015637
X099187Y017637
X053356Y122428
X055356Y122428
X072501Y127635
X070501Y127635
T07
X026289Y135128
X028829Y135128
X031369Y135128
X033909Y135128
X036449Y135128
X038989Y135128
X041529Y135128
X044069Y135128
X046609Y135128
T08
X070485Y014732
X080645Y014732
X028702Y047117
X028702Y057277
X031496Y039497
X031496Y029337
X045593Y130937
X055753Y130937
X059309Y124714
X059309Y134874
X070485Y019304
X080645Y019304
X063246Y028575
X053086Y028575
X033782Y044831
X033782Y054991
X038100Y044704
X038100Y054864
X052070Y111633
X062230Y111633
X106045Y133223
X095885Y133223
X048768Y111379
X048768Y121539
X045466Y111379
X045466Y121539
X042291Y127889
X032131Y127889
X024638Y108966
X024638Y119126
X037846Y111633
X027686Y111633
X027305Y124714
X037465Y124714
X055880Y128016
X045720Y128016
X040767Y124841
X050927Y124841
X115316Y045720
X105156Y045720
X034925Y029337
X034925Y039497
X115316Y040005
X105156Y040005
X115316Y019558
X105156Y019558
X115316Y051689
X105156Y051689
X115316Y048768
X105156Y048768
X115316Y042926
X105156Y042926
X115316Y037084
X105156Y037084
X115316Y033909
X105156Y033909
X115316Y031242
X105156Y031242
X115316Y025400
X105156Y025400
X115316Y022479
X105156Y022479
X115316Y028321
X105156Y028321
X032258Y130937
X042418Y130937
X116205Y136271
X106045Y136271
X092964Y022225
X092964Y012065
X105664Y083566
X115824Y083566
X041529Y012446
X031369Y012446
X031496Y109347
X027940Y109347
T09
X056134Y115189
X051054Y115189
X063246Y127000
X063246Y132080
X036068Y122174
X033528Y122174
X030988Y122174
X028448Y122174
X036068Y114554
X033528Y114554
X030988Y114554
X028448Y114554
X066929Y019204
X066929Y014324
T10
X072390Y116459
X072390Y111379
X064389Y115697
X059309Y115697
X042817Y122446
X039225Y118854
X058420Y019050
X063500Y019050
X058293Y014351
X063373Y014351
X083566Y018669
X088646Y018669
X043307Y114554
X038227Y114554
X062865Y026035
X057785Y026035
X063500Y122428
X063500Y119888
X056896Y118491
X051816Y118491
X094107Y049149
X089027Y049149
X073025Y049276
X067945Y049276
X073533Y122301
X068453Y122301
X044704Y028575
X039624Y028575
X113030Y054610
X107950Y054610
X032639Y025273
X032639Y020193
X066802Y126619
X066802Y131699
T11
X103030Y027432
X103030Y029972
X103030Y042672
X103030Y045212
X103030Y032512
X103030Y035052
X103030Y040132
X103030Y037592
X095090Y045212
X095090Y042672
X095090Y040132
X095090Y037592
X095090Y035052
X095090Y032512
X095090Y029972
X095090Y027432
X120520Y023071
X120520Y025839
X120520Y028611
X120520Y031379
X120520Y034150
X120520Y036919
X120520Y039690
X120485Y042443
X123363Y024440
X123363Y027208
X123363Y029980
X123363Y032748
X123363Y035519
X123363Y038288
X123363Y041059
X025530Y042334
X025530Y039566
X025530Y036794
X025530Y034026
X025530Y031255
X025530Y028486
X025530Y025715
X025565Y022962
X022687Y040965
X022687Y038197
X022687Y035425
X022687Y032657
X022687Y029886
X022687Y027117
X022687Y024346
X119761Y134620
X122301Y134620
X124841Y134620
X044577Y032893
X044577Y035433
X044577Y037973
X044577Y040513
X044577Y043053
X044577Y045593
X044577Y048133
X044577Y050673
X044577Y053213
X044577Y055753
X044577Y058293
X044577Y060833
X044577Y063373
X044577Y065913
X044577Y068453
X044577Y070993
X044577Y073533
X044577Y076073
X044577Y078613
X044577Y081153
X059817Y081153
X059817Y078613
X059817Y076073
X059817Y073533
X059817Y070993
X059817Y068453
X059817Y065913
X059817Y063373
X059817Y060833
X059817Y058293
X059817Y055753
X059817Y053213
X059817Y050673
X059817Y048133
X059817Y045593
X059817Y043053
X059817Y040513
X059817Y037973
X059817Y035433
X059817Y032893
X076200Y129921
X078740Y129921
X081280Y129921
X083820Y129921
X086360Y129921
X088900Y129921
X091440Y129921
X093980Y129921
X096520Y129921
X099060Y129921
X101600Y129921
X104140Y129921
X106680Y129921
X109220Y129921
X111760Y129921
X114300Y129921
X116840Y129921
X119380Y129921
X121920Y129921
X124460Y129921
X124460Y114681
X121920Y114681
X119380Y114681
X116840Y114681
X114300Y114681
X111760Y114681
X109220Y114681
X106680Y114681
X104140Y114681
X101600Y114681
X099060Y114681
X096520Y114681
X093980Y114681
X091440Y114681
X088900Y114681
X086360Y114681
X083820Y114681
X081280Y114681
X078740Y114681
X076200Y114681
X090424Y033147
X087884Y033147
X085344Y033147
X082804Y033147
X080264Y033147
X077724Y033147
X075184Y033147
X090424Y025527
X087884Y025527
X085344Y025527
X082804Y025527
X080264Y025527
X077724Y025527
X075184Y025527
T12
X044831Y012954
X047371Y012954
X087503Y013081
X084963Y013081
T13
X041148Y100965
X041148Y095885
X038608Y100965
X043688Y100965
X046228Y100965
X036068Y100965
X036068Y095885
X038608Y095885
X043688Y095885
X046228Y095885
X048768Y100965
X048768Y095885
X056388Y100965
X056388Y095885
X053848Y100965
X058928Y100965
X061468Y100965
X051308Y100965
X051308Y095885
X053848Y095885
X058928Y095885
X061468Y095885
X064008Y100965
X064008Y095885
X071628Y100965
X071628Y095885
X069088Y100965
X074168Y100965
X076708Y100965
X066548Y100965
X066548Y095885
X069088Y095885
X074168Y095885
X076708Y095885
X079248Y100965
X079248Y095885
X086868Y100965
X086868Y095885
X084328Y100965
X089408Y100965
X091948Y100965
X081788Y100965
X081788Y095885
X084328Y095885
X089408Y095885
X091948Y095885
X094488Y100965
X094488Y095885
X102108Y100965
X102108Y095885
X099568Y100965
X104648Y100965
X107188Y100965
X097028Y100965
X097028Y095885
X099568Y095885
X104648Y095885
X107188Y095885
X109728Y100965
X109728Y095885
T14
X068707Y032004
X068707Y026924
X066675Y037719
X066675Y042799
M30
