G04 Layer: BottomSolderMaskLayer*
G04 EasyEDA v6.5.42, 2024-04-13 21:29:15*
G04 c73c4833fc654ac79364f3211c6877f7,a2f4cb7aa3704937908c5b59a0d1150c,10*
G04 Gerber Generator version 0.2*
G04 Scale: 100 percent, Rotated: No, Reflected: No *
G04 Dimensions in millimeters *
G04 leading zeros omitted , absolute positions ,4 integer and 5 decimal *
%FSLAX45Y45*%
%MOMM*%

%AMMACRO1*1,1,$1,$2,$3*1,1,$1,$4,$5*1,1,$1,0-$2,0-$3*1,1,$1,0-$4,0-$5*20,1,$1,$2,$3,$4,$5,0*20,1,$1,$4,$5,0-$2,0-$3,0*20,1,$1,0-$2,0-$3,0-$4,0-$5,0*20,1,$1,0-$4,0-$5,$2,$3,0*4,1,4,$2,$3,$4,$5,0-$2,0-$3,0-$4,0-$5,$2,$3,0*%
%ADD10C,1.6256*%
%ADD11C,1.9812*%
%ADD12MACRO1,0.1016X0.85X-0.85X-0.85X-0.85*%
%ADD13C,1.8016*%
%ADD14C,1.9016*%
%ADD15C,1.4016*%
%ADD16C,1.3016*%
%ADD17O,1.62306X2.3622*%
%ADD18MACRO1,0.2032X-0.7099X1.016X0.7099X1.016*%
%ADD19MACRO1,0.1016X-0.7874X0.7874X0.7874X0.7874*%
%ADD20C,1.6764*%
%ADD21MACRO1,0.1016X0.9652X0.9652X0.9652X-0.9652*%
%ADD22R,2.0320X2.0320*%
%ADD23C,1.7016*%
%ADD24R,1.7016X1.7016*%
%ADD25C,0.7516*%
%ADD26MACRO1,0.1016X0.8001X0.8001X0.8001X-0.8001*%
%ADD27O,1.9015964X1.9015964*%
%ADD28R,1.9016X1.9016*%
%ADD29O,2.7031949999999996X1.6031971999999999*%
%ADD30MACRO1,0.2032X1.25X-0.7X-1.25X-0.7*%
%ADD31O,1.6031971999999999X2.7031949999999996*%
%ADD32R,1.6032X2.7032*%
%ADD33R,1.4986X1.4986*%
%ADD34C,1.4986*%
%ADD35MACRO1,0.1016X-0.6985X0.6985X0.6985X0.6985*%
%ADD36MACRO1,0.1016X0.6985X-0.6985X-0.6985X-0.6985*%
%ADD37O,1.6015970000000002X2.1015960000000002*%
%ADD38R,1.6016X2.1016*%
%ADD39C,1.6016*%
%ADD40R,1.6016X1.6016*%
%ADD41MACRO1,0.1016X0.75X0.75X0.75X-0.75*%
%ADD42C,0.0194*%

%LPD*%
D10*
G01*
X7239000Y11645900D03*
G01*
X7239000Y11137900D03*
G01*
X6438900Y11569700D03*
G01*
X5930900Y11569700D03*
G01*
X4281703Y12244603D03*
G01*
X3922496Y11885396D03*
D11*
G01*
X7048500Y1473200D03*
G01*
X8064500Y1473200D03*
D10*
G01*
X5842000Y1905000D03*
G01*
X6350000Y1905000D03*
G01*
X5829300Y1435100D03*
G01*
X6337300Y1435100D03*
G01*
X8356600Y1866900D03*
G01*
X8864600Y1866900D03*
G01*
X4330700Y11455400D03*
G01*
X3822700Y11455400D03*
D11*
G01*
X2870200Y4711700D03*
G01*
X2870200Y5727700D03*
G01*
X3149600Y3949700D03*
G01*
X3149600Y2933700D03*
D10*
G01*
X6286500Y2603500D03*
G01*
X5778500Y2603500D03*
D12*
G01*
X10303005Y2743201D03*
D13*
G01*
X10303002Y2997200D03*
G01*
X10303002Y4267200D03*
G01*
X10303002Y4521200D03*
G01*
X10303002Y3251200D03*
G01*
X10303002Y3505200D03*
G01*
X10303002Y4013200D03*
G01*
X10303002Y3759200D03*
G01*
X9508997Y4521200D03*
G01*
X9508997Y4267200D03*
G01*
X9508997Y4013200D03*
G01*
X9508997Y3759200D03*
G01*
X9508997Y3505200D03*
G01*
X9508997Y3251200D03*
G01*
X9508997Y2997200D03*
G01*
X9508997Y2743200D03*
D14*
G01*
X6870700Y3200400D03*
G01*
X6870700Y2692400D03*
G01*
X6667500Y3771900D03*
G01*
X6667500Y4279900D03*
D15*
G01*
X2668600Y12941300D03*
G01*
X2868599Y12941300D03*
D16*
G01*
X5613400Y11518900D03*
G01*
X5105400Y11518900D03*
D15*
G01*
X2262200Y12293600D03*
G01*
X2462199Y12293600D03*
G01*
X9918700Y1563700D03*
G01*
X9918700Y1763699D03*
D16*
G01*
X6324600Y12700000D03*
G01*
X6324600Y13208000D03*
D10*
G01*
X6350000Y12242800D03*
G01*
X6350000Y11988800D03*
G01*
X5689600Y11849100D03*
G01*
X5181600Y11849100D03*
D15*
G01*
X5335600Y12242800D03*
G01*
X5535599Y12242800D03*
D10*
G01*
X9410700Y4914900D03*
G01*
X8902700Y4914900D03*
G01*
X7302500Y4927600D03*
G01*
X6794500Y4927600D03*
G01*
X7353300Y12230100D03*
G01*
X6845300Y12230100D03*
G01*
X4470400Y2857500D03*
G01*
X3962400Y2857500D03*
G01*
X11303000Y5461000D03*
G01*
X10795000Y5461000D03*
G01*
X3263900Y2527300D03*
G01*
X3263900Y2019300D03*
G01*
X6680200Y12661900D03*
G01*
X6680200Y13169900D03*
D15*
G01*
X7250099Y12763500D03*
G01*
X7050100Y12763500D03*
D17*
G01*
X4114800Y10096500D03*
G01*
X4114800Y9588500D03*
G01*
X3860800Y10096500D03*
G01*
X4368800Y10096500D03*
G01*
X4622800Y10096500D03*
G01*
X3606800Y10096500D03*
D18*
G01*
X3606800Y9588500D03*
D17*
G01*
X3860800Y9588500D03*
G01*
X4368800Y9588500D03*
G01*
X4622800Y9588500D03*
G01*
X4876800Y10096500D03*
G01*
X4876800Y9588500D03*
G01*
X5638800Y10096500D03*
G01*
X5638800Y9588500D03*
G01*
X5384800Y10096500D03*
G01*
X5892800Y10096500D03*
G01*
X6146800Y10096500D03*
G01*
X5130800Y10096500D03*
G01*
X5130800Y9588500D03*
G01*
X5384800Y9588500D03*
G01*
X5892800Y9588500D03*
G01*
X6146800Y9588500D03*
G01*
X6400800Y10096500D03*
G01*
X6400800Y9588500D03*
G01*
X7162800Y10096500D03*
G01*
X7162800Y9588500D03*
G01*
X6908800Y10096500D03*
G01*
X7416800Y10096500D03*
G01*
X7670800Y10096500D03*
G01*
X6654800Y10096500D03*
G01*
X6654800Y9588500D03*
G01*
X6908800Y9588500D03*
G01*
X7416800Y9588500D03*
G01*
X7670800Y9588500D03*
G01*
X7924800Y10096500D03*
G01*
X7924800Y9588500D03*
G01*
X8686800Y10096500D03*
G01*
X8686800Y9588500D03*
G01*
X8432800Y10096500D03*
G01*
X8940800Y10096500D03*
G01*
X9194800Y10096500D03*
G01*
X8178800Y10096500D03*
G01*
X8178800Y9588500D03*
G01*
X8432800Y9588500D03*
G01*
X8940800Y9588500D03*
G01*
X9194800Y9588500D03*
G01*
X9448800Y10096500D03*
G01*
X9448800Y9588500D03*
G01*
X10210800Y10096500D03*
G01*
X10210800Y9588500D03*
G01*
X9956800Y10096500D03*
G01*
X10464800Y10096500D03*
G01*
X10718800Y10096500D03*
G01*
X9702800Y10096500D03*
G01*
X9702800Y9588500D03*
G01*
X9956800Y9588500D03*
G01*
X10464800Y9588500D03*
G01*
X10718800Y9588500D03*
G01*
X10972800Y10096500D03*
G01*
X10972800Y9588500D03*
D19*
G01*
X2628900Y13512800D03*
D20*
G01*
X2882900Y13512800D03*
G01*
X3136900Y13512800D03*
G01*
X3390900Y13512800D03*
G01*
X3644900Y13512800D03*
G01*
X3898900Y13512800D03*
G01*
X4152900Y13512800D03*
G01*
X4406900Y13512800D03*
G01*
X4660900Y13512800D03*
D21*
G01*
X4483100Y1295400D03*
G01*
X4737100Y1295400D03*
D22*
G01*
X8750300Y1308100D03*
G01*
X8496300Y1308100D03*
D11*
G01*
X4559300Y13093700D03*
G01*
X5575300Y13093700D03*
G01*
X5930900Y12471400D03*
G01*
X5930900Y13487400D03*
D23*
G01*
X12052045Y2307081D03*
G01*
X12052045Y2583942D03*
G01*
X12052045Y2861055D03*
G01*
X12052045Y3137915D03*
G01*
X12052045Y3415029D03*
G01*
X12052045Y3691889D03*
G01*
X12052045Y3969004D03*
D24*
G01*
X12048515Y4244289D03*
D23*
G01*
X12336272Y2443987D03*
G01*
X12336272Y2720847D03*
G01*
X12336272Y2997962D03*
G01*
X12336272Y3274821D03*
G01*
X12336272Y3551936D03*
G01*
X12336272Y3828795D03*
G01*
X12336272Y4105910D03*
D25*
G01*
X12191238Y4940300D03*
G01*
X12190729Y1610360D03*
D23*
G01*
X2552954Y4233418D03*
G01*
X2552954Y3956557D03*
G01*
X2552954Y3679444D03*
G01*
X2552954Y3402584D03*
G01*
X2552954Y3125470D03*
G01*
X2552954Y2848610D03*
G01*
X2552954Y2571495D03*
D26*
G01*
X2556484Y2296210D03*
D23*
G01*
X2268727Y4096512D03*
G01*
X2268727Y3819652D03*
G01*
X2268727Y3542537D03*
G01*
X2268727Y3265678D03*
G01*
X2268727Y2988563D03*
G01*
X2268727Y2711704D03*
G01*
X2268727Y2434589D03*
D25*
G01*
X2413761Y1600200D03*
G01*
X2414270Y4930139D03*
D27*
G01*
X11976100Y13462000D03*
G01*
X12230100Y13462000D03*
D28*
G01*
X12484100Y13462000D03*
D11*
G01*
X7048500Y1930400D03*
G01*
X8064500Y1930400D03*
G01*
X6324600Y2857500D03*
G01*
X5308600Y2857500D03*
G01*
X3378200Y4483100D03*
G01*
X3378200Y5499100D03*
G01*
X3810000Y4470400D03*
G01*
X3810000Y5486400D03*
G01*
X5207000Y11163300D03*
G01*
X6223000Y11163300D03*
G01*
X10604500Y13322300D03*
G01*
X9588500Y13322300D03*
G01*
X4876800Y11137900D03*
G01*
X4876800Y12153900D03*
G01*
X4546600Y11137900D03*
G01*
X4546600Y12153900D03*
G01*
X4229100Y12788900D03*
G01*
X3213100Y12788900D03*
G01*
X2463800Y10896600D03*
G01*
X2463800Y11912600D03*
G01*
X3784600Y11163300D03*
G01*
X2768600Y11163300D03*
G01*
X2730500Y12471400D03*
G01*
X3746500Y12471400D03*
G01*
X5588000Y12801600D03*
G01*
X4572000Y12801600D03*
G01*
X4076700Y12484100D03*
G01*
X5092700Y12484100D03*
G01*
X11531600Y4572000D03*
G01*
X10515600Y4572000D03*
G01*
X3492500Y2933700D03*
G01*
X3492500Y3949700D03*
G01*
X11531600Y4000500D03*
G01*
X10515600Y4000500D03*
G01*
X11531600Y1955800D03*
G01*
X10515600Y1955800D03*
G01*
X11531600Y5168900D03*
G01*
X10515600Y5168900D03*
G01*
X11531600Y4876800D03*
G01*
X10515600Y4876800D03*
G01*
X11531600Y4292600D03*
G01*
X10515600Y4292600D03*
G01*
X11531600Y3708400D03*
G01*
X10515600Y3708400D03*
G01*
X11531600Y3390900D03*
G01*
X10515600Y3390900D03*
G01*
X11531600Y3124200D03*
G01*
X10515600Y3124200D03*
G01*
X11531600Y2540000D03*
G01*
X10515600Y2540000D03*
G01*
X11531600Y2247900D03*
G01*
X10515600Y2247900D03*
G01*
X11531600Y2832100D03*
G01*
X10515600Y2832100D03*
G01*
X3225800Y13093700D03*
G01*
X4241800Y13093700D03*
G01*
X11620500Y13627100D03*
G01*
X10604500Y13627100D03*
G01*
X9296400Y2222500D03*
G01*
X9296400Y1206500D03*
G01*
X10566400Y8356600D03*
G01*
X11582400Y8356600D03*
G01*
X4152900Y1244600D03*
G01*
X3136900Y1244600D03*
D29*
G01*
X4457700Y3289300D03*
G01*
X4457700Y3543300D03*
G01*
X4457700Y3797300D03*
G01*
X4457700Y4051300D03*
G01*
X4457700Y4305300D03*
G01*
X4457700Y4559300D03*
G01*
X4457700Y4813300D03*
G01*
X4457700Y5067300D03*
G01*
X4457700Y5321300D03*
G01*
X4457700Y5575300D03*
G01*
X4457700Y5829300D03*
G01*
X4457700Y6083300D03*
G01*
X4457700Y6337300D03*
G01*
X4457700Y6591300D03*
G01*
X4457700Y6845300D03*
G01*
X4457700Y7099300D03*
G01*
X4457700Y7353300D03*
G01*
X4457700Y7607300D03*
G01*
X4457700Y7861300D03*
G01*
X4457700Y8115300D03*
G01*
X5981700Y8115300D03*
G01*
X5981700Y7861300D03*
G01*
X5981700Y7607300D03*
G01*
X5981700Y7353300D03*
G01*
X5981700Y7099300D03*
G01*
X5981700Y6845300D03*
G01*
X5981700Y6591300D03*
G01*
X5981700Y6337300D03*
G01*
X5981700Y6083300D03*
G01*
X5981700Y5829300D03*
G01*
X5981700Y5575300D03*
G01*
X5981700Y5321300D03*
G01*
X5981700Y5067300D03*
G01*
X5981700Y4813300D03*
G01*
X5981700Y4559300D03*
G01*
X5981700Y4305300D03*
G01*
X5981700Y4051300D03*
G01*
X5981700Y3797300D03*
G01*
X5981700Y3543300D03*
D30*
G01*
X5981700Y3289300D03*
D31*
G01*
X7620000Y12992100D03*
G01*
X7874000Y12992100D03*
G01*
X8128000Y12992100D03*
G01*
X8382000Y12992100D03*
G01*
X8636000Y12992100D03*
G01*
X8890000Y12992100D03*
G01*
X9144000Y12992100D03*
G01*
X9398000Y12992100D03*
G01*
X9652000Y12992100D03*
G01*
X9906000Y12992100D03*
G01*
X10160000Y12992100D03*
G01*
X10414000Y12992100D03*
G01*
X10668000Y12992100D03*
G01*
X10922000Y12992100D03*
G01*
X11176000Y12992100D03*
G01*
X11430000Y12992100D03*
G01*
X11684000Y12992100D03*
G01*
X11938000Y12992100D03*
G01*
X12192000Y12992100D03*
G01*
X12446000Y12992100D03*
G01*
X12446000Y11468100D03*
G01*
X12192000Y11468100D03*
G01*
X11938000Y11468100D03*
G01*
X11684000Y11468100D03*
G01*
X11430000Y11468100D03*
G01*
X11176000Y11468100D03*
G01*
X10922000Y11468100D03*
G01*
X10668000Y11468100D03*
G01*
X10414000Y11468100D03*
G01*
X10160000Y11468100D03*
G01*
X9906000Y11468100D03*
G01*
X9652000Y11468100D03*
G01*
X9398000Y11468100D03*
G01*
X9144000Y11468100D03*
G01*
X8890000Y11468100D03*
G01*
X8636000Y11468100D03*
G01*
X8382000Y11468100D03*
G01*
X8128000Y11468100D03*
G01*
X7874000Y11468100D03*
D32*
G01*
X7620000Y11468100D03*
D33*
G01*
X3962400Y6337300D03*
D34*
G01*
X3962400Y6591300D03*
G01*
X3962400Y6845300D03*
G01*
X3962400Y7099300D03*
G01*
X3962400Y7353300D03*
G01*
X3962400Y7607300D03*
G01*
X3962400Y7861300D03*
G01*
X3962400Y8115300D03*
G01*
X3200400Y8115300D03*
G01*
X3200400Y7861300D03*
G01*
X3200400Y7607300D03*
G01*
X3200400Y7353300D03*
G01*
X3200400Y7099300D03*
G01*
X3200400Y6845300D03*
G01*
X3200400Y6591300D03*
G01*
X3200400Y6337300D03*
D33*
G01*
X11442700Y5765800D03*
D34*
G01*
X11442700Y6019800D03*
G01*
X11442700Y6273800D03*
G01*
X11442700Y6527800D03*
G01*
X11442700Y6781800D03*
G01*
X11442700Y7035800D03*
G01*
X11442700Y7289800D03*
G01*
X11442700Y7543800D03*
G01*
X11442700Y7797800D03*
G01*
X11442700Y8051800D03*
G01*
X10680700Y8051800D03*
G01*
X10680700Y7797800D03*
G01*
X10680700Y7543800D03*
G01*
X10680700Y7289800D03*
G01*
X10680700Y7035800D03*
G01*
X10680700Y6781800D03*
G01*
X10680700Y6527800D03*
G01*
X10680700Y6273800D03*
G01*
X10680700Y6019800D03*
G01*
X10680700Y5765800D03*
D33*
G01*
X8102600Y5308600D03*
D34*
G01*
X8102600Y5562600D03*
G01*
X8102600Y5816600D03*
G01*
X8102600Y6070600D03*
G01*
X8102600Y6324600D03*
G01*
X8102600Y6578600D03*
G01*
X8102600Y6832600D03*
G01*
X8102600Y7086600D03*
G01*
X8102600Y7340600D03*
G01*
X8102600Y7594600D03*
G01*
X8102600Y7848600D03*
G01*
X8102600Y8102600D03*
G01*
X6578600Y8102600D03*
G01*
X6578600Y7848600D03*
G01*
X6578600Y7594600D03*
G01*
X6578600Y7340600D03*
G01*
X6578600Y7086600D03*
G01*
X6578600Y6832600D03*
G01*
X6578600Y6578600D03*
G01*
X6578600Y6324600D03*
G01*
X6578600Y6070600D03*
G01*
X6578600Y5816600D03*
G01*
X6578600Y5562600D03*
G01*
X6578600Y5308600D03*
D33*
G01*
X10147300Y5295900D03*
D34*
G01*
X10147300Y5549900D03*
G01*
X10147300Y5803900D03*
G01*
X10147300Y6057900D03*
G01*
X10147300Y6311900D03*
G01*
X10147300Y6565900D03*
G01*
X10147300Y6819900D03*
G01*
X10147300Y7073900D03*
G01*
X10147300Y7327900D03*
G01*
X10147300Y7581900D03*
G01*
X10147300Y7835900D03*
G01*
X10147300Y8089900D03*
G01*
X8623300Y8089900D03*
G01*
X8623300Y7835900D03*
G01*
X8623300Y7581900D03*
G01*
X8623300Y7327900D03*
G01*
X8623300Y7073900D03*
G01*
X8623300Y6819900D03*
G01*
X8623300Y6565900D03*
G01*
X8623300Y6311900D03*
G01*
X8623300Y6057900D03*
G01*
X8623300Y5803900D03*
G01*
X8623300Y5549900D03*
G01*
X8623300Y5295900D03*
D35*
G01*
X3822700Y1714500D03*
D34*
G01*
X4076700Y1714500D03*
G01*
X4330700Y1714500D03*
G01*
X4584700Y1714500D03*
G01*
X4838700Y1714500D03*
G01*
X5092700Y1714500D03*
G01*
X5346700Y1714500D03*
G01*
X5600700Y1714500D03*
G01*
X5600700Y2476500D03*
G01*
X5346700Y2476500D03*
G01*
X5092700Y2476500D03*
G01*
X4838700Y2476500D03*
G01*
X4584700Y2476500D03*
G01*
X4330700Y2476500D03*
G01*
X4076700Y2476500D03*
G01*
X3822700Y2476500D03*
D36*
G01*
X9131300Y4584700D03*
D34*
G01*
X8877300Y4584700D03*
G01*
X8623300Y4584700D03*
G01*
X8369300Y4584700D03*
G01*
X8115300Y4584700D03*
G01*
X7861300Y4584700D03*
G01*
X7607300Y4584700D03*
G01*
X7353300Y4584700D03*
G01*
X7353300Y3822700D03*
G01*
X7607300Y3822700D03*
G01*
X7861300Y3822700D03*
G01*
X8115300Y3822700D03*
G01*
X8369300Y3822700D03*
G01*
X8623300Y3822700D03*
G01*
X8877300Y3822700D03*
G01*
X9131300Y3822700D03*
D37*
G01*
X9042400Y3314700D03*
G01*
X8788400Y3314700D03*
G01*
X8534400Y3314700D03*
G01*
X8280400Y3314700D03*
G01*
X8026400Y3314700D03*
G01*
X7772400Y3314700D03*
G01*
X7518400Y3314700D03*
G01*
X9042400Y2552700D03*
G01*
X8788400Y2552700D03*
G01*
X8534400Y2552700D03*
G01*
X8280400Y2552700D03*
G01*
X8026400Y2552700D03*
G01*
X7772400Y2552700D03*
D38*
G01*
X7518400Y2552700D03*
D39*
G01*
X3606800Y12217400D03*
G01*
X3352800Y12217400D03*
G01*
X3098800Y12217400D03*
G01*
X2844800Y12217400D03*
G01*
X3606800Y11455400D03*
G01*
X3352800Y11455400D03*
G01*
X3098800Y11455400D03*
D40*
G01*
X2844800Y11455400D03*
D41*
G01*
X6692898Y1920398D03*
D39*
G01*
X6692900Y1432407D03*
D34*
G01*
X11760200Y4864100D03*
G01*
X5753100Y2857500D03*
G01*
X6286500Y2603500D03*
D11*
G01*
X3149600Y10934700D03*
G01*
X2794000Y10934700D03*
M02*
