M48
METRIC,LZ,000.000
;FILE_FORMAT=3:3
;TYPE=PLATED
;Layer: PTH_Through
;EasyEDA v6.5.22, 2023-03-19 17:05:06
;74af40cc1a4b405187b5f1ce7251bf20,a2f4cb7aa3704937908c5b59a0d1150c,10
;Gerber Generator version 0.2
;Holesize 1 = 0.600 mm
T01C0.600
;Holesize 2 = 0.701 mm
T02C0.701
;Holesize 3 = 0.712 mm
T03C0.712
;Holesize 4 = 0.800 mm
T04C0.800
;Holesize 5 = 0.889 mm
T05C0.889
;Holesize 6 = 0.900 mm
T06C0.900
;Holesize 7 = 0.915 mm
T07C0.915
;Holesize 8 = 1.000 mm
T08C1.000
;Holesize 9 = 1.001 mm
T09C1.001
;Holesize 10 = 1.022 mm
T10C1.022
%
G05
G90
T01
X121907Y016104
X024138Y016002
T02
X072165Y037719G85X072160Y037719
X067286Y037719G85X067281Y037719
T03
X074549Y046228
X074549Y043688
X079502Y028575
X079502Y031115
X066421Y028702
X066421Y031242
X065659Y043815
X068199Y043815
X035814Y112395
X038354Y112395
X040894Y112395
X043434Y112395
X045974Y112395
X048514Y112395
X051054Y112395
X053594Y112395
X056134Y112395
X058674Y112395
X061214Y112395
X063754Y112395
X063754Y127635
X061214Y127635
X058674Y127635
X056134Y127635
X053594Y127635
X051054Y127635
X048514Y127635
X045974Y127635
X043434Y127635
X040894Y127635
X038354Y127635
X035814Y127635
X079248Y112522
X081788Y112522
X084328Y112522
X086868Y112522
X089408Y112522
X091948Y112522
X094488Y112522
X097028Y112522
X099568Y112522
X102108Y112522
X104648Y112522
X107188Y112522
X107188Y127762
X104648Y127762
X102108Y127762
X099568Y127762
X097028Y127762
X094488Y127762
X091948Y127762
X089408Y127762
X086868Y127762
X084328Y127762
X081788Y127762
X079248Y127762
X097028Y120250
X099568Y120203
X102108Y120203
X104648Y120297
X107188Y120297
X094488Y120293
X091948Y120235
X089408Y120293
X086868Y120293
X084328Y120269
X081788Y120269
X079248Y120293
X063754Y120269
X061214Y120269
X058674Y120269
X056134Y120303
X053594Y120235
X051054Y120269
X048514Y120285
X045974Y120269
X043434Y120269
X040894Y120269
X038354Y120269
X035814Y120269
T04
X094218Y066294
X092218Y066294
X100965Y078121
X100965Y080121
X099076Y022987
X101076Y022987
T05
X086360Y134874
X088900Y134874
X091440Y134874
X093980Y134874
X096520Y134874
X099060Y134874
X101600Y134874
X104140Y134874
X106680Y134874
T06
X123317Y113030
X113157Y113030
X121793Y135890
X111633Y135890
X064262Y134239
X074422Y134239
X102616Y055499
X102616Y065659
X115697Y051943
X105537Y051943
X104902Y069469
X115062Y069469
X115062Y078867
X104902Y078867
X104902Y074041
X115062Y074041
X079629Y035306
X079629Y045466
X083820Y045466
X083820Y035306
X095758Y055753
X085598Y055753
X088900Y070612
X099060Y070612
X056769Y021590
X046609Y021590
X041402Y045466
X063119Y045466
X052959Y032512
X062992Y032512
X041275Y032512
X041402Y019304
X062992Y019304
X074549Y019177
X084074Y019177
X093980Y027813
X094107Y038100
X094107Y045593
T07
X068961Y112141
X074041Y112141
X121412Y124079
X121412Y118999
X097663Y064008
X097663Y058928
X101219Y072517
X101219Y067437
X031115Y030607
X031115Y025527
X092964Y061341
X087884Y061341
X054864Y065532
X059944Y065532
X084074Y027432
X084074Y032512
X113665Y048641
X113665Y043561
X054356Y026289
X049276Y026289
X116586Y117094
X111506Y117094
X044196Y042291
X044196Y037211
X030861Y131318
X035941Y131318
X077727Y068535
X025146Y126365
X025273Y107696
X032766Y086995
X032893Y074168
X032893Y060579
X032766Y040005
X092964Y107188
X066929Y108204
X093091Y075819
X086106Y080264
X102362Y037846
X098425Y041275
X108585Y018923
X108585Y024765
X108585Y030607
X110109Y061341
X113665Y071882
X106299Y072009
T08
X115796Y125222
X112296Y125222
X106680Y064643
X106680Y062103
X106680Y059563
X106680Y057023
X114300Y057023
X114300Y059563
X114300Y062103
X114300Y064643
X069878Y119253
X073378Y119253
X026190Y118491
X029690Y118491
X055372Y038636
X055372Y042136
X090170Y024610
X090170Y021110
X071501Y032385
X071501Y029845
X071501Y027305
X120520Y023071
X120520Y025839
X120520Y028611
X120520Y031379
X120520Y034150
X120520Y036919
X120520Y039690
X120485Y042443
X123363Y024440
X123363Y027208
X123363Y029980
X123363Y032748
X123363Y035519
X123363Y038288
X123363Y041059
X121912Y049403
X025530Y042334
X025530Y039566
X025530Y036794
X025530Y034026
X025530Y031255
X025530Y028486
X025530Y025715
X025565Y022962
X022687Y040965
X022687Y038197
X022687Y035425
X022687Y032657
X022687Y029886
X022687Y027117
X022687Y024346
X024143Y049301
X086487Y070612
X086487Y068072
X086487Y065532
T09
X038227Y026797
X038227Y029337
X050419Y014859
X052959Y014859
X101219Y014859
X098679Y014859
T10
X041148Y100965
X041148Y095885
X038608Y100965
X043688Y100965
X046228Y100965
X036068Y100965
X036068Y095885
X038608Y095885
X043688Y095885
X046228Y095885
X048768Y100965
X048768Y095885
X056388Y100965
X056388Y095885
X053848Y100965
X058928Y100965
X061468Y100965
X051308Y100965
X051308Y095885
X053848Y095885
X058928Y095885
X061468Y095885
X064008Y100965
X064008Y095885
X071628Y100965
X071628Y095885
X069088Y100965
X074168Y100965
X076708Y100965
X066548Y100965
X066548Y095885
X069088Y095885
X074168Y095885
X076708Y095885
X079248Y100965
X079248Y095885
X086868Y100965
X086868Y095885
X084328Y100965
X089408Y100965
X091948Y100965
X081788Y100965
X081788Y095885
X084328Y095885
X089408Y095885
X091948Y095885
X094488Y100965
X094488Y095885
X102108Y100965
X102108Y095885
X099568Y100965
X104648Y100965
X107188Y100965
X097028Y100965
X097028Y095885
X099568Y095885
X104648Y095885
X107188Y095885
X109728Y100965
X109728Y095885
M30
