M48
METRIC,LZ,000.000
;FILE_FORMAT=3:3
;TYPE=PLATED
;Layer: PTH_Through_Via
;EasyEDA v6.5.42, 2024-04-13 21:12:49
;9533279679aa4dd5b2ccd963fcabda20,a2f4cb7aa3704937908c5b59a0d1150c,10
;Gerber Generator version 0.2
;Holesize 1 = 0.305 mm
T01C0.305
;Holesize 2 = 0.306 mm
T02C0.306
;Holesize 3 = 0.400 mm
T03C0.400
;Holesize 4 = 0.501 mm
T04C0.501
%
G05
G90
T01
X069088Y106807
T02
X075381Y124312
X071184Y078844
X092384Y059811
X116342Y023229
X065649Y071120
X089473Y064202
X077403Y125446
X062436Y069520
X077507Y061340
X082859Y059906
X038608Y052910
X044112Y052419
X044905Y055884
X047564Y056899
X046228Y054483
X059493Y067920
X061648Y070307
X080873Y126173
X095287Y063573
X094546Y026320
X069441Y035222
X077619Y052615
X066602Y067000
X058312Y068682
X050302Y057709
X043688Y053083
X057148Y104265
X052322Y062797
X079644Y052428
X077727Y055981
X059354Y067107
X056322Y066101
X069759Y078836
X090837Y084845
X052949Y062306
X041148Y051757
X064008Y110566
X050453Y059919
X049816Y058318
X051308Y059106
X037525Y051117
T03
X114300Y088900
X122809Y132842
X066548Y065151
X116586Y090551
X116713Y086868
T04
X091562Y049660
X083185Y053975
X089789Y058801
X088011Y058039
M30
