G04 Layer: BottomPasteMaskLayer*
G04 EasyEDA v6.5.22, 2023-03-19 17:05:06*
G04 74af40cc1a4b405187b5f1ce7251bf20,a2f4cb7aa3704937908c5b59a0d1150c,10*
G04 Gerber Generator version 0.2*
G04 Scale: 100 percent, Rotated: No, Reflected: No *
G04 Dimensions in millimeters *
G04 leading zeros omitted , absolute positions ,4 integer and 5 decimal *
%FSLAX45Y45*%
%MOMM*%

%AMMACRO1*21,1,$1,$2,0,0,$3*%
%ADD10MACRO1,0.5715X2.0701X90.0000*%
%ADD11MACRO1,0.5715X2.0701X0.0000*%

%LPD*%
G36*
X11226596Y9757511D02*
G01*
X11216589Y9747504D01*
X11216589Y9618980D01*
X11226596Y9609023D01*
X11379403Y9609023D01*
X11389410Y9618980D01*
X11389410Y9747504D01*
X11379403Y9757511D01*
X11342370Y9757511D01*
X11332362Y9747504D01*
X11332362Y9717024D01*
X11322354Y9707016D01*
X11283645Y9707016D01*
X11273637Y9717024D01*
X11273637Y9747504D01*
X11263630Y9757511D01*
G37*
G36*
X11226596Y10075976D02*
G01*
X11216589Y10066020D01*
X11216589Y9937496D01*
X11226596Y9927488D01*
X11263630Y9927488D01*
X11273637Y9937496D01*
X11273637Y9967976D01*
X11283645Y9977983D01*
X11322354Y9977983D01*
X11332362Y9967976D01*
X11332362Y9937496D01*
X11342370Y9927488D01*
X11379403Y9927488D01*
X11389410Y9937496D01*
X11389410Y10066020D01*
X11379403Y10075976D01*
G37*
G36*
X3200196Y10063276D02*
G01*
X3190189Y10053320D01*
X3190189Y9924796D01*
X3200196Y9914788D01*
X3237230Y9914788D01*
X3247237Y9924796D01*
X3247237Y9955276D01*
X3257245Y9965283D01*
X3295954Y9965283D01*
X3305962Y9955276D01*
X3305962Y9924796D01*
X3315970Y9914788D01*
X3353003Y9914788D01*
X3363010Y9924796D01*
X3363010Y10053320D01*
X3353003Y10063276D01*
G37*
G36*
X3200196Y9744811D02*
G01*
X3190189Y9734804D01*
X3190189Y9606280D01*
X3200196Y9596323D01*
X3353003Y9596323D01*
X3363010Y9606280D01*
X3363010Y9734804D01*
X3353003Y9744811D01*
X3315970Y9744811D01*
X3305962Y9734804D01*
X3305962Y9704324D01*
X3295954Y9694316D01*
X3257245Y9694316D01*
X3247237Y9704324D01*
X3247237Y9734804D01*
X3237230Y9744811D01*
G37*
G36*
X2926080Y12608610D02*
G01*
X2916123Y12598603D01*
X2916123Y12445796D01*
X2926080Y12435789D01*
X3054604Y12435789D01*
X3064611Y12445796D01*
X3064611Y12482830D01*
X3054604Y12492837D01*
X3024124Y12492837D01*
X3014116Y12502845D01*
X3014116Y12541554D01*
X3024124Y12551562D01*
X3054604Y12551562D01*
X3064611Y12561570D01*
X3064611Y12598603D01*
X3054604Y12608610D01*
G37*
G36*
X3244596Y12608610D02*
G01*
X3234588Y12598603D01*
X3234588Y12561570D01*
X3244596Y12551562D01*
X3275076Y12551562D01*
X3285083Y12541554D01*
X3285083Y12502845D01*
X3275076Y12492837D01*
X3244596Y12492837D01*
X3234588Y12482830D01*
X3234588Y12445796D01*
X3244596Y12435789D01*
X3373120Y12435789D01*
X3383076Y12445796D01*
X3383076Y12598603D01*
X3373120Y12608610D01*
G37*
G36*
X7530896Y12654076D02*
G01*
X7520889Y12644120D01*
X7520889Y12515596D01*
X7530896Y12505588D01*
X7567930Y12505588D01*
X7577937Y12515596D01*
X7577937Y12546076D01*
X7587945Y12556083D01*
X7626654Y12556083D01*
X7636662Y12546076D01*
X7636662Y12515596D01*
X7646670Y12505588D01*
X7683703Y12505588D01*
X7693710Y12515596D01*
X7693710Y12644120D01*
X7683703Y12654076D01*
G37*
G36*
X7530896Y12335611D02*
G01*
X7520889Y12325604D01*
X7520889Y12197080D01*
X7530896Y12187123D01*
X7683703Y12187123D01*
X7693710Y12197080D01*
X7693710Y12325604D01*
X7683703Y12335611D01*
X7646670Y12335611D01*
X7636662Y12325604D01*
X7636662Y12295124D01*
X7626654Y12285116D01*
X7587945Y12285116D01*
X7577937Y12295124D01*
X7577937Y12325604D01*
X7567930Y12335611D01*
G37*
D10*
G01*
X8082279Y7510779D03*
G01*
X8082279Y7432039D03*
G01*
X8082279Y7350760D03*
G01*
X8082279Y7272020D03*
G01*
X8082279Y7190739D03*
G01*
X8082279Y7112000D03*
G01*
X8082279Y7030720D03*
G01*
X8082279Y6951979D03*
G01*
X8082279Y6870700D03*
G01*
X8082279Y6791960D03*
G01*
X8082279Y6710679D03*
G01*
X8082279Y6631939D03*
G01*
X8082279Y6550660D03*
G01*
X8082279Y6471920D03*
G01*
X8082279Y6390639D03*
G01*
X8082279Y6311900D03*
G01*
X8082279Y6230620D03*
G01*
X8082279Y6151879D03*
G01*
X8082279Y6070600D03*
G01*
X8082279Y5991860D03*
G01*
X8082279Y5910579D03*
G01*
X8082279Y5831839D03*
G01*
X8082279Y5750560D03*
G01*
X8082279Y5671820D03*
D11*
G01*
X7838440Y5448300D03*
G01*
X7759700Y5448300D03*
G01*
X7678420Y5448300D03*
G01*
X7599679Y5448300D03*
G01*
X7518400Y5448300D03*
G01*
X7439659Y5448300D03*
G01*
X7358379Y5448300D03*
G01*
X7279640Y5448300D03*
G01*
X7198359Y5448300D03*
G01*
X7119620Y5448300D03*
G01*
X7038340Y5448300D03*
G01*
X6959600Y5448300D03*
G01*
X6878320Y5448300D03*
G01*
X6799579Y5448300D03*
G01*
X6718300Y5448300D03*
G01*
X6639559Y5448300D03*
D10*
G01*
X6395720Y5671820D03*
G01*
X6395720Y5750560D03*
G01*
X6395720Y5831839D03*
G01*
X6395720Y5910579D03*
G01*
X6395720Y5991860D03*
G01*
X6395720Y6070600D03*
G01*
X6395720Y6151879D03*
G01*
X6395720Y6230620D03*
G01*
X6395720Y6311900D03*
G01*
X6395720Y6390639D03*
G01*
X6395720Y6471920D03*
G01*
X6395720Y6550660D03*
G01*
X6395720Y6631939D03*
G01*
X6395720Y6710679D03*
G01*
X6395720Y6791960D03*
G01*
X6395720Y6870700D03*
G01*
X6395720Y6951979D03*
G01*
X6395720Y7030720D03*
G01*
X6395720Y7112000D03*
G01*
X6395720Y7190739D03*
G01*
X6395720Y7272020D03*
G01*
X6395720Y7350760D03*
G01*
X6395720Y7432039D03*
G01*
X6395720Y7510779D03*
D11*
G01*
X6639559Y7734300D03*
G01*
X6718300Y7734300D03*
G01*
X6799579Y7734300D03*
G01*
X6878320Y7734300D03*
G01*
X6959600Y7734300D03*
G01*
X7038340Y7734300D03*
G01*
X7119620Y7734300D03*
G01*
X7198359Y7734300D03*
G01*
X7279640Y7734300D03*
G01*
X7358379Y7734300D03*
G01*
X7439659Y7734300D03*
G01*
X7518400Y7734300D03*
G01*
X7599679Y7734300D03*
G01*
X7678420Y7734300D03*
G01*
X7759700Y7734300D03*
G01*
X7838440Y7734300D03*
M02*
