G04 Layer: BottomSolderMaskLayer*
G04 EasyEDA v6.5.42, 2024-04-13 21:12:49*
G04 9533279679aa4dd5b2ccd963fcabda20,a2f4cb7aa3704937908c5b59a0d1150c,10*
G04 Gerber Generator version 0.2*
G04 Scale: 100 percent, Rotated: No, Reflected: No *
G04 Dimensions in millimeters *
G04 leading zeros omitted , absolute positions ,4 integer and 5 decimal *
%FSLAX45Y45*%
%MOMM*%

%AMMACRO1*1,1,$1,$2,$3*1,1,$1,$4,$5*1,1,$1,0-$2,0-$3*1,1,$1,0-$4,0-$5*20,1,$1,$2,$3,$4,$5,0*20,1,$1,$4,$5,0-$2,0-$3,0*20,1,$1,0-$2,0-$3,0-$4,0-$5,0*20,1,$1,0-$4,0-$5,$2,$3,0*4,1,4,$2,$3,$4,$5,0-$2,0-$3,0-$4,0-$5,$2,$3,0*%
%ADD10R,1.8296X1.5866*%
%ADD11MACRO1,0.1016X-0.864X-0.7425X0.864X-0.7425*%
%ADD12MACRO1,0.1016X-0.864X0.7425X0.864X0.7425*%
%ADD13MACRO1,0.1016X0.7425X-0.864X0.7425X0.864*%
%ADD14MACRO1,0.1016X-0.7425X-0.864X-0.7425X0.864*%
%ADD15MACRO1,0.2032X1.035X-0.2858X1.035X0.2858*%
%ADD16MACRO1,0.2032X0.2858X1.035X-0.2858X1.035*%
%ADD17C,1.6256*%
%ADD18C,1.7016*%
%ADD19C,1.9812*%
%ADD20MACRO1,0.1016X0.8001X0.8001X0.8001X-0.8001*%
%ADD21C,1.7018*%
%ADD22C,1.4016*%
%ADD23C,1.5032*%
%ADD24C,1.2954*%
%ADD25C,1.7272*%
%ADD26C,2.0828*%
%ADD27MACRO1,0.1016X0.9X-0.9X-0.9X-0.9*%
%ADD28C,1.9016*%
%ADD29MACRO1,0.1016X-0.9652X0.9652X0.9652X0.9652*%
%ADD30MACRO1,0.2032X-0.6985X0.6985X0.6985X0.6985*%
%ADD31C,1.6002*%
%ADD32O,1.62306X2.3622*%
%ADD33MACRO1,0.2032X-0.7099X1.016X0.7099X1.016*%
%ADD34MACRO1,0.1016X-0.7874X0.7874X0.7874X0.7874*%
%ADD35C,1.6764*%
%ADD36MACRO1,0.1016X0.9652X0.9652X0.9652X-0.9652*%
%ADD37R,2.0320X2.0320*%
%ADD38R,1.7016X1.7016*%
%ADD39C,1.1016*%
%ADD40O,1.9015964X1.9015964*%
%ADD41MACRO1,0.1016X-0.9X0.9X0.9X0.9*%
%ADD42C,0.0144*%

%LPD*%
D10*
G01*
X11303000Y9683242D03*
G01*
X11303000Y10001758D03*
D11*
G01*
X3276600Y9989050D03*
D12*
G01*
X3276600Y9670549D03*
D13*
G01*
X2990349Y12522200D03*
D14*
G01*
X3308850Y12522200D03*
D11*
G01*
X7607300Y12579850D03*
D12*
G01*
X7607300Y12261349D03*
D15*
G01*
X8082279Y7510779D03*
G01*
X8082279Y7432039D03*
G01*
X8082279Y7350760D03*
G01*
X8082279Y7272020D03*
G01*
X8082279Y7190739D03*
G01*
X8082279Y7112000D03*
G01*
X8082279Y7030720D03*
G01*
X8082279Y6951979D03*
G01*
X8082279Y6870700D03*
G01*
X8082279Y6791960D03*
G01*
X8082279Y6710679D03*
G01*
X8082279Y6631939D03*
G01*
X8082279Y6550660D03*
G01*
X8082279Y6471920D03*
G01*
X8082279Y6390639D03*
G01*
X8082279Y6311900D03*
G01*
X8082279Y6230620D03*
G01*
X8082279Y6151879D03*
G01*
X8082279Y6070600D03*
G01*
X8082279Y5991860D03*
G01*
X8082279Y5910579D03*
G01*
X8082279Y5831839D03*
G01*
X8082279Y5750560D03*
G01*
X8082279Y5671820D03*
D16*
G01*
X7838440Y5448300D03*
G01*
X7759700Y5448300D03*
G01*
X7678420Y5448300D03*
G01*
X7599679Y5448300D03*
G01*
X7518400Y5448300D03*
G01*
X7439659Y5448300D03*
G01*
X7358379Y5448300D03*
G01*
X7279640Y5448300D03*
G01*
X7198359Y5448300D03*
G01*
X7119620Y5448300D03*
G01*
X7038340Y5448300D03*
G01*
X6959600Y5448300D03*
G01*
X6878320Y5448300D03*
G01*
X6799579Y5448300D03*
G01*
X6718300Y5448300D03*
G01*
X6639559Y5448300D03*
D15*
G01*
X6395720Y5671820D03*
G01*
X6395720Y5750560D03*
G01*
X6395720Y5831839D03*
G01*
X6395720Y5910579D03*
G01*
X6395720Y5991860D03*
G01*
X6395720Y6070600D03*
G01*
X6395720Y6151879D03*
G01*
X6395720Y6230620D03*
G01*
X6395720Y6311900D03*
G01*
X6395720Y6390639D03*
G01*
X6395720Y6471920D03*
G01*
X6395720Y6550660D03*
G01*
X6395720Y6631939D03*
G01*
X6395720Y6710679D03*
G01*
X6395720Y6791960D03*
G01*
X6395720Y6870700D03*
G01*
X6395720Y6951979D03*
G01*
X6395720Y7030720D03*
G01*
X6395720Y7112000D03*
G01*
X6395720Y7190739D03*
G01*
X6395720Y7272020D03*
G01*
X6395720Y7350760D03*
G01*
X6395720Y7432039D03*
G01*
X6395720Y7510779D03*
D16*
G01*
X6639559Y7734300D03*
G01*
X6718300Y7734300D03*
G01*
X6799579Y7734300D03*
G01*
X6878320Y7734300D03*
G01*
X6959600Y7734300D03*
G01*
X7038340Y7734300D03*
G01*
X7119620Y7734300D03*
G01*
X7198359Y7734300D03*
G01*
X7279640Y7734300D03*
G01*
X7358379Y7734300D03*
G01*
X7439659Y7734300D03*
G01*
X7518400Y7734300D03*
G01*
X7599679Y7734300D03*
G01*
X7678420Y7734300D03*
G01*
X7759700Y7734300D03*
G01*
X7838440Y7734300D03*
D17*
G01*
X6896100Y11214100D03*
G01*
X7404100Y11214100D03*
D18*
G01*
X11579606Y12522200D03*
G01*
X11229593Y12522200D03*
D17*
G01*
X12141200Y12407900D03*
G01*
X12141200Y11899900D03*
D19*
G01*
X12331700Y11303000D03*
G01*
X11315700Y11303000D03*
G01*
X12179300Y13589000D03*
G01*
X11163300Y13589000D03*
G01*
X6426200Y13423900D03*
G01*
X7442200Y13423900D03*
D20*
G01*
X10668010Y6464302D03*
D21*
G01*
X10668000Y6210300D03*
G01*
X10668000Y5956300D03*
G01*
X10668000Y5702300D03*
G01*
X11430000Y5702300D03*
G01*
X11430000Y5956300D03*
G01*
X11430000Y6210300D03*
G01*
X11430000Y6464300D03*
D17*
G01*
X9766300Y6400800D03*
G01*
X9766300Y5892800D03*
D19*
G01*
X10261600Y5549900D03*
G01*
X10261600Y6565900D03*
G01*
X11569700Y5194300D03*
G01*
X10553700Y5194300D03*
G01*
X10490200Y6946900D03*
G01*
X11506200Y6946900D03*
D17*
G01*
X10121900Y7251700D03*
G01*
X10121900Y6743700D03*
D19*
G01*
X11506200Y7886700D03*
G01*
X10490200Y7886700D03*
D22*
G01*
X9421799Y6629400D03*
G01*
X9221800Y6629400D03*
G01*
X10096500Y7812100D03*
G01*
X10096500Y8012099D03*
D18*
G01*
X6987793Y11925300D03*
G01*
X7337806Y11925300D03*
G01*
X2618993Y11849100D03*
G01*
X2969006Y11849100D03*
D19*
G01*
X10490200Y7404100D03*
G01*
X11506200Y7404100D03*
D18*
G01*
X5537200Y3863594D03*
G01*
X5537200Y4213605D03*
G01*
X9017000Y2461005D03*
G01*
X9017000Y2110994D03*
D17*
G01*
X3111500Y3060700D03*
G01*
X3111500Y2552700D03*
G01*
X9296400Y6134100D03*
G01*
X8788400Y6134100D03*
G01*
X5486400Y6553200D03*
G01*
X5994400Y6553200D03*
G01*
X8407400Y2743200D03*
G01*
X8407400Y3251200D03*
G01*
X11366500Y4864100D03*
G01*
X11366500Y4356100D03*
G01*
X5435600Y2628900D03*
G01*
X4927600Y2628900D03*
D23*
G01*
X9907600Y2298700D03*
G01*
X10107599Y2298700D03*
D24*
G01*
X7454900Y4622800D03*
G01*
X7454900Y4368800D03*
D25*
G01*
X7216292Y3771900D03*
G01*
X6728307Y3771900D03*
D24*
G01*
X7950200Y2857500D03*
G01*
X7950200Y3111500D03*
G01*
X6642100Y2870200D03*
G01*
X6642100Y3124200D03*
G01*
X6565900Y4381500D03*
G01*
X6819900Y4381500D03*
D26*
G01*
X7962900Y3530600D03*
G01*
X7962900Y4546600D03*
G01*
X8382000Y4546600D03*
G01*
X8382000Y3530600D03*
D27*
G01*
X7150100Y3238500D03*
D28*
G01*
X7150100Y2984500D03*
G01*
X7150100Y2730500D03*
D19*
G01*
X9575800Y5575300D03*
G01*
X8559800Y5575300D03*
D29*
G01*
X3822700Y2679700D03*
G01*
X3822700Y2933700D03*
D30*
G01*
X3581400Y11239500D03*
D31*
G01*
X3835400Y11239500D03*
G01*
X4089400Y11239500D03*
G01*
X4343400Y11239500D03*
G01*
X4597400Y11239500D03*
G01*
X4851400Y11239500D03*
G01*
X5105400Y11239500D03*
G01*
X5359400Y11239500D03*
G01*
X5613400Y11239500D03*
G01*
X5867400Y11239500D03*
G01*
X6121400Y11239500D03*
G01*
X6375400Y11239500D03*
G01*
X6375400Y12763500D03*
G01*
X6121400Y12763500D03*
G01*
X5867400Y12763500D03*
G01*
X5613400Y12763500D03*
G01*
X5359400Y12763500D03*
G01*
X5105400Y12763500D03*
G01*
X4851400Y12763500D03*
G01*
X4597400Y12763500D03*
G01*
X4343400Y12763500D03*
G01*
X4089400Y12763500D03*
G01*
X3835400Y12763500D03*
G01*
X3581400Y12763500D03*
D30*
G01*
X7924800Y11252200D03*
D31*
G01*
X8178800Y11252200D03*
G01*
X8432800Y11252200D03*
G01*
X8686800Y11252200D03*
G01*
X8940800Y11252200D03*
G01*
X9194800Y11252200D03*
G01*
X9448800Y11252200D03*
G01*
X9702800Y11252200D03*
G01*
X9956800Y11252200D03*
G01*
X10210800Y11252200D03*
G01*
X10464800Y11252200D03*
G01*
X10718800Y11252200D03*
G01*
X10718800Y12776200D03*
G01*
X10464800Y12776200D03*
G01*
X10210800Y12776200D03*
G01*
X9956800Y12776200D03*
G01*
X9702800Y12776200D03*
G01*
X9448800Y12776200D03*
G01*
X9194800Y12776200D03*
G01*
X8940800Y12776200D03*
G01*
X8686800Y12776200D03*
G01*
X8432800Y12776200D03*
G01*
X8178800Y12776200D03*
G01*
X7924800Y12776200D03*
D17*
G01*
X11658600Y11709400D03*
G01*
X11150600Y11709400D03*
G01*
X4419600Y4229100D03*
G01*
X4419600Y3721100D03*
G01*
X3086100Y13131800D03*
G01*
X3594100Y13131800D03*
D32*
G01*
X4114800Y10096500D03*
G01*
X4114800Y9588500D03*
G01*
X3860800Y10096500D03*
G01*
X4368800Y10096500D03*
G01*
X4622800Y10096500D03*
G01*
X3606800Y10096500D03*
D33*
G01*
X3606800Y9588500D03*
D32*
G01*
X3860800Y9588500D03*
G01*
X4368800Y9588500D03*
G01*
X4622800Y9588500D03*
G01*
X4876800Y10096500D03*
G01*
X4876800Y9588500D03*
G01*
X5638800Y10096500D03*
G01*
X5638800Y9588500D03*
G01*
X5384800Y10096500D03*
G01*
X5892800Y10096500D03*
G01*
X6146800Y10096500D03*
G01*
X5130800Y10096500D03*
G01*
X5130800Y9588500D03*
G01*
X5384800Y9588500D03*
G01*
X5892800Y9588500D03*
G01*
X6146800Y9588500D03*
G01*
X6400800Y10096500D03*
G01*
X6400800Y9588500D03*
G01*
X7162800Y10096500D03*
G01*
X7162800Y9588500D03*
G01*
X6908800Y10096500D03*
G01*
X7416800Y10096500D03*
G01*
X7670800Y10096500D03*
G01*
X6654800Y10096500D03*
G01*
X6654800Y9588500D03*
G01*
X6908800Y9588500D03*
G01*
X7416800Y9588500D03*
G01*
X7670800Y9588500D03*
G01*
X7924800Y10096500D03*
G01*
X7924800Y9588500D03*
G01*
X8686800Y10096500D03*
G01*
X8686800Y9588500D03*
G01*
X8432800Y10096500D03*
G01*
X8940800Y10096500D03*
G01*
X9194800Y10096500D03*
G01*
X8178800Y10096500D03*
G01*
X8178800Y9588500D03*
G01*
X8432800Y9588500D03*
G01*
X8940800Y9588500D03*
G01*
X9194800Y9588500D03*
G01*
X9448800Y10096500D03*
G01*
X9448800Y9588500D03*
G01*
X10210800Y10096500D03*
G01*
X10210800Y9588500D03*
G01*
X9956800Y10096500D03*
G01*
X10464800Y10096500D03*
G01*
X10718800Y10096500D03*
G01*
X9702800Y10096500D03*
G01*
X9702800Y9588500D03*
G01*
X9956800Y9588500D03*
G01*
X10464800Y9588500D03*
G01*
X10718800Y9588500D03*
G01*
X10972800Y10096500D03*
G01*
X10972800Y9588500D03*
D34*
G01*
X8636000Y13487400D03*
D35*
G01*
X8890000Y13487400D03*
G01*
X9144000Y13487400D03*
G01*
X9398000Y13487400D03*
G01*
X9652000Y13487400D03*
G01*
X9906000Y13487400D03*
G01*
X10160000Y13487400D03*
G01*
X10414000Y13487400D03*
G01*
X10668000Y13487400D03*
D36*
G01*
X5041900Y1485900D03*
G01*
X5295900Y1485900D03*
D37*
G01*
X10121900Y1485900D03*
G01*
X9867900Y1485900D03*
D18*
G01*
X12052045Y2307081D03*
G01*
X12052045Y2583942D03*
G01*
X12052045Y2861055D03*
G01*
X12052045Y3137915D03*
G01*
X12052045Y3415029D03*
G01*
X12052045Y3691889D03*
G01*
X12052045Y3969004D03*
D38*
G01*
X12048515Y4244289D03*
D18*
G01*
X12336272Y2443987D03*
G01*
X12336272Y2720847D03*
G01*
X12336272Y2997962D03*
G01*
X12336272Y3274821D03*
G01*
X12336272Y3551936D03*
G01*
X12336272Y3828795D03*
G01*
X12336272Y4105910D03*
D39*
G01*
X12191238Y4940300D03*
G01*
X12190729Y1610360D03*
D18*
G01*
X2552954Y4233418D03*
G01*
X2552954Y3956557D03*
G01*
X2552954Y3679444D03*
G01*
X2552954Y3402584D03*
G01*
X2552954Y3125470D03*
G01*
X2552954Y2848610D03*
G01*
X2552954Y2571495D03*
D20*
G01*
X2556484Y2296210D03*
D18*
G01*
X2268727Y4096512D03*
G01*
X2268727Y3819652D03*
G01*
X2268727Y3542537D03*
G01*
X2268727Y3265678D03*
G01*
X2268727Y2988563D03*
G01*
X2268727Y2711704D03*
G01*
X2268727Y2434589D03*
D39*
G01*
X2413761Y1600200D03*
G01*
X2414270Y4930139D03*
D40*
G01*
X8648700Y7061200D03*
G01*
X8648700Y6807200D03*
D41*
G01*
X8648700Y6553200D03*
D19*
G01*
X8890000Y7061200D03*
G01*
X9906000Y7061200D03*
G01*
X5676900Y2159000D03*
G01*
X4660900Y2159000D03*
G01*
X4140200Y4546600D03*
G01*
X6311900Y4546600D03*
G01*
X5295900Y3251200D03*
G01*
X6299200Y3251200D03*
G01*
X4127500Y3251200D03*
G01*
X4140200Y1930400D03*
G01*
X6299200Y1930400D03*
G01*
X7454900Y1917700D03*
G01*
X8407400Y1917700D03*
G01*
X9398000Y2781300D03*
G01*
X9410700Y3810000D03*
G01*
X9410700Y4559300D03*
D17*
G01*
X7772730Y6853478D03*
G01*
X2514600Y12636500D03*
G01*
X2527300Y10769600D03*
G01*
X3276600Y8699500D03*
G01*
X3289300Y7416800D03*
G01*
X3289300Y6057900D03*
G01*
X3276600Y4000500D03*
G01*
X9296400Y10718800D03*
G01*
X6692900Y10820400D03*
G01*
X9309100Y7581900D03*
G01*
X8610600Y8026400D03*
G01*
X10236200Y3784600D03*
G01*
X9842500Y4127500D03*
G01*
X10858500Y1892300D03*
G01*
X10858500Y2476500D03*
G01*
X10858500Y3060700D03*
G01*
X11010900Y6134100D03*
G01*
X11366500Y7188200D03*
G01*
X10629900Y7200900D03*
D31*
G01*
X9702800Y12025020D03*
G01*
X9956800Y12020321D03*
G01*
X10210800Y12020321D03*
G01*
X10464800Y12029719D03*
G01*
X10718800Y12029719D03*
G01*
X9448800Y12029262D03*
G01*
X9194800Y12023496D03*
G01*
X8940800Y12029262D03*
G01*
X8686800Y12029262D03*
G01*
X8432800Y12026900D03*
G01*
X8178800Y12026900D03*
G01*
X7924800Y12029262D03*
G01*
X6375400Y12026900D03*
G01*
X6121400Y12026900D03*
G01*
X5867400Y12026900D03*
G01*
X5613400Y12030278D03*
G01*
X5359400Y12023521D03*
G01*
X5105400Y12026900D03*
G01*
X4851400Y12028500D03*
G01*
X4597400Y12026900D03*
G01*
X4343400Y12026900D03*
G01*
X4089400Y12026900D03*
G01*
X3835400Y12026900D03*
G01*
X3581400Y12026900D03*
M02*
