G04 Layer: TopSilkscreenLayer*
G04 EasyEDA v6.5.22, 2023-03-19 17:05:06*
G04 74af40cc1a4b405187b5f1ce7251bf20,a2f4cb7aa3704937908c5b59a0d1150c,10*
G04 Gerber Generator version 0.2*
G04 Scale: 100 percent, Rotated: No, Reflected: No *
G04 Dimensions in millimeters *
G04 leading zeros omitted , absolute positions ,4 integer and 5 decimal *
%FSLAX45Y45*%
%MOMM*%

%ADD10C,0.4000*%
%ADD11C,0.2032*%
%ADD12C,0.1520*%
%ADD13C,0.1524*%
%ADD14C,0.2540*%
%ADD15C,0.2007*%
%ADD16C,0.2286*%
%ADD17C,0.2030*%
%ADD18C,0.3000*%
%ADD19C,0.0137*%

%LPD*%
G36*
X7682280Y8046516D02*
G01*
X7645400Y8039100D01*
X7639100Y8037677D01*
X7632903Y8036001D01*
X7620914Y8031886D01*
X7609687Y8027009D01*
X7599476Y8021675D01*
X7594853Y8018881D01*
X7586776Y8013192D01*
X7583322Y8010398D01*
X7580375Y8007603D01*
X7577937Y8004911D01*
X7576007Y8002371D01*
X7574635Y7999933D01*
X7573873Y7997698D01*
X7573772Y7995666D01*
X7574330Y7993837D01*
X7575600Y7992262D01*
X7577581Y7991043D01*
X7580375Y7990078D01*
X7583982Y7989519D01*
X7588402Y7989316D01*
X7594752Y7988655D01*
X7600137Y7986826D01*
X7604404Y7983829D01*
X7607553Y7979867D01*
X7609484Y7974888D01*
X7610195Y7969097D01*
X7609636Y7962595D01*
X7607706Y7955381D01*
X7601966Y7938719D01*
X7555788Y7958023D01*
X7493355Y7930692D01*
X7444282Y7840421D01*
X7444289Y7794040D01*
X7536535Y7794040D01*
X7545120Y7830413D01*
X7550099Y7847685D01*
X7555534Y7862874D01*
X7558379Y7869681D01*
X7561275Y7875879D01*
X7564221Y7881467D01*
X7567218Y7886496D01*
X7570216Y7890814D01*
X7573213Y7894523D01*
X7576210Y7897571D01*
X7579207Y7899908D01*
X7582153Y7901584D01*
X7584998Y7902448D01*
X7587843Y7902600D01*
X7590586Y7901990D01*
X7593228Y7900568D01*
X7595717Y7898384D01*
X7598156Y7895336D01*
X7599730Y7892135D01*
X7600696Y7888274D01*
X7601051Y7883804D01*
X7600899Y7878825D01*
X7600238Y7873390D01*
X7599172Y7867599D01*
X7597648Y7861503D01*
X7593482Y7848752D01*
X7588097Y7835798D01*
X7585049Y7829397D01*
X7578445Y7817256D01*
X7574940Y7811668D01*
X7571384Y7806486D01*
X7567828Y7801762D01*
X7564221Y7797647D01*
X7560716Y7794142D01*
X7557262Y7791399D01*
X7553959Y7789418D01*
X7550810Y7788351D01*
X7547864Y7788198D01*
X7545171Y7789113D01*
X7536535Y7794040D01*
X7444289Y7794040D01*
X7444638Y7781645D01*
X7445654Y7768996D01*
X7447127Y7757109D01*
X7449108Y7746542D01*
X7451394Y7737957D01*
X7452664Y7734553D01*
X7453985Y7731912D01*
X7463637Y7715351D01*
X7526883Y7715351D01*
X7582255Y7758125D01*
X7593939Y7715351D01*
X7612837Y7715351D01*
X7617358Y7715707D01*
X7623048Y7716723D01*
X7629702Y7718298D01*
X7644790Y7722971D01*
X7652816Y7725918D01*
X7660843Y7729169D01*
X7668615Y7732623D01*
X7705598Y7749946D01*
X7705598Y7766862D01*
X7704836Y7773466D01*
X7702854Y7778851D01*
X7699857Y7782509D01*
X7696250Y7783830D01*
X7694828Y7784084D01*
X7693507Y7784896D01*
X7692339Y7786268D01*
X7691272Y7788097D01*
X7690358Y7790434D01*
X7689545Y7793278D01*
X7688325Y7800390D01*
X7687564Y7809331D01*
X7687309Y7819999D01*
X7687564Y7832293D01*
X7688325Y7846110D01*
X7689596Y7861350D01*
X7691374Y7878013D01*
X7693609Y7895844D01*
X7708798Y7997444D01*
X7713725Y8032089D01*
G37*
G36*
X6763715Y8040674D02*
G01*
X6657898Y8040319D01*
X6638594Y8039963D01*
X6620154Y8039252D01*
X6603085Y8038236D01*
X6587845Y8037017D01*
X6574891Y8035594D01*
X6564680Y8034020D01*
X6557670Y8032292D01*
X6555486Y8031429D01*
X6550812Y8028584D01*
X6546951Y8025485D01*
X6543954Y8022234D01*
X6541719Y8018780D01*
X6540398Y8015173D01*
X6539839Y8011464D01*
X6540144Y8007654D01*
X6541312Y8003844D01*
X6543294Y7999933D01*
X6546138Y7996072D01*
X6549796Y7992262D01*
X6554266Y7988452D01*
X6569405Y7976920D01*
X6562191Y7897114D01*
X6560058Y7876438D01*
X6557772Y7857744D01*
X6555282Y7840878D01*
X6552641Y7825892D01*
X6549796Y7812582D01*
X6546697Y7800949D01*
X6545122Y7795768D01*
X6541668Y7786471D01*
X6537959Y7778648D01*
X6534928Y7773720D01*
X6666890Y7773720D01*
X6673342Y7884363D01*
X6674764Y7904734D01*
X6676339Y7922768D01*
X6678015Y7938566D01*
X6679946Y7952231D01*
X6682130Y7963763D01*
X6684568Y7973263D01*
X6687362Y7980781D01*
X6688886Y7983829D01*
X6690512Y7986420D01*
X6692239Y7988553D01*
X6694068Y7990281D01*
X6695998Y7991551D01*
X6698081Y7992364D01*
X6700215Y7992770D01*
X6702552Y7992770D01*
X6704990Y7992364D01*
X6707530Y7991602D01*
X6710273Y7990433D01*
X6716166Y7986979D01*
X6722618Y7982102D01*
X6729780Y7975853D01*
X6744462Y7962392D01*
X6744411Y7839456D01*
X6711797Y7779562D01*
X6666890Y7773720D01*
X6534928Y7773720D01*
X6531813Y7769555D01*
X6529628Y7767167D01*
X6525006Y7763357D01*
X6509156Y7752740D01*
X6516065Y7719618D01*
X6616953Y7716926D01*
X6635851Y7716672D01*
X6653377Y7716774D01*
X6669684Y7717231D01*
X6684873Y7718044D01*
X6698996Y7719212D01*
X6712153Y7720787D01*
X6724396Y7722768D01*
X6735876Y7725206D01*
X6746595Y7728102D01*
X6756755Y7731506D01*
X6766306Y7735366D01*
X6775450Y7739735D01*
X6784238Y7744612D01*
X6792722Y7750048D01*
X6801053Y7756093D01*
X6837578Y7785455D01*
X6853936Y7836204D01*
X6857796Y7850378D01*
X6860844Y7864094D01*
X6862978Y7877403D01*
X6864350Y7890357D01*
X6864807Y7903006D01*
X6864756Y7909204D01*
X6863943Y7921396D01*
X6862318Y7933283D01*
X6859828Y7944967D01*
X6856475Y7956448D01*
X6852259Y7967776D01*
X6847179Y7978902D01*
X6829044Y8015630D01*
G37*
G36*
X7050531Y7954365D02*
G01*
X7044537Y7954213D01*
X7038441Y7953756D01*
X7032193Y7952994D01*
X7025792Y7951927D01*
X7019239Y7950555D01*
X7005777Y7946847D01*
X6998868Y7944561D01*
X6984746Y7939024D01*
X6935978Y7916519D01*
X6891694Y7858048D01*
X6987387Y7858048D01*
X6988251Y7864754D01*
X6990080Y7872069D01*
X6992924Y7879588D01*
X6996734Y7887106D01*
X7000036Y7892237D01*
X7003338Y7896402D01*
X7006590Y7899501D01*
X7009739Y7901635D01*
X7012736Y7902803D01*
X7015480Y7903006D01*
X7017969Y7902244D01*
X7020153Y7900466D01*
X7021931Y7897774D01*
X7023252Y7894116D01*
X7024116Y7889544D01*
X7024420Y7884007D01*
X7023709Y7876692D01*
X7021779Y7869478D01*
X7018781Y7862722D01*
X7014870Y7856575D01*
X7010349Y7851343D01*
X7005320Y7847330D01*
X6999986Y7844688D01*
X6994550Y7843774D01*
X6991146Y7844790D01*
X6988860Y7847787D01*
X6987590Y7852308D01*
X6987387Y7858048D01*
X6891694Y7858048D01*
X6881114Y7844078D01*
X6879742Y7756702D01*
X6932117Y7715351D01*
X7018528Y7715351D01*
X7065365Y7736331D01*
X7072172Y7739786D01*
X7078421Y7743342D01*
X7084009Y7746898D01*
X7088987Y7750505D01*
X7093356Y7754061D01*
X7097115Y7757617D01*
X7100163Y7761122D01*
X7102551Y7764627D01*
X7104278Y7768031D01*
X7105345Y7771384D01*
X7105700Y7774635D01*
X7105345Y7777784D01*
X7104227Y7780832D01*
X7102449Y7783728D01*
X7099858Y7786471D01*
X7090765Y7794853D01*
X7063130Y7784388D01*
X7055002Y7781594D01*
X7046823Y7779461D01*
X7038746Y7777937D01*
X7030872Y7777022D01*
X7023303Y7776718D01*
X7016191Y7776972D01*
X7009638Y7777835D01*
X7003745Y7779207D01*
X6998665Y7781137D01*
X6994499Y7783677D01*
X6991350Y7786674D01*
X6989368Y7790230D01*
X6985508Y7800949D01*
X7005421Y7800949D01*
X7010908Y7801203D01*
X7016648Y7801914D01*
X7022592Y7803134D01*
X7028738Y7804759D01*
X7034987Y7806791D01*
X7041286Y7809179D01*
X7047636Y7811973D01*
X7053986Y7815072D01*
X7060234Y7818475D01*
X7066381Y7822184D01*
X7072375Y7826146D01*
X7078167Y7830362D01*
X7083653Y7834782D01*
X7088886Y7839354D01*
X7093762Y7844129D01*
X7098233Y7849006D01*
X7117689Y7871764D01*
X7117689Y7928406D01*
X7096963Y7941716D01*
X7092543Y7944358D01*
X7087870Y7946694D01*
X7083044Y7948726D01*
X7078065Y7950453D01*
X7072884Y7951825D01*
X7067550Y7952943D01*
X7062012Y7953705D01*
X7056374Y7954213D01*
G37*
G36*
X7830058Y7954111D02*
G01*
X7796682Y7938109D01*
X7784998Y7931810D01*
X7774178Y7925104D01*
X7764170Y7918043D01*
X7755178Y7910779D01*
X7747203Y7903260D01*
X7740243Y7895640D01*
X7734503Y7887868D01*
X7722971Y7868361D01*
X7745374Y7843570D01*
X7757718Y7852968D01*
X7760716Y7855051D01*
X7763509Y7856677D01*
X7766253Y7857845D01*
X7768844Y7858506D01*
X7771384Y7858607D01*
X7773873Y7858201D01*
X7776311Y7857185D01*
X7778750Y7855559D01*
X7781188Y7853324D01*
X7783626Y7850428D01*
X7786116Y7846872D01*
X7788656Y7842605D01*
X7794040Y7831836D01*
X7799882Y7817916D01*
X7806334Y7800695D01*
X7813548Y7779969D01*
X7837830Y7708442D01*
X7827213Y7690256D01*
X7824266Y7685836D01*
X7821066Y7682331D01*
X7817764Y7679740D01*
X7814513Y7678013D01*
X7811414Y7677150D01*
X7808569Y7677150D01*
X7806181Y7677912D01*
X7804302Y7679537D01*
X7803083Y7681874D01*
X7802676Y7685024D01*
X7803184Y7688935D01*
X7804708Y7693558D01*
X7805826Y7699552D01*
X7805166Y7707172D01*
X7802930Y7715402D01*
X7799273Y7723225D01*
X7788909Y7741005D01*
X7767777Y7741005D01*
X7760766Y7740700D01*
X7754366Y7739684D01*
X7748574Y7738059D01*
X7743444Y7735722D01*
X7738922Y7732775D01*
X7735011Y7729118D01*
X7731709Y7724800D01*
X7729016Y7719771D01*
X7726934Y7714081D01*
X7725409Y7707680D01*
X7724546Y7700619D01*
X7724241Y7692847D01*
X7724241Y7665212D01*
X7775549Y7628077D01*
X7852816Y7635951D01*
X7920329Y7683195D01*
X7987944Y7808772D01*
X7997088Y7925612D01*
X7982458Y7936687D01*
X7979105Y7938871D01*
X7975092Y7940802D01*
X7970672Y7942427D01*
X7965846Y7943748D01*
X7960868Y7944662D01*
X7955889Y7945221D01*
X7951012Y7945323D01*
X7946390Y7945018D01*
X7924850Y7942224D01*
X7921752Y7922158D01*
X7921396Y7917586D01*
X7921447Y7912404D01*
X7921904Y7906766D01*
X7922818Y7900822D01*
X7924038Y7894777D01*
X7925612Y7888782D01*
X7927492Y7883042D01*
X7929625Y7877759D01*
X7940598Y7853425D01*
X7932877Y7821422D01*
X7929829Y7812227D01*
X7928305Y7808772D01*
X7926679Y7806131D01*
X7925003Y7804302D01*
X7923225Y7803286D01*
X7921345Y7803083D01*
X7919415Y7803743D01*
X7917332Y7805267D01*
X7915148Y7807604D01*
X7912811Y7810855D01*
X7910271Y7814970D01*
X7904784Y7825892D01*
X7898536Y7840522D01*
X7891424Y7858912D01*
X7862620Y7938109D01*
G37*
G36*
X7368489Y7953349D02*
G01*
X7360056Y7952689D01*
X7350861Y7950809D01*
X7346035Y7949438D01*
X7335875Y7945729D01*
X7325055Y7940852D01*
X7313574Y7934706D01*
X7291171Y7920990D01*
X7282434Y7916265D01*
X7276236Y7913624D01*
X7273493Y7913471D01*
X7264806Y7928051D01*
X7261098Y7933893D01*
X7257643Y7938820D01*
X7254341Y7942884D01*
X7251090Y7946085D01*
X7247788Y7948523D01*
X7244283Y7950200D01*
X7240473Y7951165D01*
X7236307Y7951470D01*
X7231684Y7951165D01*
X7226401Y7950250D01*
X7220407Y7948777D01*
X7205827Y7944307D01*
X7189825Y7938820D01*
X7182866Y7935925D01*
X7176262Y7932826D01*
X7170013Y7929473D01*
X7164120Y7926019D01*
X7158685Y7922412D01*
X7153757Y7918754D01*
X7149338Y7915097D01*
X7145426Y7911439D01*
X7142175Y7907883D01*
X7139482Y7904480D01*
X7137501Y7901178D01*
X7136231Y7898130D01*
X7135672Y7895336D01*
X7135926Y7892846D01*
X7137044Y7890713D01*
X7138974Y7888986D01*
X7141819Y7887665D01*
X7145578Y7886852D01*
X7150353Y7886547D01*
X7164374Y7886547D01*
X7163816Y7844891D01*
X7163155Y7833055D01*
X7162038Y7820050D01*
X7160514Y7806588D01*
X7158685Y7793431D01*
X7156653Y7781340D01*
X7154062Y7767980D01*
X7152843Y7760208D01*
X7151928Y7752740D01*
X7151319Y7745730D01*
X7151065Y7739430D01*
X7151116Y7733995D01*
X7151522Y7729677D01*
X7152335Y7726629D01*
X7157059Y7715351D01*
X7186930Y7715351D01*
X7193229Y7715554D01*
X7199731Y7716164D01*
X7206284Y7717180D01*
X7212584Y7718501D01*
X7218578Y7720075D01*
X7223963Y7721904D01*
X7228636Y7723886D01*
X7232396Y7726019D01*
X7247991Y7736738D01*
X7258405Y7804251D01*
X7259878Y7812227D01*
X7263282Y7826959D01*
X7267143Y7840014D01*
X7271359Y7851292D01*
X7273594Y7856220D01*
X7275931Y7860639D01*
X7278319Y7864602D01*
X7280757Y7868056D01*
X7283246Y7870952D01*
X7285786Y7873288D01*
X7288377Y7875117D01*
X7290968Y7876336D01*
X7293609Y7876997D01*
X7296251Y7877048D01*
X7298893Y7876489D01*
X7301534Y7875320D01*
X7309866Y7870596D01*
X7292238Y7731556D01*
X7312253Y7713167D01*
X7344968Y7718806D01*
X7351979Y7720279D01*
X7359345Y7722260D01*
X7366863Y7724698D01*
X7374331Y7727492D01*
X7381544Y7730540D01*
X7388199Y7733741D01*
X7394143Y7737043D01*
X7399121Y7740396D01*
X7420559Y7756296D01*
X7396225Y7797952D01*
X7408113Y7858506D01*
X7410145Y7872323D01*
X7411262Y7885125D01*
X7411466Y7896809D01*
X7410856Y7907477D01*
X7409332Y7917027D01*
X7408265Y7921396D01*
X7406995Y7925511D01*
X7405522Y7929372D01*
X7403846Y7932877D01*
X7401966Y7936179D01*
X7399883Y7939176D01*
X7397597Y7941868D01*
X7395108Y7944307D01*
X7392466Y7946440D01*
X7389571Y7948269D01*
X7386523Y7949844D01*
X7383322Y7951114D01*
X7379868Y7952130D01*
X7376261Y7952841D01*
X7372451Y7953248D01*
G37*
G36*
X7189470Y7617358D02*
G01*
X7176211Y7617104D01*
X7164679Y7616342D01*
X7156500Y7615377D01*
X7138314Y7612532D01*
X7113828Y7608265D01*
X7079081Y7601864D01*
X6998563Y7586167D01*
X6912457Y7530033D01*
X6777126Y7561580D01*
X6698081Y7550759D01*
X6632549Y7484160D01*
X6599072Y7484109D01*
X6589318Y7483500D01*
X6579920Y7482230D01*
X6570827Y7480350D01*
X6562090Y7477861D01*
X6553657Y7474712D01*
X6545529Y7470902D01*
X6537706Y7466533D01*
X6530238Y7461503D01*
X6523126Y7455814D01*
X6516268Y7449515D01*
X6509766Y7442555D01*
X6503568Y7434986D01*
X6497675Y7426756D01*
X6492087Y7417866D01*
X6486804Y7408367D01*
X6481876Y7398207D01*
X6477254Y7387386D01*
X6472936Y7375956D01*
X6468922Y7363815D01*
X6465214Y7351064D01*
X6461810Y7337704D01*
X6458712Y7323632D01*
X6455918Y7308951D01*
X6452053Y7283297D01*
X6480708Y7283297D01*
X6493357Y7337044D01*
X6497370Y7350353D01*
X6502044Y7363155D01*
X6507378Y7375296D01*
X6513322Y7386878D01*
X6519824Y7397750D01*
X6526834Y7407859D01*
X6534353Y7417257D01*
X6538264Y7421625D01*
X6546443Y7429703D01*
X6550609Y7433411D01*
X6559296Y7440117D01*
X6563715Y7443114D01*
X6572808Y7448346D01*
X6582105Y7452563D01*
X6586829Y7454239D01*
X6591553Y7455611D01*
X6596380Y7456728D01*
X6601155Y7457541D01*
X6606031Y7458049D01*
X6631228Y7458506D01*
X6634876Y7447940D01*
X6675323Y7447940D01*
X6675526Y7452766D01*
X6676034Y7457694D01*
X6676898Y7462621D01*
X6678066Y7467650D01*
X6679590Y7472730D01*
X6690969Y7503109D01*
X6725259Y7516723D01*
X6735114Y7520178D01*
X6744512Y7522819D01*
X6753859Y7524699D01*
X6763512Y7525766D01*
X6773824Y7526070D01*
X6781865Y7525816D01*
X6957872Y7525816D01*
X6983882Y7539329D01*
X6994296Y7544155D01*
X7018883Y7554468D01*
X7043064Y7563459D01*
X7053021Y7566710D01*
X7060438Y7568692D01*
X7062978Y7569149D01*
X7063384Y7568590D01*
X7062317Y7566710D01*
X7056170Y7559548D01*
X7045553Y7548778D01*
X7031532Y7535570D01*
X7013651Y7519517D01*
X7006590Y7513624D01*
X7000494Y7509052D01*
X6995312Y7505750D01*
X6990791Y7503668D01*
X6986778Y7502753D01*
X6983120Y7502956D01*
X6979666Y7504175D01*
X6976313Y7506411D01*
X6972757Y7509509D01*
X6957872Y7525816D01*
X6781865Y7525816D01*
X6791401Y7525105D01*
X6805117Y7523581D01*
X6820763Y7521295D01*
X6838848Y7518298D01*
X6847789Y7516571D01*
X6857492Y7514336D01*
X6867753Y7511643D01*
X6878574Y7508494D01*
X6901535Y7501026D01*
X6913524Y7496809D01*
X6932015Y7489850D01*
X6951710Y7481874D01*
X7031736Y7481874D01*
X7061403Y7511338D01*
X7068820Y7517587D01*
X7077862Y7524394D01*
X7088174Y7531506D01*
X7099401Y7538770D01*
X7111187Y7545882D01*
X7123226Y7552690D01*
X7135215Y7558989D01*
X7197039Y7588605D01*
X7312456Y7580426D01*
X7360869Y7558786D01*
X7370165Y7553807D01*
X7378948Y7548524D01*
X7451801Y7548524D01*
X7451852Y7549642D01*
X7452410Y7550353D01*
X7453528Y7550708D01*
X7455204Y7550658D01*
X7460132Y7549388D01*
X7467244Y7546543D01*
X7476490Y7542225D01*
X7487920Y7536383D01*
X7501534Y7529068D01*
X7516063Y7520940D01*
X7529626Y7512608D01*
X7542377Y7504125D01*
X7553756Y7495794D01*
X7563053Y7488174D01*
X7566812Y7484770D01*
X7569809Y7481671D01*
X7571994Y7478979D01*
X7584744Y7460945D01*
X7559802Y7441946D01*
X7493101Y7503718D01*
X7470800Y7525207D01*
X7462875Y7533487D01*
X7457033Y7540091D01*
X7453375Y7545120D01*
X7452309Y7547051D01*
X7451801Y7548524D01*
X7378948Y7548524D01*
X7385964Y7544053D01*
X7397394Y7536281D01*
X7409332Y7527696D01*
X7421625Y7518400D01*
X7433970Y7508697D01*
X7458303Y7488377D01*
X7469835Y7478115D01*
X7480655Y7468057D01*
X7490663Y7458354D01*
X7499553Y7449108D01*
X7507224Y7440574D01*
X7513370Y7432802D01*
X7517892Y7426096D01*
X7527594Y7409484D01*
X7522758Y7400899D01*
X7576159Y7400899D01*
X7592568Y7423708D01*
X7598968Y7431430D01*
X7606030Y7438898D01*
X7613700Y7446111D01*
X7621981Y7453020D01*
X7630820Y7459675D01*
X7640116Y7466025D01*
X7649921Y7472019D01*
X7660182Y7477709D01*
X7670800Y7483094D01*
X7681823Y7488072D01*
X7693152Y7492746D01*
X7704785Y7497064D01*
X7716621Y7500924D01*
X7728712Y7504480D01*
X7741005Y7507579D01*
X7753400Y7510272D01*
X7765897Y7512558D01*
X7778445Y7514437D01*
X7791043Y7515859D01*
X7803642Y7516774D01*
X7816189Y7517282D01*
X7828635Y7517282D01*
X7840980Y7516825D01*
X7853172Y7515859D01*
X7865160Y7514336D01*
X7876895Y7512354D01*
X7888376Y7509814D01*
X7898688Y7506970D01*
X7907731Y7503820D01*
X7916367Y7500112D01*
X7924596Y7495844D01*
X7932420Y7491018D01*
X7939836Y7485634D01*
X7946847Y7479741D01*
X7953451Y7473289D01*
X7959648Y7466330D01*
X7965440Y7458811D01*
X7970824Y7450836D01*
X7975752Y7442301D01*
X7980273Y7433259D01*
X7984388Y7423708D01*
X7988096Y7413701D01*
X7991348Y7403185D01*
X7994192Y7392212D01*
X7996631Y7380681D01*
X7998612Y7368743D01*
X8000187Y7356297D01*
X8001304Y7343444D01*
X8002016Y7330084D01*
X8002270Y7316266D01*
X8002117Y7302042D01*
X8001508Y7287361D01*
X8000441Y7272223D01*
X7998917Y7256678D01*
X7996986Y7240676D01*
X7994599Y7224268D01*
X7991805Y7207453D01*
X7989265Y7194143D01*
X7984388Y7173163D01*
X7977835Y7149185D01*
X7969859Y7122820D01*
X7960664Y7094677D01*
X7950504Y7065314D01*
X7939684Y7035241D01*
X7922514Y6990232D01*
X7910880Y6961124D01*
X7899298Y6933387D01*
X7888071Y6907631D01*
X7877403Y6884416D01*
X7867548Y6864299D01*
X7858709Y6847890D01*
X7854797Y6841286D01*
X7851140Y6835800D01*
X7847939Y6831533D01*
X7845094Y6828536D01*
X7842707Y6826910D01*
X7841691Y6826656D01*
X7840776Y6826707D01*
X7840014Y6827215D01*
X7839202Y6828637D01*
X7838998Y6830923D01*
X7839456Y6834022D01*
X7840472Y6837934D01*
X7844383Y6848043D01*
X7850581Y6861048D01*
X7859064Y6876846D01*
X7869681Y6895236D01*
X7883499Y6918401D01*
X7874965Y6933742D01*
X7873034Y6937705D01*
X7868361Y6949490D01*
X7863128Y6964984D01*
X7857998Y6982307D01*
X7844891Y7032955D01*
X7868158Y7056628D01*
X7873136Y7062266D01*
X7877657Y7067803D01*
X7881721Y7073290D01*
X7885328Y7078624D01*
X7888478Y7083856D01*
X7891170Y7088987D01*
X7893456Y7094016D01*
X7895234Y7098842D01*
X7896606Y7103567D01*
X7897520Y7108088D01*
X7898028Y7112457D01*
X7898028Y7116673D01*
X7897622Y7120636D01*
X7896809Y7124446D01*
X7895539Y7128002D01*
X7893812Y7131354D01*
X7891678Y7134453D01*
X7889087Y7137349D01*
X7886090Y7139940D01*
X7882686Y7142276D01*
X7878825Y7144359D01*
X7874558Y7146137D01*
X7869834Y7147610D01*
X7864754Y7148779D01*
X7859217Y7149592D01*
X7853222Y7150100D01*
X7846872Y7150303D01*
X7821523Y7150303D01*
X7767828Y7100265D01*
X7754315Y7088073D01*
X7743291Y7078675D01*
X7734503Y7072071D01*
X7730845Y7069785D01*
X7727696Y7068210D01*
X7724952Y7067245D01*
X7722616Y7066940D01*
X7720685Y7067296D01*
X7719009Y7068312D01*
X7717739Y7069937D01*
X7716672Y7072172D01*
X7715859Y7075017D01*
X7714894Y7082586D01*
X7714284Y7097775D01*
X7713014Y7109053D01*
X7710728Y7120991D01*
X7707579Y7133336D01*
X7703667Y7145731D01*
X7699095Y7157872D01*
X7694015Y7169454D01*
X7688529Y7180122D01*
X7682738Y7189571D01*
X7679791Y7193737D01*
X7676794Y7197496D01*
X7671155Y7203744D01*
X7668768Y7207148D01*
X7666685Y7210856D01*
X7664856Y7214920D01*
X7663281Y7219289D01*
X7662011Y7223963D01*
X7660995Y7228992D01*
X7660233Y7234326D01*
X7659776Y7239914D01*
X7659573Y7245807D01*
X7660030Y7258405D01*
X7660640Y7265060D01*
X7662722Y7279131D01*
X7664145Y7286548D01*
X7667904Y7301941D01*
X7672679Y7318146D01*
X7686497Y7360716D01*
X7713675Y7384643D01*
X7718298Y7388453D01*
X7723428Y7392111D01*
X7728915Y7395616D01*
X7734757Y7398969D01*
X7740903Y7402118D01*
X7753959Y7407859D01*
X7760766Y7410399D01*
X7774736Y7414768D01*
X7788859Y7418120D01*
X7795920Y7419390D01*
X7802829Y7420356D01*
X7809636Y7421016D01*
X7816291Y7421372D01*
X7822692Y7421372D01*
X7828838Y7421067D01*
X7834680Y7420406D01*
X7846466Y7418222D01*
X7852156Y7417866D01*
X7857083Y7418171D01*
X7861249Y7419136D01*
X7864602Y7420609D01*
X7866989Y7422642D01*
X7868462Y7425029D01*
X7868920Y7427823D01*
X7868310Y7430922D01*
X7866583Y7434275D01*
X7863687Y7437780D01*
X7859522Y7441387D01*
X7845704Y7451953D01*
X7724546Y7444841D01*
X7692440Y7416749D01*
X7685786Y7409992D01*
X7678674Y7402017D01*
X7671257Y7393025D01*
X7663891Y7383373D01*
X7656677Y7373315D01*
X7649921Y7363155D01*
X7643825Y7353249D01*
X7615631Y7302550D01*
X7576159Y7400899D01*
X7522758Y7400899D01*
X7489799Y7342479D01*
X7472578Y7313066D01*
X7465263Y7301128D01*
X7459319Y7291882D01*
X7455153Y7285939D01*
X7453020Y7283805D01*
X7450581Y7282942D01*
X7447280Y7282586D01*
X7443114Y7282789D01*
X7438085Y7283450D01*
X7432243Y7284618D01*
X7418273Y7288326D01*
X7401509Y7293864D01*
X7382205Y7300975D01*
X7360666Y7309662D01*
X7337094Y7319772D01*
X7311796Y7331100D01*
X7285075Y7343648D01*
X7257135Y7357211D01*
X7228331Y7371689D01*
X7206284Y7383068D01*
X7161631Y7406995D01*
X7131761Y7423607D01*
X7102195Y7440675D01*
X7031736Y7481874D01*
X6951710Y7481874D01*
X6976109Y7471359D01*
X7007148Y7456830D01*
X7030770Y7444689D01*
X7042048Y7438593D01*
X7052818Y7432446D01*
X7091324Y7409129D01*
X7134199Y7384440D01*
X7163917Y7367879D01*
X7192975Y7352080D01*
X7274356Y7308392D01*
X6954418Y7314641D01*
X6851751Y7297216D01*
X6736080Y7347661D01*
X6703822Y7383729D01*
X6695541Y7394143D01*
X6691934Y7399274D01*
X6685838Y7409230D01*
X6683298Y7414158D01*
X6681114Y7419035D01*
X6677812Y7428687D01*
X6676694Y7433462D01*
X6675881Y7438288D01*
X6675424Y7443063D01*
X6675323Y7447940D01*
X6634876Y7447940D01*
X6637121Y7441438D01*
X6639153Y7433970D01*
X6639763Y7427264D01*
X6639001Y7421372D01*
X6636918Y7416444D01*
X6633565Y7412481D01*
X6629044Y7409535D01*
X6623253Y7407757D01*
X6611823Y7406640D01*
X6606844Y7405319D01*
X6601510Y7403185D01*
X6596075Y7400442D01*
X6590639Y7397191D01*
X6585407Y7393584D01*
X6580530Y7389672D01*
X6576161Y7385659D01*
X6572453Y7381595D01*
X6569608Y7377633D01*
X6567830Y7373924D01*
X6567170Y7370572D01*
X6567170Y7362393D01*
X6648145Y7373518D01*
X6769404Y7292441D01*
X6769150Y7289292D01*
X6765036Y7267905D01*
X6749237Y7196277D01*
X6746290Y7181646D01*
X6741498Y7154570D01*
X6790283Y7154570D01*
X6796430Y7219848D01*
X6799021Y7240422D01*
X6801815Y7257237D01*
X6803186Y7263587D01*
X6804456Y7268209D01*
X6805625Y7270902D01*
X6810908Y7278776D01*
X6847078Y7260996D01*
X6831990Y7239812D01*
X6825081Y7229043D01*
X6817410Y7215428D01*
X6809943Y7200696D01*
X6806539Y7193483D01*
X6790283Y7154570D01*
X6741498Y7154570D01*
X6737553Y7128764D01*
X6734098Y7100773D01*
X6732930Y7088327D01*
X6732219Y7077303D01*
X6730657Y7022134D01*
X6818477Y7022134D01*
X6818833Y7025233D01*
X6820509Y7028332D01*
X6823506Y7031177D01*
X6827672Y7033717D01*
X6832955Y7035850D01*
X6839305Y7037527D01*
X6846570Y7038594D01*
X6854748Y7039000D01*
X6878015Y7039000D01*
X6868933Y7029805D01*
X6884720Y7029805D01*
X6897827Y7025182D01*
X6903364Y7022388D01*
X6908596Y7018324D01*
X6913067Y7013448D01*
X6916064Y7008368D01*
X6917944Y7002576D01*
X6917994Y6998716D01*
X6916572Y6996785D01*
X6913880Y6996633D01*
X6910222Y6998258D01*
X6905904Y7001560D01*
X6901078Y7006488D01*
X6896150Y7012990D01*
X6884720Y7029805D01*
X6868933Y7029805D01*
X6861657Y7022439D01*
X6854291Y7016394D01*
X6846265Y7012127D01*
X6838594Y7010044D01*
X6832244Y7010501D01*
X6826351Y7013092D01*
X6822186Y7015937D01*
X6819544Y7018985D01*
X6818477Y7022134D01*
X6730657Y7022134D01*
X6730492Y7015988D01*
X6740906Y7003948D01*
X6743242Y7000900D01*
X6748525Y6992061D01*
X6754215Y6980681D01*
X6759549Y6968185D01*
X6772402Y6931863D01*
X6752336Y6883349D01*
X6748576Y6873036D01*
X6744817Y6861809D01*
X6741210Y6850024D01*
X6737908Y6838035D01*
X6734911Y6826199D01*
X6732371Y6814921D01*
X6730390Y6804507D01*
X6728104Y6790588D01*
X6726072Y6781495D01*
X6723684Y6772808D01*
X6721043Y6764680D01*
X6718249Y6757365D01*
X6715302Y6751116D01*
X6712356Y6746138D01*
X6709409Y6742684D01*
X6699236Y6733336D01*
X6763105Y6733336D01*
X6763359Y6778447D01*
X6764426Y6791401D01*
X6766356Y6805726D01*
X6768998Y6820560D01*
X6772249Y6835190D01*
X6775958Y6848754D01*
X6779971Y6861048D01*
X6784086Y6874560D01*
X6788150Y6889089D01*
X6791959Y6903821D01*
X6795312Y6917944D01*
X6797954Y6930644D01*
X6805422Y6974789D01*
X6858355Y6971233D01*
X6871309Y6969912D01*
X6883857Y6968134D01*
X6895338Y6966102D01*
X6905193Y6963867D01*
X6912762Y6961530D01*
X6921601Y6957669D01*
X6927291Y6955790D01*
X6932523Y6954621D01*
X6937298Y6954164D01*
X6941566Y6954418D01*
X6945375Y6955332D01*
X6948678Y6956856D01*
X6951472Y6958939D01*
X6953707Y6961631D01*
X6955434Y6964883D01*
X6956602Y6968591D01*
X6957212Y6972808D01*
X6957263Y6977481D01*
X6956704Y6982561D01*
X6955536Y6987997D01*
X6953758Y6993839D01*
X6951370Y6999986D01*
X6948322Y7006437D01*
X6944664Y7013143D01*
X6940296Y7020052D01*
X6921601Y7048246D01*
X6835851Y7081926D01*
X6841490Y7095439D01*
X6842607Y7098995D01*
X6843674Y7103973D01*
X6844639Y7110120D01*
X6846163Y7125106D01*
X6846976Y7142124D01*
X6847078Y7192721D01*
X6894931Y7221423D01*
X6936689Y7203186D01*
X6950913Y7197293D01*
X6956094Y7195515D01*
X6960108Y7194550D01*
X6963156Y7194346D01*
X6965340Y7195007D01*
X6966813Y7196480D01*
X6967728Y7198766D01*
X6968185Y7201916D01*
X6968388Y7205929D01*
X6968388Y7228636D01*
X6927697Y7244334D01*
X6921296Y7247026D01*
X6915759Y7249668D01*
X6911035Y7252208D01*
X6907174Y7254646D01*
X6904024Y7256983D01*
X6901688Y7259269D01*
X6900113Y7261402D01*
X6899249Y7263536D01*
X6899097Y7265517D01*
X6899656Y7267448D01*
X6900875Y7269225D01*
X6902754Y7271003D01*
X6905294Y7272629D01*
X6908393Y7274204D01*
X6912152Y7275677D01*
X6921347Y7278319D01*
X6932675Y7280656D01*
X6946087Y7282586D01*
X6961327Y7284212D01*
X6978294Y7285481D01*
X6996836Y7286345D01*
X7016800Y7286904D01*
X7043470Y7287056D01*
X7066076Y7286752D01*
X7089546Y7286142D01*
X7113828Y7285126D01*
X7145020Y7283399D01*
X7170521Y7281570D01*
X7202728Y7278776D01*
X7235037Y7275423D01*
X7260844Y7272375D01*
X7286396Y7268921D01*
X7323886Y7263079D01*
X7348118Y7258710D01*
X7371588Y7253986D01*
X7394143Y7248855D01*
X7473746Y7228179D01*
X7498689Y7280808D01*
X7523378Y7334351D01*
X7538821Y7368590D01*
X7551521Y7352842D01*
X7553350Y7350201D01*
X7555331Y7346543D01*
X7559548Y7336688D01*
X7563916Y7324039D01*
X7568285Y7309408D01*
X7572400Y7293406D01*
X7575956Y7276896D01*
X7587691Y7216648D01*
X7570622Y7109002D01*
X7567523Y7092086D01*
X7564577Y7079335D01*
X7563053Y7074408D01*
X7561427Y7070344D01*
X7559700Y7067092D01*
X7557820Y7064603D01*
X7555687Y7062825D01*
X7553401Y7061657D01*
X7550759Y7061047D01*
X7547864Y7060996D01*
X7544612Y7061352D01*
X7536891Y7063282D01*
X7498842Y7075373D01*
X7476490Y7066025D01*
X7471867Y7063689D01*
X7467346Y7060641D01*
X7462977Y7056983D01*
X7458913Y7052868D01*
X7455306Y7048449D01*
X7452207Y7043775D01*
X7449718Y7039051D01*
X7448042Y7034377D01*
X7442057Y7012482D01*
X7479284Y7012482D01*
X7484821Y7025741D01*
X7487564Y7031278D01*
X7490561Y7035190D01*
X7494117Y7037476D01*
X7498486Y7038086D01*
X7503922Y7037070D01*
X7510678Y7034377D01*
X7519009Y7030008D01*
X7658912Y6944309D01*
X7658912Y6901992D01*
X7671917Y6901992D01*
X7676184Y6902348D01*
X7679893Y6903415D01*
X7682992Y6905142D01*
X7685582Y6907530D01*
X7687564Y6910628D01*
X7688935Y6914438D01*
X7689748Y6918858D01*
X7690002Y6923989D01*
X7689697Y6929780D01*
X7688783Y6936231D01*
X7687259Y6943344D01*
X7685227Y6951116D01*
X7677099Y6978853D01*
X7621270Y7005320D01*
X7642555Y7041743D01*
X7635849Y7102297D01*
X7634782Y7116825D01*
X7634274Y7130643D01*
X7634376Y7142988D01*
X7634986Y7153300D01*
X7636205Y7160869D01*
X7637018Y7163409D01*
X7643368Y7178598D01*
X7677607Y7139838D01*
X7677861Y7096506D01*
X7678623Y7082028D01*
X7679283Y7075474D01*
X7681163Y7063689D01*
X7682382Y7058406D01*
X7683804Y7053630D01*
X7685379Y7049262D01*
X7687157Y7045299D01*
X7689138Y7041794D01*
X7691323Y7038746D01*
X7693710Y7036155D01*
X7696301Y7033971D01*
X7699044Y7032193D01*
X7702042Y7030872D01*
X7705191Y7030008D01*
X7708595Y7029551D01*
X7712202Y7029500D01*
X7716012Y7029907D01*
X7720025Y7030770D01*
X7724241Y7032040D01*
X7728712Y7033717D01*
X7733385Y7035850D01*
X7743342Y7041388D01*
X7754213Y7048652D01*
X7765999Y7057593D01*
X7793481Y7080910D01*
X7807553Y7092340D01*
X7820253Y7101992D01*
X7830870Y7109510D01*
X7838846Y7114336D01*
X7841640Y7115606D01*
X7843520Y7116064D01*
X7849514Y7115606D01*
X7851902Y7114997D01*
X7853832Y7114184D01*
X7855305Y7113066D01*
X7856372Y7111695D01*
X7856981Y7110069D01*
X7857185Y7108139D01*
X7856880Y7105903D01*
X7856118Y7103364D01*
X7854899Y7100519D01*
X7851089Y7093813D01*
X7845298Y7085787D01*
X7837525Y7076236D01*
X7827772Y7065213D01*
X7815935Y7052564D01*
X7802016Y7038289D01*
X7724241Y6960514D01*
X7724241Y6940143D01*
X7724597Y6934403D01*
X7725562Y6928256D01*
X7726124Y6925970D01*
X7761681Y6925970D01*
X7761731Y6929475D01*
X7762494Y6933539D01*
X7763967Y6938060D01*
X7766100Y6942988D01*
X7768844Y6948220D01*
X7772298Y6953707D01*
X7776311Y6959346D01*
X7780934Y6965086D01*
X7785658Y6970268D01*
X7790281Y6974789D01*
X7794904Y6978650D01*
X7799374Y6981799D01*
X7803743Y6984288D01*
X7807959Y6986066D01*
X7812074Y6987133D01*
X7816037Y6987489D01*
X7819847Y6987133D01*
X7823504Y6986066D01*
X7826908Y6984288D01*
X7830159Y6981748D01*
X7830718Y6980021D01*
X7830007Y6977278D01*
X7828127Y6973671D01*
X7825282Y6969353D01*
X7821574Y6964476D01*
X7812278Y6953707D01*
X7801406Y6942581D01*
X7795818Y6937298D01*
X7790281Y6932422D01*
X7784947Y6928053D01*
X7780020Y6924395D01*
X7775651Y6921550D01*
X7771942Y6919772D01*
X7769098Y6919112D01*
X7766050Y6919620D01*
X7763814Y6920941D01*
X7762392Y6923074D01*
X7761681Y6925970D01*
X7726124Y6925970D01*
X7727137Y6921855D01*
X7729220Y6915251D01*
X7731810Y6908495D01*
X7734808Y6901789D01*
X7738211Y6895084D01*
X7741970Y6888530D01*
X7745692Y6882688D01*
X7791653Y6882688D01*
X7793329Y6888175D01*
X7797393Y6894830D01*
X7803489Y6901942D01*
X7809992Y6908038D01*
X7816037Y6912813D01*
X7821574Y6916216D01*
X7826451Y6918299D01*
X7830515Y6918959D01*
X7833614Y6918147D01*
X7835544Y6915810D01*
X7836204Y6911898D01*
X7835493Y6908749D01*
X7833461Y6905091D01*
X7830362Y6901129D01*
X7826451Y6896963D01*
X7821930Y6892848D01*
X7817002Y6888937D01*
X7811973Y6885381D01*
X7806994Y6882384D01*
X7802372Y6880047D01*
X7798257Y6878624D01*
X7794955Y6878320D01*
X7792669Y6879183D01*
X7791653Y6882688D01*
X7745692Y6882688D01*
X7750251Y6876237D01*
X7754670Y6870598D01*
X7759242Y6865467D01*
X7763865Y6860895D01*
X7768539Y6856984D01*
X7773162Y6853834D01*
X7777734Y6851446D01*
X7798511Y6842607D01*
X7787589Y6816394D01*
X7764018Y6816394D01*
X7758633Y6816750D01*
X7752334Y6817817D01*
X7745374Y6819493D01*
X7737957Y6821728D01*
X7730388Y6824421D01*
X7722768Y6827469D01*
X7715402Y6830872D01*
X7703718Y6837019D01*
X7692288Y6841998D01*
X7678877Y6846722D01*
X7664348Y6850938D01*
X7649413Y6854494D01*
X7642047Y6855968D01*
X7628077Y6858050D01*
X7579614Y6863486D01*
X7543088Y6932980D01*
X7535976Y6945731D01*
X7528763Y6957872D01*
X7521600Y6969201D01*
X7514793Y6979310D01*
X7508544Y6987946D01*
X7502956Y6994753D01*
X7498283Y6999528D01*
X7496403Y7001002D01*
X7479284Y7012482D01*
X7442057Y7012482D01*
X7441946Y7012076D01*
X7474051Y6980936D01*
X7482281Y6971995D01*
X7490612Y6962140D01*
X7498588Y6951929D01*
X7505801Y6941921D01*
X7511846Y6932625D01*
X7530388Y6899148D01*
X7520990Y6822998D01*
X7498994Y6797802D01*
X7493914Y6791045D01*
X7487970Y6782460D01*
X7481468Y6772351D01*
X7467498Y6749186D01*
X7453680Y6724142D01*
X7419492Y6658000D01*
X7368641Y6612534D01*
X7358532Y6604050D01*
X7348220Y6595872D01*
X7337704Y6588150D01*
X7327036Y6580733D01*
X7316216Y6573774D01*
X7305344Y6567220D01*
X7294422Y6561074D01*
X7283450Y6555384D01*
X7272528Y6550202D01*
X7261606Y6545478D01*
X7250734Y6541262D01*
X7240016Y6537553D01*
X7229398Y6534353D01*
X7218934Y6531762D01*
X7208672Y6529679D01*
X7166711Y6523481D01*
X7160514Y6532626D01*
X7159345Y6535369D01*
X7159193Y6538417D01*
X7159955Y6541719D01*
X7161530Y6545224D01*
X7163866Y6548831D01*
X7166864Y6552488D01*
X7170420Y6556146D01*
X7174484Y6559702D01*
X7178954Y6563106D01*
X7183780Y6566306D01*
X7188809Y6569202D01*
X7193991Y6571691D01*
X7199223Y6573774D01*
X7204456Y6575348D01*
X7209586Y6576314D01*
X7214514Y6576669D01*
X7236663Y6576669D01*
X7276998Y6617004D01*
X7285329Y6625691D01*
X7303262Y6645452D01*
X7321143Y6666280D01*
X7336739Y6685686D01*
X7344257Y6695541D01*
X7353198Y6706412D01*
X7362190Y6716522D01*
X7370876Y6725412D01*
X7378700Y6732574D01*
X7382154Y6735419D01*
X7385253Y6737603D01*
X7387894Y6739128D01*
X7405420Y6747764D01*
X7398715Y6770827D01*
X7394956Y6781647D01*
X7392974Y6785914D01*
X7390892Y6789369D01*
X7388656Y6792010D01*
X7386320Y6793839D01*
X7383830Y6794855D01*
X7381138Y6795109D01*
X7378293Y6794550D01*
X7375194Y6793179D01*
X7371892Y6790994D01*
X7368336Y6787997D01*
X7364475Y6784238D01*
X7360361Y6779615D01*
X7355941Y6774230D01*
X7348067Y6763918D01*
X7340701Y6754977D01*
X7332014Y6745173D01*
X7322312Y6734759D01*
X7300925Y6713118D01*
X7289850Y6702399D01*
X7268159Y6682536D01*
X7258151Y6673900D01*
X7249109Y6666433D01*
X7241235Y6660489D01*
X7234885Y6656273D01*
X7232345Y6654901D01*
X7230262Y6654038D01*
X7228687Y6653733D01*
X7220915Y6653174D01*
X7213193Y6651548D01*
X7209332Y6650329D01*
X7201712Y6647129D01*
X7197902Y6645198D01*
X7190435Y6640575D01*
X7183069Y6635038D01*
X7175906Y6628688D01*
X7168896Y6621475D01*
X7162088Y6613550D01*
X7155484Y6604914D01*
X7149134Y6595567D01*
X7143038Y6585610D01*
X7137247Y6575094D01*
X7131710Y6564020D01*
X7126579Y6552488D01*
X7121753Y6540500D01*
X7117283Y6528104D01*
X7113219Y6515404D01*
X7109612Y6502349D01*
X7106412Y6489090D01*
X7103668Y6475577D01*
X7101382Y6461963D01*
X7099604Y6448196D01*
X7098385Y6434328D01*
X7097674Y6420459D01*
X7097572Y6406642D01*
X7098030Y6392875D01*
X7099096Y6379210D01*
X7106666Y6305092D01*
X7130491Y6262166D01*
X7137603Y6250686D01*
X7145731Y6238697D01*
X7154316Y6226810D01*
X7162952Y6215684D01*
X7171131Y6205982D01*
X7179818Y6196533D01*
X7184186Y6191402D01*
X7191400Y6181598D01*
X7196683Y6172504D01*
X7198563Y6168237D01*
X7200036Y6164173D01*
X7201001Y6160312D01*
X7201560Y6156706D01*
X7201611Y6153302D01*
X7201255Y6150152D01*
X7200442Y6147206D01*
X7199172Y6144564D01*
X7197445Y6142177D01*
X7195312Y6140043D01*
X7192772Y6138164D01*
X7189774Y6136640D01*
X7186422Y6135370D01*
X7182612Y6134404D01*
X7178395Y6133744D01*
X7173772Y6133439D01*
X7168794Y6133439D01*
X7163409Y6133795D01*
X7151471Y6135522D01*
X7144918Y6136944D01*
X7103719Y6148324D01*
X6952589Y6268466D01*
X6932320Y6312662D01*
X6909511Y6365087D01*
X6875119Y6446875D01*
X6874865Y6525615D01*
X6874205Y6555994D01*
X6872731Y6586728D01*
X6870598Y6617106D01*
X6867855Y6646316D01*
X6864705Y6673646D01*
X6861149Y6698284D01*
X6857288Y6719468D01*
X6855256Y6728510D01*
X6853224Y6736384D01*
X6851142Y6742988D01*
X6848043Y6750405D01*
X6845960Y6753453D01*
X6834530Y6766102D01*
X6827164Y6754063D01*
X6825894Y6750964D01*
X6825081Y6746849D01*
X6824725Y6741820D01*
X6824827Y6736080D01*
X6825386Y6729780D01*
X6826351Y6723176D01*
X6827723Y6716420D01*
X6829552Y6709714D01*
X6839254Y6677355D01*
X6820763Y6660388D01*
X6763105Y6733336D01*
X6699236Y6733336D01*
X6695643Y6730034D01*
X6674103Y6742734D01*
X6670497Y6745833D01*
X6666382Y6750151D01*
X6661810Y6755688D01*
X6656781Y6762292D01*
X6645605Y6778447D01*
X6633260Y6798056D01*
X6619951Y6820509D01*
X6606082Y6845147D01*
X6592011Y6871360D01*
X6574536Y6905447D01*
X6557822Y6939889D01*
X6545427Y6966864D01*
X6534302Y6992670D01*
X6524701Y7016699D01*
X6520586Y7027824D01*
X6516979Y7038289D01*
X6491122Y7120331D01*
X6480708Y7283297D01*
X6452053Y7283297D01*
X6443980Y7212787D01*
X6455613Y7144207D01*
X6460185Y7122109D01*
X6466078Y7098538D01*
X6473088Y7073849D01*
X6477000Y7061149D01*
X6483350Y7041692D01*
X6492595Y7015327D01*
X6502603Y6988657D01*
X6513322Y6961936D01*
X6524599Y6935419D01*
X6536283Y6909358D01*
X6548323Y6884009D01*
X6560566Y6859625D01*
X6572910Y6836511D01*
X6585254Y6814870D01*
X6597446Y6795008D01*
X6609334Y6777177D01*
X6615175Y6769100D01*
X6620916Y6761632D01*
X6626504Y6754774D01*
X6631940Y6748576D01*
X6637274Y6743090D01*
X6665417Y6715556D01*
X6707276Y6704126D01*
X6713220Y6702247D01*
X6719519Y6699910D01*
X6726021Y6697167D01*
X6739534Y6690461D01*
X6746443Y6686702D01*
X6760006Y6678371D01*
X6773011Y6669481D01*
X6784797Y6660388D01*
X6790131Y6655917D01*
X6794957Y6651498D01*
X6799173Y6647230D01*
X6802831Y6643166D01*
X6805777Y6639306D01*
X6807962Y6635750D01*
X6809333Y6632549D01*
X6809790Y6629755D01*
X6809333Y6628231D01*
X6806031Y6622542D01*
X6799834Y6613804D01*
X6791198Y6602628D01*
X6780631Y6589572D01*
X6768592Y6575247D01*
X6747662Y6550914D01*
X6730187Y6529222D01*
X6722719Y6519418D01*
X6715258Y6509054D01*
X6756450Y6509054D01*
X6757212Y6512306D01*
X6758990Y6516116D01*
X6761784Y6520484D01*
X6765696Y6525564D01*
X6770624Y6531356D01*
X6783730Y6545529D01*
X6809994Y6572859D01*
X6818934Y6581648D01*
X6822592Y6584899D01*
X6825742Y6587388D01*
X6828434Y6589166D01*
X6830669Y6590131D01*
X6832498Y6590284D01*
X6834022Y6589725D01*
X6835190Y6588353D01*
X6836105Y6586220D01*
X6836714Y6583273D01*
X6837476Y6575044D01*
X6837680Y6563563D01*
X6837425Y6539585D01*
X6836918Y6530492D01*
X6836156Y6521754D01*
X6835140Y6513677D01*
X6833920Y6506464D01*
X6832549Y6500317D01*
X6831025Y6495491D01*
X6829399Y6492189D01*
X6821322Y6480505D01*
X6780123Y6493002D01*
X6768287Y6497167D01*
X6763867Y6499199D01*
X6760464Y6501333D01*
X6758127Y6503619D01*
X6756755Y6506159D01*
X6756450Y6509054D01*
X6715258Y6509054D01*
X6711492Y6503466D01*
X6708140Y6497878D01*
X6699808Y6478219D01*
X6736791Y6441236D01*
X6727393Y6360820D01*
X6725564Y6348272D01*
X6723583Y6337096D01*
X6721246Y6327140D01*
X6718452Y6318250D01*
X6716877Y6314084D01*
X6713169Y6306362D01*
X6711086Y6302705D01*
X6706209Y6295745D01*
X6700367Y6289090D01*
X6693408Y6282486D01*
X6685280Y6275882D01*
X6675780Y6268974D01*
X6664858Y6261658D01*
X6637985Y6244894D01*
X6551930Y6192926D01*
X6538671Y6151727D01*
X6536588Y6143904D01*
X6534708Y6135827D01*
X6531711Y6119825D01*
X6530695Y6112408D01*
X6530085Y6105652D01*
X6529831Y6099860D01*
X6529831Y6074562D01*
X6532608Y6072174D01*
X6567170Y6072174D01*
X6567170Y6146698D01*
X6583476Y6165138D01*
X6587490Y6169253D01*
X6592519Y6173774D01*
X6604965Y6183731D01*
X6619290Y6193688D01*
X6626606Y6198311D01*
X6675018Y6226352D01*
X6699453Y6241034D01*
X6741922Y6267196D01*
X6754622Y6314084D01*
X6756653Y6322720D01*
X6760006Y6339941D01*
X6762292Y6355588D01*
X6762902Y6362141D01*
X6763359Y6372860D01*
X6763918Y6379006D01*
X6766153Y6393129D01*
X6769455Y6408166D01*
X6771386Y6415430D01*
X6783781Y6453886D01*
X6847789Y6427266D01*
X6853326Y6407048D01*
X6854240Y6402324D01*
X6854647Y6396634D01*
X6854647Y6390182D01*
X6854139Y6383223D01*
X6853275Y6375958D01*
X6852005Y6368592D01*
X6850329Y6361379D01*
X6847230Y6350863D01*
X6845198Y6342075D01*
X6843318Y6331508D01*
X6841642Y6319621D01*
X6840169Y6306769D01*
X6839051Y6293307D01*
X6838238Y6279642D01*
X6837832Y6266180D01*
X6837781Y6197193D01*
X6814413Y6160617D01*
X6809333Y6153200D01*
X6803898Y6146038D01*
X6798259Y6139332D01*
X6792620Y6133236D01*
X6786409Y6127496D01*
X6875119Y6127496D01*
X6875272Y6130798D01*
X6875881Y6133592D01*
X6877100Y6135878D01*
X6878980Y6137757D01*
X6881825Y6139230D01*
X6885635Y6140297D01*
X6890613Y6141008D01*
X6896912Y6141415D01*
X6904634Y6141567D01*
X6925106Y6141008D01*
X6977735Y6138519D01*
X6977735Y6165748D01*
X6953859Y6165900D01*
X6948373Y6166307D01*
X6943090Y6167018D01*
X6937959Y6167983D01*
X6933031Y6169253D01*
X6928256Y6170777D01*
X6923735Y6172606D01*
X6919315Y6174689D01*
X6915150Y6177026D01*
X6911187Y6179616D01*
X6907377Y6182461D01*
X6903770Y6185611D01*
X6900418Y6188964D01*
X6897217Y6192621D01*
X6894220Y6196482D01*
X6891426Y6200597D01*
X6888886Y6204966D01*
X6886498Y6209588D01*
X6884365Y6214414D01*
X6882434Y6219494D01*
X6879285Y6230366D01*
X6878015Y6236106D01*
X6876948Y6242151D01*
X6876135Y6248349D01*
X6875221Y6261455D01*
X6875221Y6276390D01*
X6875525Y6283401D01*
X6876084Y6289395D01*
X6876897Y6294323D01*
X6877964Y6298234D01*
X6879336Y6301181D01*
X6881012Y6303060D01*
X6882993Y6303924D01*
X6885330Y6303772D01*
X6887972Y6302654D01*
X6890969Y6300470D01*
X6894372Y6297320D01*
X6898182Y6293104D01*
X6902399Y6287973D01*
X6919671Y6264097D01*
X6927850Y6253683D01*
X6936486Y6243472D01*
X6945630Y6233414D01*
X6955180Y6223508D01*
X6965137Y6213856D01*
X6975398Y6204458D01*
X6985965Y6195314D01*
X6996836Y6186474D01*
X7007859Y6177889D01*
X7019086Y6169660D01*
X7030466Y6161786D01*
X7041946Y6154267D01*
X7053427Y6147155D01*
X7064959Y6140500D01*
X7076440Y6134201D01*
X7087870Y6128410D01*
X7099147Y6123076D01*
X7110272Y6118301D01*
X7121245Y6113983D01*
X7131964Y6110224D01*
X7142378Y6107074D01*
X7152436Y6104483D01*
X7162190Y6102502D01*
X7171537Y6101181D01*
X7180427Y6100470D01*
X7188809Y6100470D01*
X7196632Y6101181D01*
X7203948Y6102604D01*
X7207351Y6103569D01*
X7213701Y6106160D01*
X7216648Y6107684D01*
X7221931Y6111392D01*
X7239000Y6125565D01*
X7239000Y6181242D01*
X7201153Y6222898D01*
X7191705Y6233972D01*
X7182358Y6245504D01*
X7173620Y6256883D01*
X7165949Y6267500D01*
X7159802Y6276695D01*
X7142327Y6306972D01*
X7137501Y6396939D01*
X7136942Y6426809D01*
X7137450Y6452870D01*
X7138111Y6463487D01*
X7138974Y6471920D01*
X7140092Y6477812D01*
X7146086Y6499606D01*
X7177074Y6499606D01*
X7186930Y6500063D01*
X7198969Y6501384D01*
X7212431Y6503365D01*
X7226553Y6505956D01*
X7240625Y6509004D01*
X7266635Y6515760D01*
X7279284Y6518808D01*
X7291273Y6521399D01*
X7301941Y6523431D01*
X7310729Y6524752D01*
X7316927Y6525209D01*
X7334199Y6525310D01*
X7310323Y6488023D01*
X7306564Y6481622D01*
X7300620Y6470091D01*
X7298334Y6465011D01*
X7295184Y6456222D01*
X7293813Y6449314D01*
X7293711Y6446520D01*
X7294016Y6444234D01*
X7294727Y6442456D01*
X7295743Y6441135D01*
X7297115Y6440322D01*
X7298842Y6440017D01*
X7300874Y6440220D01*
X7303211Y6440932D01*
X7305802Y6442151D01*
X7308697Y6443929D01*
X7315250Y6449009D01*
X7318857Y6452362D01*
X7326680Y6460744D01*
X7335215Y6471310D01*
X7344409Y6484112D01*
X7374331Y6528562D01*
X7391603Y6447586D01*
X7406284Y6450584D01*
X7411770Y6452666D01*
X7415784Y6456121D01*
X7418019Y6460540D01*
X7418070Y6465366D01*
X7417308Y6470396D01*
X7416596Y6478625D01*
X7415530Y6502044D01*
X7415275Y6516014D01*
X7415174Y6584035D01*
X7434478Y6618020D01*
X7438593Y6624269D01*
X7442352Y6629095D01*
X7445857Y6632498D01*
X7449210Y6634429D01*
X7452461Y6634886D01*
X7455763Y6633870D01*
X7459116Y6631381D01*
X7462672Y6627469D01*
X7466431Y6622034D01*
X7470546Y6615074D01*
X7478775Y6599834D01*
X7482230Y6593840D01*
X7488631Y6584238D01*
X7491526Y6580581D01*
X7494168Y6577736D01*
X7496657Y6575602D01*
X7498842Y6574180D01*
X7500823Y6573520D01*
X7502550Y6573520D01*
X7503972Y6574281D01*
X7505192Y6575653D01*
X7506106Y6577736D01*
X7506716Y6580428D01*
X7507071Y6583781D01*
X7507122Y6587744D01*
X7506258Y6597446D01*
X7504074Y6609486D01*
X7500518Y6623761D01*
X7490155Y6657289D01*
X7486142Y6672224D01*
X7483500Y6684873D01*
X7482281Y6695236D01*
X7482128Y6699554D01*
X7482382Y6703263D01*
X7482941Y6706463D01*
X7483856Y6709054D01*
X7485125Y6711086D01*
X7486751Y6712508D01*
X7488681Y6713372D01*
X7490968Y6713677D01*
X7494574Y6712813D01*
X7497572Y6710476D01*
X7499553Y6707022D01*
X7500315Y6702755D01*
X7500569Y6699910D01*
X7501207Y6697675D01*
X7532979Y6697675D01*
X7533741Y6738620D01*
X7534960Y6749999D01*
X7537145Y6762191D01*
X7540040Y6774586D01*
X7543596Y6786524D01*
X7547559Y6797294D01*
X7565237Y6834835D01*
X7662214Y6825234D01*
X7705039Y6799376D01*
X7719314Y6791655D01*
X7725867Y6788454D01*
X7736840Y6783831D01*
X7740903Y6782612D01*
X7743748Y6782155D01*
X7754315Y6782155D01*
X7746796Y6745478D01*
X7743850Y6735419D01*
X7740040Y6724751D01*
X7735570Y6714032D01*
X7730693Y6703822D01*
X7725613Y6694678D01*
X7704836Y6663436D01*
X7657134Y6646824D01*
X7650530Y6644741D01*
X7638338Y6641642D01*
X7632750Y6640626D01*
X7627366Y6639915D01*
X7622286Y6639610D01*
X7617307Y6639661D01*
X7612532Y6640068D01*
X7607909Y6640880D01*
X7603337Y6642049D01*
X7598765Y6643624D01*
X7594295Y6645605D01*
X7589774Y6648043D01*
X7585202Y6650837D01*
X7580528Y6654088D01*
X7570774Y6661912D01*
X7560259Y6671513D01*
X7532979Y6697675D01*
X7501207Y6697675D01*
X7502855Y6693306D01*
X7504785Y6689648D01*
X7507173Y6685737D01*
X7513269Y6677456D01*
X7520889Y6668668D01*
X7529779Y6659625D01*
X7539685Y6650583D01*
X7550403Y6641693D01*
X7561580Y6633260D01*
X7573009Y6625488D01*
X7584490Y6618630D01*
X7595666Y6612890D01*
X7644942Y6592620D01*
X7715300Y6598564D01*
X7706817Y6579819D01*
X7702092Y6568389D01*
X7697774Y6556705D01*
X7693863Y6544868D01*
X7690408Y6532880D01*
X7687309Y6520789D01*
X7684668Y6508597D01*
X7682484Y6496354D01*
X7680706Y6484061D01*
X7679334Y6471767D01*
X7678420Y6459474D01*
X7677912Y6447231D01*
X7677861Y6435090D01*
X7678216Y6423050D01*
X7679029Y6411112D01*
X7680299Y6399326D01*
X7682026Y6387744D01*
X7684160Y6376365D01*
X7686751Y6365240D01*
X7689799Y6354368D01*
X7693355Y6343040D01*
X7696911Y6330289D01*
X7700009Y6317030D01*
X7702499Y6303873D01*
X7704328Y6291681D01*
X7705344Y6281013D01*
X7705598Y6246012D01*
X7559548Y6165697D01*
X7529118Y6149492D01*
X7501077Y6135065D01*
X7475118Y6122263D01*
X7450836Y6110935D01*
X7427975Y6100978D01*
X7406182Y6092291D01*
X7385202Y6084722D01*
X7364628Y6078118D01*
X7344206Y6072378D01*
X7333945Y6069787D01*
X7318349Y6066180D01*
X7307783Y6063996D01*
X7255760Y6054140D01*
X7431328Y6054140D01*
X7431582Y6055664D01*
X7432243Y6057341D01*
X7433411Y6059119D01*
X7434986Y6060998D01*
X7439710Y6065215D01*
X7446416Y6070041D01*
X7455255Y6075629D01*
X7466380Y6082080D01*
X7495895Y6097879D01*
X7612786Y6157366D01*
X7626197Y6163919D01*
X7637576Y6169152D01*
X7647178Y6173114D01*
X7655153Y6175806D01*
X7661706Y6177229D01*
X7664500Y6177432D01*
X7667040Y6177330D01*
X7669326Y6176924D01*
X7671358Y6176213D01*
X7673187Y6175146D01*
X7674813Y6173774D01*
X7676286Y6172098D01*
X7677658Y6170117D01*
X7680045Y6165189D01*
X7682179Y6158992D01*
X7692593Y6119571D01*
X7696301Y6103620D01*
X7699400Y6087973D01*
X7701838Y6072682D01*
X7703566Y6057900D01*
X7704683Y6043777D01*
X7705090Y6030366D01*
X7704836Y6017818D01*
X7703870Y6006287D01*
X7702245Y5995873D01*
X7701178Y5991098D01*
X7698486Y5982614D01*
X7696911Y5978855D01*
X7684719Y5957570D01*
X7727137Y5928207D01*
X7721549Y5914745D01*
X7719568Y5911850D01*
X7716164Y5908751D01*
X7711490Y5905601D01*
X7705750Y5902401D01*
X7699146Y5899353D01*
X7691780Y5896457D01*
X7683957Y5893866D01*
X7634071Y5881522D01*
X7594295Y5871260D01*
X7580122Y5867146D01*
X7569250Y5863539D01*
X7561173Y5860288D01*
X7555484Y5857240D01*
X7553401Y5855766D01*
X7550403Y5852769D01*
X7548727Y5849620D01*
X7544460Y5837834D01*
X7589875Y5845860D01*
X7600238Y5847334D01*
X7625232Y5849874D01*
X7653121Y5851753D01*
X7680553Y5852769D01*
X7747558Y5853226D01*
X7747558Y5827572D01*
X7598257Y5805017D01*
X7472425Y5742686D01*
X7455153Y5759094D01*
X7465466Y5873750D01*
X7502245Y5878931D01*
X7462672Y5931662D01*
X7453579Y5944920D01*
X7446568Y5956604D01*
X7443876Y5961888D01*
X7441742Y5966815D01*
X7440066Y5971387D01*
X7438948Y5975705D01*
X7438339Y5979718D01*
X7438288Y5983427D01*
X7438694Y5986881D01*
X7439659Y5990082D01*
X7441133Y5993079D01*
X7443114Y5995873D01*
X7445603Y5998464D01*
X7448600Y6000902D01*
X7452156Y6003137D01*
X7456170Y6005271D01*
X7467142Y6010097D01*
X7472375Y6012840D01*
X7476286Y6015583D01*
X7478928Y6018225D01*
X7480249Y6020917D01*
X7480350Y6023559D01*
X7479080Y6026200D01*
X7476591Y6028893D01*
X7472781Y6031585D01*
X7467650Y6034328D01*
X7461250Y6037122D01*
X7443419Y6043726D01*
X7438237Y6046165D01*
X7434427Y6048654D01*
X7433056Y6049924D01*
X7432090Y6051245D01*
X7431481Y6052667D01*
X7431328Y6054140D01*
X7255760Y6054140D01*
X7238390Y6050889D01*
X7109307Y6072886D01*
X7048753Y6082284D01*
X7000240Y6088989D01*
X6980478Y6091377D01*
X6943547Y6095187D01*
X6933895Y6096508D01*
X6925056Y6097981D01*
X6909511Y6101334D01*
X6902907Y6103213D01*
X6896963Y6105296D01*
X6891781Y6107480D01*
X6887311Y6109868D01*
X6883552Y6112408D01*
X6880504Y6115100D01*
X6878116Y6117945D01*
X6876440Y6120942D01*
X6875424Y6124143D01*
X6875119Y6127496D01*
X6786409Y6127496D01*
X6781800Y6123736D01*
X6777075Y6120587D01*
X6770217Y6117691D01*
X6767118Y6115862D01*
X6763664Y6113373D01*
X6759905Y6110325D01*
X6751777Y6102604D01*
X6743192Y6093206D01*
X6734556Y6082538D01*
X6717487Y6058408D01*
X6709257Y6047841D01*
X6701739Y6039307D01*
X6694982Y6032906D01*
X6691884Y6030417D01*
X6689039Y6028486D01*
X6686448Y6027115D01*
X6684060Y6026200D01*
X6681876Y6025794D01*
X6679946Y6025896D01*
X6678320Y6026556D01*
X6676898Y6027674D01*
X6675729Y6029299D01*
X6674866Y6031433D01*
X6674307Y6034074D01*
X6674002Y6037224D01*
X6673951Y6040831D01*
X6674866Y6049619D01*
X6676999Y6060338D01*
X6680453Y6073038D01*
X6695389Y6118656D01*
X6679742Y6157163D01*
X6658457Y6157061D01*
X6649161Y6156401D01*
X6639661Y6154775D01*
X6631076Y6152388D01*
X6624472Y6149543D01*
X6611772Y6142126D01*
X6624929Y6054445D01*
X6614058Y6054445D01*
X6608470Y6055156D01*
X6601155Y6057036D01*
X6593078Y6059881D01*
X6585203Y6063284D01*
X6567170Y6072174D01*
X6532608Y6072174D01*
X6555994Y6052210D01*
X6566814Y6044031D01*
X6578193Y6036411D01*
X6589979Y6029502D01*
X6602120Y6023203D01*
X6614515Y6017564D01*
X6626961Y6012688D01*
X6639458Y6008522D01*
X6651904Y6005169D01*
X6664096Y6002578D01*
X6676034Y6000851D01*
X6687566Y5999937D01*
X6698589Y5999937D01*
X6709003Y6000851D01*
X6718757Y6002680D01*
X6727647Y6005525D01*
X6737400Y6009843D01*
X6749186Y6014466D01*
X6760464Y6017920D01*
X6765442Y6019088D01*
X6769811Y6019850D01*
X6777634Y6020460D01*
X6781800Y6021374D01*
X6785914Y6022848D01*
X6789928Y6024930D01*
X6793788Y6027521D01*
X6797548Y6030620D01*
X6801154Y6034278D01*
X6804659Y6038392D01*
X6807911Y6043015D01*
X6811060Y6048095D01*
X6813956Y6053632D01*
X6816699Y6059576D01*
X6819188Y6065926D01*
X6821424Y6072682D01*
X6823456Y6079794D01*
X6825234Y6087262D01*
X6833108Y6124397D01*
X6875018Y6072327D01*
X6858965Y6009030D01*
X6855256Y5996279D01*
X6850888Y5982868D01*
X6846163Y5969254D01*
X6841083Y5955893D01*
X6835902Y5943142D01*
X6830669Y5931357D01*
X6825691Y5921044D01*
X6820204Y5910732D01*
X6814413Y5898845D01*
X6809333Y5887008D01*
X6805218Y5875782D01*
X6802272Y5865825D01*
X6801256Y5861507D01*
X6800646Y5857697D01*
X6800443Y5851398D01*
X6827520Y5851398D01*
X6833108Y5887466D01*
X6861911Y5885688D01*
X6893306Y5882182D01*
X6910984Y5879795D01*
X6959092Y5872378D01*
X6959092Y5900115D01*
X6921906Y5905601D01*
X6912356Y5907227D01*
X6903618Y5909310D01*
X6895693Y5911748D01*
X6888632Y5914491D01*
X6882536Y5917539D01*
X6877405Y5920841D01*
X6873392Y5924296D01*
X6870395Y5927953D01*
X6868617Y5931712D01*
X6868007Y5935624D01*
X6868668Y5939536D01*
X6870649Y5943447D01*
X6877151Y5953099D01*
X6920636Y5943092D01*
X6934250Y5963361D01*
X6893763Y5988050D01*
X6893763Y6015228D01*
X6894017Y6020917D01*
X6894677Y6026658D01*
X6895744Y6032347D01*
X6897166Y6037732D01*
X6898894Y6042660D01*
X6900875Y6047079D01*
X6903059Y6050737D01*
X6905447Y6053531D01*
X6917080Y6064605D01*
X6999681Y6060338D01*
X7018781Y6058712D01*
X7036308Y6056630D01*
X7051344Y6054191D01*
X7057694Y6052921D01*
X7067600Y6050229D01*
X7070902Y6048857D01*
X7073036Y6047486D01*
X7083602Y6037783D01*
X7072325Y6015024D01*
X7069023Y6007912D01*
X7066737Y6001867D01*
X7065416Y5996889D01*
X7065060Y5992926D01*
X7065721Y5990082D01*
X7067296Y5988304D01*
X7069886Y5987592D01*
X7073392Y5987948D01*
X7077913Y5989421D01*
X7083348Y5991961D01*
X7089698Y5995619D01*
X7102652Y6003950D01*
X7108748Y6007608D01*
X7121702Y6014567D01*
X7134301Y6020358D01*
X7139940Y6022594D01*
X7144918Y6024270D01*
X7167118Y6030722D01*
X7160920Y5962345D01*
X7159701Y5938926D01*
X7159396Y5913729D01*
X7159548Y5901029D01*
X7160564Y5876696D01*
X7161377Y5865571D01*
X7162393Y5855462D01*
X7170318Y5797143D01*
X7124141Y5786526D01*
X7026097Y5816142D01*
X6999325Y5823610D01*
X6971588Y5830519D01*
X6944410Y5836666D01*
X6919214Y5841644D01*
X6897370Y5845200D01*
X6888225Y5846318D01*
X6827520Y5851398D01*
X6800443Y5851398D01*
X6800443Y5833821D01*
X6783273Y5829706D01*
X6780530Y5828741D01*
X6777329Y5826963D01*
X6773722Y5824524D01*
X6765340Y5817717D01*
X6755790Y5808776D01*
X6745376Y5798058D01*
X6734454Y5786018D01*
X6723380Y5773064D01*
X6712458Y5759653D01*
X6702094Y5746191D01*
X6694779Y5736132D01*
X6746595Y5736132D01*
X6746748Y5740501D01*
X6747357Y5744870D01*
X6748373Y5749239D01*
X6749897Y5753608D01*
X6751777Y5757976D01*
X6754164Y5762294D01*
X6756908Y5766562D01*
X6760108Y5770829D01*
X6763766Y5774994D01*
X6767830Y5779109D01*
X6772300Y5783173D01*
X6777177Y5787136D01*
X6782460Y5790996D01*
X6788150Y5794756D01*
X6794246Y5798362D01*
X6807708Y5805271D01*
X6826300Y5813755D01*
X6833514Y5816803D01*
X6839762Y5819089D01*
X6845300Y5820562D01*
X6850380Y5821324D01*
X6855307Y5821324D01*
X6860387Y5820664D01*
X6865874Y5819343D01*
X6872071Y5817362D01*
X6887718Y5811520D01*
X6897813Y5807049D01*
X6976059Y5807049D01*
X7017105Y5790844D01*
X7042048Y5781598D01*
X7069175Y5772048D01*
X7094016Y5763717D01*
X7105294Y5759246D01*
X7109917Y5757011D01*
X7117334Y5752642D01*
X7120077Y5750509D01*
X7122159Y5748426D01*
X7123633Y5746394D01*
X7124496Y5744413D01*
X7124750Y5742533D01*
X7124344Y5740755D01*
X7123328Y5739079D01*
X7121702Y5737453D01*
X7119467Y5735980D01*
X7116622Y5734608D01*
X7113219Y5733389D01*
X7104532Y5731357D01*
X7093508Y5729986D01*
X7080148Y5729274D01*
X7067194Y5729325D01*
X7057694Y5729935D01*
X7053478Y5730595D01*
X7049566Y5731510D01*
X7045858Y5732780D01*
X7042200Y5734456D01*
X7038644Y5736539D01*
X7035038Y5739079D01*
X7031329Y5742178D01*
X7027418Y5745835D01*
X7023252Y5750102D01*
X7013854Y5760770D01*
X6976059Y5807049D01*
X6897813Y5807049D01*
X6907987Y5801715D01*
X6919671Y5794959D01*
X6931507Y5787440D01*
X6942937Y5779566D01*
X6953250Y5771692D01*
X6988048Y5743651D01*
X6982409Y5699150D01*
X6917080Y5668264D01*
X6800646Y5674258D01*
X6774891Y5691835D01*
X6769963Y5695391D01*
X6765544Y5699099D01*
X6761581Y5702909D01*
X6758127Y5706821D01*
X6755079Y5710834D01*
X6752539Y5714898D01*
X6750405Y5719013D01*
X6748780Y5723229D01*
X6747611Y5727496D01*
X6746849Y5731814D01*
X6746595Y5736132D01*
X6694779Y5736132D01*
X6688277Y5726785D01*
X6680708Y5715050D01*
X6674866Y5704738D01*
X6671561Y5697270D01*
X6699097Y5697270D01*
X6699961Y5699302D01*
X6701840Y5700522D01*
X6704584Y5700877D01*
X6708140Y5700369D01*
X6712356Y5698947D01*
X6717131Y5696559D01*
X6722465Y5693156D01*
X6732320Y5685383D01*
X6741007Y5678932D01*
X6750202Y5672836D01*
X6759854Y5667197D01*
X6769963Y5661964D01*
X6780428Y5657189D01*
X6791299Y5652820D01*
X6802475Y5648960D01*
X6813905Y5645556D01*
X6825640Y5642660D01*
X6837629Y5640273D01*
X6849770Y5638393D01*
X6900976Y5632754D01*
X6955332Y5656173D01*
X6975602Y5664149D01*
X6999325Y5672734D01*
X7030821Y5683300D01*
X7055154Y5690768D01*
X7084212Y5699048D01*
X7101230Y5704179D01*
X7116622Y5709158D01*
X7129729Y5713679D01*
X7139635Y5717489D01*
X7145731Y5720384D01*
X7155891Y5726277D01*
X7161530Y5728411D01*
X7163866Y5726887D01*
X7164374Y5721756D01*
X7164070Y5720892D01*
X7161682Y5718556D01*
X7157110Y5715558D01*
X7150557Y5711952D01*
X7142175Y5707786D01*
X7120890Y5698185D01*
X7094778Y5687364D01*
X7065467Y5675884D01*
X7034530Y5664352D01*
X6996023Y5650788D01*
X6967220Y5641340D01*
X6941972Y5633821D01*
X6931152Y5630926D01*
X6921804Y5628792D01*
X6914184Y5627370D01*
X6869734Y5620918D01*
X6815581Y5632399D01*
X6800342Y5636209D01*
X6785660Y5640476D01*
X6771741Y5645150D01*
X6758686Y5650179D01*
X6746595Y5655513D01*
X6735622Y5661050D01*
X6725818Y5666790D01*
X6717385Y5672683D01*
X6713677Y5675680D01*
X6710375Y5678678D01*
X6707479Y5681675D01*
X6703415Y5686602D01*
X6700723Y5690920D01*
X6699300Y5694476D01*
X6699097Y5697270D01*
X6671561Y5697270D01*
X6670141Y5692851D01*
X6669836Y5690057D01*
X6670040Y5686856D01*
X6670649Y5683656D01*
X6671665Y5680456D01*
X6673088Y5677204D01*
X6674866Y5673953D01*
X6676999Y5670702D01*
X6679539Y5667451D01*
X6682435Y5664200D01*
X6689242Y5657748D01*
X6697319Y5651347D01*
X6706666Y5645099D01*
X6717182Y5639003D01*
X6728764Y5633059D01*
X6741363Y5627420D01*
X6754926Y5622036D01*
X6769303Y5616956D01*
X6784543Y5612231D01*
X6800443Y5607913D01*
X6817004Y5604052D01*
X6834174Y5600649D01*
X6890766Y5590438D01*
X6951827Y5605221D01*
X6977380Y5612384D01*
X7005370Y5621375D01*
X7034784Y5631637D01*
X7071969Y5645759D01*
X7100671Y5657545D01*
X7127392Y5669229D01*
X7151014Y5680506D01*
X7161377Y5685790D01*
X7170572Y5690819D01*
X7178446Y5695492D01*
X7184898Y5699760D01*
X7189825Y5703620D01*
X7212533Y5723686D01*
X7206335Y5747816D01*
X7204202Y5762193D01*
X7201916Y5784494D01*
X7199579Y5812586D01*
X7197445Y5844336D01*
X7191146Y5971082D01*
X7212736Y6018936D01*
X7283450Y6030366D01*
X7300671Y6032754D01*
X7317282Y6034582D01*
X7332370Y6035852D01*
X7345222Y6036513D01*
X7355027Y6036411D01*
X7358481Y6036106D01*
X7379970Y6033058D01*
X7425588Y5913170D01*
X7425181Y5846876D01*
X7424572Y5833160D01*
X7423505Y5818530D01*
X7422032Y5803442D01*
X7420203Y5788355D01*
X7418019Y5773724D01*
X7415631Y5759958D01*
X7412990Y5747613D01*
X7409129Y5731662D01*
X7406995Y5721705D01*
X7405370Y5712460D01*
X7404201Y5704128D01*
X7403751Y5699252D01*
X7427772Y5699252D01*
X7427874Y5704738D01*
X7431074Y5714898D01*
X7435494Y5724702D01*
X7439152Y5729122D01*
X7442911Y5726582D01*
X7463765Y5709310D01*
X7501585Y5709310D01*
X7502804Y5712256D01*
X7505395Y5715558D01*
X7509357Y5719216D01*
X7514793Y5723280D01*
X7521651Y5727801D01*
X7530033Y5732881D01*
X7546797Y5742228D01*
X7558786Y5747969D01*
X7563916Y5750052D01*
X7568438Y5751626D01*
X7572298Y5752642D01*
X7575600Y5753201D01*
X7578242Y5753252D01*
X7580274Y5752795D01*
X7581646Y5751880D01*
X7582357Y5750458D01*
X7582458Y5748629D01*
X7581849Y5746343D01*
X7580579Y5743600D01*
X7578598Y5740400D01*
X7575956Y5736844D01*
X7572603Y5732830D01*
X7563764Y5723585D01*
X7529931Y5692444D01*
X7509916Y5699709D01*
X7505903Y5701893D01*
X7503210Y5704179D01*
X7501737Y5706618D01*
X7501585Y5709310D01*
X7463765Y5709310D01*
X7486294Y5689955D01*
X7506208Y5674207D01*
X7528306Y5657900D01*
X7548556Y5643880D01*
X7584287Y5643880D01*
X7584287Y5693562D01*
X7613142Y5724906D01*
X7622540Y5733846D01*
X7627315Y5738012D01*
X7637068Y5745632D01*
X7647076Y5752338D01*
X7657236Y5758180D01*
X7667548Y5763056D01*
X7678013Y5767070D01*
X7688478Y5770219D01*
X7698994Y5772404D01*
X7709458Y5773674D01*
X7719872Y5774029D01*
X7730236Y5773420D01*
X7740396Y5771946D01*
X7750403Y5769508D01*
X7755331Y5767984D01*
X7764983Y5764123D01*
X7769707Y5761888D01*
X7778902Y5756656D01*
X7787792Y5750458D01*
X7792059Y5747054D01*
X7800340Y5739434D01*
X7828534Y5708853D01*
X7823047Y5682589D01*
X7821930Y5678271D01*
X7820456Y5674055D01*
X7818678Y5669940D01*
X7816545Y5665927D01*
X7814106Y5662015D01*
X7811363Y5658256D01*
X7808366Y5654598D01*
X7805064Y5651093D01*
X7797647Y5644438D01*
X7793583Y5641289D01*
X7784795Y5635396D01*
X7775143Y5630113D01*
X7764830Y5625388D01*
X7753858Y5621324D01*
X7742377Y5617870D01*
X7730490Y5615025D01*
X7718298Y5612942D01*
X7705852Y5611520D01*
X7693304Y5610809D01*
X7680756Y5610910D01*
X7668209Y5611723D01*
X7655915Y5613400D01*
X7643875Y5615838D01*
X7632192Y5619140D01*
X7626502Y5621121D01*
X7615580Y5625744D01*
X7610348Y5628386D01*
X7584287Y5643880D01*
X7548556Y5643880D01*
X7568793Y5630824D01*
X7576972Y5625236D01*
X7584186Y5620004D01*
X7590231Y5615228D01*
X7595057Y5611114D01*
X7598359Y5607710D01*
X7600086Y5605170D01*
X7599984Y5603697D01*
X7598308Y5602528D01*
X7596225Y5601766D01*
X7593787Y5601360D01*
X7590942Y5601360D01*
X7587691Y5601766D01*
X7584084Y5602528D01*
X7575651Y5605221D01*
X7565694Y5609488D01*
X7554214Y5615330D01*
X7541158Y5622696D01*
X7526578Y5631637D01*
X7510475Y5642102D01*
X7427772Y5699252D01*
X7403751Y5699252D01*
X7403439Y5691174D01*
X7403896Y5687060D01*
X7404963Y5684824D01*
X7413853Y5677001D01*
X7423200Y5669330D01*
X7432903Y5661710D01*
X7442962Y5654243D01*
X7453375Y5646877D01*
X7464094Y5639663D01*
X7475067Y5632602D01*
X7497724Y5619038D01*
X7509306Y5612536D01*
X7532878Y5600242D01*
X7550708Y5591657D01*
X7568641Y5583682D01*
X7587051Y5576163D01*
X7700924Y5576163D01*
X7749895Y5588355D01*
X7762646Y5592318D01*
X7775702Y5597042D01*
X7788351Y5602224D01*
X7799933Y5607608D01*
X7809738Y5612942D01*
X7821218Y5620207D01*
X7827670Y5623966D01*
X7833207Y5626760D01*
X7837728Y5628640D01*
X7841234Y5629554D01*
X7843621Y5629554D01*
X7844942Y5628589D01*
X7845044Y5626760D01*
X7843926Y5624068D01*
X7841589Y5620461D01*
X7837931Y5615940D01*
X7832902Y5610606D01*
X7830007Y5607964D01*
X7822641Y5602732D01*
X7813344Y5597652D01*
X7802625Y5592775D01*
X7790789Y5588254D01*
X7771841Y5582462D01*
X7758938Y5579465D01*
X7746238Y5577179D01*
X7734198Y5575858D01*
X7723174Y5575604D01*
X7700924Y5576163D01*
X7587051Y5576163D01*
X7598409Y5571845D01*
X7610144Y5567680D01*
X7621727Y5563870D01*
X7633157Y5560415D01*
X7644384Y5557316D01*
X7655356Y5554573D01*
X7666126Y5552236D01*
X7676540Y5550357D01*
X7686649Y5548884D01*
X7696403Y5547868D01*
X7705750Y5547258D01*
X7766253Y5546547D01*
X7859115Y5587847D01*
X7893151Y5642254D01*
X7826959Y5762802D01*
X7771333Y5800496D01*
X7782306Y5840526D01*
X7767015Y5862218D01*
X7763814Y5868162D01*
X7760766Y5875324D01*
X7757922Y5883706D01*
X7755229Y5893206D01*
X7752740Y5903823D01*
X7750403Y5915456D01*
X7748270Y5928207D01*
X7746288Y5941872D01*
X7744561Y5956554D01*
X7743037Y5972098D01*
X7741716Y5988558D01*
X7740599Y6005830D01*
X7739024Y6041390D01*
X7738059Y6057290D01*
X7736738Y6071920D01*
X7735163Y6084570D01*
X7733436Y6094577D01*
X7731607Y6101283D01*
X7729169Y6106058D01*
X7727391Y6110478D01*
X7723327Y6123076D01*
X7719009Y6139180D01*
X7714945Y6157010D01*
X7705852Y6201003D01*
X7741716Y6247079D01*
X7725968Y6312052D01*
X7721193Y6334556D01*
X7716723Y6359042D01*
X7712760Y6383680D01*
X7709763Y6406438D01*
X7708696Y6416598D01*
X7703921Y6475526D01*
X7733080Y6563410D01*
X7742936Y6595414D01*
X7750251Y6620560D01*
X7756398Y6643116D01*
X7760868Y6661200D01*
X7771180Y6707174D01*
X7817510Y6754469D01*
X7824266Y6761683D01*
X7837678Y6777177D01*
X7850936Y6793890D01*
X7864043Y6811772D01*
X7876946Y6830720D01*
X7889544Y6850684D01*
X7901940Y6871512D01*
X7907985Y6882231D01*
X7922768Y6909968D01*
X7931403Y6927138D01*
X7942529Y6950557D01*
X7950606Y6968490D01*
X7960969Y6992874D01*
X7970824Y7017664D01*
X7977886Y7036460D01*
X7984693Y7055459D01*
X7993227Y7080910D01*
X8003031Y7112965D01*
X8010194Y7138720D01*
X8018221Y7170775D01*
X8023809Y7196328D01*
X8028686Y7221626D01*
X8032750Y7246670D01*
X8036052Y7271308D01*
X8038490Y7295540D01*
X8043976Y7360716D01*
X8014208Y7454696D01*
X7946847Y7526883D01*
X7840878Y7555280D01*
X7710525Y7534909D01*
X7611618Y7483703D01*
X7562850Y7521194D01*
X7552232Y7528712D01*
X7540447Y7536434D01*
X7527899Y7544206D01*
X7514996Y7551775D01*
X7502042Y7558938D01*
X7489494Y7565440D01*
X7477759Y7571028D01*
X7420965Y7595311D01*
X7373620Y7595565D01*
X7356195Y7596835D01*
X7347559Y7597800D01*
X7339380Y7599019D01*
X7331862Y7600391D01*
X7325258Y7601915D01*
X7315911Y7604759D01*
X7306259Y7607096D01*
X7294575Y7609331D01*
X7281164Y7611313D01*
X7266533Y7613091D01*
X7251090Y7614564D01*
X7235190Y7615783D01*
X7219391Y7616698D01*
X7203998Y7617256D01*
G37*
G36*
X7259726Y7229297D02*
G01*
X7252512Y7229195D01*
X7245502Y7228687D01*
X7238695Y7227722D01*
X7232243Y7226300D01*
X7225995Y7224369D01*
X7219746Y7221880D01*
X7213752Y7218984D01*
X7208062Y7215733D01*
X7202931Y7212279D01*
X7198461Y7208672D01*
X7194854Y7205014D01*
X7192264Y7201458D01*
X7182358Y7184542D01*
X7194346Y7184796D01*
X7200442Y7185914D01*
X7208164Y7188708D01*
X7216495Y7192721D01*
X7228535Y7200188D01*
X7233056Y7202525D01*
X7237984Y7204659D01*
X7243064Y7206538D01*
X7248194Y7208062D01*
X7253224Y7209231D01*
X7257999Y7209942D01*
X7262368Y7210196D01*
X7266686Y7209942D01*
X7271461Y7209231D01*
X7276490Y7208062D01*
X7281621Y7206538D01*
X7286701Y7204659D01*
X7291628Y7202525D01*
X7296200Y7200188D01*
X7307986Y7192772D01*
X7315504Y7189063D01*
X7322515Y7186574D01*
X7328814Y7185253D01*
X7334046Y7185253D01*
X7338110Y7186472D01*
X7340752Y7189012D01*
X7341666Y7192873D01*
X7341158Y7196429D01*
X7339736Y7199884D01*
X7337399Y7203287D01*
X7334300Y7206538D01*
X7330440Y7209688D01*
X7325969Y7212685D01*
X7320838Y7215479D01*
X7315200Y7218070D01*
X7309154Y7220458D01*
X7302652Y7222642D01*
X7295896Y7224522D01*
X7288885Y7226147D01*
X7281672Y7227417D01*
X7274356Y7228433D01*
X7267041Y7229043D01*
G37*
G36*
X7301230Y7063181D02*
G01*
X7296353Y7062978D01*
X7291476Y7062419D01*
X7286548Y7061453D01*
X7276338Y7058609D01*
X7270699Y7056424D01*
X7265009Y7053630D01*
X7259320Y7050278D01*
X7253579Y7046417D01*
X7247940Y7042048D01*
X7242403Y7037273D01*
X7237069Y7032142D01*
X7231888Y7026605D01*
X7226960Y7020814D01*
X7222337Y7014768D01*
X7218019Y7008469D01*
X7216399Y7005777D01*
X7262266Y7005777D01*
X7262266Y7007656D01*
X7263841Y7010450D01*
X7266686Y7013956D01*
X7270546Y7017918D01*
X7275169Y7022134D01*
X7285583Y7030262D01*
X7290866Y7033717D01*
X7295794Y7036511D01*
X7300112Y7038340D01*
X7303566Y7039000D01*
X7307529Y7037933D01*
X7313523Y7035088D01*
X7320686Y7030872D01*
X7328204Y7025741D01*
X7346340Y7012482D01*
X7287463Y7022896D01*
X7281367Y7013803D01*
X7278116Y7010298D01*
X7273747Y7007504D01*
X7268921Y7005624D01*
X7264146Y7005015D01*
X7262266Y7005777D01*
X7216399Y7005777D01*
X7200493Y6977735D01*
X7233716Y6931964D01*
X7236917Y6946290D01*
X7237831Y6949084D01*
X7239406Y6951827D01*
X7241489Y6954469D01*
X7244181Y6956958D01*
X7247381Y6959396D01*
X7251090Y6961733D01*
X7255306Y6963918D01*
X7259980Y6966000D01*
X7265111Y6967981D01*
X7276642Y6971487D01*
X7289749Y6974382D01*
X7304227Y6976668D01*
X7319924Y6978243D01*
X7336688Y6979056D01*
X7355179Y6979361D01*
X7364780Y6979767D01*
X7373975Y6980428D01*
X7382459Y6981291D01*
X7389977Y6982307D01*
X7396378Y6983475D01*
X7401356Y6984746D01*
X7404658Y6986117D01*
X7416342Y6992924D01*
X7382713Y7021322D01*
X7367981Y7033006D01*
X7354722Y7042607D01*
X7348524Y7046722D01*
X7336891Y7053427D01*
X7331405Y7056120D01*
X7326122Y7058304D01*
X7320991Y7060133D01*
X7315911Y7061504D01*
X7310983Y7062470D01*
X7306106Y7063028D01*
G37*
D10*
X4432300Y9103868D02*
G01*
X4432300Y8817355D01*
X4432300Y9103868D02*
G01*
X4527804Y9103868D01*
X4568697Y9090152D01*
X4595875Y9062974D01*
X4609591Y9035542D01*
X4623308Y8994647D01*
X4623308Y8926576D01*
X4609591Y8885681D01*
X4595875Y8858250D01*
X4568697Y8831071D01*
X4527804Y8817355D01*
X4432300Y8817355D01*
X4713224Y8926576D02*
G01*
X4876800Y8926576D01*
X4876800Y8953754D01*
X4863084Y8981186D01*
X4849622Y8994647D01*
X4822190Y9008363D01*
X4781295Y9008363D01*
X4754118Y8994647D01*
X4726940Y8967470D01*
X4713224Y8926576D01*
X4713224Y8899397D01*
X4726940Y8858250D01*
X4754118Y8831071D01*
X4781295Y8817355D01*
X4822190Y8817355D01*
X4849622Y8831071D01*
X4876800Y8858250D01*
X4966970Y9008363D02*
G01*
X4966970Y8817355D01*
X4966970Y8953754D02*
G01*
X5007863Y8994647D01*
X5035041Y9008363D01*
X5075936Y9008363D01*
X5103113Y8994647D01*
X5116829Y8953754D01*
X5116829Y8817355D01*
X5370575Y9103868D02*
G01*
X5370575Y8817355D01*
X5370575Y8967470D02*
G01*
X5343143Y8994647D01*
X5315965Y9008363D01*
X5275072Y9008363D01*
X5247640Y8994647D01*
X5220461Y8967470D01*
X5206745Y8926576D01*
X5206745Y8899397D01*
X5220461Y8858250D01*
X5247640Y8831071D01*
X5275072Y8817355D01*
X5315965Y8817355D01*
X5343143Y8831071D01*
X5370575Y8858250D01*
X5474208Y9008363D02*
G01*
X5555995Y8817355D01*
X5637784Y9008363D02*
G01*
X5555995Y8817355D01*
X5528563Y8763000D01*
X5501386Y8735568D01*
X5474208Y8722105D01*
X5460491Y8722105D01*
X6142227Y9035542D02*
G01*
X6128765Y9062974D01*
X6101334Y9090152D01*
X6074156Y9103868D01*
X6019545Y9103868D01*
X5992368Y9090152D01*
X5964936Y9062974D01*
X5951474Y9035542D01*
X5937758Y8994647D01*
X5937758Y8926576D01*
X5951474Y8885681D01*
X5964936Y8858250D01*
X5992368Y8831071D01*
X6019545Y8817355D01*
X6074156Y8817355D01*
X6101334Y8831071D01*
X6128765Y8858250D01*
X6142227Y8885681D01*
X6232397Y9103868D02*
G01*
X6232397Y8817355D01*
X6485890Y9008363D02*
G01*
X6485890Y8817355D01*
X6485890Y8967470D02*
G01*
X6458711Y8994647D01*
X6431279Y9008363D01*
X6390386Y9008363D01*
X6363208Y8994647D01*
X6336029Y8967470D01*
X6322313Y8926576D01*
X6322313Y8899397D01*
X6336029Y8858250D01*
X6363208Y8831071D01*
X6390386Y8817355D01*
X6431279Y8817355D01*
X6458711Y8831071D01*
X6485890Y8858250D01*
X6725920Y8967470D02*
G01*
X6712204Y8994647D01*
X6671309Y9008363D01*
X6630415Y9008363D01*
X6589522Y8994647D01*
X6575806Y8967470D01*
X6589522Y8940292D01*
X6616954Y8926576D01*
X6685025Y8912860D01*
X6712204Y8899397D01*
X6725920Y8871965D01*
X6725920Y8858250D01*
X6712204Y8831071D01*
X6671309Y8817355D01*
X6630415Y8817355D01*
X6589522Y8831071D01*
X6575806Y8858250D01*
X6965950Y8967470D02*
G01*
X6952234Y8994647D01*
X6911340Y9008363D01*
X6870445Y9008363D01*
X6829552Y8994647D01*
X6815836Y8967470D01*
X6829552Y8940292D01*
X6856729Y8926576D01*
X6925056Y8912860D01*
X6952234Y8899397D01*
X6965950Y8871965D01*
X6965950Y8858250D01*
X6952234Y8831071D01*
X6911340Y8817355D01*
X6870445Y8817355D01*
X6829552Y8831071D01*
X6815836Y8858250D01*
X7055865Y9103868D02*
G01*
X7069581Y9090152D01*
X7083297Y9103868D01*
X7069581Y9117584D01*
X7055865Y9103868D01*
X7069581Y9008363D02*
G01*
X7069581Y8817355D01*
X7336790Y8967470D02*
G01*
X7309611Y8994647D01*
X7282179Y9008363D01*
X7241286Y9008363D01*
X7214108Y8994647D01*
X7186929Y8967470D01*
X7173213Y8926576D01*
X7173213Y8899397D01*
X7186929Y8858250D01*
X7214108Y8831071D01*
X7241286Y8817355D01*
X7282179Y8817355D01*
X7309611Y8831071D01*
X7336790Y8858250D01*
X7636763Y9103868D02*
G01*
X7636763Y8817355D01*
X7636763Y9103868D02*
G01*
X7759445Y9103868D01*
X7800593Y9090152D01*
X7814056Y9076436D01*
X7827772Y9049258D01*
X7827772Y9022079D01*
X7814056Y8994647D01*
X7800593Y8981186D01*
X7759445Y8967470D01*
X7636763Y8967470D01*
X7732268Y8967470D02*
G01*
X7827772Y8817355D01*
X7917688Y8926576D02*
G01*
X8081263Y8926576D01*
X8081263Y8953754D01*
X8067802Y8981186D01*
X8054086Y8994647D01*
X8026908Y9008363D01*
X7986013Y9008363D01*
X7958581Y8994647D01*
X7931404Y8967470D01*
X7917688Y8926576D01*
X7917688Y8899397D01*
X7931404Y8858250D01*
X7958581Y8831071D01*
X7986013Y8817355D01*
X8026908Y8817355D01*
X8054086Y8831071D01*
X8081263Y8858250D01*
X8171434Y9103868D02*
G01*
X8171434Y8817355D01*
X8329675Y9008363D02*
G01*
X8302243Y8994647D01*
X8275065Y8967470D01*
X8261350Y8926576D01*
X8261350Y8899397D01*
X8275065Y8858250D01*
X8302243Y8831071D01*
X8329675Y8817355D01*
X8370570Y8817355D01*
X8397747Y8831071D01*
X8424925Y8858250D01*
X8438641Y8899397D01*
X8438641Y8926576D01*
X8424925Y8967470D01*
X8397747Y8994647D01*
X8370570Y9008363D01*
X8329675Y9008363D01*
X8692388Y9008363D02*
G01*
X8692388Y8817355D01*
X8692388Y8967470D02*
G01*
X8664956Y8994647D01*
X8637777Y9008363D01*
X8596884Y9008363D01*
X8569452Y8994647D01*
X8542274Y8967470D01*
X8528558Y8926576D01*
X8528558Y8899397D01*
X8542274Y8858250D01*
X8569452Y8831071D01*
X8596884Y8817355D01*
X8637777Y8817355D01*
X8664956Y8831071D01*
X8692388Y8858250D01*
X8945879Y9103868D02*
G01*
X8945879Y8817355D01*
X8945879Y8967470D02*
G01*
X8918702Y8994647D01*
X8891270Y9008363D01*
X8850375Y9008363D01*
X8823197Y8994647D01*
X8796020Y8967470D01*
X8782304Y8926576D01*
X8782304Y8899397D01*
X8796020Y8858250D01*
X8823197Y8831071D01*
X8850375Y8817355D01*
X8891270Y8817355D01*
X8918702Y8831071D01*
X8945879Y8858250D01*
X9314179Y9103868D02*
G01*
X9273286Y9090152D01*
X9259570Y9062974D01*
X9259570Y9035542D01*
X9273286Y9008363D01*
X9300463Y8994647D01*
X9355074Y8981186D01*
X9395968Y8967470D01*
X9423145Y8940292D01*
X9436861Y8912860D01*
X9436861Y8871965D01*
X9423145Y8844787D01*
X9409684Y8831071D01*
X9368536Y8817355D01*
X9314179Y8817355D01*
X9273286Y8831071D01*
X9259570Y8844787D01*
X9245854Y8871965D01*
X9245854Y8912860D01*
X9259570Y8940292D01*
X9286747Y8967470D01*
X9327641Y8981186D01*
X9382252Y8994647D01*
X9409684Y9008363D01*
X9423145Y9035542D01*
X9423145Y9062974D01*
X9409684Y9090152D01*
X9368536Y9103868D01*
X9314179Y9103868D01*
X9736836Y9103868D02*
G01*
X9736836Y8817355D01*
X9736836Y8967470D02*
G01*
X9764013Y8994647D01*
X9791445Y9008363D01*
X9832340Y9008363D01*
X9859518Y8994647D01*
X9886950Y8967470D01*
X9900411Y8926576D01*
X9900411Y8899397D01*
X9886950Y8858250D01*
X9859518Y8831071D01*
X9832340Y8817355D01*
X9791445Y8817355D01*
X9764013Y8831071D01*
X9736836Y8858250D01*
X9990581Y9103868D02*
G01*
X10004043Y9090152D01*
X10017759Y9103868D01*
X10004043Y9117584D01*
X9990581Y9103868D01*
X10004043Y9008363D02*
G01*
X10004043Y8817355D01*
X10148570Y9103868D02*
G01*
X10148570Y8871965D01*
X10162286Y8831071D01*
X10189463Y8817355D01*
X10216895Y8817355D01*
X10107675Y9008363D02*
G01*
X10203179Y9008363D01*
X4649470Y8667242D02*
G01*
X4636008Y8694674D01*
X4608575Y8721852D01*
X4581397Y8735568D01*
X4526788Y8735568D01*
X4499609Y8721852D01*
X4472177Y8694674D01*
X4458715Y8667242D01*
X4445000Y8626347D01*
X4445000Y8558276D01*
X4458715Y8517381D01*
X4472177Y8489950D01*
X4499609Y8462771D01*
X4526788Y8449055D01*
X4581397Y8449055D01*
X4608575Y8462771D01*
X4636008Y8489950D01*
X4649470Y8517381D01*
X4739640Y8735568D02*
G01*
X4739640Y8449055D01*
X4739640Y8735568D02*
G01*
X4862322Y8735568D01*
X4903215Y8721852D01*
X4916931Y8708136D01*
X4930393Y8680958D01*
X4930393Y8640063D01*
X4916931Y8612886D01*
X4903215Y8599170D01*
X4862322Y8585454D01*
X4739640Y8585454D01*
X5020563Y8735568D02*
G01*
X5020563Y8449055D01*
X5020563Y8735568D02*
G01*
X5143245Y8735568D01*
X5184140Y8721852D01*
X5197602Y8708136D01*
X5211318Y8680958D01*
X5211318Y8640063D01*
X5197602Y8612886D01*
X5184140Y8599170D01*
X5143245Y8585454D01*
X5020563Y8585454D01*
X5301488Y8735568D02*
G01*
X5301488Y8531097D01*
X5314950Y8489950D01*
X5342381Y8462771D01*
X5383275Y8449055D01*
X5410454Y8449055D01*
X5451347Y8462771D01*
X5478525Y8489950D01*
X5492241Y8531097D01*
X5492241Y8735568D01*
X5792215Y8571992D02*
G01*
X6037834Y8571992D01*
X6337808Y8680958D02*
G01*
X6364986Y8694674D01*
X6405879Y8735568D01*
X6405879Y8449055D01*
X6564122Y8735568D02*
G01*
X6523227Y8721852D01*
X6509511Y8694674D01*
X6509511Y8667242D01*
X6523227Y8640063D01*
X6550406Y8626347D01*
X6605015Y8612886D01*
X6645909Y8599170D01*
X6673088Y8571992D01*
X6686804Y8544560D01*
X6686804Y8503665D01*
X6673088Y8476487D01*
X6659625Y8462771D01*
X6618731Y8449055D01*
X6564122Y8449055D01*
X6523227Y8462771D01*
X6509511Y8476487D01*
X6495795Y8503665D01*
X6495795Y8544560D01*
X6509511Y8571992D01*
X6536690Y8599170D01*
X6577838Y8612886D01*
X6632193Y8626347D01*
X6659625Y8640063D01*
X6673088Y8667242D01*
X6673088Y8694674D01*
X6659625Y8721852D01*
X6618731Y8735568D01*
X6564122Y8735568D01*
X6776720Y8680958D02*
G01*
X6804152Y8694674D01*
X6845045Y8735568D01*
X6845045Y8449055D01*
X7003288Y8735568D02*
G01*
X6962393Y8721852D01*
X6948677Y8694674D01*
X6948677Y8667242D01*
X6962393Y8640063D01*
X6989572Y8626347D01*
X7044181Y8612886D01*
X7085075Y8599170D01*
X7112254Y8571992D01*
X7125970Y8544560D01*
X7125970Y8503665D01*
X7112254Y8476487D01*
X7098538Y8462771D01*
X7057643Y8449055D01*
X7003288Y8449055D01*
X6962393Y8462771D01*
X6948677Y8476487D01*
X6934961Y8503665D01*
X6934961Y8544560D01*
X6948677Y8571992D01*
X6975856Y8599170D01*
X7016750Y8612886D01*
X7071359Y8626347D01*
X7098538Y8640063D01*
X7112254Y8667242D01*
X7112254Y8694674D01*
X7098538Y8721852D01*
X7057643Y8735568D01*
X7003288Y8735568D01*
X7215886Y8735568D02*
G01*
X7215886Y8449055D01*
X7215886Y8735568D02*
G01*
X7338568Y8735568D01*
X7379461Y8721852D01*
X7393177Y8708136D01*
X7406893Y8680958D01*
X7406893Y8640063D01*
X7393177Y8612886D01*
X7379461Y8599170D01*
X7338568Y8585454D01*
X7215886Y8585454D01*
X8102600Y8735568D02*
G01*
X8102600Y8449055D01*
X8102600Y8735568D02*
G01*
X8225281Y8735568D01*
X8266175Y8721852D01*
X8279891Y8708136D01*
X8293608Y8680958D01*
X8293608Y8653779D01*
X8279891Y8626347D01*
X8266175Y8612886D01*
X8225281Y8599170D01*
X8102600Y8599170D01*
X8198104Y8599170D02*
G01*
X8293608Y8449055D01*
X8383524Y8735568D02*
G01*
X8383524Y8449055D01*
X8383524Y8735568D02*
G01*
X8560815Y8735568D01*
X8383524Y8599170D02*
G01*
X8492490Y8599170D01*
X8383524Y8449055D02*
G01*
X8560815Y8449055D01*
X8650731Y8735568D02*
G01*
X8759952Y8449055D01*
X8868918Y8735568D02*
G01*
X8759952Y8449055D01*
X8972550Y8517381D02*
G01*
X8959088Y8503665D01*
X8972550Y8489950D01*
X8986265Y8503665D01*
X8972550Y8517381D01*
X9286240Y8735568D02*
G01*
X9286240Y8449055D01*
X9286240Y8735568D02*
G01*
X9463531Y8735568D01*
X9286240Y8599170D02*
G01*
X9395206Y8599170D01*
X9553447Y8735568D02*
G01*
X9567163Y8721852D01*
X9580879Y8735568D01*
X9567163Y8749284D01*
X9553447Y8735568D01*
X9567163Y8640063D02*
G01*
X9567163Y8449055D01*
X9670795Y8640063D02*
G01*
X9670795Y8449055D01*
X9670795Y8585454D02*
G01*
X9711690Y8626347D01*
X9738868Y8640063D01*
X9779761Y8640063D01*
X9807193Y8626347D01*
X9820656Y8585454D01*
X9820656Y8449055D01*
X10074402Y8640063D02*
G01*
X10074402Y8449055D01*
X10074402Y8599170D02*
G01*
X10047224Y8626347D01*
X10019791Y8640063D01*
X9978897Y8640063D01*
X9951720Y8626347D01*
X9924288Y8599170D01*
X9910825Y8558276D01*
X9910825Y8531097D01*
X9924288Y8489950D01*
X9951720Y8462771D01*
X9978897Y8449055D01*
X10019791Y8449055D01*
X10047224Y8462771D01*
X10074402Y8489950D01*
X10164318Y8735568D02*
G01*
X10164318Y8449055D01*
D11*
X8581390Y13773404D02*
G01*
X8567674Y13759687D01*
X8560815Y13739368D01*
X8560815Y13711936D01*
X8567674Y13691616D01*
X8581390Y13677900D01*
X8594852Y13677900D01*
X8608568Y13684757D01*
X8615425Y13691616D01*
X8622284Y13705078D01*
X8635745Y13745971D01*
X8642604Y13759687D01*
X8649461Y13766545D01*
X8663177Y13773404D01*
X8683497Y13773404D01*
X8697213Y13759687D01*
X8704072Y13739368D01*
X8704072Y13711936D01*
X8697213Y13691616D01*
X8683497Y13677900D01*
X8560815Y13818362D02*
G01*
X8704072Y13852397D01*
X8560815Y13886434D02*
G01*
X8704072Y13852397D01*
X8560815Y13886434D02*
G01*
X8704072Y13920724D01*
X8560815Y13954760D02*
G01*
X8704072Y13920724D01*
X8587993Y13999718D02*
G01*
X8581390Y14013434D01*
X8560815Y14033754D01*
X8704072Y14033754D01*
X8848090Y13773404D02*
G01*
X8834374Y13759687D01*
X8827515Y13739368D01*
X8827515Y13711936D01*
X8834374Y13691616D01*
X8848090Y13677900D01*
X8861552Y13677900D01*
X8875268Y13684757D01*
X8882125Y13691616D01*
X8888984Y13705078D01*
X8902445Y13745971D01*
X8909304Y13759687D01*
X8916161Y13766545D01*
X8929877Y13773404D01*
X8950197Y13773404D01*
X8963913Y13759687D01*
X8970772Y13739368D01*
X8970772Y13711936D01*
X8963913Y13691616D01*
X8950197Y13677900D01*
X8827515Y13818362D02*
G01*
X8970772Y13852397D01*
X8827515Y13886434D02*
G01*
X8970772Y13852397D01*
X8827515Y13886434D02*
G01*
X8970772Y13920724D01*
X8827515Y13954760D02*
G01*
X8970772Y13920724D01*
X8861552Y14006576D02*
G01*
X8854693Y14006576D01*
X8841231Y14013434D01*
X8834374Y14020292D01*
X8827515Y14033754D01*
X8827515Y14061186D01*
X8834374Y14074647D01*
X8841231Y14081505D01*
X8854693Y14088363D01*
X8868409Y14088363D01*
X8882125Y14081505D01*
X8902445Y14067789D01*
X8970772Y13999718D01*
X8970772Y14095221D01*
X9115552Y13780262D02*
G01*
X9102090Y13773404D01*
X9088374Y13759687D01*
X9081515Y13745971D01*
X9081515Y13718794D01*
X9088374Y13705078D01*
X9102090Y13691616D01*
X9115552Y13684757D01*
X9136125Y13677900D01*
X9170161Y13677900D01*
X9190736Y13684757D01*
X9204197Y13691616D01*
X9217913Y13705078D01*
X9224772Y13718794D01*
X9224772Y13745971D01*
X9217913Y13759687D01*
X9204197Y13773404D01*
X9190736Y13780262D01*
X9170161Y13780262D01*
X9170161Y13745971D02*
G01*
X9170161Y13780262D01*
X9081515Y13825220D02*
G01*
X9224772Y13825220D01*
X9081515Y13825220D02*
G01*
X9224772Y13920724D01*
X9081515Y13920724D02*
G01*
X9224772Y13920724D01*
X9081515Y13965681D02*
G01*
X9224772Y13965681D01*
X9081515Y13965681D02*
G01*
X9081515Y14013434D01*
X9088374Y14033754D01*
X9102090Y14047470D01*
X9115552Y14054328D01*
X9136125Y14061186D01*
X9170161Y14061186D01*
X9190736Y14054328D01*
X9204197Y14047470D01*
X9217913Y14033754D01*
X9224772Y14013434D01*
X9224772Y13965681D01*
X10410952Y13780262D02*
G01*
X10397490Y13773404D01*
X10383774Y13759687D01*
X10376915Y13745971D01*
X10376915Y13718794D01*
X10383774Y13705078D01*
X10397490Y13691616D01*
X10410952Y13684757D01*
X10431525Y13677900D01*
X10465561Y13677900D01*
X10486136Y13684757D01*
X10499597Y13691616D01*
X10513313Y13705078D01*
X10520172Y13718794D01*
X10520172Y13745971D01*
X10513313Y13759687D01*
X10499597Y13773404D01*
X10486136Y13780262D01*
X10465561Y13780262D01*
X10465561Y13745971D02*
G01*
X10465561Y13780262D01*
X10376915Y13825220D02*
G01*
X10520172Y13825220D01*
X10376915Y13825220D02*
G01*
X10520172Y13920724D01*
X10376915Y13920724D02*
G01*
X10520172Y13920724D01*
X10376915Y13965681D02*
G01*
X10520172Y13965681D01*
X10376915Y13965681D02*
G01*
X10376915Y14013434D01*
X10383774Y14033754D01*
X10397490Y14047470D01*
X10410952Y14054328D01*
X10431525Y14061186D01*
X10465561Y14061186D01*
X10486136Y14054328D01*
X10499597Y14047470D01*
X10513313Y14033754D01*
X10520172Y14013434D01*
X10520172Y13965681D01*
X10630915Y13665200D02*
G01*
X10774172Y13719810D01*
X10630915Y13774166D02*
G01*
X10774172Y13719810D01*
X10630915Y13819378D02*
G01*
X10774172Y13819378D01*
X10630915Y13864336D02*
G01*
X10774172Y13864336D01*
X10630915Y13864336D02*
G01*
X10630915Y13912087D01*
X10637774Y13932407D01*
X10651490Y13946124D01*
X10664952Y13952981D01*
X10685525Y13959839D01*
X10719561Y13959839D01*
X10740136Y13952981D01*
X10753597Y13946124D01*
X10767313Y13932407D01*
X10774172Y13912087D01*
X10774172Y13864336D01*
X10084815Y13719810D02*
G01*
X10228072Y13665200D01*
X10084815Y13719810D02*
G01*
X10228072Y13774166D01*
X10180320Y13685774D02*
G01*
X10180320Y13753845D01*
X10084815Y13819378D02*
G01*
X10187177Y13819378D01*
X10207497Y13825981D01*
X10221213Y13839697D01*
X10228072Y13860271D01*
X10228072Y13873734D01*
X10221213Y13894307D01*
X10207497Y13908024D01*
X10187177Y13914628D01*
X10084815Y13914628D01*
X10084815Y13959839D02*
G01*
X10228072Y13959839D01*
X10084815Y13959839D02*
G01*
X10084815Y14007592D01*
X10091674Y14027912D01*
X10105390Y14041628D01*
X10118852Y14048486D01*
X10139425Y14055089D01*
X10173461Y14055089D01*
X10194036Y14048486D01*
X10207497Y14041628D01*
X10221213Y14027912D01*
X10228072Y14007592D01*
X10228072Y13959839D01*
X9330690Y13713968D02*
G01*
X9453372Y13713968D01*
X9391904Y13652500D02*
G01*
X9391904Y13775181D01*
X9584690Y13713968D02*
G01*
X9707372Y13713968D01*
X9645904Y13652500D02*
G01*
X9645904Y13775181D01*
X9838690Y13713968D02*
G01*
X9961372Y13713968D01*
X9899904Y13652500D02*
G01*
X9899904Y13775181D01*
D12*
X11134597Y6073647D02*
G01*
X11029695Y6073647D01*
X11134597Y6108700D02*
G01*
X11134597Y6038595D01*
X11134597Y6005576D02*
G01*
X11029695Y6005576D01*
X11029695Y6005576D02*
G01*
X11029695Y5945631D01*
X11134597Y5882639D02*
G01*
X11129518Y5897626D01*
X11114531Y5907786D01*
X11089640Y5912612D01*
X11074654Y5912612D01*
X11049508Y5907786D01*
X11034522Y5897626D01*
X11029695Y5882639D01*
X11029695Y5872734D01*
X11034522Y5857747D01*
X11049508Y5847587D01*
X11074654Y5842762D01*
X11089640Y5842762D01*
X11114531Y5847587D01*
X11129518Y5857747D01*
X11134597Y5872734D01*
X11134597Y5882639D01*
X11134597Y5739637D02*
G01*
X11029695Y5789676D01*
X11134597Y5809742D02*
G01*
X11134597Y5739637D01*
X11109706Y5701792D02*
G01*
X11114531Y5701792D01*
X11124691Y5696712D01*
X11129518Y5691631D01*
X11134597Y5681726D01*
X11134597Y5661660D01*
X11129518Y5651754D01*
X11124691Y5646673D01*
X11114531Y5641594D01*
X11104625Y5641594D01*
X11094720Y5646673D01*
X11079479Y5656579D01*
X11029695Y5706618D01*
X11029695Y5636768D01*
D11*
X5740400Y1627378D02*
G01*
X5740400Y1433576D01*
X5740400Y1627378D02*
G01*
X5805170Y1627378D01*
X5832856Y1618234D01*
X5851143Y1599692D01*
X5860541Y1581150D01*
X5869686Y1553463D01*
X5869686Y1507489D01*
X5860541Y1479550D01*
X5851143Y1461262D01*
X5832856Y1442720D01*
X5805170Y1433576D01*
X5740400Y1433576D01*
X5930645Y1507489D02*
G01*
X6041390Y1507489D01*
X6041390Y1525778D01*
X6032245Y1544320D01*
X6023102Y1553463D01*
X6004559Y1562862D01*
X5976874Y1562862D01*
X5958331Y1553463D01*
X5939790Y1535176D01*
X5930645Y1507489D01*
X5930645Y1488947D01*
X5939790Y1461262D01*
X5958331Y1442720D01*
X5976874Y1433576D01*
X6004559Y1433576D01*
X6023102Y1442720D01*
X6041390Y1461262D01*
X6102350Y1562862D02*
G01*
X6157975Y1433576D01*
X6213347Y1562862D02*
G01*
X6157975Y1433576D01*
X6274308Y1507489D02*
G01*
X6385052Y1507489D01*
X6385052Y1525778D01*
X6375908Y1544320D01*
X6366509Y1553463D01*
X6348222Y1562862D01*
X6320536Y1562862D01*
X6301993Y1553463D01*
X6283452Y1535176D01*
X6274308Y1507489D01*
X6274308Y1488947D01*
X6283452Y1461262D01*
X6301993Y1442720D01*
X6320536Y1433576D01*
X6348222Y1433576D01*
X6366509Y1442720D01*
X6385052Y1461262D01*
X6446011Y1627378D02*
G01*
X6446011Y1433576D01*
X6553200Y1562862D02*
G01*
X6534658Y1553463D01*
X6516370Y1535176D01*
X6506972Y1507489D01*
X6506972Y1488947D01*
X6516370Y1461262D01*
X6534658Y1442720D01*
X6553200Y1433576D01*
X6580886Y1433576D01*
X6599427Y1442720D01*
X6617970Y1461262D01*
X6627113Y1488947D01*
X6627113Y1507489D01*
X6617970Y1535176D01*
X6599427Y1553463D01*
X6580886Y1562862D01*
X6553200Y1562862D01*
X6688074Y1562862D02*
G01*
X6688074Y1368805D01*
X6688074Y1535176D02*
G01*
X6706615Y1553463D01*
X6724904Y1562862D01*
X6752590Y1562862D01*
X6771131Y1553463D01*
X6789674Y1535176D01*
X6798818Y1507489D01*
X6798818Y1488947D01*
X6789674Y1461262D01*
X6771131Y1442720D01*
X6752590Y1433576D01*
X6724904Y1433576D01*
X6706615Y1442720D01*
X6688074Y1461262D01*
X6859777Y1507489D02*
G01*
X6970775Y1507489D01*
X6970775Y1525778D01*
X6961377Y1544320D01*
X6952234Y1553463D01*
X6933691Y1562862D01*
X6906006Y1562862D01*
X6887463Y1553463D01*
X6869175Y1535176D01*
X6859777Y1507489D01*
X6859777Y1488947D01*
X6869175Y1461262D01*
X6887463Y1442720D01*
X6906006Y1433576D01*
X6933691Y1433576D01*
X6952234Y1442720D01*
X6970775Y1461262D01*
X7142479Y1627378D02*
G01*
X7142479Y1433576D01*
X7142479Y1535176D02*
G01*
X7123938Y1553463D01*
X7105650Y1562862D01*
X7077709Y1562862D01*
X7059422Y1553463D01*
X7040879Y1535176D01*
X7031736Y1507489D01*
X7031736Y1488947D01*
X7040879Y1461262D01*
X7059422Y1442720D01*
X7077709Y1433576D01*
X7105650Y1433576D01*
X7123938Y1442720D01*
X7142479Y1461262D01*
X7345679Y1627378D02*
G01*
X7345679Y1433576D01*
X7345679Y1535176D02*
G01*
X7364222Y1553463D01*
X7382509Y1562862D01*
X7410450Y1562862D01*
X7428738Y1553463D01*
X7447279Y1535176D01*
X7456424Y1507489D01*
X7456424Y1488947D01*
X7447279Y1461262D01*
X7428738Y1442720D01*
X7410450Y1433576D01*
X7382509Y1433576D01*
X7364222Y1442720D01*
X7345679Y1461262D01*
X7526781Y1562862D02*
G01*
X7582154Y1433576D01*
X7637525Y1562862D02*
G01*
X7582154Y1433576D01*
X7563611Y1396492D01*
X7545070Y1377950D01*
X7526781Y1368805D01*
X7517384Y1368805D01*
X7840725Y1627378D02*
G01*
X7840725Y1433576D01*
X7840725Y1627378D02*
G01*
X7923784Y1627378D01*
X7951470Y1618234D01*
X7960868Y1609089D01*
X7970011Y1590547D01*
X7970011Y1572005D01*
X7960868Y1553463D01*
X7951470Y1544320D01*
X7923784Y1535176D01*
X7840725Y1535176D01*
X7905495Y1535176D02*
G01*
X7970011Y1433576D01*
X8030972Y1507489D02*
G01*
X8141970Y1507489D01*
X8141970Y1525778D01*
X8132572Y1544320D01*
X8123427Y1553463D01*
X8104886Y1562862D01*
X8077200Y1562862D01*
X8058658Y1553463D01*
X8040370Y1535176D01*
X8030972Y1507489D01*
X8030972Y1488947D01*
X8040370Y1461262D01*
X8058658Y1442720D01*
X8077200Y1433576D01*
X8104886Y1433576D01*
X8123427Y1442720D01*
X8141970Y1461262D01*
X8230615Y1627378D02*
G01*
X8230615Y1470405D01*
X8239759Y1442720D01*
X8258302Y1433576D01*
X8276590Y1433576D01*
X8202929Y1562862D02*
G01*
X8267445Y1562862D01*
X8337550Y1562862D02*
G01*
X8337550Y1433576D01*
X8337550Y1507489D02*
G01*
X8346947Y1535176D01*
X8365490Y1553463D01*
X8383777Y1562862D01*
X8411463Y1562862D01*
X8518652Y1562862D02*
G01*
X8500109Y1553463D01*
X8481822Y1535176D01*
X8472424Y1507489D01*
X8472424Y1488947D01*
X8481822Y1461262D01*
X8500109Y1442720D01*
X8518652Y1433576D01*
X8546338Y1433576D01*
X8564879Y1442720D01*
X8583422Y1461262D01*
X8592565Y1488947D01*
X8592565Y1507489D01*
X8583422Y1535176D01*
X8564879Y1553463D01*
X8546338Y1562862D01*
X8518652Y1562862D01*
X8792209Y1581150D02*
G01*
X8782811Y1599692D01*
X8764270Y1618234D01*
X8745981Y1627378D01*
X8708897Y1627378D01*
X8690609Y1618234D01*
X8672068Y1599692D01*
X8662670Y1581150D01*
X8653525Y1553463D01*
X8653525Y1507489D01*
X8662670Y1479550D01*
X8672068Y1461262D01*
X8690609Y1442720D01*
X8708897Y1433576D01*
X8745981Y1433576D01*
X8764270Y1442720D01*
X8782811Y1461262D01*
X8792209Y1479550D01*
X8792209Y1507489D01*
X8745981Y1507489D02*
G01*
X8792209Y1507489D01*
X8963913Y1562862D02*
G01*
X8963913Y1433576D01*
X8963913Y1535176D02*
G01*
X8945372Y1553463D01*
X8926829Y1562862D01*
X8899143Y1562862D01*
X8880856Y1553463D01*
X8862313Y1535176D01*
X8853170Y1507489D01*
X8853170Y1488947D01*
X8862313Y1461262D01*
X8880856Y1442720D01*
X8899143Y1433576D01*
X8926829Y1433576D01*
X8945372Y1442720D01*
X8963913Y1461262D01*
X9024874Y1562862D02*
G01*
X9024874Y1433576D01*
X9024874Y1525778D02*
G01*
X9052559Y1553463D01*
X9071102Y1562862D01*
X9098788Y1562862D01*
X9117329Y1553463D01*
X9126474Y1525778D01*
X9126474Y1433576D01*
X9126474Y1525778D02*
G01*
X9154159Y1553463D01*
X9172702Y1562862D01*
X9200388Y1562862D01*
X9218929Y1553463D01*
X9228074Y1525778D01*
X9228074Y1433576D01*
X9289034Y1507489D02*
G01*
X9399777Y1507489D01*
X9399777Y1525778D01*
X9390634Y1544320D01*
X9381490Y1553463D01*
X9362947Y1562862D01*
X9335261Y1562862D01*
X9316720Y1553463D01*
X9298177Y1535176D01*
X9289034Y1507489D01*
X9289034Y1488947D01*
X9298177Y1461262D01*
X9316720Y1442720D01*
X9335261Y1433576D01*
X9362947Y1433576D01*
X9381490Y1442720D01*
X9399777Y1461262D01*
X6796786Y1294892D02*
G01*
X6778243Y1313434D01*
X6750558Y1322578D01*
X6713727Y1322578D01*
X6686041Y1313434D01*
X6667500Y1294892D01*
X6667500Y1276350D01*
X6676643Y1258062D01*
X6686041Y1248663D01*
X6704329Y1239520D01*
X6759956Y1220978D01*
X6778243Y1211834D01*
X6787641Y1202689D01*
X6796786Y1184147D01*
X6796786Y1156462D01*
X6778243Y1137920D01*
X6750558Y1128776D01*
X6713727Y1128776D01*
X6686041Y1137920D01*
X6667500Y1156462D01*
X6913118Y1322578D02*
G01*
X6894829Y1313434D01*
X6876288Y1294892D01*
X6866890Y1276350D01*
X6857745Y1248663D01*
X6857745Y1202689D01*
X6866890Y1174750D01*
X6876288Y1156462D01*
X6894829Y1137920D01*
X6913118Y1128776D01*
X6950202Y1128776D01*
X6968490Y1137920D01*
X6987031Y1156462D01*
X6996429Y1174750D01*
X7005574Y1202689D01*
X7005574Y1248663D01*
X6996429Y1276350D01*
X6987031Y1294892D01*
X6968490Y1313434D01*
X6950202Y1322578D01*
X6913118Y1322578D01*
X7204963Y1276350D02*
G01*
X7195820Y1294892D01*
X7177277Y1313434D01*
X7158990Y1322578D01*
X7121906Y1322578D01*
X7103363Y1313434D01*
X7085075Y1294892D01*
X7075677Y1276350D01*
X7066534Y1248663D01*
X7066534Y1202689D01*
X7075677Y1174750D01*
X7085075Y1156462D01*
X7103363Y1137920D01*
X7121906Y1128776D01*
X7158990Y1128776D01*
X7177277Y1137920D01*
X7195820Y1156462D01*
X7204963Y1174750D01*
X7265924Y1322578D02*
G01*
X7265924Y1128776D01*
X7395209Y1322578D02*
G01*
X7395209Y1128776D01*
X7265924Y1230376D02*
G01*
X7395209Y1230376D01*
X7456170Y1322578D02*
G01*
X7456170Y1128776D01*
X7668768Y1276350D02*
G01*
X7668768Y1285747D01*
X7677911Y1304289D01*
X7687309Y1313434D01*
X7705597Y1322578D01*
X7742681Y1322578D01*
X7760970Y1313434D01*
X7770368Y1304289D01*
X7779511Y1285747D01*
X7779511Y1267205D01*
X7770368Y1248663D01*
X7751825Y1220978D01*
X7659370Y1128776D01*
X7788909Y1128776D01*
X7905241Y1322578D02*
G01*
X7877556Y1313434D01*
X7859013Y1285747D01*
X7849870Y1239520D01*
X7849870Y1211834D01*
X7859013Y1165605D01*
X7877556Y1137920D01*
X7905241Y1128776D01*
X7923529Y1128776D01*
X7951470Y1137920D01*
X7969758Y1165605D01*
X7979156Y1211834D01*
X7979156Y1239520D01*
X7969758Y1285747D01*
X7951470Y1313434D01*
X7923529Y1322578D01*
X7905241Y1322578D01*
X8049259Y1276350D02*
G01*
X8049259Y1285747D01*
X8058404Y1304289D01*
X8067802Y1313434D01*
X8086090Y1322578D01*
X8123174Y1322578D01*
X8141715Y1313434D01*
X8150859Y1304289D01*
X8160004Y1285747D01*
X8160004Y1267205D01*
X8150859Y1248663D01*
X8132318Y1220978D01*
X8040115Y1128776D01*
X8169402Y1128776D01*
X8248650Y1322578D02*
G01*
X8350250Y1322578D01*
X8294877Y1248663D01*
X8322563Y1248663D01*
X8341106Y1239520D01*
X8350250Y1230376D01*
X8359647Y1202689D01*
X8359647Y1184147D01*
X8350250Y1156462D01*
X8331961Y1137920D01*
X8304275Y1128776D01*
X8276590Y1128776D01*
X8248650Y1137920D01*
X8239506Y1147063D01*
X8230361Y1165605D01*
D13*
X6897370Y11481815D02*
G01*
X6845300Y11409171D01*
X6923277Y11409171D01*
X6897370Y11481815D02*
G01*
X6897370Y11372850D01*
X7030211Y11481815D02*
G01*
X6978395Y11372850D01*
X6957568Y11481815D02*
G01*
X7030211Y11481815D01*
X7064502Y11419586D02*
G01*
X7157974Y11419586D01*
X7254747Y11466321D02*
G01*
X7249413Y11476736D01*
X7233920Y11481815D01*
X7223506Y11481815D01*
X7208011Y11476736D01*
X7197597Y11460987D01*
X7192263Y11435079D01*
X7192263Y11409171D01*
X7197597Y11388344D01*
X7208011Y11377929D01*
X7223506Y11372850D01*
X7228840Y11372850D01*
X7244334Y11377929D01*
X7254747Y11388344D01*
X7259827Y11403837D01*
X7259827Y11409171D01*
X7254747Y11424665D01*
X7244334Y11435079D01*
X7228840Y11440160D01*
X7223506Y11440160D01*
X7208011Y11435079D01*
X7197597Y11424665D01*
X7192263Y11409171D01*
X7320279Y11481815D02*
G01*
X7304531Y11476736D01*
X7299452Y11466321D01*
X7299452Y11455908D01*
X7304531Y11445494D01*
X7314945Y11440160D01*
X7335774Y11435079D01*
X7351268Y11430000D01*
X7361681Y11419586D01*
X7367015Y11409171D01*
X7367015Y11393424D01*
X7361681Y11383010D01*
X7356602Y11377929D01*
X7340854Y11372850D01*
X7320279Y11372850D01*
X7304531Y11377929D01*
X7299452Y11383010D01*
X7294118Y11393424D01*
X7294118Y11409171D01*
X7299452Y11419586D01*
X7309865Y11430000D01*
X7325359Y11435079D01*
X7346188Y11440160D01*
X7356602Y11445494D01*
X7361681Y11455908D01*
X7361681Y11466321D01*
X7356602Y11476736D01*
X7340854Y11481815D01*
X7320279Y11481815D01*
X7401306Y11445494D02*
G01*
X7401306Y11336274D01*
X7401306Y11430000D02*
G01*
X7411720Y11440160D01*
X7421879Y11445494D01*
X7437627Y11445494D01*
X7448041Y11440160D01*
X7458456Y11430000D01*
X7463536Y11414252D01*
X7463536Y11403837D01*
X7458456Y11388344D01*
X7448041Y11377929D01*
X7437627Y11372850D01*
X7421879Y11372850D01*
X7411720Y11377929D01*
X7401306Y11388344D01*
X7523734Y11450574D02*
G01*
X7523734Y11388344D01*
X7497825Y11435079D02*
G01*
X7549895Y11403837D01*
X7549895Y11435079D02*
G01*
X7497825Y11403837D01*
X10963909Y13089889D02*
G01*
X10963909Y13094970D01*
X10969243Y13105384D01*
X10974324Y13110718D01*
X10984738Y13115797D01*
X11005565Y13115797D01*
X11015979Y13110718D01*
X11021059Y13105384D01*
X11026393Y13094970D01*
X11026393Y13084555D01*
X11021059Y13074142D01*
X11010645Y13058647D01*
X10958829Y13006831D01*
X11031474Y13006831D01*
X11071097Y13089889D02*
G01*
X11071097Y13094970D01*
X11076177Y13105384D01*
X11081511Y13110718D01*
X11091925Y13115797D01*
X11112500Y13115797D01*
X11122913Y13110718D01*
X11128247Y13105384D01*
X11133327Y13094970D01*
X11133327Y13084555D01*
X11128247Y13074142D01*
X11117834Y13058647D01*
X11065763Y13006831D01*
X11138661Y13006831D01*
X11203940Y13115797D02*
G01*
X11188445Y13110718D01*
X11178031Y13094970D01*
X11172952Y13069062D01*
X11172952Y13053568D01*
X11178031Y13027405D01*
X11188445Y13011912D01*
X11203940Y13006831D01*
X11214354Y13006831D01*
X11230102Y13011912D01*
X11240515Y13027405D01*
X11245595Y13053568D01*
X11245595Y13069062D01*
X11240515Y13094970D01*
X11230102Y13110718D01*
X11214354Y13115797D01*
X11203940Y13115797D01*
X11279886Y13079476D02*
G01*
X11279886Y13006831D01*
X11279886Y13058647D02*
G01*
X11295379Y13074142D01*
X11305793Y13079476D01*
X11321541Y13079476D01*
X11331956Y13074142D01*
X11337036Y13058647D01*
X11337036Y13006831D01*
X11337036Y13058647D02*
G01*
X11352529Y13074142D01*
X11362943Y13079476D01*
X11378691Y13079476D01*
X11389106Y13074142D01*
X11394186Y13058647D01*
X11394186Y13006831D01*
X11470131Y13115797D02*
G01*
X11459718Y13115797D01*
X11449304Y13110718D01*
X11443970Y13094970D01*
X11443970Y13006831D01*
X11428475Y13079476D02*
G01*
X11464797Y13079476D01*
X11597893Y13136626D02*
G01*
X11504422Y12970255D01*
X11632184Y13094970D02*
G01*
X11642597Y13100304D01*
X11658091Y13115797D01*
X11658091Y13006831D01*
X11754865Y13100304D02*
G01*
X11749531Y13110718D01*
X11734038Y13115797D01*
X11723624Y13115797D01*
X11707875Y13110718D01*
X11697715Y13094970D01*
X11692381Y13069062D01*
X11692381Y13043154D01*
X11697715Y13022326D01*
X11707875Y13011912D01*
X11723624Y13006831D01*
X11728704Y13006831D01*
X11744452Y13011912D01*
X11754865Y13022326D01*
X11759945Y13037820D01*
X11759945Y13043154D01*
X11754865Y13058647D01*
X11744452Y13069062D01*
X11728704Y13074142D01*
X11723624Y13074142D01*
X11707875Y13069062D01*
X11697715Y13058647D01*
X11692381Y13043154D01*
X11794236Y13079476D02*
G01*
X11825477Y13006831D01*
X11856465Y13079476D02*
G01*
X11825477Y13006831D01*
X12300711Y12001500D02*
G01*
X12295377Y12011913D01*
X12279884Y12027408D01*
X12388850Y12027408D01*
X12279884Y12092939D02*
G01*
X12284963Y12077445D01*
X12300711Y12067031D01*
X12326620Y12061697D01*
X12342113Y12061697D01*
X12368275Y12067031D01*
X12383770Y12077445D01*
X12388850Y12092939D01*
X12388850Y12103354D01*
X12383770Y12118847D01*
X12368275Y12129262D01*
X12342113Y12134595D01*
X12326620Y12134595D01*
X12300711Y12129262D01*
X12284963Y12118847D01*
X12279884Y12103354D01*
X12279884Y12092939D01*
X12316206Y12168886D02*
G01*
X12368275Y12168886D01*
X12383770Y12173965D01*
X12388850Y12184379D01*
X12388850Y12199874D01*
X12383770Y12210287D01*
X12368275Y12226036D01*
X12316206Y12226036D02*
G01*
X12388850Y12226036D01*
X12279884Y12260326D02*
G01*
X12388850Y12260326D01*
X12279884Y12260326D02*
G01*
X12279884Y12327889D01*
X12331700Y12260326D02*
G01*
X12331700Y12301728D01*
X11709400Y11333987D02*
G01*
X11719813Y11339321D01*
X11735308Y11354815D01*
X11735308Y11245850D01*
X11800840Y11354815D02*
G01*
X11785345Y11349736D01*
X11774931Y11333987D01*
X11769597Y11308079D01*
X11769597Y11292586D01*
X11774931Y11266424D01*
X11785345Y11250929D01*
X11800840Y11245850D01*
X11811254Y11245850D01*
X11826747Y11250929D01*
X11837161Y11266424D01*
X11842495Y11292586D01*
X11842495Y11308079D01*
X11837161Y11333987D01*
X11826747Y11349736D01*
X11811254Y11354815D01*
X11800840Y11354815D01*
X11907774Y11354815D02*
G01*
X11892279Y11349736D01*
X11881865Y11333987D01*
X11876786Y11308079D01*
X11876786Y11292586D01*
X11881865Y11266424D01*
X11892279Y11250929D01*
X11907774Y11245850D01*
X11918188Y11245850D01*
X11933936Y11250929D01*
X11944350Y11266424D01*
X11949429Y11292586D01*
X11949429Y11308079D01*
X11944350Y11333987D01*
X11933936Y11349736D01*
X11918188Y11354815D01*
X11907774Y11354815D01*
X11983720Y11354815D02*
G01*
X11983720Y11245850D01*
X12035790Y11318494D02*
G01*
X11983720Y11266424D01*
X12004547Y11287252D02*
G01*
X12040870Y11245850D01*
X11586463Y13612621D02*
G01*
X11596877Y13617955D01*
X11612372Y13633450D01*
X11612372Y13524484D01*
X11677904Y13633450D02*
G01*
X11662409Y13628370D01*
X11651995Y13612621D01*
X11646661Y13586713D01*
X11646661Y13571220D01*
X11651995Y13545057D01*
X11662409Y13529563D01*
X11677904Y13524484D01*
X11688318Y13524484D01*
X11703811Y13529563D01*
X11714225Y13545057D01*
X11719559Y13571220D01*
X11719559Y13586713D01*
X11714225Y13612621D01*
X11703811Y13628370D01*
X11688318Y13633450D01*
X11677904Y13633450D01*
X11784838Y13633450D02*
G01*
X11769343Y13628370D01*
X11758929Y13612621D01*
X11753850Y13586713D01*
X11753850Y13571220D01*
X11758929Y13545057D01*
X11769343Y13529563D01*
X11784838Y13524484D01*
X11795252Y13524484D01*
X11811000Y13529563D01*
X11821413Y13545057D01*
X11826493Y13571220D01*
X11826493Y13586713D01*
X11821413Y13612621D01*
X11811000Y13628370D01*
X11795252Y13633450D01*
X11784838Y13633450D01*
X11860784Y13633450D02*
G01*
X11860784Y13524484D01*
X11912854Y13597128D02*
G01*
X11860784Y13545057D01*
X11881611Y13565886D02*
G01*
X11917934Y13524484D01*
X6794500Y13467587D02*
G01*
X6804913Y13472921D01*
X6820408Y13488416D01*
X6820408Y13379450D01*
X6885940Y13488416D02*
G01*
X6870445Y13483336D01*
X6860031Y13467587D01*
X6854697Y13441679D01*
X6854697Y13426186D01*
X6860031Y13400024D01*
X6870445Y13384529D01*
X6885940Y13379450D01*
X6896354Y13379450D01*
X6911847Y13384529D01*
X6922261Y13400024D01*
X6927595Y13426186D01*
X6927595Y13441679D01*
X6922261Y13467587D01*
X6911847Y13483336D01*
X6896354Y13488416D01*
X6885940Y13488416D01*
X6961886Y13488416D02*
G01*
X6961886Y13379450D01*
X7013702Y13452094D02*
G01*
X6961886Y13400024D01*
X6982459Y13420852D02*
G01*
X7019036Y13379450D01*
X10861293Y6489192D02*
G01*
X10855959Y6499605D01*
X10845800Y6510020D01*
X10830052Y6515100D01*
X10819638Y6515100D01*
X10804143Y6510020D01*
X10793729Y6499605D01*
X10788650Y6489192D01*
X10788650Y6473444D01*
X10793729Y6463029D01*
X10804143Y6452870D01*
X10819638Y6447536D01*
X10830052Y6447536D01*
X10845800Y6452870D01*
X10855959Y6463029D01*
X10861293Y6473444D01*
X10861293Y6489192D01*
X10861293Y6413245D02*
G01*
X10752074Y6413245D01*
X10845800Y6413245D02*
G01*
X10855959Y6402831D01*
X10861293Y6392418D01*
X10861293Y6376923D01*
X10855959Y6366510D01*
X10845800Y6356095D01*
X10830052Y6351015D01*
X10819638Y6351015D01*
X10804143Y6356095D01*
X10793729Y6366510D01*
X10788650Y6376923D01*
X10788650Y6392418D01*
X10793729Y6402831D01*
X10804143Y6413245D01*
X10861293Y6254242D02*
G01*
X10788650Y6254242D01*
X10845800Y6254242D02*
G01*
X10855959Y6264655D01*
X10861293Y6275070D01*
X10861293Y6290563D01*
X10855959Y6300978D01*
X10845800Y6311392D01*
X10830052Y6316726D01*
X10819638Y6316726D01*
X10804143Y6311392D01*
X10793729Y6300978D01*
X10788650Y6290563D01*
X10788650Y6275070D01*
X10793729Y6264655D01*
X10804143Y6254242D01*
X10871708Y6214871D02*
G01*
X10876788Y6214871D01*
X10887202Y6209537D01*
X10892536Y6204457D01*
X10897615Y6194044D01*
X10897615Y6173215D01*
X10892536Y6162802D01*
X10887202Y6157721D01*
X10876788Y6152387D01*
X10866374Y6152387D01*
X10855959Y6157721D01*
X10840465Y6168136D01*
X10788650Y6219952D01*
X10788650Y6147307D01*
X10876788Y6113018D02*
G01*
X10882122Y6102604D01*
X10897615Y6087110D01*
X10788650Y6087110D01*
X10897615Y6042405D02*
G01*
X10897615Y5985255D01*
X10855959Y6016244D01*
X10855959Y6000750D01*
X10850879Y5990336D01*
X10845800Y5985255D01*
X10830052Y5979921D01*
X10819638Y5979921D01*
X10804143Y5985255D01*
X10793729Y5995670D01*
X10788650Y6011163D01*
X10788650Y6026657D01*
X10793729Y6042405D01*
X10798809Y6047486D01*
X10809224Y6052820D01*
X10897615Y5893815D02*
G01*
X10824972Y5945631D01*
X10824972Y5867654D01*
X10897615Y5893815D02*
G01*
X10788650Y5893815D01*
X10861293Y5833363D02*
G01*
X10752074Y5833363D01*
X10845800Y5833363D02*
G01*
X10855959Y5822950D01*
X10861293Y5812789D01*
X10861293Y5797042D01*
X10855959Y5786628D01*
X10845800Y5776213D01*
X10830052Y5771134D01*
X10819638Y5771134D01*
X10804143Y5776213D01*
X10793729Y5786628D01*
X10788650Y5797042D01*
X10788650Y5812789D01*
X10793729Y5822950D01*
X10804143Y5833363D01*
X10861293Y5674360D02*
G01*
X10788650Y5674360D01*
X10845800Y5674360D02*
G01*
X10855959Y5684773D01*
X10861293Y5695187D01*
X10861293Y5710936D01*
X10855959Y5721350D01*
X10845800Y5731510D01*
X10830052Y5736844D01*
X10819638Y5736844D01*
X10804143Y5731510D01*
X10793729Y5721350D01*
X10788650Y5710936D01*
X10788650Y5695187D01*
X10793729Y5684773D01*
X10804143Y5674360D01*
X11304015Y6386829D02*
G01*
X11231372Y6438900D01*
X11231372Y6360921D01*
X11304015Y6386829D02*
G01*
X11195050Y6386829D01*
X11304015Y6264402D02*
G01*
X11304015Y6316218D01*
X11257279Y6321552D01*
X11262359Y6316218D01*
X11267693Y6300723D01*
X11267693Y6285229D01*
X11262359Y6269481D01*
X11252200Y6259068D01*
X11236452Y6253987D01*
X11226038Y6253987D01*
X11210543Y6259068D01*
X11200129Y6269481D01*
X11195050Y6285229D01*
X11195050Y6300723D01*
X11200129Y6316218D01*
X11205209Y6321552D01*
X11215624Y6326631D01*
X11304015Y6157213D02*
G01*
X11304015Y6209284D01*
X11257279Y6214363D01*
X11262359Y6209284D01*
X11267693Y6193789D01*
X11267693Y6178042D01*
X11262359Y6162547D01*
X11252200Y6152134D01*
X11236452Y6146800D01*
X11226038Y6146800D01*
X11210543Y6152134D01*
X11200129Y6162547D01*
X11195050Y6178042D01*
X11195050Y6193789D01*
X11200129Y6209284D01*
X11205209Y6214363D01*
X11215624Y6219697D01*
X11304015Y6086602D02*
G01*
X11298936Y6102350D01*
X11288522Y6107429D01*
X11278108Y6107429D01*
X11267693Y6102350D01*
X11262359Y6091936D01*
X11257279Y6071107D01*
X11252200Y6055360D01*
X11241786Y6045200D01*
X11231372Y6039865D01*
X11215624Y6039865D01*
X11205209Y6045200D01*
X11200129Y6050279D01*
X11195050Y6065773D01*
X11195050Y6086602D01*
X11200129Y6102350D01*
X11205209Y6107429D01*
X11215624Y6112510D01*
X11231372Y6112510D01*
X11241786Y6107429D01*
X11252200Y6097015D01*
X11257279Y6081521D01*
X11262359Y6060694D01*
X11267693Y6050279D01*
X11278108Y6045200D01*
X11288522Y6045200D01*
X11298936Y6050279D01*
X11304015Y6065773D01*
X11304015Y6086602D01*
X11304015Y5953760D02*
G01*
X11220958Y5953760D01*
X11205209Y5958839D01*
X11200129Y5963920D01*
X11195050Y5974334D01*
X11195050Y5984747D01*
X11200129Y5995162D01*
X11205209Y6000495D01*
X11220958Y6005576D01*
X11231372Y6005576D01*
X11304015Y5919470D02*
G01*
X11195050Y5919470D01*
X11304015Y5919470D02*
G01*
X11304015Y5872479D01*
X11298936Y5856986D01*
X11293602Y5851905D01*
X11283188Y5846571D01*
X11272774Y5846571D01*
X11262359Y5851905D01*
X11257279Y5856986D01*
X11252200Y5872479D01*
X11252200Y5919470D01*
X11252200Y5882894D02*
G01*
X11195050Y5846571D01*
X11278108Y5734304D02*
G01*
X11288522Y5739637D01*
X11298936Y5750052D01*
X11304015Y5760465D01*
X11304015Y5781039D01*
X11298936Y5791454D01*
X11288522Y5801868D01*
X11278108Y5807202D01*
X11262359Y5812281D01*
X11236452Y5812281D01*
X11220958Y5807202D01*
X11210543Y5801868D01*
X11200129Y5791454D01*
X11195050Y5781039D01*
X11195050Y5760465D01*
X11200129Y5750052D01*
X11210543Y5739637D01*
X11220958Y5734304D01*
X9925811Y5994400D02*
G01*
X9920477Y6004813D01*
X9904984Y6020307D01*
X10013950Y6020307D01*
X9904984Y6085839D02*
G01*
X9910063Y6070345D01*
X9925811Y6059931D01*
X9951720Y6054597D01*
X9967213Y6054597D01*
X9993375Y6059931D01*
X10008870Y6070345D01*
X10013950Y6085839D01*
X10013950Y6096254D01*
X10008870Y6111747D01*
X9993375Y6122162D01*
X9967213Y6127495D01*
X9951720Y6127495D01*
X9925811Y6122162D01*
X9910063Y6111747D01*
X9904984Y6096254D01*
X9904984Y6085839D01*
X9941306Y6161786D02*
G01*
X9993375Y6161786D01*
X10008870Y6166865D01*
X10013950Y6177279D01*
X10013950Y6192773D01*
X10008870Y6203187D01*
X9993375Y6218936D01*
X9941306Y6218936D02*
G01*
X10013950Y6218936D01*
X9904984Y6253226D02*
G01*
X10013950Y6253226D01*
X9904984Y6253226D02*
G01*
X9904984Y6320789D01*
X9956800Y6253226D02*
G01*
X9956800Y6294628D01*
X10217911Y5918200D02*
G01*
X10212577Y5928613D01*
X10197084Y5944107D01*
X10306050Y5944107D01*
X10197084Y6009639D02*
G01*
X10202163Y5994145D01*
X10217911Y5983731D01*
X10243820Y5978397D01*
X10259313Y5978397D01*
X10285475Y5983731D01*
X10300970Y5994145D01*
X10306050Y6009639D01*
X10306050Y6020054D01*
X10300970Y6035547D01*
X10285475Y6045962D01*
X10259313Y6051295D01*
X10243820Y6051295D01*
X10217911Y6045962D01*
X10202163Y6035547D01*
X10197084Y6020054D01*
X10197084Y6009639D01*
X10197084Y6116573D02*
G01*
X10202163Y6101079D01*
X10217911Y6090665D01*
X10243820Y6085586D01*
X10259313Y6085586D01*
X10285475Y6090665D01*
X10300970Y6101079D01*
X10306050Y6116573D01*
X10306050Y6126987D01*
X10300970Y6142736D01*
X10285475Y6153150D01*
X10259313Y6158229D01*
X10243820Y6158229D01*
X10217911Y6153150D01*
X10202163Y6142736D01*
X10197084Y6126987D01*
X10197084Y6116573D01*
X10197084Y6192520D02*
G01*
X10306050Y6192520D01*
X10233406Y6244589D02*
G01*
X10285475Y6192520D01*
X10264647Y6213347D02*
G01*
X10306050Y6249670D01*
X10882635Y5230621D02*
G01*
X10893049Y5235955D01*
X10908543Y5251450D01*
X10908543Y5142484D01*
X10974075Y5251450D02*
G01*
X10958581Y5246370D01*
X10948167Y5230621D01*
X10942833Y5204713D01*
X10942833Y5189220D01*
X10948167Y5163057D01*
X10958581Y5147563D01*
X10974075Y5142484D01*
X10984489Y5142484D01*
X10999983Y5147563D01*
X11010397Y5163057D01*
X11015731Y5189220D01*
X11015731Y5204713D01*
X11010397Y5230621D01*
X10999983Y5246370D01*
X10984489Y5251450D01*
X10974075Y5251450D01*
X11081009Y5251450D02*
G01*
X11065515Y5246370D01*
X11055101Y5230621D01*
X11050021Y5204713D01*
X11050021Y5189220D01*
X11055101Y5163057D01*
X11065515Y5147563D01*
X11081009Y5142484D01*
X11091423Y5142484D01*
X11107171Y5147563D01*
X11117585Y5163057D01*
X11122665Y5189220D01*
X11122665Y5204713D01*
X11117585Y5230621D01*
X11107171Y5246370D01*
X11091423Y5251450D01*
X11081009Y5251450D01*
X11156955Y5251450D02*
G01*
X11156955Y5142484D01*
X11209025Y5215128D02*
G01*
X11156955Y5163057D01*
X11177783Y5183886D02*
G01*
X11214105Y5142484D01*
X10908029Y6995921D02*
G01*
X10902950Y7006336D01*
X10887456Y7011415D01*
X10877041Y7011415D01*
X10861293Y7006336D01*
X10850879Y6990587D01*
X10845800Y6964679D01*
X10845800Y6938771D01*
X10850879Y6917944D01*
X10861293Y6907529D01*
X10877041Y6902450D01*
X10882122Y6902450D01*
X10897870Y6907529D01*
X10908029Y6917944D01*
X10913363Y6933437D01*
X10913363Y6938771D01*
X10908029Y6954265D01*
X10897870Y6964679D01*
X10882122Y6969760D01*
X10877041Y6969760D01*
X10861293Y6964679D01*
X10850879Y6954265D01*
X10845800Y6938771D01*
X10958068Y6923023D02*
G01*
X10952734Y6917944D01*
X10947654Y6923023D01*
X10952734Y6928358D01*
X10958068Y6923023D01*
X10958068Y6912610D01*
X10947654Y6902450D01*
X11018265Y7011415D02*
G01*
X11002772Y7006336D01*
X10997438Y6995921D01*
X10997438Y6985508D01*
X11002772Y6975094D01*
X11013186Y6969760D01*
X11033759Y6964679D01*
X11049508Y6959600D01*
X11059922Y6949186D01*
X11065002Y6938771D01*
X11065002Y6923023D01*
X11059922Y6912610D01*
X11054588Y6907529D01*
X11039093Y6902450D01*
X11018265Y6902450D01*
X11002772Y6907529D01*
X10997438Y6912610D01*
X10992358Y6923023D01*
X10992358Y6938771D01*
X10997438Y6949186D01*
X11007852Y6959600D01*
X11023600Y6964679D01*
X11044174Y6969760D01*
X11054588Y6975094D01*
X11059922Y6985508D01*
X11059922Y6995921D01*
X11054588Y7006336D01*
X11039093Y7011415D01*
X11018265Y7011415D01*
X11099291Y7011415D02*
G01*
X11099291Y6902450D01*
X11172190Y7011415D02*
G01*
X11099291Y6938771D01*
X11125200Y6964679D02*
G01*
X11172190Y6902450D01*
X10281411Y6832600D02*
G01*
X10276077Y6843013D01*
X10260584Y6858508D01*
X10369550Y6858508D01*
X10260584Y6924039D02*
G01*
X10265663Y6908545D01*
X10281411Y6898131D01*
X10307320Y6892797D01*
X10322813Y6892797D01*
X10348975Y6898131D01*
X10364470Y6908545D01*
X10369550Y6924039D01*
X10369550Y6934454D01*
X10364470Y6949947D01*
X10348975Y6960362D01*
X10322813Y6965695D01*
X10307320Y6965695D01*
X10281411Y6960362D01*
X10265663Y6949947D01*
X10260584Y6934454D01*
X10260584Y6924039D01*
X10260584Y7030973D02*
G01*
X10265663Y7015479D01*
X10281411Y7005065D01*
X10307320Y6999986D01*
X10322813Y6999986D01*
X10348975Y7005065D01*
X10364470Y7015479D01*
X10369550Y7030973D01*
X10369550Y7041387D01*
X10364470Y7057136D01*
X10348975Y7067550D01*
X10322813Y7072629D01*
X10307320Y7072629D01*
X10281411Y7067550D01*
X10265663Y7057136D01*
X10260584Y7041387D01*
X10260584Y7030973D01*
X10296906Y7106920D02*
G01*
X10406125Y7106920D01*
X10312400Y7106920D02*
G01*
X10302240Y7117334D01*
X10296906Y7127747D01*
X10296906Y7143242D01*
X10302240Y7153655D01*
X10312400Y7164070D01*
X10328147Y7169150D01*
X10338561Y7169150D01*
X10354056Y7164070D01*
X10364470Y7153655D01*
X10369550Y7143242D01*
X10369550Y7127747D01*
X10364470Y7117334D01*
X10354056Y7106920D01*
X10918443Y7905242D02*
G01*
X10918443Y7910321D01*
X10923777Y7920736D01*
X10928858Y7926070D01*
X10939272Y7931150D01*
X10960100Y7931150D01*
X10970513Y7926070D01*
X10975593Y7920736D01*
X10980927Y7910321D01*
X10980927Y7899908D01*
X10975593Y7889494D01*
X10965434Y7874000D01*
X10913363Y7822184D01*
X10986008Y7822184D01*
X11020297Y7931150D02*
G01*
X11020297Y7822184D01*
X11072368Y7894828D02*
G01*
X11020297Y7842758D01*
X11041125Y7863586D02*
G01*
X11077447Y7822184D01*
X9588500Y6622287D02*
G01*
X9598913Y6627621D01*
X9614408Y6643115D01*
X9614408Y6534150D01*
X9679940Y6643115D02*
G01*
X9664445Y6638036D01*
X9654031Y6622287D01*
X9648697Y6596379D01*
X9648697Y6580886D01*
X9654031Y6554723D01*
X9664445Y6539229D01*
X9679940Y6534150D01*
X9690354Y6534150D01*
X9705847Y6539229D01*
X9716261Y6554723D01*
X9721595Y6580886D01*
X9721595Y6596379D01*
X9716261Y6622287D01*
X9705847Y6638036D01*
X9690354Y6643115D01*
X9679940Y6643115D01*
X9786874Y6643115D02*
G01*
X9771379Y6638036D01*
X9760965Y6622287D01*
X9755886Y6596379D01*
X9755886Y6580886D01*
X9760965Y6554723D01*
X9771379Y6539229D01*
X9786874Y6534150D01*
X9797288Y6534150D01*
X9813036Y6539229D01*
X9823450Y6554723D01*
X9828529Y6580886D01*
X9828529Y6596379D01*
X9823450Y6622287D01*
X9813036Y6638036D01*
X9797288Y6643115D01*
X9786874Y6643115D01*
X9862820Y6606794D02*
G01*
X9862820Y6554723D01*
X9867900Y6539229D01*
X9878313Y6534150D01*
X9894061Y6534150D01*
X9904475Y6539229D01*
X9919970Y6554723D01*
X9919970Y6606794D02*
G01*
X9919970Y6534150D01*
X9954259Y6643115D02*
G01*
X9954259Y6534150D01*
X9954259Y6643115D02*
G01*
X10021824Y6643115D01*
X9954259Y6591300D02*
G01*
X9995915Y6591300D01*
X9906000Y8311387D02*
G01*
X9916413Y8316721D01*
X9931908Y8332215D01*
X9931908Y8223250D01*
X9997440Y8332215D02*
G01*
X9981945Y8327136D01*
X9971531Y8311387D01*
X9966197Y8285479D01*
X9966197Y8269986D01*
X9971531Y8243823D01*
X9981945Y8228329D01*
X9997440Y8223250D01*
X10007854Y8223250D01*
X10023347Y8228329D01*
X10033761Y8243823D01*
X10039095Y8269986D01*
X10039095Y8285479D01*
X10033761Y8311387D01*
X10023347Y8327136D01*
X10007854Y8332215D01*
X9997440Y8332215D01*
X10104374Y8332215D02*
G01*
X10088879Y8327136D01*
X10078465Y8311387D01*
X10073386Y8285479D01*
X10073386Y8269986D01*
X10078465Y8243823D01*
X10088879Y8228329D01*
X10104374Y8223250D01*
X10114788Y8223250D01*
X10130536Y8228329D01*
X10140950Y8243823D01*
X10146029Y8269986D01*
X10146029Y8285479D01*
X10140950Y8311387D01*
X10130536Y8327136D01*
X10114788Y8332215D01*
X10104374Y8332215D01*
X10180320Y8295894D02*
G01*
X10180320Y8243823D01*
X10185400Y8228329D01*
X10195813Y8223250D01*
X10211561Y8223250D01*
X10221975Y8228329D01*
X10237470Y8243823D01*
X10237470Y8295894D02*
G01*
X10237470Y8223250D01*
X10271759Y8332215D02*
G01*
X10271759Y8223250D01*
X10271759Y8332215D02*
G01*
X10339324Y8332215D01*
X10271759Y8280400D02*
G01*
X10313415Y8280400D01*
X6659879Y12484608D02*
G01*
X6659879Y12489687D01*
X6665213Y12500102D01*
X6670293Y12505436D01*
X6680708Y12510515D01*
X6701536Y12510515D01*
X6711950Y12505436D01*
X6717029Y12500102D01*
X6722363Y12489687D01*
X6722363Y12479274D01*
X6717029Y12468860D01*
X6706870Y12453365D01*
X6654800Y12401550D01*
X6727443Y12401550D01*
X6767068Y12484608D02*
G01*
X6767068Y12489687D01*
X6772147Y12500102D01*
X6777481Y12505436D01*
X6787895Y12510515D01*
X6808470Y12510515D01*
X6818884Y12505436D01*
X6824218Y12500102D01*
X6829297Y12489687D01*
X6829297Y12479274D01*
X6824218Y12468860D01*
X6813804Y12453365D01*
X6761734Y12401550D01*
X6834631Y12401550D01*
X6899909Y12510515D02*
G01*
X6884415Y12505436D01*
X6874002Y12489687D01*
X6868922Y12463779D01*
X6868922Y12448286D01*
X6874002Y12422124D01*
X6884415Y12406629D01*
X6899909Y12401550D01*
X6910324Y12401550D01*
X6926072Y12406629D01*
X6936486Y12422124D01*
X6941565Y12448286D01*
X6941565Y12463779D01*
X6936486Y12489687D01*
X6926072Y12505436D01*
X6910324Y12510515D01*
X6899909Y12510515D01*
X6975856Y12474194D02*
G01*
X6975856Y12401550D01*
X6975856Y12453365D02*
G01*
X6991350Y12468860D01*
X7001763Y12474194D01*
X7017511Y12474194D01*
X7027925Y12468860D01*
X7033006Y12453365D01*
X7033006Y12401550D01*
X7033006Y12453365D02*
G01*
X7048500Y12468860D01*
X7058913Y12474194D01*
X7074661Y12474194D01*
X7085075Y12468860D01*
X7090156Y12453365D01*
X7090156Y12401550D01*
X7166102Y12510515D02*
G01*
X7155688Y12510515D01*
X7145274Y12505436D01*
X7139940Y12489687D01*
X7139940Y12401550D01*
X7124445Y12474194D02*
G01*
X7160768Y12474194D01*
X7293863Y12531344D02*
G01*
X7200391Y12364974D01*
X7328154Y12489687D02*
G01*
X7338568Y12495021D01*
X7354061Y12510515D01*
X7354061Y12401550D01*
X7450836Y12495021D02*
G01*
X7445502Y12505436D01*
X7430008Y12510515D01*
X7419593Y12510515D01*
X7404100Y12505436D01*
X7393686Y12489687D01*
X7388352Y12463779D01*
X7388352Y12437871D01*
X7393686Y12417044D01*
X7404100Y12406629D01*
X7419593Y12401550D01*
X7424674Y12401550D01*
X7440422Y12406629D01*
X7450836Y12417044D01*
X7455915Y12432537D01*
X7455915Y12437871D01*
X7450836Y12453365D01*
X7440422Y12463779D01*
X7424674Y12468860D01*
X7419593Y12468860D01*
X7404100Y12463779D01*
X7393686Y12453365D01*
X7388352Y12437871D01*
X7490206Y12474194D02*
G01*
X7521447Y12401550D01*
X7552690Y12474194D02*
G01*
X7521447Y12401550D01*
X2367279Y11354308D02*
G01*
X2367279Y11359387D01*
X2372613Y11369802D01*
X2377693Y11375136D01*
X2388108Y11380215D01*
X2408936Y11380215D01*
X2419350Y11375136D01*
X2424429Y11369802D01*
X2429763Y11359387D01*
X2429763Y11348974D01*
X2424429Y11338560D01*
X2414270Y11323065D01*
X2362200Y11271250D01*
X2434843Y11271250D01*
X2474468Y11354308D02*
G01*
X2474468Y11359387D01*
X2479547Y11369802D01*
X2484881Y11375136D01*
X2495295Y11380215D01*
X2515870Y11380215D01*
X2526284Y11375136D01*
X2531618Y11369802D01*
X2536697Y11359387D01*
X2536697Y11348974D01*
X2531618Y11338560D01*
X2521204Y11323065D01*
X2469134Y11271250D01*
X2542031Y11271250D01*
X2607309Y11380215D02*
G01*
X2591815Y11375136D01*
X2581402Y11359387D01*
X2576322Y11333479D01*
X2576322Y11317986D01*
X2581402Y11291824D01*
X2591815Y11276329D01*
X2607309Y11271250D01*
X2617724Y11271250D01*
X2633472Y11276329D01*
X2643886Y11291824D01*
X2648965Y11317986D01*
X2648965Y11333479D01*
X2643886Y11359387D01*
X2633472Y11375136D01*
X2617724Y11380215D01*
X2607309Y11380215D01*
X2683256Y11343894D02*
G01*
X2683256Y11271250D01*
X2683256Y11323065D02*
G01*
X2698750Y11338560D01*
X2709163Y11343894D01*
X2724911Y11343894D01*
X2735325Y11338560D01*
X2740406Y11323065D01*
X2740406Y11271250D01*
X2740406Y11323065D02*
G01*
X2755900Y11338560D01*
X2766313Y11343894D01*
X2782061Y11343894D01*
X2792475Y11338560D01*
X2797556Y11323065D01*
X2797556Y11271250D01*
X2873502Y11380215D02*
G01*
X2863088Y11380215D01*
X2852674Y11375136D01*
X2847340Y11359387D01*
X2847340Y11271250D01*
X2831845Y11343894D02*
G01*
X2868168Y11343894D01*
X3001263Y11401044D02*
G01*
X2907791Y11234674D01*
X3035554Y11359387D02*
G01*
X3045968Y11364721D01*
X3061461Y11380215D01*
X3061461Y11271250D01*
X3158236Y11364721D02*
G01*
X3152902Y11375136D01*
X3137408Y11380215D01*
X3126993Y11380215D01*
X3111500Y11375136D01*
X3101086Y11359387D01*
X3095752Y11333479D01*
X3095752Y11307571D01*
X3101086Y11286744D01*
X3111500Y11276329D01*
X3126993Y11271250D01*
X3132074Y11271250D01*
X3147822Y11276329D01*
X3158236Y11286744D01*
X3163315Y11302237D01*
X3163315Y11307571D01*
X3158236Y11323065D01*
X3147822Y11333479D01*
X3132074Y11338560D01*
X3126993Y11338560D01*
X3111500Y11333479D01*
X3101086Y11323065D01*
X3095752Y11307571D01*
X3197606Y11343894D02*
G01*
X3228847Y11271250D01*
X3260090Y11343894D02*
G01*
X3228847Y11271250D01*
X2715895Y11668125D02*
G01*
X2710561Y11678538D01*
X2700147Y11688953D01*
X2689986Y11694033D01*
X2669159Y11694033D01*
X2658745Y11688953D01*
X2648331Y11678538D01*
X2642997Y11668125D01*
X2637916Y11652377D01*
X2637916Y11626469D01*
X2642997Y11610975D01*
X2648331Y11600561D01*
X2658745Y11590146D01*
X2669159Y11585067D01*
X2689986Y11585067D01*
X2700147Y11590146D01*
X2710561Y11600561D01*
X2715895Y11610975D01*
X2812415Y11694033D02*
G01*
X2760599Y11694033D01*
X2755265Y11647296D01*
X2760599Y11652377D01*
X2776093Y11657711D01*
X2791586Y11657711D01*
X2807334Y11652377D01*
X2817749Y11642217D01*
X2822829Y11626469D01*
X2822829Y11616054D01*
X2817749Y11600561D01*
X2807334Y11590146D01*
X2791586Y11585067D01*
X2776093Y11585067D01*
X2760599Y11590146D01*
X2755265Y11595227D01*
X2750184Y11605640D01*
X2862452Y11668125D02*
G01*
X2862452Y11673204D01*
X2867533Y11683619D01*
X2872866Y11688953D01*
X2883027Y11694033D01*
X2903854Y11694033D01*
X2914268Y11688953D01*
X2919602Y11683619D01*
X2924683Y11673204D01*
X2924683Y11662790D01*
X2919602Y11652377D01*
X2909188Y11636883D01*
X2857118Y11585067D01*
X2930016Y11585067D01*
X10863579Y7442708D02*
G01*
X10863579Y7447787D01*
X10868913Y7458202D01*
X10873993Y7463536D01*
X10884408Y7468615D01*
X10905236Y7468615D01*
X10915650Y7463536D01*
X10920729Y7458202D01*
X10926063Y7447787D01*
X10926063Y7437373D01*
X10920729Y7426960D01*
X10910570Y7411465D01*
X10858500Y7359650D01*
X10931143Y7359650D01*
X10970768Y7385558D02*
G01*
X10965434Y7380223D01*
X10970768Y7375144D01*
X10975847Y7380223D01*
X10970768Y7385558D01*
X11015472Y7442708D02*
G01*
X11015472Y7447787D01*
X11020552Y7458202D01*
X11025886Y7463536D01*
X11036300Y7468615D01*
X11056874Y7468615D01*
X11067288Y7463536D01*
X11072622Y7458202D01*
X11077702Y7447787D01*
X11077702Y7437373D01*
X11072622Y7426960D01*
X11062208Y7411465D01*
X11010138Y7359650D01*
X11083036Y7359650D01*
X11117325Y7468615D02*
G01*
X11117325Y7359650D01*
X11169141Y7432294D02*
G01*
X11117325Y7380223D01*
X11137900Y7401052D02*
G01*
X11174475Y7359650D01*
X5085079Y3569207D02*
G01*
X5085079Y3574287D01*
X5090413Y3584702D01*
X5095493Y3590036D01*
X5105908Y3595115D01*
X5126736Y3595115D01*
X5137150Y3590036D01*
X5142229Y3584702D01*
X5147563Y3574287D01*
X5147563Y3563873D01*
X5142229Y3553460D01*
X5132070Y3537965D01*
X5080000Y3486150D01*
X5152643Y3486150D01*
X5192268Y3569207D02*
G01*
X5192268Y3574287D01*
X5197347Y3584702D01*
X5202681Y3590036D01*
X5213095Y3595115D01*
X5233670Y3595115D01*
X5244084Y3590036D01*
X5249418Y3584702D01*
X5254497Y3574287D01*
X5254497Y3563873D01*
X5249418Y3553460D01*
X5239004Y3537965D01*
X5186934Y3486150D01*
X5259831Y3486150D01*
X5325109Y3595115D02*
G01*
X5309615Y3590036D01*
X5299202Y3574287D01*
X5294122Y3548379D01*
X5294122Y3532886D01*
X5299202Y3506723D01*
X5309615Y3491229D01*
X5325109Y3486150D01*
X5335524Y3486150D01*
X5351272Y3491229D01*
X5361686Y3506723D01*
X5366765Y3532886D01*
X5366765Y3548379D01*
X5361686Y3574287D01*
X5351272Y3590036D01*
X5335524Y3595115D01*
X5325109Y3595115D01*
X5401056Y3558794D02*
G01*
X5401056Y3486150D01*
X5401056Y3537965D02*
G01*
X5416550Y3553460D01*
X5426963Y3558794D01*
X5442711Y3558794D01*
X5453125Y3553460D01*
X5458206Y3537965D01*
X5458206Y3486150D01*
X5458206Y3537965D02*
G01*
X5473700Y3553460D01*
X5484113Y3558794D01*
X5499861Y3558794D01*
X5510275Y3553460D01*
X5515356Y3537965D01*
X5515356Y3486150D01*
X5591302Y3595115D02*
G01*
X5580888Y3595115D01*
X5570474Y3590036D01*
X5565140Y3574287D01*
X5565140Y3486150D01*
X5549645Y3558794D02*
G01*
X5585968Y3558794D01*
X5719063Y3615944D02*
G01*
X5625591Y3449573D01*
X5753354Y3574287D02*
G01*
X5763768Y3579621D01*
X5779261Y3595115D01*
X5779261Y3486150D01*
X5876036Y3579621D02*
G01*
X5870702Y3590036D01*
X5855208Y3595115D01*
X5844793Y3595115D01*
X5829300Y3590036D01*
X5818886Y3574287D01*
X5813552Y3548379D01*
X5813552Y3522471D01*
X5818886Y3501644D01*
X5829300Y3491229D01*
X5844793Y3486150D01*
X5849874Y3486150D01*
X5865622Y3491229D01*
X5876036Y3501644D01*
X5881115Y3517137D01*
X5881115Y3522471D01*
X5876036Y3537965D01*
X5865622Y3548379D01*
X5849874Y3553460D01*
X5844793Y3553460D01*
X5829300Y3548379D01*
X5818886Y3537965D01*
X5813552Y3522471D01*
X5915406Y3558794D02*
G01*
X5946647Y3486150D01*
X5977890Y3558794D02*
G01*
X5946647Y3486150D01*
X8577579Y1803907D02*
G01*
X8577579Y1808987D01*
X8582913Y1819402D01*
X8587993Y1824736D01*
X8598408Y1829815D01*
X8619236Y1829815D01*
X8629650Y1824736D01*
X8634729Y1819402D01*
X8640063Y1808987D01*
X8640063Y1798573D01*
X8634729Y1788160D01*
X8624570Y1772665D01*
X8572500Y1720850D01*
X8645143Y1720850D01*
X8684768Y1803907D02*
G01*
X8684768Y1808987D01*
X8689847Y1819402D01*
X8695181Y1824736D01*
X8705595Y1829815D01*
X8726170Y1829815D01*
X8736584Y1824736D01*
X8741918Y1819402D01*
X8746997Y1808987D01*
X8746997Y1798573D01*
X8741918Y1788160D01*
X8731504Y1772665D01*
X8679434Y1720850D01*
X8752331Y1720850D01*
X8817609Y1829815D02*
G01*
X8802115Y1824736D01*
X8791702Y1808987D01*
X8786622Y1783079D01*
X8786622Y1767586D01*
X8791702Y1741423D01*
X8802115Y1725929D01*
X8817609Y1720850D01*
X8828024Y1720850D01*
X8843772Y1725929D01*
X8854186Y1741423D01*
X8859265Y1767586D01*
X8859265Y1783079D01*
X8854186Y1808987D01*
X8843772Y1824736D01*
X8828024Y1829815D01*
X8817609Y1829815D01*
X8893556Y1793494D02*
G01*
X8893556Y1720850D01*
X8893556Y1772665D02*
G01*
X8909050Y1788160D01*
X8919463Y1793494D01*
X8935211Y1793494D01*
X8945625Y1788160D01*
X8950706Y1772665D01*
X8950706Y1720850D01*
X8950706Y1772665D02*
G01*
X8966200Y1788160D01*
X8976613Y1793494D01*
X8992361Y1793494D01*
X9002775Y1788160D01*
X9007856Y1772665D01*
X9007856Y1720850D01*
X9083802Y1829815D02*
G01*
X9073388Y1829815D01*
X9062974Y1824736D01*
X9057640Y1808987D01*
X9057640Y1720850D01*
X9042145Y1793494D02*
G01*
X9078468Y1793494D01*
X9211563Y1850644D02*
G01*
X9118091Y1684273D01*
X9245854Y1808987D02*
G01*
X9256268Y1814321D01*
X9271761Y1829815D01*
X9271761Y1720850D01*
X9368536Y1814321D02*
G01*
X9363202Y1824736D01*
X9347708Y1829815D01*
X9337293Y1829815D01*
X9321800Y1824736D01*
X9311386Y1808987D01*
X9306052Y1783079D01*
X9306052Y1757171D01*
X9311386Y1736344D01*
X9321800Y1725929D01*
X9337293Y1720850D01*
X9342374Y1720850D01*
X9358122Y1725929D01*
X9368536Y1736344D01*
X9373615Y1751837D01*
X9373615Y1757171D01*
X9368536Y1772665D01*
X9358122Y1783079D01*
X9342374Y1788160D01*
X9337293Y1788160D01*
X9321800Y1783079D01*
X9311386Y1772665D01*
X9306052Y1757171D01*
X9407906Y1829815D02*
G01*
X9449561Y1720850D01*
X9490963Y1829815D02*
G01*
X9449561Y1720850D01*
X3262884Y2604770D02*
G01*
X3335527Y2552700D01*
X3335527Y2630678D01*
X3262884Y2604770D02*
G01*
X3371850Y2604770D01*
X3262884Y2737612D02*
G01*
X3371850Y2685795D01*
X3262884Y2664968D02*
G01*
X3262884Y2737612D01*
X3262884Y2803144D02*
G01*
X3267963Y2787650D01*
X3283711Y2777236D01*
X3309620Y2771902D01*
X3325113Y2771902D01*
X3351275Y2777236D01*
X3366770Y2787650D01*
X3371850Y2803144D01*
X3371850Y2813557D01*
X3366770Y2829052D01*
X3351275Y2839465D01*
X3325113Y2844800D01*
X3309620Y2844800D01*
X3283711Y2839465D01*
X3267963Y2829052D01*
X3262884Y2813557D01*
X3262884Y2803144D01*
X3299206Y2879089D02*
G01*
X3371850Y2879089D01*
X3320034Y2879089D02*
G01*
X3304540Y2894584D01*
X3299206Y2904997D01*
X3299206Y2920492D01*
X3304540Y2930905D01*
X3320034Y2936239D01*
X3371850Y2936239D01*
X3262884Y2970529D02*
G01*
X3371850Y2970529D01*
X3262884Y2970529D02*
G01*
X3262884Y3037839D01*
X3314700Y2970529D02*
G01*
X3314700Y3011931D01*
X8827767Y6020815D02*
G01*
X8775697Y5948171D01*
X8853675Y5948171D01*
X8827767Y6020815D02*
G01*
X8827767Y5911850D01*
X8960609Y6020815D02*
G01*
X8908793Y5911850D01*
X8887965Y6020815D02*
G01*
X8960609Y6020815D01*
X9026141Y6020815D02*
G01*
X9010647Y6015736D01*
X9000233Y5999987D01*
X8994899Y5974079D01*
X8994899Y5958586D01*
X9000233Y5932423D01*
X9010647Y5916929D01*
X9026141Y5911850D01*
X9036555Y5911850D01*
X9052049Y5916929D01*
X9062463Y5932423D01*
X9067797Y5958586D01*
X9067797Y5974079D01*
X9062463Y5999987D01*
X9052049Y6015736D01*
X9036555Y6020815D01*
X9026141Y6020815D01*
X9102087Y5984494D02*
G01*
X9102087Y5911850D01*
X9102087Y5963665D02*
G01*
X9117581Y5979160D01*
X9127995Y5984494D01*
X9143489Y5984494D01*
X9153903Y5979160D01*
X9159237Y5963665D01*
X9159237Y5911850D01*
X9193527Y6020815D02*
G01*
X9193527Y5911850D01*
X9193527Y6020815D02*
G01*
X9260837Y6020815D01*
X9193527Y5969000D02*
G01*
X9234929Y5969000D01*
X5563870Y6376415D02*
G01*
X5511800Y6303771D01*
X5589777Y6303771D01*
X5563870Y6376415D02*
G01*
X5563870Y6267450D01*
X5696711Y6376415D02*
G01*
X5644895Y6267450D01*
X5624068Y6376415D02*
G01*
X5696711Y6376415D01*
X5762243Y6376415D02*
G01*
X5746750Y6371336D01*
X5736336Y6355587D01*
X5731002Y6329679D01*
X5731002Y6314186D01*
X5736336Y6288023D01*
X5746750Y6272529D01*
X5762243Y6267450D01*
X5772658Y6267450D01*
X5788152Y6272529D01*
X5798565Y6288023D01*
X5803900Y6314186D01*
X5803900Y6329679D01*
X5798565Y6355587D01*
X5788152Y6371336D01*
X5772658Y6376415D01*
X5762243Y6376415D01*
X5838190Y6340094D02*
G01*
X5838190Y6267450D01*
X5838190Y6319265D02*
G01*
X5853684Y6334760D01*
X5864097Y6340094D01*
X5879591Y6340094D01*
X5890006Y6334760D01*
X5895340Y6319265D01*
X5895340Y6267450D01*
X5929629Y6376415D02*
G01*
X5929629Y6267450D01*
X5929629Y6376415D02*
G01*
X5996940Y6376415D01*
X5929629Y6324600D02*
G01*
X5971031Y6324600D01*
X8698484Y2820670D02*
G01*
X8771127Y2768600D01*
X8771127Y2846578D01*
X8698484Y2820670D02*
G01*
X8807450Y2820670D01*
X8698484Y2953512D02*
G01*
X8807450Y2901695D01*
X8698484Y2880868D02*
G01*
X8698484Y2953512D01*
X8698484Y3019044D02*
G01*
X8703563Y3003550D01*
X8719311Y2993136D01*
X8745220Y2987802D01*
X8760713Y2987802D01*
X8786875Y2993136D01*
X8802370Y3003550D01*
X8807450Y3019044D01*
X8807450Y3029457D01*
X8802370Y3044952D01*
X8786875Y3055365D01*
X8760713Y3060700D01*
X8745220Y3060700D01*
X8719311Y3055365D01*
X8703563Y3044952D01*
X8698484Y3029457D01*
X8698484Y3019044D01*
X8734806Y3094989D02*
G01*
X8807450Y3094989D01*
X8755634Y3094989D02*
G01*
X8740140Y3110484D01*
X8734806Y3120897D01*
X8734806Y3136392D01*
X8740140Y3146805D01*
X8755634Y3152139D01*
X8807450Y3152139D01*
X8698484Y3186429D02*
G01*
X8807450Y3186429D01*
X8698484Y3186429D02*
G01*
X8698484Y3253739D01*
X8750300Y3186429D02*
G01*
X8750300Y3227831D01*
X11517884Y4433567D02*
G01*
X11590527Y4381497D01*
X11590527Y4459475D01*
X11517884Y4433567D02*
G01*
X11626850Y4433567D01*
X11517884Y4566409D02*
G01*
X11626850Y4514593D01*
X11517884Y4493765D02*
G01*
X11517884Y4566409D01*
X11517884Y4631941D02*
G01*
X11522963Y4616447D01*
X11538711Y4606033D01*
X11564620Y4600699D01*
X11580113Y4600699D01*
X11606275Y4606033D01*
X11621770Y4616447D01*
X11626850Y4631941D01*
X11626850Y4642355D01*
X11621770Y4657849D01*
X11606275Y4668263D01*
X11580113Y4673597D01*
X11564620Y4673597D01*
X11538711Y4668263D01*
X11522963Y4657849D01*
X11517884Y4642355D01*
X11517884Y4631941D01*
X11554206Y4707887D02*
G01*
X11626850Y4707887D01*
X11575034Y4707887D02*
G01*
X11559540Y4723381D01*
X11554206Y4733795D01*
X11554206Y4749289D01*
X11559540Y4759703D01*
X11575034Y4765037D01*
X11626850Y4765037D01*
X11517884Y4799327D02*
G01*
X11626850Y4799327D01*
X11517884Y4799327D02*
G01*
X11517884Y4866637D01*
X11569700Y4799327D02*
G01*
X11569700Y4840729D01*
X4979667Y2858515D02*
G01*
X4927597Y2785871D01*
X5005575Y2785871D01*
X4979667Y2858515D02*
G01*
X4979667Y2749550D01*
X5112509Y2858515D02*
G01*
X5060693Y2749550D01*
X5039865Y2858515D02*
G01*
X5112509Y2858515D01*
X5178041Y2858515D02*
G01*
X5162547Y2853436D01*
X5152133Y2837687D01*
X5146799Y2811779D01*
X5146799Y2796286D01*
X5152133Y2770123D01*
X5162547Y2754629D01*
X5178041Y2749550D01*
X5188455Y2749550D01*
X5203949Y2754629D01*
X5214363Y2770123D01*
X5219697Y2796286D01*
X5219697Y2811779D01*
X5214363Y2837687D01*
X5203949Y2853436D01*
X5188455Y2858515D01*
X5178041Y2858515D01*
X5253987Y2822194D02*
G01*
X5253987Y2749550D01*
X5253987Y2801365D02*
G01*
X5269481Y2816860D01*
X5279895Y2822194D01*
X5295389Y2822194D01*
X5305803Y2816860D01*
X5311137Y2801365D01*
X5311137Y2749550D01*
X5345427Y2858515D02*
G01*
X5345427Y2749550D01*
X5345427Y2858515D02*
G01*
X5412737Y2858515D01*
X5345427Y2806700D02*
G01*
X5386829Y2806700D01*
X9645141Y1982221D02*
G01*
X9629393Y1977141D01*
X9618979Y1961393D01*
X9613900Y1935485D01*
X9613900Y1919991D01*
X9618979Y1893829D01*
X9629393Y1878335D01*
X9645141Y1873255D01*
X9655556Y1873255D01*
X9671050Y1878335D01*
X9681463Y1893829D01*
X9686543Y1919991D01*
X9686543Y1935485D01*
X9681463Y1961393D01*
X9671050Y1977141D01*
X9655556Y1982221D01*
X9645141Y1982221D01*
X9726168Y1899163D02*
G01*
X9720834Y1893829D01*
X9726168Y1888749D01*
X9731247Y1893829D01*
X9726168Y1899163D01*
X9817608Y1982221D02*
G01*
X9765538Y1909577D01*
X9843515Y1909577D01*
X9817608Y1982221D02*
G01*
X9817608Y1873255D01*
X9950450Y1982221D02*
G01*
X9898634Y1873255D01*
X9877806Y1982221D02*
G01*
X9950450Y1982221D01*
X9984740Y1945899D02*
G01*
X9984740Y1893829D01*
X9990074Y1878335D01*
X10000488Y1873255D01*
X10015981Y1873255D01*
X10026395Y1878335D01*
X10041890Y1893829D01*
X10041890Y1945899D02*
G01*
X10041890Y1873255D01*
X10076179Y1982221D02*
G01*
X10076179Y1873255D01*
X10076179Y1982221D02*
G01*
X10143743Y1982221D01*
X10076179Y1930405D02*
G01*
X10117836Y1930405D01*
X10271759Y2003049D02*
G01*
X10178034Y1836679D01*
X10306050Y1961393D02*
G01*
X10316209Y1966727D01*
X10331958Y1982221D01*
X10331958Y1873255D01*
X10428477Y1966727D02*
G01*
X10423397Y1977141D01*
X10407650Y1982221D01*
X10397490Y1982221D01*
X10381741Y1977141D01*
X10371327Y1961393D01*
X10366247Y1935485D01*
X10366247Y1909577D01*
X10371327Y1888749D01*
X10381741Y1878335D01*
X10397490Y1873255D01*
X10402570Y1873255D01*
X10418063Y1878335D01*
X10428477Y1888749D01*
X10433811Y1904243D01*
X10433811Y1909577D01*
X10428477Y1925071D01*
X10418063Y1935485D01*
X10402570Y1940565D01*
X10397490Y1940565D01*
X10381741Y1935485D01*
X10371327Y1925071D01*
X10366247Y1909577D01*
X10468102Y1982221D02*
G01*
X10509504Y1873255D01*
X10551159Y1982221D02*
G01*
X10509504Y1873255D01*
X7618986Y4392909D02*
G01*
X7618986Y4341093D01*
X7665722Y4335759D01*
X7660642Y4341093D01*
X7655308Y4356587D01*
X7655308Y4372335D01*
X7660642Y4387829D01*
X7670802Y4398243D01*
X7686550Y4403323D01*
X7696964Y4403323D01*
X7712458Y4398243D01*
X7722872Y4387829D01*
X7727952Y4372335D01*
X7727952Y4356587D01*
X7722872Y4341093D01*
X7717792Y4335759D01*
X7707378Y4330679D01*
X7634480Y4500097D02*
G01*
X7624066Y4494763D01*
X7618986Y4479269D01*
X7618986Y4468855D01*
X7624066Y4453361D01*
X7639814Y4442947D01*
X7665722Y4437613D01*
X7691630Y4437613D01*
X7712458Y4442947D01*
X7722872Y4453361D01*
X7727952Y4468855D01*
X7727952Y4474189D01*
X7722872Y4489683D01*
X7712458Y4500097D01*
X7696964Y4505177D01*
X7691630Y4505177D01*
X7676136Y4500097D01*
X7665722Y4489683D01*
X7660642Y4474189D01*
X7660642Y4468855D01*
X7665722Y4453361D01*
X7676136Y4442947D01*
X7691630Y4437613D01*
X7655308Y4539467D02*
G01*
X7764528Y4539467D01*
X7670802Y4539467D02*
G01*
X7660642Y4549881D01*
X7655308Y4560295D01*
X7655308Y4575789D01*
X7660642Y4586203D01*
X7670802Y4596617D01*
X7686550Y4601951D01*
X7696964Y4601951D01*
X7712458Y4596617D01*
X7722872Y4586203D01*
X7727952Y4575789D01*
X7727952Y4560295D01*
X7722872Y4549881D01*
X7712458Y4539467D01*
X7618986Y4636241D02*
G01*
X7727952Y4636241D01*
X7618986Y4636241D02*
G01*
X7618986Y4703805D01*
X7670802Y4636241D02*
G01*
X7670802Y4677643D01*
X6172194Y3480815D02*
G01*
X6244838Y3371850D01*
X6244838Y3480815D02*
G01*
X6172194Y3371850D01*
X6315704Y3480815D02*
G01*
X6315704Y3371850D01*
X6279128Y3480815D02*
G01*
X6352026Y3480815D01*
X6427718Y3480815D02*
G01*
X6386316Y3371850D01*
X6427718Y3480815D02*
G01*
X6469374Y3371850D01*
X6401810Y3408171D02*
G01*
X6453880Y3408171D01*
X6503664Y3480815D02*
G01*
X6503664Y3371850D01*
X6503664Y3371850D02*
G01*
X6565894Y3371850D01*
X6685528Y3454907D02*
G01*
X6685528Y3459987D01*
X6690608Y3470402D01*
X6695942Y3475736D01*
X6706356Y3480815D01*
X6727184Y3480815D01*
X6737344Y3475736D01*
X6742678Y3470402D01*
X6747758Y3459987D01*
X6747758Y3449573D01*
X6742678Y3439160D01*
X6732264Y3423665D01*
X6680194Y3371850D01*
X6753092Y3371850D01*
X6849612Y3465321D02*
G01*
X6844532Y3475736D01*
X6828784Y3480815D01*
X6818624Y3480815D01*
X6802876Y3475736D01*
X6792462Y3459987D01*
X6787382Y3434079D01*
X6787382Y3408171D01*
X6792462Y3387344D01*
X6802876Y3376929D01*
X6818624Y3371850D01*
X6823704Y3371850D01*
X6839198Y3376929D01*
X6849612Y3387344D01*
X6854946Y3402837D01*
X6854946Y3408171D01*
X6849612Y3423665D01*
X6839198Y3434079D01*
X6823704Y3439160D01*
X6818624Y3439160D01*
X6802876Y3434079D01*
X6792462Y3423665D01*
X6787382Y3408171D01*
X6894316Y3397757D02*
G01*
X6889236Y3392423D01*
X6894316Y3387344D01*
X6899650Y3392423D01*
X6894316Y3397757D01*
X6996170Y3465321D02*
G01*
X6991090Y3475736D01*
X6975342Y3480815D01*
X6964928Y3480815D01*
X6949434Y3475736D01*
X6939020Y3459987D01*
X6933940Y3434079D01*
X6933940Y3408171D01*
X6939020Y3387344D01*
X6949434Y3376929D01*
X6964928Y3371850D01*
X6970262Y3371850D01*
X6985756Y3376929D01*
X6996170Y3387344D01*
X7001504Y3402837D01*
X7001504Y3408171D01*
X6996170Y3423665D01*
X6985756Y3434079D01*
X6970262Y3439160D01*
X6964928Y3439160D01*
X6949434Y3434079D01*
X6939020Y3423665D01*
X6933940Y3408171D01*
X7066782Y3480815D02*
G01*
X7051288Y3475736D01*
X7040874Y3459987D01*
X7035794Y3434079D01*
X7035794Y3418586D01*
X7040874Y3392423D01*
X7051288Y3376929D01*
X7066782Y3371850D01*
X7077196Y3371850D01*
X7092944Y3376929D01*
X7103104Y3392423D01*
X7108438Y3418586D01*
X7108438Y3434079D01*
X7103104Y3459987D01*
X7092944Y3475736D01*
X7077196Y3480815D01*
X7066782Y3480815D01*
X7142728Y3459987D02*
G01*
X7153142Y3465321D01*
X7168636Y3480815D01*
X7168636Y3371850D01*
X7275824Y3480815D02*
G01*
X7223754Y3371850D01*
X7202926Y3480815D02*
G01*
X7275824Y3480815D01*
X7310114Y3459987D02*
G01*
X7320274Y3465321D01*
X7336022Y3480815D01*
X7336022Y3371850D01*
X7375392Y3454907D02*
G01*
X7375392Y3459987D01*
X7380726Y3470402D01*
X7385806Y3475736D01*
X7396220Y3480815D01*
X7417048Y3480815D01*
X7427462Y3475736D01*
X7432542Y3470402D01*
X7437876Y3459987D01*
X7437876Y3449573D01*
X7432542Y3439160D01*
X7422128Y3423665D01*
X7370312Y3371850D01*
X7442956Y3371850D01*
X7477246Y3480815D02*
G01*
X7477246Y3371850D01*
X7477246Y3480815D02*
G01*
X7518902Y3371850D01*
X7560304Y3480815D02*
G01*
X7518902Y3371850D01*
X7560304Y3480815D02*
G01*
X7560304Y3371850D01*
X7594594Y3480815D02*
G01*
X7594594Y3371850D01*
X7667492Y3480815D02*
G01*
X7667492Y3371850D01*
X7594594Y3429000D02*
G01*
X7667492Y3429000D01*
X7758932Y3444494D02*
G01*
X7701782Y3371850D01*
X7701782Y3444494D02*
G01*
X7758932Y3444494D01*
X7701782Y3371850D02*
G01*
X7758932Y3371850D01*
X8101584Y2804413D02*
G01*
X8101584Y2861563D01*
X8143240Y2830321D01*
X8143240Y2846070D01*
X8148320Y2856229D01*
X8153400Y2861563D01*
X8169147Y2866644D01*
X8179561Y2866644D01*
X8195056Y2861563D01*
X8205470Y2851150D01*
X8210550Y2835655D01*
X8210550Y2819907D01*
X8205470Y2804413D01*
X8200390Y2799079D01*
X8189975Y2794000D01*
X8101584Y2911347D02*
G01*
X8101584Y2968497D01*
X8143240Y2937510D01*
X8143240Y2953004D01*
X8148320Y2963418D01*
X8153400Y2968497D01*
X8169147Y2973831D01*
X8179561Y2973831D01*
X8195056Y2968497D01*
X8205470Y2958084D01*
X8210550Y2942589D01*
X8210550Y2927095D01*
X8205470Y2911347D01*
X8200390Y2906268D01*
X8189975Y2900934D01*
X8137906Y3008121D02*
G01*
X8247125Y3008121D01*
X8153400Y3008121D02*
G01*
X8143240Y3018536D01*
X8137906Y3028950D01*
X8137906Y3044444D01*
X8143240Y3054857D01*
X8153400Y3065271D01*
X8169147Y3070352D01*
X8179561Y3070352D01*
X8195056Y3065271D01*
X8205470Y3054857D01*
X8210550Y3044444D01*
X8210550Y3028950D01*
X8205470Y3018536D01*
X8195056Y3008121D01*
X8101584Y3104642D02*
G01*
X8210550Y3104642D01*
X8101584Y3104642D02*
G01*
X8101584Y3172205D01*
X8153400Y3104642D02*
G01*
X8153400Y3146297D01*
X6348984Y2779013D02*
G01*
X6348984Y2836163D01*
X6390640Y2804921D01*
X6390640Y2820670D01*
X6395720Y2830829D01*
X6400800Y2836163D01*
X6416547Y2841244D01*
X6426961Y2841244D01*
X6442456Y2836163D01*
X6452870Y2825750D01*
X6457950Y2810255D01*
X6457950Y2794507D01*
X6452870Y2779013D01*
X6447790Y2773679D01*
X6437375Y2768600D01*
X6348984Y2885947D02*
G01*
X6348984Y2943097D01*
X6390640Y2912110D01*
X6390640Y2927604D01*
X6395720Y2938018D01*
X6400800Y2943097D01*
X6416547Y2948431D01*
X6426961Y2948431D01*
X6442456Y2943097D01*
X6452870Y2932684D01*
X6457950Y2917189D01*
X6457950Y2901695D01*
X6452870Y2885947D01*
X6447790Y2880868D01*
X6437375Y2875534D01*
X6385306Y2982721D02*
G01*
X6494525Y2982721D01*
X6400800Y2982721D02*
G01*
X6390640Y2993136D01*
X6385306Y3003550D01*
X6385306Y3019044D01*
X6390640Y3029457D01*
X6400800Y3039871D01*
X6416547Y3044952D01*
X6426961Y3044952D01*
X6442456Y3039871D01*
X6452870Y3029457D01*
X6457950Y3019044D01*
X6457950Y3003550D01*
X6452870Y2993136D01*
X6442456Y2982721D01*
X6348984Y3079242D02*
G01*
X6457950Y3079242D01*
X6348984Y3079242D02*
G01*
X6348984Y3146805D01*
X6400800Y3079242D02*
G01*
X6400800Y3120897D01*
X6570979Y4648707D02*
G01*
X6570979Y4653787D01*
X6576313Y4664202D01*
X6581393Y4669536D01*
X6591808Y4674615D01*
X6612636Y4674615D01*
X6623050Y4669536D01*
X6628129Y4664202D01*
X6633463Y4653787D01*
X6633463Y4643373D01*
X6628129Y4632960D01*
X6617970Y4617465D01*
X6565900Y4565650D01*
X6638543Y4565650D01*
X6678168Y4648707D02*
G01*
X6678168Y4653787D01*
X6683247Y4664202D01*
X6688581Y4669536D01*
X6698995Y4674615D01*
X6719570Y4674615D01*
X6729984Y4669536D01*
X6735318Y4664202D01*
X6740397Y4653787D01*
X6740397Y4643373D01*
X6735318Y4632960D01*
X6724904Y4617465D01*
X6672834Y4565650D01*
X6745731Y4565650D01*
X6780022Y4638294D02*
G01*
X6780022Y4529073D01*
X6780022Y4622800D02*
G01*
X6790436Y4632960D01*
X6800850Y4638294D01*
X6816343Y4638294D01*
X6826758Y4632960D01*
X6837172Y4622800D01*
X6842252Y4607052D01*
X6842252Y4596637D01*
X6837172Y4581144D01*
X6826758Y4570729D01*
X6816343Y4565650D01*
X6800850Y4565650D01*
X6790436Y4570729D01*
X6780022Y4581144D01*
X6876541Y4674615D02*
G01*
X6876541Y4565650D01*
X6876541Y4674615D02*
G01*
X6944106Y4674615D01*
X6876541Y4622800D02*
G01*
X6918197Y4622800D01*
X7924291Y3840479D02*
G01*
X7919211Y3840479D01*
X7908797Y3845813D01*
X7903463Y3850894D01*
X7898384Y3861307D01*
X7898384Y3882136D01*
X7903463Y3892550D01*
X7908797Y3897629D01*
X7919211Y3902963D01*
X7929625Y3902963D01*
X7940040Y3897629D01*
X7955534Y3887470D01*
X8007350Y3835400D01*
X8007350Y3908044D01*
X7924291Y3947668D02*
G01*
X7919211Y3947668D01*
X7908797Y3952747D01*
X7903463Y3958081D01*
X7898384Y3968495D01*
X7898384Y3989070D01*
X7903463Y3999484D01*
X7908797Y4004818D01*
X7919211Y4009897D01*
X7929625Y4009897D01*
X7940040Y4004818D01*
X7955534Y3994404D01*
X8007350Y3942334D01*
X8007350Y4015231D01*
X7898384Y4080510D02*
G01*
X7903463Y4065015D01*
X7919211Y4054602D01*
X7945120Y4049521D01*
X7960613Y4049521D01*
X7986775Y4054602D01*
X8002270Y4065015D01*
X8007350Y4080510D01*
X8007350Y4090923D01*
X8002270Y4106671D01*
X7986775Y4117086D01*
X7960613Y4122165D01*
X7945120Y4122165D01*
X7919211Y4117086D01*
X7903463Y4106671D01*
X7898384Y4090923D01*
X7898384Y4080510D01*
X7898384Y4156455D02*
G01*
X8007350Y4156455D01*
X7898384Y4229100D02*
G01*
X7971027Y4156455D01*
X7945120Y4182363D02*
G01*
X8007350Y4229100D01*
X8351011Y3886200D02*
G01*
X8345677Y3896613D01*
X8330184Y3912107D01*
X8439150Y3912107D01*
X8413241Y3951731D02*
G01*
X8418575Y3946397D01*
X8423656Y3951731D01*
X8418575Y3956812D01*
X8413241Y3951731D01*
X8356091Y3996436D02*
G01*
X8351011Y3996436D01*
X8340597Y4001515D01*
X8335263Y4006850D01*
X8330184Y4017010D01*
X8330184Y4037837D01*
X8335263Y4048252D01*
X8340597Y4053586D01*
X8351011Y4058665D01*
X8361425Y4058665D01*
X8371840Y4053586D01*
X8387334Y4043171D01*
X8439150Y3991102D01*
X8439150Y4064000D01*
X8330184Y4098289D02*
G01*
X8439150Y4098289D01*
X8330184Y4170934D02*
G01*
X8402827Y4098289D01*
X8376920Y4124197D02*
G01*
X8439150Y4170934D01*
X6819897Y2477515D02*
G01*
X6819897Y2368550D01*
X6819897Y2477515D02*
G01*
X6866633Y2477515D01*
X6882127Y2472436D01*
X6887461Y2467102D01*
X6892541Y2456687D01*
X6892541Y2446273D01*
X6887461Y2435860D01*
X6882127Y2430779D01*
X6866633Y2425700D01*
X6819897Y2425700D02*
G01*
X6866633Y2425700D01*
X6882127Y2420365D01*
X6887461Y2415286D01*
X6892541Y2404871D01*
X6892541Y2389123D01*
X6887461Y2378710D01*
X6882127Y2373629D01*
X6866633Y2368550D01*
X6819897Y2368550D01*
X7004809Y2451607D02*
G01*
X6999729Y2462021D01*
X6989315Y2472436D01*
X6978901Y2477515D01*
X6958073Y2477515D01*
X6947659Y2472436D01*
X6937245Y2462021D01*
X6932165Y2451607D01*
X6926831Y2435860D01*
X6926831Y2409952D01*
X6932165Y2394457D01*
X6937245Y2384044D01*
X6947659Y2373629D01*
X6958073Y2368550D01*
X6978901Y2368550D01*
X6989315Y2373629D01*
X6999729Y2384044D01*
X7004809Y2394457D01*
X7101583Y2477515D02*
G01*
X7049513Y2477515D01*
X7044433Y2430779D01*
X7049513Y2435860D01*
X7065007Y2441194D01*
X7080755Y2441194D01*
X7096249Y2435860D01*
X7106663Y2425700D01*
X7111997Y2409952D01*
X7111997Y2399537D01*
X7106663Y2384044D01*
X7096249Y2373629D01*
X7080755Y2368550D01*
X7065007Y2368550D01*
X7049513Y2373629D01*
X7044433Y2378710D01*
X7039099Y2389123D01*
X7198103Y2477515D02*
G01*
X7146287Y2404871D01*
X7224011Y2404871D01*
X7198103Y2477515D02*
G01*
X7198103Y2368550D01*
X7331199Y2477515D02*
G01*
X7279129Y2368550D01*
X7258301Y2477515D02*
G01*
X7331199Y2477515D01*
X7365489Y2477515D02*
G01*
X7365489Y2368550D01*
X7365489Y2477515D02*
G01*
X7412225Y2477515D01*
X7427719Y2472436D01*
X7433053Y2467102D01*
X7438133Y2456687D01*
X7438133Y2446273D01*
X7433053Y2435860D01*
X7427719Y2430779D01*
X7412225Y2425700D01*
X7365489Y2425700D02*
G01*
X7412225Y2425700D01*
X7427719Y2420365D01*
X7433053Y2415286D01*
X7438133Y2404871D01*
X7438133Y2389123D01*
X7433053Y2378710D01*
X7427719Y2373629D01*
X7412225Y2368550D01*
X7365489Y2368550D01*
X7508745Y2477515D02*
G01*
X7508745Y2368550D01*
X7472423Y2477515D02*
G01*
X7545067Y2477515D01*
X7579357Y2477515D02*
G01*
X7579357Y2368550D01*
X7579357Y2477515D02*
G01*
X7646921Y2477515D01*
X7579357Y2425700D02*
G01*
X7621013Y2425700D01*
X7359141Y2693415D02*
G01*
X7348727Y2688336D01*
X7338313Y2677921D01*
X7332979Y2667507D01*
X7327900Y2651760D01*
X7327900Y2625852D01*
X7332979Y2610357D01*
X7338313Y2599944D01*
X7348727Y2589529D01*
X7359141Y2584450D01*
X7379970Y2584450D01*
X7390129Y2589529D01*
X7400543Y2599944D01*
X7405877Y2610357D01*
X7410958Y2625852D01*
X7410958Y2651760D01*
X7405877Y2667507D01*
X7400543Y2677921D01*
X7390129Y2688336D01*
X7379970Y2693415D01*
X7359141Y2693415D01*
X7374636Y2605023D02*
G01*
X7405877Y2574036D01*
X7450581Y2667507D02*
G01*
X7450581Y2672587D01*
X7455661Y2683002D01*
X7460995Y2688336D01*
X7471409Y2693415D01*
X7491984Y2693415D01*
X7502397Y2688336D01*
X7507731Y2683002D01*
X7512811Y2672587D01*
X7512811Y2662173D01*
X7507731Y2651760D01*
X7497318Y2636265D01*
X7445247Y2584450D01*
X7518145Y2584450D01*
X8967215Y5598921D02*
G01*
X8977629Y5604255D01*
X8993124Y5619750D01*
X8993124Y5510784D01*
X9089897Y5619750D02*
G01*
X9037827Y5619750D01*
X9032747Y5573013D01*
X9037827Y5578094D01*
X9053575Y5583428D01*
X9069070Y5583428D01*
X9084563Y5578094D01*
X9094977Y5567934D01*
X9100311Y5552186D01*
X9100311Y5541771D01*
X9094977Y5526278D01*
X9084563Y5515863D01*
X9069070Y5510784D01*
X9053575Y5510784D01*
X9037827Y5515863D01*
X9032747Y5520944D01*
X9027413Y5531357D01*
X9134602Y5619750D02*
G01*
X9134602Y5510784D01*
X9186418Y5583428D02*
G01*
X9134602Y5531357D01*
X9155175Y5552186D02*
G01*
X9191752Y5510784D01*
X4179315Y3111500D02*
G01*
X4070350Y3111500D01*
X4179315Y3111500D02*
G01*
X4179315Y3064763D01*
X4174236Y3049270D01*
X4168902Y3043936D01*
X4158488Y3038855D01*
X4142993Y3038855D01*
X4132579Y3043936D01*
X4127500Y3049270D01*
X4122165Y3064763D01*
X4122165Y3111500D01*
X4179315Y2973323D02*
G01*
X4174236Y2983737D01*
X4163822Y2994152D01*
X4153408Y2999231D01*
X4137659Y3004565D01*
X4111752Y3004565D01*
X4096258Y2999231D01*
X4085843Y2994152D01*
X4075429Y2983737D01*
X4070350Y2973323D01*
X4070350Y2952495D01*
X4075429Y2942081D01*
X4085843Y2931668D01*
X4096258Y2926587D01*
X4111752Y2921254D01*
X4137659Y2921254D01*
X4153408Y2926587D01*
X4163822Y2931668D01*
X4174236Y2942081D01*
X4179315Y2952495D01*
X4179315Y2973323D01*
X4179315Y2886963D02*
G01*
X4070350Y2861055D01*
X4179315Y2835147D02*
G01*
X4070350Y2861055D01*
X4179315Y2835147D02*
G01*
X4070350Y2809239D01*
X4179315Y2783078D02*
G01*
X4070350Y2809239D01*
X4033774Y2748787D02*
G01*
X4033774Y2655315D01*
X4163822Y2548381D02*
G01*
X4174236Y2558795D01*
X4179315Y2574289D01*
X4179315Y2595118D01*
X4174236Y2610612D01*
X4163822Y2621026D01*
X4153408Y2621026D01*
X4142993Y2615945D01*
X4137659Y2610612D01*
X4132579Y2600197D01*
X4122165Y2569210D01*
X4117086Y2558795D01*
X4111752Y2553462D01*
X4101338Y2548381D01*
X4085843Y2548381D01*
X4075429Y2558795D01*
X4070350Y2574289D01*
X4070350Y2595118D01*
X4075429Y2610612D01*
X4085843Y2621026D01*
X4179315Y2514092D02*
G01*
X4070350Y2487929D01*
X4179315Y2462021D02*
G01*
X4070350Y2487929D01*
X4179315Y2462021D02*
G01*
X4070350Y2436113D01*
X4179315Y2410205D02*
G01*
X4070350Y2436113D01*
X3610356Y2956813D02*
G01*
X3612641Y2956813D01*
X3617213Y2954528D01*
X3619500Y2952242D01*
X3621786Y2947670D01*
X3621786Y2938271D01*
X3619500Y2933700D01*
X3617213Y2931413D01*
X3612641Y2929128D01*
X3608070Y2929128D01*
X3603243Y2931413D01*
X3596386Y2935986D01*
X3573272Y2959100D01*
X3573272Y2926842D01*
X3612641Y2705100D02*
G01*
X3614927Y2700528D01*
X3621786Y2693670D01*
X3573272Y2693670D01*
X4380229Y12355321D02*
G01*
X4375150Y12365736D01*
X4359656Y12370815D01*
X4349241Y12370815D01*
X4333493Y12365736D01*
X4323079Y12349987D01*
X4318000Y12324079D01*
X4318000Y12298171D01*
X4323079Y12277344D01*
X4333493Y12266929D01*
X4349241Y12261850D01*
X4354322Y12261850D01*
X4370070Y12266929D01*
X4380229Y12277344D01*
X4385563Y12292837D01*
X4385563Y12298171D01*
X4380229Y12313665D01*
X4370070Y12324079D01*
X4354322Y12329160D01*
X4349241Y12329160D01*
X4333493Y12324079D01*
X4323079Y12313665D01*
X4318000Y12298171D01*
X4419854Y12349987D02*
G01*
X4430268Y12355321D01*
X4445761Y12370815D01*
X4445761Y12261850D01*
X4480052Y12349987D02*
G01*
X4490465Y12355321D01*
X4505959Y12370815D01*
X4505959Y12261850D01*
X4602734Y12355321D02*
G01*
X4597400Y12365736D01*
X4581906Y12370815D01*
X4571491Y12370815D01*
X4555997Y12365736D01*
X4545584Y12349987D01*
X4540250Y12324079D01*
X4540250Y12298171D01*
X4545584Y12277344D01*
X4555997Y12266929D01*
X4571491Y12261850D01*
X4576825Y12261850D01*
X4592320Y12266929D01*
X4602734Y12277344D01*
X4607813Y12292837D01*
X4607813Y12298171D01*
X4602734Y12313665D01*
X4592320Y12324079D01*
X4576825Y12329160D01*
X4571491Y12329160D01*
X4555997Y12324079D01*
X4545584Y12313665D01*
X4540250Y12298171D01*
X4795011Y12355321D02*
G01*
X4784597Y12365736D01*
X4768850Y12370815D01*
X4748275Y12370815D01*
X4732527Y12365736D01*
X4722113Y12355321D01*
X4722113Y12344908D01*
X4727447Y12334494D01*
X4732527Y12329160D01*
X4742941Y12324079D01*
X4774184Y12313665D01*
X4784597Y12308586D01*
X4789677Y12303252D01*
X4795011Y12292837D01*
X4795011Y12277344D01*
X4784597Y12266929D01*
X4768850Y12261850D01*
X4748275Y12261850D01*
X4732527Y12266929D01*
X4722113Y12277344D01*
X4829302Y12370815D02*
G01*
X4829302Y12261850D01*
X4829302Y12370815D02*
G01*
X4876038Y12370815D01*
X4891531Y12365736D01*
X4896865Y12360402D01*
X4901945Y12349987D01*
X4901945Y12339574D01*
X4896865Y12329160D01*
X4891531Y12324079D01*
X4876038Y12319000D01*
X4829302Y12319000D01*
X4865624Y12319000D02*
G01*
X4901945Y12261850D01*
X4977891Y12370815D02*
G01*
X4936236Y12261850D01*
X4977891Y12370815D02*
G01*
X5019293Y12261850D01*
X4951729Y12298171D02*
G01*
X5003800Y12298171D01*
X5053584Y12370815D02*
G01*
X5053584Y12261850D01*
X5053584Y12370815D02*
G01*
X5095240Y12261850D01*
X5136895Y12370815D02*
G01*
X5095240Y12261850D01*
X5136895Y12370815D02*
G01*
X5136895Y12261850D01*
X5251195Y12370815D02*
G01*
X5251195Y12261850D01*
X5251195Y12370815D02*
G01*
X5287518Y12370815D01*
X5303011Y12365736D01*
X5313425Y12355321D01*
X5318759Y12344908D01*
X5323840Y12329160D01*
X5323840Y12303252D01*
X5318759Y12287758D01*
X5313425Y12277344D01*
X5303011Y12266929D01*
X5287518Y12261850D01*
X5251195Y12261850D01*
X5358129Y12370815D02*
G01*
X5358129Y12261850D01*
X5392420Y12370815D02*
G01*
X5392420Y12261850D01*
X5392420Y12370815D02*
G01*
X5439156Y12370815D01*
X5454650Y12365736D01*
X5459984Y12360402D01*
X5465063Y12349987D01*
X5465063Y12334494D01*
X5459984Y12324079D01*
X5454650Y12319000D01*
X5439156Y12313665D01*
X5392420Y12313665D01*
X5499354Y12308586D02*
G01*
X5593079Y12308586D01*
X5632450Y12344908D02*
G01*
X5632450Y12349987D01*
X5637529Y12360402D01*
X5642863Y12365736D01*
X5653277Y12370815D01*
X5674106Y12370815D01*
X5684520Y12365736D01*
X5689600Y12360402D01*
X5694679Y12349987D01*
X5694679Y12339574D01*
X5689600Y12329160D01*
X5679186Y12313665D01*
X5627370Y12261850D01*
X5700013Y12261850D01*
X5786120Y12370815D02*
G01*
X5734304Y12298171D01*
X5812281Y12298171D01*
X5786120Y12370815D02*
G01*
X5786120Y12261850D01*
X4978400Y13005815D02*
G01*
X4978400Y12927837D01*
X4983479Y12912344D01*
X4993893Y12901929D01*
X5009641Y12896850D01*
X5020056Y12896850D01*
X5035550Y12901929D01*
X5045963Y12912344D01*
X5051043Y12927837D01*
X5051043Y13005815D01*
X5095747Y13005815D02*
G01*
X5152897Y13005815D01*
X5121909Y12964160D01*
X5137404Y12964160D01*
X5147818Y12959079D01*
X5152897Y12954000D01*
X5158231Y12938252D01*
X5158231Y12927837D01*
X5152897Y12912344D01*
X5142484Y12901929D01*
X5126990Y12896850D01*
X5111495Y12896850D01*
X5095747Y12901929D01*
X5090668Y12907010D01*
X5085334Y12917424D01*
X8710927Y12418821D02*
G01*
X8705847Y12429236D01*
X8690353Y12434315D01*
X8679939Y12434315D01*
X8664191Y12429236D01*
X8653777Y12413487D01*
X8648697Y12387579D01*
X8648697Y12361671D01*
X8653777Y12340844D01*
X8664191Y12330429D01*
X8679939Y12325350D01*
X8685019Y12325350D01*
X8700767Y12330429D01*
X8710927Y12340844D01*
X8716261Y12356337D01*
X8716261Y12361671D01*
X8710927Y12377165D01*
X8700767Y12387579D01*
X8685019Y12392660D01*
X8679939Y12392660D01*
X8664191Y12387579D01*
X8653777Y12377165D01*
X8648697Y12361671D01*
X8750551Y12413487D02*
G01*
X8760965Y12418821D01*
X8776459Y12434315D01*
X8776459Y12325350D01*
X8810749Y12413487D02*
G01*
X8821163Y12418821D01*
X8836657Y12434315D01*
X8836657Y12325350D01*
X8933431Y12418821D02*
G01*
X8928097Y12429236D01*
X8912603Y12434315D01*
X8902189Y12434315D01*
X8886695Y12429236D01*
X8876281Y12413487D01*
X8870947Y12387579D01*
X8870947Y12361671D01*
X8876281Y12340844D01*
X8886695Y12330429D01*
X8902189Y12325350D01*
X8907523Y12325350D01*
X8923017Y12330429D01*
X8933431Y12340844D01*
X8938511Y12356337D01*
X8938511Y12361671D01*
X8933431Y12377165D01*
X8923017Y12387579D01*
X8907523Y12392660D01*
X8902189Y12392660D01*
X8886695Y12387579D01*
X8876281Y12377165D01*
X8870947Y12361671D01*
X9125709Y12418821D02*
G01*
X9115295Y12429236D01*
X9099547Y12434315D01*
X9078973Y12434315D01*
X9063225Y12429236D01*
X9052811Y12418821D01*
X9052811Y12408408D01*
X9058145Y12397994D01*
X9063225Y12392660D01*
X9073639Y12387579D01*
X9104881Y12377165D01*
X9115295Y12372086D01*
X9120375Y12366752D01*
X9125709Y12356337D01*
X9125709Y12340844D01*
X9115295Y12330429D01*
X9099547Y12325350D01*
X9078973Y12325350D01*
X9063225Y12330429D01*
X9052811Y12340844D01*
X9159999Y12434315D02*
G01*
X9159999Y12325350D01*
X9159999Y12434315D02*
G01*
X9206735Y12434315D01*
X9222229Y12429236D01*
X9227563Y12423902D01*
X9232643Y12413487D01*
X9232643Y12403074D01*
X9227563Y12392660D01*
X9222229Y12387579D01*
X9206735Y12382500D01*
X9159999Y12382500D01*
X9196321Y12382500D02*
G01*
X9232643Y12325350D01*
X9308589Y12434315D02*
G01*
X9266933Y12325350D01*
X9308589Y12434315D02*
G01*
X9349991Y12325350D01*
X9282427Y12361671D02*
G01*
X9334497Y12361671D01*
X9384281Y12434315D02*
G01*
X9384281Y12325350D01*
X9384281Y12434315D02*
G01*
X9425937Y12325350D01*
X9467593Y12434315D02*
G01*
X9425937Y12325350D01*
X9467593Y12434315D02*
G01*
X9467593Y12325350D01*
X9581893Y12434315D02*
G01*
X9581893Y12325350D01*
X9581893Y12434315D02*
G01*
X9618215Y12434315D01*
X9633709Y12429236D01*
X9644123Y12418821D01*
X9649457Y12408408D01*
X9654537Y12392660D01*
X9654537Y12366752D01*
X9649457Y12351258D01*
X9644123Y12340844D01*
X9633709Y12330429D01*
X9618215Y12325350D01*
X9581893Y12325350D01*
X9688827Y12434315D02*
G01*
X9688827Y12325350D01*
X9723117Y12434315D02*
G01*
X9723117Y12325350D01*
X9723117Y12434315D02*
G01*
X9769853Y12434315D01*
X9785347Y12429236D01*
X9790681Y12423902D01*
X9795761Y12413487D01*
X9795761Y12397994D01*
X9790681Y12387579D01*
X9785347Y12382500D01*
X9769853Y12377165D01*
X9723117Y12377165D01*
X9830051Y12372086D02*
G01*
X9923777Y12372086D01*
X9963147Y12408408D02*
G01*
X9963147Y12413487D01*
X9968227Y12423902D01*
X9973561Y12429236D01*
X9983975Y12434315D01*
X10004803Y12434315D01*
X10015217Y12429236D01*
X10020297Y12423902D01*
X10025377Y12413487D01*
X10025377Y12403074D01*
X10020297Y12392660D01*
X10009883Y12377165D01*
X9958067Y12325350D01*
X10030711Y12325350D01*
X10116817Y12434315D02*
G01*
X10065001Y12361671D01*
X10142979Y12361671D01*
X10116817Y12434315D02*
G01*
X10116817Y12325350D01*
X9321800Y13018515D02*
G01*
X9321800Y12940537D01*
X9326879Y12925044D01*
X9337293Y12914629D01*
X9353041Y12909550D01*
X9363456Y12909550D01*
X9378950Y12914629D01*
X9389363Y12925044D01*
X9394443Y12940537D01*
X9394443Y13018515D01*
X9480804Y13018515D02*
G01*
X9428734Y12945871D01*
X9506711Y12945871D01*
X9480804Y13018515D02*
G01*
X9480804Y12909550D01*
X11228067Y11545315D02*
G01*
X11175997Y11472671D01*
X11253975Y11472671D01*
X11228067Y11545315D02*
G01*
X11228067Y11436350D01*
X11360909Y11545315D02*
G01*
X11309093Y11436350D01*
X11288265Y11545315D02*
G01*
X11360909Y11545315D01*
X11426441Y11545315D02*
G01*
X11410947Y11540236D01*
X11400533Y11524487D01*
X11395199Y11498579D01*
X11395199Y11483086D01*
X11400533Y11456924D01*
X11410947Y11441429D01*
X11426441Y11436350D01*
X11436855Y11436350D01*
X11452349Y11441429D01*
X11462763Y11456924D01*
X11468097Y11483086D01*
X11468097Y11498579D01*
X11462763Y11524487D01*
X11452349Y11540236D01*
X11436855Y11545315D01*
X11426441Y11545315D01*
X11502387Y11508994D02*
G01*
X11502387Y11436350D01*
X11502387Y11488165D02*
G01*
X11517881Y11503660D01*
X11528295Y11508994D01*
X11543789Y11508994D01*
X11554203Y11503660D01*
X11559537Y11488165D01*
X11559537Y11436350D01*
X11593827Y11545315D02*
G01*
X11593827Y11436350D01*
X11593827Y11545315D02*
G01*
X11661137Y11545315D01*
X11593827Y11493500D02*
G01*
X11635229Y11493500D01*
X4591811Y3759200D02*
G01*
X4586477Y3769613D01*
X4570984Y3785107D01*
X4679950Y3785107D01*
X4570984Y3850639D02*
G01*
X4576063Y3835145D01*
X4591811Y3824731D01*
X4617720Y3819397D01*
X4633213Y3819397D01*
X4659375Y3824731D01*
X4674870Y3835145D01*
X4679950Y3850639D01*
X4679950Y3861054D01*
X4674870Y3876547D01*
X4659375Y3886962D01*
X4633213Y3892295D01*
X4617720Y3892295D01*
X4591811Y3886962D01*
X4576063Y3876547D01*
X4570984Y3861054D01*
X4570984Y3850639D01*
X4570984Y3957573D02*
G01*
X4576063Y3942079D01*
X4591811Y3931665D01*
X4617720Y3926586D01*
X4633213Y3926586D01*
X4659375Y3931665D01*
X4674870Y3942079D01*
X4679950Y3957573D01*
X4679950Y3967987D01*
X4674870Y3983736D01*
X4659375Y3994150D01*
X4633213Y3999229D01*
X4617720Y3999229D01*
X4591811Y3994150D01*
X4576063Y3983736D01*
X4570984Y3967987D01*
X4570984Y3957573D01*
X4607306Y4033520D02*
G01*
X4679950Y4033520D01*
X4628134Y4033520D02*
G01*
X4612640Y4049013D01*
X4607306Y4059428D01*
X4607306Y4075176D01*
X4612640Y4085589D01*
X4628134Y4090670D01*
X4679950Y4090670D01*
X4570984Y4124960D02*
G01*
X4679950Y4124960D01*
X4570984Y4124960D02*
G01*
X4570984Y4192523D01*
X4622800Y4124960D02*
G01*
X4622800Y4166615D01*
X3163570Y12967715D02*
G01*
X3111500Y12895071D01*
X3189477Y12895071D01*
X3163570Y12967715D02*
G01*
X3163570Y12858750D01*
X3296411Y12967715D02*
G01*
X3244595Y12858750D01*
X3223768Y12967715D02*
G01*
X3296411Y12967715D01*
X3361943Y12967715D02*
G01*
X3346450Y12962636D01*
X3336036Y12946887D01*
X3330702Y12920979D01*
X3330702Y12905486D01*
X3336036Y12879324D01*
X3346450Y12863829D01*
X3361943Y12858750D01*
X3372358Y12858750D01*
X3387852Y12863829D01*
X3398265Y12879324D01*
X3403600Y12905486D01*
X3403600Y12920979D01*
X3398265Y12946887D01*
X3387852Y12962636D01*
X3372358Y12967715D01*
X3361943Y12967715D01*
X3437890Y12931394D02*
G01*
X3437890Y12858750D01*
X3437890Y12910565D02*
G01*
X3453384Y12926060D01*
X3463797Y12931394D01*
X3479291Y12931394D01*
X3489706Y12926060D01*
X3495040Y12910565D01*
X3495040Y12858750D01*
X3529329Y12967715D02*
G01*
X3529329Y12858750D01*
X3529329Y12967715D02*
G01*
X3596640Y12967715D01*
X3529329Y12915900D02*
G01*
X3570731Y12915900D01*
X7367777Y10770108D02*
G01*
X7362443Y10780521D01*
X7352029Y10790936D01*
X7341870Y10796015D01*
X7321041Y10796015D01*
X7310627Y10790936D01*
X7300213Y10780521D01*
X7294879Y10770108D01*
X7289800Y10754360D01*
X7289800Y10728452D01*
X7294879Y10712958D01*
X7300213Y10702544D01*
X7310627Y10692129D01*
X7321041Y10687050D01*
X7341870Y10687050D01*
X7352029Y10692129D01*
X7362443Y10702544D01*
X7367777Y10712958D01*
X7433309Y10796015D02*
G01*
X7422895Y10790936D01*
X7412481Y10780521D01*
X7407147Y10770108D01*
X7402068Y10754360D01*
X7402068Y10728452D01*
X7407147Y10712958D01*
X7412481Y10702544D01*
X7422895Y10692129D01*
X7433309Y10687050D01*
X7453884Y10687050D01*
X7464297Y10692129D01*
X7474711Y10702544D01*
X7480045Y10712958D01*
X7485125Y10728452D01*
X7485125Y10754360D01*
X7480045Y10770108D01*
X7474711Y10780521D01*
X7464297Y10790936D01*
X7453884Y10796015D01*
X7433309Y10796015D01*
X7519415Y10796015D02*
G01*
X7519415Y10687050D01*
X7519415Y10796015D02*
G01*
X7592059Y10687050D01*
X7592059Y10796015D02*
G01*
X7592059Y10687050D01*
X7626350Y10775187D02*
G01*
X7636763Y10780521D01*
X7652511Y10796015D01*
X7652511Y10687050D01*
X3302000Y10138140D02*
G01*
X3302000Y10065242D01*
X3302000Y10138140D02*
G01*
X3333241Y10138140D01*
X3343656Y10134584D01*
X3346958Y10131028D01*
X3350513Y10124170D01*
X3350513Y10117312D01*
X3346958Y10110454D01*
X3343656Y10106898D01*
X3333241Y10103342D01*
X3302000Y10103342D02*
G01*
X3333241Y10103342D01*
X3343656Y10100040D01*
X3346958Y10096484D01*
X3350513Y10089626D01*
X3350513Y10079212D01*
X3346958Y10072354D01*
X3343656Y10068798D01*
X3333241Y10065242D01*
X3302000Y10065242D01*
X11140186Y9630155D02*
G01*
X11112500Y9557258D01*
X11140186Y9630155D02*
G01*
X11167872Y9557258D01*
X11122913Y9581642D02*
G01*
X11157458Y9581642D01*
X3378200Y10124170D02*
G01*
X3385058Y10127726D01*
X3395472Y10138140D01*
X3395472Y10065242D01*
X11195558Y9630155D02*
G01*
X11233658Y9630155D01*
X11212829Y9602470D01*
X11223243Y9602470D01*
X11230356Y9598913D01*
X11233658Y9595358D01*
X11237213Y9584944D01*
X11237213Y9578086D01*
X11233658Y9567671D01*
X11226800Y9560813D01*
X11216386Y9557258D01*
X11205972Y9557258D01*
X11195558Y9560813D01*
X11192256Y9564370D01*
X11188700Y9571228D01*
X11280902Y9630155D02*
G01*
X11270488Y9626600D01*
X11263629Y9616186D01*
X11260074Y9598913D01*
X11260074Y9588500D01*
X11263629Y9571228D01*
X11270488Y9560813D01*
X11280902Y9557258D01*
X11287759Y9557258D01*
X11298174Y9560813D01*
X11305031Y9571228D01*
X11308588Y9588500D01*
X11308588Y9598913D01*
X11305031Y9616186D01*
X11298174Y9626600D01*
X11287759Y9630155D01*
X11280902Y9630155D01*
X3329686Y9633696D02*
G01*
X3302000Y9560798D01*
X3329686Y9633696D02*
G01*
X3357372Y9560798D01*
X3312413Y9585182D02*
G01*
X3346958Y9585182D01*
X3378200Y9616170D02*
G01*
X3385058Y9619726D01*
X3395472Y9630140D01*
X3395472Y9557242D01*
X11112500Y10138125D02*
G01*
X11112500Y10065227D01*
X11112500Y10138125D02*
G01*
X11143741Y10138125D01*
X11154156Y10134569D01*
X11157458Y10131013D01*
X11161013Y10124155D01*
X11161013Y10117297D01*
X11157458Y10110439D01*
X11154156Y10106883D01*
X11143741Y10103327D01*
X11112500Y10103327D02*
G01*
X11143741Y10103327D01*
X11154156Y10100025D01*
X11157458Y10096469D01*
X11161013Y10089611D01*
X11161013Y10079197D01*
X11157458Y10072339D01*
X11154156Y10068783D01*
X11143741Y10065227D01*
X11112500Y10065227D01*
X11195558Y10138155D02*
G01*
X11233658Y10138155D01*
X11212829Y10110470D01*
X11223243Y10110470D01*
X11230356Y10106913D01*
X11233658Y10103358D01*
X11237213Y10092944D01*
X11237213Y10086086D01*
X11233658Y10075671D01*
X11226800Y10068813D01*
X11216386Y10065258D01*
X11205972Y10065258D01*
X11195558Y10068813D01*
X11192256Y10072370D01*
X11188700Y10079228D01*
X11280902Y10138155D02*
G01*
X11270488Y10134600D01*
X11263629Y10124186D01*
X11260074Y10106913D01*
X11260074Y10096500D01*
X11263629Y10079228D01*
X11270488Y10068813D01*
X11280902Y10065258D01*
X11287759Y10065258D01*
X11298174Y10068813D01*
X11305031Y10079228D01*
X11308588Y10096500D01*
X11308588Y10106913D01*
X11305031Y10124186D01*
X11298174Y10134600D01*
X11287759Y10138155D01*
X11280902Y10138155D01*
D11*
X5673343Y10578592D02*
G01*
X5664200Y10597134D01*
X5636513Y10606278D01*
X5617972Y10606278D01*
X5590286Y10597134D01*
X5571743Y10569447D01*
X5562600Y10523220D01*
X5562600Y10476992D01*
X5571743Y10440162D01*
X5590286Y10421620D01*
X5617972Y10412476D01*
X5627370Y10412476D01*
X5655056Y10421620D01*
X5673343Y10440162D01*
X5682741Y10467847D01*
X5682741Y10476992D01*
X5673343Y10504678D01*
X5655056Y10523220D01*
X5627370Y10532363D01*
X5617972Y10532363D01*
X5590286Y10523220D01*
X5571743Y10504678D01*
X5562600Y10476992D01*
X5799074Y10606278D02*
G01*
X5771388Y10597134D01*
X5752845Y10569447D01*
X5743702Y10523220D01*
X5743702Y10495534D01*
X5752845Y10449305D01*
X5771388Y10421620D01*
X5799074Y10412476D01*
X5817615Y10412476D01*
X5845302Y10421620D01*
X5863590Y10449305D01*
X5872988Y10495534D01*
X5872988Y10523220D01*
X5863590Y10569447D01*
X5845302Y10597134D01*
X5817615Y10606278D01*
X5799074Y10606278D01*
X6076188Y10606278D02*
G01*
X6076188Y10412476D01*
X6076188Y10606278D02*
G01*
X6159245Y10606278D01*
X6186931Y10597134D01*
X6196329Y10587989D01*
X6205474Y10569447D01*
X6205474Y10541762D01*
X6196329Y10523220D01*
X6186931Y10514076D01*
X6159245Y10504678D01*
X6076188Y10504678D01*
X6266434Y10606278D02*
G01*
X6266434Y10412476D01*
X6327393Y10606278D02*
G01*
X6327393Y10412476D01*
X6327393Y10606278D02*
G01*
X6456679Y10412476D01*
X6456679Y10606278D02*
G01*
X6456679Y10412476D01*
X6659879Y10606278D02*
G01*
X6659879Y10412476D01*
X6659879Y10606278D02*
G01*
X6780022Y10606278D01*
X6659879Y10514076D02*
G01*
X6733793Y10514076D01*
X6914895Y10606278D02*
G01*
X6840981Y10412476D01*
X6914895Y10606278D02*
G01*
X6988809Y10412476D01*
X6868668Y10476992D02*
G01*
X6960870Y10476992D01*
X7049770Y10606278D02*
G01*
X7049770Y10412476D01*
X7049770Y10606278D02*
G01*
X7123429Y10412476D01*
X7197343Y10606278D02*
G01*
X7123429Y10412476D01*
X7197343Y10606278D02*
G01*
X7197343Y10412476D01*
X7258304Y10606278D02*
G01*
X7258304Y10412476D01*
X7457947Y10560050D02*
G01*
X7448550Y10578592D01*
X7430261Y10597134D01*
X7411720Y10606278D01*
X7374890Y10606278D01*
X7356347Y10597134D01*
X7337806Y10578592D01*
X7328661Y10560050D01*
X7319263Y10532363D01*
X7319263Y10486389D01*
X7328661Y10458450D01*
X7337806Y10440162D01*
X7356347Y10421620D01*
X7374890Y10412476D01*
X7411720Y10412476D01*
X7430261Y10421620D01*
X7448550Y10440162D01*
X7457947Y10458450D01*
X7574279Y10606278D02*
G01*
X7555738Y10597134D01*
X7537450Y10578592D01*
X7528052Y10560050D01*
X7518908Y10532363D01*
X7518908Y10486389D01*
X7528052Y10458450D01*
X7537450Y10440162D01*
X7555738Y10421620D01*
X7574279Y10412476D01*
X7611109Y10412476D01*
X7629652Y10421620D01*
X7648193Y10440162D01*
X7657338Y10458450D01*
X7666736Y10486389D01*
X7666736Y10532363D01*
X7657338Y10560050D01*
X7648193Y10578592D01*
X7629652Y10597134D01*
X7611109Y10606278D01*
X7574279Y10606278D01*
X7727695Y10606278D02*
G01*
X7727695Y10412476D01*
X7727695Y10606278D02*
G01*
X7801609Y10412476D01*
X7875270Y10606278D02*
G01*
X7801609Y10412476D01*
X7875270Y10606278D02*
G01*
X7875270Y10412476D01*
X8208009Y10578592D02*
G01*
X8189468Y10597134D01*
X8161781Y10606278D01*
X8124697Y10606278D01*
X8097011Y10597134D01*
X8078470Y10578592D01*
X8078470Y10560050D01*
X8087868Y10541762D01*
X8097011Y10532363D01*
X8115554Y10523220D01*
X8170925Y10504678D01*
X8189468Y10495534D01*
X8198611Y10486389D01*
X8208009Y10467847D01*
X8208009Y10440162D01*
X8189468Y10421620D01*
X8161781Y10412476D01*
X8124697Y10412476D01*
X8097011Y10421620D01*
X8078470Y10440162D01*
X8268970Y10606278D02*
G01*
X8268970Y10412476D01*
X8268970Y10412476D02*
G01*
X8379713Y10412476D01*
X8496045Y10606278D02*
G01*
X8477504Y10597134D01*
X8459215Y10578592D01*
X8449818Y10560050D01*
X8440674Y10532363D01*
X8440674Y10486389D01*
X8449818Y10458450D01*
X8459215Y10440162D01*
X8477504Y10421620D01*
X8496045Y10412476D01*
X8533129Y10412476D01*
X8551418Y10421620D01*
X8569959Y10440162D01*
X8579104Y10458450D01*
X8588502Y10486389D01*
X8588502Y10532363D01*
X8579104Y10560050D01*
X8569959Y10578592D01*
X8551418Y10597134D01*
X8533129Y10606278D01*
X8496045Y10606278D01*
X8713977Y10606278D02*
G01*
X8713977Y10412476D01*
X8649461Y10606278D02*
G01*
X8778747Y10606278D01*
D13*
X5041900Y1194815D02*
G01*
X5041900Y1085850D01*
X5041900Y1085850D02*
G01*
X5104129Y1085850D01*
X5138420Y1194815D02*
G01*
X5138420Y1085850D01*
X5138420Y1194815D02*
G01*
X5205984Y1194815D01*
X5138420Y1143000D02*
G01*
X5180075Y1143000D01*
X5138420Y1085850D02*
G01*
X5205984Y1085850D01*
X5240274Y1194815D02*
G01*
X5240274Y1085850D01*
X5240274Y1194815D02*
G01*
X5276850Y1194815D01*
X5292343Y1189736D01*
X5302758Y1179321D01*
X5307838Y1168907D01*
X5313172Y1153160D01*
X5313172Y1127252D01*
X5307838Y1111757D01*
X5302758Y1101344D01*
X5292343Y1090929D01*
X5276850Y1085850D01*
X5240274Y1085850D01*
X5319013Y1698244D02*
G01*
X5319013Y1695957D01*
X5316727Y1691386D01*
X5314441Y1689100D01*
X5309870Y1686813D01*
X5300472Y1686813D01*
X5295900Y1689100D01*
X5293613Y1691386D01*
X5291327Y1695957D01*
X5291327Y1700529D01*
X5293613Y1705355D01*
X5298186Y1712213D01*
X5321300Y1735328D01*
X5289041Y1735328D01*
X5067300Y1695957D02*
G01*
X5062727Y1693671D01*
X5055870Y1686813D01*
X5055870Y1735328D01*
X9740900Y1194815D02*
G01*
X9740900Y1085850D01*
X9740900Y1194815D02*
G01*
X9787636Y1194815D01*
X9803129Y1189736D01*
X9808463Y1184402D01*
X9813543Y1173987D01*
X9813543Y1163573D01*
X9808463Y1153160D01*
X9803129Y1148079D01*
X9787636Y1143000D01*
X9740900Y1143000D01*
X9777222Y1143000D02*
G01*
X9813543Y1085850D01*
X9847834Y1194815D02*
G01*
X9847834Y1085850D01*
X9847834Y1194815D02*
G01*
X9915397Y1194815D01*
X9847834Y1143000D02*
G01*
X9889490Y1143000D01*
X9847834Y1085850D02*
G01*
X9915397Y1085850D01*
X10022586Y1179321D02*
G01*
X10012172Y1189736D01*
X9996424Y1194815D01*
X9975850Y1194815D01*
X9960102Y1189736D01*
X9949688Y1179321D01*
X9949688Y1168907D01*
X9955022Y1158494D01*
X9960102Y1153160D01*
X9970515Y1148079D01*
X10001758Y1137665D01*
X10012172Y1132586D01*
X10017252Y1127252D01*
X10022586Y1116837D01*
X10022586Y1101344D01*
X10012172Y1090929D01*
X9996424Y1085850D01*
X9975850Y1085850D01*
X9960102Y1090929D01*
X9949688Y1101344D01*
X10056875Y1194815D02*
G01*
X10056875Y1085850D01*
X10056875Y1194815D02*
G01*
X10124440Y1194815D01*
X10056875Y1143000D02*
G01*
X10098277Y1143000D01*
X10056875Y1085850D02*
G01*
X10124440Y1085850D01*
X10195052Y1194815D02*
G01*
X10195052Y1085850D01*
X10158729Y1194815D02*
G01*
X10231374Y1194815D01*
X9844786Y1273555D02*
G01*
X9844786Y1275842D01*
X9847072Y1280413D01*
X9849358Y1282700D01*
X9853929Y1284986D01*
X9863327Y1284986D01*
X9867900Y1282700D01*
X9870186Y1280413D01*
X9872472Y1275842D01*
X9872472Y1271270D01*
X9870186Y1266444D01*
X9865613Y1259586D01*
X9842500Y1236471D01*
X9874758Y1236471D01*
X10096500Y1275842D02*
G01*
X10101072Y1278128D01*
X10107929Y1284986D01*
X10107929Y1236471D01*
X11568684Y3251200D02*
G01*
X11677650Y3251200D01*
X11568684Y3251200D02*
G01*
X11568684Y3297936D01*
X11573763Y3313429D01*
X11579097Y3318763D01*
X11589511Y3323844D01*
X11605006Y3323844D01*
X11615420Y3318763D01*
X11620500Y3313429D01*
X11625834Y3297936D01*
X11625834Y3251200D01*
X11594591Y3363468D02*
G01*
X11589511Y3363468D01*
X11579097Y3368547D01*
X11573763Y3373881D01*
X11568684Y3384295D01*
X11568684Y3404870D01*
X11573763Y3415284D01*
X11579097Y3420618D01*
X11589511Y3425697D01*
X11599925Y3425697D01*
X11610340Y3420618D01*
X11625834Y3410204D01*
X11677650Y3358134D01*
X11677650Y3431031D01*
X3036315Y3289300D02*
G01*
X2927350Y3289300D01*
X3036315Y3289300D02*
G01*
X3036315Y3242563D01*
X3031236Y3227070D01*
X3025902Y3221736D01*
X3015488Y3216655D01*
X2999993Y3216655D01*
X2989579Y3221736D01*
X2984500Y3227070D01*
X2979165Y3242563D01*
X2979165Y3289300D01*
X3015488Y3182365D02*
G01*
X3020822Y3171952D01*
X3036315Y3156204D01*
X2927350Y3156204D01*
X8215884Y6654800D02*
G01*
X8324850Y6654800D01*
X8215884Y6654800D02*
G01*
X8215884Y6701536D01*
X8220963Y6717029D01*
X8226297Y6722363D01*
X8236711Y6727444D01*
X8252206Y6727444D01*
X8262620Y6722363D01*
X8267700Y6717029D01*
X8273034Y6701536D01*
X8273034Y6654800D01*
X8215884Y6761734D02*
G01*
X8324850Y6761734D01*
X8215884Y6761734D02*
G01*
X8324850Y6834631D01*
X8215884Y6834631D02*
G01*
X8324850Y6834631D01*
X8215884Y6868921D02*
G01*
X8324850Y6868921D01*
X8215884Y6868921D02*
G01*
X8215884Y6915658D01*
X8220963Y6931152D01*
X8226297Y6936486D01*
X8236711Y6941565D01*
X8252206Y6941565D01*
X8262620Y6936486D01*
X8267700Y6931152D01*
X8273034Y6915658D01*
X8273034Y6868921D01*
X9263379Y7099808D02*
G01*
X9263379Y7104887D01*
X9268713Y7115302D01*
X9273793Y7120636D01*
X9284208Y7125715D01*
X9305036Y7125715D01*
X9315450Y7120636D01*
X9320529Y7115302D01*
X9325863Y7104887D01*
X9325863Y7094473D01*
X9320529Y7084060D01*
X9310370Y7068565D01*
X9258300Y7016750D01*
X9330943Y7016750D01*
X9370568Y7099808D02*
G01*
X9370568Y7104887D01*
X9375647Y7115302D01*
X9380981Y7120636D01*
X9391395Y7125715D01*
X9411970Y7125715D01*
X9422384Y7120636D01*
X9427718Y7115302D01*
X9432797Y7104887D01*
X9432797Y7094473D01*
X9427718Y7084060D01*
X9417304Y7068565D01*
X9365234Y7016750D01*
X9438131Y7016750D01*
X9503409Y7125715D02*
G01*
X9487915Y7120636D01*
X9477502Y7104887D01*
X9472422Y7078979D01*
X9472422Y7063486D01*
X9477502Y7037323D01*
X9487915Y7021829D01*
X9503409Y7016750D01*
X9513824Y7016750D01*
X9529572Y7021829D01*
X9539986Y7037323D01*
X9545065Y7063486D01*
X9545065Y7078979D01*
X9539986Y7104887D01*
X9529572Y7120636D01*
X9513824Y7125715D01*
X9503409Y7125715D01*
X5044947Y2216150D02*
G01*
X5102097Y2216150D01*
X5070856Y2174494D01*
X5086604Y2174494D01*
X5096763Y2169413D01*
X5102097Y2164334D01*
X5107177Y2148586D01*
X5107177Y2138171D01*
X5102097Y2122678D01*
X5091684Y2112263D01*
X5076190Y2107184D01*
X5060441Y2107184D01*
X5044947Y2112263D01*
X5039613Y2117344D01*
X5034534Y2127757D01*
X5151881Y2216150D02*
G01*
X5209031Y2216150D01*
X5178043Y2174494D01*
X5193538Y2174494D01*
X5203952Y2169413D01*
X5209031Y2164334D01*
X5214365Y2148586D01*
X5214365Y2138171D01*
X5209031Y2122678D01*
X5198618Y2112263D01*
X5183124Y2107184D01*
X5167629Y2107184D01*
X5151881Y2112263D01*
X5146802Y2117344D01*
X5141468Y2127757D01*
X5279643Y2216150D02*
G01*
X5264150Y2211070D01*
X5253736Y2195321D01*
X5248656Y2169413D01*
X5248656Y2153920D01*
X5253736Y2127757D01*
X5264150Y2112263D01*
X5279643Y2107184D01*
X5290058Y2107184D01*
X5305806Y2112263D01*
X5316220Y2127757D01*
X5321300Y2153920D01*
X5321300Y2169413D01*
X5316220Y2195321D01*
X5305806Y2211070D01*
X5290058Y2216150D01*
X5279643Y2216150D01*
G36*
X11679580Y12822224D02*
G01*
X11679580Y12222175D01*
X11692331Y12236196D01*
X11704472Y12250674D01*
X11715953Y12265710D01*
X11726773Y12281255D01*
X11736882Y12297206D01*
X11746331Y12313615D01*
X11755018Y12330430D01*
X11762994Y12347549D01*
X11770207Y12365024D01*
X11776659Y12382804D01*
X11782348Y12400889D01*
X11787225Y12419126D01*
X11791289Y12437618D01*
X11794591Y12456261D01*
X11797030Y12475006D01*
X11798655Y12493853D01*
X11799519Y12512751D01*
X11799519Y12531648D01*
X11798655Y12550546D01*
X11797030Y12569393D01*
X11794591Y12588138D01*
X11791289Y12606782D01*
X11787225Y12625273D01*
X11782348Y12643510D01*
X11776659Y12661595D01*
X11770207Y12679375D01*
X11762994Y12696850D01*
X11755018Y12713970D01*
X11746331Y12730784D01*
X11736882Y12747193D01*
X11726773Y12763144D01*
X11715953Y12778689D01*
X11704472Y12793726D01*
X11692331Y12808204D01*
G37*
G36*
X9142374Y6794500D02*
G01*
X9132824Y6784746D01*
X9123832Y6774484D01*
X9115450Y6763664D01*
X9107728Y6752386D01*
X9100718Y6740652D01*
X9094419Y6728510D01*
X9088882Y6716014D01*
X9084056Y6703212D01*
X9080042Y6690156D01*
X9076791Y6676898D01*
X9074353Y6663436D01*
X9072727Y6649872D01*
X9071914Y6636258D01*
X9071914Y6622542D01*
X9072727Y6608927D01*
X9074353Y6595364D01*
X9076791Y6581902D01*
X9080042Y6568643D01*
X9084056Y6555587D01*
X9088882Y6542785D01*
X9094419Y6530289D01*
X9100718Y6518148D01*
X9107728Y6506413D01*
X9115450Y6495135D01*
X9123832Y6484315D01*
X9132824Y6474053D01*
X9142374Y6464300D01*
G37*
G36*
X10096500Y8162086D02*
G01*
X10082834Y8161680D01*
X10069220Y8160461D01*
X10055707Y8158429D01*
X10042347Y8155584D01*
X10029190Y8151926D01*
X10022687Y8149844D01*
X10009886Y8145018D01*
X9997389Y8139480D01*
X9985248Y8133181D01*
X9973513Y8126171D01*
X9962235Y8118449D01*
X9951415Y8110067D01*
X9941153Y8101075D01*
X9931400Y8091525D01*
X10261600Y8091525D01*
X10251846Y8101075D01*
X10241584Y8110067D01*
X10230764Y8118449D01*
X10219486Y8126171D01*
X10207752Y8133181D01*
X10195610Y8139480D01*
X10183114Y8145018D01*
X10170312Y8149844D01*
X10157256Y8153857D01*
X10143998Y8157108D01*
X10130536Y8159546D01*
X10116972Y8161172D01*
X10103358Y8161985D01*
G37*
G36*
X6887819Y12225324D02*
G01*
X6875068Y12211304D01*
X6862927Y12196826D01*
X6851446Y12181789D01*
X6840626Y12166244D01*
X6830517Y12150293D01*
X6821068Y12133884D01*
X6812381Y12117070D01*
X6804406Y12099950D01*
X6797192Y12082475D01*
X6790740Y12064695D01*
X6785051Y12046610D01*
X6780174Y12028373D01*
X6776110Y12009882D01*
X6772808Y11991238D01*
X6770370Y11972493D01*
X6768744Y11953646D01*
X6767880Y11934748D01*
X6767880Y11915851D01*
X6768744Y11896953D01*
X6770370Y11878106D01*
X6772808Y11859361D01*
X6776110Y11840718D01*
X6780174Y11822226D01*
X6785051Y11803989D01*
X6790740Y11785904D01*
X6797192Y11768124D01*
X6804406Y11750649D01*
X6812381Y11733530D01*
X6821068Y11716715D01*
X6830517Y11700306D01*
X6840626Y11684355D01*
X6851446Y11668810D01*
X6862927Y11653774D01*
X6875068Y11639296D01*
X6887819Y11625275D01*
G37*
G36*
X2519019Y12149124D02*
G01*
X2506268Y12135104D01*
X2494127Y12120626D01*
X2482646Y12105589D01*
X2471826Y12090044D01*
X2461717Y12074093D01*
X2452268Y12057684D01*
X2443581Y12040870D01*
X2435606Y12023750D01*
X2428392Y12006275D01*
X2421940Y11988495D01*
X2416251Y11970410D01*
X2411374Y11952173D01*
X2407310Y11933682D01*
X2404008Y11915038D01*
X2401570Y11896293D01*
X2399944Y11877446D01*
X2399080Y11858548D01*
X2399080Y11839651D01*
X2399944Y11820753D01*
X2401570Y11801906D01*
X2404008Y11783161D01*
X2407310Y11764518D01*
X2411374Y11746026D01*
X2416251Y11727789D01*
X2421940Y11709704D01*
X2428392Y11691924D01*
X2435606Y11674449D01*
X2443581Y11657330D01*
X2452268Y11640515D01*
X2461717Y11624106D01*
X2471826Y11608155D01*
X2482646Y11592610D01*
X2494127Y11577574D01*
X2506268Y11563096D01*
X2519019Y11549075D01*
G37*
G36*
X5237226Y3763619D02*
G01*
X5251196Y3750868D01*
X5265674Y3738727D01*
X5280710Y3727246D01*
X5296255Y3716426D01*
X5312206Y3706317D01*
X5328615Y3696868D01*
X5345430Y3688181D01*
X5362549Y3680206D01*
X5380024Y3672992D01*
X5397804Y3666540D01*
X5415889Y3660851D01*
X5434126Y3655974D01*
X5452618Y3651910D01*
X5471261Y3648608D01*
X5490006Y3646170D01*
X5508853Y3644544D01*
X5527751Y3643680D01*
X5546648Y3643680D01*
X5565546Y3644544D01*
X5584393Y3646170D01*
X5603138Y3648608D01*
X5621782Y3651910D01*
X5640273Y3655974D01*
X5658510Y3660851D01*
X5676595Y3666540D01*
X5694375Y3672992D01*
X5711850Y3680206D01*
X5728970Y3688181D01*
X5745784Y3696868D01*
X5762193Y3706317D01*
X5778144Y3716426D01*
X5793689Y3727246D01*
X5808726Y3738727D01*
X5823204Y3750868D01*
X5837174Y3763619D01*
G37*
G36*
X9017000Y2681020D02*
G01*
X8998102Y2680614D01*
X8979204Y2679344D01*
X8960408Y2677312D01*
X8941714Y2674416D01*
X8923172Y2670759D01*
X8904782Y2666288D01*
X8886596Y2661005D01*
X8868714Y2654960D01*
X8851087Y2648102D01*
X8833764Y2640533D01*
X8816746Y2632151D01*
X8800185Y2623108D01*
X8783980Y2613304D01*
X8768232Y2602839D01*
X8752941Y2591714D01*
X8738158Y2579878D01*
X8723934Y2567432D01*
X8717026Y2560980D01*
X9316974Y2560980D01*
X9303004Y2573731D01*
X9288526Y2585872D01*
X9273489Y2597353D01*
X9257944Y2608173D01*
X9241993Y2618282D01*
X9225584Y2627731D01*
X9208770Y2636418D01*
X9191650Y2644394D01*
X9174175Y2651607D01*
X9156395Y2658059D01*
X9138310Y2663748D01*
X9120073Y2668625D01*
X9101582Y2672689D01*
X9082938Y2675991D01*
X9064193Y2678430D01*
X9045346Y2680055D01*
X9026448Y2680919D01*
G37*
G36*
X10187025Y2463800D02*
G01*
X10187025Y2133600D01*
X10196576Y2143353D01*
X10205567Y2153615D01*
X10213949Y2164435D01*
X10221671Y2175713D01*
X10228681Y2187448D01*
X10234980Y2199589D01*
X10240518Y2212086D01*
X10245344Y2224887D01*
X10249357Y2237943D01*
X10252608Y2251202D01*
X10255046Y2264664D01*
X10256672Y2278227D01*
X10257485Y2291842D01*
X10257485Y2305558D01*
X10256672Y2319172D01*
X10255046Y2332736D01*
X10252608Y2346198D01*
X10249357Y2359456D01*
X10245344Y2372512D01*
X10240518Y2385314D01*
X10234980Y2397810D01*
X10228681Y2409952D01*
X10221671Y2421686D01*
X10213949Y2432964D01*
X10205567Y2443784D01*
X10196576Y2454046D01*
G37*
D14*
X6997700Y11214100D02*
G01*
X7099300Y11214100D01*
X7099300Y11315700D01*
X7099300Y11214100D02*
G01*
X7099300Y11112500D01*
X7302500Y11214100D02*
G01*
X7200900Y11214100D01*
X7200900Y11315700D02*
G01*
X7200900Y11112500D01*
X11184600Y12642199D02*
G01*
X11060140Y12642199D01*
X11122370Y12574889D02*
G01*
X11122370Y12709509D01*
X12141200Y12306300D02*
G01*
X12141200Y12204700D01*
X12242800Y12204700D01*
X12141200Y12204700D02*
G01*
X12039600Y12204700D01*
X12141200Y12001500D02*
G01*
X12141200Y12103100D01*
X12242800Y12103100D02*
G01*
X12039600Y12103100D01*
X12138659Y11422379D02*
G01*
X12138659Y11183620D01*
X12138659Y11183620D02*
G01*
X11508740Y11183620D01*
X11508740Y11183620D02*
G01*
X11508740Y11422379D01*
X11508740Y11422379D02*
G01*
X12138659Y11422379D01*
X11986259Y13708379D02*
G01*
X11986259Y13469620D01*
X11986259Y13469620D02*
G01*
X11356340Y13469620D01*
X11356340Y13469620D02*
G01*
X11356340Y13708379D01*
X11356340Y13708379D02*
G01*
X11986259Y13708379D01*
X6619240Y13304520D02*
G01*
X6619240Y13543279D01*
X6619240Y13543279D02*
G01*
X7249159Y13543279D01*
X7249159Y13543279D02*
G01*
X7249159Y13304520D01*
X7249159Y13304520D02*
G01*
X6619240Y13304520D01*
X11176007Y6591305D02*
G01*
X11303007Y6591305D01*
X11379207Y5612599D02*
G01*
X11379207Y5600705D01*
X10718807Y5600705D01*
X10718807Y5612599D01*
X10718807Y6567423D02*
G01*
X10718807Y6591305D01*
X10795007Y6591305D01*
X10718807Y6300005D02*
G01*
X10718807Y6361181D01*
X10718807Y6046005D02*
G01*
X10718807Y6120599D01*
X10718807Y5792005D02*
G01*
X10718807Y5866599D01*
X11379207Y5866599D02*
G01*
X11379207Y5792005D01*
X11379207Y6120599D02*
G01*
X11379207Y6046005D01*
X11379207Y6374599D02*
G01*
X11379207Y6300005D01*
X11303007Y6591305D02*
G01*
X11379207Y6591305D01*
X11379207Y6554005D01*
X10795007Y6591305D02*
G01*
X10922007Y6591305D01*
X9766300Y6299200D02*
G01*
X9766300Y6197600D01*
X9867900Y6197600D01*
X9766300Y6197600D02*
G01*
X9664700Y6197600D01*
X9766300Y5994400D02*
G01*
X9766300Y6096000D01*
X9867900Y6096000D02*
G01*
X9664700Y6096000D01*
X10380979Y5742939D02*
G01*
X10142220Y5742939D01*
X10142220Y5742939D02*
G01*
X10142220Y6372860D01*
X10142220Y6372860D02*
G01*
X10380979Y6372860D01*
X10380979Y6372860D02*
G01*
X10380979Y5742939D01*
X11376659Y5313679D02*
G01*
X11376659Y5074920D01*
X11376659Y5074920D02*
G01*
X10746740Y5074920D01*
X10746740Y5074920D02*
G01*
X10746740Y5313679D01*
X10746740Y5313679D02*
G01*
X11376659Y5313679D01*
X10683240Y6827520D02*
G01*
X10683240Y7066279D01*
X10683240Y7066279D02*
G01*
X11313159Y7066279D01*
X11313159Y7066279D02*
G01*
X11313159Y6827520D01*
X11313159Y6827520D02*
G01*
X10683240Y6827520D01*
X10121900Y7150100D02*
G01*
X10121900Y7048500D01*
X10223500Y7048500D01*
X10121900Y7048500D02*
G01*
X10020300Y7048500D01*
X10121900Y6845300D02*
G01*
X10121900Y6946900D01*
X10223500Y6946900D02*
G01*
X10020300Y6946900D01*
X11313159Y8006079D02*
G01*
X11313159Y7767320D01*
X11313159Y7767320D02*
G01*
X10683240Y7767320D01*
X10683240Y7767320D02*
G01*
X10683240Y8006079D01*
X10683240Y8006079D02*
G01*
X11313159Y8006079D01*
X9473412Y6479412D02*
G01*
X9371812Y6479412D01*
X9421799Y6429400D02*
G01*
X9421799Y6531000D01*
X9946513Y7760487D02*
G01*
X9946513Y7862087D01*
X9896500Y7812100D02*
G01*
X9998100Y7812100D01*
X7382799Y11805300D02*
G01*
X7507259Y11805300D01*
X7445029Y11872610D02*
G01*
X7445029Y11737990D01*
X3013999Y11729100D02*
G01*
X3138459Y11729100D01*
X3076229Y11796410D02*
G01*
X3076229Y11661790D01*
X10683240Y7284720D02*
G01*
X10683240Y7523479D01*
X10683240Y7523479D02*
G01*
X11313159Y7523479D01*
X11313159Y7523479D02*
G01*
X11313159Y7284720D01*
X11313159Y7284720D02*
G01*
X10683240Y7284720D01*
X5657199Y4258599D02*
G01*
X5657199Y4383059D01*
X5589889Y4320829D02*
G01*
X5724509Y4320829D01*
X8897000Y2066000D02*
G01*
X8897000Y1941540D01*
X8964310Y2003770D02*
G01*
X8829690Y2003770D01*
X3111500Y2959100D02*
G01*
X3111500Y2857500D01*
X3213100Y2857500D01*
X3111500Y2857500D02*
G01*
X3009900Y2857500D01*
X3111500Y2654300D02*
G01*
X3111500Y2755900D01*
X3213100Y2755900D02*
G01*
X3009900Y2755900D01*
X9194800Y6134100D02*
G01*
X9093200Y6134100D01*
X9093200Y6032500D01*
X9093200Y6134100D02*
G01*
X9093200Y6235700D01*
X8890000Y6134100D02*
G01*
X8991600Y6134100D01*
X8991600Y6032500D02*
G01*
X8991600Y6235700D01*
X5588000Y6553200D02*
G01*
X5689600Y6553200D01*
X5689600Y6654800D01*
X5689600Y6553200D02*
G01*
X5689600Y6451600D01*
X5892800Y6553200D02*
G01*
X5791200Y6553200D01*
X5791200Y6654800D02*
G01*
X5791200Y6451600D01*
X8407400Y2844800D02*
G01*
X8407400Y2946400D01*
X8305800Y2946400D01*
X8407400Y2946400D02*
G01*
X8509000Y2946400D01*
X8407400Y3149600D02*
G01*
X8407400Y3048000D01*
X8305800Y3048000D02*
G01*
X8509000Y3048000D01*
X11366500Y4762500D02*
G01*
X11366500Y4660900D01*
X11468100Y4660900D01*
X11366500Y4660900D02*
G01*
X11264900Y4660900D01*
X11366500Y4457700D02*
G01*
X11366500Y4559300D01*
X11468100Y4559300D02*
G01*
X11264900Y4559300D01*
X5334000Y2628900D02*
G01*
X5232400Y2628900D01*
X5232400Y2527300D01*
X5232400Y2628900D02*
G01*
X5232400Y2730500D01*
X5029200Y2628900D02*
G01*
X5130800Y2628900D01*
X5130800Y2527300D02*
G01*
X5130800Y2730500D01*
X9855987Y2448687D02*
G01*
X9957587Y2448687D01*
X9907600Y2498699D02*
G01*
X9907600Y2397099D01*
D15*
X7581648Y4242054D02*
G01*
X7581645Y4750054D01*
X7327645Y4750051D01*
X7327645Y4242054D01*
X7581648Y4242054D01*
D11*
X6666306Y4021912D02*
G01*
X7278293Y4021912D01*
X6654749Y3521887D02*
G01*
X7278293Y3521887D01*
D15*
X7823454Y3238245D02*
G01*
X7823454Y2730245D01*
X8077454Y2730245D01*
X8077454Y3238245D01*
X7823454Y3238245D01*
X6515354Y3250945D02*
G01*
X6515354Y2742945D01*
X6769354Y2742945D01*
X6769354Y3250945D01*
X6515354Y3250945D01*
X6946645Y4508245D02*
G01*
X6438645Y4508245D01*
X6438645Y4254245D01*
X6946645Y4254245D01*
X6946645Y4508245D01*
D14*
X8082279Y3723639D02*
G01*
X7843520Y3723639D01*
X7843520Y3723639D02*
G01*
X7843520Y4353560D01*
X7843520Y4353560D02*
G01*
X8082279Y4353560D01*
X8082279Y4353560D02*
G01*
X8082279Y3723639D01*
X8262620Y4353560D02*
G01*
X8501379Y4353560D01*
X8501379Y4353560D02*
G01*
X8501379Y3723639D01*
X8501379Y3723639D02*
G01*
X8262620Y3723639D01*
X8262620Y3723639D02*
G01*
X8262620Y4353560D01*
X7000113Y2786509D02*
G01*
X7000113Y3182490D01*
X9382759Y5694679D02*
G01*
X9382759Y5455920D01*
X9382759Y5455920D02*
G01*
X8752840Y5455920D01*
X8752840Y5455920D02*
G01*
X8752840Y5694679D01*
X8752840Y5694679D02*
G01*
X9382759Y5694679D01*
X3695700Y3060700D02*
G01*
X3949700Y3060700D01*
X3949700Y2552700D01*
X3695700Y2552700D01*
X3695700Y3060700D01*
D16*
X3454400Y11366500D02*
G01*
X6502400Y11366500D01*
X6502400Y12636500D01*
X3454400Y12636500D01*
X3454400Y11366500D01*
X7797800Y11379200D02*
G01*
X10845800Y11379200D01*
X10845800Y12649200D01*
X7797800Y12649200D01*
X7797800Y11379200D01*
D14*
X11557000Y11709400D02*
G01*
X11455400Y11709400D01*
X11455400Y11607800D01*
X11455400Y11709400D02*
G01*
X11455400Y11811000D01*
X11252200Y11709400D02*
G01*
X11353800Y11709400D01*
X11353800Y11607800D02*
G01*
X11353800Y11811000D01*
X4419600Y4127500D02*
G01*
X4419600Y4025900D01*
X4521200Y4025900D01*
X4419600Y4025900D02*
G01*
X4318000Y4025900D01*
X4419600Y3822700D02*
G01*
X4419600Y3924300D01*
X4521200Y3924300D02*
G01*
X4318000Y3924300D01*
X3187700Y13131800D02*
G01*
X3289300Y13131800D01*
X3289300Y13233400D01*
X3289300Y13131800D02*
G01*
X3289300Y13030200D01*
X3492500Y13131800D02*
G01*
X3390900Y13131800D01*
X3390900Y13233400D02*
G01*
X3390900Y13030200D01*
X9545320Y9715500D02*
G01*
X9545320Y9763760D01*
X9608820Y9715500D02*
G01*
X9545320Y9715500D01*
X9608820Y9763760D02*
G01*
X9608820Y9715500D01*
X9608820Y9969500D02*
G01*
X9608820Y9921239D01*
X9545320Y9969500D02*
G01*
X9608820Y9969500D01*
X9545320Y9921239D02*
G01*
X9545320Y9969500D01*
X8021320Y9715500D02*
G01*
X8021320Y9763760D01*
X8084820Y9715500D02*
G01*
X8021320Y9715500D01*
X8084820Y9763760D02*
G01*
X8084820Y9715500D01*
X8084820Y9969500D02*
G01*
X8084820Y9921239D01*
X8021320Y9969500D02*
G01*
X8084820Y9969500D01*
X8021320Y9921239D02*
G01*
X8021320Y9969500D01*
X6497320Y9715500D02*
G01*
X6497320Y9763760D01*
X6560820Y9715500D02*
G01*
X6497320Y9715500D01*
X6560820Y9763760D02*
G01*
X6560820Y9715500D01*
X6560820Y9969500D02*
G01*
X6560820Y9921239D01*
X6497320Y9969500D02*
G01*
X6560820Y9969500D01*
X6497320Y9921239D02*
G01*
X6497320Y9969500D01*
X4973320Y9712960D02*
G01*
X4973320Y9761220D01*
X5036820Y9712960D02*
G01*
X4973320Y9712960D01*
X5036820Y9761220D02*
G01*
X5036820Y9712960D01*
X4973320Y9966960D02*
G01*
X5036820Y9966960D01*
X9799320Y9715500D02*
G01*
X9799320Y9763760D01*
X9862820Y9715500D02*
G01*
X9799320Y9715500D01*
X9862820Y9763760D02*
G01*
X9862820Y9715500D01*
X10053320Y9715500D02*
G01*
X10053320Y9763760D01*
X10116820Y9715500D02*
G01*
X10053320Y9715500D01*
X10116820Y9763760D02*
G01*
X10116820Y9715500D01*
X10307320Y9715500D02*
G01*
X10307320Y9763760D01*
X10368279Y9715500D02*
G01*
X10307320Y9715500D01*
X10368279Y9763760D02*
G01*
X10368279Y9715500D01*
X10558779Y9715500D02*
G01*
X10558779Y9763760D01*
X10622279Y9715500D02*
G01*
X10558779Y9715500D01*
X10622279Y9763760D02*
G01*
X10622279Y9715500D01*
X10812779Y9715500D02*
G01*
X10812779Y9763760D01*
X10876279Y9715500D02*
G01*
X10812779Y9715500D01*
X10876279Y9763760D02*
G01*
X10876279Y9715500D01*
X10876279Y9969500D02*
G01*
X10876279Y9921239D01*
X10812779Y9969500D02*
G01*
X10876279Y9969500D01*
X10812779Y9921239D02*
G01*
X10812779Y9969500D01*
X10622279Y9969500D02*
G01*
X10622279Y9921239D01*
X10558779Y9969500D02*
G01*
X10622279Y9969500D01*
X10558779Y9921239D02*
G01*
X10558779Y9969500D01*
X10368279Y9969500D02*
G01*
X10368279Y9921239D01*
X10307320Y9969500D02*
G01*
X10368279Y9969500D01*
X10307320Y9921239D02*
G01*
X10307320Y9969500D01*
X10116820Y9969500D02*
G01*
X10116820Y9921239D01*
X10053320Y9969500D02*
G01*
X10116820Y9969500D01*
X10053320Y9921239D02*
G01*
X10053320Y9969500D01*
X9862820Y9969500D02*
G01*
X9862820Y9921239D01*
X9799320Y9969500D02*
G01*
X9862820Y9969500D01*
X9799320Y9921239D02*
G01*
X9799320Y9969500D01*
X8275320Y9715500D02*
G01*
X8275320Y9763760D01*
X8338820Y9715500D02*
G01*
X8275320Y9715500D01*
X8338820Y9763760D02*
G01*
X8338820Y9715500D01*
X8529320Y9715500D02*
G01*
X8529320Y9763760D01*
X8592820Y9715500D02*
G01*
X8529320Y9715500D01*
X8592820Y9763760D02*
G01*
X8592820Y9715500D01*
X8783320Y9715500D02*
G01*
X8783320Y9763760D01*
X8844279Y9715500D02*
G01*
X8783320Y9715500D01*
X8844279Y9763760D02*
G01*
X8844279Y9715500D01*
X9034779Y9715500D02*
G01*
X9034779Y9763760D01*
X9098279Y9715500D02*
G01*
X9034779Y9715500D01*
X9098279Y9763760D02*
G01*
X9098279Y9715500D01*
X9288779Y9715500D02*
G01*
X9288779Y9763760D01*
X9352279Y9715500D02*
G01*
X9288779Y9715500D01*
X9352279Y9763760D02*
G01*
X9352279Y9715500D01*
X9352279Y9969500D02*
G01*
X9352279Y9921239D01*
X9288779Y9969500D02*
G01*
X9352279Y9969500D01*
X9288779Y9921239D02*
G01*
X9288779Y9969500D01*
X9098279Y9969500D02*
G01*
X9098279Y9921239D01*
X9034779Y9969500D02*
G01*
X9098279Y9969500D01*
X9034779Y9921239D02*
G01*
X9034779Y9969500D01*
X8844279Y9969500D02*
G01*
X8844279Y9921239D01*
X8783320Y9969500D02*
G01*
X8844279Y9969500D01*
X8783320Y9921239D02*
G01*
X8783320Y9969500D01*
X8592820Y9969500D02*
G01*
X8592820Y9921239D01*
X8529320Y9969500D02*
G01*
X8592820Y9969500D01*
X8529320Y9921239D02*
G01*
X8529320Y9969500D01*
X8338820Y9969500D02*
G01*
X8338820Y9921239D01*
X8275320Y9969500D02*
G01*
X8338820Y9969500D01*
X8275320Y9921239D02*
G01*
X8275320Y9969500D01*
X6751320Y9715500D02*
G01*
X6751320Y9763760D01*
X6814820Y9715500D02*
G01*
X6751320Y9715500D01*
X6814820Y9763760D02*
G01*
X6814820Y9715500D01*
X7005320Y9715500D02*
G01*
X7005320Y9763760D01*
X7068820Y9715500D02*
G01*
X7005320Y9715500D01*
X7068820Y9763760D02*
G01*
X7068820Y9715500D01*
X7259320Y9715500D02*
G01*
X7259320Y9763760D01*
X7320279Y9715500D02*
G01*
X7259320Y9715500D01*
X7320279Y9763760D02*
G01*
X7320279Y9715500D01*
X7510779Y9715500D02*
G01*
X7510779Y9763760D01*
X7574279Y9715500D02*
G01*
X7510779Y9715500D01*
X7574279Y9763760D02*
G01*
X7574279Y9715500D01*
X7764779Y9715500D02*
G01*
X7764779Y9763760D01*
X7828279Y9715500D02*
G01*
X7764779Y9715500D01*
X7828279Y9763760D02*
G01*
X7828279Y9715500D01*
X7828279Y9969500D02*
G01*
X7828279Y9921239D01*
X7764779Y9969500D02*
G01*
X7828279Y9969500D01*
X7764779Y9921239D02*
G01*
X7764779Y9969500D01*
X7574279Y9969500D02*
G01*
X7574279Y9921239D01*
X7510779Y9969500D02*
G01*
X7574279Y9969500D01*
X7510779Y9921239D02*
G01*
X7510779Y9969500D01*
X7320279Y9969500D02*
G01*
X7320279Y9921239D01*
X7259320Y9969500D02*
G01*
X7320279Y9969500D01*
X7259320Y9921239D02*
G01*
X7259320Y9969500D01*
X7068820Y9969500D02*
G01*
X7068820Y9921239D01*
X7005320Y9969500D02*
G01*
X7068820Y9969500D01*
X7005320Y9921239D02*
G01*
X7005320Y9969500D01*
X6814820Y9969500D02*
G01*
X6814820Y9921239D01*
X6751320Y9969500D02*
G01*
X6814820Y9969500D01*
X6751320Y9921239D02*
G01*
X6751320Y9969500D01*
X5227320Y9715500D02*
G01*
X5227320Y9763760D01*
X5290820Y9715500D02*
G01*
X5227320Y9715500D01*
X5290820Y9763760D02*
G01*
X5290820Y9715500D01*
X5481320Y9715500D02*
G01*
X5481320Y9763760D01*
X5544820Y9715500D02*
G01*
X5481320Y9715500D01*
X5544820Y9763760D02*
G01*
X5544820Y9715500D01*
X5735320Y9715500D02*
G01*
X5735320Y9763760D01*
X5796279Y9715500D02*
G01*
X5735320Y9715500D01*
X5796279Y9763760D02*
G01*
X5796279Y9715500D01*
X5986779Y9715500D02*
G01*
X5986779Y9763760D01*
X6050279Y9715500D02*
G01*
X5986779Y9715500D01*
X6050279Y9763760D02*
G01*
X6050279Y9715500D01*
X6240779Y9715500D02*
G01*
X6240779Y9763760D01*
X6304279Y9715500D02*
G01*
X6240779Y9715500D01*
X6304279Y9763760D02*
G01*
X6304279Y9715500D01*
X6304279Y9969500D02*
G01*
X6304279Y9921239D01*
X6240779Y9969500D02*
G01*
X6304279Y9969500D01*
X6240779Y9921239D02*
G01*
X6240779Y9969500D01*
X6050279Y9969500D02*
G01*
X6050279Y9921239D01*
X5986779Y9969500D02*
G01*
X6050279Y9969500D01*
X5986779Y9921239D02*
G01*
X5986779Y9969500D01*
X5796279Y9969500D02*
G01*
X5796279Y9921239D01*
X5735320Y9969500D02*
G01*
X5796279Y9969500D01*
X5735320Y9921239D02*
G01*
X5735320Y9969500D01*
X5544820Y9969500D02*
G01*
X5544820Y9921239D01*
X5481320Y9969500D02*
G01*
X5544820Y9969500D01*
X5481320Y9921239D02*
G01*
X5481320Y9969500D01*
X5290820Y9969500D02*
G01*
X5290820Y9921239D01*
X5227320Y9969500D02*
G01*
X5290820Y9969500D01*
X3703320Y9715500D02*
G01*
X3703320Y9763760D01*
X3766820Y9715500D02*
G01*
X3703320Y9715500D01*
X3957320Y9715500D02*
G01*
X3957320Y9763760D01*
X4020820Y9715500D02*
G01*
X3957320Y9715500D01*
X4020820Y9763760D02*
G01*
X4020820Y9715500D01*
X4211320Y9715500D02*
G01*
X4211320Y9763760D01*
X4272279Y9715500D02*
G01*
X4211320Y9715500D01*
X4272279Y9763760D02*
G01*
X4272279Y9715500D01*
X4462779Y9715500D02*
G01*
X4462779Y9763760D01*
X4526279Y9715500D02*
G01*
X4462779Y9715500D01*
X4526279Y9763760D02*
G01*
X4526279Y9715500D01*
X4716779Y9715500D02*
G01*
X4716779Y9763760D01*
X4780279Y9715500D02*
G01*
X4716779Y9715500D01*
X4780279Y9763760D02*
G01*
X4780279Y9715500D01*
X4526279Y9969500D02*
G01*
X4526279Y9921239D01*
X4462779Y9969500D02*
G01*
X4526279Y9969500D01*
X4462779Y9921239D02*
G01*
X4462779Y9969500D01*
X4272279Y9969500D02*
G01*
X4272279Y9921239D01*
X4211320Y9969500D02*
G01*
X4272279Y9969500D01*
X4211320Y9921239D02*
G01*
X4211320Y9969500D01*
X4020820Y9969500D02*
G01*
X4020820Y9921239D01*
X3957320Y9969500D02*
G01*
X4020820Y9969500D01*
X3957320Y9921239D02*
G01*
X3957320Y9969500D01*
X3766820Y9969500D02*
G01*
X3766820Y9921239D01*
X3703320Y9969500D02*
G01*
X3766820Y9969500D01*
X3703320Y9921239D02*
G01*
X3703320Y9969500D01*
X3352800Y9921239D02*
G01*
X3352800Y9763760D01*
X4780279Y9969500D02*
G01*
X4780279Y9921239D01*
X4716779Y9921239D02*
G01*
X4716779Y9969500D01*
X4716779Y9969500D02*
G01*
X4780279Y9969500D01*
X3766820Y9763760D02*
G01*
X3766820Y9715500D01*
X4973320Y9921239D02*
G01*
X4973320Y9966960D01*
X5036820Y9966960D02*
G01*
X5036820Y9921239D01*
X5227320Y9921239D02*
G01*
X5227320Y9969500D01*
X11226800Y9921239D02*
G01*
X3352800Y9921239D01*
X3352800Y9763760D02*
G01*
X3783177Y9763887D01*
X11226800Y9766300D01*
X11226800Y9766300D02*
G01*
X11226800Y9921239D01*
X11353800Y9372600D02*
G01*
X11353800Y10312400D01*
X3225800Y10312400D02*
G01*
X3225800Y9372600D01*
X11353800Y10312400D02*
G01*
X3225800Y10312400D01*
X3225800Y9372600D02*
G01*
X11353800Y9372600D01*
X11379200Y10312400D02*
G01*
X12903200Y10312400D01*
X12903200Y9372600D01*
X11379200Y9372600D01*
X11379200Y10312400D01*
X1676400Y10312400D02*
G01*
X3200400Y10312400D01*
X3200400Y9372600D01*
X1676400Y9372600D01*
X1676400Y10312400D01*
D17*
X10541000Y13614400D02*
G01*
X8699500Y13614400D01*
D11*
X10541000Y13614400D02*
G01*
X10795000Y13614400D01*
X10795000Y13360400D01*
X8509000Y13360400D01*
X8509000Y13614400D01*
X8699500Y13614400D01*
D14*
X5422900Y1612900D02*
G01*
X5422900Y1358900D01*
X4914900Y1358900D01*
X4914900Y1612900D01*
X5422900Y1612900D01*
X9740900Y1358900D02*
G01*
X9740900Y1612900D01*
X10248900Y1612900D01*
X10248900Y1358900D01*
X9740900Y1358900D01*
X13170839Y1309344D02*
G01*
X11713641Y1309344D01*
X11713641Y5226278D01*
X12794919Y5226278D01*
X13170839Y5226278D01*
X13170839Y1315948D01*
X13164235Y1309344D01*
X13367893Y2052218D02*
G01*
X13180745Y2052218D01*
X13174065Y2045538D01*
X13174065Y4505325D01*
X13180745Y4512005D01*
X13361212Y4512005D01*
X13367893Y4505325D01*
X13367893Y2085619D01*
X13368172Y2055418D01*
X13170484Y1502841D02*
G01*
X13304164Y1502841D01*
X13304164Y1703374D01*
X13297484Y1710054D01*
X13170484Y1710054D01*
X13170484Y4838268D02*
G01*
X13297484Y4838268D01*
X13304164Y4844948D01*
X13304164Y5045481D01*
X13170484Y5045481D01*
X1434160Y5231155D02*
G01*
X2891358Y5231155D01*
X2891358Y1314221D01*
X1810080Y1314221D01*
X1434160Y1314221D01*
X1434160Y5224551D01*
X1440764Y5231155D01*
X1237106Y4488281D02*
G01*
X1424254Y4488281D01*
X1430934Y4494961D01*
X1430934Y2035175D01*
X1424254Y2028494D01*
X1243787Y2028494D01*
X1237106Y2035175D01*
X1237106Y4454880D01*
X1236827Y4485081D01*
X1434515Y5037658D02*
G01*
X1300835Y5037658D01*
X1300835Y4837125D01*
X1307515Y4830445D01*
X1434515Y4830445D01*
X1434515Y1702231D02*
G01*
X1307515Y1702231D01*
X1300835Y1695551D01*
X1300835Y1495018D01*
X1434515Y1495018D01*
X8798686Y7005193D02*
G01*
X8798686Y6609206D01*
X9083040Y6941820D02*
G01*
X9083040Y7180579D01*
X9083040Y7180579D02*
G01*
X9712959Y7180579D01*
X9712959Y7180579D02*
G01*
X9712959Y6941820D01*
X9712959Y6941820D02*
G01*
X9083040Y6941820D01*
X5483859Y2278379D02*
G01*
X5483859Y2039620D01*
X5483859Y2039620D02*
G01*
X4853940Y2039620D01*
X4853940Y2039620D02*
G01*
X4853940Y2278379D01*
X4853940Y2278379D02*
G01*
X5483859Y2278379D01*
G75*
G01*
X11404854Y12922250D02*
G03*
X11411966Y12922250I3556J-399984D01*
G75*
G01*
X11176010Y6591303D02*
G02*
X10922010Y6591303I-127000J0D01*
D18*
G75*
G01*
X10502900Y6489700D02*
G03*
X10502610Y6489080I-13732J6038D01*
D14*
G75*
G01*
X7162546Y11525250D02*
G03*
X7155434Y11525250I-3556J399984D01*
G75*
G01*
X2793746Y11449050D02*
G03*
X2786634Y11449050I-3556J399984D01*
G75*
G01*
X5937250Y4038346D02*
G03*
X5937250Y4031234I-399984J-3556D01*
G75*
G01*
X8616950Y2286254D02*
G03*
X8616950Y2293366I399984J3556D01*
D11*
G75*
G01*
X6666306Y4021912D02*
G03*
X6666306Y3521888I5040J-250012D01*
G75*
G01*
X7278294Y3521888D02*
G03*
X7278294Y4021912I-5040J250012D01*
D14*
G75*
G01*
X7278599Y3225800D02*
G02*
X7278599Y2743200I-168461J-241300D01*
G75*
G01*
X8522716Y7021576D02*
G03*
X8527555Y6590053I125982J-214376D01*
D18*
G75*
G01
X9571812Y6629400D02*
G03X9571812Y6629400I-250012J0D01*
G75*
G01
X10346512Y7912100D02*
G03X10346512Y7912100I-250012J0D01*
G75*
G01
X10257612Y2298700D02*
G03X10257612Y2298700I-250012J0D01*
D14*
G75*
G01
X3581400Y11442700D02*
G03X3581400Y11442700I-25400J0D01*
G75*
G01
X7924800Y11455400D02*
G03X7924800Y11455400I-25400J0D01*
M02*
