M48
METRIC,LZ,000.000
;FILE_FORMAT=3:3
;TYPE=PLATED
;Layer: PTH_Through_Via
;EasyEDA v6.5.42, 2024-04-13 20:59:12
;594e40a4052f4cff86669ddfe18c1731,a2f4cb7aa3704937908c5b59a0d1150c,10
;Gerber Generator version 0.2
;Holesize 1 = 0.306 mm
T01C0.306
;Holesize 2 = 0.351 mm
T02C0.351
;Holesize 3 = 0.501 mm
T03C0.501
;Holesize 4 = 0.600 mm
T04C0.600
%
G05
G90
T01
X085428Y094564
X108585Y083606
X100812Y091059
X101605Y090272
X099394Y087143
X086029Y068707
X100249Y086943
X102727Y051487
X109825Y082253
X094761Y065763
X098877Y082613
X101244Y070153
X102112Y079858
X100610Y066419
X100660Y074289
X065197Y091802
X067754Y091368
X080218Y094200
X090510Y091689
X099723Y085508
X097394Y082289
X083553Y119754
X083553Y091439
X096082Y084778
X141739Y061459
X092860Y098015
X104527Y119274
X093544Y102661
X114935Y108489
X116205Y117206
X097531Y103253
X093544Y101438
X092238Y095860
X088444Y092189
X081590Y091269
X078403Y091083
X076602Y091168
X074295Y091763
X070644Y093277
X062235Y093119
X091603Y095072
X095110Y123957
T02
X136779Y094996
T03
X067818Y043053
X067818Y053213
X083566Y053213
X083566Y042926
X098298Y053086
X109347Y040894
X129667Y040767
X127000Y065532
X067818Y079756
X132080Y098933
X070358Y157607
X070358Y147447
X075565Y147447
T04
X098679Y089459
X091949Y082729
M30
