M48
METRIC,LZ,000.000
;FILE_FORMAT=3:3
;TYPE=PLATED
;Layer: PTH_Through
;EasyEDA v6.5.22, 2023-03-19 17:04:27
;f7d942f30ce042ed8feb9a49e77c6dc6,a2f4cb7aa3704937908c5b59a0d1150c,10
;Gerber Generator version 0.2
;Holesize 1 = 0.351 mm
T01C0.351
;Holesize 2 = 0.701 mm
T02C0.701
;Holesize 3 = 0.712 mm
T03C0.712
;Holesize 4 = 0.800 mm
T04C0.800
;Holesize 5 = 0.889 mm
T05C0.889
;Holesize 6 = 0.900 mm
T06C0.900
;Holesize 7 = 0.901 mm
T07C0.901
;Holesize 8 = 1.000 mm
T08C1.000
;Holesize 9 = 1.022 mm
T09C1.022
;Holesize 10 = 1.101 mm
T10C1.101
%
G05
G90
T01
X047125Y041275
X047130Y074574
X144899Y074676
X144894Y041377
T02
X092808Y064643G85X092813Y064643
X097687Y064643G85X097692Y064643
T03
X105537Y139954
X102997Y139954
X080899Y140716
X080899Y143256
X111506Y139192
X111506Y141732
X079375Y136906
X081915Y136906
X096774Y058420
X099314Y058420
X090932Y058420
X093472Y058420
X145923Y155448
X145923Y157988
X065405Y146304
X065405Y148844
X115443Y096266
X117983Y096266
X094234Y152400
X094234Y154940
T04
X102489Y043561
X102489Y048641
X125222Y085725
X130302Y085725
X056896Y053721
X056896Y048641
X134620Y074930
X134620Y069850
X050800Y143383
X050800Y148463
X110506Y147574
X112506Y147574
X122920Y050292
X120920Y050292
X060960Y136287
X060960Y138287
T05
X109220Y157099
X111760Y157099
X114300Y157099
X116840Y157099
X119380Y157099
X121920Y157099
X124460Y157099
X127000Y157099
X129540Y157099
T06
X062484Y049276
X062484Y039116
X124460Y091186
X134620Y091186
X111633Y091186
X121793Y091186
X073025Y068707
X083185Y068707
X073025Y062357
X083185Y062357
X096012Y137414
X085852Y137414
X075565Y157607
X075565Y147447
X093599Y146050
X083439Y146050
X070358Y157607
X070358Y147447
X089281Y141732
X099441Y141732
X105664Y157353
X095504Y157353
X075692Y134747
X075692Y144907
X070485Y134747
X070485Y144907
X107188Y146050
X097028Y146050
X108839Y152019
X098679Y152019
T07
X049657Y136652
X054737Y136652
X081788Y150114
X084328Y150114
X086868Y150114
X089408Y150114
X081788Y157734
X084328Y157734
X086868Y157734
X089408Y157734
T08
X092837Y047625
X092837Y045085
X136144Y086995
X136144Y084455
X146177Y147701
X143637Y147701
X058166Y147701
X058166Y145161
X053467Y156591
X050927Y156591
X138303Y147701
X135763Y147701
X115316Y085344
X117856Y085344
X059095Y156464
X064095Y156464
X135422Y157099
X140422Y157099
X108585Y091186
X108585Y088646
X108585Y086106
X048517Y067607
X048517Y064839
X048517Y062067
X048517Y059299
X048517Y056528
X048517Y053759
X048517Y050988
X048552Y048235
X045674Y066238
X045674Y063470
X045674Y060698
X045674Y057930
X045674Y055159
X045674Y052390
X045674Y049619
X143507Y048344
X143507Y051112
X143507Y053884
X143507Y056652
X143507Y059423
X143507Y062192
X143507Y064963
X143472Y067716
X146350Y049713
X146350Y052481
X146350Y055253
X146350Y058021
X146350Y060792
X146350Y063561
X146350Y066332
T09
X064135Y126238
X064135Y121158
X061595Y126238
X066675Y126238
X069215Y126238
X059055Y126238
X059055Y121158
X061595Y121158
X066675Y121158
X069215Y121158
X071755Y126238
X071755Y121158
X079375Y126238
X079375Y121158
X076835Y126238
X081915Y126238
X084455Y126238
X074295Y126238
X074295Y121158
X076835Y121158
X081915Y121158
X084455Y121158
X086995Y126238
X086995Y121158
X094615Y126238
X094615Y121158
X092075Y126238
X097155Y126238
X099695Y126238
X089535Y126238
X089535Y121158
X092075Y121158
X097155Y121158
X099695Y121158
X102235Y126238
X102235Y121158
X109855Y126238
X109855Y121158
X107315Y126238
X112395Y126238
X114935Y126238
X104775Y126238
X104775Y121158
X107315Y121158
X112395Y121158
X114935Y121158
X117475Y126238
X117475Y121158
X125095Y126238
X125095Y121158
X122555Y126238
X127635Y126238
X130175Y126238
X120015Y126238
X120015Y121158
X122555Y121158
X127635Y121158
X130175Y121158
X132715Y126238
X132715Y121158
X059055Y121158
X059055Y126238
T10
X072263Y041910
X074803Y041910
X057785Y083693
X057785Y081153
X120523Y042164
X123063Y042164
M30
