G04 Layer: BottomSolderMaskLayer*
G04 EasyEDA v6.5.42, 2024-04-13 20:59:12*
G04 594e40a4052f4cff86669ddfe18c1731,a2f4cb7aa3704937908c5b59a0d1150c,10*
G04 Gerber Generator version 0.2*
G04 Scale: 100 percent, Rotated: No, Reflected: No *
G04 Dimensions in millimeters *
G04 leading zeros omitted , absolute positions ,4 integer and 5 decimal *
%FSLAX45Y45*%
%MOMM*%

%AMMACRO1*1,1,$1,$2,$3*1,1,$1,$4,$5*1,1,$1,0-$2,0-$3*1,1,$1,0-$4,0-$5*20,1,$1,$2,$3,$4,$5,0*20,1,$1,$4,$5,0-$2,0-$3,0*20,1,$1,0-$2,0-$3,0-$4,0-$5,0*20,1,$1,0-$4,0-$5,$2,$3,0*4,1,4,$2,$3,$4,$5,0-$2,0-$3,0-$4,0-$5,$2,$3,0*%
%ADD10MACRO1,0.1016X1.035X-0.2858X1.035X0.2858*%
%ADD11MACRO1,0.1016X0.2858X1.035X-0.2858X1.035*%
%ADD12C,1.2954*%
%ADD13C,1.6016*%
%ADD14C,1.7016*%
%ADD15MACRO1,0.1016X-0.85X0.7874X0.85X0.7874*%
%ADD16C,1.8016*%
%ADD17C,1.9812*%
%ADD18C,1.4016*%
%ADD19C,1.3016*%
%ADD20MACRO1,0.1016X-0.7874X0.7874X0.7874X0.7874*%
%ADD21C,1.6764*%
%ADD22C,1.9016*%
%ADD23MACRO1,0.1016X0.7874X0.85X0.7874X-0.85*%
%ADD24O,1.9015964X1.9015964*%
%ADD25MACRO1,0.1016X-0.9X0.9X0.9X0.9*%
%ADD26C,1.6256*%
%ADD27MACRO1,0.1016X0.75X0.75X0.75X-0.75*%
%ADD28MACRO1,0.1016X0.8001X0.8001X0.8001X-0.8001*%
%ADD29C,0.7516*%
%ADD30R,1.7016X1.7016*%
%ADD31O,1.62306X2.3622*%
%ADD32MACRO1,0.2032X-0.7099X1.016X0.7099X1.016*%
%ADD33C,0.0189*%

%LPD*%
D10*
G01*
X10380979Y9745979D03*
G01*
X10380979Y9667239D03*
G01*
X10380979Y9585960D03*
G01*
X10380979Y9507220D03*
G01*
X10380979Y9425939D03*
G01*
X10380979Y9347200D03*
G01*
X10380979Y9265920D03*
G01*
X10380979Y9187179D03*
G01*
X10380979Y9105900D03*
G01*
X10380979Y9027160D03*
G01*
X10380979Y8945879D03*
G01*
X10380979Y8867139D03*
G01*
X10380979Y8785860D03*
G01*
X10380979Y8707120D03*
G01*
X10380979Y8625839D03*
G01*
X10380979Y8547100D03*
G01*
X10380979Y8465820D03*
G01*
X10380979Y8387079D03*
G01*
X10380979Y8305800D03*
G01*
X10380979Y8227060D03*
G01*
X10380979Y8145779D03*
G01*
X10380979Y8067039D03*
G01*
X10380979Y7985760D03*
G01*
X10380979Y7907020D03*
D11*
G01*
X10137140Y7683500D03*
G01*
X10058400Y7683500D03*
G01*
X9977120Y7683500D03*
G01*
X9898379Y7683500D03*
G01*
X9817100Y7683500D03*
G01*
X9738359Y7683500D03*
G01*
X9657079Y7683500D03*
G01*
X9578340Y7683500D03*
G01*
X9497059Y7683500D03*
G01*
X9418320Y7683500D03*
G01*
X9337040Y7683500D03*
G01*
X9258300Y7683500D03*
G01*
X9177020Y7683500D03*
G01*
X9098279Y7683500D03*
G01*
X9017000Y7683500D03*
G01*
X8938259Y7683500D03*
D10*
G01*
X8694420Y7907020D03*
G01*
X8694420Y7985760D03*
G01*
X8694420Y8067039D03*
G01*
X8694420Y8145779D03*
G01*
X8694420Y8227060D03*
G01*
X8694420Y8305800D03*
G01*
X8694420Y8387079D03*
G01*
X8694420Y8465820D03*
G01*
X8694420Y8547100D03*
G01*
X8694420Y8625839D03*
G01*
X8694420Y8707120D03*
G01*
X8694420Y8785860D03*
G01*
X8694420Y8867139D03*
G01*
X8694420Y8945879D03*
G01*
X8694420Y9027160D03*
G01*
X8694420Y9105900D03*
G01*
X8694420Y9187179D03*
G01*
X8694420Y9265920D03*
G01*
X8694420Y9347200D03*
G01*
X8694420Y9425939D03*
G01*
X8694420Y9507220D03*
G01*
X8694420Y9585960D03*
G01*
X8694420Y9667239D03*
G01*
X8694420Y9745979D03*
D11*
G01*
X8938259Y9969500D03*
G01*
X9017000Y9969500D03*
G01*
X9098279Y9969500D03*
G01*
X9177020Y9969500D03*
G01*
X9258300Y9969500D03*
G01*
X9337040Y9969500D03*
G01*
X9418320Y9969500D03*
G01*
X9497059Y9969500D03*
G01*
X9578340Y9969500D03*
G01*
X9657079Y9969500D03*
G01*
X9738359Y9969500D03*
G01*
X9817100Y9969500D03*
G01*
X9898379Y9969500D03*
G01*
X9977120Y9969500D03*
G01*
X10058400Y9969500D03*
G01*
X10137140Y9969500D03*
D12*
G01*
X10553700Y13995400D03*
G01*
X10299700Y13995400D03*
G01*
X8089900Y14071600D03*
G01*
X8089900Y14325600D03*
G01*
X11150600Y13919200D03*
G01*
X11150600Y14173200D03*
G01*
X7937500Y13690600D03*
G01*
X8191500Y13690600D03*
D13*
G01*
X10248900Y4356100D03*
G01*
X10248900Y4864100D03*
D14*
G01*
X9283700Y4762500D03*
G01*
X9283700Y4508500D03*
D15*
G01*
X7226301Y4191000D03*
D16*
G01*
X7480300Y4191000D03*
D17*
G01*
X6248400Y4927600D03*
G01*
X6248400Y3911600D03*
D14*
G01*
X13614400Y8699500D03*
G01*
X13614400Y8445500D03*
G01*
X14617700Y14770100D03*
G01*
X14363700Y14770100D03*
G01*
X5816600Y14770100D03*
G01*
X5816600Y14516100D03*
G01*
X5346700Y15659100D03*
G01*
X5092700Y15659100D03*
G01*
X13830300Y14770100D03*
G01*
X13576300Y14770100D03*
G01*
X11531600Y8534400D03*
G01*
X11785600Y8534400D03*
D13*
G01*
X12522200Y8572500D03*
G01*
X13030200Y8572500D03*
G01*
X5689600Y5372100D03*
G01*
X5689600Y4864100D03*
G01*
X13462000Y7493000D03*
G01*
X13462000Y6985000D03*
G01*
X5080000Y14338300D03*
G01*
X5080000Y14846300D03*
D18*
G01*
X11050600Y14757400D03*
G01*
X11250599Y14757400D03*
G01*
X12291999Y5029200D03*
G01*
X12092000Y5029200D03*
G01*
X6096000Y13628700D03*
G01*
X6096000Y13828699D03*
D12*
G01*
X9677400Y5842000D03*
G01*
X9931400Y5842000D03*
G01*
X9093200Y5842000D03*
G01*
X9347200Y5842000D03*
G01*
X14592300Y15544800D03*
G01*
X14592300Y15798800D03*
G01*
X6540500Y14630400D03*
G01*
X6540500Y14884400D03*
G01*
X11544300Y9626600D03*
G01*
X11798300Y9626600D03*
G01*
X9423400Y15240000D03*
G01*
X9423400Y15494000D03*
D19*
G01*
X4965700Y13665200D03*
G01*
X5473700Y13665200D03*
D20*
G01*
X10922000Y15709900D03*
D21*
G01*
X11176000Y15709900D03*
G01*
X11430000Y15709900D03*
G01*
X11684000Y15709900D03*
G01*
X11938000Y15709900D03*
G01*
X12192000Y15709900D03*
G01*
X12446000Y15709900D03*
G01*
X12700000Y15709900D03*
G01*
X12954000Y15709900D03*
D22*
G01*
X5909513Y15646400D03*
G01*
X6409512Y15646400D03*
G01*
X13542213Y15709900D03*
G01*
X14042212Y15709900D03*
D23*
G01*
X5778500Y8369298D03*
D16*
G01*
X5778500Y8115300D03*
D15*
G01*
X12052301Y4216400D03*
D16*
G01*
X12306300Y4216400D03*
D24*
G01*
X10858500Y9118600D03*
G01*
X10858500Y8864600D03*
D25*
G01*
X10858500Y8610600D03*
D26*
G01*
X9281007Y6464300D03*
G01*
X9768992Y6464300D03*
D17*
G01*
X12446000Y9118600D03*
G01*
X13462000Y9118600D03*
G01*
X11163300Y9118600D03*
G01*
X12179300Y9118600D03*
G01*
X7302500Y6870700D03*
G01*
X8318500Y6870700D03*
G01*
X7302500Y6235700D03*
G01*
X8318500Y6235700D03*
G01*
X9601200Y13741400D03*
G01*
X8585200Y13741400D03*
G01*
X9359900Y14605000D03*
G01*
X8343900Y14605000D03*
G01*
X8928100Y14173200D03*
G01*
X9944100Y14173200D03*
G01*
X10566400Y15735300D03*
G01*
X9550400Y15735300D03*
G01*
X7569200Y13474700D03*
G01*
X7569200Y14490700D03*
G01*
X7048500Y13474700D03*
G01*
X7048500Y14490700D03*
G01*
X10718800Y14605000D03*
G01*
X9702800Y14605000D03*
G01*
X10883900Y15201900D03*
G01*
X9867900Y15201900D03*
D13*
G01*
X8178800Y15011400D03*
G01*
X8432800Y15011400D03*
G01*
X8686800Y15011400D03*
G01*
X8940800Y15011400D03*
G01*
X8178800Y15773400D03*
G01*
X8432800Y15773400D03*
G01*
X8686800Y15773400D03*
D27*
G01*
X8940800Y15773400D03*
D14*
G01*
X4851654Y6760718D03*
G01*
X4851654Y6483857D03*
G01*
X4851654Y6206744D03*
G01*
X4851654Y5929884D03*
G01*
X4851654Y5652770D03*
G01*
X4851654Y5375910D03*
G01*
X4851654Y5098795D03*
D28*
G01*
X4855184Y4823510D03*
D14*
G01*
X4567427Y6623812D03*
G01*
X4567427Y6346952D03*
G01*
X4567427Y6069837D03*
G01*
X4567427Y5792978D03*
G01*
X4567427Y5515863D03*
G01*
X4567427Y5239004D03*
G01*
X4567427Y4961889D03*
D29*
G01*
X4712461Y4127500D03*
G01*
X4712970Y7457439D03*
D14*
G01*
X14350745Y4834381D03*
G01*
X14350745Y5111242D03*
G01*
X14350745Y5388355D03*
G01*
X14350745Y5665215D03*
G01*
X14350745Y5942329D03*
G01*
X14350745Y6219189D03*
G01*
X14350745Y6496304D03*
D30*
G01*
X14347215Y6771589D03*
D14*
G01*
X14634972Y4971287D03*
G01*
X14634972Y5248147D03*
G01*
X14634972Y5525262D03*
G01*
X14634972Y5802121D03*
G01*
X14634972Y6079236D03*
G01*
X14634972Y6356095D03*
G01*
X14634972Y6633210D03*
D29*
G01*
X14489938Y7467600D03*
G01*
X14489429Y4137660D03*
D31*
G01*
X6413500Y12623800D03*
G01*
X6413500Y12115800D03*
G01*
X6159500Y12623800D03*
G01*
X6667500Y12623800D03*
G01*
X6921500Y12623800D03*
G01*
X5905500Y12623800D03*
D32*
G01*
X5905500Y12115800D03*
D31*
G01*
X6159500Y12115800D03*
G01*
X6667500Y12115800D03*
G01*
X6921500Y12115800D03*
G01*
X7175500Y12623800D03*
G01*
X7175500Y12115800D03*
G01*
X7937500Y12623800D03*
G01*
X7937500Y12115800D03*
G01*
X7683500Y12623800D03*
G01*
X8191500Y12623800D03*
G01*
X8445500Y12623800D03*
G01*
X7429500Y12623800D03*
G01*
X7429500Y12115800D03*
G01*
X7683500Y12115800D03*
G01*
X8191500Y12115800D03*
G01*
X8445500Y12115800D03*
G01*
X8699500Y12623800D03*
G01*
X8699500Y12115800D03*
G01*
X9461500Y12623800D03*
G01*
X9461500Y12115800D03*
G01*
X9207500Y12623800D03*
G01*
X9715500Y12623800D03*
G01*
X9969500Y12623800D03*
G01*
X8953500Y12623800D03*
G01*
X8953500Y12115800D03*
G01*
X9207500Y12115800D03*
G01*
X9715500Y12115800D03*
G01*
X9969500Y12115800D03*
G01*
X10223500Y12623800D03*
G01*
X10223500Y12115800D03*
G01*
X10985500Y12623800D03*
G01*
X10985500Y12115800D03*
G01*
X10731500Y12623800D03*
G01*
X11239500Y12623800D03*
G01*
X11493500Y12623800D03*
G01*
X10477500Y12623800D03*
G01*
X10477500Y12115800D03*
G01*
X10731500Y12115800D03*
G01*
X11239500Y12115800D03*
G01*
X11493500Y12115800D03*
G01*
X11747500Y12623800D03*
G01*
X11747500Y12115800D03*
G01*
X12509500Y12623800D03*
G01*
X12509500Y12115800D03*
G01*
X12255500Y12623800D03*
G01*
X12763500Y12623800D03*
G01*
X13017500Y12623800D03*
G01*
X12001500Y12623800D03*
G01*
X12001500Y12115800D03*
G01*
X12255500Y12115800D03*
G01*
X12763500Y12115800D03*
G01*
X13017500Y12115800D03*
G01*
X13271500Y12623800D03*
G01*
X13271500Y12115800D03*
D32*
G01*
X5905500Y12115800D03*
D31*
G01*
X5905500Y12623800D03*
M02*
