G04 Layer: TopSilkscreenLayer*
G04 EasyEDA v6.5.42, 2024-04-13 20:59:12*
G04 594e40a4052f4cff86669ddfe18c1731,a2f4cb7aa3704937908c5b59a0d1150c,10*
G04 Gerber Generator version 0.2*
G04 Scale: 100 percent, Rotated: No, Reflected: No *
G04 Dimensions in millimeters *
G04 leading zeros omitted , absolute positions ,4 integer and 5 decimal *
%FSLAX45Y45*%
%MOMM*%

%ADD10C,0.2032*%
%ADD11C,0.4000*%
%ADD12C,0.1524*%
%ADD13C,0.2007*%
%ADD14C,0.2540*%
%ADD15C,0.2030*%
%ADD16C,0.2000*%
%ADD17C,0.6000*%
%ADD18C,0.3000*%
%ADD19C,0.0189*%

%LPD*%
G36*
X8914180Y9837216D02*
G01*
X8877300Y9829800D01*
X8871000Y9828377D01*
X8864803Y9826701D01*
X8852814Y9822586D01*
X8841587Y9817709D01*
X8831376Y9812375D01*
X8826754Y9809581D01*
X8818676Y9803892D01*
X8815222Y9801098D01*
X8812276Y9798304D01*
X8809837Y9795611D01*
X8807907Y9793071D01*
X8806535Y9790633D01*
X8805773Y9788398D01*
X8805672Y9786366D01*
X8806230Y9784537D01*
X8807500Y9782962D01*
X8809482Y9781743D01*
X8812276Y9780778D01*
X8815882Y9780219D01*
X8820302Y9780016D01*
X8826652Y9779355D01*
X8832037Y9777526D01*
X8836304Y9774529D01*
X8839454Y9770567D01*
X8841384Y9765588D01*
X8842095Y9759797D01*
X8841536Y9753295D01*
X8839606Y9746081D01*
X8833866Y9729419D01*
X8787688Y9748723D01*
X8725255Y9721392D01*
X8676182Y9631121D01*
X8676189Y9584740D01*
X8768435Y9584740D01*
X8777020Y9621113D01*
X8781999Y9638385D01*
X8787434Y9653574D01*
X8790279Y9660382D01*
X8793175Y9666579D01*
X8796121Y9672167D01*
X8799118Y9677196D01*
X8802116Y9681514D01*
X8805113Y9685223D01*
X8808110Y9688271D01*
X8811107Y9690608D01*
X8814054Y9692284D01*
X8816898Y9693148D01*
X8819743Y9693300D01*
X8822486Y9692690D01*
X8825128Y9691268D01*
X8827617Y9689084D01*
X8830056Y9686036D01*
X8831630Y9682835D01*
X8832596Y9678974D01*
X8832951Y9674504D01*
X8832799Y9669526D01*
X8832138Y9664090D01*
X8831072Y9658299D01*
X8829548Y9652203D01*
X8825382Y9639452D01*
X8819997Y9626498D01*
X8816949Y9620097D01*
X8810345Y9607956D01*
X8806840Y9602368D01*
X8803284Y9597186D01*
X8799728Y9592462D01*
X8796121Y9588347D01*
X8792616Y9584842D01*
X8789162Y9582099D01*
X8785860Y9580118D01*
X8782710Y9579051D01*
X8779764Y9578898D01*
X8777071Y9579813D01*
X8768435Y9584740D01*
X8676189Y9584740D01*
X8676538Y9572345D01*
X8677554Y9559696D01*
X8679027Y9547809D01*
X8681008Y9537242D01*
X8683294Y9528657D01*
X8684564Y9525254D01*
X8685885Y9522612D01*
X8695537Y9506051D01*
X8758783Y9506051D01*
X8814155Y9548825D01*
X8825839Y9506051D01*
X8844737Y9506051D01*
X8849258Y9506407D01*
X8854948Y9507423D01*
X8861602Y9508998D01*
X8876690Y9513671D01*
X8884716Y9516618D01*
X8892743Y9519869D01*
X8900515Y9523323D01*
X8937498Y9540646D01*
X8937498Y9557562D01*
X8936736Y9564166D01*
X8934754Y9569551D01*
X8931757Y9573209D01*
X8928150Y9574530D01*
X8926728Y9574784D01*
X8925407Y9575596D01*
X8924239Y9576968D01*
X8923172Y9578797D01*
X8922258Y9581134D01*
X8921445Y9583978D01*
X8920226Y9591090D01*
X8919464Y9600031D01*
X8919210Y9610699D01*
X8919464Y9622993D01*
X8920226Y9636810D01*
X8921496Y9652050D01*
X8923274Y9668713D01*
X8925509Y9686544D01*
X8940698Y9788144D01*
X8945626Y9822789D01*
G37*
G36*
X7995615Y9831374D02*
G01*
X7889798Y9831019D01*
X7870494Y9830663D01*
X7852054Y9829952D01*
X7834985Y9828936D01*
X7819745Y9827717D01*
X7806791Y9826294D01*
X7796580Y9824720D01*
X7789570Y9822992D01*
X7787386Y9822129D01*
X7782712Y9819284D01*
X7778851Y9816185D01*
X7775854Y9812934D01*
X7773619Y9809480D01*
X7772298Y9805873D01*
X7771739Y9802164D01*
X7772044Y9798354D01*
X7773212Y9794544D01*
X7775194Y9790633D01*
X7778038Y9786772D01*
X7781696Y9782962D01*
X7786166Y9779152D01*
X7801305Y9767620D01*
X7794091Y9687814D01*
X7791958Y9667138D01*
X7789672Y9648444D01*
X7787182Y9631578D01*
X7784541Y9616592D01*
X7781696Y9603282D01*
X7778597Y9591649D01*
X7777022Y9586468D01*
X7773568Y9577171D01*
X7769859Y9569348D01*
X7766828Y9564420D01*
X7898790Y9564420D01*
X7905242Y9675063D01*
X7906664Y9695434D01*
X7908239Y9713468D01*
X7909915Y9729266D01*
X7911846Y9742932D01*
X7914030Y9754463D01*
X7916468Y9763963D01*
X7919262Y9771481D01*
X7920786Y9774529D01*
X7922412Y9777120D01*
X7924139Y9779254D01*
X7925968Y9780981D01*
X7927898Y9782251D01*
X7929981Y9783064D01*
X7932115Y9783470D01*
X7934452Y9783470D01*
X7936890Y9783064D01*
X7939430Y9782302D01*
X7942173Y9781133D01*
X7948066Y9777679D01*
X7954518Y9772802D01*
X7961680Y9766554D01*
X7976362Y9753092D01*
X7976311Y9630156D01*
X7943697Y9570262D01*
X7898790Y9564420D01*
X7766828Y9564420D01*
X7763713Y9560255D01*
X7761528Y9557867D01*
X7756906Y9554057D01*
X7741056Y9543440D01*
X7747965Y9510318D01*
X7848853Y9507626D01*
X7867751Y9507372D01*
X7885277Y9507474D01*
X7901584Y9507931D01*
X7916773Y9508744D01*
X7930896Y9509912D01*
X7944053Y9511487D01*
X7956296Y9513468D01*
X7967776Y9515906D01*
X7978495Y9518802D01*
X7988655Y9522206D01*
X7998206Y9526066D01*
X8007350Y9530435D01*
X8016138Y9535312D01*
X8024622Y9540748D01*
X8032953Y9546793D01*
X8069478Y9576155D01*
X8085836Y9626904D01*
X8089696Y9641078D01*
X8092744Y9654794D01*
X8094878Y9668103D01*
X8096250Y9681057D01*
X8096707Y9693706D01*
X8096656Y9699904D01*
X8095843Y9712096D01*
X8094218Y9723983D01*
X8091728Y9735667D01*
X8088375Y9747148D01*
X8084159Y9758476D01*
X8079079Y9769602D01*
X8060944Y9806330D01*
G37*
G36*
X8282431Y9745065D02*
G01*
X8276437Y9744913D01*
X8270341Y9744456D01*
X8264093Y9743694D01*
X8257692Y9742627D01*
X8251139Y9741255D01*
X8237677Y9737547D01*
X8230768Y9735261D01*
X8216646Y9729724D01*
X8167878Y9707219D01*
X8123594Y9648748D01*
X8219287Y9648748D01*
X8220151Y9655454D01*
X8221980Y9662769D01*
X8224824Y9670288D01*
X8228634Y9677806D01*
X8231936Y9682937D01*
X8235238Y9687102D01*
X8238490Y9690201D01*
X8241639Y9692335D01*
X8244636Y9693503D01*
X8247380Y9693706D01*
X8249869Y9692944D01*
X8252053Y9691166D01*
X8253831Y9688474D01*
X8255152Y9684816D01*
X8256016Y9680244D01*
X8256320Y9674707D01*
X8255609Y9667392D01*
X8253679Y9660178D01*
X8250681Y9653422D01*
X8246770Y9647275D01*
X8242249Y9642043D01*
X8237220Y9638030D01*
X8231886Y9635388D01*
X8226450Y9634474D01*
X8223046Y9635490D01*
X8220760Y9638487D01*
X8219490Y9643008D01*
X8219287Y9648748D01*
X8123594Y9648748D01*
X8113014Y9634778D01*
X8111642Y9547402D01*
X8164017Y9506051D01*
X8250428Y9506051D01*
X8297265Y9527032D01*
X8304072Y9530486D01*
X8310321Y9534042D01*
X8315909Y9537598D01*
X8320887Y9541205D01*
X8325256Y9544761D01*
X8329015Y9548317D01*
X8332063Y9551822D01*
X8334451Y9555327D01*
X8336178Y9558731D01*
X8337245Y9562084D01*
X8337600Y9565335D01*
X8337245Y9568484D01*
X8336127Y9571532D01*
X8334349Y9574428D01*
X8331758Y9577171D01*
X8322665Y9585553D01*
X8295030Y9575088D01*
X8286902Y9572294D01*
X8278723Y9570161D01*
X8270646Y9568637D01*
X8262772Y9567722D01*
X8255203Y9567418D01*
X8248091Y9567672D01*
X8241538Y9568535D01*
X8235645Y9569907D01*
X8230565Y9571837D01*
X8226399Y9574377D01*
X8223250Y9577374D01*
X8221268Y9580930D01*
X8217408Y9591649D01*
X8237321Y9591649D01*
X8242808Y9591903D01*
X8248548Y9592614D01*
X8254492Y9593834D01*
X8260638Y9595459D01*
X8266887Y9597491D01*
X8273186Y9599879D01*
X8279536Y9602673D01*
X8285886Y9605772D01*
X8292134Y9609175D01*
X8298281Y9612884D01*
X8304275Y9616846D01*
X8310067Y9621062D01*
X8315553Y9625482D01*
X8320786Y9630054D01*
X8325662Y9634829D01*
X8330133Y9639706D01*
X8349589Y9662464D01*
X8349589Y9719106D01*
X8328863Y9732416D01*
X8324443Y9735058D01*
X8319770Y9737394D01*
X8314944Y9739426D01*
X8309965Y9741154D01*
X8304784Y9742525D01*
X8299450Y9743643D01*
X8293912Y9744405D01*
X8288274Y9744913D01*
G37*
G36*
X9061958Y9744811D02*
G01*
X9028582Y9728809D01*
X9016898Y9722510D01*
X9006078Y9715804D01*
X8996070Y9708743D01*
X8987078Y9701479D01*
X8979103Y9693960D01*
X8972143Y9686340D01*
X8966403Y9678568D01*
X8954871Y9659061D01*
X8977274Y9634270D01*
X8989618Y9643668D01*
X8992616Y9645751D01*
X8995410Y9647377D01*
X8998153Y9648545D01*
X9000744Y9649206D01*
X9003284Y9649307D01*
X9005773Y9648901D01*
X9008211Y9647885D01*
X9010650Y9646259D01*
X9013088Y9644024D01*
X9015526Y9641128D01*
X9018016Y9637572D01*
X9020556Y9633305D01*
X9025940Y9622536D01*
X9031782Y9608616D01*
X9038234Y9591395D01*
X9045448Y9570669D01*
X9069730Y9499142D01*
X9059113Y9480956D01*
X9056166Y9476536D01*
X9052966Y9473031D01*
X9049664Y9470440D01*
X9046413Y9468713D01*
X9043314Y9467850D01*
X9040469Y9467850D01*
X9038082Y9468612D01*
X9036202Y9470237D01*
X9034983Y9472574D01*
X9034576Y9475724D01*
X9035084Y9479635D01*
X9036608Y9484258D01*
X9037726Y9490252D01*
X9037066Y9497872D01*
X9034830Y9506102D01*
X9031173Y9513925D01*
X9020810Y9531705D01*
X8999677Y9531705D01*
X8992666Y9531400D01*
X8986266Y9530384D01*
X8980474Y9528759D01*
X8975344Y9526422D01*
X8970822Y9523476D01*
X8966911Y9519818D01*
X8963609Y9515500D01*
X8960916Y9510471D01*
X8958834Y9504781D01*
X8957310Y9498380D01*
X8956446Y9491319D01*
X8956141Y9483547D01*
X8956141Y9455912D01*
X9007449Y9418777D01*
X9084716Y9426651D01*
X9152229Y9473895D01*
X9219844Y9599472D01*
X9228988Y9716312D01*
X9214358Y9727387D01*
X9211005Y9729571D01*
X9206992Y9731502D01*
X9202572Y9733127D01*
X9197746Y9734448D01*
X9192768Y9735362D01*
X9187789Y9735921D01*
X9182912Y9736023D01*
X9178290Y9735718D01*
X9156750Y9732924D01*
X9153652Y9712858D01*
X9153296Y9708286D01*
X9153347Y9703104D01*
X9153804Y9697466D01*
X9154718Y9691522D01*
X9155938Y9685477D01*
X9157512Y9679482D01*
X9159392Y9673742D01*
X9161526Y9668459D01*
X9172498Y9644126D01*
X9164777Y9612122D01*
X9161729Y9602927D01*
X9160205Y9599472D01*
X9158579Y9596831D01*
X9156903Y9595002D01*
X9155125Y9593986D01*
X9153245Y9593783D01*
X9151315Y9594443D01*
X9149232Y9595967D01*
X9147048Y9598304D01*
X9144711Y9601555D01*
X9142171Y9605670D01*
X9136684Y9616592D01*
X9130436Y9631222D01*
X9123324Y9649612D01*
X9094520Y9728809D01*
G37*
G36*
X8600389Y9744049D02*
G01*
X8591956Y9743389D01*
X8582761Y9741509D01*
X8577935Y9740138D01*
X8567775Y9736429D01*
X8556955Y9731552D01*
X8545474Y9725406D01*
X8523071Y9711690D01*
X8514334Y9706965D01*
X8508136Y9704324D01*
X8505393Y9704171D01*
X8496706Y9718751D01*
X8492998Y9724593D01*
X8489543Y9729520D01*
X8486241Y9733584D01*
X8482990Y9736785D01*
X8479688Y9739223D01*
X8476183Y9740900D01*
X8472373Y9741865D01*
X8468207Y9742170D01*
X8463584Y9741865D01*
X8458301Y9740950D01*
X8452307Y9739477D01*
X8437727Y9735007D01*
X8421725Y9729520D01*
X8414766Y9726625D01*
X8408162Y9723526D01*
X8401913Y9720173D01*
X8396020Y9716719D01*
X8390585Y9713112D01*
X8385657Y9709454D01*
X8381238Y9705797D01*
X8377326Y9702139D01*
X8374075Y9698583D01*
X8371382Y9695180D01*
X8369401Y9691878D01*
X8368131Y9688830D01*
X8367572Y9686036D01*
X8367826Y9683546D01*
X8368944Y9681413D01*
X8370874Y9679686D01*
X8373719Y9678365D01*
X8377478Y9677552D01*
X8382253Y9677247D01*
X8396274Y9677247D01*
X8395716Y9635591D01*
X8395055Y9623755D01*
X8393938Y9610750D01*
X8392414Y9597288D01*
X8390585Y9584131D01*
X8388553Y9572040D01*
X8385962Y9558680D01*
X8384743Y9550908D01*
X8383828Y9543440D01*
X8383219Y9536430D01*
X8382965Y9530130D01*
X8383016Y9524695D01*
X8383422Y9520377D01*
X8384235Y9517329D01*
X8388959Y9506051D01*
X8418830Y9506051D01*
X8425129Y9506254D01*
X8431631Y9506864D01*
X8438184Y9507880D01*
X8444484Y9509201D01*
X8450478Y9510776D01*
X8455863Y9512604D01*
X8460536Y9514586D01*
X8464296Y9516719D01*
X8479891Y9527438D01*
X8490305Y9594951D01*
X8491778Y9602927D01*
X8495182Y9617659D01*
X8499043Y9630714D01*
X8503259Y9641992D01*
X8505494Y9646920D01*
X8507831Y9651339D01*
X8510219Y9655302D01*
X8512657Y9658756D01*
X8515146Y9661652D01*
X8517686Y9663988D01*
X8520277Y9665817D01*
X8522868Y9667036D01*
X8525510Y9667697D01*
X8528151Y9667748D01*
X8530793Y9667189D01*
X8533434Y9666020D01*
X8541766Y9661296D01*
X8524138Y9522256D01*
X8544153Y9503867D01*
X8576868Y9509506D01*
X8583879Y9510979D01*
X8591245Y9512960D01*
X8598763Y9515398D01*
X8606231Y9518192D01*
X8613444Y9521240D01*
X8620099Y9524441D01*
X8626043Y9527743D01*
X8631021Y9531096D01*
X8652459Y9546996D01*
X8628126Y9588652D01*
X8640013Y9649206D01*
X8642045Y9663023D01*
X8643162Y9675825D01*
X8643366Y9687509D01*
X8642756Y9698177D01*
X8641232Y9707727D01*
X8640165Y9712096D01*
X8638895Y9716211D01*
X8637422Y9720072D01*
X8635746Y9723577D01*
X8633866Y9726879D01*
X8631783Y9729876D01*
X8629497Y9732568D01*
X8627008Y9735007D01*
X8624366Y9737140D01*
X8621471Y9738969D01*
X8618423Y9740544D01*
X8615222Y9741814D01*
X8611768Y9742830D01*
X8608161Y9743541D01*
X8604351Y9743948D01*
G37*
G36*
X8421370Y9408058D02*
G01*
X8408111Y9407804D01*
X8396579Y9407042D01*
X8388400Y9406077D01*
X8370214Y9403232D01*
X8345728Y9398965D01*
X8310981Y9392564D01*
X8230463Y9376867D01*
X8144357Y9320733D01*
X8009026Y9352280D01*
X7929981Y9341459D01*
X7864449Y9274860D01*
X7830972Y9274810D01*
X7821218Y9274200D01*
X7811820Y9272930D01*
X7802727Y9271050D01*
X7793990Y9268561D01*
X7785557Y9265412D01*
X7777429Y9261602D01*
X7769606Y9257233D01*
X7762138Y9252204D01*
X7755026Y9246514D01*
X7748168Y9240215D01*
X7741666Y9233255D01*
X7735468Y9225686D01*
X7729575Y9217456D01*
X7723987Y9208566D01*
X7718704Y9199067D01*
X7713776Y9188907D01*
X7709153Y9178086D01*
X7704836Y9166656D01*
X7700822Y9154515D01*
X7697114Y9141764D01*
X7693710Y9128404D01*
X7690612Y9114332D01*
X7687818Y9099651D01*
X7683953Y9073997D01*
X7712608Y9073997D01*
X7725257Y9127744D01*
X7729270Y9141053D01*
X7733944Y9153855D01*
X7739278Y9165996D01*
X7745222Y9177578D01*
X7751724Y9188450D01*
X7758734Y9198559D01*
X7766253Y9207957D01*
X7770164Y9212326D01*
X7778343Y9220403D01*
X7782509Y9224111D01*
X7791196Y9230817D01*
X7795615Y9233814D01*
X7804708Y9239046D01*
X7814005Y9243263D01*
X7818729Y9244939D01*
X7823453Y9246311D01*
X7828280Y9247428D01*
X7833055Y9248241D01*
X7837931Y9248749D01*
X7863128Y9249206D01*
X7866776Y9238640D01*
X7907223Y9238640D01*
X7907426Y9243466D01*
X7907934Y9248394D01*
X7908798Y9253321D01*
X7909966Y9258350D01*
X7911490Y9263430D01*
X7922869Y9293809D01*
X7957159Y9307423D01*
X7967014Y9310878D01*
X7976412Y9313519D01*
X7985759Y9315399D01*
X7995412Y9316466D01*
X8005724Y9316770D01*
X8013765Y9316516D01*
X8189772Y9316516D01*
X8215782Y9330029D01*
X8226196Y9334855D01*
X8250783Y9345168D01*
X8274964Y9354159D01*
X8284921Y9357410D01*
X8292338Y9359392D01*
X8294878Y9359849D01*
X8295284Y9359290D01*
X8294217Y9357410D01*
X8288070Y9350248D01*
X8277453Y9339478D01*
X8263432Y9326270D01*
X8245551Y9310217D01*
X8238490Y9304324D01*
X8232394Y9299752D01*
X8227212Y9296450D01*
X8222691Y9294368D01*
X8218678Y9293453D01*
X8215020Y9293656D01*
X8211566Y9294876D01*
X8208213Y9297111D01*
X8204657Y9300210D01*
X8189772Y9316516D01*
X8013765Y9316516D01*
X8023301Y9315805D01*
X8037017Y9314281D01*
X8052663Y9311995D01*
X8070748Y9308998D01*
X8079689Y9307271D01*
X8089392Y9305036D01*
X8099653Y9302343D01*
X8110474Y9299194D01*
X8133435Y9291726D01*
X8145424Y9287510D01*
X8163915Y9280550D01*
X8183610Y9272574D01*
X8263636Y9272574D01*
X8293303Y9302038D01*
X8300720Y9308287D01*
X8309762Y9315094D01*
X8320074Y9322206D01*
X8331301Y9329470D01*
X8343087Y9336582D01*
X8355126Y9343390D01*
X8367115Y9349689D01*
X8428939Y9379305D01*
X8544356Y9371126D01*
X8592769Y9349486D01*
X8602065Y9344507D01*
X8610848Y9339224D01*
X8683701Y9339224D01*
X8683752Y9340342D01*
X8684310Y9341053D01*
X8685428Y9341408D01*
X8687104Y9341358D01*
X8692032Y9340088D01*
X8699144Y9337243D01*
X8708390Y9332925D01*
X8719820Y9327083D01*
X8733434Y9319768D01*
X8747963Y9311640D01*
X8761526Y9303308D01*
X8774277Y9294825D01*
X8785656Y9286494D01*
X8794953Y9278874D01*
X8798712Y9275470D01*
X8801709Y9272371D01*
X8803894Y9269679D01*
X8816644Y9251645D01*
X8791702Y9232646D01*
X8725001Y9294418D01*
X8702700Y9315907D01*
X8694775Y9324187D01*
X8688933Y9330791D01*
X8685276Y9335820D01*
X8684209Y9337751D01*
X8683701Y9339224D01*
X8610848Y9339224D01*
X8617864Y9334754D01*
X8629294Y9326981D01*
X8641232Y9318396D01*
X8653526Y9309100D01*
X8665870Y9299397D01*
X8690203Y9279077D01*
X8701735Y9268815D01*
X8712555Y9258757D01*
X8722563Y9249054D01*
X8731453Y9239808D01*
X8739124Y9231274D01*
X8745270Y9223502D01*
X8749792Y9216796D01*
X8759494Y9200184D01*
X8754658Y9191599D01*
X8808059Y9191599D01*
X8824468Y9214408D01*
X8830868Y9222130D01*
X8837930Y9229598D01*
X8845600Y9236811D01*
X8853881Y9243720D01*
X8862720Y9250375D01*
X8872016Y9256725D01*
X8881821Y9262719D01*
X8892082Y9268409D01*
X8902700Y9273794D01*
X8913723Y9278772D01*
X8925052Y9283446D01*
X8936685Y9287764D01*
X8948521Y9291624D01*
X8960612Y9295180D01*
X8972905Y9298279D01*
X8985300Y9300972D01*
X8997797Y9303258D01*
X9010345Y9305137D01*
X9022943Y9306560D01*
X9035542Y9307474D01*
X9048089Y9307982D01*
X9060535Y9307982D01*
X9072880Y9307525D01*
X9085072Y9306560D01*
X9097060Y9305036D01*
X9108795Y9303054D01*
X9120276Y9300514D01*
X9130588Y9297670D01*
X9139631Y9294520D01*
X9148267Y9290812D01*
X9156496Y9286544D01*
X9164320Y9281718D01*
X9171736Y9276334D01*
X9178747Y9270441D01*
X9185351Y9263989D01*
X9191548Y9257030D01*
X9197340Y9249511D01*
X9202724Y9241536D01*
X9207652Y9233001D01*
X9212173Y9223959D01*
X9216288Y9214408D01*
X9219996Y9204401D01*
X9223248Y9193885D01*
X9226092Y9182912D01*
X9228531Y9171381D01*
X9230512Y9159443D01*
X9232087Y9146997D01*
X9233204Y9134144D01*
X9233916Y9120784D01*
X9234170Y9106966D01*
X9234017Y9092742D01*
X9233408Y9078061D01*
X9232341Y9062923D01*
X9230817Y9047378D01*
X9228886Y9031376D01*
X9226499Y9014968D01*
X9223705Y8998153D01*
X9221165Y8984843D01*
X9216288Y8963863D01*
X9209735Y8939885D01*
X9201759Y8913520D01*
X9192564Y8885377D01*
X9182404Y8856014D01*
X9171584Y8825941D01*
X9154414Y8780932D01*
X9142780Y8751824D01*
X9131198Y8724087D01*
X9119971Y8698331D01*
X9109303Y8675116D01*
X9099448Y8654999D01*
X9090609Y8638590D01*
X9086697Y8631986D01*
X9083040Y8626500D01*
X9079839Y8622233D01*
X9076994Y8619236D01*
X9074607Y8617610D01*
X9073591Y8617356D01*
X9072676Y8617407D01*
X9071914Y8617915D01*
X9071102Y8619337D01*
X9070898Y8621623D01*
X9071356Y8624722D01*
X9072372Y8628634D01*
X9076283Y8638743D01*
X9082481Y8651748D01*
X9090964Y8667546D01*
X9101582Y8685936D01*
X9115399Y8709101D01*
X9106865Y8724442D01*
X9104934Y8728405D01*
X9100261Y8740190D01*
X9095028Y8755684D01*
X9089898Y8773007D01*
X9076791Y8823655D01*
X9100058Y8847328D01*
X9105036Y8852966D01*
X9109557Y8858504D01*
X9113621Y8863990D01*
X9117228Y8869324D01*
X9120378Y8874556D01*
X9123070Y8879687D01*
X9125356Y8884716D01*
X9127134Y8889542D01*
X9128506Y8894267D01*
X9129420Y8898788D01*
X9129928Y8903157D01*
X9129928Y8907373D01*
X9129522Y8911336D01*
X9128709Y8915146D01*
X9127439Y8918702D01*
X9125712Y8922054D01*
X9123578Y8925153D01*
X9120987Y8928049D01*
X9117990Y8930640D01*
X9114586Y8932976D01*
X9110726Y8935059D01*
X9106458Y8936837D01*
X9101734Y8938310D01*
X9096654Y8939479D01*
X9091117Y8940292D01*
X9085122Y8940800D01*
X9078772Y8941003D01*
X9053423Y8941003D01*
X8999728Y8890965D01*
X8986215Y8878773D01*
X8975191Y8869375D01*
X8966403Y8862771D01*
X8962745Y8860485D01*
X8959596Y8858910D01*
X8956852Y8857945D01*
X8954516Y8857640D01*
X8952585Y8857996D01*
X8950909Y8859012D01*
X8949639Y8860637D01*
X8948572Y8862872D01*
X8947759Y8865717D01*
X8946794Y8873286D01*
X8946184Y8888476D01*
X8944914Y8899753D01*
X8942628Y8911691D01*
X8939479Y8924036D01*
X8935567Y8936431D01*
X8930995Y8948572D01*
X8925915Y8960154D01*
X8920429Y8970822D01*
X8914638Y8980271D01*
X8911691Y8984437D01*
X8908694Y8988196D01*
X8903055Y8994444D01*
X8900668Y8997848D01*
X8898585Y9001556D01*
X8896756Y9005620D01*
X8895181Y9009989D01*
X8893911Y9014663D01*
X8892895Y9019692D01*
X8892133Y9025026D01*
X8891676Y9030614D01*
X8891473Y9036507D01*
X8891930Y9049105D01*
X8892540Y9055760D01*
X8894622Y9069832D01*
X8896045Y9077248D01*
X8899804Y9092641D01*
X8904579Y9108846D01*
X8918397Y9151416D01*
X8945575Y9175343D01*
X8950198Y9179153D01*
X8955328Y9182811D01*
X8960815Y9186316D01*
X8966657Y9189669D01*
X8972804Y9192818D01*
X8985859Y9198559D01*
X8992666Y9201099D01*
X9006636Y9205468D01*
X9020759Y9208820D01*
X9027820Y9210090D01*
X9034729Y9211056D01*
X9041536Y9211716D01*
X9048191Y9212072D01*
X9054592Y9212072D01*
X9060738Y9211767D01*
X9066580Y9211106D01*
X9078366Y9208922D01*
X9084056Y9208566D01*
X9088983Y9208871D01*
X9093149Y9209836D01*
X9096502Y9211310D01*
X9098889Y9213342D01*
X9100362Y9215729D01*
X9100820Y9218523D01*
X9100210Y9221622D01*
X9098483Y9224975D01*
X9095587Y9228480D01*
X9091422Y9232087D01*
X9077604Y9242653D01*
X8956446Y9235541D01*
X8924340Y9207449D01*
X8917686Y9200692D01*
X8910574Y9192717D01*
X8903157Y9183725D01*
X8895791Y9174073D01*
X8888577Y9164015D01*
X8881821Y9153855D01*
X8875725Y9143949D01*
X8847531Y9093250D01*
X8808059Y9191599D01*
X8754658Y9191599D01*
X8721699Y9133179D01*
X8704478Y9103766D01*
X8697163Y9091828D01*
X8691219Y9082582D01*
X8687054Y9076639D01*
X8684920Y9074505D01*
X8682482Y9073642D01*
X8679180Y9073286D01*
X8675014Y9073489D01*
X8669985Y9074150D01*
X8664143Y9075318D01*
X8650173Y9079026D01*
X8633409Y9084564D01*
X8614105Y9091676D01*
X8592566Y9100362D01*
X8568994Y9110472D01*
X8543696Y9121800D01*
X8516975Y9134348D01*
X8489035Y9147911D01*
X8460232Y9162389D01*
X8438184Y9173768D01*
X8393531Y9197695D01*
X8363661Y9214307D01*
X8334095Y9231376D01*
X8263636Y9272574D01*
X8183610Y9272574D01*
X8208009Y9262059D01*
X8239048Y9247530D01*
X8262670Y9235389D01*
X8273948Y9229293D01*
X8284718Y9223146D01*
X8323224Y9199829D01*
X8366099Y9175140D01*
X8395817Y9158579D01*
X8424875Y9142780D01*
X8506256Y9099092D01*
X8186318Y9105341D01*
X8083651Y9087916D01*
X7967980Y9138361D01*
X7935722Y9174429D01*
X7927441Y9184843D01*
X7923834Y9189974D01*
X7917738Y9199930D01*
X7915198Y9204858D01*
X7913014Y9209735D01*
X7909712Y9219387D01*
X7908594Y9224162D01*
X7907781Y9228988D01*
X7907324Y9233763D01*
X7907223Y9238640D01*
X7866776Y9238640D01*
X7869021Y9232138D01*
X7871053Y9224670D01*
X7871663Y9217964D01*
X7870901Y9212072D01*
X7868818Y9207144D01*
X7865465Y9203182D01*
X7860944Y9200235D01*
X7855153Y9198457D01*
X7843723Y9197340D01*
X7838744Y9196019D01*
X7833410Y9193885D01*
X7827975Y9191142D01*
X7822539Y9187891D01*
X7817307Y9184284D01*
X7812430Y9180372D01*
X7808061Y9176359D01*
X7804353Y9172295D01*
X7801508Y9168333D01*
X7799730Y9164624D01*
X7799070Y9161272D01*
X7799070Y9153093D01*
X7880045Y9164218D01*
X8001304Y9083141D01*
X8001050Y9079992D01*
X7996936Y9058605D01*
X7981137Y8986977D01*
X7978190Y8972346D01*
X7973398Y8945270D01*
X8022183Y8945270D01*
X8028330Y9010548D01*
X8030921Y9031122D01*
X8033715Y9047937D01*
X8035086Y9054287D01*
X8036356Y9058910D01*
X8037525Y9061602D01*
X8042808Y9069476D01*
X8078978Y9051696D01*
X8063890Y9030512D01*
X8056981Y9019743D01*
X8049310Y9006128D01*
X8041843Y8991396D01*
X8038439Y8984183D01*
X8022183Y8945270D01*
X7973398Y8945270D01*
X7969453Y8919464D01*
X7965998Y8891473D01*
X7964830Y8879027D01*
X7964119Y8868003D01*
X7962557Y8812834D01*
X8050377Y8812834D01*
X8050733Y8815933D01*
X8052409Y8819032D01*
X8055406Y8821877D01*
X8059572Y8824417D01*
X8064855Y8826550D01*
X8071205Y8828227D01*
X8078470Y8829294D01*
X8086648Y8829700D01*
X8109915Y8829700D01*
X8100833Y8820505D01*
X8116620Y8820505D01*
X8129727Y8815882D01*
X8135264Y8813088D01*
X8140496Y8809024D01*
X8144967Y8804148D01*
X8147964Y8799068D01*
X8149844Y8793276D01*
X8149894Y8789416D01*
X8148472Y8787485D01*
X8145780Y8787333D01*
X8142122Y8788958D01*
X8137804Y8792260D01*
X8132978Y8797188D01*
X8128050Y8803690D01*
X8116620Y8820505D01*
X8100833Y8820505D01*
X8093557Y8813139D01*
X8086191Y8807094D01*
X8078165Y8802827D01*
X8070494Y8800744D01*
X8064144Y8801201D01*
X8058251Y8803792D01*
X8054086Y8806637D01*
X8051444Y8809685D01*
X8050377Y8812834D01*
X7962557Y8812834D01*
X7962392Y8806688D01*
X7972806Y8794648D01*
X7975142Y8791600D01*
X7980425Y8782761D01*
X7986115Y8771382D01*
X7991449Y8758885D01*
X8004302Y8722563D01*
X7984236Y8674049D01*
X7980476Y8663736D01*
X7976717Y8652510D01*
X7973110Y8640724D01*
X7969808Y8628735D01*
X7966811Y8616899D01*
X7964271Y8605621D01*
X7962290Y8595207D01*
X7960004Y8581288D01*
X7957972Y8572195D01*
X7955584Y8563508D01*
X7952943Y8555380D01*
X7950149Y8548065D01*
X7947202Y8541816D01*
X7944256Y8536838D01*
X7941309Y8533384D01*
X7931136Y8524036D01*
X7995005Y8524036D01*
X7995259Y8569147D01*
X7996326Y8582101D01*
X7998256Y8596426D01*
X8000898Y8611260D01*
X8004149Y8625890D01*
X8007858Y8639454D01*
X8011871Y8651748D01*
X8015986Y8665260D01*
X8020050Y8679789D01*
X8023859Y8694521D01*
X8027212Y8708644D01*
X8029854Y8721344D01*
X8037322Y8765489D01*
X8090255Y8761933D01*
X8103209Y8760612D01*
X8115757Y8758834D01*
X8127238Y8756802D01*
X8137093Y8754567D01*
X8144662Y8752230D01*
X8153501Y8748369D01*
X8159191Y8746490D01*
X8164423Y8745321D01*
X8169198Y8744864D01*
X8173466Y8745118D01*
X8177275Y8746032D01*
X8180578Y8747556D01*
X8183372Y8749639D01*
X8185607Y8752332D01*
X8187334Y8755583D01*
X8188502Y8759291D01*
X8189112Y8763508D01*
X8189163Y8768181D01*
X8188604Y8773261D01*
X8187436Y8778697D01*
X8185658Y8784539D01*
X8183270Y8790686D01*
X8180222Y8797137D01*
X8176564Y8803843D01*
X8172196Y8810752D01*
X8153501Y8838946D01*
X8067751Y8872626D01*
X8073390Y8886139D01*
X8074507Y8889695D01*
X8075574Y8894673D01*
X8076539Y8900820D01*
X8078063Y8915806D01*
X8078876Y8932824D01*
X8078978Y8983421D01*
X8126831Y9012123D01*
X8168589Y8993886D01*
X8182813Y8987993D01*
X8187994Y8986215D01*
X8192008Y8985250D01*
X8195056Y8985046D01*
X8197240Y8985707D01*
X8198713Y8987180D01*
X8199628Y8989466D01*
X8200085Y8992616D01*
X8200288Y8996629D01*
X8200288Y9019336D01*
X8159597Y9035034D01*
X8153196Y9037726D01*
X8147659Y9040368D01*
X8142935Y9042908D01*
X8139074Y9045346D01*
X8135924Y9047683D01*
X8133588Y9049969D01*
X8132013Y9052102D01*
X8131149Y9054236D01*
X8130997Y9056217D01*
X8131556Y9058148D01*
X8132775Y9059926D01*
X8134654Y9061704D01*
X8137194Y9063329D01*
X8140293Y9064904D01*
X8144052Y9066377D01*
X8153247Y9069019D01*
X8164575Y9071356D01*
X8177987Y9073286D01*
X8193227Y9074912D01*
X8210194Y9076182D01*
X8228736Y9077045D01*
X8248700Y9077604D01*
X8275370Y9077756D01*
X8297976Y9077452D01*
X8321446Y9076842D01*
X8345728Y9075826D01*
X8376920Y9074099D01*
X8402421Y9072270D01*
X8434628Y9069476D01*
X8466937Y9066123D01*
X8492744Y9063075D01*
X8518296Y9059621D01*
X8555786Y9053779D01*
X8580018Y9049410D01*
X8603488Y9044686D01*
X8626043Y9039555D01*
X8705646Y9018879D01*
X8730589Y9071508D01*
X8755278Y9125051D01*
X8770721Y9159290D01*
X8783421Y9143542D01*
X8785250Y9140901D01*
X8787231Y9137243D01*
X8791448Y9127388D01*
X8795816Y9114739D01*
X8800185Y9100108D01*
X8804300Y9084106D01*
X8807856Y9067596D01*
X8819591Y9007348D01*
X8802522Y8899702D01*
X8799423Y8882786D01*
X8796477Y8870035D01*
X8794953Y8865108D01*
X8793327Y8861044D01*
X8791600Y8857792D01*
X8789720Y8855303D01*
X8787587Y8853525D01*
X8785301Y8852357D01*
X8782659Y8851747D01*
X8779764Y8851696D01*
X8776512Y8852052D01*
X8768791Y8853982D01*
X8730742Y8866073D01*
X8708390Y8856726D01*
X8703767Y8854389D01*
X8699246Y8851341D01*
X8694877Y8847683D01*
X8690813Y8843568D01*
X8687206Y8839149D01*
X8684107Y8834475D01*
X8681618Y8829751D01*
X8679942Y8825077D01*
X8673957Y8803182D01*
X8711184Y8803182D01*
X8716721Y8816441D01*
X8719464Y8821978D01*
X8722461Y8825890D01*
X8726017Y8828176D01*
X8730386Y8828786D01*
X8735822Y8827770D01*
X8742578Y8825077D01*
X8750909Y8820708D01*
X8890812Y8735009D01*
X8890812Y8692692D01*
X8903817Y8692692D01*
X8908084Y8693048D01*
X8911793Y8694115D01*
X8914892Y8695842D01*
X8917482Y8698230D01*
X8919464Y8701328D01*
X8920835Y8705138D01*
X8921648Y8709558D01*
X8921902Y8714689D01*
X8921597Y8720480D01*
X8920683Y8726932D01*
X8919159Y8734044D01*
X8917127Y8741816D01*
X8908999Y8769553D01*
X8853170Y8796020D01*
X8874455Y8832443D01*
X8867749Y8892997D01*
X8866682Y8907526D01*
X8866174Y8921343D01*
X8866276Y8933688D01*
X8866886Y8944000D01*
X8868105Y8951569D01*
X8868918Y8954109D01*
X8875268Y8969298D01*
X8909507Y8930538D01*
X8909761Y8887206D01*
X8910523Y8872728D01*
X8911183Y8866174D01*
X8913063Y8854389D01*
X8914282Y8849106D01*
X8915704Y8844330D01*
X8917279Y8839962D01*
X8919057Y8835999D01*
X8921038Y8832494D01*
X8923223Y8829446D01*
X8925610Y8826855D01*
X8928201Y8824671D01*
X8930944Y8822893D01*
X8933942Y8821572D01*
X8937091Y8820708D01*
X8940495Y8820251D01*
X8944102Y8820200D01*
X8947912Y8820607D01*
X8951925Y8821470D01*
X8956141Y8822740D01*
X8960612Y8824417D01*
X8965285Y8826550D01*
X8975242Y8832088D01*
X8986113Y8839352D01*
X8997899Y8848293D01*
X9025382Y8871610D01*
X9039453Y8883040D01*
X9052153Y8892692D01*
X9062770Y8900210D01*
X9070746Y8905036D01*
X9073540Y8906306D01*
X9075420Y8906764D01*
X9081414Y8906306D01*
X9083802Y8905697D01*
X9085732Y8904884D01*
X9087205Y8903766D01*
X9088272Y8902395D01*
X9088882Y8900769D01*
X9089085Y8898839D01*
X9088780Y8896604D01*
X9088018Y8894064D01*
X9086799Y8891219D01*
X9082989Y8884513D01*
X9077198Y8876487D01*
X9069425Y8866936D01*
X9059672Y8855913D01*
X9047835Y8843264D01*
X9033916Y8828989D01*
X8956141Y8751214D01*
X8956141Y8730843D01*
X8956497Y8725103D01*
X8957462Y8718956D01*
X8958024Y8716670D01*
X8993581Y8716670D01*
X8993632Y8720175D01*
X8994394Y8724239D01*
X8995867Y8728760D01*
X8998000Y8733688D01*
X9000744Y8738920D01*
X9004198Y8744407D01*
X9008211Y8750046D01*
X9012834Y8755786D01*
X9017558Y8760968D01*
X9022181Y8765489D01*
X9026804Y8769350D01*
X9031274Y8772499D01*
X9035643Y8774988D01*
X9039860Y8776766D01*
X9043974Y8777833D01*
X9047937Y8778189D01*
X9051747Y8777833D01*
X9055404Y8776766D01*
X9058808Y8774988D01*
X9062059Y8772448D01*
X9062618Y8770721D01*
X9061907Y8767978D01*
X9060027Y8764371D01*
X9057182Y8760053D01*
X9053474Y8755176D01*
X9044178Y8744407D01*
X9033306Y8733282D01*
X9027718Y8727998D01*
X9022181Y8723122D01*
X9016847Y8718753D01*
X9011920Y8715095D01*
X9007551Y8712250D01*
X9003842Y8710472D01*
X9000998Y8709812D01*
X8997950Y8710320D01*
X8995714Y8711641D01*
X8994292Y8713774D01*
X8993581Y8716670D01*
X8958024Y8716670D01*
X8959037Y8712555D01*
X8961120Y8705951D01*
X8963710Y8699195D01*
X8966708Y8692489D01*
X8970111Y8685784D01*
X8973870Y8679230D01*
X8977592Y8673388D01*
X9023553Y8673388D01*
X9025229Y8678875D01*
X9029293Y8685530D01*
X9035389Y8692642D01*
X9041892Y8698738D01*
X9047937Y8703513D01*
X9053474Y8706916D01*
X9058351Y8708999D01*
X9062415Y8709660D01*
X9065514Y8708847D01*
X9067444Y8706510D01*
X9068104Y8702598D01*
X9067393Y8699449D01*
X9065361Y8695791D01*
X9062262Y8691829D01*
X9058351Y8687663D01*
X9053830Y8683548D01*
X9048902Y8679637D01*
X9043873Y8676081D01*
X9038894Y8673084D01*
X9034272Y8670747D01*
X9030157Y8669324D01*
X9026855Y8669020D01*
X9024569Y8669883D01*
X9023553Y8673388D01*
X8977592Y8673388D01*
X8982151Y8666937D01*
X8986570Y8661298D01*
X8991142Y8656167D01*
X8995765Y8651595D01*
X9000439Y8647684D01*
X9005062Y8644534D01*
X9009634Y8642146D01*
X9030411Y8633307D01*
X9019489Y8607094D01*
X8995918Y8607094D01*
X8990533Y8607450D01*
X8984234Y8608517D01*
X8977274Y8610193D01*
X8969857Y8612428D01*
X8962288Y8615121D01*
X8954668Y8618169D01*
X8947302Y8621572D01*
X8935618Y8627719D01*
X8924188Y8632698D01*
X8910777Y8637422D01*
X8896248Y8641638D01*
X8881313Y8645194D01*
X8873947Y8646668D01*
X8859977Y8648750D01*
X8811514Y8654186D01*
X8774988Y8723680D01*
X8767876Y8736431D01*
X8760663Y8748572D01*
X8753500Y8759901D01*
X8746693Y8770010D01*
X8740444Y8778646D01*
X8734856Y8785453D01*
X8730183Y8790228D01*
X8728303Y8791702D01*
X8711184Y8803182D01*
X8673957Y8803182D01*
X8673846Y8802776D01*
X8705951Y8771636D01*
X8714181Y8762695D01*
X8722512Y8752840D01*
X8730488Y8742629D01*
X8737701Y8732621D01*
X8743746Y8723325D01*
X8762288Y8689848D01*
X8752890Y8613698D01*
X8730894Y8588502D01*
X8725814Y8581745D01*
X8719870Y8573160D01*
X8713368Y8563051D01*
X8699398Y8539886D01*
X8685580Y8514842D01*
X8651392Y8448700D01*
X8600541Y8403234D01*
X8590432Y8394750D01*
X8580120Y8386572D01*
X8569604Y8378850D01*
X8558936Y8371433D01*
X8548116Y8364474D01*
X8537244Y8357920D01*
X8526322Y8351774D01*
X8515350Y8346084D01*
X8504428Y8340902D01*
X8493506Y8336178D01*
X8482634Y8331962D01*
X8471916Y8328253D01*
X8461298Y8325053D01*
X8450834Y8322462D01*
X8440572Y8320379D01*
X8398611Y8314181D01*
X8392414Y8323325D01*
X8391245Y8326069D01*
X8391093Y8329117D01*
X8391855Y8332419D01*
X8393430Y8335924D01*
X8395766Y8339531D01*
X8398764Y8343188D01*
X8402320Y8346846D01*
X8406384Y8350402D01*
X8410854Y8353806D01*
X8415680Y8357006D01*
X8420709Y8359902D01*
X8425891Y8362391D01*
X8431123Y8364474D01*
X8436356Y8366048D01*
X8441486Y8367014D01*
X8446414Y8367369D01*
X8468563Y8367369D01*
X8508898Y8407704D01*
X8517229Y8416391D01*
X8535162Y8436152D01*
X8553043Y8456980D01*
X8568639Y8476386D01*
X8576157Y8486241D01*
X8585098Y8497112D01*
X8594090Y8507222D01*
X8602776Y8516112D01*
X8610600Y8523274D01*
X8614054Y8526119D01*
X8617153Y8528304D01*
X8619794Y8529828D01*
X8637320Y8538464D01*
X8630615Y8561527D01*
X8626856Y8572347D01*
X8624874Y8576614D01*
X8622792Y8580069D01*
X8620556Y8582710D01*
X8618220Y8584539D01*
X8615730Y8585555D01*
X8613038Y8585809D01*
X8610193Y8585250D01*
X8607094Y8583879D01*
X8603792Y8581694D01*
X8600236Y8578697D01*
X8596376Y8574938D01*
X8592261Y8570315D01*
X8587841Y8564930D01*
X8579967Y8554618D01*
X8572601Y8545677D01*
X8563914Y8535873D01*
X8554212Y8525459D01*
X8532825Y8503818D01*
X8521750Y8493099D01*
X8500059Y8473236D01*
X8490051Y8464600D01*
X8481009Y8457133D01*
X8473135Y8451189D01*
X8466785Y8446973D01*
X8464245Y8445601D01*
X8462162Y8444738D01*
X8460587Y8444433D01*
X8452815Y8443874D01*
X8445093Y8442248D01*
X8441232Y8441029D01*
X8433612Y8437829D01*
X8429802Y8435898D01*
X8422335Y8431276D01*
X8414969Y8425738D01*
X8407806Y8419388D01*
X8400796Y8412175D01*
X8393988Y8404250D01*
X8387384Y8395614D01*
X8381034Y8386267D01*
X8374938Y8376310D01*
X8369147Y8365794D01*
X8363610Y8354720D01*
X8358479Y8343188D01*
X8353653Y8331200D01*
X8349183Y8318804D01*
X8345119Y8306104D01*
X8341512Y8293049D01*
X8338312Y8279790D01*
X8335568Y8266277D01*
X8333282Y8252663D01*
X8331504Y8238896D01*
X8330285Y8225028D01*
X8329574Y8211159D01*
X8329472Y8197342D01*
X8329930Y8183575D01*
X8330996Y8169909D01*
X8338566Y8095792D01*
X8362391Y8052866D01*
X8369503Y8041386D01*
X8377631Y8029397D01*
X8386216Y8017509D01*
X8394852Y8006384D01*
X8403031Y7996681D01*
X8411718Y7987233D01*
X8416086Y7982102D01*
X8423300Y7972298D01*
X8428583Y7963204D01*
X8430463Y7958937D01*
X8431936Y7954873D01*
X8432901Y7951012D01*
X8433460Y7947406D01*
X8433511Y7944002D01*
X8433155Y7940852D01*
X8432342Y7937906D01*
X8431072Y7935264D01*
X8429345Y7932877D01*
X8427212Y7930743D01*
X8424672Y7928864D01*
X8421674Y7927340D01*
X8418322Y7926070D01*
X8414512Y7925104D01*
X8410295Y7924444D01*
X8405672Y7924139D01*
X8400694Y7924139D01*
X8395309Y7924495D01*
X8383371Y7926222D01*
X8376818Y7927644D01*
X8335619Y7939024D01*
X8184489Y8059166D01*
X8164220Y8103362D01*
X8141411Y8155787D01*
X8107019Y8237575D01*
X8106765Y8316315D01*
X8106105Y8346694D01*
X8104631Y8377428D01*
X8102498Y8407806D01*
X8099755Y8437016D01*
X8096605Y8464346D01*
X8093049Y8488984D01*
X8089188Y8510168D01*
X8087156Y8519210D01*
X8085124Y8527084D01*
X8083042Y8533688D01*
X8079943Y8541105D01*
X8077860Y8544153D01*
X8066430Y8556802D01*
X8059064Y8544763D01*
X8057794Y8541664D01*
X8056981Y8537549D01*
X8056625Y8532520D01*
X8056727Y8526780D01*
X8057286Y8520480D01*
X8058251Y8513876D01*
X8059623Y8507120D01*
X8061452Y8500414D01*
X8071154Y8468055D01*
X8052663Y8451088D01*
X7995005Y8524036D01*
X7931136Y8524036D01*
X7927543Y8520734D01*
X7906003Y8533434D01*
X7902397Y8536533D01*
X7898282Y8540851D01*
X7893710Y8546388D01*
X7888681Y8552992D01*
X7877505Y8569147D01*
X7865160Y8588756D01*
X7851851Y8611209D01*
X7837982Y8635847D01*
X7823911Y8662060D01*
X7806436Y8696147D01*
X7789722Y8730589D01*
X7777327Y8757564D01*
X7766202Y8783370D01*
X7756601Y8807399D01*
X7752486Y8818524D01*
X7748879Y8828989D01*
X7723022Y8911031D01*
X7712608Y9073997D01*
X7683953Y9073997D01*
X7675880Y9003487D01*
X7687513Y8934907D01*
X7692085Y8912809D01*
X7697978Y8889238D01*
X7704988Y8864549D01*
X7708900Y8851849D01*
X7715250Y8832392D01*
X7724495Y8806027D01*
X7734503Y8779357D01*
X7745222Y8752636D01*
X7756499Y8726119D01*
X7768183Y8700058D01*
X7780223Y8674709D01*
X7792466Y8650325D01*
X7804810Y8627211D01*
X7817154Y8605570D01*
X7829346Y8585708D01*
X7841234Y8567877D01*
X7847075Y8559800D01*
X7852816Y8552332D01*
X7858404Y8545474D01*
X7863840Y8539276D01*
X7869174Y8533790D01*
X7897317Y8506256D01*
X7939176Y8494826D01*
X7945120Y8492947D01*
X7951419Y8490610D01*
X7957921Y8487867D01*
X7971434Y8481161D01*
X7978343Y8477402D01*
X7991906Y8469071D01*
X8004911Y8460181D01*
X8016697Y8451088D01*
X8022031Y8446617D01*
X8026857Y8442198D01*
X8031073Y8437930D01*
X8034731Y8433866D01*
X8037677Y8430006D01*
X8039862Y8426450D01*
X8041233Y8423249D01*
X8041690Y8420455D01*
X8041233Y8418931D01*
X8037931Y8413242D01*
X8031734Y8404504D01*
X8023098Y8393328D01*
X8012531Y8380272D01*
X8000492Y8365947D01*
X7979562Y8341614D01*
X7962087Y8319922D01*
X7954619Y8310118D01*
X7947158Y8299754D01*
X7988350Y8299754D01*
X7989112Y8303006D01*
X7990890Y8306816D01*
X7993684Y8311184D01*
X7997596Y8316264D01*
X8002524Y8322056D01*
X8015630Y8336229D01*
X8041894Y8363559D01*
X8050834Y8372348D01*
X8054492Y8375599D01*
X8057642Y8378088D01*
X8060334Y8379866D01*
X8062569Y8380831D01*
X8064398Y8380984D01*
X8065922Y8380425D01*
X8067090Y8379053D01*
X8068005Y8376920D01*
X8068614Y8373973D01*
X8069376Y8365744D01*
X8069580Y8354263D01*
X8069325Y8330285D01*
X8068818Y8321192D01*
X8068056Y8312454D01*
X8067040Y8304377D01*
X8065820Y8297164D01*
X8064449Y8291017D01*
X8062925Y8286191D01*
X8061299Y8282889D01*
X8053222Y8271205D01*
X8012023Y8283702D01*
X8000187Y8287867D01*
X7995767Y8289899D01*
X7992364Y8292033D01*
X7990027Y8294319D01*
X7988655Y8296859D01*
X7988350Y8299754D01*
X7947158Y8299754D01*
X7943392Y8294166D01*
X7940040Y8288578D01*
X7931708Y8268919D01*
X7968691Y8231936D01*
X7959293Y8151520D01*
X7957464Y8138972D01*
X7955483Y8127796D01*
X7953146Y8117840D01*
X7950352Y8108950D01*
X7948777Y8104784D01*
X7945069Y8097062D01*
X7942986Y8093405D01*
X7938109Y8086445D01*
X7932267Y8079790D01*
X7925308Y8073186D01*
X7917180Y8066582D01*
X7907680Y8059674D01*
X7896758Y8052358D01*
X7869885Y8035594D01*
X7783830Y7983626D01*
X7770571Y7942427D01*
X7768488Y7934604D01*
X7766608Y7926527D01*
X7763611Y7910525D01*
X7762595Y7903108D01*
X7761986Y7896352D01*
X7761731Y7890560D01*
X7761731Y7865262D01*
X7764508Y7862874D01*
X7799070Y7862874D01*
X7799070Y7937398D01*
X7815376Y7955838D01*
X7819390Y7959953D01*
X7824419Y7964474D01*
X7836865Y7974431D01*
X7851190Y7984388D01*
X7858506Y7989011D01*
X7906918Y8017052D01*
X7931353Y8031734D01*
X7973822Y8057896D01*
X7986522Y8104784D01*
X7988553Y8113420D01*
X7991906Y8130641D01*
X7994192Y8146288D01*
X7994802Y8152841D01*
X7995259Y8163559D01*
X7995818Y8169706D01*
X7998053Y8183829D01*
X8001355Y8198866D01*
X8003286Y8206130D01*
X8015681Y8244586D01*
X8079689Y8217966D01*
X8085226Y8197748D01*
X8086140Y8193024D01*
X8086547Y8187334D01*
X8086547Y8180882D01*
X8086039Y8173923D01*
X8085175Y8166658D01*
X8083905Y8159292D01*
X8082229Y8152079D01*
X8079130Y8141563D01*
X8077098Y8132775D01*
X8075218Y8122208D01*
X8073542Y8110321D01*
X8072069Y8097469D01*
X8070951Y8084007D01*
X8070138Y8070342D01*
X8069732Y8056880D01*
X8069681Y7987893D01*
X8046313Y7951317D01*
X8041233Y7943900D01*
X8035798Y7936738D01*
X8030159Y7930032D01*
X8024520Y7923936D01*
X8018309Y7918196D01*
X8107019Y7918196D01*
X8107172Y7921498D01*
X8107781Y7924292D01*
X8109000Y7926578D01*
X8110880Y7928457D01*
X8113725Y7929930D01*
X8117535Y7930997D01*
X8122513Y7931708D01*
X8128812Y7932115D01*
X8136534Y7932267D01*
X8157006Y7931708D01*
X8209635Y7929219D01*
X8209635Y7956448D01*
X8185759Y7956600D01*
X8180273Y7957007D01*
X8174990Y7957718D01*
X8169859Y7958683D01*
X8164931Y7959953D01*
X8160156Y7961477D01*
X8155635Y7963306D01*
X8151215Y7965389D01*
X8147050Y7967725D01*
X8143087Y7970316D01*
X8139277Y7973161D01*
X8135670Y7976311D01*
X8132318Y7979664D01*
X8129117Y7983321D01*
X8126120Y7987182D01*
X8123326Y7991297D01*
X8120786Y7995666D01*
X8118398Y8000288D01*
X8116265Y8005114D01*
X8114334Y8010194D01*
X8111185Y8021066D01*
X8109915Y8026806D01*
X8108848Y8032851D01*
X8108035Y8039049D01*
X8107121Y8052155D01*
X8107121Y8067090D01*
X8107425Y8074101D01*
X8107984Y8080095D01*
X8108797Y8085023D01*
X8109864Y8088934D01*
X8111236Y8091881D01*
X8112912Y8093760D01*
X8114893Y8094624D01*
X8117230Y8094472D01*
X8119872Y8093354D01*
X8122869Y8091170D01*
X8126272Y8088020D01*
X8130082Y8083803D01*
X8134299Y8078673D01*
X8151571Y8054797D01*
X8159750Y8044383D01*
X8168386Y8034172D01*
X8177530Y8024114D01*
X8187080Y8014208D01*
X8197037Y8004556D01*
X8207298Y7995158D01*
X8217865Y7986014D01*
X8228736Y7977174D01*
X8239759Y7968589D01*
X8250986Y7960359D01*
X8262366Y7952486D01*
X8273846Y7944967D01*
X8285327Y7937855D01*
X8296859Y7931200D01*
X8308340Y7924901D01*
X8319770Y7919110D01*
X8331047Y7913776D01*
X8342172Y7909001D01*
X8353145Y7904683D01*
X8363864Y7900924D01*
X8374278Y7897774D01*
X8384336Y7895183D01*
X8394090Y7893202D01*
X8403437Y7891881D01*
X8412327Y7891170D01*
X8420709Y7891170D01*
X8428532Y7891881D01*
X8435848Y7893303D01*
X8439251Y7894269D01*
X8445601Y7896859D01*
X8448548Y7898384D01*
X8453831Y7902092D01*
X8470900Y7916265D01*
X8470900Y7971942D01*
X8433054Y8013598D01*
X8423605Y8024672D01*
X8414258Y8036204D01*
X8405520Y8047583D01*
X8397849Y8058200D01*
X8391702Y8067395D01*
X8374227Y8097672D01*
X8369401Y8187639D01*
X8368842Y8217509D01*
X8369350Y8243570D01*
X8370011Y8254187D01*
X8370874Y8262620D01*
X8371992Y8268512D01*
X8377986Y8290306D01*
X8408974Y8290306D01*
X8418830Y8290763D01*
X8430869Y8292084D01*
X8444331Y8294065D01*
X8458454Y8296656D01*
X8472525Y8299703D01*
X8498535Y8306460D01*
X8511184Y8309508D01*
X8523173Y8312099D01*
X8533841Y8314131D01*
X8542629Y8315452D01*
X8548827Y8315909D01*
X8566099Y8316010D01*
X8542223Y8278723D01*
X8538464Y8272322D01*
X8532520Y8260791D01*
X8530234Y8255711D01*
X8527084Y8246922D01*
X8525713Y8240014D01*
X8525611Y8237220D01*
X8525916Y8234934D01*
X8526627Y8233156D01*
X8527643Y8231835D01*
X8529015Y8231022D01*
X8530742Y8230717D01*
X8532774Y8230920D01*
X8535111Y8231631D01*
X8537702Y8232851D01*
X8540597Y8234629D01*
X8547150Y8239709D01*
X8550757Y8243062D01*
X8558580Y8251444D01*
X8567115Y8262010D01*
X8576310Y8274812D01*
X8606231Y8319262D01*
X8623503Y8238286D01*
X8638184Y8241284D01*
X8643670Y8243366D01*
X8647684Y8246821D01*
X8649919Y8251240D01*
X8649970Y8256066D01*
X8649208Y8261096D01*
X8648496Y8269325D01*
X8647430Y8292744D01*
X8647176Y8306714D01*
X8647074Y8374735D01*
X8666378Y8408720D01*
X8670493Y8414969D01*
X8674252Y8419795D01*
X8677757Y8423198D01*
X8681110Y8425129D01*
X8684361Y8425586D01*
X8687663Y8424570D01*
X8691016Y8422081D01*
X8694572Y8418169D01*
X8698331Y8412734D01*
X8702446Y8405774D01*
X8710676Y8390534D01*
X8714130Y8384540D01*
X8720531Y8374938D01*
X8723426Y8371281D01*
X8726068Y8368436D01*
X8728557Y8366302D01*
X8730742Y8364880D01*
X8732723Y8364220D01*
X8734450Y8364220D01*
X8735872Y8364981D01*
X8737092Y8366353D01*
X8738006Y8368436D01*
X8738616Y8371128D01*
X8738971Y8374481D01*
X8739022Y8378444D01*
X8738158Y8388146D01*
X8735974Y8400186D01*
X8732418Y8414461D01*
X8722055Y8447989D01*
X8718042Y8462924D01*
X8715400Y8475573D01*
X8714181Y8485936D01*
X8714028Y8490254D01*
X8714282Y8493963D01*
X8714841Y8497163D01*
X8715756Y8499754D01*
X8717026Y8501786D01*
X8718651Y8503208D01*
X8720582Y8504072D01*
X8722868Y8504377D01*
X8726474Y8503513D01*
X8729472Y8501176D01*
X8731453Y8497722D01*
X8732215Y8493455D01*
X8732469Y8490610D01*
X8733107Y8488375D01*
X8764879Y8488375D01*
X8765641Y8529320D01*
X8766860Y8540699D01*
X8769045Y8552891D01*
X8771940Y8565286D01*
X8775496Y8577224D01*
X8779459Y8587994D01*
X8797137Y8625535D01*
X8894114Y8615934D01*
X8936939Y8590076D01*
X8951214Y8582355D01*
X8957767Y8579154D01*
X8968740Y8574532D01*
X8972804Y8573312D01*
X8975648Y8572855D01*
X8986215Y8572855D01*
X8978696Y8536178D01*
X8975750Y8526119D01*
X8971940Y8515451D01*
X8967470Y8504732D01*
X8962593Y8494522D01*
X8957513Y8485378D01*
X8936736Y8454136D01*
X8889034Y8437524D01*
X8882430Y8435441D01*
X8870238Y8432342D01*
X8864650Y8431326D01*
X8859266Y8430615D01*
X8854186Y8430310D01*
X8849207Y8430361D01*
X8844432Y8430768D01*
X8839809Y8431580D01*
X8835237Y8432749D01*
X8830665Y8434324D01*
X8826195Y8436305D01*
X8821674Y8438743D01*
X8817102Y8441537D01*
X8812428Y8444788D01*
X8802674Y8452612D01*
X8792159Y8462213D01*
X8764879Y8488375D01*
X8733107Y8488375D01*
X8734755Y8484006D01*
X8736685Y8480348D01*
X8739073Y8476437D01*
X8745169Y8468156D01*
X8752789Y8459368D01*
X8761679Y8450326D01*
X8771585Y8441283D01*
X8782304Y8432393D01*
X8793480Y8423960D01*
X8804910Y8416188D01*
X8816390Y8409330D01*
X8827566Y8403590D01*
X8876842Y8383320D01*
X8947200Y8389264D01*
X8938717Y8370519D01*
X8933992Y8359089D01*
X8929674Y8347405D01*
X8925763Y8335568D01*
X8922308Y8323580D01*
X8919210Y8311489D01*
X8916568Y8299297D01*
X8914384Y8287054D01*
X8912606Y8274761D01*
X8911234Y8262467D01*
X8910320Y8250174D01*
X8909812Y8237931D01*
X8909761Y8225790D01*
X8910116Y8213750D01*
X8910929Y8201812D01*
X8912199Y8190026D01*
X8913926Y8178444D01*
X8916060Y8167065D01*
X8918651Y8155940D01*
X8921699Y8145068D01*
X8925255Y8133740D01*
X8928811Y8120989D01*
X8931910Y8107730D01*
X8934399Y8094573D01*
X8936228Y8082381D01*
X8937244Y8071713D01*
X8937498Y8036712D01*
X8791448Y7956397D01*
X8761018Y7940192D01*
X8732977Y7925765D01*
X8707018Y7912963D01*
X8682736Y7901635D01*
X8659876Y7891678D01*
X8638082Y7882991D01*
X8617102Y7875422D01*
X8596528Y7868818D01*
X8576106Y7863078D01*
X8565845Y7860487D01*
X8550249Y7856880D01*
X8539683Y7854696D01*
X8487660Y7844840D01*
X8663228Y7844840D01*
X8663482Y7846364D01*
X8664143Y7848041D01*
X8665311Y7849819D01*
X8666886Y7851698D01*
X8671610Y7855915D01*
X8678316Y7860741D01*
X8687155Y7866329D01*
X8698280Y7872780D01*
X8727795Y7888579D01*
X8844686Y7948066D01*
X8858097Y7954619D01*
X8869476Y7959852D01*
X8879078Y7963814D01*
X8887053Y7966506D01*
X8893606Y7967929D01*
X8896400Y7968132D01*
X8898940Y7968030D01*
X8901226Y7967624D01*
X8903258Y7966913D01*
X8905087Y7965846D01*
X8906713Y7964474D01*
X8908186Y7962798D01*
X8909558Y7960817D01*
X8911945Y7955889D01*
X8914079Y7949692D01*
X8924493Y7910271D01*
X8928201Y7894320D01*
X8931300Y7878673D01*
X8933738Y7863382D01*
X8935466Y7848600D01*
X8936583Y7834477D01*
X8936990Y7821066D01*
X8936736Y7808518D01*
X8935770Y7796987D01*
X8934145Y7786573D01*
X8933078Y7781798D01*
X8930386Y7773314D01*
X8928811Y7769555D01*
X8916619Y7748270D01*
X8959037Y7718907D01*
X8953449Y7705445D01*
X8951468Y7702550D01*
X8948064Y7699451D01*
X8943390Y7696301D01*
X8937650Y7693101D01*
X8931046Y7690053D01*
X8923680Y7687157D01*
X8915857Y7684566D01*
X8865971Y7672222D01*
X8826195Y7661960D01*
X8812022Y7657846D01*
X8801150Y7654239D01*
X8793073Y7650988D01*
X8787384Y7647940D01*
X8785301Y7646466D01*
X8782304Y7643469D01*
X8780627Y7640320D01*
X8776360Y7628534D01*
X8821775Y7636560D01*
X8832138Y7638034D01*
X8857132Y7640574D01*
X8885021Y7642453D01*
X8912453Y7643469D01*
X8979458Y7643926D01*
X8979458Y7618272D01*
X8830157Y7595717D01*
X8704326Y7533386D01*
X8687054Y7549794D01*
X8697366Y7664450D01*
X8734145Y7669631D01*
X8694572Y7722362D01*
X8685479Y7735620D01*
X8678468Y7747304D01*
X8675776Y7752588D01*
X8673642Y7757515D01*
X8671966Y7762087D01*
X8670848Y7766405D01*
X8670239Y7770418D01*
X8670188Y7774127D01*
X8670594Y7777581D01*
X8671560Y7780781D01*
X8673033Y7783779D01*
X8675014Y7786573D01*
X8677503Y7789164D01*
X8680500Y7791602D01*
X8684056Y7793837D01*
X8688070Y7795971D01*
X8699042Y7800797D01*
X8704275Y7803540D01*
X8708186Y7806283D01*
X8710828Y7808925D01*
X8712149Y7811617D01*
X8712250Y7814259D01*
X8710980Y7816900D01*
X8708491Y7819593D01*
X8704681Y7822285D01*
X8699550Y7825028D01*
X8693150Y7827822D01*
X8675319Y7834426D01*
X8670137Y7836865D01*
X8666327Y7839354D01*
X8664956Y7840624D01*
X8663990Y7841945D01*
X8663381Y7843367D01*
X8663228Y7844840D01*
X8487660Y7844840D01*
X8470290Y7841589D01*
X8341207Y7863586D01*
X8280653Y7872984D01*
X8232140Y7879689D01*
X8212378Y7882077D01*
X8175447Y7885887D01*
X8165795Y7887208D01*
X8156956Y7888681D01*
X8141411Y7892034D01*
X8134807Y7893913D01*
X8128863Y7895996D01*
X8123681Y7898180D01*
X8119211Y7900568D01*
X8115452Y7903108D01*
X8112404Y7905800D01*
X8110016Y7908645D01*
X8108340Y7911642D01*
X8107324Y7914843D01*
X8107019Y7918196D01*
X8018309Y7918196D01*
X8013700Y7914436D01*
X8008975Y7911287D01*
X8002117Y7908391D01*
X7999018Y7906562D01*
X7995564Y7904073D01*
X7991805Y7901025D01*
X7983677Y7893303D01*
X7975092Y7883906D01*
X7966456Y7873238D01*
X7949387Y7849108D01*
X7941157Y7838541D01*
X7933639Y7830007D01*
X7926882Y7823606D01*
X7923784Y7821117D01*
X7920939Y7819186D01*
X7918348Y7817815D01*
X7915960Y7816900D01*
X7913776Y7816494D01*
X7911846Y7816596D01*
X7910220Y7817256D01*
X7908798Y7818374D01*
X7907629Y7819999D01*
X7906766Y7822133D01*
X7906207Y7824774D01*
X7905902Y7827924D01*
X7905851Y7831531D01*
X7906766Y7840319D01*
X7908899Y7851038D01*
X7912353Y7863738D01*
X7927289Y7909356D01*
X7911642Y7947863D01*
X7890357Y7947761D01*
X7881061Y7947101D01*
X7871561Y7945475D01*
X7862976Y7943088D01*
X7856372Y7940243D01*
X7843672Y7932826D01*
X7856829Y7845145D01*
X7845958Y7845145D01*
X7840370Y7845856D01*
X7833055Y7847736D01*
X7824978Y7850581D01*
X7817103Y7853984D01*
X7799070Y7862874D01*
X7764508Y7862874D01*
X7787894Y7842910D01*
X7798714Y7834731D01*
X7810093Y7827111D01*
X7821879Y7820202D01*
X7834020Y7813903D01*
X7846415Y7808264D01*
X7858861Y7803388D01*
X7871358Y7799222D01*
X7883804Y7795869D01*
X7895996Y7793278D01*
X7907934Y7791551D01*
X7919466Y7790637D01*
X7930489Y7790637D01*
X7940903Y7791551D01*
X7950657Y7793380D01*
X7959547Y7796225D01*
X7969300Y7800543D01*
X7981086Y7805166D01*
X7992364Y7808620D01*
X7997342Y7809788D01*
X8001711Y7810550D01*
X8009534Y7811160D01*
X8013700Y7812074D01*
X8017814Y7813548D01*
X8021828Y7815630D01*
X8025688Y7818221D01*
X8029448Y7821320D01*
X8033054Y7824978D01*
X8036559Y7829092D01*
X8039811Y7833715D01*
X8042960Y7838795D01*
X8045856Y7844332D01*
X8048599Y7850276D01*
X8051088Y7856626D01*
X8053324Y7863382D01*
X8055356Y7870494D01*
X8057134Y7877962D01*
X8065008Y7915097D01*
X8106918Y7863027D01*
X8090865Y7799730D01*
X8087156Y7786979D01*
X8082788Y7773568D01*
X8078063Y7759953D01*
X8072983Y7746593D01*
X8067802Y7733842D01*
X8062569Y7722057D01*
X8057591Y7711744D01*
X8052104Y7701432D01*
X8046313Y7689545D01*
X8041233Y7677708D01*
X8037118Y7666481D01*
X8034172Y7656525D01*
X8033156Y7652207D01*
X8032546Y7648397D01*
X8032343Y7642098D01*
X8059420Y7642098D01*
X8065008Y7678166D01*
X8093811Y7676388D01*
X8125206Y7672882D01*
X8142884Y7670495D01*
X8190992Y7663078D01*
X8190992Y7690815D01*
X8153806Y7696301D01*
X8144256Y7697927D01*
X8135518Y7700009D01*
X8127593Y7702448D01*
X8120532Y7705191D01*
X8114436Y7708239D01*
X8109305Y7711541D01*
X8105292Y7714996D01*
X8102295Y7718653D01*
X8100517Y7722412D01*
X8099907Y7726324D01*
X8100568Y7730236D01*
X8102549Y7734147D01*
X8109051Y7743799D01*
X8152536Y7733792D01*
X8166150Y7754061D01*
X8125663Y7778750D01*
X8125663Y7805928D01*
X8125917Y7811617D01*
X8126577Y7817358D01*
X8127644Y7823047D01*
X8129066Y7828432D01*
X8130794Y7833359D01*
X8132775Y7837779D01*
X8134959Y7841437D01*
X8137347Y7844231D01*
X8148980Y7855305D01*
X8231581Y7851038D01*
X8250681Y7849412D01*
X8268208Y7847330D01*
X8283244Y7844891D01*
X8289594Y7843621D01*
X8299500Y7840929D01*
X8302802Y7839557D01*
X8304936Y7838186D01*
X8315502Y7828483D01*
X8304225Y7805724D01*
X8300923Y7798612D01*
X8298637Y7792567D01*
X8297316Y7787589D01*
X8296960Y7783626D01*
X8297621Y7780781D01*
X8299196Y7779003D01*
X8301786Y7778292D01*
X8305292Y7778648D01*
X8309813Y7780121D01*
X8315248Y7782661D01*
X8321598Y7786319D01*
X8334552Y7794650D01*
X8340648Y7798308D01*
X8353602Y7805267D01*
X8366201Y7811058D01*
X8371840Y7813294D01*
X8376818Y7814970D01*
X8399018Y7821422D01*
X8392820Y7753045D01*
X8391601Y7729626D01*
X8391296Y7704429D01*
X8391448Y7691729D01*
X8392464Y7667396D01*
X8393277Y7656271D01*
X8394293Y7646162D01*
X8402218Y7587843D01*
X8356041Y7577226D01*
X8257997Y7606842D01*
X8231225Y7614310D01*
X8203488Y7621219D01*
X8176310Y7627366D01*
X8151114Y7632344D01*
X8129270Y7635900D01*
X8120125Y7637018D01*
X8059420Y7642098D01*
X8032343Y7642098D01*
X8032343Y7624521D01*
X8015173Y7620406D01*
X8012430Y7619441D01*
X8009229Y7617663D01*
X8005622Y7615224D01*
X7997240Y7608417D01*
X7987690Y7599476D01*
X7977276Y7588758D01*
X7966354Y7576718D01*
X7955280Y7563764D01*
X7944358Y7550353D01*
X7933994Y7536891D01*
X7926679Y7526832D01*
X7978495Y7526832D01*
X7978648Y7531201D01*
X7979257Y7535570D01*
X7980273Y7539939D01*
X7981797Y7544308D01*
X7983677Y7548676D01*
X7986064Y7552994D01*
X7988808Y7557262D01*
X7992008Y7561529D01*
X7995666Y7565694D01*
X7999730Y7569809D01*
X8004200Y7573873D01*
X8009077Y7577836D01*
X8014360Y7581696D01*
X8020050Y7585456D01*
X8026146Y7589062D01*
X8039608Y7595971D01*
X8058200Y7604455D01*
X8065414Y7607503D01*
X8071662Y7609789D01*
X8077200Y7611262D01*
X8082280Y7612024D01*
X8087207Y7612024D01*
X8092287Y7611364D01*
X8097774Y7610043D01*
X8103971Y7608062D01*
X8119618Y7602220D01*
X8129713Y7597749D01*
X8207959Y7597749D01*
X8249005Y7581544D01*
X8273948Y7572298D01*
X8301075Y7562748D01*
X8325916Y7554417D01*
X8337194Y7549946D01*
X8341817Y7547711D01*
X8349234Y7543342D01*
X8351977Y7541209D01*
X8354059Y7539126D01*
X8355533Y7537094D01*
X8356396Y7535113D01*
X8356650Y7533233D01*
X8356244Y7531455D01*
X8355228Y7529779D01*
X8353602Y7528153D01*
X8351367Y7526680D01*
X8348522Y7525308D01*
X8345119Y7524089D01*
X8336432Y7522057D01*
X8325408Y7520686D01*
X8312048Y7519974D01*
X8299094Y7520025D01*
X8289594Y7520635D01*
X8285378Y7521295D01*
X8281466Y7522209D01*
X8277758Y7523480D01*
X8274100Y7525156D01*
X8270544Y7527239D01*
X8266938Y7529779D01*
X8263229Y7532878D01*
X8259318Y7536535D01*
X8255152Y7540802D01*
X8245754Y7551470D01*
X8207959Y7597749D01*
X8129713Y7597749D01*
X8139887Y7592415D01*
X8151571Y7585659D01*
X8163407Y7578140D01*
X8174837Y7570266D01*
X8185150Y7562392D01*
X8219948Y7534351D01*
X8214309Y7489850D01*
X8148980Y7458964D01*
X8032546Y7464958D01*
X8006791Y7482535D01*
X8001863Y7486091D01*
X7997444Y7489799D01*
X7993481Y7493609D01*
X7990027Y7497521D01*
X7986979Y7501534D01*
X7984439Y7505598D01*
X7982305Y7509713D01*
X7980680Y7513929D01*
X7979511Y7518196D01*
X7978749Y7522514D01*
X7978495Y7526832D01*
X7926679Y7526832D01*
X7920177Y7517485D01*
X7912608Y7505750D01*
X7906766Y7495438D01*
X7903461Y7487970D01*
X7930997Y7487970D01*
X7931861Y7490002D01*
X7933740Y7491222D01*
X7936484Y7491577D01*
X7940040Y7491069D01*
X7944256Y7489647D01*
X7949031Y7487259D01*
X7954365Y7483856D01*
X7964220Y7476083D01*
X7972907Y7469631D01*
X7982102Y7463536D01*
X7991754Y7457897D01*
X8001863Y7452664D01*
X8012328Y7447889D01*
X8023199Y7443520D01*
X8034375Y7439659D01*
X8045805Y7436256D01*
X8057540Y7433360D01*
X8069529Y7430973D01*
X8081670Y7429093D01*
X8132876Y7423454D01*
X8187232Y7446873D01*
X8207502Y7454849D01*
X8231225Y7463434D01*
X8262721Y7474000D01*
X8287054Y7481468D01*
X8316112Y7489748D01*
X8333130Y7494879D01*
X8348522Y7499858D01*
X8361629Y7504379D01*
X8371535Y7508189D01*
X8377631Y7511084D01*
X8387791Y7516977D01*
X8393430Y7519111D01*
X8395766Y7517587D01*
X8396274Y7512456D01*
X8395970Y7511592D01*
X8393582Y7509256D01*
X8389010Y7506258D01*
X8382457Y7502652D01*
X8374075Y7498486D01*
X8352790Y7488885D01*
X8326678Y7478064D01*
X8297367Y7466584D01*
X8266430Y7455052D01*
X8227923Y7441488D01*
X8199120Y7432040D01*
X8173872Y7424521D01*
X8163052Y7421625D01*
X8153704Y7419492D01*
X8146084Y7418070D01*
X8101634Y7411618D01*
X8047481Y7423099D01*
X8032242Y7426909D01*
X8017560Y7431176D01*
X8003641Y7435850D01*
X7990586Y7440879D01*
X7978495Y7446213D01*
X7967522Y7451750D01*
X7957718Y7457490D01*
X7949285Y7463383D01*
X7945577Y7466380D01*
X7942275Y7469378D01*
X7939379Y7472375D01*
X7935315Y7477302D01*
X7932623Y7481620D01*
X7931200Y7485176D01*
X7930997Y7487970D01*
X7903461Y7487970D01*
X7902041Y7483551D01*
X7901736Y7480757D01*
X7901940Y7477556D01*
X7902549Y7474356D01*
X7903565Y7471156D01*
X7904988Y7467904D01*
X7906766Y7464653D01*
X7908899Y7461402D01*
X7911439Y7458151D01*
X7914335Y7454900D01*
X7921142Y7448448D01*
X7929219Y7442047D01*
X7938566Y7435799D01*
X7949082Y7429703D01*
X7960664Y7423759D01*
X7973263Y7418120D01*
X7986826Y7412736D01*
X8001203Y7407656D01*
X8016443Y7402931D01*
X8032343Y7398613D01*
X8048904Y7394752D01*
X8066074Y7391349D01*
X8122666Y7381138D01*
X8183727Y7395921D01*
X8209280Y7403084D01*
X8237270Y7412075D01*
X8266684Y7422337D01*
X8303869Y7436459D01*
X8332571Y7448245D01*
X8359292Y7459929D01*
X8382914Y7471206D01*
X8393277Y7476490D01*
X8402472Y7481519D01*
X8410346Y7486192D01*
X8416798Y7490459D01*
X8421725Y7494320D01*
X8444433Y7514386D01*
X8438235Y7538516D01*
X8436102Y7552893D01*
X8433816Y7575194D01*
X8431479Y7603286D01*
X8429345Y7635036D01*
X8423046Y7761782D01*
X8444636Y7809636D01*
X8515350Y7821066D01*
X8532571Y7823453D01*
X8549182Y7825282D01*
X8564270Y7826552D01*
X8577122Y7827213D01*
X8586927Y7827111D01*
X8590381Y7826806D01*
X8611870Y7823758D01*
X8657488Y7703870D01*
X8657082Y7637576D01*
X8656472Y7623860D01*
X8655405Y7609230D01*
X8653932Y7594142D01*
X8652103Y7579055D01*
X8649919Y7564424D01*
X8647531Y7550658D01*
X8644890Y7538313D01*
X8641029Y7522362D01*
X8638895Y7512405D01*
X8637270Y7503159D01*
X8636101Y7494828D01*
X8635651Y7489952D01*
X8659672Y7489952D01*
X8659774Y7495438D01*
X8662974Y7505598D01*
X8667394Y7515402D01*
X8671052Y7519822D01*
X8674811Y7517282D01*
X8695665Y7500010D01*
X8733485Y7500010D01*
X8734704Y7502956D01*
X8737295Y7506258D01*
X8741257Y7509916D01*
X8746693Y7513980D01*
X8753551Y7518501D01*
X8761933Y7523581D01*
X8778697Y7532928D01*
X8790686Y7538669D01*
X8795816Y7540752D01*
X8800338Y7542326D01*
X8804198Y7543342D01*
X8807500Y7543901D01*
X8810142Y7543952D01*
X8812174Y7543495D01*
X8813546Y7542580D01*
X8814257Y7541158D01*
X8814358Y7539329D01*
X8813749Y7537043D01*
X8812479Y7534300D01*
X8810498Y7531100D01*
X8807856Y7527544D01*
X8804503Y7523530D01*
X8795664Y7514285D01*
X8761831Y7483144D01*
X8741816Y7490409D01*
X8737803Y7492593D01*
X8735110Y7494879D01*
X8733637Y7497318D01*
X8733485Y7500010D01*
X8695665Y7500010D01*
X8718194Y7480655D01*
X8738108Y7464907D01*
X8760206Y7448600D01*
X8780456Y7434580D01*
X8816187Y7434580D01*
X8816187Y7484262D01*
X8845042Y7515606D01*
X8854440Y7524546D01*
X8859215Y7528712D01*
X8868968Y7536332D01*
X8878976Y7543038D01*
X8889136Y7548880D01*
X8899448Y7553756D01*
X8909913Y7557770D01*
X8920378Y7560919D01*
X8930894Y7563103D01*
X8941358Y7564374D01*
X8951772Y7564729D01*
X8962136Y7564120D01*
X8972296Y7562646D01*
X8982303Y7560208D01*
X8987231Y7558684D01*
X8996883Y7554823D01*
X9001607Y7552588D01*
X9010802Y7547356D01*
X9019692Y7541158D01*
X9023959Y7537754D01*
X9032240Y7530134D01*
X9060434Y7499553D01*
X9054947Y7473289D01*
X9053830Y7468971D01*
X9052356Y7464755D01*
X9050578Y7460640D01*
X9048445Y7456627D01*
X9046006Y7452715D01*
X9043263Y7448956D01*
X9040266Y7445298D01*
X9036964Y7441793D01*
X9029547Y7435138D01*
X9025483Y7431989D01*
X9016695Y7426096D01*
X9007043Y7420813D01*
X8996730Y7416088D01*
X8985758Y7412024D01*
X8974277Y7408570D01*
X8962390Y7405725D01*
X8950198Y7403642D01*
X8937752Y7402220D01*
X8925204Y7401509D01*
X8912656Y7401610D01*
X8900109Y7402423D01*
X8887815Y7404100D01*
X8875776Y7406538D01*
X8864092Y7409840D01*
X8858402Y7411821D01*
X8847480Y7416444D01*
X8842248Y7419086D01*
X8816187Y7434580D01*
X8780456Y7434580D01*
X8800693Y7421524D01*
X8808872Y7415936D01*
X8816086Y7410703D01*
X8822131Y7405928D01*
X8826957Y7401814D01*
X8830259Y7398410D01*
X8831986Y7395870D01*
X8831884Y7394397D01*
X8830208Y7393228D01*
X8828125Y7392466D01*
X8825687Y7392060D01*
X8822842Y7392060D01*
X8819591Y7392466D01*
X8815984Y7393228D01*
X8807551Y7395921D01*
X8797594Y7400188D01*
X8786114Y7406030D01*
X8773058Y7413396D01*
X8758478Y7422337D01*
X8742375Y7432802D01*
X8659672Y7489952D01*
X8635651Y7489952D01*
X8635339Y7481874D01*
X8635796Y7477759D01*
X8636863Y7475524D01*
X8645753Y7467701D01*
X8655100Y7460030D01*
X8664803Y7452410D01*
X8674862Y7444943D01*
X8685276Y7437577D01*
X8695994Y7430363D01*
X8706967Y7423302D01*
X8729624Y7409738D01*
X8741206Y7403236D01*
X8764778Y7390942D01*
X8782608Y7382357D01*
X8800541Y7374381D01*
X8818951Y7366863D01*
X8932824Y7366863D01*
X8981795Y7379055D01*
X8994546Y7383018D01*
X9007602Y7387742D01*
X9020251Y7392924D01*
X9031833Y7398308D01*
X9041638Y7403642D01*
X9053118Y7410907D01*
X9059570Y7414666D01*
X9065107Y7417460D01*
X9069628Y7419340D01*
X9073134Y7420254D01*
X9075521Y7420254D01*
X9076842Y7419289D01*
X9076944Y7417460D01*
X9075826Y7414768D01*
X9073489Y7411161D01*
X9069832Y7406640D01*
X9064802Y7401306D01*
X9061907Y7398664D01*
X9054541Y7393431D01*
X9045244Y7388352D01*
X9034526Y7383475D01*
X9022689Y7378953D01*
X9003741Y7373162D01*
X8990838Y7370165D01*
X8978138Y7367879D01*
X8966098Y7366558D01*
X8955074Y7366304D01*
X8932824Y7366863D01*
X8818951Y7366863D01*
X8830310Y7362545D01*
X8842044Y7358380D01*
X8853627Y7354570D01*
X8865057Y7351115D01*
X8876284Y7348016D01*
X8887256Y7345273D01*
X8898026Y7342936D01*
X8908440Y7341057D01*
X8918549Y7339584D01*
X8928303Y7338568D01*
X8937650Y7337958D01*
X8998153Y7337247D01*
X9091015Y7378547D01*
X9125051Y7432954D01*
X9058859Y7553502D01*
X9003233Y7591196D01*
X9014206Y7631226D01*
X8998915Y7652918D01*
X8995714Y7658862D01*
X8992666Y7666024D01*
X8989822Y7674406D01*
X8987129Y7683906D01*
X8984640Y7694523D01*
X8982303Y7706156D01*
X8980170Y7718907D01*
X8978188Y7732572D01*
X8976461Y7747253D01*
X8974937Y7762798D01*
X8973616Y7779258D01*
X8972499Y7796530D01*
X8970924Y7832090D01*
X8969959Y7847990D01*
X8968638Y7862620D01*
X8967063Y7875270D01*
X8965336Y7885277D01*
X8963507Y7891983D01*
X8961069Y7896758D01*
X8959291Y7901178D01*
X8955227Y7913776D01*
X8950909Y7929880D01*
X8946845Y7947710D01*
X8937752Y7991703D01*
X8973616Y8037779D01*
X8957868Y8102752D01*
X8953093Y8125256D01*
X8948623Y8149742D01*
X8944660Y8174380D01*
X8941663Y8197138D01*
X8940596Y8207298D01*
X8935821Y8266226D01*
X8964980Y8354110D01*
X8974836Y8386114D01*
X8982151Y8411260D01*
X8988298Y8433816D01*
X8992768Y8451900D01*
X9003080Y8497874D01*
X9049410Y8545169D01*
X9056166Y8552383D01*
X9069578Y8567877D01*
X9082836Y8584590D01*
X9095943Y8602472D01*
X9108846Y8621420D01*
X9121444Y8641384D01*
X9133840Y8662212D01*
X9139885Y8672931D01*
X9154668Y8700668D01*
X9163304Y8717838D01*
X9174429Y8741257D01*
X9182506Y8759190D01*
X9192869Y8783574D01*
X9202724Y8808364D01*
X9209786Y8827160D01*
X9216593Y8846159D01*
X9225127Y8871610D01*
X9234932Y8903665D01*
X9242094Y8929420D01*
X9250121Y8961475D01*
X9255709Y8987028D01*
X9260586Y9012326D01*
X9264650Y9037370D01*
X9267952Y9062008D01*
X9270390Y9086240D01*
X9275876Y9151416D01*
X9246108Y9245396D01*
X9178747Y9317583D01*
X9072778Y9345980D01*
X8942425Y9325610D01*
X8843518Y9274403D01*
X8794750Y9311894D01*
X8784132Y9319412D01*
X8772347Y9327134D01*
X8759799Y9334906D01*
X8746896Y9342475D01*
X8733942Y9349638D01*
X8721394Y9356140D01*
X8709660Y9361728D01*
X8652865Y9386011D01*
X8605520Y9386265D01*
X8588095Y9387535D01*
X8579459Y9388500D01*
X8571280Y9389719D01*
X8563762Y9391091D01*
X8557158Y9392615D01*
X8547811Y9395460D01*
X8538159Y9397796D01*
X8526475Y9400032D01*
X8513064Y9402013D01*
X8498433Y9403791D01*
X8482990Y9405264D01*
X8467090Y9406483D01*
X8451291Y9407398D01*
X8435898Y9407956D01*
G37*
G36*
X8491626Y9019997D02*
G01*
X8484412Y9019895D01*
X8477402Y9019387D01*
X8470595Y9018422D01*
X8464143Y9017000D01*
X8457895Y9015069D01*
X8451646Y9012580D01*
X8445652Y9009684D01*
X8439962Y9006433D01*
X8434832Y9002979D01*
X8430361Y8999372D01*
X8426754Y8995714D01*
X8424164Y8992158D01*
X8414258Y8975242D01*
X8426246Y8975496D01*
X8432342Y8976614D01*
X8440064Y8979408D01*
X8448395Y8983421D01*
X8460435Y8990888D01*
X8464956Y8993225D01*
X8469884Y8995359D01*
X8474964Y8997238D01*
X8480094Y8998762D01*
X8485124Y8999931D01*
X8489899Y9000642D01*
X8494268Y9000896D01*
X8498586Y9000642D01*
X8503361Y8999931D01*
X8508390Y8998762D01*
X8513521Y8997238D01*
X8518601Y8995359D01*
X8523528Y8993225D01*
X8528100Y8990888D01*
X8539886Y8983472D01*
X8547404Y8979763D01*
X8554415Y8977274D01*
X8560714Y8975953D01*
X8565946Y8975953D01*
X8570010Y8977172D01*
X8572652Y8979712D01*
X8573566Y8983573D01*
X8573058Y8987129D01*
X8571636Y8990584D01*
X8569299Y8993987D01*
X8566200Y8997238D01*
X8562340Y9000388D01*
X8557869Y9003385D01*
X8552738Y9006179D01*
X8547100Y9008770D01*
X8541054Y9011158D01*
X8534552Y9013342D01*
X8527796Y9015222D01*
X8520785Y9016847D01*
X8513572Y9018117D01*
X8506256Y9019133D01*
X8498941Y9019743D01*
G37*
G36*
X8533130Y8853881D02*
G01*
X8528253Y8853678D01*
X8523376Y8853119D01*
X8518448Y8852154D01*
X8508238Y8849309D01*
X8502599Y8847124D01*
X8496909Y8844330D01*
X8491220Y8840978D01*
X8485479Y8837117D01*
X8479840Y8832748D01*
X8474303Y8827973D01*
X8468969Y8822842D01*
X8463788Y8817305D01*
X8458860Y8811514D01*
X8454237Y8805468D01*
X8449919Y8799169D01*
X8448299Y8796477D01*
X8494166Y8796477D01*
X8494166Y8798356D01*
X8495741Y8801150D01*
X8498586Y8804656D01*
X8502446Y8808618D01*
X8507069Y8812834D01*
X8517483Y8820962D01*
X8522766Y8824417D01*
X8527694Y8827211D01*
X8532012Y8829040D01*
X8535466Y8829700D01*
X8539429Y8828633D01*
X8545423Y8825788D01*
X8552586Y8821572D01*
X8560104Y8816441D01*
X8578240Y8803182D01*
X8519363Y8813596D01*
X8513267Y8804503D01*
X8510016Y8800998D01*
X8505647Y8798204D01*
X8500821Y8796324D01*
X8496046Y8795715D01*
X8494166Y8796477D01*
X8448299Y8796477D01*
X8432393Y8768435D01*
X8465616Y8722664D01*
X8468817Y8736990D01*
X8469731Y8739784D01*
X8471306Y8742527D01*
X8473389Y8745169D01*
X8476081Y8747658D01*
X8479282Y8750096D01*
X8482990Y8752433D01*
X8487206Y8754618D01*
X8491880Y8756700D01*
X8497011Y8758682D01*
X8508542Y8762187D01*
X8521649Y8765082D01*
X8536127Y8767368D01*
X8551824Y8768943D01*
X8568588Y8769756D01*
X8587079Y8770061D01*
X8596680Y8770467D01*
X8605875Y8771128D01*
X8614359Y8771991D01*
X8621877Y8773007D01*
X8628278Y8774176D01*
X8633256Y8775446D01*
X8636558Y8776817D01*
X8648242Y8783624D01*
X8614613Y8812022D01*
X8599881Y8823706D01*
X8586622Y8833307D01*
X8580424Y8837422D01*
X8568791Y8844127D01*
X8563305Y8846820D01*
X8558022Y8849004D01*
X8552891Y8850833D01*
X8547811Y8852204D01*
X8542883Y8853170D01*
X8538006Y8853728D01*
G37*
D10*
X12129515Y16014700D02*
G01*
X12272772Y16069310D01*
X12129515Y16123666D02*
G01*
X12272772Y16069310D01*
X12150090Y16230092D02*
G01*
X12272772Y16230092D01*
X12211304Y16168878D02*
G01*
X12211304Y16291560D01*
X11862815Y16069310D02*
G01*
X12006072Y16014700D01*
X11862815Y16069310D02*
G01*
X12006072Y16123666D01*
X11958320Y16035274D02*
G01*
X11958320Y16103345D01*
X11883390Y16230092D02*
G01*
X12006072Y16230092D01*
X11944604Y16168878D02*
G01*
X11944604Y16291560D01*
X11596115Y15887700D02*
G01*
X11739372Y15887700D01*
X11596115Y15887700D02*
G01*
X11596115Y15935452D01*
X11602974Y15955771D01*
X11616690Y15969487D01*
X11630152Y15976345D01*
X11650725Y15983204D01*
X11684761Y15983204D01*
X11705336Y15976345D01*
X11718797Y15969487D01*
X11732513Y15955771D01*
X11739372Y15935452D01*
X11739372Y15887700D01*
X11596115Y16028162D02*
G01*
X11739372Y16028162D01*
X11596115Y16028162D02*
G01*
X11596115Y16075913D01*
X11602974Y16096234D01*
X11616690Y16109950D01*
X11630152Y16116807D01*
X11650725Y16123666D01*
X11684761Y16123666D01*
X11705336Y16116807D01*
X11718797Y16109950D01*
X11732513Y16096234D01*
X11739372Y16075913D01*
X11739372Y16028162D01*
X11616690Y16230092D02*
G01*
X11739372Y16230092D01*
X11677904Y16168624D02*
G01*
X11677904Y16291305D01*
X12383515Y15942310D02*
G01*
X12526772Y15887700D01*
X12383515Y15942310D02*
G01*
X12526772Y15996666D01*
X12479020Y15908274D02*
G01*
X12479020Y15976345D01*
X12383515Y16041878D02*
G01*
X12485877Y16041878D01*
X12506197Y16048481D01*
X12519913Y16062197D01*
X12526772Y16082771D01*
X12526772Y16096234D01*
X12519913Y16116807D01*
X12506197Y16130524D01*
X12485877Y16137128D01*
X12383515Y16137128D01*
X12383515Y16182339D02*
G01*
X12526772Y16182339D01*
X12383515Y16182339D02*
G01*
X12383515Y16230092D01*
X12390374Y16250412D01*
X12404090Y16264128D01*
X12417552Y16270986D01*
X12438125Y16277589D01*
X12472161Y16277589D01*
X12492736Y16270986D01*
X12506197Y16264128D01*
X12519913Y16250412D01*
X12526772Y16230092D01*
X12526772Y16182339D01*
X12891515Y15938500D02*
G01*
X13034772Y15993110D01*
X12891515Y16047466D02*
G01*
X13034772Y15993110D01*
X12891515Y16092678D02*
G01*
X13034772Y16092678D01*
X12891515Y16137636D02*
G01*
X13034772Y16137636D01*
X12891515Y16137636D02*
G01*
X12891515Y16185387D01*
X12898374Y16205707D01*
X12912090Y16219424D01*
X12925552Y16226281D01*
X12946125Y16233139D01*
X12980161Y16233139D01*
X13000736Y16226281D01*
X13014197Y16219424D01*
X13027913Y16205707D01*
X13034772Y16185387D01*
X13034772Y16137636D01*
X12671552Y16002762D02*
G01*
X12658090Y15995904D01*
X12644374Y15982187D01*
X12637515Y15968471D01*
X12637515Y15941294D01*
X12644374Y15927578D01*
X12658090Y15914116D01*
X12671552Y15907257D01*
X12692125Y15900400D01*
X12726161Y15900400D01*
X12746736Y15907257D01*
X12760197Y15914116D01*
X12773913Y15927578D01*
X12780772Y15941294D01*
X12780772Y15968471D01*
X12773913Y15982187D01*
X12760197Y15995904D01*
X12746736Y16002762D01*
X12726161Y16002762D01*
X12726161Y15968471D02*
G01*
X12726161Y16002762D01*
X12637515Y16047720D02*
G01*
X12780772Y16047720D01*
X12637515Y16047720D02*
G01*
X12780772Y16143224D01*
X12637515Y16143224D02*
G01*
X12780772Y16143224D01*
X12637515Y16188181D02*
G01*
X12780772Y16188181D01*
X12637515Y16188181D02*
G01*
X12637515Y16235934D01*
X12644374Y16256254D01*
X12658090Y16269970D01*
X12671552Y16276828D01*
X12692125Y16283686D01*
X12726161Y16283686D01*
X12746736Y16276828D01*
X12760197Y16269970D01*
X12773913Y16256254D01*
X12780772Y16235934D01*
X12780772Y16188181D01*
X11401552Y16002762D02*
G01*
X11388090Y15995904D01*
X11374374Y15982187D01*
X11367515Y15968471D01*
X11367515Y15941294D01*
X11374374Y15927578D01*
X11388090Y15914116D01*
X11401552Y15907257D01*
X11422125Y15900400D01*
X11456161Y15900400D01*
X11476736Y15907257D01*
X11490197Y15914116D01*
X11503913Y15927578D01*
X11510772Y15941294D01*
X11510772Y15968471D01*
X11503913Y15982187D01*
X11490197Y15995904D01*
X11476736Y16002762D01*
X11456161Y16002762D01*
X11456161Y15968471D02*
G01*
X11456161Y16002762D01*
X11367515Y16047720D02*
G01*
X11510772Y16047720D01*
X11367515Y16047720D02*
G01*
X11510772Y16143224D01*
X11367515Y16143224D02*
G01*
X11510772Y16143224D01*
X11367515Y16188181D02*
G01*
X11510772Y16188181D01*
X11367515Y16188181D02*
G01*
X11367515Y16235934D01*
X11374374Y16256254D01*
X11388090Y16269970D01*
X11401552Y16276828D01*
X11422125Y16283686D01*
X11456161Y16283686D01*
X11476736Y16276828D01*
X11490197Y16269970D01*
X11503913Y16256254D01*
X11510772Y16235934D01*
X11510772Y16188181D01*
X11134090Y15995904D02*
G01*
X11120374Y15982187D01*
X11113515Y15961868D01*
X11113515Y15934436D01*
X11120374Y15914116D01*
X11134090Y15900400D01*
X11147552Y15900400D01*
X11161268Y15907257D01*
X11168125Y15914116D01*
X11174984Y15927578D01*
X11188445Y15968471D01*
X11195304Y15982187D01*
X11202161Y15989045D01*
X11215877Y15995904D01*
X11236197Y15995904D01*
X11249913Y15982187D01*
X11256772Y15961868D01*
X11256772Y15934436D01*
X11249913Y15914116D01*
X11236197Y15900400D01*
X11113515Y16040862D02*
G01*
X11256772Y16074897D01*
X11113515Y16108934D02*
G01*
X11256772Y16074897D01*
X11113515Y16108934D02*
G01*
X11256772Y16143224D01*
X11113515Y16177260D02*
G01*
X11256772Y16143224D01*
X11140693Y16222218D02*
G01*
X11134090Y16235934D01*
X11113515Y16256254D01*
X11256772Y16256254D01*
X10867390Y15995904D02*
G01*
X10853674Y15982187D01*
X10846815Y15961868D01*
X10846815Y15934436D01*
X10853674Y15914116D01*
X10867390Y15900400D01*
X10880852Y15900400D01*
X10894568Y15907257D01*
X10901425Y15914116D01*
X10908284Y15927578D01*
X10921745Y15968471D01*
X10928604Y15982187D01*
X10935461Y15989045D01*
X10949177Y15995904D01*
X10969497Y15995904D01*
X10983213Y15982187D01*
X10990072Y15961868D01*
X10990072Y15934436D01*
X10983213Y15914116D01*
X10969497Y15900400D01*
X10846815Y16040862D02*
G01*
X10990072Y16074897D01*
X10846815Y16108934D02*
G01*
X10990072Y16074897D01*
X10846815Y16108934D02*
G01*
X10990072Y16143224D01*
X10846815Y16177260D02*
G01*
X10990072Y16143224D01*
X10873993Y16222218D02*
G01*
X10867390Y16235934D01*
X10846815Y16256254D01*
X10990072Y16256254D01*
D11*
X5613400Y11148568D02*
G01*
X5613400Y10862055D01*
X5613400Y11148568D02*
G01*
X5708904Y11148568D01*
X5749797Y11134852D01*
X5776975Y11107674D01*
X5790691Y11080242D01*
X5804408Y11039347D01*
X5804408Y10971276D01*
X5790691Y10930381D01*
X5776975Y10902950D01*
X5749797Y10875771D01*
X5708904Y10862055D01*
X5613400Y10862055D01*
X5894324Y10971276D02*
G01*
X6057900Y10971276D01*
X6057900Y10998454D01*
X6044184Y11025886D01*
X6030722Y11039347D01*
X6003290Y11053063D01*
X5962395Y11053063D01*
X5935218Y11039347D01*
X5908040Y11012170D01*
X5894324Y10971276D01*
X5894324Y10944097D01*
X5908040Y10902950D01*
X5935218Y10875771D01*
X5962395Y10862055D01*
X6003290Y10862055D01*
X6030722Y10875771D01*
X6057900Y10902950D01*
X6148070Y11053063D02*
G01*
X6148070Y10862055D01*
X6148070Y10998454D02*
G01*
X6188963Y11039347D01*
X6216141Y11053063D01*
X6257036Y11053063D01*
X6284213Y11039347D01*
X6297929Y10998454D01*
X6297929Y10862055D01*
X6551675Y11148568D02*
G01*
X6551675Y10862055D01*
X6551675Y11012170D02*
G01*
X6524243Y11039347D01*
X6497065Y11053063D01*
X6456172Y11053063D01*
X6428740Y11039347D01*
X6401561Y11012170D01*
X6387845Y10971276D01*
X6387845Y10944097D01*
X6401561Y10902950D01*
X6428740Y10875771D01*
X6456172Y10862055D01*
X6497065Y10862055D01*
X6524243Y10875771D01*
X6551675Y10902950D01*
X6655308Y11053063D02*
G01*
X6737095Y10862055D01*
X6818884Y11053063D02*
G01*
X6737095Y10862055D01*
X6709663Y10807700D01*
X6682486Y10780268D01*
X6655308Y10766805D01*
X6641591Y10766805D01*
X7323327Y11080242D02*
G01*
X7309865Y11107674D01*
X7282434Y11134852D01*
X7255256Y11148568D01*
X7200645Y11148568D01*
X7173468Y11134852D01*
X7146036Y11107674D01*
X7132574Y11080242D01*
X7118858Y11039347D01*
X7118858Y10971276D01*
X7132574Y10930381D01*
X7146036Y10902950D01*
X7173468Y10875771D01*
X7200645Y10862055D01*
X7255256Y10862055D01*
X7282434Y10875771D01*
X7309865Y10902950D01*
X7323327Y10930381D01*
X7413497Y11148568D02*
G01*
X7413497Y10862055D01*
X7666990Y11053063D02*
G01*
X7666990Y10862055D01*
X7666990Y11012170D02*
G01*
X7639811Y11039347D01*
X7612379Y11053063D01*
X7571486Y11053063D01*
X7544308Y11039347D01*
X7517129Y11012170D01*
X7503413Y10971276D01*
X7503413Y10944097D01*
X7517129Y10902950D01*
X7544308Y10875771D01*
X7571486Y10862055D01*
X7612379Y10862055D01*
X7639811Y10875771D01*
X7666990Y10902950D01*
X7907020Y11012170D02*
G01*
X7893304Y11039347D01*
X7852409Y11053063D01*
X7811515Y11053063D01*
X7770622Y11039347D01*
X7756906Y11012170D01*
X7770622Y10984992D01*
X7798054Y10971276D01*
X7866125Y10957560D01*
X7893304Y10944097D01*
X7907020Y10916665D01*
X7907020Y10902950D01*
X7893304Y10875771D01*
X7852409Y10862055D01*
X7811515Y10862055D01*
X7770622Y10875771D01*
X7756906Y10902950D01*
X8147050Y11012170D02*
G01*
X8133334Y11039347D01*
X8092440Y11053063D01*
X8051545Y11053063D01*
X8010652Y11039347D01*
X7996936Y11012170D01*
X8010652Y10984992D01*
X8037829Y10971276D01*
X8106156Y10957560D01*
X8133334Y10944097D01*
X8147050Y10916665D01*
X8147050Y10902950D01*
X8133334Y10875771D01*
X8092440Y10862055D01*
X8051545Y10862055D01*
X8010652Y10875771D01*
X7996936Y10902950D01*
X8236965Y11148568D02*
G01*
X8250681Y11134852D01*
X8264397Y11148568D01*
X8250681Y11162284D01*
X8236965Y11148568D01*
X8250681Y11053063D02*
G01*
X8250681Y10862055D01*
X8517890Y11012170D02*
G01*
X8490711Y11039347D01*
X8463279Y11053063D01*
X8422386Y11053063D01*
X8395208Y11039347D01*
X8368029Y11012170D01*
X8354313Y10971276D01*
X8354313Y10944097D01*
X8368029Y10902950D01*
X8395208Y10875771D01*
X8422386Y10862055D01*
X8463279Y10862055D01*
X8490711Y10875771D01*
X8517890Y10902950D01*
X8817863Y11148568D02*
G01*
X8817863Y10862055D01*
X8817863Y11148568D02*
G01*
X8940545Y11148568D01*
X8981693Y11134852D01*
X8995156Y11121136D01*
X9008872Y11093958D01*
X9008872Y11066779D01*
X8995156Y11039347D01*
X8981693Y11025886D01*
X8940545Y11012170D01*
X8817863Y11012170D01*
X8913368Y11012170D02*
G01*
X9008872Y10862055D01*
X9098788Y10971276D02*
G01*
X9262363Y10971276D01*
X9262363Y10998454D01*
X9248902Y11025886D01*
X9235186Y11039347D01*
X9208008Y11053063D01*
X9167113Y11053063D01*
X9139681Y11039347D01*
X9112504Y11012170D01*
X9098788Y10971276D01*
X9098788Y10944097D01*
X9112504Y10902950D01*
X9139681Y10875771D01*
X9167113Y10862055D01*
X9208008Y10862055D01*
X9235186Y10875771D01*
X9262363Y10902950D01*
X9352534Y11148568D02*
G01*
X9352534Y10862055D01*
X9510775Y11053063D02*
G01*
X9483343Y11039347D01*
X9456165Y11012170D01*
X9442450Y10971276D01*
X9442450Y10944097D01*
X9456165Y10902950D01*
X9483343Y10875771D01*
X9510775Y10862055D01*
X9551670Y10862055D01*
X9578847Y10875771D01*
X9606025Y10902950D01*
X9619741Y10944097D01*
X9619741Y10971276D01*
X9606025Y11012170D01*
X9578847Y11039347D01*
X9551670Y11053063D01*
X9510775Y11053063D01*
X9873488Y11053063D02*
G01*
X9873488Y10862055D01*
X9873488Y11012170D02*
G01*
X9846056Y11039347D01*
X9818877Y11053063D01*
X9777984Y11053063D01*
X9750552Y11039347D01*
X9723374Y11012170D01*
X9709658Y10971276D01*
X9709658Y10944097D01*
X9723374Y10902950D01*
X9750552Y10875771D01*
X9777984Y10862055D01*
X9818877Y10862055D01*
X9846056Y10875771D01*
X9873488Y10902950D01*
X10126979Y11148568D02*
G01*
X10126979Y10862055D01*
X10126979Y11012170D02*
G01*
X10099802Y11039347D01*
X10072370Y11053063D01*
X10031475Y11053063D01*
X10004297Y11039347D01*
X9977120Y11012170D01*
X9963404Y10971276D01*
X9963404Y10944097D01*
X9977120Y10902950D01*
X10004297Y10875771D01*
X10031475Y10862055D01*
X10072370Y10862055D01*
X10099802Y10875771D01*
X10126979Y10902950D01*
X10217150Y10971276D02*
G01*
X10380725Y10971276D01*
X10380725Y10998454D01*
X10367009Y11025886D01*
X10353293Y11039347D01*
X10326115Y11053063D01*
X10285222Y11053063D01*
X10258043Y11039347D01*
X10230611Y11012170D01*
X10217150Y10971276D01*
X10217150Y10944097D01*
X10230611Y10902950D01*
X10258043Y10875771D01*
X10285222Y10862055D01*
X10326115Y10862055D01*
X10353293Y10875771D01*
X10380725Y10902950D01*
X10634218Y11148568D02*
G01*
X10634218Y10862055D01*
X10634218Y11012170D02*
G01*
X10607040Y11039347D01*
X10579861Y11053063D01*
X10538968Y11053063D01*
X10511536Y11039347D01*
X10484358Y11012170D01*
X10470641Y10971276D01*
X10470641Y10944097D01*
X10484358Y10902950D01*
X10511536Y10875771D01*
X10538968Y10862055D01*
X10579861Y10862055D01*
X10607040Y10875771D01*
X10634218Y10902950D01*
X10744200Y10972292D02*
G01*
X10989563Y10972292D01*
X11079734Y11135868D02*
G01*
X11079734Y10931397D01*
X11093195Y10890250D01*
X11120627Y10863071D01*
X11161522Y10849355D01*
X11188700Y10849355D01*
X11229593Y10863071D01*
X11257025Y10890250D01*
X11270488Y10931397D01*
X11270488Y11135868D01*
X11360658Y11135868D02*
G01*
X11360658Y10849355D01*
X11360658Y11135868D02*
G01*
X11469624Y10849355D01*
X11578843Y11135868D02*
G01*
X11469624Y10849355D01*
X11578843Y11135868D02*
G01*
X11578843Y10849355D01*
X11832336Y11094974D02*
G01*
X11818620Y11122152D01*
X11777725Y11135868D01*
X11750547Y11135868D01*
X11709654Y11122152D01*
X11682475Y11081258D01*
X11668759Y11013186D01*
X11668759Y10944860D01*
X11682475Y10890250D01*
X11709654Y10863071D01*
X11750547Y10849355D01*
X11764263Y10849355D01*
X11805158Y10863071D01*
X11832336Y10890250D01*
X11846052Y10931397D01*
X11846052Y10944860D01*
X11832336Y10985754D01*
X11805158Y11013186D01*
X11764263Y11026647D01*
X11750547Y11026647D01*
X11709654Y11013186D01*
X11682475Y10985754D01*
X11668759Y10944860D01*
X12099543Y11135868D02*
G01*
X11963400Y11135868D01*
X11949684Y11013186D01*
X11963400Y11026647D01*
X12004293Y11040363D01*
X12045188Y11040363D01*
X12086081Y11026647D01*
X12113259Y10999470D01*
X12126975Y10958576D01*
X12126975Y10931397D01*
X12113259Y10890250D01*
X12086081Y10863071D01*
X12045188Y10849355D01*
X12004293Y10849355D01*
X11963400Y10863071D01*
X11949684Y10876787D01*
X11935968Y10903965D01*
X12380468Y11094974D02*
G01*
X12367006Y11122152D01*
X12326111Y11135868D01*
X12298679Y11135868D01*
X12257786Y11122152D01*
X12230608Y11081258D01*
X12216891Y11013186D01*
X12216891Y10944860D01*
X12230608Y10890250D01*
X12257786Y10863071D01*
X12298679Y10849355D01*
X12312395Y10849355D01*
X12353290Y10863071D01*
X12380468Y10890250D01*
X12394184Y10931397D01*
X12394184Y10944860D01*
X12380468Y10985754D01*
X12353290Y11013186D01*
X12312395Y11026647D01*
X12298679Y11026647D01*
X12257786Y11013186D01*
X12230608Y10985754D01*
X12216891Y10944860D01*
X12484100Y11081258D02*
G01*
X12511531Y11094974D01*
X12552425Y11135868D01*
X12552425Y10849355D01*
D10*
X5600700Y10276078D02*
G01*
X5600700Y10082276D01*
X5600700Y10276078D02*
G01*
X5665470Y10276078D01*
X5693156Y10266934D01*
X5711443Y10248392D01*
X5720841Y10229850D01*
X5729986Y10202163D01*
X5729986Y10156189D01*
X5720841Y10128250D01*
X5711443Y10109962D01*
X5693156Y10091420D01*
X5665470Y10082276D01*
X5600700Y10082276D01*
X5790945Y10156189D02*
G01*
X5901690Y10156189D01*
X5901690Y10174478D01*
X5892545Y10193020D01*
X5883402Y10202163D01*
X5864859Y10211562D01*
X5837174Y10211562D01*
X5818631Y10202163D01*
X5800090Y10183876D01*
X5790945Y10156189D01*
X5790945Y10137647D01*
X5800090Y10109962D01*
X5818631Y10091420D01*
X5837174Y10082276D01*
X5864859Y10082276D01*
X5883402Y10091420D01*
X5901690Y10109962D01*
X5962650Y10211562D02*
G01*
X6018275Y10082276D01*
X6073647Y10211562D02*
G01*
X6018275Y10082276D01*
X6134608Y10156189D02*
G01*
X6245352Y10156189D01*
X6245352Y10174478D01*
X6236208Y10193020D01*
X6226809Y10202163D01*
X6208522Y10211562D01*
X6180836Y10211562D01*
X6162293Y10202163D01*
X6143752Y10183876D01*
X6134608Y10156189D01*
X6134608Y10137647D01*
X6143752Y10109962D01*
X6162293Y10091420D01*
X6180836Y10082276D01*
X6208522Y10082276D01*
X6226809Y10091420D01*
X6245352Y10109962D01*
X6306311Y10276078D02*
G01*
X6306311Y10082276D01*
X6413500Y10211562D02*
G01*
X6394958Y10202163D01*
X6376670Y10183876D01*
X6367272Y10156189D01*
X6367272Y10137647D01*
X6376670Y10109962D01*
X6394958Y10091420D01*
X6413500Y10082276D01*
X6441186Y10082276D01*
X6459727Y10091420D01*
X6478270Y10109962D01*
X6487413Y10137647D01*
X6487413Y10156189D01*
X6478270Y10183876D01*
X6459727Y10202163D01*
X6441186Y10211562D01*
X6413500Y10211562D01*
X6548374Y10211562D02*
G01*
X6548374Y10017505D01*
X6548374Y10183876D02*
G01*
X6566915Y10202163D01*
X6585204Y10211562D01*
X6612890Y10211562D01*
X6631431Y10202163D01*
X6649974Y10183876D01*
X6659118Y10156189D01*
X6659118Y10137647D01*
X6649974Y10109962D01*
X6631431Y10091420D01*
X6612890Y10082276D01*
X6585204Y10082276D01*
X6566915Y10091420D01*
X6548374Y10109962D01*
X6720077Y10156189D02*
G01*
X6831075Y10156189D01*
X6831075Y10174478D01*
X6821677Y10193020D01*
X6812534Y10202163D01*
X6793991Y10211562D01*
X6766306Y10211562D01*
X6747763Y10202163D01*
X6729475Y10183876D01*
X6720077Y10156189D01*
X6720077Y10137647D01*
X6729475Y10109962D01*
X6747763Y10091420D01*
X6766306Y10082276D01*
X6793991Y10082276D01*
X6812534Y10091420D01*
X6831075Y10109962D01*
X7002779Y10276078D02*
G01*
X7002779Y10082276D01*
X7002779Y10183876D02*
G01*
X6984238Y10202163D01*
X6965950Y10211562D01*
X6938009Y10211562D01*
X6919722Y10202163D01*
X6901179Y10183876D01*
X6892036Y10156189D01*
X6892036Y10137647D01*
X6901179Y10109962D01*
X6919722Y10091420D01*
X6938009Y10082276D01*
X6965950Y10082276D01*
X6984238Y10091420D01*
X7002779Y10109962D01*
X7205979Y10276078D02*
G01*
X7205979Y10082276D01*
X7205979Y10183876D02*
G01*
X7224522Y10202163D01*
X7242809Y10211562D01*
X7270750Y10211562D01*
X7289038Y10202163D01*
X7307579Y10183876D01*
X7316724Y10156189D01*
X7316724Y10137647D01*
X7307579Y10109962D01*
X7289038Y10091420D01*
X7270750Y10082276D01*
X7242809Y10082276D01*
X7224522Y10091420D01*
X7205979Y10109962D01*
X7387081Y10211562D02*
G01*
X7442454Y10082276D01*
X7497825Y10211562D02*
G01*
X7442454Y10082276D01*
X7423911Y10045192D01*
X7405370Y10026650D01*
X7387081Y10017505D01*
X7377684Y10017505D01*
X7701025Y10276078D02*
G01*
X7701025Y10082276D01*
X7701025Y10276078D02*
G01*
X7784084Y10276078D01*
X7811770Y10266934D01*
X7821168Y10257789D01*
X7830311Y10239247D01*
X7830311Y10220705D01*
X7821168Y10202163D01*
X7811770Y10193020D01*
X7784084Y10183876D01*
X7701025Y10183876D01*
X7765795Y10183876D02*
G01*
X7830311Y10082276D01*
X7891272Y10156189D02*
G01*
X8002270Y10156189D01*
X8002270Y10174478D01*
X7992872Y10193020D01*
X7983727Y10202163D01*
X7965186Y10211562D01*
X7937500Y10211562D01*
X7918958Y10202163D01*
X7900670Y10183876D01*
X7891272Y10156189D01*
X7891272Y10137647D01*
X7900670Y10109962D01*
X7918958Y10091420D01*
X7937500Y10082276D01*
X7965186Y10082276D01*
X7983727Y10091420D01*
X8002270Y10109962D01*
X8090915Y10276078D02*
G01*
X8090915Y10119105D01*
X8100059Y10091420D01*
X8118602Y10082276D01*
X8136890Y10082276D01*
X8063229Y10211562D02*
G01*
X8127745Y10211562D01*
X8197850Y10211562D02*
G01*
X8197850Y10082276D01*
X8197850Y10156189D02*
G01*
X8207247Y10183876D01*
X8225790Y10202163D01*
X8244077Y10211562D01*
X8271763Y10211562D01*
X8378952Y10211562D02*
G01*
X8360409Y10202163D01*
X8342122Y10183876D01*
X8332724Y10156189D01*
X8332724Y10137647D01*
X8342122Y10109962D01*
X8360409Y10091420D01*
X8378952Y10082276D01*
X8406638Y10082276D01*
X8425179Y10091420D01*
X8443722Y10109962D01*
X8452865Y10137647D01*
X8452865Y10156189D01*
X8443722Y10183876D01*
X8425179Y10202163D01*
X8406638Y10211562D01*
X8378952Y10211562D01*
X8652509Y10229850D02*
G01*
X8643111Y10248392D01*
X8624570Y10266934D01*
X8606281Y10276078D01*
X8569197Y10276078D01*
X8550909Y10266934D01*
X8532368Y10248392D01*
X8522970Y10229850D01*
X8513825Y10202163D01*
X8513825Y10156189D01*
X8522970Y10128250D01*
X8532368Y10109962D01*
X8550909Y10091420D01*
X8569197Y10082276D01*
X8606281Y10082276D01*
X8624570Y10091420D01*
X8643111Y10109962D01*
X8652509Y10128250D01*
X8652509Y10156189D01*
X8606281Y10156189D02*
G01*
X8652509Y10156189D01*
X8824213Y10211562D02*
G01*
X8824213Y10082276D01*
X8824213Y10183876D02*
G01*
X8805672Y10202163D01*
X8787129Y10211562D01*
X8759443Y10211562D01*
X8741156Y10202163D01*
X8722613Y10183876D01*
X8713470Y10156189D01*
X8713470Y10137647D01*
X8722613Y10109962D01*
X8741156Y10091420D01*
X8759443Y10082276D01*
X8787129Y10082276D01*
X8805672Y10091420D01*
X8824213Y10109962D01*
X8885174Y10211562D02*
G01*
X8885174Y10082276D01*
X8885174Y10174478D02*
G01*
X8912859Y10202163D01*
X8931402Y10211562D01*
X8959088Y10211562D01*
X8977629Y10202163D01*
X8986774Y10174478D01*
X8986774Y10082276D01*
X8986774Y10174478D02*
G01*
X9014459Y10202163D01*
X9033002Y10211562D01*
X9060688Y10211562D01*
X9079229Y10202163D01*
X9088374Y10174478D01*
X9088374Y10082276D01*
X9149334Y10156189D02*
G01*
X9260077Y10156189D01*
X9260077Y10174478D01*
X9250934Y10193020D01*
X9241790Y10202163D01*
X9223247Y10211562D01*
X9195561Y10211562D01*
X9177020Y10202163D01*
X9158477Y10183876D01*
X9149334Y10156189D01*
X9149334Y10137647D01*
X9158477Y10109962D01*
X9177020Y10091420D01*
X9195561Y10082276D01*
X9223247Y10082276D01*
X9241790Y10091420D01*
X9260077Y10109962D01*
X9666986Y10235692D02*
G01*
X9648443Y10254234D01*
X9620758Y10263378D01*
X9583927Y10263378D01*
X9556241Y10254234D01*
X9537700Y10235692D01*
X9537700Y10217150D01*
X9546843Y10198862D01*
X9556241Y10189463D01*
X9574529Y10180320D01*
X9630156Y10161778D01*
X9648443Y10152634D01*
X9657841Y10143489D01*
X9666986Y10124947D01*
X9666986Y10097262D01*
X9648443Y10078720D01*
X9620758Y10069576D01*
X9583927Y10069576D01*
X9556241Y10078720D01*
X9537700Y10097262D01*
X9783318Y10263378D02*
G01*
X9765029Y10254234D01*
X9746488Y10235692D01*
X9737090Y10217150D01*
X9727945Y10189463D01*
X9727945Y10143489D01*
X9737090Y10115550D01*
X9746488Y10097262D01*
X9765029Y10078720D01*
X9783318Y10069576D01*
X9820402Y10069576D01*
X9838690Y10078720D01*
X9857231Y10097262D01*
X9866629Y10115550D01*
X9875774Y10143489D01*
X9875774Y10189463D01*
X9866629Y10217150D01*
X9857231Y10235692D01*
X9838690Y10254234D01*
X9820402Y10263378D01*
X9783318Y10263378D01*
X10075163Y10217150D02*
G01*
X10066020Y10235692D01*
X10047477Y10254234D01*
X10029190Y10263378D01*
X9992106Y10263378D01*
X9973563Y10254234D01*
X9955275Y10235692D01*
X9945877Y10217150D01*
X9936734Y10189463D01*
X9936734Y10143489D01*
X9945877Y10115550D01*
X9955275Y10097262D01*
X9973563Y10078720D01*
X9992106Y10069576D01*
X10029190Y10069576D01*
X10047477Y10078720D01*
X10066020Y10097262D01*
X10075163Y10115550D01*
X10136124Y10263378D02*
G01*
X10136124Y10069576D01*
X10265409Y10263378D02*
G01*
X10265409Y10069576D01*
X10136124Y10171176D02*
G01*
X10265409Y10171176D01*
X10326370Y10263378D02*
G01*
X10326370Y10069576D01*
X10538968Y10217150D02*
G01*
X10538968Y10226547D01*
X10548111Y10245089D01*
X10557509Y10254234D01*
X10575797Y10263378D01*
X10612881Y10263378D01*
X10631170Y10254234D01*
X10640568Y10245089D01*
X10649711Y10226547D01*
X10649711Y10208005D01*
X10640568Y10189463D01*
X10622025Y10161778D01*
X10529570Y10069576D01*
X10659109Y10069576D01*
X10775441Y10263378D02*
G01*
X10747756Y10254234D01*
X10729213Y10226547D01*
X10720070Y10180320D01*
X10720070Y10152634D01*
X10729213Y10106405D01*
X10747756Y10078720D01*
X10775441Y10069576D01*
X10793729Y10069576D01*
X10821670Y10078720D01*
X10839958Y10106405D01*
X10849356Y10152634D01*
X10849356Y10180320D01*
X10839958Y10226547D01*
X10821670Y10254234D01*
X10793729Y10263378D01*
X10775441Y10263378D01*
X10919459Y10217150D02*
G01*
X10919459Y10226547D01*
X10928604Y10245089D01*
X10938002Y10254234D01*
X10956290Y10263378D01*
X10993374Y10263378D01*
X11011915Y10254234D01*
X11021059Y10245089D01*
X11030204Y10226547D01*
X11030204Y10208005D01*
X11021059Y10189463D01*
X11002518Y10161778D01*
X10910315Y10069576D01*
X11039602Y10069576D01*
X11118850Y10263378D02*
G01*
X11220450Y10263378D01*
X11165077Y10189463D01*
X11192763Y10189463D01*
X11211306Y10180320D01*
X11220450Y10171176D01*
X11229847Y10143489D01*
X11229847Y10124947D01*
X11220450Y10097262D01*
X11202161Y10078720D01*
X11174475Y10069576D01*
X11146790Y10069576D01*
X11118850Y10078720D01*
X11109706Y10087863D01*
X11100561Y10106405D01*
D11*
X5600700Y10665968D02*
G01*
X5600700Y10379455D01*
X5600700Y10665968D02*
G01*
X5723381Y10665968D01*
X5764275Y10652252D01*
X5777991Y10638536D01*
X5791708Y10611358D01*
X5791708Y10584179D01*
X5777991Y10556747D01*
X5764275Y10543286D01*
X5723381Y10529570D01*
X5600700Y10529570D01*
X5696204Y10529570D02*
G01*
X5791708Y10379455D01*
X5881624Y10488676D02*
G01*
X6045200Y10488676D01*
X6045200Y10515854D01*
X6031484Y10543286D01*
X6018022Y10556747D01*
X5990590Y10570463D01*
X5949695Y10570463D01*
X5922518Y10556747D01*
X5895340Y10529570D01*
X5881624Y10488676D01*
X5881624Y10461497D01*
X5895340Y10420350D01*
X5922518Y10393171D01*
X5949695Y10379455D01*
X5990590Y10379455D01*
X6018022Y10393171D01*
X6045200Y10420350D01*
X6135370Y10570463D02*
G01*
X6217158Y10379455D01*
X6298945Y10570463D02*
G01*
X6217158Y10379455D01*
X6402577Y10447781D02*
G01*
X6388861Y10434065D01*
X6402577Y10420350D01*
X6416040Y10434065D01*
X6402577Y10447781D01*
X6716268Y10611358D02*
G01*
X6743445Y10625074D01*
X6784340Y10665968D01*
X6784340Y10379455D01*
X6887972Y10447781D02*
G01*
X6874256Y10434065D01*
X6887972Y10420350D01*
X6901688Y10434065D01*
X6887972Y10447781D01*
X7073391Y10665968D02*
G01*
X7032497Y10652252D01*
X7005320Y10611358D01*
X6991604Y10543286D01*
X6991604Y10502392D01*
X7005320Y10434065D01*
X7032497Y10393171D01*
X7073391Y10379455D01*
X7100824Y10379455D01*
X7141718Y10393171D01*
X7168895Y10434065D01*
X7182611Y10502392D01*
X7182611Y10543286D01*
X7168895Y10611358D01*
X7141718Y10652252D01*
X7100824Y10665968D01*
X7073391Y10665968D01*
X7299706Y10665968D02*
G01*
X7449820Y10665968D01*
X7368031Y10556747D01*
X7408925Y10556747D01*
X7436104Y10543286D01*
X7449820Y10529570D01*
X7463536Y10488676D01*
X7463536Y10461497D01*
X7449820Y10420350D01*
X7422388Y10393171D01*
X7381493Y10379455D01*
X7340600Y10379455D01*
X7299706Y10393171D01*
X7286243Y10406887D01*
X7272527Y10434065D01*
D12*
X10299702Y13785087D02*
G01*
X10310116Y13790421D01*
X10325610Y13805916D01*
X10325610Y13696950D01*
X10391142Y13805916D02*
G01*
X10375648Y13800836D01*
X10365234Y13785087D01*
X10359900Y13759179D01*
X10359900Y13743686D01*
X10365234Y13717524D01*
X10375648Y13702029D01*
X10391142Y13696950D01*
X10401556Y13696950D01*
X10417050Y13702029D01*
X10427464Y13717524D01*
X10432798Y13743686D01*
X10432798Y13759179D01*
X10427464Y13785087D01*
X10417050Y13800836D01*
X10401556Y13805916D01*
X10391142Y13805916D01*
X10467088Y13769594D02*
G01*
X10467088Y13717524D01*
X10472168Y13702029D01*
X10482582Y13696950D01*
X10498076Y13696950D01*
X10508490Y13702029D01*
X10524238Y13717524D01*
X10524238Y13769594D02*
G01*
X10524238Y13696950D01*
X8262111Y14109700D02*
G01*
X8256777Y14120113D01*
X8241284Y14135607D01*
X8350250Y14135607D01*
X8241284Y14201139D02*
G01*
X8246363Y14185645D01*
X8262111Y14175231D01*
X8288020Y14169897D01*
X8303513Y14169897D01*
X8329675Y14175231D01*
X8345170Y14185645D01*
X8350250Y14201139D01*
X8350250Y14211554D01*
X8345170Y14227047D01*
X8329675Y14237462D01*
X8303513Y14242795D01*
X8288020Y14242795D01*
X8262111Y14237462D01*
X8246363Y14227047D01*
X8241284Y14211554D01*
X8241284Y14201139D01*
X8277606Y14277086D02*
G01*
X8329675Y14277086D01*
X8345170Y14282166D01*
X8350250Y14292579D01*
X8350250Y14308074D01*
X8345170Y14318487D01*
X8329675Y14334236D01*
X8277606Y14334236D02*
G01*
X8350250Y14334236D01*
X11322811Y13957300D02*
G01*
X11317477Y13967713D01*
X11301984Y13983207D01*
X11410950Y13983207D01*
X11301984Y14048739D02*
G01*
X11307063Y14033245D01*
X11322811Y14022831D01*
X11348720Y14017497D01*
X11364213Y14017497D01*
X11390375Y14022831D01*
X11405870Y14033245D01*
X11410950Y14048739D01*
X11410950Y14059154D01*
X11405870Y14074647D01*
X11390375Y14085062D01*
X11364213Y14090395D01*
X11348720Y14090395D01*
X11322811Y14085062D01*
X11307063Y14074647D01*
X11301984Y14059154D01*
X11301984Y14048739D01*
X11338306Y14124686D02*
G01*
X11390375Y14124686D01*
X11405870Y14129766D01*
X11410950Y14140179D01*
X11410950Y14155674D01*
X11405870Y14166087D01*
X11390375Y14181836D01*
X11338306Y14181836D02*
G01*
X11410950Y14181836D01*
X7938008Y13501116D02*
G01*
X7922513Y13496036D01*
X7917179Y13485621D01*
X7917179Y13475207D01*
X7922513Y13464794D01*
X7932927Y13459460D01*
X7953756Y13454379D01*
X7969250Y13449300D01*
X7979663Y13438886D01*
X7984743Y13428471D01*
X7984743Y13412724D01*
X7979663Y13402310D01*
X7974329Y13397229D01*
X7958836Y13392150D01*
X7938008Y13392150D01*
X7922513Y13397229D01*
X7917179Y13402310D01*
X7912100Y13412724D01*
X7912100Y13428471D01*
X7917179Y13438886D01*
X7927593Y13449300D01*
X7943341Y13454379D01*
X7964170Y13459460D01*
X7974329Y13464794D01*
X7979663Y13475207D01*
X7979663Y13485621D01*
X7974329Y13496036D01*
X7958836Y13501116D01*
X7938008Y13501116D01*
X8024368Y13475207D02*
G01*
X8024368Y13480287D01*
X8029447Y13490702D01*
X8034781Y13496036D01*
X8045195Y13501116D01*
X8065770Y13501116D01*
X8076184Y13496036D01*
X8081518Y13490702D01*
X8086597Y13480287D01*
X8086597Y13469874D01*
X8081518Y13459460D01*
X8071104Y13443966D01*
X8019034Y13392150D01*
X8091931Y13392150D01*
X8157209Y13501116D02*
G01*
X8141715Y13496036D01*
X8131302Y13480287D01*
X8126222Y13454379D01*
X8126222Y13438886D01*
X8131302Y13412724D01*
X8141715Y13397229D01*
X8157209Y13392150D01*
X8167624Y13392150D01*
X8183372Y13397229D01*
X8193786Y13412724D01*
X8198865Y13438886D01*
X8198865Y13454379D01*
X8193786Y13480287D01*
X8183372Y13496036D01*
X8167624Y13501116D01*
X8157209Y13501116D01*
X8233156Y13464794D02*
G01*
X8233156Y13355574D01*
X8233156Y13449300D02*
G01*
X8243570Y13459460D01*
X8253984Y13464794D01*
X8269477Y13464794D01*
X8279891Y13459460D01*
X8290306Y13449300D01*
X8295640Y13433552D01*
X8295640Y13423137D01*
X8290306Y13407644D01*
X8279891Y13397229D01*
X8269477Y13392150D01*
X8253984Y13392150D01*
X8243570Y13397229D01*
X8233156Y13407644D01*
X10046972Y4230115D02*
G01*
X9994902Y4157471D01*
X10072880Y4157471D01*
X10046972Y4230115D02*
G01*
X10046972Y4121150D01*
X10179814Y4230115D02*
G01*
X10127998Y4121150D01*
X10107170Y4230115D02*
G01*
X10179814Y4230115D01*
X10245346Y4230115D02*
G01*
X10229852Y4225036D01*
X10219438Y4209287D01*
X10214104Y4183379D01*
X10214104Y4167886D01*
X10219438Y4141723D01*
X10229852Y4126229D01*
X10245346Y4121150D01*
X10255760Y4121150D01*
X10271254Y4126229D01*
X10281668Y4141723D01*
X10287002Y4167886D01*
X10287002Y4183379D01*
X10281668Y4209287D01*
X10271254Y4225036D01*
X10255760Y4230115D01*
X10245346Y4230115D01*
X10321292Y4193794D02*
G01*
X10321292Y4121150D01*
X10321292Y4172965D02*
G01*
X10336786Y4188460D01*
X10347200Y4193794D01*
X10362694Y4193794D01*
X10373108Y4188460D01*
X10378442Y4172965D01*
X10378442Y4121150D01*
X10412732Y4230115D02*
G01*
X10412732Y4121150D01*
X10412732Y4230115D02*
G01*
X10480042Y4230115D01*
X10412732Y4178300D02*
G01*
X10454134Y4178300D01*
X9072879Y4178807D02*
G01*
X9072879Y4183887D01*
X9078213Y4194302D01*
X9083293Y4199636D01*
X9093708Y4204715D01*
X9114536Y4204715D01*
X9124950Y4199636D01*
X9130029Y4194302D01*
X9135363Y4183887D01*
X9135363Y4173473D01*
X9130029Y4163060D01*
X9119870Y4147565D01*
X9067800Y4095750D01*
X9140443Y4095750D01*
X9180068Y4178807D02*
G01*
X9180068Y4183887D01*
X9185147Y4194302D01*
X9190481Y4199636D01*
X9200895Y4204715D01*
X9221470Y4204715D01*
X9231884Y4199636D01*
X9237218Y4194302D01*
X9242297Y4183887D01*
X9242297Y4173473D01*
X9237218Y4163060D01*
X9226804Y4147565D01*
X9174734Y4095750D01*
X9247631Y4095750D01*
X9312909Y4204715D02*
G01*
X9297415Y4199636D01*
X9287002Y4183887D01*
X9281922Y4157979D01*
X9281922Y4142486D01*
X9287002Y4116323D01*
X9297415Y4100829D01*
X9312909Y4095750D01*
X9323324Y4095750D01*
X9339072Y4100829D01*
X9349486Y4116323D01*
X9354565Y4142486D01*
X9354565Y4157979D01*
X9349486Y4183887D01*
X9339072Y4199636D01*
X9323324Y4204715D01*
X9312909Y4204715D01*
X9388856Y4168394D02*
G01*
X9388856Y4116323D01*
X9394190Y4100829D01*
X9404350Y4095750D01*
X9420097Y4095750D01*
X9430511Y4100829D01*
X9446006Y4116323D01*
X9446006Y4168394D02*
G01*
X9446006Y4095750D01*
X9480295Y4204715D02*
G01*
X9480295Y4095750D01*
X9480295Y4204715D02*
G01*
X9547859Y4204715D01*
X9480295Y4152900D02*
G01*
X9521952Y4152900D01*
X7146036Y4455921D02*
G01*
X7146036Y4362450D01*
X7099300Y4409186D02*
G01*
X7192772Y4409186D01*
X7227061Y4471415D02*
G01*
X7227061Y4362450D01*
X7227061Y4362450D02*
G01*
X7289545Y4362450D01*
X7323836Y4471415D02*
G01*
X7323836Y4362450D01*
X7323836Y4471415D02*
G01*
X7391400Y4471415D01*
X7323836Y4419600D02*
G01*
X7365238Y4419600D01*
X7323836Y4362450D02*
G01*
X7391400Y4362450D01*
X7425690Y4471415D02*
G01*
X7425690Y4362450D01*
X7425690Y4471415D02*
G01*
X7462011Y4471415D01*
X7477506Y4466336D01*
X7487920Y4455921D01*
X7493000Y4445507D01*
X7498334Y4429760D01*
X7498334Y4403852D01*
X7493000Y4388357D01*
X7487920Y4377944D01*
X7477506Y4367529D01*
X7462011Y4362450D01*
X7425690Y4362450D01*
X7532624Y4409186D02*
G01*
X7626095Y4409186D01*
X6183884Y4264913D02*
G01*
X6183884Y4322063D01*
X6225540Y4290821D01*
X6225540Y4306570D01*
X6230620Y4316729D01*
X6235700Y4322063D01*
X6251447Y4327144D01*
X6261861Y4327144D01*
X6277356Y4322063D01*
X6287770Y4311650D01*
X6292850Y4296155D01*
X6292850Y4280407D01*
X6287770Y4264913D01*
X6282690Y4259579D01*
X6272275Y4254500D01*
X6183884Y4371847D02*
G01*
X6183884Y4428997D01*
X6225540Y4398010D01*
X6225540Y4413504D01*
X6230620Y4423918D01*
X6235700Y4428997D01*
X6251447Y4434331D01*
X6261861Y4434331D01*
X6277356Y4428997D01*
X6287770Y4418584D01*
X6292850Y4403089D01*
X6292850Y4387595D01*
X6287770Y4371847D01*
X6282690Y4366768D01*
X6272275Y4361434D01*
X6183884Y4499610D02*
G01*
X6188963Y4484115D01*
X6204711Y4473702D01*
X6230620Y4468621D01*
X6246113Y4468621D01*
X6272275Y4473702D01*
X6287770Y4484115D01*
X6292850Y4499610D01*
X6292850Y4510023D01*
X6287770Y4525771D01*
X6272275Y4536186D01*
X6246113Y4541265D01*
X6230620Y4541265D01*
X6204711Y4536186D01*
X6188963Y4525771D01*
X6183884Y4510023D01*
X6183884Y4499610D01*
X13428982Y8128508D02*
G01*
X13428982Y8133587D01*
X13434316Y8144002D01*
X13439396Y8149336D01*
X13449810Y8154415D01*
X13470638Y8154415D01*
X13481052Y8149336D01*
X13486132Y8144002D01*
X13491466Y8133587D01*
X13491466Y8123173D01*
X13486132Y8112760D01*
X13475972Y8097265D01*
X13423902Y8045450D01*
X13496546Y8045450D01*
X13536170Y8128508D02*
G01*
X13536170Y8133587D01*
X13541250Y8144002D01*
X13546584Y8149336D01*
X13556998Y8154415D01*
X13577572Y8154415D01*
X13587986Y8149336D01*
X13593320Y8144002D01*
X13598400Y8133587D01*
X13598400Y8123173D01*
X13593320Y8112760D01*
X13582906Y8097265D01*
X13530836Y8045450D01*
X13603734Y8045450D01*
X13669012Y8154415D02*
G01*
X13653518Y8149336D01*
X13643104Y8133587D01*
X13638024Y8107679D01*
X13638024Y8092186D01*
X13643104Y8066023D01*
X13653518Y8050529D01*
X13669012Y8045450D01*
X13679426Y8045450D01*
X13695174Y8050529D01*
X13705588Y8066023D01*
X13710668Y8092186D01*
X13710668Y8107679D01*
X13705588Y8133587D01*
X13695174Y8149336D01*
X13679426Y8154415D01*
X13669012Y8154415D01*
X13744958Y8118094D02*
G01*
X13744958Y8066023D01*
X13750292Y8050529D01*
X13760452Y8045450D01*
X13776200Y8045450D01*
X13786614Y8050529D01*
X13802108Y8066023D01*
X13802108Y8118094D02*
G01*
X13802108Y8045450D01*
X13836398Y8154415D02*
G01*
X13836398Y8045450D01*
X13836398Y8154415D02*
G01*
X13903962Y8154415D01*
X13836398Y8102600D02*
G01*
X13878054Y8102600D01*
X14267182Y14351507D02*
G01*
X14267182Y14356587D01*
X14272516Y14367002D01*
X14277596Y14372336D01*
X14288010Y14377416D01*
X14308838Y14377416D01*
X14319252Y14372336D01*
X14324332Y14367002D01*
X14329666Y14356587D01*
X14329666Y14346174D01*
X14324332Y14335760D01*
X14314172Y14320266D01*
X14262102Y14268450D01*
X14334746Y14268450D01*
X14374370Y14351507D02*
G01*
X14374370Y14356587D01*
X14379450Y14367002D01*
X14384784Y14372336D01*
X14395198Y14377416D01*
X14415772Y14377416D01*
X14426186Y14372336D01*
X14431520Y14367002D01*
X14436600Y14356587D01*
X14436600Y14346174D01*
X14431520Y14335760D01*
X14421106Y14320266D01*
X14369036Y14268450D01*
X14441934Y14268450D01*
X14507212Y14377416D02*
G01*
X14491718Y14372336D01*
X14481304Y14356587D01*
X14476224Y14330679D01*
X14476224Y14315186D01*
X14481304Y14289024D01*
X14491718Y14273529D01*
X14507212Y14268450D01*
X14517626Y14268450D01*
X14533374Y14273529D01*
X14543788Y14289024D01*
X14548868Y14315186D01*
X14548868Y14330679D01*
X14543788Y14356587D01*
X14533374Y14372336D01*
X14517626Y14377416D01*
X14507212Y14377416D01*
X14583158Y14341094D02*
G01*
X14583158Y14289024D01*
X14588492Y14273529D01*
X14598652Y14268450D01*
X14614400Y14268450D01*
X14624814Y14273529D01*
X14640308Y14289024D01*
X14640308Y14341094D02*
G01*
X14640308Y14268450D01*
X14674598Y14377416D02*
G01*
X14674598Y14268450D01*
X14674598Y14377416D02*
G01*
X14742162Y14377416D01*
X14674598Y14325600D02*
G01*
X14716254Y14325600D01*
X5618482Y14262607D02*
G01*
X5618482Y14267687D01*
X5623816Y14278102D01*
X5628896Y14283436D01*
X5639310Y14288516D01*
X5660138Y14288516D01*
X5670552Y14283436D01*
X5675632Y14278102D01*
X5680966Y14267687D01*
X5680966Y14257274D01*
X5675632Y14246860D01*
X5665472Y14231366D01*
X5613402Y14179550D01*
X5686046Y14179550D01*
X5725670Y14262607D02*
G01*
X5725670Y14267687D01*
X5730750Y14278102D01*
X5736084Y14283436D01*
X5746498Y14288516D01*
X5767072Y14288516D01*
X5777486Y14283436D01*
X5782820Y14278102D01*
X5787900Y14267687D01*
X5787900Y14257274D01*
X5782820Y14246860D01*
X5772406Y14231366D01*
X5720336Y14179550D01*
X5793234Y14179550D01*
X5858512Y14288516D02*
G01*
X5843018Y14283436D01*
X5832604Y14267687D01*
X5827524Y14241779D01*
X5827524Y14226286D01*
X5832604Y14200124D01*
X5843018Y14184629D01*
X5858512Y14179550D01*
X5868926Y14179550D01*
X5884674Y14184629D01*
X5895088Y14200124D01*
X5900168Y14226286D01*
X5900168Y14241779D01*
X5895088Y14267687D01*
X5884674Y14283436D01*
X5868926Y14288516D01*
X5858512Y14288516D01*
X5934458Y14252194D02*
G01*
X5934458Y14200124D01*
X5939792Y14184629D01*
X5949952Y14179550D01*
X5965700Y14179550D01*
X5976114Y14184629D01*
X5991608Y14200124D01*
X5991608Y14252194D02*
G01*
X5991608Y14179550D01*
X6025898Y14288516D02*
G01*
X6025898Y14179550D01*
X6025898Y14288516D02*
G01*
X6093462Y14288516D01*
X6025898Y14236700D02*
G01*
X6067554Y14236700D01*
X4983482Y15291307D02*
G01*
X4983482Y15296387D01*
X4988816Y15306802D01*
X4993896Y15312136D01*
X5004310Y15317216D01*
X5025138Y15317216D01*
X5035552Y15312136D01*
X5040632Y15306802D01*
X5045966Y15296387D01*
X5045966Y15285974D01*
X5040632Y15275560D01*
X5030472Y15260066D01*
X4978402Y15208250D01*
X5051046Y15208250D01*
X5090670Y15291307D02*
G01*
X5090670Y15296387D01*
X5095750Y15306802D01*
X5101084Y15312136D01*
X5111498Y15317216D01*
X5132072Y15317216D01*
X5142486Y15312136D01*
X5147820Y15306802D01*
X5152900Y15296387D01*
X5152900Y15285974D01*
X5147820Y15275560D01*
X5137406Y15260066D01*
X5085336Y15208250D01*
X5158234Y15208250D01*
X5223512Y15317216D02*
G01*
X5208018Y15312136D01*
X5197604Y15296387D01*
X5192524Y15270479D01*
X5192524Y15254986D01*
X5197604Y15228824D01*
X5208018Y15213329D01*
X5223512Y15208250D01*
X5233926Y15208250D01*
X5249674Y15213329D01*
X5260088Y15228824D01*
X5265168Y15254986D01*
X5265168Y15270479D01*
X5260088Y15296387D01*
X5249674Y15312136D01*
X5233926Y15317216D01*
X5223512Y15317216D01*
X5299458Y15280894D02*
G01*
X5299458Y15228824D01*
X5304792Y15213329D01*
X5314952Y15208250D01*
X5330700Y15208250D01*
X5341114Y15213329D01*
X5356608Y15228824D01*
X5356608Y15280894D02*
G01*
X5356608Y15208250D01*
X5390898Y15317216D02*
G01*
X5390898Y15208250D01*
X5390898Y15317216D02*
G01*
X5458462Y15317216D01*
X5390898Y15265400D02*
G01*
X5432554Y15265400D01*
X13454382Y14338807D02*
G01*
X13454382Y14343887D01*
X13459716Y14354302D01*
X13464796Y14359636D01*
X13475210Y14364716D01*
X13496038Y14364716D01*
X13506452Y14359636D01*
X13511532Y14354302D01*
X13516866Y14343887D01*
X13516866Y14333474D01*
X13511532Y14323060D01*
X13501372Y14307566D01*
X13449302Y14255750D01*
X13521946Y14255750D01*
X13561570Y14338807D02*
G01*
X13561570Y14343887D01*
X13566650Y14354302D01*
X13571984Y14359636D01*
X13582398Y14364716D01*
X13602972Y14364716D01*
X13613386Y14359636D01*
X13618720Y14354302D01*
X13623800Y14343887D01*
X13623800Y14333474D01*
X13618720Y14323060D01*
X13608306Y14307566D01*
X13556236Y14255750D01*
X13629134Y14255750D01*
X13694412Y14364716D02*
G01*
X13678918Y14359636D01*
X13668504Y14343887D01*
X13663424Y14317979D01*
X13663424Y14302486D01*
X13668504Y14276324D01*
X13678918Y14260829D01*
X13694412Y14255750D01*
X13704826Y14255750D01*
X13720574Y14260829D01*
X13730988Y14276324D01*
X13736068Y14302486D01*
X13736068Y14317979D01*
X13730988Y14343887D01*
X13720574Y14359636D01*
X13704826Y14364716D01*
X13694412Y14364716D01*
X13770358Y14328394D02*
G01*
X13770358Y14276324D01*
X13775692Y14260829D01*
X13785852Y14255750D01*
X13801600Y14255750D01*
X13812014Y14260829D01*
X13827508Y14276324D01*
X13827508Y14328394D02*
G01*
X13827508Y14255750D01*
X13861798Y14364716D02*
G01*
X13861798Y14255750D01*
X13861798Y14364716D02*
G01*
X13929362Y14364716D01*
X13861798Y14312900D02*
G01*
X13903454Y14312900D01*
X11447779Y8115808D02*
G01*
X11447779Y8120887D01*
X11453113Y8131302D01*
X11458193Y8136636D01*
X11468608Y8141715D01*
X11489436Y8141715D01*
X11499850Y8136636D01*
X11504929Y8131302D01*
X11510263Y8120887D01*
X11510263Y8110473D01*
X11504929Y8100060D01*
X11494770Y8084565D01*
X11442700Y8032750D01*
X11515343Y8032750D01*
X11554968Y8115808D02*
G01*
X11554968Y8120887D01*
X11560047Y8131302D01*
X11565381Y8136636D01*
X11575795Y8141715D01*
X11596370Y8141715D01*
X11606784Y8136636D01*
X11612118Y8131302D01*
X11617197Y8120887D01*
X11617197Y8110473D01*
X11612118Y8100060D01*
X11601704Y8084565D01*
X11549634Y8032750D01*
X11622531Y8032750D01*
X11687809Y8141715D02*
G01*
X11672315Y8136636D01*
X11661902Y8120887D01*
X11656822Y8094979D01*
X11656822Y8079486D01*
X11661902Y8053323D01*
X11672315Y8037829D01*
X11687809Y8032750D01*
X11698224Y8032750D01*
X11713972Y8037829D01*
X11724386Y8053323D01*
X11729465Y8079486D01*
X11729465Y8094979D01*
X11724386Y8120887D01*
X11713972Y8136636D01*
X11698224Y8141715D01*
X11687809Y8141715D01*
X11763756Y8105394D02*
G01*
X11763756Y8053323D01*
X11769090Y8037829D01*
X11779250Y8032750D01*
X11794997Y8032750D01*
X11805411Y8037829D01*
X11820906Y8053323D01*
X11820906Y8105394D02*
G01*
X11820906Y8032750D01*
X11855195Y8141715D02*
G01*
X11855195Y8032750D01*
X11855195Y8141715D02*
G01*
X11922759Y8141715D01*
X11855195Y8089900D02*
G01*
X11896852Y8089900D01*
X12586957Y8268715D02*
G01*
X12534887Y8196071D01*
X12612865Y8196071D01*
X12586957Y8268715D02*
G01*
X12586957Y8159750D01*
X12719799Y8268715D02*
G01*
X12667983Y8159750D01*
X12647155Y8268715D02*
G01*
X12719799Y8268715D01*
X12785331Y8268715D02*
G01*
X12769837Y8263636D01*
X12759423Y8247887D01*
X12754089Y8221979D01*
X12754089Y8206486D01*
X12759423Y8180323D01*
X12769837Y8164829D01*
X12785331Y8159750D01*
X12795745Y8159750D01*
X12811239Y8164829D01*
X12821653Y8180323D01*
X12826987Y8206486D01*
X12826987Y8221979D01*
X12821653Y8247887D01*
X12811239Y8263636D01*
X12795745Y8268715D01*
X12785331Y8268715D01*
X12861277Y8232394D02*
G01*
X12861277Y8159750D01*
X12861277Y8211565D02*
G01*
X12876771Y8227060D01*
X12887185Y8232394D01*
X12902679Y8232394D01*
X12913093Y8227060D01*
X12918427Y8211565D01*
X12918427Y8159750D01*
X12952717Y8268715D02*
G01*
X12952717Y8159750D01*
X12952717Y8268715D02*
G01*
X13020027Y8268715D01*
X12952717Y8216900D02*
G01*
X12994119Y8216900D01*
X5601959Y5589015D02*
G01*
X5549889Y5516371D01*
X5627867Y5516371D01*
X5601959Y5589015D02*
G01*
X5601959Y5480050D01*
X5734801Y5589015D02*
G01*
X5682985Y5480050D01*
X5662157Y5589015D02*
G01*
X5734801Y5589015D01*
X5800333Y5589015D02*
G01*
X5784839Y5583936D01*
X5774425Y5568187D01*
X5769091Y5542279D01*
X5769091Y5526786D01*
X5774425Y5500623D01*
X5784839Y5485129D01*
X5800333Y5480050D01*
X5810747Y5480050D01*
X5826241Y5485129D01*
X5836655Y5500623D01*
X5841989Y5526786D01*
X5841989Y5542279D01*
X5836655Y5568187D01*
X5826241Y5583936D01*
X5810747Y5589015D01*
X5800333Y5589015D01*
X5876279Y5552694D02*
G01*
X5876279Y5480050D01*
X5876279Y5531865D02*
G01*
X5891773Y5547360D01*
X5902187Y5552694D01*
X5917681Y5552694D01*
X5928095Y5547360D01*
X5933429Y5531865D01*
X5933429Y5480050D01*
X5967719Y5589015D02*
G01*
X5967719Y5480050D01*
X5967719Y5589015D02*
G01*
X6035029Y5589015D01*
X5967719Y5537200D02*
G01*
X6009121Y5537200D01*
X13285472Y6846315D02*
G01*
X13233402Y6773671D01*
X13311380Y6773671D01*
X13285472Y6846315D02*
G01*
X13285472Y6737350D01*
X13418314Y6846315D02*
G01*
X13366498Y6737350D01*
X13345670Y6846315D02*
G01*
X13418314Y6846315D01*
X13483846Y6846315D02*
G01*
X13468352Y6841236D01*
X13457938Y6825487D01*
X13452604Y6799579D01*
X13452604Y6784086D01*
X13457938Y6757923D01*
X13468352Y6742429D01*
X13483846Y6737350D01*
X13494260Y6737350D01*
X13509754Y6742429D01*
X13520168Y6757923D01*
X13525502Y6784086D01*
X13525502Y6799579D01*
X13520168Y6825487D01*
X13509754Y6841236D01*
X13494260Y6846315D01*
X13483846Y6846315D01*
X13559792Y6809994D02*
G01*
X13559792Y6737350D01*
X13559792Y6789165D02*
G01*
X13575286Y6804660D01*
X13585700Y6809994D01*
X13601194Y6809994D01*
X13611608Y6804660D01*
X13616942Y6789165D01*
X13616942Y6737350D01*
X13651232Y6846315D02*
G01*
X13651232Y6737350D01*
X13651232Y6846315D02*
G01*
X13718542Y6846315D01*
X13651232Y6794500D02*
G01*
X13692634Y6794500D01*
X5320284Y14428472D02*
G01*
X5392927Y14376402D01*
X5392927Y14454380D01*
X5320284Y14428472D02*
G01*
X5429250Y14428472D01*
X5320284Y14561314D02*
G01*
X5429250Y14509498D01*
X5320284Y14488670D02*
G01*
X5320284Y14561314D01*
X5320284Y14626846D02*
G01*
X5325363Y14611352D01*
X5341111Y14600938D01*
X5367020Y14595604D01*
X5382513Y14595604D01*
X5408675Y14600938D01*
X5424170Y14611352D01*
X5429250Y14626846D01*
X5429250Y14637260D01*
X5424170Y14652754D01*
X5408675Y14663168D01*
X5382513Y14668502D01*
X5367020Y14668502D01*
X5341111Y14663168D01*
X5325363Y14652754D01*
X5320284Y14637260D01*
X5320284Y14626846D01*
X5356606Y14702792D02*
G01*
X5429250Y14702792D01*
X5377434Y14702792D02*
G01*
X5361940Y14718286D01*
X5356606Y14728700D01*
X5356606Y14744194D01*
X5361940Y14754608D01*
X5377434Y14759942D01*
X5429250Y14759942D01*
X5320284Y14794232D02*
G01*
X5429250Y14794232D01*
X5320284Y14794232D02*
G01*
X5320284Y14861542D01*
X5372100Y14794232D02*
G01*
X5372100Y14835634D01*
X10833100Y14432787D02*
G01*
X10843513Y14438121D01*
X10859008Y14453616D01*
X10859008Y14344650D01*
X10924540Y14453616D02*
G01*
X10909045Y14448536D01*
X10898631Y14432787D01*
X10893297Y14406879D01*
X10893297Y14391386D01*
X10898631Y14365224D01*
X10909045Y14349729D01*
X10924540Y14344650D01*
X10934954Y14344650D01*
X10950447Y14349729D01*
X10960861Y14365224D01*
X10966195Y14391386D01*
X10966195Y14406879D01*
X10960861Y14432787D01*
X10950447Y14448536D01*
X10934954Y14453616D01*
X10924540Y14453616D01*
X11031474Y14453616D02*
G01*
X11015979Y14448536D01*
X11005565Y14432787D01*
X11000486Y14406879D01*
X11000486Y14391386D01*
X11005565Y14365224D01*
X11015979Y14349729D01*
X11031474Y14344650D01*
X11041888Y14344650D01*
X11057636Y14349729D01*
X11068050Y14365224D01*
X11073129Y14391386D01*
X11073129Y14406879D01*
X11068050Y14432787D01*
X11057636Y14448536D01*
X11041888Y14453616D01*
X11031474Y14453616D01*
X11107420Y14417294D02*
G01*
X11107420Y14365224D01*
X11112500Y14349729D01*
X11122913Y14344650D01*
X11138661Y14344650D01*
X11149075Y14349729D01*
X11164570Y14365224D01*
X11164570Y14417294D02*
G01*
X11164570Y14344650D01*
X11198859Y14453616D02*
G01*
X11198859Y14344650D01*
X11198859Y14453616D02*
G01*
X11266424Y14453616D01*
X11198859Y14401800D02*
G01*
X11240515Y14401800D01*
X11394186Y14474444D02*
G01*
X11300713Y14308074D01*
X11428475Y14432787D02*
G01*
X11438890Y14438121D01*
X11454384Y14453616D01*
X11454384Y14344650D01*
X11551158Y14438121D02*
G01*
X11545824Y14448536D01*
X11530329Y14453616D01*
X11519915Y14453616D01*
X11504422Y14448536D01*
X11494008Y14432787D01*
X11488674Y14406879D01*
X11488674Y14380971D01*
X11494008Y14360144D01*
X11504422Y14349729D01*
X11519915Y14344650D01*
X11525250Y14344650D01*
X11540743Y14349729D01*
X11551158Y14360144D01*
X11556238Y14375637D01*
X11556238Y14380971D01*
X11551158Y14396466D01*
X11540743Y14406879D01*
X11525250Y14411960D01*
X11519915Y14411960D01*
X11504422Y14406879D01*
X11494008Y14396466D01*
X11488674Y14380971D01*
X11590527Y14453616D02*
G01*
X11632184Y14344650D01*
X11673840Y14453616D02*
G01*
X11632184Y14344650D01*
X11842244Y5423910D02*
G01*
X11826496Y5418830D01*
X11816082Y5403082D01*
X11811002Y5377174D01*
X11811002Y5361680D01*
X11816082Y5335518D01*
X11826496Y5320024D01*
X11842244Y5314944D01*
X11852658Y5314944D01*
X11868152Y5320024D01*
X11878566Y5335518D01*
X11883646Y5361680D01*
X11883646Y5377174D01*
X11878566Y5403082D01*
X11868152Y5418830D01*
X11852658Y5423910D01*
X11842244Y5423910D01*
X11923270Y5340852D02*
G01*
X11917936Y5335518D01*
X11923270Y5330438D01*
X11928350Y5335518D01*
X11923270Y5340852D01*
X12014710Y5423910D02*
G01*
X11962640Y5351266D01*
X12040618Y5351266D01*
X12014710Y5423910D02*
G01*
X12014710Y5314944D01*
X12147552Y5423910D02*
G01*
X12095736Y5314944D01*
X12074908Y5423910D02*
G01*
X12147552Y5423910D01*
X12181842Y5387588D02*
G01*
X12181842Y5335518D01*
X12187176Y5320024D01*
X12197590Y5314944D01*
X12213084Y5314944D01*
X12223498Y5320024D01*
X12238992Y5335518D01*
X12238992Y5387588D02*
G01*
X12238992Y5314944D01*
X12273282Y5423910D02*
G01*
X12273282Y5314944D01*
X12273282Y5423910D02*
G01*
X12340846Y5423910D01*
X12273282Y5372094D02*
G01*
X12314938Y5372094D01*
X12468862Y5444738D02*
G01*
X12375136Y5278368D01*
X12503152Y5403082D02*
G01*
X12513312Y5408416D01*
X12529060Y5423910D01*
X12529060Y5314944D01*
X12625580Y5408416D02*
G01*
X12620500Y5418830D01*
X12604752Y5423910D01*
X12594592Y5423910D01*
X12578844Y5418830D01*
X12568430Y5403082D01*
X12563350Y5377174D01*
X12563350Y5351266D01*
X12568430Y5330438D01*
X12578844Y5320024D01*
X12594592Y5314944D01*
X12599672Y5314944D01*
X12615166Y5320024D01*
X12625580Y5330438D01*
X12630914Y5345932D01*
X12630914Y5351266D01*
X12625580Y5366760D01*
X12615166Y5377174D01*
X12599672Y5382254D01*
X12594592Y5382254D01*
X12578844Y5377174D01*
X12568430Y5366760D01*
X12563350Y5351266D01*
X12665204Y5423910D02*
G01*
X12706606Y5314944D01*
X12748262Y5423910D02*
G01*
X12706606Y5314944D01*
X5753100Y13391393D02*
G01*
X5763513Y13396727D01*
X5779008Y13412221D01*
X5779008Y13303255D01*
X5844540Y13412221D02*
G01*
X5829045Y13407141D01*
X5818631Y13391393D01*
X5813297Y13365485D01*
X5813297Y13349991D01*
X5818631Y13323829D01*
X5829045Y13308335D01*
X5844540Y13303255D01*
X5854954Y13303255D01*
X5870447Y13308335D01*
X5880861Y13323829D01*
X5886195Y13349991D01*
X5886195Y13365485D01*
X5880861Y13391393D01*
X5870447Y13407141D01*
X5854954Y13412221D01*
X5844540Y13412221D01*
X5920486Y13375899D02*
G01*
X5920486Y13323829D01*
X5925565Y13308335D01*
X5935979Y13303255D01*
X5951474Y13303255D01*
X5961888Y13308335D01*
X5977636Y13323829D01*
X5977636Y13375899D02*
G01*
X5977636Y13303255D01*
X6011925Y13412221D02*
G01*
X6011925Y13303255D01*
X6011925Y13412221D02*
G01*
X6079490Y13412221D01*
X6011925Y13360405D02*
G01*
X6053327Y13360405D01*
X6207252Y13433049D02*
G01*
X6113779Y13266679D01*
X6241541Y13391393D02*
G01*
X6251956Y13396727D01*
X6267450Y13412221D01*
X6267450Y13303255D01*
X6363970Y13396727D02*
G01*
X6358890Y13407141D01*
X6343395Y13412221D01*
X6332981Y13412221D01*
X6317234Y13407141D01*
X6306820Y13391393D01*
X6301740Y13365485D01*
X6301740Y13339577D01*
X6306820Y13318749D01*
X6317234Y13308335D01*
X6332981Y13303255D01*
X6338061Y13303255D01*
X6353809Y13308335D01*
X6363970Y13318749D01*
X6369304Y13334243D01*
X6369304Y13339577D01*
X6363970Y13355071D01*
X6353809Y13365485D01*
X6338061Y13370565D01*
X6332981Y13370565D01*
X6317234Y13365485D01*
X6306820Y13355071D01*
X6301740Y13339577D01*
X6403593Y13412221D02*
G01*
X6445250Y13303255D01*
X6486652Y13412221D02*
G01*
X6445250Y13303255D01*
X9687813Y5601715D02*
G01*
X9744963Y5601715D01*
X9713722Y5560060D01*
X9729470Y5560060D01*
X9739629Y5554979D01*
X9744963Y5549900D01*
X9750043Y5534152D01*
X9750043Y5523737D01*
X9744963Y5508244D01*
X9734550Y5497829D01*
X9719056Y5492750D01*
X9703308Y5492750D01*
X9687813Y5497829D01*
X9682479Y5502910D01*
X9677400Y5513323D01*
X9794747Y5601715D02*
G01*
X9851897Y5601715D01*
X9820909Y5560060D01*
X9836404Y5560060D01*
X9846818Y5554979D01*
X9851897Y5549900D01*
X9857231Y5534152D01*
X9857231Y5523737D01*
X9851897Y5508244D01*
X9841484Y5497829D01*
X9825990Y5492750D01*
X9810495Y5492750D01*
X9794747Y5497829D01*
X9789668Y5502910D01*
X9784334Y5513323D01*
X9891522Y5565394D02*
G01*
X9891522Y5456173D01*
X9891522Y5549900D02*
G01*
X9901936Y5560060D01*
X9912350Y5565394D01*
X9927843Y5565394D01*
X9938258Y5560060D01*
X9948672Y5549900D01*
X9953752Y5534152D01*
X9953752Y5523737D01*
X9948672Y5508244D01*
X9938258Y5497829D01*
X9927843Y5492750D01*
X9912350Y5492750D01*
X9901936Y5497829D01*
X9891522Y5508244D01*
X9988041Y5601715D02*
G01*
X9988041Y5492750D01*
X9988041Y5601715D02*
G01*
X10055606Y5601715D01*
X9988041Y5549900D02*
G01*
X10029697Y5549900D01*
X9090913Y5601715D02*
G01*
X9148063Y5601715D01*
X9116822Y5560060D01*
X9132570Y5560060D01*
X9142729Y5554979D01*
X9148063Y5549900D01*
X9153143Y5534152D01*
X9153143Y5523737D01*
X9148063Y5508244D01*
X9137650Y5497829D01*
X9122156Y5492750D01*
X9106408Y5492750D01*
X9090913Y5497829D01*
X9085579Y5502910D01*
X9080500Y5513323D01*
X9197847Y5601715D02*
G01*
X9254997Y5601715D01*
X9224009Y5560060D01*
X9239504Y5560060D01*
X9249918Y5554979D01*
X9254997Y5549900D01*
X9260331Y5534152D01*
X9260331Y5523737D01*
X9254997Y5508244D01*
X9244584Y5497829D01*
X9229090Y5492750D01*
X9213595Y5492750D01*
X9197847Y5497829D01*
X9192768Y5502910D01*
X9187434Y5513323D01*
X9294622Y5565394D02*
G01*
X9294622Y5456173D01*
X9294622Y5549900D02*
G01*
X9305036Y5560060D01*
X9315450Y5565394D01*
X9330943Y5565394D01*
X9341358Y5560060D01*
X9351772Y5549900D01*
X9356852Y5534152D01*
X9356852Y5523737D01*
X9351772Y5508244D01*
X9341358Y5497829D01*
X9330943Y5492750D01*
X9315450Y5492750D01*
X9305036Y5497829D01*
X9294622Y5508244D01*
X9391141Y5601715D02*
G01*
X9391141Y5492750D01*
X9391141Y5601715D02*
G01*
X9458706Y5601715D01*
X9391141Y5549900D02*
G01*
X9432797Y5549900D01*
X14503400Y15321787D02*
G01*
X14513813Y15327121D01*
X14529308Y15342616D01*
X14529308Y15233650D01*
X14594840Y15342616D02*
G01*
X14579345Y15337536D01*
X14568931Y15321787D01*
X14563597Y15295879D01*
X14563597Y15280386D01*
X14568931Y15254224D01*
X14579345Y15238729D01*
X14594840Y15233650D01*
X14605254Y15233650D01*
X14620747Y15238729D01*
X14631161Y15254224D01*
X14636495Y15280386D01*
X14636495Y15295879D01*
X14631161Y15321787D01*
X14620747Y15337536D01*
X14605254Y15342616D01*
X14594840Y15342616D01*
X14701774Y15342616D02*
G01*
X14686279Y15337536D01*
X14675866Y15321787D01*
X14670786Y15295879D01*
X14670786Y15280386D01*
X14675866Y15254224D01*
X14686279Y15238729D01*
X14701774Y15233650D01*
X14712188Y15233650D01*
X14727936Y15238729D01*
X14738350Y15254224D01*
X14743429Y15280386D01*
X14743429Y15295879D01*
X14738350Y15321787D01*
X14727936Y15337536D01*
X14712188Y15342616D01*
X14701774Y15342616D01*
X14777720Y15306294D02*
G01*
X14777720Y15233650D01*
X14777720Y15285466D02*
G01*
X14793213Y15300960D01*
X14803627Y15306294D01*
X14819375Y15306294D01*
X14829790Y15300960D01*
X14834870Y15285466D01*
X14834870Y15233650D01*
X6489700Y15169387D02*
G01*
X6500113Y15174721D01*
X6515608Y15190216D01*
X6515608Y15081250D01*
X6581140Y15190216D02*
G01*
X6565645Y15185136D01*
X6555231Y15169387D01*
X6549897Y15143479D01*
X6549897Y15127986D01*
X6555231Y15101824D01*
X6565645Y15086329D01*
X6581140Y15081250D01*
X6591554Y15081250D01*
X6607047Y15086329D01*
X6617461Y15101824D01*
X6622795Y15127986D01*
X6622795Y15143479D01*
X6617461Y15169387D01*
X6607047Y15185136D01*
X6591554Y15190216D01*
X6581140Y15190216D01*
X6688074Y15190216D02*
G01*
X6672579Y15185136D01*
X6662165Y15169387D01*
X6657086Y15143479D01*
X6657086Y15127986D01*
X6662165Y15101824D01*
X6672579Y15086329D01*
X6688074Y15081250D01*
X6698488Y15081250D01*
X6714236Y15086329D01*
X6724650Y15101824D01*
X6729729Y15127986D01*
X6729729Y15143479D01*
X6724650Y15169387D01*
X6714236Y15185136D01*
X6698488Y15190216D01*
X6688074Y15190216D01*
X6764020Y15153894D02*
G01*
X6764020Y15081250D01*
X6764020Y15133066D02*
G01*
X6779513Y15148560D01*
X6789927Y15153894D01*
X6805675Y15153894D01*
X6816090Y15148560D01*
X6821170Y15133066D01*
X6821170Y15081250D01*
X11620500Y9898887D02*
G01*
X11630913Y9904221D01*
X11646408Y9919715D01*
X11646408Y9810750D01*
X11711940Y9919715D02*
G01*
X11696445Y9914636D01*
X11686031Y9898887D01*
X11680697Y9872979D01*
X11680697Y9857486D01*
X11686031Y9831324D01*
X11696445Y9815829D01*
X11711940Y9810750D01*
X11722354Y9810750D01*
X11737847Y9815829D01*
X11748261Y9831324D01*
X11753595Y9857486D01*
X11753595Y9872979D01*
X11748261Y9898887D01*
X11737847Y9914636D01*
X11722354Y9919715D01*
X11711940Y9919715D01*
X11818874Y9919715D02*
G01*
X11803379Y9914636D01*
X11792965Y9898887D01*
X11787886Y9872979D01*
X11787886Y9857486D01*
X11792965Y9831324D01*
X11803379Y9815829D01*
X11818874Y9810750D01*
X11829288Y9810750D01*
X11845036Y9815829D01*
X11855450Y9831324D01*
X11860529Y9857486D01*
X11860529Y9872979D01*
X11855450Y9898887D01*
X11845036Y9914636D01*
X11829288Y9919715D01*
X11818874Y9919715D01*
X11894820Y9883394D02*
G01*
X11894820Y9810750D01*
X11894820Y9862565D02*
G01*
X11910313Y9878060D01*
X11920727Y9883394D01*
X11936475Y9883394D01*
X11946890Y9878060D01*
X11951970Y9862565D01*
X11951970Y9810750D01*
X9633711Y15138400D02*
G01*
X9628377Y15148813D01*
X9612884Y15164307D01*
X9721850Y15164307D01*
X9612884Y15229839D02*
G01*
X9617963Y15214345D01*
X9633711Y15203931D01*
X9659620Y15198597D01*
X9675113Y15198597D01*
X9701275Y15203931D01*
X9716770Y15214345D01*
X9721850Y15229839D01*
X9721850Y15240254D01*
X9716770Y15255747D01*
X9701275Y15266162D01*
X9675113Y15271495D01*
X9659620Y15271495D01*
X9633711Y15266162D01*
X9617963Y15255747D01*
X9612884Y15240254D01*
X9612884Y15229839D01*
X9612884Y15336774D02*
G01*
X9617963Y15321279D01*
X9633711Y15310866D01*
X9659620Y15305786D01*
X9675113Y15305786D01*
X9701275Y15310866D01*
X9716770Y15321279D01*
X9721850Y15336774D01*
X9721850Y15347187D01*
X9716770Y15362936D01*
X9701275Y15373350D01*
X9675113Y15378429D01*
X9659620Y15378429D01*
X9633711Y15373350D01*
X9617963Y15362936D01*
X9612884Y15347187D01*
X9612884Y15336774D01*
X9649206Y15412720D02*
G01*
X9758425Y15412720D01*
X9664700Y15412720D02*
G01*
X9654540Y15423134D01*
X9649206Y15433547D01*
X9649206Y15449042D01*
X9654540Y15459455D01*
X9664700Y15469870D01*
X9680447Y15474950D01*
X9690861Y15474950D01*
X9706356Y15469870D01*
X9716770Y15459455D01*
X9721850Y15449042D01*
X9721850Y15433547D01*
X9716770Y15423134D01*
X9706356Y15412720D01*
X5029200Y13391387D02*
G01*
X5039613Y13396721D01*
X5055108Y13412216D01*
X5055108Y13303250D01*
X5120640Y13412216D02*
G01*
X5105145Y13407136D01*
X5094731Y13391387D01*
X5089397Y13365479D01*
X5089397Y13349986D01*
X5094731Y13323824D01*
X5105145Y13308329D01*
X5120640Y13303250D01*
X5131054Y13303250D01*
X5146547Y13308329D01*
X5156961Y13323824D01*
X5162295Y13349986D01*
X5162295Y13365479D01*
X5156961Y13391387D01*
X5146547Y13407136D01*
X5131054Y13412216D01*
X5120640Y13412216D01*
X5227574Y13412216D02*
G01*
X5212079Y13407136D01*
X5201665Y13391387D01*
X5196586Y13365479D01*
X5196586Y13349986D01*
X5201665Y13323824D01*
X5212079Y13308329D01*
X5227574Y13303250D01*
X5237988Y13303250D01*
X5253736Y13308329D01*
X5264150Y13323824D01*
X5269229Y13349986D01*
X5269229Y13365479D01*
X5264150Y13391387D01*
X5253736Y13407136D01*
X5237988Y13412216D01*
X5227574Y13412216D01*
X5303520Y13375894D02*
G01*
X5303520Y13303250D01*
X5303520Y13355066D02*
G01*
X5319013Y13370560D01*
X5329427Y13375894D01*
X5345175Y13375894D01*
X5355590Y13370560D01*
X5360670Y13355066D01*
X5360670Y13303250D01*
X5394959Y13412216D02*
G01*
X5394959Y13303250D01*
X5394959Y13412216D02*
G01*
X5462524Y13412216D01*
X5394959Y13360400D02*
G01*
X5436615Y13360400D01*
X11964670Y15977616D02*
G01*
X11964670Y15894557D01*
X11959336Y15878810D01*
X11954256Y15873729D01*
X11943841Y15868650D01*
X11933427Y15868650D01*
X11923013Y15873729D01*
X11917679Y15878810D01*
X11912600Y15894557D01*
X11912600Y15904971D01*
X11998959Y15956787D02*
G01*
X12009120Y15962121D01*
X12024868Y15977616D01*
X12024868Y15868650D01*
X5905487Y15474187D02*
G01*
X5915901Y15479521D01*
X5931395Y15495016D01*
X5931395Y15386050D01*
X5996927Y15495016D02*
G01*
X5981433Y15489936D01*
X5971019Y15474187D01*
X5965685Y15448279D01*
X5965685Y15432786D01*
X5971019Y15406624D01*
X5981433Y15391129D01*
X5996927Y15386050D01*
X6007341Y15386050D01*
X6022835Y15391129D01*
X6033249Y15406624D01*
X6038583Y15432786D01*
X6038583Y15448279D01*
X6033249Y15474187D01*
X6022835Y15489936D01*
X6007341Y15495016D01*
X5996927Y15495016D01*
X6103861Y15495016D02*
G01*
X6088367Y15489936D01*
X6077953Y15474187D01*
X6072873Y15448279D01*
X6072873Y15432786D01*
X6077953Y15406624D01*
X6088367Y15391129D01*
X6103861Y15386050D01*
X6114275Y15386050D01*
X6130023Y15391129D01*
X6140437Y15406624D01*
X6145517Y15432786D01*
X6145517Y15448279D01*
X6140437Y15474187D01*
X6130023Y15489936D01*
X6114275Y15495016D01*
X6103861Y15495016D01*
X6179807Y15458694D02*
G01*
X6179807Y15406624D01*
X6184887Y15391129D01*
X6195301Y15386050D01*
X6211049Y15386050D01*
X6221463Y15391129D01*
X6236957Y15406624D01*
X6236957Y15458694D02*
G01*
X6236957Y15386050D01*
X6271247Y15495016D02*
G01*
X6271247Y15386050D01*
X6343891Y15495016D02*
G01*
X6343891Y15386050D01*
X6271247Y15443200D02*
G01*
X6343891Y15443200D01*
X6070600Y15964916D02*
G01*
X6070600Y15855950D01*
X6070600Y15855950D02*
G01*
X6132829Y15855950D01*
X6167120Y15944087D02*
G01*
X6177534Y15949421D01*
X6193281Y15964916D01*
X6193281Y15855950D01*
X13563587Y15524987D02*
G01*
X13574001Y15530321D01*
X13589495Y15545816D01*
X13589495Y15436850D01*
X13655027Y15545816D02*
G01*
X13639533Y15540736D01*
X13629119Y15524987D01*
X13623785Y15499079D01*
X13623785Y15483586D01*
X13629119Y15457424D01*
X13639533Y15441929D01*
X13655027Y15436850D01*
X13665441Y15436850D01*
X13680935Y15441929D01*
X13691349Y15457424D01*
X13696683Y15483586D01*
X13696683Y15499079D01*
X13691349Y15524987D01*
X13680935Y15540736D01*
X13665441Y15545816D01*
X13655027Y15545816D01*
X13761961Y15545816D02*
G01*
X13746467Y15540736D01*
X13736053Y15524987D01*
X13730973Y15499079D01*
X13730973Y15483586D01*
X13736053Y15457424D01*
X13746467Y15441929D01*
X13761961Y15436850D01*
X13772375Y15436850D01*
X13788123Y15441929D01*
X13798537Y15457424D01*
X13803617Y15483586D01*
X13803617Y15499079D01*
X13798537Y15524987D01*
X13788123Y15540736D01*
X13772375Y15545816D01*
X13761961Y15545816D01*
X13837907Y15509494D02*
G01*
X13837907Y15457424D01*
X13842987Y15441929D01*
X13853401Y15436850D01*
X13869149Y15436850D01*
X13879563Y15441929D01*
X13895057Y15457424D01*
X13895057Y15509494D02*
G01*
X13895057Y15436850D01*
X13929347Y15545816D02*
G01*
X13929347Y15436850D01*
X14001991Y15545816D02*
G01*
X14001991Y15436850D01*
X13929347Y15494000D02*
G01*
X14001991Y15494000D01*
X13715987Y16053816D02*
G01*
X13715987Y15944850D01*
X13715987Y15944850D02*
G01*
X13778217Y15944850D01*
X13817841Y16027907D02*
G01*
X13817841Y16032987D01*
X13822921Y16043402D01*
X13828255Y16048736D01*
X13838669Y16053816D01*
X13859497Y16053816D01*
X13869657Y16048736D01*
X13874991Y16043402D01*
X13880071Y16032987D01*
X13880071Y16022574D01*
X13874991Y16012160D01*
X13864577Y15996666D01*
X13812507Y15944850D01*
X13885405Y15944850D01*
X6059931Y8483600D02*
G01*
X5950965Y8483600D01*
X6059931Y8483600D02*
G01*
X6059931Y8436863D01*
X6054852Y8421370D01*
X6049518Y8416036D01*
X6039104Y8410955D01*
X6023609Y8410955D01*
X6013195Y8416036D01*
X6008115Y8421370D01*
X6002781Y8436863D01*
X6002781Y8483600D01*
X6059931Y8345423D02*
G01*
X6054852Y8355837D01*
X6044438Y8366252D01*
X6034024Y8371331D01*
X6018275Y8376665D01*
X5992368Y8376665D01*
X5976874Y8371331D01*
X5966459Y8366252D01*
X5956045Y8355837D01*
X5950965Y8345423D01*
X5950965Y8324595D01*
X5956045Y8314181D01*
X5966459Y8303768D01*
X5976874Y8298687D01*
X5992368Y8293354D01*
X6018275Y8293354D01*
X6034024Y8298687D01*
X6044438Y8303768D01*
X6054852Y8314181D01*
X6059931Y8324595D01*
X6059931Y8345423D01*
X6059931Y8259063D02*
G01*
X5950965Y8233155D01*
X6059931Y8207247D02*
G01*
X5950965Y8233155D01*
X6059931Y8207247D02*
G01*
X5950965Y8181339D01*
X6059931Y8155178D02*
G01*
X5950965Y8181339D01*
X6059931Y8120887D02*
G01*
X5950965Y8120887D01*
X6059931Y8120887D02*
G01*
X6059931Y8053323D01*
X6008115Y8120887D02*
G01*
X6008115Y8079486D01*
X5950965Y8120887D02*
G01*
X5950965Y8053323D01*
X6059931Y8019034D02*
G01*
X5950965Y8019034D01*
X6059931Y8019034D02*
G01*
X6059931Y7972297D01*
X6054852Y7956804D01*
X6049518Y7951470D01*
X6039104Y7946389D01*
X6028690Y7946389D01*
X6018275Y7951470D01*
X6013195Y7956804D01*
X6008115Y7972297D01*
X6008115Y8019034D01*
X6008115Y7982712D02*
G01*
X5950965Y7946389D01*
X11963400Y4497831D02*
G01*
X11963400Y4388865D01*
X11963400Y4497831D02*
G01*
X12010136Y4497831D01*
X12025629Y4492752D01*
X12030963Y4487418D01*
X12036043Y4477004D01*
X12036043Y4466589D01*
X12030963Y4456176D01*
X12025629Y4451095D01*
X12010136Y4446015D01*
X11963400Y4446015D01*
X11999722Y4446015D02*
G01*
X12036043Y4388865D01*
X12070334Y4497831D02*
G01*
X12070334Y4388865D01*
X12070334Y4497831D02*
G01*
X12137897Y4497831D01*
X12070334Y4446015D02*
G01*
X12111990Y4446015D01*
X12070334Y4388865D02*
G01*
X12137897Y4388865D01*
X12245086Y4482337D02*
G01*
X12234672Y4492752D01*
X12218924Y4497831D01*
X12198350Y4497831D01*
X12182602Y4492752D01*
X12172188Y4482337D01*
X12172188Y4471923D01*
X12177522Y4461510D01*
X12182602Y4456176D01*
X12193015Y4451095D01*
X12224258Y4440681D01*
X12234672Y4435602D01*
X12239752Y4430268D01*
X12245086Y4419854D01*
X12245086Y4404360D01*
X12234672Y4393945D01*
X12218924Y4388865D01*
X12198350Y4388865D01*
X12182602Y4393945D01*
X12172188Y4404360D01*
X12279375Y4497831D02*
G01*
X12279375Y4388865D01*
X12279375Y4497831D02*
G01*
X12346940Y4497831D01*
X12279375Y4446015D02*
G01*
X12320777Y4446015D01*
X12279375Y4388865D02*
G01*
X12346940Y4388865D01*
X12417552Y4497831D02*
G01*
X12417552Y4388865D01*
X12381229Y4497831D02*
G01*
X12453874Y4497831D01*
X10425684Y8547100D02*
G01*
X10534650Y8547100D01*
X10425684Y8547100D02*
G01*
X10425684Y8593836D01*
X10430763Y8609329D01*
X10436097Y8614663D01*
X10446511Y8619744D01*
X10456925Y8619744D01*
X10467340Y8614663D01*
X10472420Y8609329D01*
X10477500Y8593836D01*
X10477500Y8547100D02*
G01*
X10477500Y8593836D01*
X10482834Y8609329D01*
X10487913Y8614663D01*
X10498327Y8619744D01*
X10514075Y8619744D01*
X10524490Y8614663D01*
X10529570Y8609329D01*
X10534650Y8593836D01*
X10534650Y8547100D01*
X10451591Y8732012D02*
G01*
X10441177Y8726931D01*
X10430763Y8716518D01*
X10425684Y8706104D01*
X10425684Y8685276D01*
X10430763Y8674862D01*
X10441177Y8664447D01*
X10451591Y8659368D01*
X10467340Y8654034D01*
X10493247Y8654034D01*
X10508741Y8659368D01*
X10519156Y8664447D01*
X10529570Y8674862D01*
X10534650Y8685276D01*
X10534650Y8706104D01*
X10529570Y8716518D01*
X10519156Y8726931D01*
X10508741Y8732012D01*
X10425684Y8828786D02*
G01*
X10425684Y8776715D01*
X10472420Y8771636D01*
X10467340Y8776715D01*
X10462006Y8792210D01*
X10462006Y8807958D01*
X10467340Y8823452D01*
X10477500Y8833865D01*
X10493247Y8839200D01*
X10503661Y8839200D01*
X10519156Y8833865D01*
X10529570Y8823452D01*
X10534650Y8807958D01*
X10534650Y8792210D01*
X10529570Y8776715D01*
X10524490Y8771636D01*
X10514075Y8766302D01*
X10425684Y8935720D02*
G01*
X10425684Y8883650D01*
X10472420Y8878570D01*
X10467340Y8883650D01*
X10462006Y8899397D01*
X10462006Y8914892D01*
X10467340Y8930639D01*
X10477500Y8940800D01*
X10493247Y8946134D01*
X10503661Y8946134D01*
X10519156Y8940800D01*
X10529570Y8930639D01*
X10534650Y8914892D01*
X10534650Y8899397D01*
X10529570Y8883650D01*
X10524490Y8878570D01*
X10514075Y8873489D01*
X10441177Y9042654D02*
G01*
X10430763Y9037574D01*
X10425684Y9022079D01*
X10425684Y9011665D01*
X10430763Y8995918D01*
X10446511Y8985504D01*
X10472420Y8980424D01*
X10498327Y8980424D01*
X10519156Y8985504D01*
X10529570Y8995918D01*
X10534650Y9011665D01*
X10534650Y9016745D01*
X10529570Y9032239D01*
X10519156Y9042654D01*
X10503661Y9047987D01*
X10498327Y9047987D01*
X10482834Y9042654D01*
X10472420Y9032239D01*
X10467340Y9016745D01*
X10467340Y9011665D01*
X10472420Y8995918D01*
X10482834Y8985504D01*
X10498327Y8980424D01*
X10425684Y9082278D02*
G01*
X10534650Y9082278D01*
X10425684Y9082278D02*
G01*
X10425684Y9129013D01*
X10430763Y9144508D01*
X10436097Y9149842D01*
X10446511Y9154921D01*
X10456925Y9154921D01*
X10467340Y9149842D01*
X10472420Y9144508D01*
X10477500Y9129013D01*
X10477500Y9082278D02*
G01*
X10477500Y9129013D01*
X10482834Y9144508D01*
X10487913Y9149842D01*
X10498327Y9154921D01*
X10514075Y9154921D01*
X10524490Y9149842D01*
X10529570Y9144508D01*
X10534650Y9129013D01*
X10534650Y9082278D01*
X8851900Y6897115D02*
G01*
X8924543Y6788150D01*
X8924543Y6897115D02*
G01*
X8851900Y6788150D01*
X8995409Y6897115D02*
G01*
X8995409Y6788150D01*
X8958834Y6897115D02*
G01*
X9031731Y6897115D01*
X9107424Y6897115D02*
G01*
X9066022Y6788150D01*
X9107424Y6897115D02*
G01*
X9149079Y6788150D01*
X9081515Y6824471D02*
G01*
X9133586Y6824471D01*
X9183370Y6897115D02*
G01*
X9183370Y6788150D01*
X9183370Y6788150D02*
G01*
X9245600Y6788150D01*
X9365234Y6871208D02*
G01*
X9365234Y6876287D01*
X9370313Y6886702D01*
X9375647Y6892036D01*
X9386061Y6897115D01*
X9406890Y6897115D01*
X9417050Y6892036D01*
X9422384Y6886702D01*
X9427463Y6876287D01*
X9427463Y6865873D01*
X9422384Y6855460D01*
X9411970Y6839965D01*
X9359900Y6788150D01*
X9432797Y6788150D01*
X9529318Y6881621D02*
G01*
X9524238Y6892036D01*
X9508490Y6897115D01*
X9498329Y6897115D01*
X9482581Y6892036D01*
X9472168Y6876287D01*
X9467088Y6850379D01*
X9467088Y6824471D01*
X9472168Y6803644D01*
X9482581Y6793229D01*
X9498329Y6788150D01*
X9503409Y6788150D01*
X9518904Y6793229D01*
X9529318Y6803644D01*
X9534652Y6819137D01*
X9534652Y6824471D01*
X9529318Y6839965D01*
X9518904Y6850379D01*
X9503409Y6855460D01*
X9498329Y6855460D01*
X9482581Y6850379D01*
X9472168Y6839965D01*
X9467088Y6824471D01*
X9574022Y6814058D02*
G01*
X9568941Y6808723D01*
X9574022Y6803644D01*
X9579356Y6808723D01*
X9574022Y6814058D01*
X9675875Y6881621D02*
G01*
X9670795Y6892036D01*
X9655047Y6897115D01*
X9644634Y6897115D01*
X9629140Y6892036D01*
X9618725Y6876287D01*
X9613645Y6850379D01*
X9613645Y6824471D01*
X9618725Y6803644D01*
X9629140Y6793229D01*
X9644634Y6788150D01*
X9649968Y6788150D01*
X9665461Y6793229D01*
X9675875Y6803644D01*
X9681209Y6819137D01*
X9681209Y6824471D01*
X9675875Y6839965D01*
X9665461Y6850379D01*
X9649968Y6855460D01*
X9644634Y6855460D01*
X9629140Y6850379D01*
X9618725Y6839965D01*
X9613645Y6824471D01*
X9746488Y6897115D02*
G01*
X9730993Y6892036D01*
X9720579Y6876287D01*
X9715500Y6850379D01*
X9715500Y6834886D01*
X9720579Y6808723D01*
X9730993Y6793229D01*
X9746488Y6788150D01*
X9756902Y6788150D01*
X9772650Y6793229D01*
X9782809Y6808723D01*
X9788143Y6834886D01*
X9788143Y6850379D01*
X9782809Y6876287D01*
X9772650Y6892036D01*
X9756902Y6897115D01*
X9746488Y6897115D01*
X9822434Y6876287D02*
G01*
X9832847Y6881621D01*
X9848341Y6897115D01*
X9848341Y6788150D01*
X9955529Y6897115D02*
G01*
X9903459Y6788150D01*
X9882631Y6897115D02*
G01*
X9955529Y6897115D01*
X9989820Y6876287D02*
G01*
X9999979Y6881621D01*
X10015727Y6897115D01*
X10015727Y6788150D01*
X10055097Y6871208D02*
G01*
X10055097Y6876287D01*
X10060431Y6886702D01*
X10065511Y6892036D01*
X10075925Y6897115D01*
X10096754Y6897115D01*
X10107168Y6892036D01*
X10112247Y6886702D01*
X10117581Y6876287D01*
X10117581Y6865873D01*
X10112247Y6855460D01*
X10101834Y6839965D01*
X10050018Y6788150D01*
X10122661Y6788150D01*
X10156952Y6897115D02*
G01*
X10156952Y6788150D01*
X10156952Y6897115D02*
G01*
X10198608Y6788150D01*
X10240009Y6897115D02*
G01*
X10198608Y6788150D01*
X10240009Y6897115D02*
G01*
X10240009Y6788150D01*
X10274300Y6897115D02*
G01*
X10274300Y6788150D01*
X10347197Y6897115D02*
G01*
X10347197Y6788150D01*
X10274300Y6845300D02*
G01*
X10347197Y6845300D01*
X10438638Y6860794D02*
G01*
X10381488Y6788150D01*
X10381488Y6860794D02*
G01*
X10438638Y6860794D01*
X10381488Y6788150D02*
G01*
X10438638Y6788150D01*
X9530841Y7087615D02*
G01*
X9520427Y7082536D01*
X9510013Y7072121D01*
X9504679Y7061708D01*
X9499600Y7045960D01*
X9499600Y7020052D01*
X9504679Y7004558D01*
X9510013Y6994144D01*
X9520427Y6983729D01*
X9530841Y6978650D01*
X9551670Y6978650D01*
X9561829Y6983729D01*
X9572243Y6994144D01*
X9577577Y7004558D01*
X9582658Y7020052D01*
X9582658Y7045960D01*
X9577577Y7061708D01*
X9572243Y7072121D01*
X9561829Y7082536D01*
X9551670Y7087615D01*
X9530841Y7087615D01*
X9546336Y6999223D02*
G01*
X9577577Y6968236D01*
X9679431Y7087615D02*
G01*
X9627361Y7087615D01*
X9622281Y7040879D01*
X9627361Y7045960D01*
X9643109Y7051294D01*
X9658604Y7051294D01*
X9674097Y7045960D01*
X9684511Y7035800D01*
X9689845Y7020052D01*
X9689845Y7009637D01*
X9684511Y6994144D01*
X9674097Y6983729D01*
X9658604Y6978650D01*
X9643109Y6978650D01*
X9627361Y6983729D01*
X9622281Y6988810D01*
X9616947Y6999223D01*
X12844779Y9144508D02*
G01*
X12844779Y9149587D01*
X12850113Y9160002D01*
X12855193Y9165336D01*
X12865608Y9170415D01*
X12886436Y9170415D01*
X12896850Y9165336D01*
X12901929Y9160002D01*
X12907263Y9149587D01*
X12907263Y9139174D01*
X12901929Y9128760D01*
X12891770Y9113265D01*
X12839700Y9061450D01*
X12912343Y9061450D01*
X12946634Y9170415D02*
G01*
X12946634Y9061450D01*
X13019531Y9170415D02*
G01*
X12946634Y9097771D01*
X12972795Y9123679D02*
G01*
X13019531Y9061450D01*
X13058902Y9144508D02*
G01*
X13058902Y9149587D01*
X13064236Y9160002D01*
X13069315Y9165336D01*
X13079729Y9170415D01*
X13100558Y9170415D01*
X13110972Y9165336D01*
X13116052Y9160002D01*
X13121386Y9149587D01*
X13121386Y9139174D01*
X13116052Y9128760D01*
X13105638Y9113265D01*
X13053822Y9061450D01*
X13126466Y9061450D01*
X11536679Y9157208D02*
G01*
X11536679Y9162287D01*
X11542013Y9172702D01*
X11547093Y9178036D01*
X11557508Y9183115D01*
X11578336Y9183115D01*
X11588750Y9178036D01*
X11593829Y9172702D01*
X11599163Y9162287D01*
X11599163Y9151874D01*
X11593829Y9141460D01*
X11583670Y9125965D01*
X11531600Y9074150D01*
X11604243Y9074150D01*
X11643868Y9157208D02*
G01*
X11643868Y9162287D01*
X11648947Y9172702D01*
X11654281Y9178036D01*
X11664695Y9183115D01*
X11685270Y9183115D01*
X11695684Y9178036D01*
X11701018Y9172702D01*
X11706097Y9162287D01*
X11706097Y9151874D01*
X11701018Y9141460D01*
X11690604Y9125965D01*
X11638534Y9074150D01*
X11711431Y9074150D01*
X11776709Y9183115D02*
G01*
X11761215Y9178036D01*
X11750802Y9162287D01*
X11745722Y9136379D01*
X11745722Y9120886D01*
X11750802Y9094724D01*
X11761215Y9079229D01*
X11776709Y9074150D01*
X11787124Y9074150D01*
X11802872Y9079229D01*
X11813286Y9094724D01*
X11818365Y9120886D01*
X11818365Y9136379D01*
X11813286Y9162287D01*
X11802872Y9178036D01*
X11787124Y9183115D01*
X11776709Y9183115D01*
X7645400Y6901687D02*
G01*
X7655813Y6907021D01*
X7671308Y6922515D01*
X7671308Y6813550D01*
X7736840Y6922515D02*
G01*
X7721345Y6917436D01*
X7710931Y6901687D01*
X7705597Y6875779D01*
X7705597Y6860286D01*
X7710931Y6834123D01*
X7721345Y6818629D01*
X7736840Y6813550D01*
X7747254Y6813550D01*
X7762747Y6818629D01*
X7773161Y6834123D01*
X7778495Y6860286D01*
X7778495Y6875779D01*
X7773161Y6901687D01*
X7762747Y6917436D01*
X7747254Y6922515D01*
X7736840Y6922515D01*
X7843774Y6922515D02*
G01*
X7828279Y6917436D01*
X7817865Y6901687D01*
X7812786Y6875779D01*
X7812786Y6860286D01*
X7817865Y6834123D01*
X7828279Y6818629D01*
X7843774Y6813550D01*
X7854188Y6813550D01*
X7869936Y6818629D01*
X7880350Y6834123D01*
X7885429Y6860286D01*
X7885429Y6875779D01*
X7880350Y6901687D01*
X7869936Y6917436D01*
X7854188Y6922515D01*
X7843774Y6922515D01*
X7919720Y6922515D02*
G01*
X7919720Y6813550D01*
X7971790Y6886194D02*
G01*
X7919720Y6834123D01*
X7940547Y6854952D02*
G01*
X7976870Y6813550D01*
X7645400Y6279387D02*
G01*
X7655813Y6284721D01*
X7671308Y6300215D01*
X7671308Y6191250D01*
X7736840Y6300215D02*
G01*
X7721345Y6295136D01*
X7710931Y6279387D01*
X7705597Y6253479D01*
X7705597Y6237986D01*
X7710931Y6211823D01*
X7721345Y6196329D01*
X7736840Y6191250D01*
X7747254Y6191250D01*
X7762747Y6196329D01*
X7773161Y6211823D01*
X7778495Y6237986D01*
X7778495Y6253479D01*
X7773161Y6279387D01*
X7762747Y6295136D01*
X7747254Y6300215D01*
X7736840Y6300215D01*
X7843774Y6300215D02*
G01*
X7828279Y6295136D01*
X7817865Y6279387D01*
X7812786Y6253479D01*
X7812786Y6237986D01*
X7817865Y6211823D01*
X7828279Y6196329D01*
X7843774Y6191250D01*
X7854188Y6191250D01*
X7869936Y6196329D01*
X7880350Y6211823D01*
X7885429Y6237986D01*
X7885429Y6253479D01*
X7880350Y6279387D01*
X7869936Y6295136D01*
X7854188Y6300215D01*
X7843774Y6300215D01*
X7919720Y6300215D02*
G01*
X7919720Y6191250D01*
X7971790Y6263894D02*
G01*
X7919720Y6211823D01*
X7940547Y6232652D02*
G01*
X7976870Y6191250D01*
X8978900Y13772387D02*
G01*
X8989313Y13777721D01*
X9004808Y13793216D01*
X9004808Y13684250D01*
X9044431Y13767307D02*
G01*
X9044431Y13772387D01*
X9049511Y13782802D01*
X9054845Y13788136D01*
X9065259Y13793216D01*
X9085834Y13793216D01*
X9096247Y13788136D01*
X9101581Y13782802D01*
X9106661Y13772387D01*
X9106661Y13761974D01*
X9101581Y13751560D01*
X9091168Y13736066D01*
X9039097Y13684250D01*
X9111995Y13684250D01*
X9146286Y13793216D02*
G01*
X9146286Y13684250D01*
X9218929Y13793216D02*
G01*
X9146286Y13720571D01*
X9172193Y13746479D02*
G01*
X9218929Y13684250D01*
X8822943Y14656816D02*
G01*
X8771127Y14547850D01*
X8750300Y14656816D02*
G01*
X8822943Y14656816D01*
X8862568Y14573757D02*
G01*
X8857234Y14568424D01*
X8862568Y14563344D01*
X8867647Y14568424D01*
X8862568Y14573757D01*
X8964422Y14656816D02*
G01*
X8912352Y14656816D01*
X8907272Y14610079D01*
X8912352Y14615160D01*
X8928100Y14620494D01*
X8943593Y14620494D01*
X8959088Y14615160D01*
X8969502Y14605000D01*
X8974836Y14589252D01*
X8974836Y14578837D01*
X8969502Y14563344D01*
X8959088Y14552929D01*
X8943593Y14547850D01*
X8928100Y14547850D01*
X8912352Y14552929D01*
X8907272Y14558010D01*
X8901938Y14568424D01*
X9009125Y14656816D02*
G01*
X9009125Y14547850D01*
X9081770Y14656816D02*
G01*
X9009125Y14584171D01*
X9035034Y14610079D02*
G01*
X9081770Y14547850D01*
X9343643Y14237716D02*
G01*
X9291827Y14128750D01*
X9271000Y14237716D02*
G01*
X9343643Y14237716D01*
X9440418Y14237716D02*
G01*
X9388347Y14237716D01*
X9383268Y14190979D01*
X9388347Y14196060D01*
X9404095Y14201394D01*
X9419590Y14201394D01*
X9435084Y14196060D01*
X9445497Y14185900D01*
X9450831Y14170152D01*
X9450831Y14159737D01*
X9445497Y14144244D01*
X9435084Y14133829D01*
X9419590Y14128750D01*
X9404095Y14128750D01*
X9388347Y14133829D01*
X9383268Y14138910D01*
X9377934Y14149324D01*
X9485122Y14237716D02*
G01*
X9485122Y14128750D01*
X9536938Y14201394D02*
G01*
X9485122Y14149324D01*
X9505950Y14170152D02*
G01*
X9542272Y14128750D01*
X9855194Y15766287D02*
G01*
X9865608Y15771621D01*
X9881102Y15787116D01*
X9881102Y15678150D01*
X9946634Y15787116D02*
G01*
X9931140Y15782036D01*
X9920726Y15766287D01*
X9915392Y15740379D01*
X9915392Y15724886D01*
X9920726Y15698724D01*
X9931140Y15683229D01*
X9946634Y15678150D01*
X9957048Y15678150D01*
X9972542Y15683229D01*
X9982956Y15698724D01*
X9988290Y15724886D01*
X9988290Y15740379D01*
X9982956Y15766287D01*
X9972542Y15782036D01*
X9957048Y15787116D01*
X9946634Y15787116D01*
X10053568Y15787116D02*
G01*
X10038074Y15782036D01*
X10027660Y15766287D01*
X10022580Y15740379D01*
X10022580Y15724886D01*
X10027660Y15698724D01*
X10038074Y15683229D01*
X10053568Y15678150D01*
X10063982Y15678150D01*
X10079730Y15683229D01*
X10090144Y15698724D01*
X10095224Y15724886D01*
X10095224Y15740379D01*
X10090144Y15766287D01*
X10079730Y15782036D01*
X10063982Y15787116D01*
X10053568Y15787116D01*
X10129514Y15787116D02*
G01*
X10129514Y15678150D01*
X10202158Y15787116D02*
G01*
X10129514Y15714471D01*
X10155422Y15740379D02*
G01*
X10202158Y15678150D01*
X7504684Y13877544D02*
G01*
X7613650Y13825728D01*
X7504684Y13804900D02*
G01*
X7504684Y13877544D01*
X7504684Y13974318D02*
G01*
X7504684Y13922247D01*
X7551420Y13917168D01*
X7546340Y13922247D01*
X7541006Y13937995D01*
X7541006Y13953489D01*
X7546340Y13968984D01*
X7556500Y13979397D01*
X7572247Y13984731D01*
X7582661Y13984731D01*
X7598156Y13979397D01*
X7608570Y13968984D01*
X7613650Y13953489D01*
X7613650Y13937995D01*
X7608570Y13922247D01*
X7603490Y13917168D01*
X7593075Y13911834D01*
X7504684Y14019021D02*
G01*
X7613650Y14019021D01*
X7541006Y14070837D02*
G01*
X7593075Y14019021D01*
X7572247Y14039850D02*
G01*
X7613650Y14076171D01*
X7017511Y13792200D02*
G01*
X7012177Y13802613D01*
X6996684Y13818107D01*
X7105650Y13818107D01*
X6996684Y13883639D02*
G01*
X7001763Y13868145D01*
X7017511Y13857731D01*
X7043420Y13852397D01*
X7058913Y13852397D01*
X7085075Y13857731D01*
X7100570Y13868145D01*
X7105650Y13883639D01*
X7105650Y13894054D01*
X7100570Y13909547D01*
X7085075Y13919962D01*
X7058913Y13925295D01*
X7043420Y13925295D01*
X7017511Y13919962D01*
X7001763Y13909547D01*
X6996684Y13894054D01*
X6996684Y13883639D01*
X6996684Y13990574D02*
G01*
X7001763Y13975079D01*
X7017511Y13964666D01*
X7043420Y13959586D01*
X7058913Y13959586D01*
X7085075Y13964666D01*
X7100570Y13975079D01*
X7105650Y13990574D01*
X7105650Y14000987D01*
X7100570Y14016736D01*
X7085075Y14027150D01*
X7058913Y14032229D01*
X7043420Y14032229D01*
X7017511Y14027150D01*
X7001763Y14016736D01*
X6996684Y14000987D01*
X6996684Y13990574D01*
X6996684Y14066520D02*
G01*
X7105650Y14066520D01*
X6996684Y14139163D02*
G01*
X7069327Y14066520D01*
X7043420Y14092428D02*
G01*
X7105650Y14139163D01*
X10134600Y14648687D02*
G01*
X10145013Y14654021D01*
X10160508Y14669516D01*
X10160508Y14560550D01*
X10226040Y14669516D02*
G01*
X10210545Y14664436D01*
X10200131Y14648687D01*
X10194797Y14622779D01*
X10194797Y14607286D01*
X10200131Y14581124D01*
X10210545Y14565629D01*
X10226040Y14560550D01*
X10236454Y14560550D01*
X10251947Y14565629D01*
X10262361Y14581124D01*
X10267695Y14607286D01*
X10267695Y14622779D01*
X10262361Y14648687D01*
X10251947Y14664436D01*
X10236454Y14669516D01*
X10226040Y14669516D01*
X10301986Y14669516D02*
G01*
X10301986Y14560550D01*
X10374629Y14669516D02*
G01*
X10301986Y14596871D01*
X10327893Y14622779D02*
G01*
X10374629Y14560550D01*
X10261594Y15220187D02*
G01*
X10272008Y15225521D01*
X10287502Y15241016D01*
X10287502Y15132050D01*
X10353034Y15241016D02*
G01*
X10337540Y15235936D01*
X10327126Y15220187D01*
X10321792Y15194279D01*
X10321792Y15178786D01*
X10327126Y15152624D01*
X10337540Y15137129D01*
X10353034Y15132050D01*
X10363448Y15132050D01*
X10378942Y15137129D01*
X10389356Y15152624D01*
X10394690Y15178786D01*
X10394690Y15194279D01*
X10389356Y15220187D01*
X10378942Y15235936D01*
X10363448Y15241016D01*
X10353034Y15241016D01*
X10459968Y15241016D02*
G01*
X10444474Y15235936D01*
X10434060Y15220187D01*
X10428980Y15194279D01*
X10428980Y15178786D01*
X10434060Y15152624D01*
X10444474Y15137129D01*
X10459968Y15132050D01*
X10470382Y15132050D01*
X10486130Y15137129D01*
X10496544Y15152624D01*
X10501624Y15178786D01*
X10501624Y15194279D01*
X10496544Y15220187D01*
X10486130Y15235936D01*
X10470382Y15241016D01*
X10459968Y15241016D01*
X8357870Y15329916D02*
G01*
X8305800Y15257271D01*
X8383777Y15257271D01*
X8357870Y15329916D02*
G01*
X8357870Y15220950D01*
X8480297Y15329916D02*
G01*
X8428481Y15329916D01*
X8423147Y15283179D01*
X8428481Y15288260D01*
X8443975Y15293594D01*
X8459470Y15293594D01*
X8475218Y15288260D01*
X8485631Y15278100D01*
X8490711Y15262352D01*
X8490711Y15251937D01*
X8485631Y15236444D01*
X8475218Y15226029D01*
X8459470Y15220950D01*
X8443975Y15220950D01*
X8428481Y15226029D01*
X8423147Y15231110D01*
X8418068Y15241524D01*
X8587486Y15329916D02*
G01*
X8535415Y15329916D01*
X8530336Y15283179D01*
X8535415Y15288260D01*
X8550909Y15293594D01*
X8566658Y15293594D01*
X8582152Y15288260D01*
X8592565Y15278100D01*
X8597900Y15262352D01*
X8597900Y15251937D01*
X8592565Y15236444D01*
X8582152Y15226029D01*
X8566658Y15220950D01*
X8550909Y15220950D01*
X8535415Y15226029D01*
X8530336Y15231110D01*
X8525002Y15241524D01*
X8658097Y15329916D02*
G01*
X8642350Y15324836D01*
X8637270Y15314421D01*
X8637270Y15304007D01*
X8642350Y15293594D01*
X8652763Y15288260D01*
X8673591Y15283179D01*
X8689340Y15278100D01*
X8699500Y15267686D01*
X8704834Y15257271D01*
X8704834Y15241524D01*
X8699500Y15231110D01*
X8694420Y15226029D01*
X8678925Y15220950D01*
X8658097Y15220950D01*
X8642350Y15226029D01*
X8637270Y15231110D01*
X8632190Y15241524D01*
X8632190Y15257271D01*
X8637270Y15267686D01*
X8647684Y15278100D01*
X8663177Y15283179D01*
X8684006Y15288260D01*
X8694420Y15293594D01*
X8699500Y15304007D01*
X8699500Y15314421D01*
X8694420Y15324836D01*
X8678925Y15329916D01*
X8658097Y15329916D01*
X8483600Y15571216D02*
G01*
X8483600Y15493237D01*
X8488679Y15477744D01*
X8499093Y15467329D01*
X8514841Y15462250D01*
X8525256Y15462250D01*
X8540750Y15467329D01*
X8551163Y15477744D01*
X8556243Y15493237D01*
X8556243Y15571216D01*
X8590534Y15550387D02*
G01*
X8600947Y15555721D01*
X8616695Y15571216D01*
X8616695Y15462250D01*
X5335015Y5816600D02*
G01*
X5226050Y5816600D01*
X5335015Y5816600D02*
G01*
X5335015Y5769863D01*
X5329936Y5754370D01*
X5324602Y5749036D01*
X5314188Y5743955D01*
X5298693Y5743955D01*
X5288279Y5749036D01*
X5283200Y5754370D01*
X5277865Y5769863D01*
X5277865Y5816600D01*
X5314188Y5709665D02*
G01*
X5319522Y5699252D01*
X5335015Y5683504D01*
X5226050Y5683504D01*
X13867384Y5778500D02*
G01*
X13976350Y5778500D01*
X13867384Y5778500D02*
G01*
X13867384Y5825236D01*
X13872463Y5840729D01*
X13877797Y5846063D01*
X13888211Y5851144D01*
X13903706Y5851144D01*
X13914120Y5846063D01*
X13919200Y5840729D01*
X13924534Y5825236D01*
X13924534Y5778500D01*
X13893291Y5890768D02*
G01*
X13888211Y5890768D01*
X13877797Y5895847D01*
X13872463Y5901181D01*
X13867384Y5911595D01*
X13867384Y5932170D01*
X13872463Y5942584D01*
X13877797Y5947918D01*
X13888211Y5952997D01*
X13898625Y5952997D01*
X13909040Y5947918D01*
X13924534Y5937504D01*
X13976350Y5885434D01*
X13976350Y5958331D01*
X5600700Y12665440D02*
G01*
X5600700Y12592542D01*
X5600700Y12665440D02*
G01*
X5631941Y12665440D01*
X5642356Y12661884D01*
X5645658Y12658328D01*
X5649213Y12651470D01*
X5649213Y12644612D01*
X5645658Y12637754D01*
X5642356Y12634198D01*
X5631941Y12630642D01*
X5600700Y12630642D02*
G01*
X5631941Y12630642D01*
X5642356Y12627340D01*
X5645658Y12623784D01*
X5649213Y12616926D01*
X5649213Y12606512D01*
X5645658Y12599654D01*
X5642356Y12596098D01*
X5631941Y12592542D01*
X5600700Y12592542D01*
X13438886Y12157455D02*
G01*
X13411200Y12084558D01*
X13438886Y12157455D02*
G01*
X13466572Y12084558D01*
X13421613Y12108942D02*
G01*
X13456158Y12108942D01*
X5676900Y12651470D02*
G01*
X5683758Y12655026D01*
X5694172Y12665440D01*
X5694172Y12592542D01*
X13494258Y12157455D02*
G01*
X13532358Y12157455D01*
X13511529Y12129770D01*
X13521943Y12129770D01*
X13529056Y12126213D01*
X13532358Y12122658D01*
X13535913Y12112244D01*
X13535913Y12105386D01*
X13532358Y12094971D01*
X13525500Y12088113D01*
X13515086Y12084558D01*
X13504672Y12084558D01*
X13494258Y12088113D01*
X13490956Y12091670D01*
X13487400Y12098528D01*
X13579602Y12157455D02*
G01*
X13569188Y12153900D01*
X13562329Y12143486D01*
X13558774Y12126213D01*
X13558774Y12115800D01*
X13562329Y12098528D01*
X13569188Y12088113D01*
X13579602Y12084558D01*
X13586459Y12084558D01*
X13596874Y12088113D01*
X13603731Y12098528D01*
X13607288Y12115800D01*
X13607288Y12126213D01*
X13603731Y12143486D01*
X13596874Y12153900D01*
X13586459Y12157455D01*
X13579602Y12157455D01*
X5628386Y12160996D02*
G01*
X5600700Y12088098D01*
X5628386Y12160996D02*
G01*
X5656072Y12088098D01*
X5611113Y12112482D02*
G01*
X5645658Y12112482D01*
X5676900Y12143470D02*
G01*
X5683758Y12147026D01*
X5694172Y12157440D01*
X5694172Y12084542D01*
X13411200Y12665425D02*
G01*
X13411200Y12592527D01*
X13411200Y12665425D02*
G01*
X13442441Y12665425D01*
X13452856Y12661869D01*
X13456158Y12658313D01*
X13459713Y12651455D01*
X13459713Y12644597D01*
X13456158Y12637739D01*
X13452856Y12634183D01*
X13442441Y12630627D01*
X13411200Y12630627D02*
G01*
X13442441Y12630627D01*
X13452856Y12627325D01*
X13456158Y12623769D01*
X13459713Y12616911D01*
X13459713Y12606497D01*
X13456158Y12599639D01*
X13452856Y12596083D01*
X13442441Y12592527D01*
X13411200Y12592527D01*
X13494258Y12665455D02*
G01*
X13532358Y12665455D01*
X13511529Y12637770D01*
X13521943Y12637770D01*
X13529056Y12634213D01*
X13532358Y12630658D01*
X13535913Y12620244D01*
X13535913Y12613386D01*
X13532358Y12602971D01*
X13525500Y12596113D01*
X13515086Y12592558D01*
X13504672Y12592558D01*
X13494258Y12596113D01*
X13490956Y12599670D01*
X13487400Y12606528D01*
X13579602Y12665455D02*
G01*
X13569188Y12661900D01*
X13562329Y12651486D01*
X13558774Y12634213D01*
X13558774Y12623800D01*
X13562329Y12606528D01*
X13569188Y12596113D01*
X13579602Y12592558D01*
X13586459Y12592558D01*
X13596874Y12596113D01*
X13603731Y12606528D01*
X13607288Y12623800D01*
X13607288Y12634213D01*
X13603731Y12651486D01*
X13596874Y12661900D01*
X13586459Y12665455D01*
X13579602Y12665455D01*
D10*
X7972043Y13105892D02*
G01*
X7962900Y13124434D01*
X7935213Y13133578D01*
X7916672Y13133578D01*
X7888986Y13124434D01*
X7870443Y13096747D01*
X7861300Y13050520D01*
X7861300Y13004292D01*
X7870443Y12967462D01*
X7888986Y12948920D01*
X7916672Y12939776D01*
X7926070Y12939776D01*
X7953756Y12948920D01*
X7972043Y12967462D01*
X7981441Y12995147D01*
X7981441Y13004292D01*
X7972043Y13031978D01*
X7953756Y13050520D01*
X7926070Y13059663D01*
X7916672Y13059663D01*
X7888986Y13050520D01*
X7870443Y13031978D01*
X7861300Y13004292D01*
X8097774Y13133578D02*
G01*
X8070088Y13124434D01*
X8051545Y13096747D01*
X8042402Y13050520D01*
X8042402Y13022834D01*
X8051545Y12976605D01*
X8070088Y12948920D01*
X8097774Y12939776D01*
X8116315Y12939776D01*
X8144002Y12948920D01*
X8162290Y12976605D01*
X8171688Y13022834D01*
X8171688Y13050520D01*
X8162290Y13096747D01*
X8144002Y13124434D01*
X8116315Y13133578D01*
X8097774Y13133578D01*
X8374888Y13133578D02*
G01*
X8374888Y12939776D01*
X8374888Y13133578D02*
G01*
X8457945Y13133578D01*
X8485631Y13124434D01*
X8495029Y13115289D01*
X8504174Y13096747D01*
X8504174Y13069062D01*
X8495029Y13050520D01*
X8485631Y13041376D01*
X8457945Y13031978D01*
X8374888Y13031978D01*
X8565134Y13133578D02*
G01*
X8565134Y12939776D01*
X8626093Y13133578D02*
G01*
X8626093Y12939776D01*
X8626093Y13133578D02*
G01*
X8755379Y12939776D01*
X8755379Y13133578D02*
G01*
X8755379Y12939776D01*
X8958579Y13133578D02*
G01*
X8958579Y12939776D01*
X8958579Y13133578D02*
G01*
X9078722Y13133578D01*
X8958579Y13041376D02*
G01*
X9032493Y13041376D01*
X9213595Y13133578D02*
G01*
X9139681Y12939776D01*
X9213595Y13133578D02*
G01*
X9287509Y12939776D01*
X9167368Y13004292D02*
G01*
X9259570Y13004292D01*
X9348470Y13133578D02*
G01*
X9348470Y12939776D01*
X9348470Y13133578D02*
G01*
X9422129Y12939776D01*
X9496043Y13133578D02*
G01*
X9422129Y12939776D01*
X9496043Y13133578D02*
G01*
X9496043Y12939776D01*
X9557004Y13133578D02*
G01*
X9557004Y12939776D01*
X9756647Y13087350D02*
G01*
X9747250Y13105892D01*
X9728961Y13124434D01*
X9710420Y13133578D01*
X9673590Y13133578D01*
X9655047Y13124434D01*
X9636506Y13105892D01*
X9627361Y13087350D01*
X9617963Y13059663D01*
X9617963Y13013689D01*
X9627361Y12985750D01*
X9636506Y12967462D01*
X9655047Y12948920D01*
X9673590Y12939776D01*
X9710420Y12939776D01*
X9728961Y12948920D01*
X9747250Y12967462D01*
X9756647Y12985750D01*
X9872979Y13133578D02*
G01*
X9854438Y13124434D01*
X9836150Y13105892D01*
X9826752Y13087350D01*
X9817608Y13059663D01*
X9817608Y13013689D01*
X9826752Y12985750D01*
X9836150Y12967462D01*
X9854438Y12948920D01*
X9872979Y12939776D01*
X9909809Y12939776D01*
X9928352Y12948920D01*
X9946893Y12967462D01*
X9956038Y12985750D01*
X9965436Y13013689D01*
X9965436Y13059663D01*
X9956038Y13087350D01*
X9946893Y13105892D01*
X9928352Y13124434D01*
X9909809Y13133578D01*
X9872979Y13133578D01*
X10026395Y13133578D02*
G01*
X10026395Y12939776D01*
X10026395Y13133578D02*
G01*
X10100309Y12939776D01*
X10173970Y13133578D02*
G01*
X10100309Y12939776D01*
X10173970Y13133578D02*
G01*
X10173970Y12939776D01*
X10506709Y13105892D02*
G01*
X10488168Y13124434D01*
X10460481Y13133578D01*
X10423397Y13133578D01*
X10395711Y13124434D01*
X10377170Y13105892D01*
X10377170Y13087350D01*
X10386568Y13069062D01*
X10395711Y13059663D01*
X10414254Y13050520D01*
X10469625Y13031978D01*
X10488168Y13022834D01*
X10497311Y13013689D01*
X10506709Y12995147D01*
X10506709Y12967462D01*
X10488168Y12948920D01*
X10460481Y12939776D01*
X10423397Y12939776D01*
X10395711Y12948920D01*
X10377170Y12967462D01*
X10567670Y13133578D02*
G01*
X10567670Y12939776D01*
X10567670Y12939776D02*
G01*
X10678413Y12939776D01*
X10794745Y13133578D02*
G01*
X10776204Y13124434D01*
X10757915Y13105892D01*
X10748518Y13087350D01*
X10739374Y13059663D01*
X10739374Y13013689D01*
X10748518Y12985750D01*
X10757915Y12967462D01*
X10776204Y12948920D01*
X10794745Y12939776D01*
X10831829Y12939776D01*
X10850118Y12948920D01*
X10868659Y12967462D01*
X10877804Y12985750D01*
X10887202Y13013689D01*
X10887202Y13059663D01*
X10877804Y13087350D01*
X10868659Y13105892D01*
X10850118Y13124434D01*
X10831829Y13133578D01*
X10794745Y13133578D01*
X11012677Y13133578D02*
G01*
X11012677Y12939776D01*
X10948161Y13133578D02*
G01*
X11077447Y13133578D01*
G36*
X9055100Y4419600D02*
G01*
X9066022Y4408119D01*
X9077502Y4397197D01*
X9089542Y4386884D01*
X9102140Y4377232D01*
X9115145Y4368190D01*
X9128658Y4359859D01*
X9142526Y4352239D01*
X9156801Y4345330D01*
X9171432Y4339183D01*
X9186316Y4333798D01*
X9201505Y4329176D01*
X9216847Y4325315D01*
X9232442Y4322318D01*
X9248089Y4320082D01*
X9263888Y4318660D01*
X9279737Y4318050D01*
X9295587Y4318254D01*
X9311386Y4319270D01*
X9327134Y4321098D01*
X9342780Y4323740D01*
X9350552Y4325315D01*
X9365894Y4329176D01*
X9381083Y4333798D01*
X9395968Y4339183D01*
X9410598Y4345330D01*
X9424873Y4352239D01*
X9438741Y4359859D01*
X9452254Y4368190D01*
X9465259Y4377232D01*
X9477857Y4386884D01*
X9489897Y4397197D01*
X9501378Y4408119D01*
X9512300Y4419600D01*
G37*
G36*
X13385800Y8356600D02*
G01*
X13396722Y8345119D01*
X13408202Y8334197D01*
X13420242Y8323884D01*
X13432840Y8314232D01*
X13445845Y8305190D01*
X13459358Y8296859D01*
X13473226Y8289239D01*
X13487501Y8282330D01*
X13502132Y8276183D01*
X13517016Y8270798D01*
X13532205Y8266175D01*
X13547547Y8262315D01*
X13563142Y8259318D01*
X13578789Y8257082D01*
X13594588Y8255660D01*
X13610437Y8255050D01*
X13626287Y8255253D01*
X13642086Y8256270D01*
X13657834Y8258098D01*
X13673480Y8260740D01*
X13681252Y8262315D01*
X13696594Y8266175D01*
X13711783Y8270798D01*
X13726668Y8276183D01*
X13741298Y8282330D01*
X13755573Y8289239D01*
X13769441Y8296859D01*
X13782954Y8305190D01*
X13795959Y8314232D01*
X13808557Y8323884D01*
X13820597Y8334197D01*
X13832078Y8345119D01*
X13843000Y8356600D01*
G37*
G36*
X14274800Y14998700D02*
G01*
X14263319Y14987778D01*
X14252397Y14976297D01*
X14242084Y14964257D01*
X14232432Y14951659D01*
X14223390Y14938654D01*
X14215059Y14925141D01*
X14207439Y14911273D01*
X14200530Y14896998D01*
X14194383Y14882368D01*
X14188998Y14867483D01*
X14184376Y14852294D01*
X14180515Y14836952D01*
X14177518Y14821357D01*
X14175282Y14805710D01*
X14173860Y14789912D01*
X14173250Y14774062D01*
X14173454Y14758212D01*
X14174469Y14742413D01*
X14176298Y14726666D01*
X14178940Y14711019D01*
X14180515Y14703247D01*
X14184376Y14687905D01*
X14188998Y14672716D01*
X14194383Y14657832D01*
X14200530Y14643201D01*
X14207439Y14628926D01*
X14215059Y14615058D01*
X14223390Y14601545D01*
X14232432Y14588540D01*
X14242084Y14575942D01*
X14252397Y14563902D01*
X14263319Y14552422D01*
X14274800Y14541500D01*
G37*
G36*
X5588000Y14427200D02*
G01*
X5598922Y14415719D01*
X5610402Y14404797D01*
X5622442Y14394484D01*
X5635040Y14384832D01*
X5648045Y14375790D01*
X5661558Y14367459D01*
X5675426Y14359839D01*
X5689701Y14352930D01*
X5704332Y14346783D01*
X5719216Y14341398D01*
X5734405Y14336776D01*
X5749747Y14332915D01*
X5765342Y14329918D01*
X5780989Y14327682D01*
X5796788Y14326260D01*
X5812637Y14325650D01*
X5828487Y14325854D01*
X5844286Y14326869D01*
X5860034Y14328698D01*
X5875680Y14331340D01*
X5883452Y14332915D01*
X5898794Y14336776D01*
X5913983Y14341398D01*
X5928868Y14346783D01*
X5943498Y14352930D01*
X5957773Y14359839D01*
X5971641Y14367459D01*
X5985154Y14375790D01*
X5998159Y14384832D01*
X6010757Y14394484D01*
X6022797Y14404797D01*
X6034278Y14415719D01*
X6045200Y14427200D01*
G37*
G36*
X5003800Y15887700D02*
G01*
X4992319Y15876778D01*
X4981397Y15865297D01*
X4971084Y15853257D01*
X4961432Y15840659D01*
X4952390Y15827654D01*
X4944059Y15814141D01*
X4936439Y15800273D01*
X4929530Y15785998D01*
X4923383Y15771368D01*
X4917998Y15756483D01*
X4913376Y15741294D01*
X4909515Y15725952D01*
X4906518Y15710357D01*
X4904282Y15694710D01*
X4902860Y15678912D01*
X4902250Y15663062D01*
X4902454Y15647212D01*
X4903470Y15631413D01*
X4905298Y15615666D01*
X4907940Y15600019D01*
X4909515Y15592247D01*
X4913376Y15576905D01*
X4917998Y15561716D01*
X4923383Y15546832D01*
X4929530Y15532201D01*
X4936439Y15517926D01*
X4944059Y15504058D01*
X4952390Y15490545D01*
X4961432Y15477540D01*
X4971084Y15464942D01*
X4981397Y15452902D01*
X4992319Y15441422D01*
X5003800Y15430500D01*
G37*
G36*
X13487400Y14998700D02*
G01*
X13475919Y14987778D01*
X13464997Y14976297D01*
X13454684Y14964257D01*
X13445032Y14951659D01*
X13435990Y14938654D01*
X13427659Y14925141D01*
X13420039Y14911273D01*
X13413130Y14896998D01*
X13406983Y14882368D01*
X13401598Y14867483D01*
X13396976Y14852294D01*
X13393115Y14836952D01*
X13390118Y14821357D01*
X13387882Y14805710D01*
X13386460Y14789912D01*
X13385850Y14774062D01*
X13386054Y14758212D01*
X13387069Y14742413D01*
X13388898Y14726666D01*
X13391540Y14711019D01*
X13393115Y14703247D01*
X13396976Y14687905D01*
X13401598Y14672716D01*
X13406983Y14657832D01*
X13413130Y14643201D01*
X13420039Y14628926D01*
X13427659Y14615058D01*
X13435990Y14601545D01*
X13445032Y14588540D01*
X13454684Y14575942D01*
X13464997Y14563902D01*
X13475919Y14552422D01*
X13487400Y14541500D01*
G37*
G36*
X11874500Y8763000D02*
G01*
X11874500Y8305800D01*
X11885980Y8316722D01*
X11896902Y8328202D01*
X11907215Y8340242D01*
X11916867Y8352840D01*
X11925909Y8365845D01*
X11934240Y8379358D01*
X11941860Y8393226D01*
X11948769Y8407501D01*
X11954916Y8422132D01*
X11960301Y8437016D01*
X11964924Y8452205D01*
X11968784Y8467547D01*
X11971782Y8483142D01*
X11974017Y8498789D01*
X11975439Y8514588D01*
X11976049Y8530437D01*
X11975846Y8546287D01*
X11974830Y8562086D01*
X11973001Y8577834D01*
X11970359Y8593480D01*
X11968784Y8601252D01*
X11964924Y8616594D01*
X11960301Y8631783D01*
X11954916Y8646668D01*
X11948769Y8661298D01*
X11941860Y8675573D01*
X11934240Y8689441D01*
X11925909Y8702954D01*
X11916867Y8715959D01*
X11907215Y8728557D01*
X11896902Y8740597D01*
X11885980Y8752078D01*
G37*
G36*
X11330025Y14922500D02*
G01*
X11330025Y14592300D01*
X11339576Y14602053D01*
X11348567Y14612315D01*
X11356949Y14623135D01*
X11364671Y14634413D01*
X11371681Y14646148D01*
X11377980Y14658289D01*
X11383518Y14670786D01*
X11388344Y14683587D01*
X11392357Y14696643D01*
X11395608Y14709901D01*
X11398046Y14723363D01*
X11399672Y14736927D01*
X11400485Y14750542D01*
X11400485Y14764257D01*
X11399672Y14777872D01*
X11398046Y14791436D01*
X11395608Y14804898D01*
X11392357Y14818156D01*
X11388344Y14831212D01*
X11383518Y14844013D01*
X11377980Y14856510D01*
X11371681Y14868651D01*
X11364671Y14880386D01*
X11356949Y14891664D01*
X11348567Y14902484D01*
X11339576Y14912746D01*
G37*
G36*
X12012574Y5194300D02*
G01*
X12003024Y5184546D01*
X11994032Y5174284D01*
X11985650Y5163464D01*
X11977928Y5152186D01*
X11970918Y5140452D01*
X11964619Y5128310D01*
X11959082Y5115814D01*
X11954256Y5103012D01*
X11950242Y5089956D01*
X11946991Y5076698D01*
X11944553Y5063236D01*
X11942927Y5049672D01*
X11942114Y5036058D01*
X11942114Y5022342D01*
X11942927Y5008727D01*
X11944553Y4995164D01*
X11946991Y4981702D01*
X11950242Y4968443D01*
X11954256Y4955387D01*
X11959082Y4942586D01*
X11964619Y4930089D01*
X11970918Y4917948D01*
X11977928Y4906213D01*
X11985650Y4894935D01*
X11994032Y4884115D01*
X12003024Y4873853D01*
X12012574Y4864100D01*
G37*
G36*
X6096000Y13978686D02*
G01*
X6082334Y13978280D01*
X6068720Y13977061D01*
X6055207Y13975029D01*
X6041847Y13972184D01*
X6028690Y13968526D01*
X6022187Y13966444D01*
X6009386Y13961618D01*
X5996889Y13956080D01*
X5984748Y13949781D01*
X5973013Y13942771D01*
X5961735Y13935049D01*
X5950915Y13926667D01*
X5940653Y13917676D01*
X5930900Y13908125D01*
X6261100Y13908125D01*
X6251346Y13917676D01*
X6241084Y13926667D01*
X6230264Y13935049D01*
X6218986Y13942771D01*
X6207252Y13949781D01*
X6195110Y13956080D01*
X6182614Y13961618D01*
X6169812Y13966444D01*
X6156756Y13970457D01*
X6143498Y13973708D01*
X6130036Y13976146D01*
X6116472Y13977772D01*
X6102858Y13978585D01*
G37*
D13*
X10172954Y13868654D02*
G01*
X10680954Y13868654D01*
X10680954Y14122654D01*
X10172954Y14122654D01*
X10172954Y13868654D01*
X7963154Y14452345D02*
G01*
X7963154Y13944345D01*
X8217154Y13944345D01*
X8217154Y14452345D01*
X7963154Y14452345D01*
X11023854Y14299945D02*
G01*
X11023854Y13791945D01*
X11277854Y13791945D01*
X11277854Y14299945D01*
X11023854Y14299945D01*
X8318245Y13817345D02*
G01*
X7810245Y13817345D01*
X7810245Y13563345D01*
X8318245Y13563345D01*
X8318245Y13817345D01*
D14*
X10048900Y4400100D02*
G01*
X10048900Y4820099D01*
X10448899Y4400100D02*
G01*
X10448899Y4820099D01*
X10048900Y4400100D02*
G01*
X10155671Y4400100D01*
X10342128Y4400100D02*
G01*
X10448899Y4400100D01*
X10048900Y4820099D02*
G01*
X10155671Y4820099D01*
X10342128Y4820099D02*
G01*
X10448899Y4820099D01*
X9486900Y4762500D02*
G01*
X9385300Y4762500D01*
X9436100Y4813300D02*
G01*
X9436100Y4711700D01*
D15*
X7607300Y4318000D02*
G01*
X7289800Y4318000D01*
D10*
X7607300Y4318000D02*
G01*
X7607300Y4064000D01*
X7099300Y4064000D01*
X7099300Y4318000D01*
X7289800Y4318000D01*
D14*
X6129020Y4734560D02*
G01*
X6367779Y4734560D01*
X6367779Y4734560D02*
G01*
X6367779Y4104639D01*
X6367779Y4104639D02*
G01*
X6129020Y4104639D01*
X6129020Y4104639D02*
G01*
X6129020Y4734560D01*
X13817600Y8699500D02*
G01*
X13716000Y8699500D01*
X13766800Y8750300D02*
G01*
X13766800Y8648700D01*
X14617700Y14566900D02*
G01*
X14617700Y14668500D01*
X14668500Y14617700D02*
G01*
X14566900Y14617700D01*
X6019800Y14770100D02*
G01*
X5918200Y14770100D01*
X5969000Y14820900D02*
G01*
X5969000Y14719300D01*
X5346700Y15455900D02*
G01*
X5346700Y15557500D01*
X5397500Y15506700D02*
G01*
X5295900Y15506700D01*
X13830300Y14566900D02*
G01*
X13830300Y14668500D01*
X13881100Y14617700D02*
G01*
X13779500Y14617700D01*
X11531600Y8737600D02*
G01*
X11531600Y8636000D01*
X11480800Y8686800D02*
G01*
X11582400Y8686800D01*
X12566200Y8772499D02*
G01*
X12986199Y8772499D01*
X12566200Y8372500D02*
G01*
X12986199Y8372500D01*
X12566200Y8772499D02*
G01*
X12566200Y8665728D01*
X12566200Y8479271D02*
G01*
X12566200Y8372500D01*
X12986199Y8772499D02*
G01*
X12986199Y8665728D01*
X12986199Y8479271D02*
G01*
X12986199Y8372500D01*
X5889599Y5328099D02*
G01*
X5889599Y4908100D01*
X5489600Y5328099D02*
G01*
X5489600Y4908100D01*
X5889599Y5328099D02*
G01*
X5782828Y5328099D01*
X5596371Y5328099D02*
G01*
X5489600Y5328099D01*
X5889599Y4908100D02*
G01*
X5782828Y4908100D01*
X5596371Y4908100D02*
G01*
X5489600Y4908100D01*
X13661999Y7448999D02*
G01*
X13661999Y7029000D01*
X13262000Y7448999D02*
G01*
X13262000Y7029000D01*
X13661999Y7448999D02*
G01*
X13555228Y7448999D01*
X13368771Y7448999D02*
G01*
X13262000Y7448999D01*
X13661999Y7029000D02*
G01*
X13555228Y7029000D01*
X13368771Y7029000D02*
G01*
X13262000Y7029000D01*
X4880000Y14382300D02*
G01*
X4880000Y14802299D01*
X5279999Y14382300D02*
G01*
X5279999Y14802299D01*
X4880000Y14382300D02*
G01*
X4986771Y14382300D01*
X5173228Y14382300D02*
G01*
X5279999Y14382300D01*
X4880000Y14802299D02*
G01*
X4986771Y14802299D01*
X5173228Y14802299D02*
G01*
X5279999Y14802299D01*
X10998987Y14907387D02*
G01*
X11100587Y14907387D01*
X11050600Y14957399D02*
G01*
X11050600Y14855799D01*
X12343612Y4879212D02*
G01*
X12242012Y4879212D01*
X12291999Y4829200D02*
G01*
X12291999Y4930800D01*
X5946013Y13577087D02*
G01*
X5946013Y13678687D01*
X5896000Y13628700D02*
G01*
X5997600Y13628700D01*
D13*
X10058145Y5968745D02*
G01*
X9550145Y5968745D01*
X9550145Y5714745D01*
X10058145Y5714745D01*
X10058145Y5968745D01*
X9473945Y5968745D02*
G01*
X8965945Y5968745D01*
X8965945Y5714745D01*
X9473945Y5714745D01*
X9473945Y5968745D01*
X14465554Y15925545D02*
G01*
X14465554Y15417545D01*
X14719554Y15417545D01*
X14719554Y15925545D01*
X14465554Y15925545D01*
X6413754Y15011145D02*
G01*
X6413754Y14503145D01*
X6667754Y14503145D01*
X6667754Y15011145D01*
X6413754Y15011145D01*
X11925045Y9753345D02*
G01*
X11417045Y9753345D01*
X11417045Y9499345D01*
X11925045Y9499345D01*
X11925045Y9753345D01*
X9296654Y15620745D02*
G01*
X9296654Y15112745D01*
X9550654Y15112745D01*
X9550654Y15620745D01*
X9296654Y15620745D01*
D14*
X4954699Y13855197D02*
G01*
X5484700Y13855197D01*
X5484700Y13475202D02*
G01*
X4954699Y13475202D01*
X4954699Y13475202D02*
G01*
X4954699Y13582820D01*
X4954699Y13747579D02*
G01*
X4954699Y13855197D01*
X5484700Y13475202D02*
G01*
X5484700Y13582820D01*
X5484700Y13747579D02*
G01*
X5484700Y13855197D01*
D15*
X12827000Y15836900D02*
G01*
X10985500Y15836900D01*
D10*
X12827000Y15836900D02*
G01*
X13081000Y15836900D01*
X13081000Y15582900D01*
X10795000Y15582900D01*
X10795000Y15836900D01*
X10985500Y15836900D01*
D15*
X5905500Y7988300D02*
G01*
X5905500Y8305800D01*
D10*
X5905500Y7988300D02*
G01*
X5651500Y7988300D01*
X5651500Y8496300D01*
X5905500Y8496300D01*
X5905500Y8305800D01*
D15*
X12433300Y4343400D02*
G01*
X12115800Y4343400D01*
D10*
X12433300Y4343400D02*
G01*
X12433300Y4089400D01*
X11925300Y4089400D01*
X11925300Y4343400D01*
X12115800Y4343400D01*
D14*
X11008486Y9062593D02*
G01*
X11008486Y8666606D01*
D10*
X9830993Y6214287D02*
G01*
X9219006Y6214287D01*
X9842550Y6714312D02*
G01*
X9219006Y6714312D01*
D14*
X12639040Y8999220D02*
G01*
X12639040Y9237979D01*
X12639040Y9237979D02*
G01*
X13268959Y9237979D01*
X13268959Y9237979D02*
G01*
X13268959Y8999220D01*
X13268959Y8999220D02*
G01*
X12639040Y8999220D01*
X11356340Y8999220D02*
G01*
X11356340Y9237979D01*
X11356340Y9237979D02*
G01*
X11986259Y9237979D01*
X11986259Y9237979D02*
G01*
X11986259Y8999220D01*
X11986259Y8999220D02*
G01*
X11356340Y8999220D01*
X7495540Y6751320D02*
G01*
X7495540Y6990079D01*
X7495540Y6990079D02*
G01*
X8125459Y6990079D01*
X8125459Y6990079D02*
G01*
X8125459Y6751320D01*
X8125459Y6751320D02*
G01*
X7495540Y6751320D01*
X7495540Y6116320D02*
G01*
X7495540Y6355079D01*
X7495540Y6355079D02*
G01*
X8125459Y6355079D01*
X8125459Y6355079D02*
G01*
X8125459Y6116320D01*
X8125459Y6116320D02*
G01*
X7495540Y6116320D01*
X9408159Y13860779D02*
G01*
X9408159Y13622020D01*
X9408159Y13622020D02*
G01*
X8778240Y13622020D01*
X8778240Y13622020D02*
G01*
X8778240Y13860779D01*
X8778240Y13860779D02*
G01*
X9408159Y13860779D01*
X9166859Y14724379D02*
G01*
X9166859Y14485620D01*
X9166859Y14485620D02*
G01*
X8536940Y14485620D01*
X8536940Y14485620D02*
G01*
X8536940Y14724379D01*
X8536940Y14724379D02*
G01*
X9166859Y14724379D01*
X9121140Y14053820D02*
G01*
X9121140Y14292579D01*
X9121140Y14292579D02*
G01*
X9751059Y14292579D01*
X9751059Y14292579D02*
G01*
X9751059Y14053820D01*
X9751059Y14053820D02*
G01*
X9121140Y14053820D01*
X10373359Y15854679D02*
G01*
X10373359Y15615920D01*
X10373359Y15615920D02*
G01*
X9743440Y15615920D01*
X9743440Y15615920D02*
G01*
X9743440Y15854679D01*
X9743440Y15854679D02*
G01*
X10373359Y15854679D01*
X7688579Y13667739D02*
G01*
X7449820Y13667739D01*
X7449820Y13667739D02*
G01*
X7449820Y14297660D01*
X7449820Y14297660D02*
G01*
X7688579Y14297660D01*
X7688579Y14297660D02*
G01*
X7688579Y13667739D01*
X7167879Y13667739D02*
G01*
X6929120Y13667739D01*
X6929120Y13667739D02*
G01*
X6929120Y14297660D01*
X6929120Y14297660D02*
G01*
X7167879Y14297660D01*
X7167879Y14297660D02*
G01*
X7167879Y13667739D01*
X10525759Y14724379D02*
G01*
X10525759Y14485620D01*
X10525759Y14485620D02*
G01*
X9895840Y14485620D01*
X9895840Y14485620D02*
G01*
X9895840Y14724379D01*
X9895840Y14724379D02*
G01*
X10525759Y14724379D01*
X10690859Y15321279D02*
G01*
X10690859Y15082520D01*
X10690859Y15082520D02*
G01*
X10060940Y15082520D01*
X10060940Y15082520D02*
G01*
X10060940Y15321279D01*
X10060940Y15321279D02*
G01*
X10690859Y15321279D01*
D16*
X9074800Y15328900D02*
G01*
X9074800Y15127399D01*
X8044799Y15127399D01*
X8044799Y15657400D01*
X9074800Y15657400D01*
X9074800Y15455900D01*
D14*
X3732860Y7758455D02*
G01*
X5190058Y7758455D01*
X5190058Y3841521D01*
X4108780Y3841521D01*
X3732860Y3841521D01*
X3732860Y7751851D01*
X3739464Y7758455D01*
X3535806Y7015581D02*
G01*
X3722954Y7015581D01*
X3729634Y7022261D01*
X3729634Y4562475D01*
X3722954Y4555794D01*
X3542487Y4555794D01*
X3535806Y4562475D01*
X3535806Y6982180D01*
X3535527Y7012381D01*
X3733215Y7564958D02*
G01*
X3599535Y7564958D01*
X3599535Y7364425D01*
X3606215Y7357745D01*
X3733215Y7357745D01*
X3733215Y4229531D02*
G01*
X3606215Y4229531D01*
X3599535Y4222851D01*
X3599535Y4022318D01*
X3733215Y4022318D01*
X15469539Y3836644D02*
G01*
X14012341Y3836644D01*
X14012341Y7753578D01*
X15093619Y7753578D01*
X15469539Y7753578D01*
X15469539Y3843248D01*
X15462935Y3836644D01*
X15666593Y4579518D02*
G01*
X15479445Y4579518D01*
X15472765Y4572838D01*
X15472765Y7032625D01*
X15479445Y7039305D01*
X15659912Y7039305D01*
X15666593Y7032625D01*
X15666593Y4612919D01*
X15666872Y4582718D01*
X15469184Y4030141D02*
G01*
X15602864Y4030141D01*
X15602864Y4230674D01*
X15596184Y4237354D01*
X15469184Y4237354D01*
X15469184Y7365568D02*
G01*
X15596184Y7365568D01*
X15602864Y7372248D01*
X15602864Y7572781D01*
X15469184Y7572781D01*
X11844020Y12242800D02*
G01*
X11844020Y12291060D01*
X11907520Y12242800D02*
G01*
X11844020Y12242800D01*
X11907520Y12291060D02*
G01*
X11907520Y12242800D01*
X11907520Y12496800D02*
G01*
X11907520Y12448539D01*
X11844020Y12496800D02*
G01*
X11907520Y12496800D01*
X11844020Y12448539D02*
G01*
X11844020Y12496800D01*
X10320020Y12242800D02*
G01*
X10320020Y12291060D01*
X10383520Y12242800D02*
G01*
X10320020Y12242800D01*
X10383520Y12291060D02*
G01*
X10383520Y12242800D01*
X10383520Y12496800D02*
G01*
X10383520Y12448539D01*
X10320020Y12496800D02*
G01*
X10383520Y12496800D01*
X10320020Y12448539D02*
G01*
X10320020Y12496800D01*
X8796020Y12242800D02*
G01*
X8796020Y12291060D01*
X8859520Y12242800D02*
G01*
X8796020Y12242800D01*
X8859520Y12291060D02*
G01*
X8859520Y12242800D01*
X8859520Y12496800D02*
G01*
X8859520Y12448539D01*
X8796020Y12496800D02*
G01*
X8859520Y12496800D01*
X8796020Y12448539D02*
G01*
X8796020Y12496800D01*
X7272020Y12240260D02*
G01*
X7272020Y12288520D01*
X7335520Y12240260D02*
G01*
X7272020Y12240260D01*
X7335520Y12288520D02*
G01*
X7335520Y12240260D01*
X7272020Y12494260D02*
G01*
X7335520Y12494260D01*
X12098020Y12242800D02*
G01*
X12098020Y12291060D01*
X12161520Y12242800D02*
G01*
X12098020Y12242800D01*
X12161520Y12291060D02*
G01*
X12161520Y12242800D01*
X12352020Y12242800D02*
G01*
X12352020Y12291060D01*
X12415520Y12242800D02*
G01*
X12352020Y12242800D01*
X12415520Y12291060D02*
G01*
X12415520Y12242800D01*
X12606020Y12242800D02*
G01*
X12606020Y12291060D01*
X12666979Y12242800D02*
G01*
X12606020Y12242800D01*
X12666979Y12291060D02*
G01*
X12666979Y12242800D01*
X12857479Y12242800D02*
G01*
X12857479Y12291060D01*
X12920979Y12242800D02*
G01*
X12857479Y12242800D01*
X12920979Y12291060D02*
G01*
X12920979Y12242800D01*
X13111479Y12242800D02*
G01*
X13111479Y12291060D01*
X13174979Y12242800D02*
G01*
X13111479Y12242800D01*
X13174979Y12291060D02*
G01*
X13174979Y12242800D01*
X13174979Y12496800D02*
G01*
X13174979Y12448539D01*
X13111479Y12496800D02*
G01*
X13174979Y12496800D01*
X13111479Y12448539D02*
G01*
X13111479Y12496800D01*
X12920979Y12496800D02*
G01*
X12920979Y12448539D01*
X12857479Y12496800D02*
G01*
X12920979Y12496800D01*
X12857479Y12448539D02*
G01*
X12857479Y12496800D01*
X12666979Y12496800D02*
G01*
X12666979Y12448539D01*
X12606020Y12496800D02*
G01*
X12666979Y12496800D01*
X12606020Y12448539D02*
G01*
X12606020Y12496800D01*
X12415520Y12496800D02*
G01*
X12415520Y12448539D01*
X12352020Y12496800D02*
G01*
X12415520Y12496800D01*
X12352020Y12448539D02*
G01*
X12352020Y12496800D01*
X12161520Y12496800D02*
G01*
X12161520Y12448539D01*
X12098020Y12496800D02*
G01*
X12161520Y12496800D01*
X12098020Y12448539D02*
G01*
X12098020Y12496800D01*
X10574020Y12242800D02*
G01*
X10574020Y12291060D01*
X10637520Y12242800D02*
G01*
X10574020Y12242800D01*
X10637520Y12291060D02*
G01*
X10637520Y12242800D01*
X10828020Y12242800D02*
G01*
X10828020Y12291060D01*
X10891520Y12242800D02*
G01*
X10828020Y12242800D01*
X10891520Y12291060D02*
G01*
X10891520Y12242800D01*
X11082020Y12242800D02*
G01*
X11082020Y12291060D01*
X11142979Y12242800D02*
G01*
X11082020Y12242800D01*
X11142979Y12291060D02*
G01*
X11142979Y12242800D01*
X11333479Y12242800D02*
G01*
X11333479Y12291060D01*
X11396979Y12242800D02*
G01*
X11333479Y12242800D01*
X11396979Y12291060D02*
G01*
X11396979Y12242800D01*
X11587479Y12242800D02*
G01*
X11587479Y12291060D01*
X11650979Y12242800D02*
G01*
X11587479Y12242800D01*
X11650979Y12291060D02*
G01*
X11650979Y12242800D01*
X11650979Y12496800D02*
G01*
X11650979Y12448539D01*
X11587479Y12496800D02*
G01*
X11650979Y12496800D01*
X11587479Y12448539D02*
G01*
X11587479Y12496800D01*
X11396979Y12496800D02*
G01*
X11396979Y12448539D01*
X11333479Y12496800D02*
G01*
X11396979Y12496800D01*
X11333479Y12448539D02*
G01*
X11333479Y12496800D01*
X11142979Y12496800D02*
G01*
X11142979Y12448539D01*
X11082020Y12496800D02*
G01*
X11142979Y12496800D01*
X11082020Y12448539D02*
G01*
X11082020Y12496800D01*
X10891520Y12496800D02*
G01*
X10891520Y12448539D01*
X10828020Y12496800D02*
G01*
X10891520Y12496800D01*
X10828020Y12448539D02*
G01*
X10828020Y12496800D01*
X10637520Y12496800D02*
G01*
X10637520Y12448539D01*
X10574020Y12496800D02*
G01*
X10637520Y12496800D01*
X10574020Y12448539D02*
G01*
X10574020Y12496800D01*
X9050020Y12242800D02*
G01*
X9050020Y12291060D01*
X9113520Y12242800D02*
G01*
X9050020Y12242800D01*
X9113520Y12291060D02*
G01*
X9113520Y12242800D01*
X9304020Y12242800D02*
G01*
X9304020Y12291060D01*
X9367520Y12242800D02*
G01*
X9304020Y12242800D01*
X9367520Y12291060D02*
G01*
X9367520Y12242800D01*
X9558020Y12242800D02*
G01*
X9558020Y12291060D01*
X9618979Y12242800D02*
G01*
X9558020Y12242800D01*
X9618979Y12291060D02*
G01*
X9618979Y12242800D01*
X9809479Y12242800D02*
G01*
X9809479Y12291060D01*
X9872979Y12242800D02*
G01*
X9809479Y12242800D01*
X9872979Y12291060D02*
G01*
X9872979Y12242800D01*
X10063479Y12242800D02*
G01*
X10063479Y12291060D01*
X10126979Y12242800D02*
G01*
X10063479Y12242800D01*
X10126979Y12291060D02*
G01*
X10126979Y12242800D01*
X10126979Y12496800D02*
G01*
X10126979Y12448539D01*
X10063479Y12496800D02*
G01*
X10126979Y12496800D01*
X10063479Y12448539D02*
G01*
X10063479Y12496800D01*
X9872979Y12496800D02*
G01*
X9872979Y12448539D01*
X9809479Y12496800D02*
G01*
X9872979Y12496800D01*
X9809479Y12448539D02*
G01*
X9809479Y12496800D01*
X9618979Y12496800D02*
G01*
X9618979Y12448539D01*
X9558020Y12496800D02*
G01*
X9618979Y12496800D01*
X9558020Y12448539D02*
G01*
X9558020Y12496800D01*
X9367520Y12496800D02*
G01*
X9367520Y12448539D01*
X9304020Y12496800D02*
G01*
X9367520Y12496800D01*
X9304020Y12448539D02*
G01*
X9304020Y12496800D01*
X9113520Y12496800D02*
G01*
X9113520Y12448539D01*
X9050020Y12496800D02*
G01*
X9113520Y12496800D01*
X9050020Y12448539D02*
G01*
X9050020Y12496800D01*
X7526020Y12242800D02*
G01*
X7526020Y12291060D01*
X7589520Y12242800D02*
G01*
X7526020Y12242800D01*
X7589520Y12291060D02*
G01*
X7589520Y12242800D01*
X7780020Y12242800D02*
G01*
X7780020Y12291060D01*
X7843520Y12242800D02*
G01*
X7780020Y12242800D01*
X7843520Y12291060D02*
G01*
X7843520Y12242800D01*
X8034020Y12242800D02*
G01*
X8034020Y12291060D01*
X8094979Y12242800D02*
G01*
X8034020Y12242800D01*
X8094979Y12291060D02*
G01*
X8094979Y12242800D01*
X8285479Y12242800D02*
G01*
X8285479Y12291060D01*
X8348979Y12242800D02*
G01*
X8285479Y12242800D01*
X8348979Y12291060D02*
G01*
X8348979Y12242800D01*
X8539479Y12242800D02*
G01*
X8539479Y12291060D01*
X8602979Y12242800D02*
G01*
X8539479Y12242800D01*
X8602979Y12291060D02*
G01*
X8602979Y12242800D01*
X8602979Y12496800D02*
G01*
X8602979Y12448539D01*
X8539479Y12496800D02*
G01*
X8602979Y12496800D01*
X8539479Y12448539D02*
G01*
X8539479Y12496800D01*
X8348979Y12496800D02*
G01*
X8348979Y12448539D01*
X8285479Y12496800D02*
G01*
X8348979Y12496800D01*
X8285479Y12448539D02*
G01*
X8285479Y12496800D01*
X8094979Y12496800D02*
G01*
X8094979Y12448539D01*
X8034020Y12496800D02*
G01*
X8094979Y12496800D01*
X8034020Y12448539D02*
G01*
X8034020Y12496800D01*
X7843520Y12496800D02*
G01*
X7843520Y12448539D01*
X7780020Y12496800D02*
G01*
X7843520Y12496800D01*
X7780020Y12448539D02*
G01*
X7780020Y12496800D01*
X7589520Y12496800D02*
G01*
X7589520Y12448539D01*
X7526020Y12496800D02*
G01*
X7589520Y12496800D01*
X6002020Y12242800D02*
G01*
X6002020Y12291060D01*
X6065520Y12242800D02*
G01*
X6002020Y12242800D01*
X6256020Y12242800D02*
G01*
X6256020Y12291060D01*
X6319520Y12242800D02*
G01*
X6256020Y12242800D01*
X6319520Y12291060D02*
G01*
X6319520Y12242800D01*
X6510020Y12242800D02*
G01*
X6510020Y12291060D01*
X6570979Y12242800D02*
G01*
X6510020Y12242800D01*
X6570979Y12291060D02*
G01*
X6570979Y12242800D01*
X6761479Y12242800D02*
G01*
X6761479Y12291060D01*
X6824979Y12242800D02*
G01*
X6761479Y12242800D01*
X6824979Y12291060D02*
G01*
X6824979Y12242800D01*
X7015479Y12242800D02*
G01*
X7015479Y12291060D01*
X7078979Y12242800D02*
G01*
X7015479Y12242800D01*
X7078979Y12291060D02*
G01*
X7078979Y12242800D01*
X6824979Y12496800D02*
G01*
X6824979Y12448539D01*
X6761479Y12496800D02*
G01*
X6824979Y12496800D01*
X6761479Y12448539D02*
G01*
X6761479Y12496800D01*
X6570979Y12496800D02*
G01*
X6570979Y12448539D01*
X6510020Y12496800D02*
G01*
X6570979Y12496800D01*
X6510020Y12448539D02*
G01*
X6510020Y12496800D01*
X6319520Y12496800D02*
G01*
X6319520Y12448539D01*
X6256020Y12496800D02*
G01*
X6319520Y12496800D01*
X6256020Y12448539D02*
G01*
X6256020Y12496800D01*
X6065520Y12496800D02*
G01*
X6065520Y12448539D01*
X6002020Y12496800D02*
G01*
X6065520Y12496800D01*
X6002020Y12448539D02*
G01*
X6002020Y12496800D01*
X5651500Y12448539D02*
G01*
X5651500Y12291060D01*
X7078979Y12496800D02*
G01*
X7078979Y12448539D01*
X7015479Y12448539D02*
G01*
X7015479Y12496800D01*
X7015479Y12496800D02*
G01*
X7078979Y12496800D01*
X6065520Y12291060D02*
G01*
X6065520Y12242800D01*
X7272020Y12448539D02*
G01*
X7272020Y12494260D01*
X7335520Y12494260D02*
G01*
X7335520Y12448539D01*
X7526020Y12448539D02*
G01*
X7526020Y12496800D01*
X13525500Y12448539D02*
G01*
X5651500Y12448539D01*
X5651500Y12291060D02*
G01*
X6081877Y12291187D01*
X13525500Y12293600D01*
X13525500Y12293600D02*
G01*
X13525500Y12448539D01*
X13652500Y11899900D02*
G01*
X13652500Y12839700D01*
X5524500Y12839700D02*
G01*
X5524500Y11899900D01*
X13652500Y12839700D02*
G01*
X5524500Y12839700D01*
X5524500Y11899900D02*
G01*
X13652500Y11899900D01*
X13677900Y12839700D02*
G01*
X15201900Y12839700D01*
X15201900Y11899900D01*
X13677900Y11899900D01*
X13677900Y12839700D01*
X3975100Y12839700D02*
G01*
X5499100Y12839700D01*
X5499100Y11899900D01*
X3975100Y11899900D01*
X3975100Y12839700D01*
G75*
G01*
X10732516Y9078976D02*
G03*
X10737355Y8647453I125982J-214376D01*
D10*
G75*
G01*
X9830994Y6214288D02*
G03*
X9830994Y6714312I-5040J250012D01*
G75*
G01*
X9219006Y6714312D02*
G03*
X9219006Y6214288I5040J-250012D01*
D17*
G75*
G01*
X9004808Y15557500D02*
G03*
X9004808Y15556992I-29999J-254D01*
D16*
G75*
G01*
X9074912Y15455900D02*
G03*
X9074912Y15328900I0J-63500D01*
D14*
G75*
G01
X9598660Y4635500D02*
G03X9598660Y4635500I-314960J0D01*
G75*
G01
X13929360Y8572500D02*
G03X13929360Y8572500I-314960J0D01*
G75*
G01
X14805660Y14770100D02*
G03X14805660Y14770100I-314960J0D01*
G75*
G01
X6131560Y14643100D02*
G03X6131560Y14643100I-314960J0D01*
G75*
G01
X5534660Y15659100D02*
G03X5534660Y15659100I-314960J0D01*
G75*
G01
X14018260Y14770100D02*
G03X14018260Y14770100I-314960J0D01*
G75*
G01
X11973560Y8534400D02*
G03X11973560Y8534400I-314960J0D01*
D18*
G75*
G01
X11400612Y14757400D02*
G03X11400612Y14757400I-250012J0D01*
G75*
G01
X12442012Y5029200D02*
G03X12442012Y5029200I-250012J0D01*
G75*
G01
X6346012Y13728700D02*
G03X6346012Y13728700I-250012J0D01*
D14*
G75*
G01
X6609512Y15646400D02*
G03X6609512Y15646400I-450012J0D01*
G75*
G01
X14242212Y15709900D02*
G03X14242212Y15709900I-450012J0D01*
M02*
