G04 Layer: TopSilkscreenLayer*
G04 EasyEDA v6.5.22, 2023-03-19 17:04:27*
G04 f7d942f30ce042ed8feb9a49e77c6dc6,a2f4cb7aa3704937908c5b59a0d1150c,10*
G04 Gerber Generator version 0.2*
G04 Scale: 100 percent, Rotated: No, Reflected: No *
G04 Dimensions in millimeters *
G04 leading zeros omitted , absolute positions ,4 integer and 5 decimal *
%FSLAX45Y45*%
%MOMM*%

%ADD10C,0.2032*%
%ADD11C,0.4000*%
%ADD12C,0.1524*%
%ADD13C,0.2007*%
%ADD14C,0.2540*%
%ADD15C,0.2030*%
%ADD16C,0.2000*%
%ADD17C,0.6000*%
%ADD18C,0.3000*%
%ADD19C,0.0148*%

%LPD*%
G36*
X9379102Y9974884D02*
G01*
X9342221Y9967468D01*
X9335922Y9966045D01*
X9329724Y9964369D01*
X9317736Y9960254D01*
X9306509Y9955377D01*
X9296298Y9950043D01*
X9291675Y9947249D01*
X9283598Y9941560D01*
X9280144Y9938766D01*
X9277197Y9935972D01*
X9274759Y9933279D01*
X9272828Y9930739D01*
X9271457Y9928301D01*
X9270695Y9926066D01*
X9270593Y9924034D01*
X9271152Y9922205D01*
X9272422Y9920630D01*
X9274403Y9919411D01*
X9277197Y9918446D01*
X9280804Y9917887D01*
X9285224Y9917684D01*
X9291574Y9917023D01*
X9296958Y9915194D01*
X9301226Y9912197D01*
X9304375Y9908235D01*
X9306306Y9903256D01*
X9307017Y9897465D01*
X9306458Y9890963D01*
X9304528Y9883749D01*
X9298787Y9867087D01*
X9252610Y9886391D01*
X9190177Y9859060D01*
X9141104Y9768789D01*
X9141110Y9722408D01*
X9233357Y9722408D01*
X9241942Y9758781D01*
X9246920Y9776053D01*
X9252356Y9791242D01*
X9255201Y9798050D01*
X9258096Y9804247D01*
X9261043Y9809835D01*
X9264040Y9814864D01*
X9267037Y9819182D01*
X9270034Y9822891D01*
X9273032Y9825939D01*
X9276029Y9828276D01*
X9278975Y9829952D01*
X9281820Y9830816D01*
X9284665Y9830968D01*
X9287408Y9830358D01*
X9290050Y9828936D01*
X9292539Y9826752D01*
X9294977Y9823704D01*
X9296552Y9820503D01*
X9297517Y9816642D01*
X9297873Y9812172D01*
X9297720Y9807194D01*
X9297060Y9801758D01*
X9295993Y9795967D01*
X9294469Y9789871D01*
X9290304Y9777120D01*
X9284919Y9764166D01*
X9281871Y9757765D01*
X9275267Y9745624D01*
X9271762Y9740036D01*
X9268206Y9734854D01*
X9264650Y9730130D01*
X9261043Y9726015D01*
X9257538Y9722510D01*
X9254083Y9719767D01*
X9250781Y9717786D01*
X9247632Y9716719D01*
X9244685Y9716566D01*
X9241993Y9717481D01*
X9233357Y9722408D01*
X9141110Y9722408D01*
X9141460Y9710013D01*
X9142476Y9697364D01*
X9143949Y9685477D01*
X9145930Y9674910D01*
X9148216Y9666325D01*
X9149486Y9662922D01*
X9150807Y9660280D01*
X9160459Y9643719D01*
X9223705Y9643719D01*
X9279077Y9686493D01*
X9290761Y9643719D01*
X9309658Y9643719D01*
X9314180Y9644075D01*
X9319869Y9645091D01*
X9326524Y9646666D01*
X9341612Y9651339D01*
X9349638Y9654286D01*
X9357664Y9657537D01*
X9365437Y9660991D01*
X9402419Y9678314D01*
X9402419Y9695230D01*
X9401657Y9701834D01*
X9399676Y9707219D01*
X9396679Y9710877D01*
X9393072Y9712198D01*
X9391650Y9712452D01*
X9390329Y9713264D01*
X9389160Y9714636D01*
X9388094Y9716465D01*
X9387179Y9718802D01*
X9386366Y9721646D01*
X9385147Y9728758D01*
X9384385Y9737699D01*
X9384131Y9748367D01*
X9384385Y9760661D01*
X9385147Y9774478D01*
X9386417Y9789718D01*
X9388195Y9806381D01*
X9390430Y9824212D01*
X9405620Y9925812D01*
X9410547Y9960457D01*
G37*
G36*
X8460536Y9969042D02*
G01*
X8354720Y9968687D01*
X8335416Y9968331D01*
X8316975Y9967620D01*
X8299907Y9966604D01*
X8284667Y9965385D01*
X8271713Y9963962D01*
X8261502Y9962388D01*
X8254492Y9960660D01*
X8252307Y9959797D01*
X8247634Y9956952D01*
X8243773Y9953853D01*
X8240775Y9950602D01*
X8238540Y9947148D01*
X8237220Y9943541D01*
X8236661Y9939832D01*
X8236966Y9936022D01*
X8238134Y9932212D01*
X8240115Y9928301D01*
X8242960Y9924440D01*
X8246618Y9920630D01*
X8251088Y9916820D01*
X8266226Y9905288D01*
X8259013Y9825482D01*
X8256879Y9804806D01*
X8254593Y9786112D01*
X8252104Y9769246D01*
X8249462Y9754260D01*
X8246618Y9740950D01*
X8243519Y9729317D01*
X8241944Y9724136D01*
X8238490Y9714839D01*
X8234781Y9707016D01*
X8231750Y9702088D01*
X8363712Y9702088D01*
X8370163Y9812731D01*
X8371586Y9833102D01*
X8373160Y9851136D01*
X8374837Y9866934D01*
X8376767Y9880600D01*
X8378952Y9892131D01*
X8381390Y9901631D01*
X8384184Y9909149D01*
X8385708Y9912197D01*
X8387334Y9914788D01*
X8389061Y9916922D01*
X8390890Y9918649D01*
X8392820Y9919919D01*
X8394903Y9920732D01*
X8397036Y9921138D01*
X8399373Y9921138D01*
X8401812Y9920732D01*
X8404352Y9919970D01*
X8407095Y9918801D01*
X8412988Y9915347D01*
X8419439Y9910470D01*
X8426602Y9904222D01*
X8441283Y9890760D01*
X8441232Y9767824D01*
X8408619Y9707930D01*
X8363712Y9702088D01*
X8231750Y9702088D01*
X8228634Y9697923D01*
X8226450Y9695535D01*
X8221827Y9691725D01*
X8205978Y9681108D01*
X8212886Y9647986D01*
X8313775Y9645294D01*
X8332673Y9645040D01*
X8350199Y9645142D01*
X8366506Y9645599D01*
X8381695Y9646412D01*
X8395817Y9647580D01*
X8408974Y9649155D01*
X8421217Y9651136D01*
X8432698Y9653574D01*
X8443417Y9656470D01*
X8453577Y9659874D01*
X8463127Y9663734D01*
X8472271Y9668103D01*
X8481060Y9672980D01*
X8489543Y9678416D01*
X8497874Y9684461D01*
X8534400Y9713823D01*
X8550757Y9764572D01*
X8554618Y9778746D01*
X8557666Y9792462D01*
X8559800Y9805771D01*
X8561171Y9818725D01*
X8561628Y9831374D01*
X8561578Y9837572D01*
X8560765Y9849764D01*
X8559139Y9861651D01*
X8556650Y9873335D01*
X8553297Y9884816D01*
X8549081Y9896144D01*
X8544001Y9907270D01*
X8525865Y9943998D01*
G37*
G36*
X8747353Y9882733D02*
G01*
X8741359Y9882581D01*
X8735263Y9882124D01*
X8729014Y9881362D01*
X8722614Y9880295D01*
X8716060Y9878923D01*
X8702598Y9875215D01*
X8695690Y9872929D01*
X8681567Y9867392D01*
X8632850Y9844887D01*
X8588515Y9786416D01*
X8684209Y9786416D01*
X8685072Y9793122D01*
X8686901Y9800437D01*
X8689746Y9807956D01*
X8693556Y9815474D01*
X8696858Y9820605D01*
X8700160Y9824770D01*
X8703411Y9827869D01*
X8706561Y9830003D01*
X8709558Y9831171D01*
X8712301Y9831374D01*
X8714790Y9830612D01*
X8716975Y9828834D01*
X8718753Y9826142D01*
X8720074Y9822484D01*
X8720937Y9817912D01*
X8721242Y9812375D01*
X8720531Y9805060D01*
X8718600Y9797846D01*
X8715603Y9791090D01*
X8711692Y9784943D01*
X8707170Y9779711D01*
X8702141Y9775698D01*
X8696807Y9773056D01*
X8691372Y9772142D01*
X8687968Y9773158D01*
X8685682Y9776155D01*
X8684412Y9780676D01*
X8684209Y9786416D01*
X8588515Y9786416D01*
X8577935Y9772446D01*
X8576564Y9685070D01*
X8628938Y9643719D01*
X8715349Y9643719D01*
X8762187Y9664700D01*
X8768994Y9668154D01*
X8775242Y9671710D01*
X8780830Y9675266D01*
X8785809Y9678873D01*
X8790178Y9682429D01*
X8793937Y9685985D01*
X8796985Y9689490D01*
X8799372Y9692995D01*
X8801100Y9696399D01*
X8802166Y9699752D01*
X8802522Y9703003D01*
X8802166Y9706152D01*
X8801049Y9709200D01*
X8799271Y9712096D01*
X8796680Y9714839D01*
X8787587Y9723221D01*
X8759952Y9712756D01*
X8751824Y9709962D01*
X8743645Y9707829D01*
X8735568Y9706305D01*
X8727694Y9705390D01*
X8720124Y9705086D01*
X8713012Y9705340D01*
X8706459Y9706203D01*
X8700566Y9707575D01*
X8695486Y9709505D01*
X8691321Y9712045D01*
X8688171Y9715042D01*
X8686190Y9718598D01*
X8682329Y9729317D01*
X8702243Y9729317D01*
X8707729Y9729571D01*
X8713470Y9730282D01*
X8719413Y9731502D01*
X8725560Y9733127D01*
X8731808Y9735159D01*
X8738108Y9737547D01*
X8744458Y9740341D01*
X8750808Y9743440D01*
X8757056Y9746843D01*
X8763203Y9750552D01*
X8769197Y9754514D01*
X8774988Y9758730D01*
X8780475Y9763150D01*
X8785707Y9767722D01*
X8790584Y9772497D01*
X8795054Y9777374D01*
X8814511Y9800132D01*
X8814511Y9856774D01*
X8793784Y9870084D01*
X8789365Y9872726D01*
X8784691Y9875062D01*
X8779865Y9877094D01*
X8774887Y9878822D01*
X8769705Y9880193D01*
X8764371Y9881311D01*
X8758834Y9882073D01*
X8753195Y9882581D01*
G37*
G36*
X9526879Y9882479D02*
G01*
X9493504Y9866477D01*
X9481820Y9860178D01*
X9470999Y9853472D01*
X9460992Y9846411D01*
X9452000Y9839147D01*
X9444024Y9831628D01*
X9437065Y9824008D01*
X9431324Y9816236D01*
X9419793Y9796729D01*
X9442196Y9771938D01*
X9454540Y9781336D01*
X9457537Y9783419D01*
X9460331Y9785045D01*
X9463074Y9786213D01*
X9465665Y9786874D01*
X9468205Y9786975D01*
X9470694Y9786569D01*
X9473133Y9785553D01*
X9475571Y9783927D01*
X9478010Y9781692D01*
X9480448Y9778796D01*
X9482937Y9775240D01*
X9485477Y9770973D01*
X9490862Y9760204D01*
X9496704Y9746284D01*
X9503156Y9729063D01*
X9510369Y9708337D01*
X9534652Y9636810D01*
X9524034Y9618624D01*
X9521088Y9614204D01*
X9517888Y9610699D01*
X9514586Y9608108D01*
X9511334Y9606381D01*
X9508236Y9605518D01*
X9505391Y9605518D01*
X9503003Y9606280D01*
X9501124Y9607905D01*
X9499904Y9610242D01*
X9499498Y9613392D01*
X9500006Y9617303D01*
X9501530Y9621926D01*
X9502648Y9627920D01*
X9501987Y9635540D01*
X9499752Y9643770D01*
X9496094Y9651593D01*
X9485731Y9669373D01*
X9464598Y9669373D01*
X9457588Y9669068D01*
X9451187Y9668052D01*
X9445396Y9666427D01*
X9440265Y9664090D01*
X9435744Y9661144D01*
X9431832Y9657486D01*
X9428530Y9653168D01*
X9425838Y9648139D01*
X9423755Y9642449D01*
X9422231Y9636048D01*
X9421368Y9628987D01*
X9421063Y9621215D01*
X9421063Y9593580D01*
X9472371Y9556445D01*
X9549638Y9564319D01*
X9617151Y9611563D01*
X9684766Y9737140D01*
X9693910Y9853980D01*
X9679279Y9865055D01*
X9675926Y9867239D01*
X9671913Y9869170D01*
X9667494Y9870795D01*
X9662668Y9872116D01*
X9657689Y9873030D01*
X9652711Y9873589D01*
X9647834Y9873691D01*
X9643211Y9873386D01*
X9621672Y9870592D01*
X9618573Y9850526D01*
X9618218Y9845954D01*
X9618268Y9840772D01*
X9618726Y9835134D01*
X9619640Y9829190D01*
X9620859Y9823145D01*
X9622434Y9817150D01*
X9624314Y9811410D01*
X9626447Y9806127D01*
X9637420Y9781794D01*
X9629698Y9749790D01*
X9626650Y9740595D01*
X9625126Y9737140D01*
X9623501Y9734499D01*
X9621824Y9732670D01*
X9620046Y9731654D01*
X9618167Y9731451D01*
X9616236Y9732111D01*
X9614154Y9733635D01*
X9611969Y9735972D01*
X9609632Y9739223D01*
X9607092Y9743338D01*
X9601606Y9754260D01*
X9595358Y9768890D01*
X9588246Y9787280D01*
X9559442Y9866477D01*
G37*
G36*
X9065310Y9881717D02*
G01*
X9056878Y9881057D01*
X9047683Y9879177D01*
X9042857Y9877806D01*
X9032697Y9874097D01*
X9021876Y9869220D01*
X9010396Y9863074D01*
X8987993Y9849358D01*
X8979255Y9844633D01*
X8973058Y9841992D01*
X8970314Y9841839D01*
X8961628Y9856419D01*
X8957919Y9862261D01*
X8954465Y9867188D01*
X8951163Y9871252D01*
X8947912Y9874453D01*
X8944610Y9876891D01*
X8941104Y9878568D01*
X8937294Y9879533D01*
X8933129Y9879838D01*
X8928506Y9879533D01*
X8923223Y9878618D01*
X8917228Y9877145D01*
X8902649Y9872675D01*
X8886647Y9867188D01*
X8879687Y9864293D01*
X8873083Y9861194D01*
X8866835Y9857841D01*
X8860942Y9854387D01*
X8855506Y9850780D01*
X8850579Y9847122D01*
X8846159Y9843465D01*
X8842248Y9839807D01*
X8838996Y9836251D01*
X8836304Y9832848D01*
X8834323Y9829546D01*
X8833053Y9826498D01*
X8832494Y9823704D01*
X8832748Y9821214D01*
X8833866Y9819081D01*
X8835796Y9817354D01*
X8838641Y9816033D01*
X8842400Y9815220D01*
X8847175Y9814915D01*
X8861196Y9814915D01*
X8860637Y9773259D01*
X8859977Y9761423D01*
X8858859Y9748418D01*
X8857335Y9734956D01*
X8855506Y9721799D01*
X8853474Y9709708D01*
X8850884Y9696348D01*
X8849664Y9688576D01*
X8848750Y9681108D01*
X8848140Y9674098D01*
X8847886Y9667798D01*
X8847937Y9662363D01*
X8848344Y9658045D01*
X8849156Y9654997D01*
X8853881Y9643719D01*
X8883751Y9643719D01*
X8890050Y9643922D01*
X8896553Y9644532D01*
X8903106Y9645548D01*
X8909405Y9646869D01*
X8915400Y9648444D01*
X8920784Y9650272D01*
X8925458Y9652254D01*
X8929217Y9654387D01*
X8944813Y9665106D01*
X8955227Y9732619D01*
X8956700Y9740595D01*
X8960104Y9755327D01*
X8963964Y9768382D01*
X8968181Y9779660D01*
X8970416Y9784588D01*
X8972753Y9789007D01*
X8975140Y9792970D01*
X8977579Y9796424D01*
X8980068Y9799320D01*
X8982608Y9801656D01*
X8985199Y9803485D01*
X8987790Y9804704D01*
X8990431Y9805365D01*
X8993073Y9805416D01*
X8995714Y9804857D01*
X8998356Y9803688D01*
X9006687Y9798964D01*
X8989060Y9659924D01*
X9009075Y9641535D01*
X9041790Y9647174D01*
X9048800Y9648647D01*
X9056166Y9650628D01*
X9063685Y9653066D01*
X9071152Y9655860D01*
X9078366Y9658908D01*
X9085021Y9662109D01*
X9090964Y9665411D01*
X9095943Y9668764D01*
X9117380Y9684664D01*
X9093047Y9726320D01*
X9104934Y9786874D01*
X9106966Y9800691D01*
X9108084Y9813493D01*
X9108287Y9825177D01*
X9107678Y9835845D01*
X9106154Y9845395D01*
X9105087Y9849764D01*
X9103817Y9853879D01*
X9102344Y9857740D01*
X9100667Y9861245D01*
X9098788Y9864547D01*
X9096705Y9867544D01*
X9094419Y9870236D01*
X9091930Y9872675D01*
X9089288Y9874808D01*
X9086392Y9876637D01*
X9083344Y9878212D01*
X9080144Y9879482D01*
X9076690Y9880498D01*
X9073083Y9881209D01*
X9069273Y9881616D01*
G37*
G36*
X8886291Y9545726D02*
G01*
X8873032Y9545472D01*
X8861501Y9544710D01*
X8853322Y9543745D01*
X8835136Y9540900D01*
X8810650Y9536633D01*
X8775903Y9530232D01*
X8695385Y9514535D01*
X8609279Y9458401D01*
X8473948Y9489948D01*
X8394903Y9479127D01*
X8329371Y9412528D01*
X8295894Y9412478D01*
X8286140Y9411868D01*
X8276742Y9410598D01*
X8267649Y9408718D01*
X8258911Y9406229D01*
X8250478Y9403080D01*
X8242350Y9399270D01*
X8234527Y9394901D01*
X8227059Y9389872D01*
X8219948Y9384182D01*
X8213090Y9377883D01*
X8206587Y9370923D01*
X8200390Y9363354D01*
X8194497Y9355124D01*
X8188909Y9346234D01*
X8183625Y9336735D01*
X8178698Y9326575D01*
X8174075Y9315754D01*
X8169757Y9304324D01*
X8165744Y9292183D01*
X8162036Y9279432D01*
X8158632Y9266072D01*
X8155533Y9252000D01*
X8152739Y9237319D01*
X8148874Y9211665D01*
X8177530Y9211665D01*
X8190179Y9265412D01*
X8194192Y9278721D01*
X8198866Y9291523D01*
X8204200Y9303664D01*
X8210143Y9315246D01*
X8216646Y9326118D01*
X8223656Y9336227D01*
X8231174Y9345625D01*
X8235086Y9349994D01*
X8243265Y9358071D01*
X8247430Y9361779D01*
X8256117Y9368485D01*
X8260537Y9371482D01*
X8269630Y9376714D01*
X8278926Y9380931D01*
X8283651Y9382607D01*
X8288375Y9383979D01*
X8293201Y9385096D01*
X8297976Y9385909D01*
X8302853Y9386417D01*
X8328050Y9386874D01*
X8331698Y9376308D01*
X8372144Y9376308D01*
X8372348Y9381134D01*
X8372856Y9386062D01*
X8373719Y9390989D01*
X8374888Y9396018D01*
X8376412Y9401098D01*
X8387791Y9431477D01*
X8422081Y9445091D01*
X8431936Y9448546D01*
X8441334Y9451187D01*
X8450681Y9453067D01*
X8460333Y9454134D01*
X8470646Y9454438D01*
X8478686Y9454184D01*
X8654694Y9454184D01*
X8680704Y9467697D01*
X8691118Y9472523D01*
X8715705Y9482836D01*
X8739886Y9491827D01*
X8749842Y9495078D01*
X8757259Y9497060D01*
X8759799Y9497517D01*
X8760206Y9496958D01*
X8759139Y9495078D01*
X8752992Y9487916D01*
X8742375Y9477146D01*
X8728354Y9463938D01*
X8710472Y9447885D01*
X8703411Y9441992D01*
X8697315Y9437420D01*
X8692134Y9434118D01*
X8687612Y9432036D01*
X8683599Y9431121D01*
X8679942Y9431324D01*
X8676487Y9432544D01*
X8673134Y9434779D01*
X8669578Y9437878D01*
X8654694Y9454184D01*
X8478686Y9454184D01*
X8488222Y9453473D01*
X8501938Y9451949D01*
X8517585Y9449663D01*
X8535670Y9446666D01*
X8544610Y9444939D01*
X8554313Y9442704D01*
X8564575Y9440011D01*
X8575395Y9436862D01*
X8598357Y9429394D01*
X8610346Y9425178D01*
X8628837Y9418218D01*
X8648531Y9410242D01*
X8728557Y9410242D01*
X8758224Y9439706D01*
X8765641Y9445955D01*
X8774684Y9452762D01*
X8784996Y9459874D01*
X8796223Y9467138D01*
X8808008Y9474250D01*
X8820048Y9481058D01*
X8832037Y9487357D01*
X8893860Y9516973D01*
X9009278Y9508794D01*
X9057690Y9487154D01*
X9066987Y9482175D01*
X9075770Y9476892D01*
X9148622Y9476892D01*
X9148673Y9478010D01*
X9149232Y9478721D01*
X9150350Y9479076D01*
X9152026Y9479026D01*
X9156954Y9477756D01*
X9164066Y9474911D01*
X9173311Y9470593D01*
X9184741Y9464751D01*
X9198356Y9457436D01*
X9212884Y9449308D01*
X9226448Y9440976D01*
X9239199Y9432493D01*
X9250578Y9424162D01*
X9259874Y9416542D01*
X9263634Y9413138D01*
X9266631Y9410039D01*
X9268815Y9407347D01*
X9281566Y9389313D01*
X9256623Y9370314D01*
X9189923Y9432086D01*
X9167622Y9453575D01*
X9159697Y9461855D01*
X9153855Y9468459D01*
X9150197Y9473488D01*
X9149130Y9475419D01*
X9148622Y9476892D01*
X9075770Y9476892D01*
X9082786Y9472422D01*
X9094216Y9464649D01*
X9106154Y9456064D01*
X9118447Y9446768D01*
X9130792Y9437065D01*
X9155125Y9416745D01*
X9166656Y9406483D01*
X9177477Y9396425D01*
X9187484Y9386722D01*
X9196374Y9377476D01*
X9204045Y9368942D01*
X9210192Y9361170D01*
X9214713Y9354464D01*
X9224416Y9337852D01*
X9219580Y9329267D01*
X9272981Y9329267D01*
X9289389Y9352076D01*
X9295790Y9359798D01*
X9302851Y9367266D01*
X9310522Y9374479D01*
X9318802Y9381388D01*
X9327642Y9388043D01*
X9336938Y9394393D01*
X9346742Y9400387D01*
X9357004Y9406077D01*
X9367621Y9411462D01*
X9378645Y9416440D01*
X9389973Y9421114D01*
X9401606Y9425432D01*
X9413443Y9429292D01*
X9425533Y9432848D01*
X9437827Y9435947D01*
X9450222Y9438640D01*
X9462719Y9440926D01*
X9475266Y9442805D01*
X9487865Y9444228D01*
X9500463Y9445142D01*
X9513011Y9445650D01*
X9525457Y9445650D01*
X9537801Y9445193D01*
X9549993Y9444228D01*
X9561982Y9442704D01*
X9573717Y9440722D01*
X9585198Y9438182D01*
X9595510Y9435338D01*
X9604552Y9432188D01*
X9613188Y9428480D01*
X9621418Y9424212D01*
X9629241Y9419386D01*
X9636658Y9414002D01*
X9643668Y9408109D01*
X9650272Y9401657D01*
X9656470Y9394698D01*
X9662261Y9387179D01*
X9667646Y9379204D01*
X9672574Y9370669D01*
X9677095Y9361627D01*
X9681210Y9352076D01*
X9684918Y9342069D01*
X9688169Y9331553D01*
X9691014Y9320580D01*
X9693452Y9309049D01*
X9695434Y9297111D01*
X9697008Y9284665D01*
X9698126Y9271812D01*
X9698837Y9258452D01*
X9699091Y9244634D01*
X9698939Y9230410D01*
X9698329Y9215729D01*
X9697262Y9200591D01*
X9695738Y9185046D01*
X9693808Y9169044D01*
X9691420Y9152636D01*
X9688626Y9135821D01*
X9686086Y9122511D01*
X9681210Y9101531D01*
X9674656Y9077553D01*
X9666681Y9051188D01*
X9657486Y9023045D01*
X9647326Y8993682D01*
X9636506Y8963609D01*
X9619335Y8918600D01*
X9607702Y8889492D01*
X9596120Y8861755D01*
X9584893Y8835999D01*
X9574225Y8812784D01*
X9564370Y8792667D01*
X9555530Y8776258D01*
X9551619Y8769654D01*
X9547961Y8764168D01*
X9544761Y8759901D01*
X9541916Y8756904D01*
X9539528Y8755278D01*
X9538512Y8755024D01*
X9537598Y8755075D01*
X9536836Y8755583D01*
X9536023Y8757005D01*
X9535820Y8759291D01*
X9536277Y8762390D01*
X9537293Y8766302D01*
X9541205Y8776411D01*
X9547402Y8789416D01*
X9555886Y8805214D01*
X9566503Y8823604D01*
X9580321Y8846769D01*
X9571786Y8862110D01*
X9569856Y8866073D01*
X9565182Y8877858D01*
X9559950Y8893352D01*
X9554819Y8910675D01*
X9541713Y8961323D01*
X9564979Y8984996D01*
X9569958Y8990634D01*
X9574479Y8996172D01*
X9578543Y9001658D01*
X9582150Y9006992D01*
X9585299Y9012224D01*
X9587992Y9017355D01*
X9590278Y9022384D01*
X9592056Y9027210D01*
X9593427Y9031935D01*
X9594342Y9036456D01*
X9594850Y9040825D01*
X9594850Y9045041D01*
X9594443Y9049004D01*
X9593630Y9052814D01*
X9592360Y9056370D01*
X9590633Y9059722D01*
X9588500Y9062821D01*
X9585909Y9065717D01*
X9582912Y9068308D01*
X9579508Y9070644D01*
X9575647Y9072727D01*
X9571380Y9074505D01*
X9566656Y9075978D01*
X9561576Y9077147D01*
X9556038Y9077960D01*
X9550044Y9078468D01*
X9543694Y9078671D01*
X9518345Y9078671D01*
X9464649Y9028633D01*
X9451136Y9016441D01*
X9440113Y9007043D01*
X9431324Y9000439D01*
X9427667Y8998153D01*
X9424517Y8996578D01*
X9421774Y8995613D01*
X9419437Y8995308D01*
X9417507Y8995664D01*
X9415830Y8996680D01*
X9414560Y8998305D01*
X9413494Y9000540D01*
X9412681Y9003385D01*
X9411716Y9010954D01*
X9411106Y9026144D01*
X9409836Y9037421D01*
X9407550Y9049359D01*
X9404400Y9061704D01*
X9400489Y9074099D01*
X9395917Y9086240D01*
X9390837Y9097822D01*
X9385350Y9108490D01*
X9379559Y9117939D01*
X9376613Y9122105D01*
X9373616Y9125864D01*
X9367977Y9132112D01*
X9365589Y9135516D01*
X9363506Y9139224D01*
X9361678Y9143288D01*
X9360103Y9147657D01*
X9358833Y9152331D01*
X9357817Y9157360D01*
X9357055Y9162694D01*
X9356598Y9168282D01*
X9356394Y9174175D01*
X9356852Y9186773D01*
X9357461Y9193428D01*
X9359544Y9207500D01*
X9360966Y9214916D01*
X9364726Y9230309D01*
X9369501Y9246514D01*
X9383318Y9289084D01*
X9410496Y9313011D01*
X9415119Y9316821D01*
X9420250Y9320479D01*
X9425736Y9323984D01*
X9431578Y9327337D01*
X9437725Y9330486D01*
X9450781Y9336227D01*
X9457588Y9338767D01*
X9471558Y9343136D01*
X9485680Y9346488D01*
X9492742Y9347758D01*
X9499650Y9348724D01*
X9506458Y9349384D01*
X9513112Y9349740D01*
X9519513Y9349740D01*
X9525660Y9349435D01*
X9531502Y9348774D01*
X9543288Y9346590D01*
X9548977Y9346234D01*
X9553905Y9346539D01*
X9558070Y9347504D01*
X9561423Y9348978D01*
X9563811Y9351010D01*
X9565284Y9353397D01*
X9565741Y9356191D01*
X9565132Y9359290D01*
X9563404Y9362643D01*
X9560509Y9366148D01*
X9556343Y9369755D01*
X9542526Y9380321D01*
X9421368Y9373209D01*
X9389262Y9345117D01*
X9382607Y9338360D01*
X9375495Y9330385D01*
X9368078Y9321393D01*
X9360712Y9311741D01*
X9353499Y9301683D01*
X9346742Y9291523D01*
X9340646Y9281617D01*
X9312452Y9230918D01*
X9272981Y9329267D01*
X9219580Y9329267D01*
X9186621Y9270847D01*
X9169400Y9241434D01*
X9162084Y9229496D01*
X9156141Y9220250D01*
X9151975Y9214307D01*
X9149842Y9212173D01*
X9147403Y9211310D01*
X9144101Y9210954D01*
X9139936Y9211157D01*
X9134906Y9211818D01*
X9129064Y9212986D01*
X9115094Y9216694D01*
X9098330Y9222232D01*
X9079026Y9229344D01*
X9057487Y9238030D01*
X9033916Y9248140D01*
X9008618Y9259468D01*
X8981897Y9272016D01*
X8953957Y9285579D01*
X8925153Y9300057D01*
X8903106Y9311436D01*
X8858453Y9335363D01*
X8828582Y9351975D01*
X8799017Y9369044D01*
X8728557Y9410242D01*
X8648531Y9410242D01*
X8672931Y9399727D01*
X8703970Y9385198D01*
X8727592Y9373057D01*
X8738870Y9366961D01*
X8749639Y9360814D01*
X8788146Y9337497D01*
X8831021Y9312808D01*
X8860739Y9296247D01*
X8889796Y9280448D01*
X8971178Y9236760D01*
X8651240Y9243009D01*
X8548573Y9225584D01*
X8432901Y9276029D01*
X8400643Y9312097D01*
X8392363Y9322511D01*
X8388756Y9327642D01*
X8382660Y9337598D01*
X8380120Y9342526D01*
X8377936Y9347403D01*
X8374634Y9357055D01*
X8373516Y9361830D01*
X8372703Y9366656D01*
X8372246Y9371431D01*
X8372144Y9376308D01*
X8331698Y9376308D01*
X8333943Y9369806D01*
X8335975Y9362338D01*
X8336584Y9355632D01*
X8335822Y9349740D01*
X8333740Y9344812D01*
X8330387Y9340850D01*
X8325866Y9337903D01*
X8320074Y9336125D01*
X8308644Y9335008D01*
X8303666Y9333687D01*
X8298332Y9331553D01*
X8292896Y9328810D01*
X8287461Y9325559D01*
X8282228Y9321952D01*
X8277352Y9318040D01*
X8272983Y9314027D01*
X8269274Y9309963D01*
X8266430Y9306001D01*
X8264652Y9302292D01*
X8263991Y9298940D01*
X8263991Y9290761D01*
X8344966Y9301886D01*
X8466226Y9220809D01*
X8465972Y9217660D01*
X8461857Y9196273D01*
X8446058Y9124645D01*
X8443112Y9110014D01*
X8438320Y9082938D01*
X8487105Y9082938D01*
X8493252Y9148216D01*
X8495842Y9168790D01*
X8498636Y9185605D01*
X8500008Y9191955D01*
X8501278Y9196578D01*
X8502446Y9199270D01*
X8507730Y9207144D01*
X8543950Y9189364D01*
X8528812Y9168180D01*
X8521903Y9157411D01*
X8514232Y9143796D01*
X8506764Y9129064D01*
X8503361Y9121851D01*
X8487105Y9082938D01*
X8438320Y9082938D01*
X8434374Y9057132D01*
X8430920Y9029141D01*
X8429752Y9016695D01*
X8429040Y9005671D01*
X8427479Y8950502D01*
X8515299Y8950502D01*
X8515654Y8953601D01*
X8517331Y8956700D01*
X8520328Y8959545D01*
X8524494Y8962085D01*
X8529777Y8964218D01*
X8536127Y8965895D01*
X8543391Y8966962D01*
X8551570Y8967368D01*
X8574836Y8967368D01*
X8565754Y8958173D01*
X8581542Y8958173D01*
X8594648Y8953550D01*
X8600186Y8950756D01*
X8605418Y8946692D01*
X8609888Y8941816D01*
X8612886Y8936736D01*
X8614765Y8930944D01*
X8614816Y8927084D01*
X8613394Y8925153D01*
X8610701Y8925001D01*
X8607044Y8926626D01*
X8602726Y8929928D01*
X8597900Y8934856D01*
X8592972Y8941358D01*
X8581542Y8958173D01*
X8565754Y8958173D01*
X8558479Y8950807D01*
X8551113Y8944762D01*
X8543086Y8940495D01*
X8535416Y8938412D01*
X8529066Y8938869D01*
X8523173Y8941460D01*
X8519007Y8944305D01*
X8516366Y8947353D01*
X8515299Y8950502D01*
X8427479Y8950502D01*
X8427313Y8944356D01*
X8437727Y8932316D01*
X8440064Y8929268D01*
X8445347Y8920429D01*
X8451037Y8909050D01*
X8456371Y8896553D01*
X8469223Y8860231D01*
X8449157Y8811717D01*
X8445398Y8801404D01*
X8441639Y8790178D01*
X8438032Y8778392D01*
X8434730Y8766403D01*
X8431733Y8754567D01*
X8429193Y8743289D01*
X8427212Y8732875D01*
X8424926Y8718956D01*
X8422894Y8709863D01*
X8420506Y8701176D01*
X8417864Y8693048D01*
X8415070Y8685733D01*
X8412124Y8679484D01*
X8409178Y8674506D01*
X8406231Y8671052D01*
X8396058Y8661704D01*
X8459927Y8661704D01*
X8460181Y8706815D01*
X8461248Y8719769D01*
X8463178Y8734094D01*
X8465820Y8748928D01*
X8469071Y8763558D01*
X8472779Y8777122D01*
X8476792Y8789416D01*
X8480907Y8802928D01*
X8484971Y8817457D01*
X8488781Y8832189D01*
X8492134Y8846312D01*
X8494776Y8859012D01*
X8502243Y8903157D01*
X8555177Y8899601D01*
X8568131Y8898280D01*
X8580678Y8896502D01*
X8592159Y8894470D01*
X8602014Y8892235D01*
X8609584Y8889898D01*
X8618423Y8886037D01*
X8624112Y8884158D01*
X8629345Y8882989D01*
X8634120Y8882532D01*
X8638387Y8882786D01*
X8642197Y8883700D01*
X8645499Y8885224D01*
X8648293Y8887307D01*
X8650528Y8890000D01*
X8652256Y8893251D01*
X8653424Y8896959D01*
X8654034Y8901176D01*
X8654084Y8905849D01*
X8653526Y8910929D01*
X8652357Y8916365D01*
X8650579Y8922207D01*
X8648192Y8928354D01*
X8645144Y8934805D01*
X8641486Y8941511D01*
X8637117Y8948420D01*
X8618423Y8976614D01*
X8532672Y9010294D01*
X8538311Y9023807D01*
X8539429Y9027363D01*
X8540496Y9032341D01*
X8541461Y9038488D01*
X8542985Y9053474D01*
X8543798Y9070492D01*
X8543950Y9121089D01*
X8591753Y9149791D01*
X8633510Y9131554D01*
X8647734Y9125661D01*
X8652916Y9123883D01*
X8656929Y9122918D01*
X8659977Y9122714D01*
X8662162Y9123375D01*
X8663635Y9124848D01*
X8664549Y9127134D01*
X8665006Y9130284D01*
X8665210Y9134297D01*
X8665210Y9157004D01*
X8624519Y9172702D01*
X8618118Y9175394D01*
X8612581Y9178036D01*
X8607856Y9180576D01*
X8603996Y9183014D01*
X8600846Y9185351D01*
X8598509Y9187637D01*
X8596934Y9189770D01*
X8596071Y9191904D01*
X8595918Y9193885D01*
X8596477Y9195816D01*
X8597696Y9197594D01*
X8599576Y9199372D01*
X8602116Y9200997D01*
X8605215Y9202572D01*
X8608974Y9204045D01*
X8618169Y9206687D01*
X8629497Y9209024D01*
X8642908Y9210954D01*
X8658148Y9212580D01*
X8675116Y9213850D01*
X8693658Y9214713D01*
X8713622Y9215272D01*
X8740292Y9215424D01*
X8762898Y9215120D01*
X8786368Y9214510D01*
X8810650Y9213494D01*
X8841841Y9211767D01*
X8867343Y9209938D01*
X8899550Y9207144D01*
X8931859Y9203791D01*
X8957665Y9200743D01*
X8983218Y9197289D01*
X9020708Y9191447D01*
X9044940Y9187078D01*
X9068409Y9182354D01*
X9090964Y9177223D01*
X9170568Y9156547D01*
X9195511Y9209176D01*
X9220200Y9262719D01*
X9235643Y9296958D01*
X9248343Y9281210D01*
X9250172Y9278569D01*
X9252153Y9274911D01*
X9256369Y9265056D01*
X9260738Y9252407D01*
X9265107Y9237776D01*
X9269222Y9221774D01*
X9272778Y9205264D01*
X9284512Y9145016D01*
X9267444Y9037370D01*
X9264345Y9020454D01*
X9261398Y9007703D01*
X9259874Y9002776D01*
X9258249Y8998712D01*
X9256522Y8995460D01*
X9254642Y8992971D01*
X9252508Y8991193D01*
X9250222Y8990025D01*
X9247581Y8989415D01*
X9244685Y8989364D01*
X9241434Y8989720D01*
X9233712Y8991650D01*
X9195663Y9003741D01*
X9173311Y8994394D01*
X9168688Y8992057D01*
X9164167Y8989009D01*
X9159798Y8985351D01*
X9155734Y8981236D01*
X9152128Y8976817D01*
X9149029Y8972143D01*
X9146540Y8967419D01*
X9144863Y8962745D01*
X9138878Y8940850D01*
X9176105Y8940850D01*
X9181642Y8954109D01*
X9184386Y8959646D01*
X9187383Y8963558D01*
X9190939Y8965844D01*
X9195308Y8966454D01*
X9200743Y8965438D01*
X9207500Y8962745D01*
X9215831Y8958376D01*
X9355734Y8872677D01*
X9355734Y8830360D01*
X9368739Y8830360D01*
X9373006Y8830716D01*
X9376714Y8831783D01*
X9379813Y8833510D01*
X9382404Y8835898D01*
X9384385Y8838996D01*
X9385757Y8842806D01*
X9386570Y8847226D01*
X9386824Y8852357D01*
X9386519Y8858148D01*
X9385604Y8864600D01*
X9384080Y8871712D01*
X9382048Y8879484D01*
X9373920Y8907221D01*
X9318091Y8933688D01*
X9339376Y8970111D01*
X9332671Y9030665D01*
X9331604Y9045194D01*
X9331096Y9059011D01*
X9331198Y9071356D01*
X9331807Y9081668D01*
X9333026Y9089237D01*
X9333839Y9091777D01*
X9340189Y9106966D01*
X9374428Y9068206D01*
X9374682Y9024874D01*
X9375444Y9010396D01*
X9376105Y9003842D01*
X9377984Y8992057D01*
X9379204Y8986774D01*
X9380626Y8981998D01*
X9382201Y8977630D01*
X9383979Y8973667D01*
X9385960Y8970162D01*
X9388144Y8967114D01*
X9390532Y8964523D01*
X9393123Y8962339D01*
X9395866Y8960561D01*
X9398863Y8959240D01*
X9402013Y8958376D01*
X9405416Y8957919D01*
X9409023Y8957868D01*
X9412833Y8958275D01*
X9416846Y8959138D01*
X9421063Y8960408D01*
X9425533Y8962085D01*
X9430207Y8964218D01*
X9440164Y8969756D01*
X9451035Y8977020D01*
X9462820Y8985961D01*
X9490303Y9009278D01*
X9504375Y9020708D01*
X9517075Y9030360D01*
X9527692Y9037878D01*
X9535668Y9042704D01*
X9538462Y9043974D01*
X9540341Y9044432D01*
X9546336Y9043974D01*
X9548723Y9043365D01*
X9550654Y9042552D01*
X9552127Y9041434D01*
X9553194Y9040063D01*
X9553803Y9038437D01*
X9554006Y9036507D01*
X9553702Y9034272D01*
X9552940Y9031732D01*
X9551720Y9028887D01*
X9547910Y9022181D01*
X9542119Y9014155D01*
X9534347Y9004604D01*
X9524593Y8993581D01*
X9512757Y8980932D01*
X9498838Y8966657D01*
X9421063Y8888882D01*
X9421063Y8868511D01*
X9421418Y8862771D01*
X9422384Y8856624D01*
X9422946Y8854338D01*
X9458502Y8854338D01*
X9458553Y8857843D01*
X9459315Y8861907D01*
X9460788Y8866428D01*
X9462922Y8871356D01*
X9465665Y8876588D01*
X9469120Y8882075D01*
X9473133Y8887714D01*
X9477756Y8893454D01*
X9482480Y8898636D01*
X9487103Y8903157D01*
X9491726Y8907018D01*
X9496196Y8910167D01*
X9500565Y8912656D01*
X9504781Y8914434D01*
X9508896Y8915501D01*
X9512858Y8915857D01*
X9516668Y8915501D01*
X9520326Y8914434D01*
X9523730Y8912656D01*
X9526981Y8910116D01*
X9527540Y8908389D01*
X9526828Y8905646D01*
X9524949Y8902039D01*
X9522104Y8897721D01*
X9518396Y8892844D01*
X9509099Y8882075D01*
X9498228Y8870950D01*
X9492640Y8865666D01*
X9487103Y8860790D01*
X9481769Y8856421D01*
X9476841Y8852763D01*
X9472472Y8849918D01*
X9468764Y8848140D01*
X9465919Y8847480D01*
X9462871Y8847988D01*
X9460636Y8849309D01*
X9459214Y8851442D01*
X9458502Y8854338D01*
X9422946Y8854338D01*
X9423958Y8850223D01*
X9426041Y8843619D01*
X9428632Y8836863D01*
X9431629Y8830157D01*
X9435033Y8823452D01*
X9438792Y8816898D01*
X9442514Y8811056D01*
X9488474Y8811056D01*
X9490151Y8816543D01*
X9494215Y8823198D01*
X9500311Y8830310D01*
X9506813Y8836406D01*
X9512858Y8841181D01*
X9518396Y8844584D01*
X9523272Y8846667D01*
X9527336Y8847328D01*
X9530435Y8846515D01*
X9532366Y8844178D01*
X9533026Y8840266D01*
X9532315Y8837117D01*
X9530283Y8833459D01*
X9527184Y8829497D01*
X9523272Y8825331D01*
X9518751Y8821216D01*
X9513824Y8817305D01*
X9508794Y8813749D01*
X9503816Y8810752D01*
X9499193Y8808415D01*
X9495078Y8806992D01*
X9491776Y8806688D01*
X9489490Y8807551D01*
X9488474Y8811056D01*
X9442514Y8811056D01*
X9447072Y8804605D01*
X9451492Y8798966D01*
X9456064Y8793835D01*
X9460687Y8789263D01*
X9465360Y8785352D01*
X9469983Y8782202D01*
X9474555Y8779814D01*
X9495332Y8770975D01*
X9484410Y8744762D01*
X9460839Y8744762D01*
X9455454Y8745118D01*
X9449155Y8746185D01*
X9442196Y8747861D01*
X9434779Y8750096D01*
X9427210Y8752789D01*
X9419590Y8755837D01*
X9412224Y8759240D01*
X9400540Y8765387D01*
X9389110Y8770366D01*
X9375698Y8775090D01*
X9361170Y8779306D01*
X9346234Y8782862D01*
X9338868Y8784336D01*
X9324898Y8786418D01*
X9276435Y8791854D01*
X9239910Y8861348D01*
X9232798Y8874099D01*
X9225584Y8886240D01*
X9218422Y8897569D01*
X9211614Y8907678D01*
X9205366Y8916314D01*
X9199778Y8923121D01*
X9195104Y8927896D01*
X9193225Y8929370D01*
X9176105Y8940850D01*
X9138878Y8940850D01*
X9138767Y8940444D01*
X9170873Y8909304D01*
X9179102Y8900363D01*
X9187434Y8890508D01*
X9195409Y8880297D01*
X9202623Y8870289D01*
X9208668Y8860993D01*
X9227210Y8827516D01*
X9217812Y8751366D01*
X9195816Y8726170D01*
X9190736Y8719413D01*
X9184792Y8710828D01*
X9178290Y8700719D01*
X9164320Y8677554D01*
X9150502Y8652510D01*
X9116314Y8586368D01*
X9065463Y8540902D01*
X9055354Y8532418D01*
X9045041Y8524240D01*
X9034526Y8516518D01*
X9023858Y8509101D01*
X9013037Y8502142D01*
X9002166Y8495588D01*
X8991244Y8489442D01*
X8980271Y8483752D01*
X8969349Y8478570D01*
X8958427Y8473846D01*
X8947556Y8469630D01*
X8936837Y8465921D01*
X8926220Y8462721D01*
X8915755Y8460130D01*
X8905494Y8458047D01*
X8863533Y8451850D01*
X8857335Y8460994D01*
X8856167Y8463737D01*
X8856014Y8466785D01*
X8856776Y8470087D01*
X8858351Y8473592D01*
X8860688Y8477199D01*
X8863685Y8480856D01*
X8867241Y8484514D01*
X8871305Y8488070D01*
X8875776Y8491474D01*
X8880602Y8494674D01*
X8885631Y8497570D01*
X8890812Y8500059D01*
X8896045Y8502142D01*
X8901277Y8503716D01*
X8906408Y8504682D01*
X8911336Y8505037D01*
X8933484Y8505037D01*
X8973820Y8545372D01*
X8982151Y8554059D01*
X9000083Y8573820D01*
X9017965Y8594648D01*
X9033560Y8614054D01*
X9041079Y8623909D01*
X9050020Y8634780D01*
X9059011Y8644890D01*
X9067698Y8653780D01*
X9075521Y8660942D01*
X9078976Y8663787D01*
X9082074Y8665972D01*
X9084716Y8667496D01*
X9102242Y8676132D01*
X9095536Y8699195D01*
X9091777Y8710015D01*
X9089796Y8714282D01*
X9087713Y8717737D01*
X9085478Y8720378D01*
X9083141Y8722207D01*
X9080652Y8723223D01*
X9077960Y8723477D01*
X9075115Y8722918D01*
X9072016Y8721547D01*
X9068714Y8719362D01*
X9065158Y8716365D01*
X9061297Y8712606D01*
X9057182Y8707983D01*
X9052763Y8702598D01*
X9044889Y8692286D01*
X9037523Y8683345D01*
X9028836Y8673541D01*
X9019133Y8663127D01*
X8997746Y8641486D01*
X8986672Y8630767D01*
X8964980Y8610904D01*
X8954973Y8602268D01*
X8945930Y8594801D01*
X8938056Y8588857D01*
X8931706Y8584641D01*
X8929166Y8583269D01*
X8927084Y8582406D01*
X8925509Y8582101D01*
X8917736Y8581542D01*
X8910015Y8579916D01*
X8906154Y8578697D01*
X8898534Y8575497D01*
X8894724Y8573566D01*
X8887256Y8568944D01*
X8879890Y8563406D01*
X8872728Y8557056D01*
X8865717Y8549843D01*
X8858910Y8541918D01*
X8852306Y8533282D01*
X8845956Y8523935D01*
X8839860Y8513978D01*
X8834069Y8503462D01*
X8828532Y8492388D01*
X8823401Y8480856D01*
X8818575Y8468868D01*
X8814104Y8456472D01*
X8810040Y8443772D01*
X8806434Y8430717D01*
X8803233Y8417458D01*
X8800490Y8403945D01*
X8798204Y8390331D01*
X8796426Y8376564D01*
X8795207Y8362696D01*
X8794496Y8348827D01*
X8794394Y8335009D01*
X8794851Y8321243D01*
X8795918Y8307578D01*
X8803487Y8233460D01*
X8827312Y8190534D01*
X8834424Y8179053D01*
X8842552Y8167065D01*
X8851138Y8155178D01*
X8859774Y8144052D01*
X8867952Y8134350D01*
X8876639Y8124901D01*
X8881008Y8119770D01*
X8888222Y8109966D01*
X8893505Y8100872D01*
X8895384Y8096605D01*
X8896858Y8092541D01*
X8897823Y8088680D01*
X8898382Y8085074D01*
X8898432Y8081670D01*
X8898077Y8078520D01*
X8897264Y8075574D01*
X8895994Y8072932D01*
X8894267Y8070545D01*
X8892133Y8068411D01*
X8889593Y8066531D01*
X8886596Y8065008D01*
X8883243Y8063738D01*
X8879433Y8062772D01*
X8875217Y8062112D01*
X8870594Y8061807D01*
X8865616Y8061807D01*
X8860231Y8062163D01*
X8848293Y8063890D01*
X8841740Y8065312D01*
X8800541Y8076692D01*
X8649411Y8196834D01*
X8629142Y8241030D01*
X8606332Y8293455D01*
X8571941Y8375243D01*
X8571687Y8453983D01*
X8571026Y8484362D01*
X8569553Y8515096D01*
X8567420Y8545474D01*
X8564676Y8574684D01*
X8561527Y8602014D01*
X8557971Y8626652D01*
X8554110Y8647836D01*
X8552078Y8656878D01*
X8550046Y8664752D01*
X8547963Y8671356D01*
X8544864Y8678773D01*
X8542782Y8681821D01*
X8531352Y8694470D01*
X8523986Y8682431D01*
X8522716Y8679332D01*
X8521903Y8675217D01*
X8521547Y8670188D01*
X8521649Y8664448D01*
X8522208Y8658148D01*
X8523173Y8651544D01*
X8524544Y8644788D01*
X8526373Y8638082D01*
X8536076Y8605723D01*
X8517585Y8588756D01*
X8459927Y8661704D01*
X8396058Y8661704D01*
X8392464Y8658402D01*
X8370925Y8671102D01*
X8367318Y8674201D01*
X8363203Y8678519D01*
X8358631Y8684056D01*
X8353602Y8690660D01*
X8342426Y8706815D01*
X8330082Y8726424D01*
X8316772Y8748877D01*
X8302904Y8773515D01*
X8288832Y8799728D01*
X8271357Y8833815D01*
X8254644Y8868257D01*
X8242249Y8895232D01*
X8231124Y8921038D01*
X8221522Y8945067D01*
X8217408Y8956192D01*
X8213801Y8966657D01*
X8187944Y9048699D01*
X8177530Y9211665D01*
X8148874Y9211665D01*
X8140801Y9141155D01*
X8152434Y9072575D01*
X8157006Y9050477D01*
X8162899Y9026906D01*
X8169909Y9002217D01*
X8173821Y8989517D01*
X8180171Y8970060D01*
X8189417Y8943695D01*
X8199424Y8917025D01*
X8210143Y8890304D01*
X8221421Y8863787D01*
X8233105Y8837726D01*
X8245144Y8812377D01*
X8257387Y8787993D01*
X8269731Y8764879D01*
X8282076Y8743238D01*
X8294268Y8723376D01*
X8306155Y8705545D01*
X8311997Y8697468D01*
X8317738Y8690000D01*
X8323325Y8683142D01*
X8328761Y8676944D01*
X8334095Y8671458D01*
X8362188Y8643924D01*
X8404098Y8632494D01*
X8410041Y8630615D01*
X8416340Y8628278D01*
X8422843Y8625535D01*
X8436356Y8618829D01*
X8443264Y8615070D01*
X8456828Y8606739D01*
X8469833Y8597849D01*
X8481618Y8588756D01*
X8486952Y8584285D01*
X8491778Y8579866D01*
X8495995Y8575598D01*
X8499652Y8571534D01*
X8502599Y8567674D01*
X8504783Y8564118D01*
X8506155Y8560917D01*
X8506612Y8558123D01*
X8506155Y8556599D01*
X8502853Y8550910D01*
X8496655Y8542172D01*
X8488019Y8530996D01*
X8477453Y8517940D01*
X8465413Y8503615D01*
X8444484Y8479282D01*
X8427008Y8457590D01*
X8419541Y8447786D01*
X8412079Y8437422D01*
X8453272Y8437422D01*
X8454034Y8440674D01*
X8455812Y8444484D01*
X8458606Y8448852D01*
X8462518Y8453932D01*
X8467445Y8459724D01*
X8480552Y8473897D01*
X8506815Y8501227D01*
X8515756Y8510016D01*
X8519414Y8513267D01*
X8522563Y8515756D01*
X8525256Y8517534D01*
X8527491Y8518499D01*
X8529320Y8518652D01*
X8530844Y8518093D01*
X8532012Y8516721D01*
X8532926Y8514588D01*
X8533536Y8511641D01*
X8534298Y8503412D01*
X8534501Y8491931D01*
X8534247Y8467953D01*
X8533739Y8458860D01*
X8532977Y8450122D01*
X8531961Y8442045D01*
X8530742Y8434832D01*
X8529370Y8428685D01*
X8527846Y8423859D01*
X8526221Y8420557D01*
X8518144Y8408873D01*
X8476945Y8421370D01*
X8465108Y8425535D01*
X8460689Y8427567D01*
X8457285Y8429701D01*
X8454948Y8431987D01*
X8453577Y8434527D01*
X8453272Y8437422D01*
X8412079Y8437422D01*
X8408314Y8431834D01*
X8404961Y8426246D01*
X8396630Y8406587D01*
X8433612Y8369604D01*
X8424214Y8289188D01*
X8422386Y8276640D01*
X8420404Y8265464D01*
X8418068Y8255508D01*
X8415274Y8246618D01*
X8413699Y8242452D01*
X8409990Y8234730D01*
X8407908Y8231073D01*
X8403031Y8224113D01*
X8397189Y8217458D01*
X8390229Y8210854D01*
X8382101Y8204250D01*
X8372602Y8197342D01*
X8361680Y8190026D01*
X8334806Y8173262D01*
X8248751Y8121294D01*
X8235492Y8080095D01*
X8233409Y8072272D01*
X8231530Y8064195D01*
X8228533Y8048193D01*
X8227517Y8040776D01*
X8226907Y8034020D01*
X8226653Y8028228D01*
X8226653Y8002930D01*
X8229430Y8000542D01*
X8263991Y8000542D01*
X8263991Y8075066D01*
X8280298Y8093506D01*
X8284311Y8097621D01*
X8289340Y8102142D01*
X8301786Y8112099D01*
X8316112Y8122056D01*
X8323427Y8126679D01*
X8371840Y8154720D01*
X8396274Y8169402D01*
X8438743Y8195564D01*
X8451443Y8242452D01*
X8453475Y8251088D01*
X8456828Y8268309D01*
X8459114Y8283956D01*
X8459724Y8290509D01*
X8460181Y8301228D01*
X8460740Y8307374D01*
X8462975Y8321497D01*
X8466277Y8336534D01*
X8468207Y8343798D01*
X8480602Y8382253D01*
X8544610Y8355634D01*
X8550148Y8335416D01*
X8551062Y8330692D01*
X8551468Y8325002D01*
X8551468Y8318550D01*
X8550960Y8311591D01*
X8550097Y8304326D01*
X8548827Y8296960D01*
X8547150Y8289747D01*
X8544052Y8279231D01*
X8542020Y8270443D01*
X8540140Y8259876D01*
X8538464Y8247989D01*
X8536990Y8235137D01*
X8535873Y8221675D01*
X8535060Y8208009D01*
X8534654Y8194548D01*
X8534603Y8125561D01*
X8511235Y8088985D01*
X8506155Y8081568D01*
X8500719Y8074406D01*
X8495080Y8067700D01*
X8489442Y8061604D01*
X8483231Y8055864D01*
X8571941Y8055864D01*
X8572093Y8059166D01*
X8572703Y8061959D01*
X8573922Y8064246D01*
X8575802Y8066125D01*
X8578646Y8067598D01*
X8582456Y8068665D01*
X8587435Y8069376D01*
X8593734Y8069783D01*
X8601456Y8069935D01*
X8621928Y8069376D01*
X8674557Y8066887D01*
X8674557Y8094116D01*
X8650681Y8094268D01*
X8645194Y8094675D01*
X8639911Y8095386D01*
X8634780Y8096351D01*
X8629853Y8097621D01*
X8625078Y8099145D01*
X8620556Y8100974D01*
X8616137Y8103057D01*
X8611971Y8105394D01*
X8608009Y8107984D01*
X8604199Y8110829D01*
X8600592Y8113979D01*
X8597239Y8117331D01*
X8594039Y8120989D01*
X8591042Y8124850D01*
X8588248Y8128965D01*
X8585708Y8133334D01*
X8583320Y8137956D01*
X8581186Y8142782D01*
X8579256Y8147862D01*
X8576106Y8158734D01*
X8574836Y8164474D01*
X8573770Y8170519D01*
X8572957Y8176717D01*
X8572042Y8189823D01*
X8572042Y8204758D01*
X8572347Y8211769D01*
X8572906Y8217763D01*
X8573719Y8222691D01*
X8574786Y8226602D01*
X8576157Y8229549D01*
X8577834Y8231428D01*
X8579815Y8232292D01*
X8582152Y8232140D01*
X8584793Y8231022D01*
X8587790Y8228838D01*
X8591194Y8225688D01*
X8595004Y8221472D01*
X8599220Y8216341D01*
X8616492Y8192465D01*
X8624671Y8182051D01*
X8633307Y8171840D01*
X8642451Y8161781D01*
X8652002Y8151875D01*
X8661958Y8142224D01*
X8672220Y8132825D01*
X8682786Y8123681D01*
X8693658Y8114842D01*
X8704681Y8106257D01*
X8715908Y8098028D01*
X8727287Y8090153D01*
X8738768Y8082635D01*
X8750249Y8075523D01*
X8761780Y8068868D01*
X8773261Y8062569D01*
X8784691Y8056778D01*
X8795969Y8051444D01*
X8807094Y8046669D01*
X8818067Y8042351D01*
X8828786Y8038592D01*
X8839200Y8035442D01*
X8849258Y8032851D01*
X8859012Y8030870D01*
X8868359Y8029549D01*
X8877249Y8028838D01*
X8885631Y8028838D01*
X8893454Y8029549D01*
X8900769Y8030972D01*
X8904173Y8031937D01*
X8910523Y8034528D01*
X8913469Y8036052D01*
X8918752Y8039760D01*
X8935821Y8053933D01*
X8935821Y8109610D01*
X8897975Y8151266D01*
X8888526Y8162340D01*
X8879179Y8173872D01*
X8870442Y8185251D01*
X8862771Y8195868D01*
X8856624Y8205063D01*
X8839149Y8235340D01*
X8834323Y8325307D01*
X8833764Y8355177D01*
X8834272Y8381238D01*
X8834932Y8391855D01*
X8835796Y8400288D01*
X8836914Y8406180D01*
X8842908Y8427974D01*
X8873896Y8427974D01*
X8883751Y8428431D01*
X8895791Y8429752D01*
X8909253Y8431733D01*
X8923375Y8434324D01*
X8937447Y8437372D01*
X8963456Y8444128D01*
X8976106Y8447176D01*
X8988094Y8449767D01*
X8998762Y8451799D01*
X9007551Y8453120D01*
X9013748Y8453577D01*
X9031020Y8453678D01*
X9007144Y8416391D01*
X9003385Y8409990D01*
X8997442Y8398459D01*
X8995156Y8393379D01*
X8992006Y8384590D01*
X8990634Y8377681D01*
X8990533Y8374888D01*
X8990838Y8372602D01*
X8991549Y8370824D01*
X8992565Y8369503D01*
X8993936Y8368690D01*
X8995664Y8368385D01*
X8997696Y8368588D01*
X9000032Y8369300D01*
X9002623Y8370519D01*
X9005519Y8372297D01*
X9012072Y8377377D01*
X9015679Y8380730D01*
X9023502Y8389112D01*
X9032036Y8399678D01*
X9041231Y8412480D01*
X9071152Y8456930D01*
X9088424Y8375954D01*
X9103106Y8378952D01*
X9108592Y8381034D01*
X9112605Y8384489D01*
X9114840Y8388908D01*
X9114891Y8393734D01*
X9114129Y8398764D01*
X9113418Y8406993D01*
X9112351Y8430412D01*
X9111945Y8458962D01*
X9111945Y8512403D01*
X9131300Y8546388D01*
X9135414Y8552637D01*
X9139174Y8557463D01*
X9142679Y8560866D01*
X9146032Y8562797D01*
X9149283Y8563254D01*
X9152585Y8562238D01*
X9155938Y8559749D01*
X9159494Y8555837D01*
X9163253Y8550402D01*
X9167368Y8543442D01*
X9175597Y8528202D01*
X9179052Y8522208D01*
X9185452Y8512606D01*
X9188348Y8508949D01*
X9190990Y8506104D01*
X9193479Y8503970D01*
X9195663Y8502548D01*
X9197644Y8501888D01*
X9199372Y8501888D01*
X9200794Y8502650D01*
X9202013Y8504021D01*
X9202928Y8506104D01*
X9203537Y8508796D01*
X9203893Y8512149D01*
X9203944Y8516112D01*
X9203080Y8525814D01*
X9200896Y8537854D01*
X9197340Y8552129D01*
X9186976Y8585657D01*
X9182963Y8600592D01*
X9180322Y8613241D01*
X9179102Y8623604D01*
X9178950Y8627922D01*
X9179204Y8631631D01*
X9179763Y8634831D01*
X9180677Y8637422D01*
X9181947Y8639454D01*
X9183573Y8640876D01*
X9185503Y8641740D01*
X9187789Y8642045D01*
X9191396Y8641181D01*
X9194393Y8638844D01*
X9196374Y8635390D01*
X9197136Y8631123D01*
X9197390Y8628278D01*
X9198029Y8626043D01*
X9229801Y8626043D01*
X9230563Y8666988D01*
X9231782Y8678367D01*
X9233966Y8690559D01*
X9236862Y8702954D01*
X9240418Y8714892D01*
X9244380Y8725662D01*
X9262059Y8763203D01*
X9359036Y8753602D01*
X9401860Y8727744D01*
X9416135Y8720023D01*
X9422688Y8716822D01*
X9433661Y8712200D01*
X9437725Y8710980D01*
X9440570Y8710523D01*
X9451136Y8710523D01*
X9443618Y8673846D01*
X9440672Y8663787D01*
X9436862Y8653119D01*
X9432391Y8642400D01*
X9427514Y8632190D01*
X9422434Y8623046D01*
X9401657Y8591804D01*
X9353956Y8575192D01*
X9347352Y8573109D01*
X9335160Y8570010D01*
X9329572Y8568994D01*
X9324187Y8568283D01*
X9319107Y8567978D01*
X9314129Y8568029D01*
X9309354Y8568436D01*
X9304731Y8569248D01*
X9300159Y8570417D01*
X9295587Y8571992D01*
X9291116Y8573973D01*
X9286595Y8576411D01*
X9282023Y8579205D01*
X9277350Y8582456D01*
X9267596Y8590280D01*
X9257080Y8599881D01*
X9229801Y8626043D01*
X9198029Y8626043D01*
X9199676Y8621674D01*
X9201607Y8618016D01*
X9203994Y8614105D01*
X9210090Y8605824D01*
X9217710Y8597036D01*
X9226600Y8587994D01*
X9236506Y8578951D01*
X9247225Y8570061D01*
X9258401Y8561628D01*
X9269831Y8553856D01*
X9281312Y8546998D01*
X9292488Y8541258D01*
X9341764Y8520988D01*
X9412122Y8526932D01*
X9403638Y8508187D01*
X9398914Y8496757D01*
X9394596Y8485073D01*
X9390684Y8473236D01*
X9387230Y8461248D01*
X9384131Y8449157D01*
X9381490Y8436965D01*
X9379305Y8424722D01*
X9377527Y8412429D01*
X9376156Y8400135D01*
X9375241Y8387842D01*
X9374733Y8375599D01*
X9374682Y8363458D01*
X9375038Y8351418D01*
X9375851Y8339480D01*
X9377121Y8327694D01*
X9378848Y8316112D01*
X9380982Y8304733D01*
X9383572Y8293608D01*
X9386620Y8282736D01*
X9390176Y8271408D01*
X9393732Y8258657D01*
X9396831Y8245398D01*
X9399320Y8232241D01*
X9401149Y8220049D01*
X9402165Y8209381D01*
X9402419Y8174380D01*
X9256369Y8094065D01*
X9225940Y8077860D01*
X9197898Y8063433D01*
X9171940Y8050631D01*
X9147657Y8039303D01*
X9124797Y8029346D01*
X9103004Y8020659D01*
X9082024Y8013090D01*
X9061450Y8006486D01*
X9041028Y8000746D01*
X9030766Y7998155D01*
X9015171Y7994548D01*
X9004604Y7992364D01*
X8952581Y7982508D01*
X9128150Y7982508D01*
X9128404Y7984032D01*
X9129064Y7985709D01*
X9130233Y7987487D01*
X9131808Y7989366D01*
X9136532Y7993583D01*
X9143238Y7998409D01*
X9152077Y8003997D01*
X9163202Y8010448D01*
X9192717Y8026247D01*
X9309608Y8085734D01*
X9323019Y8092287D01*
X9334398Y8097520D01*
X9343999Y8101482D01*
X9351975Y8104174D01*
X9358528Y8105597D01*
X9361322Y8105800D01*
X9363862Y8105698D01*
X9366148Y8105292D01*
X9368180Y8104581D01*
X9370009Y8103514D01*
X9371634Y8102142D01*
X9373108Y8100466D01*
X9374479Y8098485D01*
X9376867Y8093557D01*
X9379000Y8087359D01*
X9389414Y8047939D01*
X9393123Y8031988D01*
X9396222Y8016341D01*
X9398660Y8001050D01*
X9400387Y7986268D01*
X9401505Y7972145D01*
X9401911Y7958734D01*
X9401657Y7946186D01*
X9400692Y7934655D01*
X9399066Y7924241D01*
X9398000Y7919466D01*
X9395307Y7910982D01*
X9393732Y7907223D01*
X9381540Y7885938D01*
X9423958Y7856575D01*
X9418370Y7843113D01*
X9416389Y7840218D01*
X9412986Y7837119D01*
X9408312Y7833969D01*
X9402572Y7830769D01*
X9395968Y7827721D01*
X9388602Y7824825D01*
X9380778Y7822234D01*
X9330893Y7809890D01*
X9291116Y7799628D01*
X9276943Y7795514D01*
X9266072Y7791907D01*
X9257995Y7788656D01*
X9252305Y7785608D01*
X9250222Y7784134D01*
X9247225Y7781137D01*
X9245549Y7777988D01*
X9241282Y7766202D01*
X9286697Y7774228D01*
X9297060Y7775702D01*
X9322054Y7778242D01*
X9349943Y7780121D01*
X9377375Y7781137D01*
X9444380Y7781594D01*
X9444380Y7755940D01*
X9295079Y7733385D01*
X9169247Y7671053D01*
X9151975Y7687462D01*
X9162288Y7802118D01*
X9199067Y7807299D01*
X9159494Y7860030D01*
X9150400Y7873288D01*
X9143390Y7884972D01*
X9140698Y7890256D01*
X9138564Y7895183D01*
X9136888Y7899755D01*
X9135770Y7904073D01*
X9135160Y7908086D01*
X9135110Y7911795D01*
X9135516Y7915249D01*
X9136481Y7918450D01*
X9137954Y7921447D01*
X9139936Y7924241D01*
X9142425Y7926831D01*
X9145422Y7929270D01*
X9148978Y7931505D01*
X9152991Y7933639D01*
X9163964Y7938465D01*
X9169196Y7941208D01*
X9173108Y7943951D01*
X9175750Y7946593D01*
X9177070Y7949285D01*
X9177172Y7951927D01*
X9175902Y7954568D01*
X9173413Y7957261D01*
X9169603Y7959953D01*
X9164472Y7962696D01*
X9158071Y7965490D01*
X9140240Y7972094D01*
X9135059Y7974533D01*
X9131249Y7977022D01*
X9129877Y7978292D01*
X9128912Y7979613D01*
X9128302Y7981035D01*
X9128150Y7982508D01*
X8952581Y7982508D01*
X8935212Y7979257D01*
X8806129Y8001253D01*
X8745575Y8010652D01*
X8697061Y8017357D01*
X8677300Y8019745D01*
X8640368Y8023555D01*
X8630716Y8024875D01*
X8621877Y8026349D01*
X8606332Y8029702D01*
X8599728Y8031581D01*
X8593785Y8033664D01*
X8588603Y8035848D01*
X8584133Y8038236D01*
X8580374Y8040776D01*
X8577326Y8043468D01*
X8574938Y8046313D01*
X8573262Y8049310D01*
X8572246Y8052511D01*
X8571941Y8055864D01*
X8483231Y8055864D01*
X8478621Y8052104D01*
X8473897Y8048955D01*
X8467039Y8046059D01*
X8463940Y8044230D01*
X8460486Y8041741D01*
X8456726Y8038693D01*
X8448598Y8030972D01*
X8440013Y8021574D01*
X8431377Y8010906D01*
X8414308Y7986775D01*
X8406079Y7976209D01*
X8398560Y7967675D01*
X8391804Y7961274D01*
X8388705Y7958785D01*
X8385860Y7956854D01*
X8383270Y7955483D01*
X8380882Y7954568D01*
X8378698Y7954162D01*
X8376767Y7954264D01*
X8375142Y7954924D01*
X8373719Y7956042D01*
X8372551Y7957667D01*
X8371687Y7959801D01*
X8371128Y7962442D01*
X8370824Y7965592D01*
X8370773Y7969199D01*
X8371687Y7977987D01*
X8373821Y7988706D01*
X8377275Y8001406D01*
X8392210Y8047024D01*
X8376564Y8085531D01*
X8355279Y8085429D01*
X8345982Y8084769D01*
X8336483Y8083143D01*
X8327898Y8080756D01*
X8321294Y8077911D01*
X8308594Y8070494D01*
X8321751Y7982813D01*
X8310930Y7982813D01*
X8305292Y7983524D01*
X8297976Y7985404D01*
X8289899Y7988249D01*
X8282025Y7991652D01*
X8263991Y8000542D01*
X8229430Y8000542D01*
X8252815Y7980578D01*
X8263636Y7972399D01*
X8275015Y7964779D01*
X8286800Y7957870D01*
X8298942Y7951571D01*
X8311337Y7945932D01*
X8323783Y7941056D01*
X8336280Y7936890D01*
X8348725Y7933537D01*
X8360918Y7930946D01*
X8372856Y7929219D01*
X8384387Y7928305D01*
X8395411Y7928305D01*
X8405825Y7929219D01*
X8415578Y7931048D01*
X8424468Y7933893D01*
X8434222Y7938211D01*
X8446008Y7942834D01*
X8457285Y7946288D01*
X8462264Y7947456D01*
X8466632Y7948218D01*
X8474456Y7948828D01*
X8478621Y7949742D01*
X8482736Y7951216D01*
X8486749Y7953298D01*
X8490610Y7955889D01*
X8494369Y7958988D01*
X8497976Y7962646D01*
X8501481Y7966760D01*
X8504732Y7971383D01*
X8507882Y7976463D01*
X8510778Y7982000D01*
X8513521Y7987944D01*
X8516010Y7994294D01*
X8518245Y8001050D01*
X8520277Y8008162D01*
X8522055Y8015630D01*
X8529929Y8052714D01*
X8571839Y8000695D01*
X8555786Y7937398D01*
X8552078Y7924647D01*
X8547709Y7911236D01*
X8542985Y7897622D01*
X8537905Y7884261D01*
X8532723Y7871510D01*
X8527491Y7859725D01*
X8522512Y7849412D01*
X8517026Y7839100D01*
X8511235Y7827213D01*
X8506155Y7815376D01*
X8502040Y7804150D01*
X8499094Y7794193D01*
X8498078Y7789875D01*
X8497468Y7786065D01*
X8497265Y7779766D01*
X8524341Y7779766D01*
X8529929Y7815834D01*
X8558733Y7814056D01*
X8590127Y7810550D01*
X8607806Y7808163D01*
X8655913Y7800746D01*
X8655913Y7828483D01*
X8618728Y7833969D01*
X8609177Y7835595D01*
X8600440Y7837678D01*
X8592515Y7840116D01*
X8585454Y7842859D01*
X8579358Y7845907D01*
X8574227Y7849209D01*
X8570214Y7852664D01*
X8567216Y7856321D01*
X8565438Y7860080D01*
X8564829Y7863992D01*
X8565489Y7867903D01*
X8567470Y7871815D01*
X8573973Y7881467D01*
X8617458Y7871459D01*
X8631072Y7891729D01*
X8590584Y7916418D01*
X8590584Y7943596D01*
X8590838Y7949285D01*
X8591499Y7955025D01*
X8592566Y7960715D01*
X8593988Y7966100D01*
X8595715Y7971028D01*
X8597696Y7975447D01*
X8599881Y7979105D01*
X8602268Y7981899D01*
X8613902Y7992973D01*
X8696502Y7988706D01*
X8715603Y7987080D01*
X8733129Y7984998D01*
X8748166Y7982559D01*
X8754516Y7981289D01*
X8764422Y7978597D01*
X8767724Y7977225D01*
X8769858Y7975853D01*
X8780424Y7966151D01*
X8769146Y7943392D01*
X8765844Y7936280D01*
X8763558Y7930235D01*
X8762238Y7925257D01*
X8761882Y7921294D01*
X8762542Y7918450D01*
X8764117Y7916672D01*
X8766708Y7915960D01*
X8770213Y7916316D01*
X8774734Y7917789D01*
X8780170Y7920329D01*
X8786520Y7923987D01*
X8799474Y7932318D01*
X8805570Y7935975D01*
X8818524Y7942935D01*
X8831122Y7948726D01*
X8836761Y7950962D01*
X8841740Y7952638D01*
X8863939Y7959090D01*
X8857742Y7890713D01*
X8856522Y7867294D01*
X8856218Y7842097D01*
X8856370Y7829397D01*
X8857386Y7805064D01*
X8858199Y7793939D01*
X8859215Y7783830D01*
X8867140Y7725511D01*
X8820962Y7714894D01*
X8722918Y7744510D01*
X8696147Y7751978D01*
X8668410Y7758887D01*
X8641232Y7765034D01*
X8616035Y7770012D01*
X8594191Y7773568D01*
X8585047Y7774686D01*
X8524341Y7779766D01*
X8497265Y7779766D01*
X8497265Y7762189D01*
X8480094Y7758074D01*
X8477351Y7757109D01*
X8474151Y7755331D01*
X8470544Y7752892D01*
X8462162Y7746085D01*
X8452612Y7737144D01*
X8442198Y7726425D01*
X8431276Y7714386D01*
X8420201Y7701432D01*
X8409279Y7688021D01*
X8398916Y7674559D01*
X8391600Y7664500D01*
X8443417Y7664500D01*
X8443569Y7668869D01*
X8444179Y7673238D01*
X8445195Y7677607D01*
X8446719Y7681975D01*
X8448598Y7686344D01*
X8450986Y7690662D01*
X8453729Y7694930D01*
X8456930Y7699197D01*
X8460587Y7703362D01*
X8464651Y7707477D01*
X8469122Y7711541D01*
X8473998Y7715503D01*
X8479282Y7719364D01*
X8484971Y7723124D01*
X8491067Y7726730D01*
X8504529Y7733639D01*
X8523122Y7742123D01*
X8530336Y7745171D01*
X8536584Y7747457D01*
X8542121Y7748930D01*
X8547201Y7749692D01*
X8552129Y7749692D01*
X8557209Y7749031D01*
X8562695Y7747711D01*
X8568893Y7745730D01*
X8584539Y7739888D01*
X8594635Y7735417D01*
X8672880Y7735417D01*
X8713927Y7719212D01*
X8738870Y7709966D01*
X8765997Y7700416D01*
X8790838Y7692085D01*
X8802116Y7687614D01*
X8806738Y7685379D01*
X8814155Y7681010D01*
X8816898Y7678877D01*
X8818981Y7676794D01*
X8820454Y7674762D01*
X8821318Y7672781D01*
X8821572Y7670901D01*
X8821166Y7669123D01*
X8820150Y7667447D01*
X8818524Y7665821D01*
X8816289Y7664348D01*
X8813444Y7662976D01*
X8810040Y7661757D01*
X8801354Y7659725D01*
X8790330Y7658353D01*
X8776970Y7657642D01*
X8764016Y7657693D01*
X8754516Y7658303D01*
X8750300Y7658963D01*
X8746388Y7659878D01*
X8742680Y7661148D01*
X8739022Y7662824D01*
X8735466Y7664907D01*
X8731859Y7667447D01*
X8728151Y7670546D01*
X8724239Y7674203D01*
X8720074Y7678470D01*
X8710676Y7689138D01*
X8672880Y7735417D01*
X8594635Y7735417D01*
X8604808Y7730083D01*
X8616492Y7723327D01*
X8628329Y7715808D01*
X8639759Y7707934D01*
X8650071Y7700060D01*
X8684869Y7672019D01*
X8679230Y7627518D01*
X8613902Y7596631D01*
X8497468Y7602626D01*
X8471712Y7620203D01*
X8466785Y7623759D01*
X8462365Y7627467D01*
X8458403Y7631277D01*
X8454948Y7635189D01*
X8451900Y7639202D01*
X8449360Y7643266D01*
X8447227Y7647381D01*
X8445601Y7651597D01*
X8444433Y7655864D01*
X8443671Y7660182D01*
X8443417Y7664500D01*
X8391600Y7664500D01*
X8385098Y7655153D01*
X8377529Y7643418D01*
X8371687Y7633106D01*
X8368382Y7625638D01*
X8395919Y7625638D01*
X8396782Y7627670D01*
X8398662Y7628890D01*
X8401405Y7629245D01*
X8404961Y7628737D01*
X8409178Y7627315D01*
X8413953Y7624927D01*
X8419287Y7621524D01*
X8429142Y7613751D01*
X8437829Y7607300D01*
X8447024Y7601203D01*
X8456676Y7595565D01*
X8466785Y7590332D01*
X8477250Y7585557D01*
X8488121Y7581188D01*
X8499297Y7577328D01*
X8510727Y7573924D01*
X8522462Y7571028D01*
X8534450Y7568641D01*
X8546592Y7566761D01*
X8597798Y7561122D01*
X8652154Y7584541D01*
X8672423Y7592517D01*
X8696147Y7601102D01*
X8727643Y7611668D01*
X8751976Y7619136D01*
X8781034Y7627416D01*
X8798052Y7632547D01*
X8813444Y7637525D01*
X8826550Y7642047D01*
X8836456Y7645857D01*
X8842552Y7648752D01*
X8852712Y7654645D01*
X8858351Y7656779D01*
X8860688Y7655255D01*
X8861196Y7650124D01*
X8860891Y7649260D01*
X8858504Y7646924D01*
X8853932Y7643926D01*
X8847378Y7640320D01*
X8838996Y7636154D01*
X8817711Y7626553D01*
X8791600Y7615732D01*
X8762288Y7604252D01*
X8731351Y7592720D01*
X8692845Y7579156D01*
X8664041Y7569708D01*
X8638794Y7562189D01*
X8627973Y7559294D01*
X8618626Y7557160D01*
X8611006Y7555738D01*
X8566556Y7549286D01*
X8512403Y7560767D01*
X8497163Y7564577D01*
X8482482Y7568844D01*
X8468563Y7573518D01*
X8455507Y7578547D01*
X8443417Y7583881D01*
X8432444Y7589418D01*
X8422640Y7595158D01*
X8414207Y7601051D01*
X8410498Y7604048D01*
X8407196Y7607046D01*
X8404301Y7610043D01*
X8400237Y7614970D01*
X8397544Y7619288D01*
X8396122Y7622844D01*
X8395919Y7625638D01*
X8368382Y7625638D01*
X8366963Y7621219D01*
X8366658Y7618425D01*
X8366861Y7615224D01*
X8367471Y7612024D01*
X8368487Y7608824D01*
X8369909Y7605572D01*
X8371687Y7602321D01*
X8373821Y7599070D01*
X8376361Y7595819D01*
X8379256Y7592568D01*
X8386064Y7586116D01*
X8394141Y7579715D01*
X8403488Y7573467D01*
X8414004Y7567371D01*
X8425586Y7561427D01*
X8438184Y7555788D01*
X8451748Y7550403D01*
X8466124Y7545324D01*
X8481364Y7540599D01*
X8497265Y7536281D01*
X8513826Y7532420D01*
X8530996Y7529017D01*
X8587587Y7518806D01*
X8648649Y7533589D01*
X8674201Y7540752D01*
X8702192Y7549743D01*
X8731605Y7560005D01*
X8768791Y7574127D01*
X8797493Y7585913D01*
X8824214Y7597597D01*
X8847836Y7608874D01*
X8858199Y7614158D01*
X8867394Y7619187D01*
X8875268Y7623860D01*
X8881719Y7628128D01*
X8886647Y7631988D01*
X8909354Y7652054D01*
X8903157Y7676184D01*
X8901023Y7690561D01*
X8898737Y7712862D01*
X8896400Y7740954D01*
X8894267Y7772704D01*
X8887968Y7899450D01*
X8909558Y7947304D01*
X8980271Y7958734D01*
X8997492Y7961122D01*
X9014104Y7962950D01*
X9029192Y7964220D01*
X9042044Y7964881D01*
X9051848Y7964779D01*
X9055303Y7964474D01*
X9076791Y7961375D01*
X9122410Y7841538D01*
X9122003Y7775244D01*
X9121394Y7761528D01*
X9120327Y7746898D01*
X9118854Y7731810D01*
X9117025Y7716723D01*
X9114840Y7702092D01*
X9112453Y7688325D01*
X9109811Y7675981D01*
X9105950Y7660030D01*
X9103817Y7650073D01*
X9102191Y7640828D01*
X9101023Y7632496D01*
X9100573Y7627620D01*
X9124594Y7627620D01*
X9124696Y7633106D01*
X9127896Y7643266D01*
X9132316Y7653070D01*
X9135973Y7657490D01*
X9139732Y7654950D01*
X9160586Y7637678D01*
X9198406Y7637678D01*
X9199626Y7640624D01*
X9202216Y7643926D01*
X9206179Y7647584D01*
X9211614Y7651648D01*
X9218472Y7656169D01*
X9226854Y7661249D01*
X9243618Y7670596D01*
X9255607Y7676337D01*
X9260738Y7678420D01*
X9265259Y7679994D01*
X9269120Y7681010D01*
X9272422Y7681569D01*
X9275064Y7681620D01*
X9277096Y7681163D01*
X9278467Y7680248D01*
X9279178Y7678826D01*
X9279280Y7676997D01*
X9278670Y7674711D01*
X9277400Y7671968D01*
X9275419Y7668768D01*
X9272778Y7665212D01*
X9269425Y7661198D01*
X9260586Y7651953D01*
X9226804Y7620812D01*
X9211970Y7626045D01*
X9206738Y7628077D01*
X9202724Y7630261D01*
X9200032Y7632547D01*
X9198559Y7634986D01*
X9198406Y7637678D01*
X9160586Y7637678D01*
X9183116Y7618323D01*
X9203029Y7602575D01*
X9225127Y7586268D01*
X9245378Y7572248D01*
X9281109Y7572248D01*
X9281109Y7621930D01*
X9309963Y7653274D01*
X9319361Y7662214D01*
X9324136Y7666380D01*
X9333890Y7674000D01*
X9343898Y7680706D01*
X9354058Y7686548D01*
X9364370Y7691424D01*
X9374835Y7695438D01*
X9385300Y7698587D01*
X9395815Y7700772D01*
X9406280Y7702042D01*
X9416694Y7702397D01*
X9427057Y7701788D01*
X9437217Y7700314D01*
X9447225Y7697876D01*
X9452152Y7696352D01*
X9461804Y7692491D01*
X9466529Y7690256D01*
X9475724Y7685024D01*
X9484614Y7678826D01*
X9488881Y7675422D01*
X9497161Y7667802D01*
X9525355Y7637221D01*
X9519869Y7610957D01*
X9518751Y7606639D01*
X9517278Y7602423D01*
X9515500Y7598308D01*
X9513366Y7594295D01*
X9510928Y7590383D01*
X9508185Y7586624D01*
X9505188Y7582966D01*
X9501886Y7579461D01*
X9494469Y7572806D01*
X9490405Y7569657D01*
X9481616Y7563764D01*
X9471964Y7558481D01*
X9461652Y7553756D01*
X9450679Y7549692D01*
X9439198Y7546238D01*
X9427311Y7543393D01*
X9415119Y7541310D01*
X9402673Y7539888D01*
X9390126Y7539177D01*
X9377578Y7539278D01*
X9365030Y7540091D01*
X9352737Y7541768D01*
X9340697Y7544206D01*
X9329013Y7547508D01*
X9323324Y7549489D01*
X9312402Y7554112D01*
X9307169Y7556753D01*
X9281109Y7572248D01*
X9245378Y7572248D01*
X9265615Y7559192D01*
X9273794Y7553604D01*
X9281007Y7548372D01*
X9287052Y7543596D01*
X9291878Y7539481D01*
X9295180Y7536078D01*
X9296908Y7533538D01*
X9296806Y7532065D01*
X9295130Y7530896D01*
X9293047Y7530134D01*
X9290608Y7529728D01*
X9287764Y7529728D01*
X9284512Y7530134D01*
X9280906Y7530896D01*
X9272473Y7533589D01*
X9262516Y7537856D01*
X9251035Y7543698D01*
X9237980Y7551064D01*
X9223400Y7560005D01*
X9207296Y7570470D01*
X9124594Y7627620D01*
X9100573Y7627620D01*
X9100261Y7619542D01*
X9100718Y7615428D01*
X9101785Y7613192D01*
X9110675Y7605369D01*
X9120022Y7597698D01*
X9129725Y7590078D01*
X9139783Y7582611D01*
X9150197Y7575245D01*
X9160916Y7568031D01*
X9171889Y7560970D01*
X9194546Y7547406D01*
X9206128Y7540904D01*
X9229699Y7528610D01*
X9247530Y7520025D01*
X9265462Y7512050D01*
X9283872Y7504531D01*
X9397746Y7504531D01*
X9446717Y7516723D01*
X9459468Y7520686D01*
X9472523Y7525410D01*
X9485172Y7530592D01*
X9496755Y7535976D01*
X9506559Y7541310D01*
X9518040Y7548575D01*
X9524492Y7552334D01*
X9530029Y7555128D01*
X9534550Y7557008D01*
X9538055Y7557922D01*
X9540443Y7557922D01*
X9541764Y7556957D01*
X9541865Y7555128D01*
X9540748Y7552436D01*
X9538411Y7548829D01*
X9534753Y7544308D01*
X9529724Y7538974D01*
X9526828Y7536332D01*
X9519462Y7531100D01*
X9510166Y7526020D01*
X9499447Y7521143D01*
X9487611Y7516622D01*
X9468662Y7510830D01*
X9455759Y7507833D01*
X9443059Y7505547D01*
X9431020Y7504226D01*
X9419996Y7503972D01*
X9397746Y7504531D01*
X9283872Y7504531D01*
X9295231Y7500213D01*
X9306966Y7496048D01*
X9318548Y7492238D01*
X9329978Y7488783D01*
X9341205Y7485684D01*
X9352178Y7482941D01*
X9362948Y7480604D01*
X9373362Y7478725D01*
X9383471Y7477252D01*
X9393224Y7476236D01*
X9402572Y7475626D01*
X9463074Y7474915D01*
X9555937Y7516215D01*
X9589973Y7570622D01*
X9523780Y7691170D01*
X9468154Y7728864D01*
X9479127Y7768894D01*
X9463836Y7790586D01*
X9460636Y7796530D01*
X9457588Y7803692D01*
X9454743Y7812074D01*
X9452051Y7821574D01*
X9449562Y7832191D01*
X9447225Y7843824D01*
X9445091Y7856575D01*
X9443110Y7870240D01*
X9441383Y7884922D01*
X9439859Y7900466D01*
X9438538Y7916925D01*
X9437420Y7934198D01*
X9435846Y7969758D01*
X9434880Y7985658D01*
X9433560Y8000288D01*
X9431985Y8012938D01*
X9430258Y8022945D01*
X9428429Y8029651D01*
X9425990Y8034426D01*
X9424212Y8038846D01*
X9420148Y8051444D01*
X9415830Y8067548D01*
X9411766Y8085378D01*
X9402673Y8129371D01*
X9438538Y8175447D01*
X9422790Y8240420D01*
X9418015Y8262924D01*
X9413544Y8287410D01*
X9409582Y8312048D01*
X9406585Y8334806D01*
X9405518Y8344966D01*
X9400743Y8403894D01*
X9429902Y8491778D01*
X9439757Y8523782D01*
X9447072Y8548928D01*
X9453219Y8571484D01*
X9457690Y8589568D01*
X9468002Y8635542D01*
X9514332Y8682837D01*
X9521088Y8690051D01*
X9534499Y8705545D01*
X9547758Y8722258D01*
X9560864Y8740140D01*
X9573768Y8759088D01*
X9586366Y8779052D01*
X9598761Y8799880D01*
X9604806Y8810599D01*
X9619589Y8838336D01*
X9628225Y8855506D01*
X9639350Y8878925D01*
X9647428Y8896858D01*
X9657791Y8921242D01*
X9667646Y8946032D01*
X9674707Y8964828D01*
X9681514Y8983827D01*
X9690049Y9009278D01*
X9699853Y9041333D01*
X9707016Y9067088D01*
X9715042Y9099143D01*
X9720630Y9124696D01*
X9725507Y9149994D01*
X9729571Y9175038D01*
X9732873Y9199676D01*
X9735312Y9223908D01*
X9740798Y9289084D01*
X9711029Y9383064D01*
X9643668Y9455251D01*
X9537700Y9483648D01*
X9407347Y9463278D01*
X9308439Y9412071D01*
X9259671Y9449562D01*
X9249054Y9457080D01*
X9237268Y9464802D01*
X9224721Y9472574D01*
X9211818Y9480143D01*
X9198864Y9487306D01*
X9186316Y9493808D01*
X9174581Y9499396D01*
X9117787Y9523679D01*
X9070441Y9523933D01*
X9053017Y9525203D01*
X9044381Y9526168D01*
X9036202Y9527387D01*
X9028684Y9528759D01*
X9022080Y9530283D01*
X9012732Y9533128D01*
X9003080Y9535464D01*
X8991396Y9537700D01*
X8977985Y9539681D01*
X8963355Y9541459D01*
X8947912Y9542932D01*
X8932011Y9544151D01*
X8916212Y9545066D01*
X8900820Y9545624D01*
G37*
G36*
X8956548Y9157665D02*
G01*
X8949334Y9157563D01*
X8942324Y9157055D01*
X8935516Y9156090D01*
X8929065Y9154668D01*
X8922816Y9152737D01*
X8916568Y9150248D01*
X8910574Y9147352D01*
X8904884Y9144101D01*
X8899753Y9140647D01*
X8895283Y9137040D01*
X8891676Y9133382D01*
X8889085Y9129826D01*
X8879179Y9112910D01*
X8891168Y9113164D01*
X8897264Y9114282D01*
X8904986Y9117076D01*
X8913317Y9121089D01*
X8925356Y9128556D01*
X8929878Y9130893D01*
X8934805Y9133027D01*
X8939885Y9134906D01*
X8945016Y9136430D01*
X8950045Y9137599D01*
X8954820Y9138310D01*
X8959189Y9138564D01*
X8963507Y9138310D01*
X8968282Y9137599D01*
X8973312Y9136430D01*
X8978442Y9134906D01*
X8983522Y9133027D01*
X8988450Y9130893D01*
X8993022Y9128556D01*
X9004808Y9121140D01*
X9012326Y9117431D01*
X9019336Y9114942D01*
X9025636Y9113621D01*
X9030868Y9113621D01*
X9034932Y9114840D01*
X9037574Y9117380D01*
X9038488Y9121241D01*
X9037980Y9124797D01*
X9036558Y9128252D01*
X9034221Y9131655D01*
X9031122Y9134906D01*
X9027261Y9138056D01*
X9022791Y9141053D01*
X9017660Y9143847D01*
X9012021Y9146438D01*
X9005976Y9148826D01*
X8999474Y9151010D01*
X8992717Y9152890D01*
X8985707Y9154515D01*
X8978493Y9155785D01*
X8971178Y9156801D01*
X8963863Y9157411D01*
G37*
G36*
X8998051Y8991549D02*
G01*
X8993174Y8991346D01*
X8988298Y8990787D01*
X8983370Y8989822D01*
X8973159Y8986977D01*
X8967520Y8984792D01*
X8961831Y8981998D01*
X8956141Y8978646D01*
X8950401Y8974785D01*
X8944762Y8970416D01*
X8939225Y8965641D01*
X8933891Y8960510D01*
X8928709Y8954973D01*
X8923782Y8949182D01*
X8919159Y8943136D01*
X8914841Y8936837D01*
X8913221Y8934145D01*
X8959088Y8934145D01*
X8959088Y8936024D01*
X8960662Y8938818D01*
X8963507Y8942324D01*
X8967368Y8946286D01*
X8971991Y8950502D01*
X8982405Y8958630D01*
X8987688Y8962085D01*
X8992616Y8964879D01*
X8996934Y8966708D01*
X9000388Y8967368D01*
X9004350Y8966301D01*
X9010345Y8963456D01*
X9017508Y8959240D01*
X9025026Y8954109D01*
X9043162Y8940850D01*
X8984284Y8951264D01*
X8978188Y8942171D01*
X8974937Y8938666D01*
X8970568Y8935872D01*
X8965742Y8933992D01*
X8960967Y8933383D01*
X8959088Y8934145D01*
X8913221Y8934145D01*
X8897315Y8906103D01*
X8930538Y8860332D01*
X8933738Y8874658D01*
X8934653Y8877452D01*
X8936228Y8880195D01*
X8938310Y8882837D01*
X8941003Y8885326D01*
X8944203Y8887764D01*
X8947912Y8890101D01*
X8952128Y8892286D01*
X8956802Y8894368D01*
X8961932Y8896350D01*
X8973464Y8899855D01*
X8986570Y8902750D01*
X9001048Y8905036D01*
X9016746Y8906611D01*
X9033510Y8907424D01*
X9052001Y8907729D01*
X9061602Y8908135D01*
X9070797Y8908796D01*
X9079280Y8909659D01*
X9086799Y8910675D01*
X9093200Y8911844D01*
X9098178Y8913114D01*
X9101480Y8914485D01*
X9113164Y8921292D01*
X9079534Y8949690D01*
X9064802Y8961374D01*
X9051544Y8970975D01*
X9045346Y8975090D01*
X9033713Y8981795D01*
X9028226Y8984488D01*
X9022943Y8986672D01*
X9017812Y8988501D01*
X9012732Y8989872D01*
X9007805Y8990838D01*
X9002928Y8991396D01*
G37*
D10*
X12129515Y16014700D02*
G01*
X12272772Y16069310D01*
X12129515Y16123666D02*
G01*
X12272772Y16069310D01*
X12150090Y16230092D02*
G01*
X12272772Y16230092D01*
X12211304Y16168878D02*
G01*
X12211304Y16291560D01*
X11862815Y16069310D02*
G01*
X12006072Y16014700D01*
X11862815Y16069310D02*
G01*
X12006072Y16123666D01*
X11958320Y16035274D02*
G01*
X11958320Y16103345D01*
X11883390Y16230092D02*
G01*
X12006072Y16230092D01*
X11944604Y16168878D02*
G01*
X11944604Y16291560D01*
X11596115Y15887700D02*
G01*
X11739372Y15887700D01*
X11596115Y15887700D02*
G01*
X11596115Y15935452D01*
X11602974Y15955771D01*
X11616690Y15969487D01*
X11630152Y15976345D01*
X11650725Y15983204D01*
X11684761Y15983204D01*
X11705336Y15976345D01*
X11718797Y15969487D01*
X11732513Y15955771D01*
X11739372Y15935452D01*
X11739372Y15887700D01*
X11596115Y16028162D02*
G01*
X11739372Y16028162D01*
X11596115Y16028162D02*
G01*
X11596115Y16075913D01*
X11602974Y16096234D01*
X11616690Y16109950D01*
X11630152Y16116807D01*
X11650725Y16123666D01*
X11684761Y16123666D01*
X11705336Y16116807D01*
X11718797Y16109950D01*
X11732513Y16096234D01*
X11739372Y16075913D01*
X11739372Y16028162D01*
X11616690Y16230092D02*
G01*
X11739372Y16230092D01*
X11677904Y16168624D02*
G01*
X11677904Y16291305D01*
X12383515Y15942310D02*
G01*
X12526772Y15887700D01*
X12383515Y15942310D02*
G01*
X12526772Y15996666D01*
X12479020Y15908274D02*
G01*
X12479020Y15976345D01*
X12383515Y16041878D02*
G01*
X12485877Y16041878D01*
X12506197Y16048481D01*
X12519913Y16062197D01*
X12526772Y16082771D01*
X12526772Y16096234D01*
X12519913Y16116807D01*
X12506197Y16130524D01*
X12485877Y16137128D01*
X12383515Y16137128D01*
X12383515Y16182339D02*
G01*
X12526772Y16182339D01*
X12383515Y16182339D02*
G01*
X12383515Y16230092D01*
X12390374Y16250412D01*
X12404090Y16264128D01*
X12417552Y16270986D01*
X12438125Y16277589D01*
X12472161Y16277589D01*
X12492736Y16270986D01*
X12506197Y16264128D01*
X12519913Y16250412D01*
X12526772Y16230092D01*
X12526772Y16182339D01*
X12891515Y15938500D02*
G01*
X13034772Y15993110D01*
X12891515Y16047466D02*
G01*
X13034772Y15993110D01*
X12891515Y16092678D02*
G01*
X13034772Y16092678D01*
X12891515Y16137636D02*
G01*
X13034772Y16137636D01*
X12891515Y16137636D02*
G01*
X12891515Y16185387D01*
X12898374Y16205707D01*
X12912090Y16219424D01*
X12925552Y16226281D01*
X12946125Y16233139D01*
X12980161Y16233139D01*
X13000736Y16226281D01*
X13014197Y16219424D01*
X13027913Y16205707D01*
X13034772Y16185387D01*
X13034772Y16137636D01*
X12671552Y16002762D02*
G01*
X12658090Y15995904D01*
X12644374Y15982187D01*
X12637515Y15968471D01*
X12637515Y15941294D01*
X12644374Y15927578D01*
X12658090Y15914116D01*
X12671552Y15907257D01*
X12692125Y15900400D01*
X12726161Y15900400D01*
X12746736Y15907257D01*
X12760197Y15914116D01*
X12773913Y15927578D01*
X12780772Y15941294D01*
X12780772Y15968471D01*
X12773913Y15982187D01*
X12760197Y15995904D01*
X12746736Y16002762D01*
X12726161Y16002762D01*
X12726161Y15968471D02*
G01*
X12726161Y16002762D01*
X12637515Y16047720D02*
G01*
X12780772Y16047720D01*
X12637515Y16047720D02*
G01*
X12780772Y16143224D01*
X12637515Y16143224D02*
G01*
X12780772Y16143224D01*
X12637515Y16188181D02*
G01*
X12780772Y16188181D01*
X12637515Y16188181D02*
G01*
X12637515Y16235934D01*
X12644374Y16256254D01*
X12658090Y16269970D01*
X12671552Y16276828D01*
X12692125Y16283686D01*
X12726161Y16283686D01*
X12746736Y16276828D01*
X12760197Y16269970D01*
X12773913Y16256254D01*
X12780772Y16235934D01*
X12780772Y16188181D01*
X11401552Y16002762D02*
G01*
X11388090Y15995904D01*
X11374374Y15982187D01*
X11367515Y15968471D01*
X11367515Y15941294D01*
X11374374Y15927578D01*
X11388090Y15914116D01*
X11401552Y15907257D01*
X11422125Y15900400D01*
X11456161Y15900400D01*
X11476736Y15907257D01*
X11490197Y15914116D01*
X11503913Y15927578D01*
X11510772Y15941294D01*
X11510772Y15968471D01*
X11503913Y15982187D01*
X11490197Y15995904D01*
X11476736Y16002762D01*
X11456161Y16002762D01*
X11456161Y15968471D02*
G01*
X11456161Y16002762D01*
X11367515Y16047720D02*
G01*
X11510772Y16047720D01*
X11367515Y16047720D02*
G01*
X11510772Y16143224D01*
X11367515Y16143224D02*
G01*
X11510772Y16143224D01*
X11367515Y16188181D02*
G01*
X11510772Y16188181D01*
X11367515Y16188181D02*
G01*
X11367515Y16235934D01*
X11374374Y16256254D01*
X11388090Y16269970D01*
X11401552Y16276828D01*
X11422125Y16283686D01*
X11456161Y16283686D01*
X11476736Y16276828D01*
X11490197Y16269970D01*
X11503913Y16256254D01*
X11510772Y16235934D01*
X11510772Y16188181D01*
X11134090Y15995904D02*
G01*
X11120374Y15982187D01*
X11113515Y15961868D01*
X11113515Y15934436D01*
X11120374Y15914116D01*
X11134090Y15900400D01*
X11147552Y15900400D01*
X11161268Y15907257D01*
X11168125Y15914116D01*
X11174984Y15927578D01*
X11188445Y15968471D01*
X11195304Y15982187D01*
X11202161Y15989045D01*
X11215877Y15995904D01*
X11236197Y15995904D01*
X11249913Y15982187D01*
X11256772Y15961868D01*
X11256772Y15934436D01*
X11249913Y15914116D01*
X11236197Y15900400D01*
X11113515Y16040862D02*
G01*
X11256772Y16074897D01*
X11113515Y16108934D02*
G01*
X11256772Y16074897D01*
X11113515Y16108934D02*
G01*
X11256772Y16143224D01*
X11113515Y16177260D02*
G01*
X11256772Y16143224D01*
X11140693Y16222218D02*
G01*
X11134090Y16235934D01*
X11113515Y16256254D01*
X11256772Y16256254D01*
X10867390Y15995904D02*
G01*
X10853674Y15982187D01*
X10846815Y15961868D01*
X10846815Y15934436D01*
X10853674Y15914116D01*
X10867390Y15900400D01*
X10880852Y15900400D01*
X10894568Y15907257D01*
X10901425Y15914116D01*
X10908284Y15927578D01*
X10921745Y15968471D01*
X10928604Y15982187D01*
X10935461Y15989045D01*
X10949177Y15995904D01*
X10969497Y15995904D01*
X10983213Y15982187D01*
X10990072Y15961868D01*
X10990072Y15934436D01*
X10983213Y15914116D01*
X10969497Y15900400D01*
X10846815Y16040862D02*
G01*
X10990072Y16074897D01*
X10846815Y16108934D02*
G01*
X10990072Y16074897D01*
X10846815Y16108934D02*
G01*
X10990072Y16143224D01*
X10846815Y16177260D02*
G01*
X10990072Y16143224D01*
X10873993Y16222218D02*
G01*
X10867390Y16235934D01*
X10846815Y16256254D01*
X10990072Y16256254D01*
D11*
X5156200Y11135868D02*
G01*
X5156200Y10849355D01*
X5156200Y11135868D02*
G01*
X5251704Y11135868D01*
X5292597Y11122152D01*
X5319775Y11094974D01*
X5333491Y11067542D01*
X5347208Y11026647D01*
X5347208Y10958576D01*
X5333491Y10917681D01*
X5319775Y10890250D01*
X5292597Y10863071D01*
X5251704Y10849355D01*
X5156200Y10849355D01*
X5437124Y10958576D02*
G01*
X5600700Y10958576D01*
X5600700Y10985754D01*
X5586984Y11013186D01*
X5573522Y11026647D01*
X5546090Y11040363D01*
X5505195Y11040363D01*
X5478018Y11026647D01*
X5450840Y10999470D01*
X5437124Y10958576D01*
X5437124Y10931397D01*
X5450840Y10890250D01*
X5478018Y10863071D01*
X5505195Y10849355D01*
X5546090Y10849355D01*
X5573522Y10863071D01*
X5600700Y10890250D01*
X5690870Y11040363D02*
G01*
X5690870Y10849355D01*
X5690870Y10985754D02*
G01*
X5731763Y11026647D01*
X5758941Y11040363D01*
X5799836Y11040363D01*
X5827013Y11026647D01*
X5840729Y10985754D01*
X5840729Y10849355D01*
X6094475Y11135868D02*
G01*
X6094475Y10849355D01*
X6094475Y10999470D02*
G01*
X6067043Y11026647D01*
X6039865Y11040363D01*
X5998972Y11040363D01*
X5971540Y11026647D01*
X5944361Y10999470D01*
X5930645Y10958576D01*
X5930645Y10931397D01*
X5944361Y10890250D01*
X5971540Y10863071D01*
X5998972Y10849355D01*
X6039865Y10849355D01*
X6067043Y10863071D01*
X6094475Y10890250D01*
X6198108Y11040363D02*
G01*
X6279895Y10849355D01*
X6361684Y11040363D02*
G01*
X6279895Y10849355D01*
X6252463Y10795000D01*
X6225286Y10767568D01*
X6198108Y10754105D01*
X6184391Y10754105D01*
X6866127Y11067542D02*
G01*
X6852665Y11094974D01*
X6825234Y11122152D01*
X6798056Y11135868D01*
X6743445Y11135868D01*
X6716268Y11122152D01*
X6688836Y11094974D01*
X6675374Y11067542D01*
X6661658Y11026647D01*
X6661658Y10958576D01*
X6675374Y10917681D01*
X6688836Y10890250D01*
X6716268Y10863071D01*
X6743445Y10849355D01*
X6798056Y10849355D01*
X6825234Y10863071D01*
X6852665Y10890250D01*
X6866127Y10917681D01*
X6956297Y11135868D02*
G01*
X6956297Y10849355D01*
X7209790Y11040363D02*
G01*
X7209790Y10849355D01*
X7209790Y10999470D02*
G01*
X7182611Y11026647D01*
X7155179Y11040363D01*
X7114286Y11040363D01*
X7087108Y11026647D01*
X7059929Y10999470D01*
X7046213Y10958576D01*
X7046213Y10931397D01*
X7059929Y10890250D01*
X7087108Y10863071D01*
X7114286Y10849355D01*
X7155179Y10849355D01*
X7182611Y10863071D01*
X7209790Y10890250D01*
X7449820Y10999470D02*
G01*
X7436104Y11026647D01*
X7395209Y11040363D01*
X7354315Y11040363D01*
X7313422Y11026647D01*
X7299706Y10999470D01*
X7313422Y10972292D01*
X7340854Y10958576D01*
X7408925Y10944860D01*
X7436104Y10931397D01*
X7449820Y10903965D01*
X7449820Y10890250D01*
X7436104Y10863071D01*
X7395209Y10849355D01*
X7354315Y10849355D01*
X7313422Y10863071D01*
X7299706Y10890250D01*
X7689850Y10999470D02*
G01*
X7676134Y11026647D01*
X7635240Y11040363D01*
X7594345Y11040363D01*
X7553452Y11026647D01*
X7539736Y10999470D01*
X7553452Y10972292D01*
X7580629Y10958576D01*
X7648956Y10944860D01*
X7676134Y10931397D01*
X7689850Y10903965D01*
X7689850Y10890250D01*
X7676134Y10863071D01*
X7635240Y10849355D01*
X7594345Y10849355D01*
X7553452Y10863071D01*
X7539736Y10890250D01*
X7779765Y11135868D02*
G01*
X7793481Y11122152D01*
X7807197Y11135868D01*
X7793481Y11149584D01*
X7779765Y11135868D01*
X7793481Y11040363D02*
G01*
X7793481Y10849355D01*
X8060690Y10999470D02*
G01*
X8033511Y11026647D01*
X8006079Y11040363D01*
X7965186Y11040363D01*
X7938008Y11026647D01*
X7910829Y10999470D01*
X7897113Y10958576D01*
X7897113Y10931397D01*
X7910829Y10890250D01*
X7938008Y10863071D01*
X7965186Y10849355D01*
X8006079Y10849355D01*
X8033511Y10863071D01*
X8060690Y10890250D01*
X8360663Y11135868D02*
G01*
X8360663Y10849355D01*
X8360663Y11135868D02*
G01*
X8483345Y11135868D01*
X8524493Y11122152D01*
X8537956Y11108436D01*
X8551672Y11081258D01*
X8551672Y11054079D01*
X8537956Y11026647D01*
X8524493Y11013186D01*
X8483345Y10999470D01*
X8360663Y10999470D01*
X8456168Y10999470D02*
G01*
X8551672Y10849355D01*
X8641588Y10958576D02*
G01*
X8805163Y10958576D01*
X8805163Y10985754D01*
X8791702Y11013186D01*
X8777986Y11026647D01*
X8750808Y11040363D01*
X8709913Y11040363D01*
X8682481Y11026647D01*
X8655304Y10999470D01*
X8641588Y10958576D01*
X8641588Y10931397D01*
X8655304Y10890250D01*
X8682481Y10863071D01*
X8709913Y10849355D01*
X8750808Y10849355D01*
X8777986Y10863071D01*
X8805163Y10890250D01*
X8895334Y11135868D02*
G01*
X8895334Y10849355D01*
X9053575Y11040363D02*
G01*
X9026143Y11026647D01*
X8998965Y10999470D01*
X8985250Y10958576D01*
X8985250Y10931397D01*
X8998965Y10890250D01*
X9026143Y10863071D01*
X9053575Y10849355D01*
X9094470Y10849355D01*
X9121647Y10863071D01*
X9148825Y10890250D01*
X9162541Y10931397D01*
X9162541Y10958576D01*
X9148825Y10999470D01*
X9121647Y11026647D01*
X9094470Y11040363D01*
X9053575Y11040363D01*
X9416288Y11040363D02*
G01*
X9416288Y10849355D01*
X9416288Y10999470D02*
G01*
X9388856Y11026647D01*
X9361677Y11040363D01*
X9320784Y11040363D01*
X9293352Y11026647D01*
X9266174Y10999470D01*
X9252458Y10958576D01*
X9252458Y10931397D01*
X9266174Y10890250D01*
X9293352Y10863071D01*
X9320784Y10849355D01*
X9361677Y10849355D01*
X9388856Y10863071D01*
X9416288Y10890250D01*
X9669779Y11135868D02*
G01*
X9669779Y10849355D01*
X9669779Y10999470D02*
G01*
X9642602Y11026647D01*
X9615170Y11040363D01*
X9574275Y11040363D01*
X9547097Y11026647D01*
X9519920Y10999470D01*
X9506204Y10958576D01*
X9506204Y10931397D01*
X9519920Y10890250D01*
X9547097Y10863071D01*
X9574275Y10849355D01*
X9615170Y10849355D01*
X9642602Y10863071D01*
X9669779Y10890250D01*
X10038079Y11135868D02*
G01*
X9997186Y11122152D01*
X9983470Y11094974D01*
X9983470Y11067542D01*
X9997186Y11040363D01*
X10024363Y11026647D01*
X10078974Y11013186D01*
X10119868Y10999470D01*
X10147045Y10972292D01*
X10160761Y10944860D01*
X10160761Y10903965D01*
X10147045Y10876787D01*
X10133584Y10863071D01*
X10092436Y10849355D01*
X10038079Y10849355D01*
X9997186Y10863071D01*
X9983470Y10876787D01*
X9969754Y10903965D01*
X9969754Y10944860D01*
X9983470Y10972292D01*
X10010647Y10999470D01*
X10051541Y11013186D01*
X10106152Y11026647D01*
X10133584Y11040363D01*
X10147045Y11067542D01*
X10147045Y11094974D01*
X10133584Y11122152D01*
X10092436Y11135868D01*
X10038079Y11135868D01*
X10460736Y11135868D02*
G01*
X10460736Y10849355D01*
X10460736Y10999470D02*
G01*
X10487913Y11026647D01*
X10515345Y11040363D01*
X10556240Y11040363D01*
X10583418Y11026647D01*
X10610850Y10999470D01*
X10624311Y10958576D01*
X10624311Y10931397D01*
X10610850Y10890250D01*
X10583418Y10863071D01*
X10556240Y10849355D01*
X10515345Y10849355D01*
X10487913Y10863071D01*
X10460736Y10890250D01*
X10714481Y11135868D02*
G01*
X10727943Y11122152D01*
X10741659Y11135868D01*
X10727943Y11149584D01*
X10714481Y11135868D01*
X10727943Y11040363D02*
G01*
X10727943Y10849355D01*
X10872470Y11135868D02*
G01*
X10872470Y10903965D01*
X10886186Y10863071D01*
X10913363Y10849355D01*
X10940795Y10849355D01*
X10831575Y11040363D02*
G01*
X10927079Y11040363D01*
X11469370Y11080242D02*
G01*
X11455908Y11107674D01*
X11428475Y11134852D01*
X11401297Y11148568D01*
X11346688Y11148568D01*
X11319509Y11134852D01*
X11292077Y11107674D01*
X11278615Y11080242D01*
X11264900Y11039347D01*
X11264900Y10971276D01*
X11278615Y10930381D01*
X11292077Y10902950D01*
X11319509Y10875771D01*
X11346688Y10862055D01*
X11401297Y10862055D01*
X11428475Y10875771D01*
X11455908Y10902950D01*
X11469370Y10930381D01*
X11559540Y11148568D02*
G01*
X11559540Y10862055D01*
X11559540Y11148568D02*
G01*
X11682222Y11148568D01*
X11723115Y11134852D01*
X11736831Y11121136D01*
X11750293Y11093958D01*
X11750293Y11053063D01*
X11736831Y11025886D01*
X11723115Y11012170D01*
X11682222Y10998454D01*
X11559540Y10998454D01*
X11840463Y11148568D02*
G01*
X11840463Y10862055D01*
X11840463Y11148568D02*
G01*
X11963145Y11148568D01*
X12004040Y11134852D01*
X12017502Y11121136D01*
X12031218Y11093958D01*
X12031218Y11053063D01*
X12017502Y11025886D01*
X12004040Y11012170D01*
X11963145Y10998454D01*
X11840463Y10998454D01*
X12121388Y11148568D02*
G01*
X12121388Y10944097D01*
X12134850Y10902950D01*
X12162281Y10875771D01*
X12203175Y10862055D01*
X12230354Y10862055D01*
X12271247Y10875771D01*
X12298425Y10902950D01*
X12312141Y10944097D01*
X12312141Y11148568D01*
X12612115Y10984992D02*
G01*
X12857734Y10984992D01*
X13321284Y11107674D02*
G01*
X13307568Y11134852D01*
X13266674Y11148568D01*
X13239495Y11148568D01*
X13198602Y11134852D01*
X13171170Y11093958D01*
X13157708Y11025886D01*
X13157708Y10957560D01*
X13171170Y10902950D01*
X13198602Y10875771D01*
X13239495Y10862055D01*
X13252958Y10862055D01*
X13294106Y10875771D01*
X13321284Y10902950D01*
X13335000Y10944097D01*
X13335000Y10957560D01*
X13321284Y10998454D01*
X13294106Y11025886D01*
X13252958Y11039347D01*
X13239495Y11039347D01*
X13198602Y11025886D01*
X13171170Y10998454D01*
X13157708Y10957560D01*
X13588491Y11148568D02*
G01*
X13452093Y11148568D01*
X13438631Y11025886D01*
X13452093Y11039347D01*
X13492988Y11053063D01*
X13533881Y11053063D01*
X13574775Y11039347D01*
X13602208Y11012170D01*
X13615924Y10971276D01*
X13615924Y10944097D01*
X13602208Y10902950D01*
X13574775Y10875771D01*
X13533881Y10862055D01*
X13492988Y10862055D01*
X13452093Y10875771D01*
X13438631Y10889487D01*
X13424916Y10916665D01*
X13869416Y11107674D02*
G01*
X13855700Y11134852D01*
X13814806Y11148568D01*
X13787627Y11148568D01*
X13746734Y11134852D01*
X13719556Y11093958D01*
X13705840Y11025886D01*
X13705840Y10957560D01*
X13719556Y10902950D01*
X13746734Y10875771D01*
X13787627Y10862055D01*
X13801343Y10862055D01*
X13842238Y10875771D01*
X13869416Y10902950D01*
X13883131Y10944097D01*
X13883131Y10957560D01*
X13869416Y10998454D01*
X13842238Y11025886D01*
X13801343Y11039347D01*
X13787627Y11039347D01*
X13746734Y11025886D01*
X13719556Y10998454D01*
X13705840Y10957560D01*
X13973047Y11093958D02*
G01*
X14000225Y11107674D01*
X14041374Y11148568D01*
X14041374Y10862055D01*
D10*
X5181600Y10276078D02*
G01*
X5181600Y10082276D01*
X5181600Y10276078D02*
G01*
X5246370Y10276078D01*
X5274056Y10266934D01*
X5292343Y10248392D01*
X5301741Y10229850D01*
X5310886Y10202163D01*
X5310886Y10156189D01*
X5301741Y10128250D01*
X5292343Y10109962D01*
X5274056Y10091420D01*
X5246370Y10082276D01*
X5181600Y10082276D01*
X5371845Y10156189D02*
G01*
X5482590Y10156189D01*
X5482590Y10174478D01*
X5473445Y10193020D01*
X5464302Y10202163D01*
X5445759Y10211562D01*
X5418074Y10211562D01*
X5399531Y10202163D01*
X5380990Y10183876D01*
X5371845Y10156189D01*
X5371845Y10137647D01*
X5380990Y10109962D01*
X5399531Y10091420D01*
X5418074Y10082276D01*
X5445759Y10082276D01*
X5464302Y10091420D01*
X5482590Y10109962D01*
X5543550Y10211562D02*
G01*
X5599175Y10082276D01*
X5654547Y10211562D02*
G01*
X5599175Y10082276D01*
X5715508Y10156189D02*
G01*
X5826252Y10156189D01*
X5826252Y10174478D01*
X5817108Y10193020D01*
X5807709Y10202163D01*
X5789422Y10211562D01*
X5761736Y10211562D01*
X5743193Y10202163D01*
X5724652Y10183876D01*
X5715508Y10156189D01*
X5715508Y10137647D01*
X5724652Y10109962D01*
X5743193Y10091420D01*
X5761736Y10082276D01*
X5789422Y10082276D01*
X5807709Y10091420D01*
X5826252Y10109962D01*
X5887211Y10276078D02*
G01*
X5887211Y10082276D01*
X5994400Y10211562D02*
G01*
X5975858Y10202163D01*
X5957570Y10183876D01*
X5948172Y10156189D01*
X5948172Y10137647D01*
X5957570Y10109962D01*
X5975858Y10091420D01*
X5994400Y10082276D01*
X6022086Y10082276D01*
X6040627Y10091420D01*
X6059170Y10109962D01*
X6068313Y10137647D01*
X6068313Y10156189D01*
X6059170Y10183876D01*
X6040627Y10202163D01*
X6022086Y10211562D01*
X5994400Y10211562D01*
X6129274Y10211562D02*
G01*
X6129274Y10017505D01*
X6129274Y10183876D02*
G01*
X6147815Y10202163D01*
X6166104Y10211562D01*
X6193790Y10211562D01*
X6212331Y10202163D01*
X6230874Y10183876D01*
X6240018Y10156189D01*
X6240018Y10137647D01*
X6230874Y10109962D01*
X6212331Y10091420D01*
X6193790Y10082276D01*
X6166104Y10082276D01*
X6147815Y10091420D01*
X6129274Y10109962D01*
X6300977Y10156189D02*
G01*
X6411975Y10156189D01*
X6411975Y10174478D01*
X6402577Y10193020D01*
X6393434Y10202163D01*
X6374891Y10211562D01*
X6347206Y10211562D01*
X6328663Y10202163D01*
X6310375Y10183876D01*
X6300977Y10156189D01*
X6300977Y10137647D01*
X6310375Y10109962D01*
X6328663Y10091420D01*
X6347206Y10082276D01*
X6374891Y10082276D01*
X6393434Y10091420D01*
X6411975Y10109962D01*
X6583679Y10276078D02*
G01*
X6583679Y10082276D01*
X6583679Y10183876D02*
G01*
X6565138Y10202163D01*
X6546850Y10211562D01*
X6518909Y10211562D01*
X6500622Y10202163D01*
X6482079Y10183876D01*
X6472936Y10156189D01*
X6472936Y10137647D01*
X6482079Y10109962D01*
X6500622Y10091420D01*
X6518909Y10082276D01*
X6546850Y10082276D01*
X6565138Y10091420D01*
X6583679Y10109962D01*
X6786879Y10276078D02*
G01*
X6786879Y10082276D01*
X6786879Y10183876D02*
G01*
X6805422Y10202163D01*
X6823709Y10211562D01*
X6851650Y10211562D01*
X6869938Y10202163D01*
X6888479Y10183876D01*
X6897624Y10156189D01*
X6897624Y10137647D01*
X6888479Y10109962D01*
X6869938Y10091420D01*
X6851650Y10082276D01*
X6823709Y10082276D01*
X6805422Y10091420D01*
X6786879Y10109962D01*
X6967981Y10211562D02*
G01*
X7023354Y10082276D01*
X7078725Y10211562D02*
G01*
X7023354Y10082276D01*
X7004811Y10045192D01*
X6986270Y10026650D01*
X6967981Y10017505D01*
X6958584Y10017505D01*
X7281925Y10276078D02*
G01*
X7281925Y10082276D01*
X7281925Y10276078D02*
G01*
X7364984Y10276078D01*
X7392670Y10266934D01*
X7402068Y10257789D01*
X7411211Y10239247D01*
X7411211Y10220705D01*
X7402068Y10202163D01*
X7392670Y10193020D01*
X7364984Y10183876D01*
X7281925Y10183876D01*
X7346695Y10183876D02*
G01*
X7411211Y10082276D01*
X7472172Y10156189D02*
G01*
X7583170Y10156189D01*
X7583170Y10174478D01*
X7573772Y10193020D01*
X7564627Y10202163D01*
X7546086Y10211562D01*
X7518400Y10211562D01*
X7499858Y10202163D01*
X7481570Y10183876D01*
X7472172Y10156189D01*
X7472172Y10137647D01*
X7481570Y10109962D01*
X7499858Y10091420D01*
X7518400Y10082276D01*
X7546086Y10082276D01*
X7564627Y10091420D01*
X7583170Y10109962D01*
X7671815Y10276078D02*
G01*
X7671815Y10119105D01*
X7680959Y10091420D01*
X7699502Y10082276D01*
X7717790Y10082276D01*
X7644129Y10211562D02*
G01*
X7708645Y10211562D01*
X7778750Y10211562D02*
G01*
X7778750Y10082276D01*
X7778750Y10156189D02*
G01*
X7788147Y10183876D01*
X7806690Y10202163D01*
X7824977Y10211562D01*
X7852663Y10211562D01*
X7959852Y10211562D02*
G01*
X7941309Y10202163D01*
X7923022Y10183876D01*
X7913624Y10156189D01*
X7913624Y10137647D01*
X7923022Y10109962D01*
X7941309Y10091420D01*
X7959852Y10082276D01*
X7987538Y10082276D01*
X8006079Y10091420D01*
X8024622Y10109962D01*
X8033765Y10137647D01*
X8033765Y10156189D01*
X8024622Y10183876D01*
X8006079Y10202163D01*
X7987538Y10211562D01*
X7959852Y10211562D01*
X8233409Y10229850D02*
G01*
X8224011Y10248392D01*
X8205470Y10266934D01*
X8187181Y10276078D01*
X8150097Y10276078D01*
X8131809Y10266934D01*
X8113268Y10248392D01*
X8103870Y10229850D01*
X8094725Y10202163D01*
X8094725Y10156189D01*
X8103870Y10128250D01*
X8113268Y10109962D01*
X8131809Y10091420D01*
X8150097Y10082276D01*
X8187181Y10082276D01*
X8205470Y10091420D01*
X8224011Y10109962D01*
X8233409Y10128250D01*
X8233409Y10156189D01*
X8187181Y10156189D02*
G01*
X8233409Y10156189D01*
X8405113Y10211562D02*
G01*
X8405113Y10082276D01*
X8405113Y10183876D02*
G01*
X8386572Y10202163D01*
X8368029Y10211562D01*
X8340343Y10211562D01*
X8322056Y10202163D01*
X8303513Y10183876D01*
X8294370Y10156189D01*
X8294370Y10137647D01*
X8303513Y10109962D01*
X8322056Y10091420D01*
X8340343Y10082276D01*
X8368029Y10082276D01*
X8386572Y10091420D01*
X8405113Y10109962D01*
X8466074Y10211562D02*
G01*
X8466074Y10082276D01*
X8466074Y10174478D02*
G01*
X8493759Y10202163D01*
X8512302Y10211562D01*
X8539988Y10211562D01*
X8558529Y10202163D01*
X8567674Y10174478D01*
X8567674Y10082276D01*
X8567674Y10174478D02*
G01*
X8595359Y10202163D01*
X8613902Y10211562D01*
X8641588Y10211562D01*
X8660129Y10202163D01*
X8669274Y10174478D01*
X8669274Y10082276D01*
X8730234Y10156189D02*
G01*
X8840977Y10156189D01*
X8840977Y10174478D01*
X8831834Y10193020D01*
X8822690Y10202163D01*
X8804147Y10211562D01*
X8776461Y10211562D01*
X8757920Y10202163D01*
X8739377Y10183876D01*
X8730234Y10156189D01*
X8730234Y10137647D01*
X8739377Y10109962D01*
X8757920Y10091420D01*
X8776461Y10082276D01*
X8804147Y10082276D01*
X8822690Y10091420D01*
X8840977Y10109962D01*
X9285986Y10261092D02*
G01*
X9267443Y10279634D01*
X9239758Y10288778D01*
X9202927Y10288778D01*
X9175241Y10279634D01*
X9156700Y10261092D01*
X9156700Y10242550D01*
X9165843Y10224262D01*
X9175241Y10214863D01*
X9193529Y10205720D01*
X9249156Y10187178D01*
X9267443Y10178034D01*
X9276841Y10168889D01*
X9285986Y10150347D01*
X9285986Y10122662D01*
X9267443Y10104120D01*
X9239758Y10094976D01*
X9202927Y10094976D01*
X9175241Y10104120D01*
X9156700Y10122662D01*
X9402318Y10288778D02*
G01*
X9384029Y10279634D01*
X9365488Y10261092D01*
X9356090Y10242550D01*
X9346945Y10214863D01*
X9346945Y10168889D01*
X9356090Y10140950D01*
X9365488Y10122662D01*
X9384029Y10104120D01*
X9402318Y10094976D01*
X9439402Y10094976D01*
X9457690Y10104120D01*
X9476231Y10122662D01*
X9485629Y10140950D01*
X9494774Y10168889D01*
X9494774Y10214863D01*
X9485629Y10242550D01*
X9476231Y10261092D01*
X9457690Y10279634D01*
X9439402Y10288778D01*
X9402318Y10288778D01*
X9694163Y10242550D02*
G01*
X9685020Y10261092D01*
X9666477Y10279634D01*
X9648190Y10288778D01*
X9611106Y10288778D01*
X9592563Y10279634D01*
X9574275Y10261092D01*
X9564877Y10242550D01*
X9555734Y10214863D01*
X9555734Y10168889D01*
X9564877Y10140950D01*
X9574275Y10122662D01*
X9592563Y10104120D01*
X9611106Y10094976D01*
X9648190Y10094976D01*
X9666477Y10104120D01*
X9685020Y10122662D01*
X9694163Y10140950D01*
X9755124Y10288778D02*
G01*
X9755124Y10094976D01*
X9884409Y10288778D02*
G01*
X9884409Y10094976D01*
X9755124Y10196576D02*
G01*
X9884409Y10196576D01*
X9945370Y10288778D02*
G01*
X9945370Y10094976D01*
X10157968Y10242550D02*
G01*
X10157968Y10251947D01*
X10167111Y10270489D01*
X10176509Y10279634D01*
X10194797Y10288778D01*
X10231881Y10288778D01*
X10250170Y10279634D01*
X10259568Y10270489D01*
X10268711Y10251947D01*
X10268711Y10233405D01*
X10259568Y10214863D01*
X10241025Y10187178D01*
X10148570Y10094976D01*
X10278109Y10094976D01*
X10394441Y10288778D02*
G01*
X10366756Y10279634D01*
X10348213Y10251947D01*
X10339070Y10205720D01*
X10339070Y10178034D01*
X10348213Y10131805D01*
X10366756Y10104120D01*
X10394441Y10094976D01*
X10412729Y10094976D01*
X10440670Y10104120D01*
X10458958Y10131805D01*
X10468356Y10178034D01*
X10468356Y10205720D01*
X10458958Y10251947D01*
X10440670Y10279634D01*
X10412729Y10288778D01*
X10394441Y10288778D01*
X10538459Y10242550D02*
G01*
X10538459Y10251947D01*
X10547604Y10270489D01*
X10557002Y10279634D01*
X10575290Y10288778D01*
X10612374Y10288778D01*
X10630915Y10279634D01*
X10640059Y10270489D01*
X10649204Y10251947D01*
X10649204Y10233405D01*
X10640059Y10214863D01*
X10621518Y10187178D01*
X10529315Y10094976D01*
X10658602Y10094976D01*
X10737850Y10288778D02*
G01*
X10839450Y10288778D01*
X10784077Y10214863D01*
X10811763Y10214863D01*
X10830306Y10205720D01*
X10839450Y10196576D01*
X10848847Y10168889D01*
X10848847Y10150347D01*
X10839450Y10122662D01*
X10821161Y10104120D01*
X10793475Y10094976D01*
X10765790Y10094976D01*
X10737850Y10104120D01*
X10728706Y10113263D01*
X10719561Y10131805D01*
D11*
X5156200Y10678668D02*
G01*
X5265165Y10392155D01*
X5374386Y10678668D02*
G01*
X5265165Y10392155D01*
X5464302Y10501376D02*
G01*
X5628131Y10501376D01*
X5628131Y10528554D01*
X5614415Y10555986D01*
X5600700Y10569447D01*
X5573522Y10583163D01*
X5532627Y10583163D01*
X5505195Y10569447D01*
X5478018Y10542270D01*
X5464302Y10501376D01*
X5464302Y10474197D01*
X5478018Y10433050D01*
X5505195Y10405871D01*
X5532627Y10392155D01*
X5573522Y10392155D01*
X5600700Y10405871D01*
X5628131Y10433050D01*
X5718047Y10583163D02*
G01*
X5718047Y10392155D01*
X5718047Y10501376D02*
G01*
X5731763Y10542270D01*
X5758941Y10569447D01*
X5786120Y10583163D01*
X5827013Y10583163D01*
X5930645Y10460481D02*
G01*
X5917184Y10446765D01*
X5930645Y10433050D01*
X5944361Y10446765D01*
X5930645Y10460481D01*
X6244336Y10678668D02*
G01*
X6244336Y10392155D01*
X6244336Y10678668D02*
G01*
X6421627Y10678668D01*
X6244336Y10542270D02*
G01*
X6353556Y10542270D01*
X6511543Y10678668D02*
G01*
X6525259Y10664952D01*
X6538975Y10678668D01*
X6525259Y10692384D01*
X6511543Y10678668D01*
X6525259Y10583163D02*
G01*
X6525259Y10392155D01*
X6628891Y10583163D02*
G01*
X6628891Y10392155D01*
X6628891Y10528554D02*
G01*
X6669786Y10569447D01*
X6697218Y10583163D01*
X6738111Y10583163D01*
X6765290Y10569447D01*
X6779006Y10528554D01*
X6779006Y10392155D01*
X7032497Y10583163D02*
G01*
X7032497Y10392155D01*
X7032497Y10542270D02*
G01*
X7005320Y10569447D01*
X6977888Y10583163D01*
X6936993Y10583163D01*
X6909815Y10569447D01*
X6882638Y10542270D01*
X6868922Y10501376D01*
X6868922Y10474197D01*
X6882638Y10433050D01*
X6909815Y10405871D01*
X6936993Y10392155D01*
X6977888Y10392155D01*
X7005320Y10405871D01*
X7032497Y10433050D01*
X7122668Y10678668D02*
G01*
X7122668Y10392155D01*
D12*
X10299702Y13785087D02*
G01*
X10310116Y13790421D01*
X10325610Y13805916D01*
X10325610Y13696950D01*
X10391142Y13805916D02*
G01*
X10375648Y13800836D01*
X10365234Y13785087D01*
X10359900Y13759179D01*
X10359900Y13743686D01*
X10365234Y13717524D01*
X10375648Y13702029D01*
X10391142Y13696950D01*
X10401556Y13696950D01*
X10417050Y13702029D01*
X10427464Y13717524D01*
X10432798Y13743686D01*
X10432798Y13759179D01*
X10427464Y13785087D01*
X10417050Y13800836D01*
X10401556Y13805916D01*
X10391142Y13805916D01*
X10467088Y13769594D02*
G01*
X10467088Y13717524D01*
X10472168Y13702029D01*
X10482582Y13696950D01*
X10498076Y13696950D01*
X10508490Y13702029D01*
X10524238Y13717524D01*
X10524238Y13769594D02*
G01*
X10524238Y13696950D01*
X8262111Y14109700D02*
G01*
X8256777Y14120113D01*
X8241284Y14135607D01*
X8350250Y14135607D01*
X8241284Y14201139D02*
G01*
X8246363Y14185645D01*
X8262111Y14175231D01*
X8288020Y14169897D01*
X8303513Y14169897D01*
X8329675Y14175231D01*
X8345170Y14185645D01*
X8350250Y14201139D01*
X8350250Y14211554D01*
X8345170Y14227047D01*
X8329675Y14237462D01*
X8303513Y14242795D01*
X8288020Y14242795D01*
X8262111Y14237462D01*
X8246363Y14227047D01*
X8241284Y14211554D01*
X8241284Y14201139D01*
X8277606Y14277086D02*
G01*
X8329675Y14277086D01*
X8345170Y14282166D01*
X8350250Y14292579D01*
X8350250Y14308074D01*
X8345170Y14318487D01*
X8329675Y14334236D01*
X8277606Y14334236D02*
G01*
X8350250Y14334236D01*
X11322811Y13957300D02*
G01*
X11317477Y13967713D01*
X11301984Y13983207D01*
X11410950Y13983207D01*
X11301984Y14048739D02*
G01*
X11307063Y14033245D01*
X11322811Y14022831D01*
X11348720Y14017497D01*
X11364213Y14017497D01*
X11390375Y14022831D01*
X11405870Y14033245D01*
X11410950Y14048739D01*
X11410950Y14059154D01*
X11405870Y14074647D01*
X11390375Y14085062D01*
X11364213Y14090395D01*
X11348720Y14090395D01*
X11322811Y14085062D01*
X11307063Y14074647D01*
X11301984Y14059154D01*
X11301984Y14048739D01*
X11338306Y14124686D02*
G01*
X11390375Y14124686D01*
X11405870Y14129766D01*
X11410950Y14140179D01*
X11410950Y14155674D01*
X11405870Y14166087D01*
X11390375Y14181836D01*
X11338306Y14181836D02*
G01*
X11410950Y14181836D01*
X7917179Y13475207D02*
G01*
X7917179Y13480287D01*
X7922513Y13490702D01*
X7927593Y13496036D01*
X7938008Y13501116D01*
X7958836Y13501116D01*
X7969250Y13496036D01*
X7974329Y13490702D01*
X7979663Y13480287D01*
X7979663Y13469874D01*
X7974329Y13459460D01*
X7964170Y13443966D01*
X7912100Y13392150D01*
X7984743Y13392150D01*
X8024368Y13475207D02*
G01*
X8024368Y13480287D01*
X8029447Y13490702D01*
X8034781Y13496036D01*
X8045195Y13501116D01*
X8065770Y13501116D01*
X8076184Y13496036D01*
X8081518Y13490702D01*
X8086597Y13480287D01*
X8086597Y13469874D01*
X8081518Y13459460D01*
X8071104Y13443966D01*
X8019034Y13392150D01*
X8091931Y13392150D01*
X8157209Y13501116D02*
G01*
X8141715Y13496036D01*
X8131302Y13480287D01*
X8126222Y13454379D01*
X8126222Y13438886D01*
X8131302Y13412724D01*
X8141715Y13397229D01*
X8157209Y13392150D01*
X8167624Y13392150D01*
X8183372Y13397229D01*
X8193786Y13412724D01*
X8198865Y13438886D01*
X8198865Y13454379D01*
X8193786Y13480287D01*
X8183372Y13496036D01*
X8167624Y13501116D01*
X8157209Y13501116D01*
X8233156Y13464794D02*
G01*
X8233156Y13355574D01*
X8233156Y13449300D02*
G01*
X8243570Y13459460D01*
X8253984Y13464794D01*
X8269477Y13464794D01*
X8279891Y13459460D01*
X8290306Y13449300D01*
X8295640Y13433552D01*
X8295640Y13423137D01*
X8290306Y13407644D01*
X8279891Y13397229D01*
X8269477Y13392150D01*
X8253984Y13392150D01*
X8243570Y13397229D01*
X8233156Y13407644D01*
X10046972Y4230115D02*
G01*
X9994902Y4157471D01*
X10072880Y4157471D01*
X10046972Y4230115D02*
G01*
X10046972Y4121150D01*
X10179814Y4230115D02*
G01*
X10127998Y4121150D01*
X10107170Y4230115D02*
G01*
X10179814Y4230115D01*
X10245346Y4230115D02*
G01*
X10229852Y4225036D01*
X10219438Y4209287D01*
X10214104Y4183379D01*
X10214104Y4167886D01*
X10219438Y4141723D01*
X10229852Y4126229D01*
X10245346Y4121150D01*
X10255760Y4121150D01*
X10271254Y4126229D01*
X10281668Y4141723D01*
X10287002Y4167886D01*
X10287002Y4183379D01*
X10281668Y4209287D01*
X10271254Y4225036D01*
X10255760Y4230115D01*
X10245346Y4230115D01*
X10321292Y4193794D02*
G01*
X10321292Y4121150D01*
X10321292Y4172965D02*
G01*
X10336786Y4188460D01*
X10347200Y4193794D01*
X10362694Y4193794D01*
X10373108Y4188460D01*
X10378442Y4172965D01*
X10378442Y4121150D01*
X10412732Y4230115D02*
G01*
X10412732Y4121150D01*
X10412732Y4230115D02*
G01*
X10480042Y4230115D01*
X10412732Y4178300D02*
G01*
X10454134Y4178300D01*
X9072879Y4178807D02*
G01*
X9072879Y4183887D01*
X9078213Y4194302D01*
X9083293Y4199636D01*
X9093708Y4204715D01*
X9114536Y4204715D01*
X9124950Y4199636D01*
X9130029Y4194302D01*
X9135363Y4183887D01*
X9135363Y4173473D01*
X9130029Y4163060D01*
X9119870Y4147565D01*
X9067800Y4095750D01*
X9140443Y4095750D01*
X9180068Y4178807D02*
G01*
X9180068Y4183887D01*
X9185147Y4194302D01*
X9190481Y4199636D01*
X9200895Y4204715D01*
X9221470Y4204715D01*
X9231884Y4199636D01*
X9237218Y4194302D01*
X9242297Y4183887D01*
X9242297Y4173473D01*
X9237218Y4163060D01*
X9226804Y4147565D01*
X9174734Y4095750D01*
X9247631Y4095750D01*
X9312909Y4204715D02*
G01*
X9297415Y4199636D01*
X9287002Y4183887D01*
X9281922Y4157979D01*
X9281922Y4142486D01*
X9287002Y4116323D01*
X9297415Y4100829D01*
X9312909Y4095750D01*
X9323324Y4095750D01*
X9339072Y4100829D01*
X9349486Y4116323D01*
X9354565Y4142486D01*
X9354565Y4157979D01*
X9349486Y4183887D01*
X9339072Y4199636D01*
X9323324Y4204715D01*
X9312909Y4204715D01*
X9388856Y4168394D02*
G01*
X9388856Y4116323D01*
X9394190Y4100829D01*
X9404350Y4095750D01*
X9420097Y4095750D01*
X9430511Y4100829D01*
X9446006Y4116323D01*
X9446006Y4168394D02*
G01*
X9446006Y4095750D01*
X9480295Y4204715D02*
G01*
X9480295Y4095750D01*
X9480295Y4204715D02*
G01*
X9547859Y4204715D01*
X9480295Y4152900D02*
G01*
X9521952Y4152900D01*
X7146036Y4455921D02*
G01*
X7146036Y4362450D01*
X7099300Y4409186D02*
G01*
X7192772Y4409186D01*
X7227061Y4471415D02*
G01*
X7227061Y4362450D01*
X7227061Y4362450D02*
G01*
X7289545Y4362450D01*
X7323836Y4471415D02*
G01*
X7323836Y4362450D01*
X7323836Y4471415D02*
G01*
X7391400Y4471415D01*
X7323836Y4419600D02*
G01*
X7365238Y4419600D01*
X7323836Y4362450D02*
G01*
X7391400Y4362450D01*
X7425690Y4471415D02*
G01*
X7425690Y4362450D01*
X7425690Y4471415D02*
G01*
X7462011Y4471415D01*
X7477506Y4466336D01*
X7487920Y4455921D01*
X7493000Y4445507D01*
X7498334Y4429760D01*
X7498334Y4403852D01*
X7493000Y4388357D01*
X7487920Y4377944D01*
X7477506Y4367529D01*
X7462011Y4362450D01*
X7425690Y4362450D01*
X7532624Y4409186D02*
G01*
X7626095Y4409186D01*
X6183884Y4264913D02*
G01*
X6183884Y4322063D01*
X6225540Y4290821D01*
X6225540Y4306570D01*
X6230620Y4316729D01*
X6235700Y4322063D01*
X6251447Y4327144D01*
X6261861Y4327144D01*
X6277356Y4322063D01*
X6287770Y4311650D01*
X6292850Y4296155D01*
X6292850Y4280407D01*
X6287770Y4264913D01*
X6282690Y4259579D01*
X6272275Y4254500D01*
X6183884Y4371847D02*
G01*
X6183884Y4428997D01*
X6225540Y4398010D01*
X6225540Y4413504D01*
X6230620Y4423918D01*
X6235700Y4428997D01*
X6251447Y4434331D01*
X6261861Y4434331D01*
X6277356Y4428997D01*
X6287770Y4418584D01*
X6292850Y4403089D01*
X6292850Y4387595D01*
X6287770Y4371847D01*
X6282690Y4366768D01*
X6272275Y4361434D01*
X6183884Y4499610D02*
G01*
X6188963Y4484115D01*
X6204711Y4473702D01*
X6230620Y4468621D01*
X6246113Y4468621D01*
X6272275Y4473702D01*
X6287770Y4484115D01*
X6292850Y4499610D01*
X6292850Y4510023D01*
X6287770Y4525771D01*
X6272275Y4536186D01*
X6246113Y4541265D01*
X6230620Y4541265D01*
X6204711Y4536186D01*
X6188963Y4525771D01*
X6183884Y4510023D01*
X6183884Y4499610D01*
X13428982Y8128508D02*
G01*
X13428982Y8133587D01*
X13434316Y8144002D01*
X13439396Y8149336D01*
X13449810Y8154415D01*
X13470638Y8154415D01*
X13481052Y8149336D01*
X13486132Y8144002D01*
X13491466Y8133587D01*
X13491466Y8123173D01*
X13486132Y8112760D01*
X13475972Y8097265D01*
X13423902Y8045450D01*
X13496546Y8045450D01*
X13536170Y8128508D02*
G01*
X13536170Y8133587D01*
X13541250Y8144002D01*
X13546584Y8149336D01*
X13556998Y8154415D01*
X13577572Y8154415D01*
X13587986Y8149336D01*
X13593320Y8144002D01*
X13598400Y8133587D01*
X13598400Y8123173D01*
X13593320Y8112760D01*
X13582906Y8097265D01*
X13530836Y8045450D01*
X13603734Y8045450D01*
X13669012Y8154415D02*
G01*
X13653518Y8149336D01*
X13643104Y8133587D01*
X13638024Y8107679D01*
X13638024Y8092186D01*
X13643104Y8066023D01*
X13653518Y8050529D01*
X13669012Y8045450D01*
X13679426Y8045450D01*
X13695174Y8050529D01*
X13705588Y8066023D01*
X13710668Y8092186D01*
X13710668Y8107679D01*
X13705588Y8133587D01*
X13695174Y8149336D01*
X13679426Y8154415D01*
X13669012Y8154415D01*
X13744958Y8118094D02*
G01*
X13744958Y8066023D01*
X13750292Y8050529D01*
X13760452Y8045450D01*
X13776200Y8045450D01*
X13786614Y8050529D01*
X13802108Y8066023D01*
X13802108Y8118094D02*
G01*
X13802108Y8045450D01*
X13836398Y8154415D02*
G01*
X13836398Y8045450D01*
X13836398Y8154415D02*
G01*
X13903962Y8154415D01*
X13836398Y8102600D02*
G01*
X13878054Y8102600D01*
X14267182Y14351507D02*
G01*
X14267182Y14356587D01*
X14272516Y14367002D01*
X14277596Y14372336D01*
X14288010Y14377416D01*
X14308838Y14377416D01*
X14319252Y14372336D01*
X14324332Y14367002D01*
X14329666Y14356587D01*
X14329666Y14346174D01*
X14324332Y14335760D01*
X14314172Y14320266D01*
X14262102Y14268450D01*
X14334746Y14268450D01*
X14374370Y14351507D02*
G01*
X14374370Y14356587D01*
X14379450Y14367002D01*
X14384784Y14372336D01*
X14395198Y14377416D01*
X14415772Y14377416D01*
X14426186Y14372336D01*
X14431520Y14367002D01*
X14436600Y14356587D01*
X14436600Y14346174D01*
X14431520Y14335760D01*
X14421106Y14320266D01*
X14369036Y14268450D01*
X14441934Y14268450D01*
X14507212Y14377416D02*
G01*
X14491718Y14372336D01*
X14481304Y14356587D01*
X14476224Y14330679D01*
X14476224Y14315186D01*
X14481304Y14289024D01*
X14491718Y14273529D01*
X14507212Y14268450D01*
X14517626Y14268450D01*
X14533374Y14273529D01*
X14543788Y14289024D01*
X14548868Y14315186D01*
X14548868Y14330679D01*
X14543788Y14356587D01*
X14533374Y14372336D01*
X14517626Y14377416D01*
X14507212Y14377416D01*
X14583158Y14341094D02*
G01*
X14583158Y14289024D01*
X14588492Y14273529D01*
X14598652Y14268450D01*
X14614400Y14268450D01*
X14624814Y14273529D01*
X14640308Y14289024D01*
X14640308Y14341094D02*
G01*
X14640308Y14268450D01*
X14674598Y14377416D02*
G01*
X14674598Y14268450D01*
X14674598Y14377416D02*
G01*
X14742162Y14377416D01*
X14674598Y14325600D02*
G01*
X14716254Y14325600D01*
X5618482Y14262607D02*
G01*
X5618482Y14267687D01*
X5623816Y14278102D01*
X5628896Y14283436D01*
X5639310Y14288516D01*
X5660138Y14288516D01*
X5670552Y14283436D01*
X5675632Y14278102D01*
X5680966Y14267687D01*
X5680966Y14257274D01*
X5675632Y14246860D01*
X5665472Y14231366D01*
X5613402Y14179550D01*
X5686046Y14179550D01*
X5725670Y14262607D02*
G01*
X5725670Y14267687D01*
X5730750Y14278102D01*
X5736084Y14283436D01*
X5746498Y14288516D01*
X5767072Y14288516D01*
X5777486Y14283436D01*
X5782820Y14278102D01*
X5787900Y14267687D01*
X5787900Y14257274D01*
X5782820Y14246860D01*
X5772406Y14231366D01*
X5720336Y14179550D01*
X5793234Y14179550D01*
X5858512Y14288516D02*
G01*
X5843018Y14283436D01*
X5832604Y14267687D01*
X5827524Y14241779D01*
X5827524Y14226286D01*
X5832604Y14200124D01*
X5843018Y14184629D01*
X5858512Y14179550D01*
X5868926Y14179550D01*
X5884674Y14184629D01*
X5895088Y14200124D01*
X5900168Y14226286D01*
X5900168Y14241779D01*
X5895088Y14267687D01*
X5884674Y14283436D01*
X5868926Y14288516D01*
X5858512Y14288516D01*
X5934458Y14252194D02*
G01*
X5934458Y14200124D01*
X5939792Y14184629D01*
X5949952Y14179550D01*
X5965700Y14179550D01*
X5976114Y14184629D01*
X5991608Y14200124D01*
X5991608Y14252194D02*
G01*
X5991608Y14179550D01*
X6025898Y14288516D02*
G01*
X6025898Y14179550D01*
X6025898Y14288516D02*
G01*
X6093462Y14288516D01*
X6025898Y14236700D02*
G01*
X6067554Y14236700D01*
X4983482Y15291307D02*
G01*
X4983482Y15296387D01*
X4988816Y15306802D01*
X4993896Y15312136D01*
X5004310Y15317216D01*
X5025138Y15317216D01*
X5035552Y15312136D01*
X5040632Y15306802D01*
X5045966Y15296387D01*
X5045966Y15285974D01*
X5040632Y15275560D01*
X5030472Y15260066D01*
X4978402Y15208250D01*
X5051046Y15208250D01*
X5090670Y15291307D02*
G01*
X5090670Y15296387D01*
X5095750Y15306802D01*
X5101084Y15312136D01*
X5111498Y15317216D01*
X5132072Y15317216D01*
X5142486Y15312136D01*
X5147820Y15306802D01*
X5152900Y15296387D01*
X5152900Y15285974D01*
X5147820Y15275560D01*
X5137406Y15260066D01*
X5085336Y15208250D01*
X5158234Y15208250D01*
X5223512Y15317216D02*
G01*
X5208018Y15312136D01*
X5197604Y15296387D01*
X5192524Y15270479D01*
X5192524Y15254986D01*
X5197604Y15228824D01*
X5208018Y15213329D01*
X5223512Y15208250D01*
X5233926Y15208250D01*
X5249674Y15213329D01*
X5260088Y15228824D01*
X5265168Y15254986D01*
X5265168Y15270479D01*
X5260088Y15296387D01*
X5249674Y15312136D01*
X5233926Y15317216D01*
X5223512Y15317216D01*
X5299458Y15280894D02*
G01*
X5299458Y15228824D01*
X5304792Y15213329D01*
X5314952Y15208250D01*
X5330700Y15208250D01*
X5341114Y15213329D01*
X5356608Y15228824D01*
X5356608Y15280894D02*
G01*
X5356608Y15208250D01*
X5390898Y15317216D02*
G01*
X5390898Y15208250D01*
X5390898Y15317216D02*
G01*
X5458462Y15317216D01*
X5390898Y15265400D02*
G01*
X5432554Y15265400D01*
X13454382Y14338807D02*
G01*
X13454382Y14343887D01*
X13459716Y14354302D01*
X13464796Y14359636D01*
X13475210Y14364716D01*
X13496038Y14364716D01*
X13506452Y14359636D01*
X13511532Y14354302D01*
X13516866Y14343887D01*
X13516866Y14333474D01*
X13511532Y14323060D01*
X13501372Y14307566D01*
X13449302Y14255750D01*
X13521946Y14255750D01*
X13561570Y14338807D02*
G01*
X13561570Y14343887D01*
X13566650Y14354302D01*
X13571984Y14359636D01*
X13582398Y14364716D01*
X13602972Y14364716D01*
X13613386Y14359636D01*
X13618720Y14354302D01*
X13623800Y14343887D01*
X13623800Y14333474D01*
X13618720Y14323060D01*
X13608306Y14307566D01*
X13556236Y14255750D01*
X13629134Y14255750D01*
X13694412Y14364716D02*
G01*
X13678918Y14359636D01*
X13668504Y14343887D01*
X13663424Y14317979D01*
X13663424Y14302486D01*
X13668504Y14276324D01*
X13678918Y14260829D01*
X13694412Y14255750D01*
X13704826Y14255750D01*
X13720574Y14260829D01*
X13730988Y14276324D01*
X13736068Y14302486D01*
X13736068Y14317979D01*
X13730988Y14343887D01*
X13720574Y14359636D01*
X13704826Y14364716D01*
X13694412Y14364716D01*
X13770358Y14328394D02*
G01*
X13770358Y14276324D01*
X13775692Y14260829D01*
X13785852Y14255750D01*
X13801600Y14255750D01*
X13812014Y14260829D01*
X13827508Y14276324D01*
X13827508Y14328394D02*
G01*
X13827508Y14255750D01*
X13861798Y14364716D02*
G01*
X13861798Y14255750D01*
X13861798Y14364716D02*
G01*
X13929362Y14364716D01*
X13861798Y14312900D02*
G01*
X13903454Y14312900D01*
X11447779Y8115808D02*
G01*
X11447779Y8120887D01*
X11453113Y8131302D01*
X11458193Y8136636D01*
X11468608Y8141715D01*
X11489436Y8141715D01*
X11499850Y8136636D01*
X11504929Y8131302D01*
X11510263Y8120887D01*
X11510263Y8110473D01*
X11504929Y8100060D01*
X11494770Y8084565D01*
X11442700Y8032750D01*
X11515343Y8032750D01*
X11554968Y8115808D02*
G01*
X11554968Y8120887D01*
X11560047Y8131302D01*
X11565381Y8136636D01*
X11575795Y8141715D01*
X11596370Y8141715D01*
X11606784Y8136636D01*
X11612118Y8131302D01*
X11617197Y8120887D01*
X11617197Y8110473D01*
X11612118Y8100060D01*
X11601704Y8084565D01*
X11549634Y8032750D01*
X11622531Y8032750D01*
X11687809Y8141715D02*
G01*
X11672315Y8136636D01*
X11661902Y8120887D01*
X11656822Y8094979D01*
X11656822Y8079486D01*
X11661902Y8053323D01*
X11672315Y8037829D01*
X11687809Y8032750D01*
X11698224Y8032750D01*
X11713972Y8037829D01*
X11724386Y8053323D01*
X11729465Y8079486D01*
X11729465Y8094979D01*
X11724386Y8120887D01*
X11713972Y8136636D01*
X11698224Y8141715D01*
X11687809Y8141715D01*
X11763756Y8105394D02*
G01*
X11763756Y8053323D01*
X11769090Y8037829D01*
X11779250Y8032750D01*
X11794997Y8032750D01*
X11805411Y8037829D01*
X11820906Y8053323D01*
X11820906Y8105394D02*
G01*
X11820906Y8032750D01*
X11855195Y8141715D02*
G01*
X11855195Y8032750D01*
X11855195Y8141715D02*
G01*
X11922759Y8141715D01*
X11855195Y8089900D02*
G01*
X11896852Y8089900D01*
X12586957Y8268715D02*
G01*
X12534887Y8196071D01*
X12612865Y8196071D01*
X12586957Y8268715D02*
G01*
X12586957Y8159750D01*
X12719799Y8268715D02*
G01*
X12667983Y8159750D01*
X12647155Y8268715D02*
G01*
X12719799Y8268715D01*
X12785331Y8268715D02*
G01*
X12769837Y8263636D01*
X12759423Y8247887D01*
X12754089Y8221979D01*
X12754089Y8206486D01*
X12759423Y8180323D01*
X12769837Y8164829D01*
X12785331Y8159750D01*
X12795745Y8159750D01*
X12811239Y8164829D01*
X12821653Y8180323D01*
X12826987Y8206486D01*
X12826987Y8221979D01*
X12821653Y8247887D01*
X12811239Y8263636D01*
X12795745Y8268715D01*
X12785331Y8268715D01*
X12861277Y8232394D02*
G01*
X12861277Y8159750D01*
X12861277Y8211565D02*
G01*
X12876771Y8227060D01*
X12887185Y8232394D01*
X12902679Y8232394D01*
X12913093Y8227060D01*
X12918427Y8211565D01*
X12918427Y8159750D01*
X12952717Y8268715D02*
G01*
X12952717Y8159750D01*
X12952717Y8268715D02*
G01*
X13020027Y8268715D01*
X12952717Y8216900D02*
G01*
X12994119Y8216900D01*
X5601959Y5589015D02*
G01*
X5549889Y5516371D01*
X5627867Y5516371D01*
X5601959Y5589015D02*
G01*
X5601959Y5480050D01*
X5734801Y5589015D02*
G01*
X5682985Y5480050D01*
X5662157Y5589015D02*
G01*
X5734801Y5589015D01*
X5800333Y5589015D02*
G01*
X5784839Y5583936D01*
X5774425Y5568187D01*
X5769091Y5542279D01*
X5769091Y5526786D01*
X5774425Y5500623D01*
X5784839Y5485129D01*
X5800333Y5480050D01*
X5810747Y5480050D01*
X5826241Y5485129D01*
X5836655Y5500623D01*
X5841989Y5526786D01*
X5841989Y5542279D01*
X5836655Y5568187D01*
X5826241Y5583936D01*
X5810747Y5589015D01*
X5800333Y5589015D01*
X5876279Y5552694D02*
G01*
X5876279Y5480050D01*
X5876279Y5531865D02*
G01*
X5891773Y5547360D01*
X5902187Y5552694D01*
X5917681Y5552694D01*
X5928095Y5547360D01*
X5933429Y5531865D01*
X5933429Y5480050D01*
X5967719Y5589015D02*
G01*
X5967719Y5480050D01*
X5967719Y5589015D02*
G01*
X6035029Y5589015D01*
X5967719Y5537200D02*
G01*
X6009121Y5537200D01*
X13285472Y6846315D02*
G01*
X13233402Y6773671D01*
X13311380Y6773671D01*
X13285472Y6846315D02*
G01*
X13285472Y6737350D01*
X13418314Y6846315D02*
G01*
X13366498Y6737350D01*
X13345670Y6846315D02*
G01*
X13418314Y6846315D01*
X13483846Y6846315D02*
G01*
X13468352Y6841236D01*
X13457938Y6825487D01*
X13452604Y6799579D01*
X13452604Y6784086D01*
X13457938Y6757923D01*
X13468352Y6742429D01*
X13483846Y6737350D01*
X13494260Y6737350D01*
X13509754Y6742429D01*
X13520168Y6757923D01*
X13525502Y6784086D01*
X13525502Y6799579D01*
X13520168Y6825487D01*
X13509754Y6841236D01*
X13494260Y6846315D01*
X13483846Y6846315D01*
X13559792Y6809994D02*
G01*
X13559792Y6737350D01*
X13559792Y6789165D02*
G01*
X13575286Y6804660D01*
X13585700Y6809994D01*
X13601194Y6809994D01*
X13611608Y6804660D01*
X13616942Y6789165D01*
X13616942Y6737350D01*
X13651232Y6846315D02*
G01*
X13651232Y6737350D01*
X13651232Y6846315D02*
G01*
X13718542Y6846315D01*
X13651232Y6794500D02*
G01*
X13692634Y6794500D01*
X5320284Y14428472D02*
G01*
X5392927Y14376402D01*
X5392927Y14454380D01*
X5320284Y14428472D02*
G01*
X5429250Y14428472D01*
X5320284Y14561314D02*
G01*
X5429250Y14509498D01*
X5320284Y14488670D02*
G01*
X5320284Y14561314D01*
X5320284Y14626846D02*
G01*
X5325363Y14611352D01*
X5341111Y14600938D01*
X5367020Y14595604D01*
X5382513Y14595604D01*
X5408675Y14600938D01*
X5424170Y14611352D01*
X5429250Y14626846D01*
X5429250Y14637260D01*
X5424170Y14652754D01*
X5408675Y14663168D01*
X5382513Y14668502D01*
X5367020Y14668502D01*
X5341111Y14663168D01*
X5325363Y14652754D01*
X5320284Y14637260D01*
X5320284Y14626846D01*
X5356606Y14702792D02*
G01*
X5429250Y14702792D01*
X5377434Y14702792D02*
G01*
X5361940Y14718286D01*
X5356606Y14728700D01*
X5356606Y14744194D01*
X5361940Y14754608D01*
X5377434Y14759942D01*
X5429250Y14759942D01*
X5320284Y14794232D02*
G01*
X5429250Y14794232D01*
X5320284Y14794232D02*
G01*
X5320284Y14861542D01*
X5372100Y14794232D02*
G01*
X5372100Y14835634D01*
X10833100Y14432787D02*
G01*
X10843513Y14438121D01*
X10859008Y14453616D01*
X10859008Y14344650D01*
X10924540Y14453616D02*
G01*
X10909045Y14448536D01*
X10898631Y14432787D01*
X10893297Y14406879D01*
X10893297Y14391386D01*
X10898631Y14365224D01*
X10909045Y14349729D01*
X10924540Y14344650D01*
X10934954Y14344650D01*
X10950447Y14349729D01*
X10960861Y14365224D01*
X10966195Y14391386D01*
X10966195Y14406879D01*
X10960861Y14432787D01*
X10950447Y14448536D01*
X10934954Y14453616D01*
X10924540Y14453616D01*
X11031474Y14453616D02*
G01*
X11015979Y14448536D01*
X11005565Y14432787D01*
X11000486Y14406879D01*
X11000486Y14391386D01*
X11005565Y14365224D01*
X11015979Y14349729D01*
X11031474Y14344650D01*
X11041888Y14344650D01*
X11057636Y14349729D01*
X11068050Y14365224D01*
X11073129Y14391386D01*
X11073129Y14406879D01*
X11068050Y14432787D01*
X11057636Y14448536D01*
X11041888Y14453616D01*
X11031474Y14453616D01*
X11107420Y14417294D02*
G01*
X11107420Y14365224D01*
X11112500Y14349729D01*
X11122913Y14344650D01*
X11138661Y14344650D01*
X11149075Y14349729D01*
X11164570Y14365224D01*
X11164570Y14417294D02*
G01*
X11164570Y14344650D01*
X11198859Y14453616D02*
G01*
X11198859Y14344650D01*
X11198859Y14453616D02*
G01*
X11266424Y14453616D01*
X11198859Y14401800D02*
G01*
X11240515Y14401800D01*
X11394186Y14474444D02*
G01*
X11300713Y14308074D01*
X11428475Y14432787D02*
G01*
X11438890Y14438121D01*
X11454384Y14453616D01*
X11454384Y14344650D01*
X11551158Y14438121D02*
G01*
X11545824Y14448536D01*
X11530329Y14453616D01*
X11519915Y14453616D01*
X11504422Y14448536D01*
X11494008Y14432787D01*
X11488674Y14406879D01*
X11488674Y14380971D01*
X11494008Y14360144D01*
X11504422Y14349729D01*
X11519915Y14344650D01*
X11525250Y14344650D01*
X11540743Y14349729D01*
X11551158Y14360144D01*
X11556238Y14375637D01*
X11556238Y14380971D01*
X11551158Y14396466D01*
X11540743Y14406879D01*
X11525250Y14411960D01*
X11519915Y14411960D01*
X11504422Y14406879D01*
X11494008Y14396466D01*
X11488674Y14380971D01*
X11590527Y14453616D02*
G01*
X11632184Y14344650D01*
X11673840Y14453616D02*
G01*
X11632184Y14344650D01*
X11842244Y5423910D02*
G01*
X11826496Y5418830D01*
X11816082Y5403082D01*
X11811002Y5377174D01*
X11811002Y5361680D01*
X11816082Y5335518D01*
X11826496Y5320024D01*
X11842244Y5314944D01*
X11852658Y5314944D01*
X11868152Y5320024D01*
X11878566Y5335518D01*
X11883646Y5361680D01*
X11883646Y5377174D01*
X11878566Y5403082D01*
X11868152Y5418830D01*
X11852658Y5423910D01*
X11842244Y5423910D01*
X11923270Y5340852D02*
G01*
X11917936Y5335518D01*
X11923270Y5330438D01*
X11928350Y5335518D01*
X11923270Y5340852D01*
X12014710Y5423910D02*
G01*
X11962640Y5351266D01*
X12040618Y5351266D01*
X12014710Y5423910D02*
G01*
X12014710Y5314944D01*
X12147552Y5423910D02*
G01*
X12095736Y5314944D01*
X12074908Y5423910D02*
G01*
X12147552Y5423910D01*
X12181842Y5387588D02*
G01*
X12181842Y5335518D01*
X12187176Y5320024D01*
X12197590Y5314944D01*
X12213084Y5314944D01*
X12223498Y5320024D01*
X12238992Y5335518D01*
X12238992Y5387588D02*
G01*
X12238992Y5314944D01*
X12273282Y5423910D02*
G01*
X12273282Y5314944D01*
X12273282Y5423910D02*
G01*
X12340846Y5423910D01*
X12273282Y5372094D02*
G01*
X12314938Y5372094D01*
X12468862Y5444738D02*
G01*
X12375136Y5278368D01*
X12503152Y5403082D02*
G01*
X12513312Y5408416D01*
X12529060Y5423910D01*
X12529060Y5314944D01*
X12625580Y5408416D02*
G01*
X12620500Y5418830D01*
X12604752Y5423910D01*
X12594592Y5423910D01*
X12578844Y5418830D01*
X12568430Y5403082D01*
X12563350Y5377174D01*
X12563350Y5351266D01*
X12568430Y5330438D01*
X12578844Y5320024D01*
X12594592Y5314944D01*
X12599672Y5314944D01*
X12615166Y5320024D01*
X12625580Y5330438D01*
X12630914Y5345932D01*
X12630914Y5351266D01*
X12625580Y5366760D01*
X12615166Y5377174D01*
X12599672Y5382254D01*
X12594592Y5382254D01*
X12578844Y5377174D01*
X12568430Y5366760D01*
X12563350Y5351266D01*
X12665204Y5423910D02*
G01*
X12706606Y5314944D01*
X12748262Y5423910D02*
G01*
X12706606Y5314944D01*
X5753100Y13391393D02*
G01*
X5763513Y13396727D01*
X5779008Y13412221D01*
X5779008Y13303255D01*
X5844540Y13412221D02*
G01*
X5829045Y13407141D01*
X5818631Y13391393D01*
X5813297Y13365485D01*
X5813297Y13349991D01*
X5818631Y13323829D01*
X5829045Y13308335D01*
X5844540Y13303255D01*
X5854954Y13303255D01*
X5870447Y13308335D01*
X5880861Y13323829D01*
X5886195Y13349991D01*
X5886195Y13365485D01*
X5880861Y13391393D01*
X5870447Y13407141D01*
X5854954Y13412221D01*
X5844540Y13412221D01*
X5920486Y13375899D02*
G01*
X5920486Y13323829D01*
X5925565Y13308335D01*
X5935979Y13303255D01*
X5951474Y13303255D01*
X5961888Y13308335D01*
X5977636Y13323829D01*
X5977636Y13375899D02*
G01*
X5977636Y13303255D01*
X6011925Y13412221D02*
G01*
X6011925Y13303255D01*
X6011925Y13412221D02*
G01*
X6079490Y13412221D01*
X6011925Y13360405D02*
G01*
X6053327Y13360405D01*
X6207252Y13433049D02*
G01*
X6113779Y13266679D01*
X6241541Y13391393D02*
G01*
X6251956Y13396727D01*
X6267450Y13412221D01*
X6267450Y13303255D01*
X6363970Y13396727D02*
G01*
X6358890Y13407141D01*
X6343395Y13412221D01*
X6332981Y13412221D01*
X6317234Y13407141D01*
X6306820Y13391393D01*
X6301740Y13365485D01*
X6301740Y13339577D01*
X6306820Y13318749D01*
X6317234Y13308335D01*
X6332981Y13303255D01*
X6338061Y13303255D01*
X6353809Y13308335D01*
X6363970Y13318749D01*
X6369304Y13334243D01*
X6369304Y13339577D01*
X6363970Y13355071D01*
X6353809Y13365485D01*
X6338061Y13370565D01*
X6332981Y13370565D01*
X6317234Y13365485D01*
X6306820Y13355071D01*
X6301740Y13339577D01*
X6403593Y13412221D02*
G01*
X6445250Y13303255D01*
X6486652Y13412221D02*
G01*
X6445250Y13303255D01*
X9687813Y5601715D02*
G01*
X9744963Y5601715D01*
X9713722Y5560060D01*
X9729470Y5560060D01*
X9739629Y5554979D01*
X9744963Y5549900D01*
X9750043Y5534152D01*
X9750043Y5523737D01*
X9744963Y5508244D01*
X9734550Y5497829D01*
X9719056Y5492750D01*
X9703308Y5492750D01*
X9687813Y5497829D01*
X9682479Y5502910D01*
X9677400Y5513323D01*
X9794747Y5601715D02*
G01*
X9851897Y5601715D01*
X9820909Y5560060D01*
X9836404Y5560060D01*
X9846818Y5554979D01*
X9851897Y5549900D01*
X9857231Y5534152D01*
X9857231Y5523737D01*
X9851897Y5508244D01*
X9841484Y5497829D01*
X9825990Y5492750D01*
X9810495Y5492750D01*
X9794747Y5497829D01*
X9789668Y5502910D01*
X9784334Y5513323D01*
X9891522Y5565394D02*
G01*
X9891522Y5456173D01*
X9891522Y5549900D02*
G01*
X9901936Y5560060D01*
X9912350Y5565394D01*
X9927843Y5565394D01*
X9938258Y5560060D01*
X9948672Y5549900D01*
X9953752Y5534152D01*
X9953752Y5523737D01*
X9948672Y5508244D01*
X9938258Y5497829D01*
X9927843Y5492750D01*
X9912350Y5492750D01*
X9901936Y5497829D01*
X9891522Y5508244D01*
X9988041Y5601715D02*
G01*
X9988041Y5492750D01*
X9988041Y5601715D02*
G01*
X10055606Y5601715D01*
X9988041Y5549900D02*
G01*
X10029697Y5549900D01*
X9090913Y5601715D02*
G01*
X9148063Y5601715D01*
X9116822Y5560060D01*
X9132570Y5560060D01*
X9142729Y5554979D01*
X9148063Y5549900D01*
X9153143Y5534152D01*
X9153143Y5523737D01*
X9148063Y5508244D01*
X9137650Y5497829D01*
X9122156Y5492750D01*
X9106408Y5492750D01*
X9090913Y5497829D01*
X9085579Y5502910D01*
X9080500Y5513323D01*
X9197847Y5601715D02*
G01*
X9254997Y5601715D01*
X9224009Y5560060D01*
X9239504Y5560060D01*
X9249918Y5554979D01*
X9254997Y5549900D01*
X9260331Y5534152D01*
X9260331Y5523737D01*
X9254997Y5508244D01*
X9244584Y5497829D01*
X9229090Y5492750D01*
X9213595Y5492750D01*
X9197847Y5497829D01*
X9192768Y5502910D01*
X9187434Y5513323D01*
X9294622Y5565394D02*
G01*
X9294622Y5456173D01*
X9294622Y5549900D02*
G01*
X9305036Y5560060D01*
X9315450Y5565394D01*
X9330943Y5565394D01*
X9341358Y5560060D01*
X9351772Y5549900D01*
X9356852Y5534152D01*
X9356852Y5523737D01*
X9351772Y5508244D01*
X9341358Y5497829D01*
X9330943Y5492750D01*
X9315450Y5492750D01*
X9305036Y5497829D01*
X9294622Y5508244D01*
X9391141Y5601715D02*
G01*
X9391141Y5492750D01*
X9391141Y5601715D02*
G01*
X9458706Y5601715D01*
X9391141Y5549900D02*
G01*
X9432797Y5549900D01*
X14503400Y15321787D02*
G01*
X14513813Y15327121D01*
X14529308Y15342616D01*
X14529308Y15233650D01*
X14563597Y15306294D02*
G01*
X14563597Y15233650D01*
X14563597Y15285466D02*
G01*
X14579345Y15300960D01*
X14589759Y15306294D01*
X14605254Y15306294D01*
X14615668Y15300960D01*
X14620747Y15285466D01*
X14620747Y15233650D01*
X6489700Y15169387D02*
G01*
X6500113Y15174721D01*
X6515608Y15190216D01*
X6515608Y15081250D01*
X6549897Y15153894D02*
G01*
X6549897Y15081250D01*
X6549897Y15133066D02*
G01*
X6565645Y15148560D01*
X6576059Y15153894D01*
X6591554Y15153894D01*
X6601968Y15148560D01*
X6607047Y15133066D01*
X6607047Y15081250D01*
X11620500Y9898887D02*
G01*
X11630913Y9904221D01*
X11646408Y9919715D01*
X11646408Y9810750D01*
X11680697Y9883394D02*
G01*
X11680697Y9810750D01*
X11680697Y9862565D02*
G01*
X11696445Y9878060D01*
X11706859Y9883394D01*
X11722354Y9883394D01*
X11732768Y9878060D01*
X11737847Y9862565D01*
X11737847Y9810750D01*
X9633711Y15138400D02*
G01*
X9628377Y15148813D01*
X9612884Y15164307D01*
X9721850Y15164307D01*
X9612884Y15229839D02*
G01*
X9617963Y15214345D01*
X9633711Y15203931D01*
X9659620Y15198597D01*
X9675113Y15198597D01*
X9701275Y15203931D01*
X9716770Y15214345D01*
X9721850Y15229839D01*
X9721850Y15240254D01*
X9716770Y15255747D01*
X9701275Y15266162D01*
X9675113Y15271495D01*
X9659620Y15271495D01*
X9633711Y15266162D01*
X9617963Y15255747D01*
X9612884Y15240254D01*
X9612884Y15229839D01*
X9612884Y15336774D02*
G01*
X9617963Y15321279D01*
X9633711Y15310866D01*
X9659620Y15305786D01*
X9675113Y15305786D01*
X9701275Y15310866D01*
X9716770Y15321279D01*
X9721850Y15336774D01*
X9721850Y15347187D01*
X9716770Y15362936D01*
X9701275Y15373350D01*
X9675113Y15378429D01*
X9659620Y15378429D01*
X9633711Y15373350D01*
X9617963Y15362936D01*
X9612884Y15347187D01*
X9612884Y15336774D01*
X9612884Y15443962D02*
G01*
X9617963Y15428213D01*
X9633711Y15417800D01*
X9659620Y15412720D01*
X9675113Y15412720D01*
X9701275Y15417800D01*
X9716770Y15428213D01*
X9721850Y15443962D01*
X9721850Y15454376D01*
X9716770Y15469870D01*
X9701275Y15480284D01*
X9675113Y15485363D01*
X9659620Y15485363D01*
X9633711Y15480284D01*
X9617963Y15469870D01*
X9612884Y15454376D01*
X9612884Y15443962D01*
X9649206Y15519654D02*
G01*
X9758425Y15519654D01*
X9664700Y15519654D02*
G01*
X9654540Y15530068D01*
X9649206Y15540481D01*
X9649206Y15556229D01*
X9654540Y15566389D01*
X9664700Y15576804D01*
X9680447Y15582137D01*
X9690861Y15582137D01*
X9706356Y15576804D01*
X9716770Y15566389D01*
X9721850Y15556229D01*
X9721850Y15540481D01*
X9716770Y15530068D01*
X9706356Y15519654D01*
X5029200Y13391387D02*
G01*
X5039613Y13396721D01*
X5055108Y13412216D01*
X5055108Y13303250D01*
X5120640Y13412216D02*
G01*
X5105145Y13407136D01*
X5094731Y13391387D01*
X5089397Y13365479D01*
X5089397Y13349986D01*
X5094731Y13323824D01*
X5105145Y13308329D01*
X5120640Y13303250D01*
X5131054Y13303250D01*
X5146547Y13308329D01*
X5156961Y13323824D01*
X5162295Y13349986D01*
X5162295Y13365479D01*
X5156961Y13391387D01*
X5146547Y13407136D01*
X5131054Y13412216D01*
X5120640Y13412216D01*
X5227574Y13412216D02*
G01*
X5212079Y13407136D01*
X5201665Y13391387D01*
X5196586Y13365479D01*
X5196586Y13349986D01*
X5201665Y13323824D01*
X5212079Y13308329D01*
X5227574Y13303250D01*
X5237988Y13303250D01*
X5253736Y13308329D01*
X5264150Y13323824D01*
X5269229Y13349986D01*
X5269229Y13365479D01*
X5264150Y13391387D01*
X5253736Y13407136D01*
X5237988Y13412216D01*
X5227574Y13412216D01*
X5303520Y13375894D02*
G01*
X5303520Y13303250D01*
X5303520Y13355066D02*
G01*
X5319013Y13370560D01*
X5329427Y13375894D01*
X5345175Y13375894D01*
X5355590Y13370560D01*
X5360670Y13355066D01*
X5360670Y13303250D01*
X5394959Y13412216D02*
G01*
X5394959Y13303250D01*
X5394959Y13412216D02*
G01*
X5462524Y13412216D01*
X5394959Y13360400D02*
G01*
X5436615Y13360400D01*
X11964670Y15977616D02*
G01*
X11964670Y15894557D01*
X11959336Y15878810D01*
X11954256Y15873729D01*
X11943841Y15868650D01*
X11933427Y15868650D01*
X11923013Y15873729D01*
X11917679Y15878810D01*
X11912600Y15894557D01*
X11912600Y15904971D01*
X11998959Y15956787D02*
G01*
X12009120Y15962121D01*
X12024868Y15977616D01*
X12024868Y15868650D01*
X5905487Y15474187D02*
G01*
X5915901Y15479521D01*
X5931395Y15495016D01*
X5931395Y15386050D01*
X5996927Y15495016D02*
G01*
X5981433Y15489936D01*
X5971019Y15474187D01*
X5965685Y15448279D01*
X5965685Y15432786D01*
X5971019Y15406624D01*
X5981433Y15391129D01*
X5996927Y15386050D01*
X6007341Y15386050D01*
X6022835Y15391129D01*
X6033249Y15406624D01*
X6038583Y15432786D01*
X6038583Y15448279D01*
X6033249Y15474187D01*
X6022835Y15489936D01*
X6007341Y15495016D01*
X5996927Y15495016D01*
X6103861Y15495016D02*
G01*
X6088367Y15489936D01*
X6077953Y15474187D01*
X6072873Y15448279D01*
X6072873Y15432786D01*
X6077953Y15406624D01*
X6088367Y15391129D01*
X6103861Y15386050D01*
X6114275Y15386050D01*
X6130023Y15391129D01*
X6140437Y15406624D01*
X6145517Y15432786D01*
X6145517Y15448279D01*
X6140437Y15474187D01*
X6130023Y15489936D01*
X6114275Y15495016D01*
X6103861Y15495016D01*
X6179807Y15458694D02*
G01*
X6179807Y15406624D01*
X6184887Y15391129D01*
X6195301Y15386050D01*
X6211049Y15386050D01*
X6221463Y15391129D01*
X6236957Y15406624D01*
X6236957Y15458694D02*
G01*
X6236957Y15386050D01*
X6271247Y15495016D02*
G01*
X6271247Y15386050D01*
X6343891Y15495016D02*
G01*
X6343891Y15386050D01*
X6271247Y15443200D02*
G01*
X6343891Y15443200D01*
X6070600Y15964916D02*
G01*
X6070600Y15855950D01*
X6070600Y15855950D02*
G01*
X6132829Y15855950D01*
X6167120Y15944087D02*
G01*
X6177534Y15949421D01*
X6193281Y15964916D01*
X6193281Y15855950D01*
X13563587Y15524987D02*
G01*
X13574001Y15530321D01*
X13589495Y15545816D01*
X13589495Y15436850D01*
X13655027Y15545816D02*
G01*
X13639533Y15540736D01*
X13629119Y15524987D01*
X13623785Y15499079D01*
X13623785Y15483586D01*
X13629119Y15457424D01*
X13639533Y15441929D01*
X13655027Y15436850D01*
X13665441Y15436850D01*
X13680935Y15441929D01*
X13691349Y15457424D01*
X13696683Y15483586D01*
X13696683Y15499079D01*
X13691349Y15524987D01*
X13680935Y15540736D01*
X13665441Y15545816D01*
X13655027Y15545816D01*
X13761961Y15545816D02*
G01*
X13746467Y15540736D01*
X13736053Y15524987D01*
X13730973Y15499079D01*
X13730973Y15483586D01*
X13736053Y15457424D01*
X13746467Y15441929D01*
X13761961Y15436850D01*
X13772375Y15436850D01*
X13788123Y15441929D01*
X13798537Y15457424D01*
X13803617Y15483586D01*
X13803617Y15499079D01*
X13798537Y15524987D01*
X13788123Y15540736D01*
X13772375Y15545816D01*
X13761961Y15545816D01*
X13837907Y15509494D02*
G01*
X13837907Y15457424D01*
X13842987Y15441929D01*
X13853401Y15436850D01*
X13869149Y15436850D01*
X13879563Y15441929D01*
X13895057Y15457424D01*
X13895057Y15509494D02*
G01*
X13895057Y15436850D01*
X13929347Y15545816D02*
G01*
X13929347Y15436850D01*
X14001991Y15545816D02*
G01*
X14001991Y15436850D01*
X13929347Y15494000D02*
G01*
X14001991Y15494000D01*
X13715987Y16053816D02*
G01*
X13715987Y15944850D01*
X13715987Y15944850D02*
G01*
X13778217Y15944850D01*
X13817841Y16027907D02*
G01*
X13817841Y16032987D01*
X13822921Y16043402D01*
X13828255Y16048736D01*
X13838669Y16053816D01*
X13859497Y16053816D01*
X13869657Y16048736D01*
X13874991Y16043402D01*
X13880071Y16032987D01*
X13880071Y16022574D01*
X13874991Y16012160D01*
X13864577Y15996666D01*
X13812507Y15944850D01*
X13885405Y15944850D01*
X6059931Y8483600D02*
G01*
X5950965Y8483600D01*
X6059931Y8483600D02*
G01*
X6059931Y8436863D01*
X6054852Y8421370D01*
X6049518Y8416036D01*
X6039104Y8410955D01*
X6023609Y8410955D01*
X6013195Y8416036D01*
X6008115Y8421370D01*
X6002781Y8436863D01*
X6002781Y8483600D01*
X6059931Y8345423D02*
G01*
X6054852Y8355837D01*
X6044438Y8366252D01*
X6034024Y8371331D01*
X6018275Y8376665D01*
X5992368Y8376665D01*
X5976874Y8371331D01*
X5966459Y8366252D01*
X5956045Y8355837D01*
X5950965Y8345423D01*
X5950965Y8324595D01*
X5956045Y8314181D01*
X5966459Y8303768D01*
X5976874Y8298687D01*
X5992368Y8293354D01*
X6018275Y8293354D01*
X6034024Y8298687D01*
X6044438Y8303768D01*
X6054852Y8314181D01*
X6059931Y8324595D01*
X6059931Y8345423D01*
X6059931Y8259063D02*
G01*
X5950965Y8233155D01*
X6059931Y8207247D02*
G01*
X5950965Y8233155D01*
X6059931Y8207247D02*
G01*
X5950965Y8181339D01*
X6059931Y8155178D02*
G01*
X5950965Y8181339D01*
X6059931Y8120887D02*
G01*
X5950965Y8120887D01*
X6059931Y8120887D02*
G01*
X6059931Y8053323D01*
X6008115Y8120887D02*
G01*
X6008115Y8079486D01*
X5950965Y8120887D02*
G01*
X5950965Y8053323D01*
X6059931Y8019034D02*
G01*
X5950965Y8019034D01*
X6059931Y8019034D02*
G01*
X6059931Y7972297D01*
X6054852Y7956804D01*
X6049518Y7951470D01*
X6039104Y7946389D01*
X6028690Y7946389D01*
X6018275Y7951470D01*
X6013195Y7956804D01*
X6008115Y7972297D01*
X6008115Y8019034D01*
X6008115Y7982712D02*
G01*
X5950965Y7946389D01*
X11963400Y4497831D02*
G01*
X11963400Y4388865D01*
X11963400Y4497831D02*
G01*
X12010136Y4497831D01*
X12025629Y4492752D01*
X12030963Y4487418D01*
X12036043Y4477004D01*
X12036043Y4466589D01*
X12030963Y4456176D01*
X12025629Y4451095D01*
X12010136Y4446015D01*
X11963400Y4446015D01*
X11999722Y4446015D02*
G01*
X12036043Y4388865D01*
X12070334Y4497831D02*
G01*
X12070334Y4388865D01*
X12070334Y4497831D02*
G01*
X12137897Y4497831D01*
X12070334Y4446015D02*
G01*
X12111990Y4446015D01*
X12070334Y4388865D02*
G01*
X12137897Y4388865D01*
X12245086Y4482337D02*
G01*
X12234672Y4492752D01*
X12218924Y4497831D01*
X12198350Y4497831D01*
X12182602Y4492752D01*
X12172188Y4482337D01*
X12172188Y4471923D01*
X12177522Y4461510D01*
X12182602Y4456176D01*
X12193015Y4451095D01*
X12224258Y4440681D01*
X12234672Y4435602D01*
X12239752Y4430268D01*
X12245086Y4419854D01*
X12245086Y4404360D01*
X12234672Y4393945D01*
X12218924Y4388865D01*
X12198350Y4388865D01*
X12182602Y4393945D01*
X12172188Y4404360D01*
X12279375Y4497831D02*
G01*
X12279375Y4388865D01*
X12279375Y4497831D02*
G01*
X12346940Y4497831D01*
X12279375Y4446015D02*
G01*
X12320777Y4446015D01*
X12279375Y4388865D02*
G01*
X12346940Y4388865D01*
X12417552Y4497831D02*
G01*
X12417552Y4388865D01*
X12381229Y4497831D02*
G01*
X12453874Y4497831D01*
X10425684Y8547100D02*
G01*
X10534650Y8547100D01*
X10425684Y8547100D02*
G01*
X10425684Y8593836D01*
X10430763Y8609329D01*
X10436097Y8614663D01*
X10446511Y8619744D01*
X10456925Y8619744D01*
X10467340Y8614663D01*
X10472420Y8609329D01*
X10477500Y8593836D01*
X10477500Y8547100D02*
G01*
X10477500Y8593836D01*
X10482834Y8609329D01*
X10487913Y8614663D01*
X10498327Y8619744D01*
X10514075Y8619744D01*
X10524490Y8614663D01*
X10529570Y8609329D01*
X10534650Y8593836D01*
X10534650Y8547100D01*
X10451591Y8732012D02*
G01*
X10441177Y8726931D01*
X10430763Y8716518D01*
X10425684Y8706104D01*
X10425684Y8685276D01*
X10430763Y8674862D01*
X10441177Y8664447D01*
X10451591Y8659368D01*
X10467340Y8654034D01*
X10493247Y8654034D01*
X10508741Y8659368D01*
X10519156Y8664447D01*
X10529570Y8674862D01*
X10534650Y8685276D01*
X10534650Y8706104D01*
X10529570Y8716518D01*
X10519156Y8726931D01*
X10508741Y8732012D01*
X10425684Y8828786D02*
G01*
X10425684Y8776715D01*
X10472420Y8771636D01*
X10467340Y8776715D01*
X10462006Y8792210D01*
X10462006Y8807958D01*
X10467340Y8823452D01*
X10477500Y8833865D01*
X10493247Y8839200D01*
X10503661Y8839200D01*
X10519156Y8833865D01*
X10529570Y8823452D01*
X10534650Y8807958D01*
X10534650Y8792210D01*
X10529570Y8776715D01*
X10524490Y8771636D01*
X10514075Y8766302D01*
X10425684Y8935720D02*
G01*
X10425684Y8883650D01*
X10472420Y8878570D01*
X10467340Y8883650D01*
X10462006Y8899397D01*
X10462006Y8914892D01*
X10467340Y8930639D01*
X10477500Y8940800D01*
X10493247Y8946134D01*
X10503661Y8946134D01*
X10519156Y8940800D01*
X10529570Y8930639D01*
X10534650Y8914892D01*
X10534650Y8899397D01*
X10529570Y8883650D01*
X10524490Y8878570D01*
X10514075Y8873489D01*
X10441177Y9042654D02*
G01*
X10430763Y9037574D01*
X10425684Y9022079D01*
X10425684Y9011665D01*
X10430763Y8995918D01*
X10446511Y8985504D01*
X10472420Y8980424D01*
X10498327Y8980424D01*
X10519156Y8985504D01*
X10529570Y8995918D01*
X10534650Y9011665D01*
X10534650Y9016745D01*
X10529570Y9032239D01*
X10519156Y9042654D01*
X10503661Y9047987D01*
X10498327Y9047987D01*
X10482834Y9042654D01*
X10472420Y9032239D01*
X10467340Y9016745D01*
X10467340Y9011665D01*
X10472420Y8995918D01*
X10482834Y8985504D01*
X10498327Y8980424D01*
X10425684Y9082278D02*
G01*
X10534650Y9082278D01*
X10425684Y9082278D02*
G01*
X10425684Y9129013D01*
X10430763Y9144508D01*
X10436097Y9149842D01*
X10446511Y9154921D01*
X10456925Y9154921D01*
X10467340Y9149842D01*
X10472420Y9144508D01*
X10477500Y9129013D01*
X10477500Y9082278D02*
G01*
X10477500Y9129013D01*
X10482834Y9144508D01*
X10487913Y9149842D01*
X10498327Y9154921D01*
X10514075Y9154921D01*
X10524490Y9149842D01*
X10529570Y9144508D01*
X10534650Y9129013D01*
X10534650Y9082278D01*
X8851900Y6897115D02*
G01*
X8924543Y6788150D01*
X8924543Y6897115D02*
G01*
X8851900Y6788150D01*
X8995409Y6897115D02*
G01*
X8995409Y6788150D01*
X8958834Y6897115D02*
G01*
X9031731Y6897115D01*
X9107424Y6897115D02*
G01*
X9066022Y6788150D01*
X9107424Y6897115D02*
G01*
X9149079Y6788150D01*
X9081515Y6824471D02*
G01*
X9133586Y6824471D01*
X9183370Y6897115D02*
G01*
X9183370Y6788150D01*
X9183370Y6788150D02*
G01*
X9245600Y6788150D01*
X9365234Y6871208D02*
G01*
X9365234Y6876287D01*
X9370313Y6886702D01*
X9375647Y6892036D01*
X9386061Y6897115D01*
X9406890Y6897115D01*
X9417050Y6892036D01*
X9422384Y6886702D01*
X9427463Y6876287D01*
X9427463Y6865873D01*
X9422384Y6855460D01*
X9411970Y6839965D01*
X9359900Y6788150D01*
X9432797Y6788150D01*
X9529318Y6881621D02*
G01*
X9524238Y6892036D01*
X9508490Y6897115D01*
X9498329Y6897115D01*
X9482581Y6892036D01*
X9472168Y6876287D01*
X9467088Y6850379D01*
X9467088Y6824471D01*
X9472168Y6803644D01*
X9482581Y6793229D01*
X9498329Y6788150D01*
X9503409Y6788150D01*
X9518904Y6793229D01*
X9529318Y6803644D01*
X9534652Y6819137D01*
X9534652Y6824471D01*
X9529318Y6839965D01*
X9518904Y6850379D01*
X9503409Y6855460D01*
X9498329Y6855460D01*
X9482581Y6850379D01*
X9472168Y6839965D01*
X9467088Y6824471D01*
X9574022Y6814058D02*
G01*
X9568941Y6808723D01*
X9574022Y6803644D01*
X9579356Y6808723D01*
X9574022Y6814058D01*
X9675875Y6881621D02*
G01*
X9670795Y6892036D01*
X9655047Y6897115D01*
X9644634Y6897115D01*
X9629140Y6892036D01*
X9618725Y6876287D01*
X9613645Y6850379D01*
X9613645Y6824471D01*
X9618725Y6803644D01*
X9629140Y6793229D01*
X9644634Y6788150D01*
X9649968Y6788150D01*
X9665461Y6793229D01*
X9675875Y6803644D01*
X9681209Y6819137D01*
X9681209Y6824471D01*
X9675875Y6839965D01*
X9665461Y6850379D01*
X9649968Y6855460D01*
X9644634Y6855460D01*
X9629140Y6850379D01*
X9618725Y6839965D01*
X9613645Y6824471D01*
X9746488Y6897115D02*
G01*
X9730993Y6892036D01*
X9720579Y6876287D01*
X9715500Y6850379D01*
X9715500Y6834886D01*
X9720579Y6808723D01*
X9730993Y6793229D01*
X9746488Y6788150D01*
X9756902Y6788150D01*
X9772650Y6793229D01*
X9782809Y6808723D01*
X9788143Y6834886D01*
X9788143Y6850379D01*
X9782809Y6876287D01*
X9772650Y6892036D01*
X9756902Y6897115D01*
X9746488Y6897115D01*
X9822434Y6876287D02*
G01*
X9832847Y6881621D01*
X9848341Y6897115D01*
X9848341Y6788150D01*
X9955529Y6897115D02*
G01*
X9903459Y6788150D01*
X9882631Y6897115D02*
G01*
X9955529Y6897115D01*
X9989820Y6876287D02*
G01*
X9999979Y6881621D01*
X10015727Y6897115D01*
X10015727Y6788150D01*
X10055097Y6871208D02*
G01*
X10055097Y6876287D01*
X10060431Y6886702D01*
X10065511Y6892036D01*
X10075925Y6897115D01*
X10096754Y6897115D01*
X10107168Y6892036D01*
X10112247Y6886702D01*
X10117581Y6876287D01*
X10117581Y6865873D01*
X10112247Y6855460D01*
X10101834Y6839965D01*
X10050018Y6788150D01*
X10122661Y6788150D01*
X10156952Y6897115D02*
G01*
X10156952Y6788150D01*
X10156952Y6897115D02*
G01*
X10198608Y6788150D01*
X10240009Y6897115D02*
G01*
X10198608Y6788150D01*
X10240009Y6897115D02*
G01*
X10240009Y6788150D01*
X10274300Y6897115D02*
G01*
X10274300Y6788150D01*
X10347197Y6897115D02*
G01*
X10347197Y6788150D01*
X10274300Y6845300D02*
G01*
X10347197Y6845300D01*
X10438638Y6860794D02*
G01*
X10381488Y6788150D01*
X10381488Y6860794D02*
G01*
X10438638Y6860794D01*
X10381488Y6788150D02*
G01*
X10438638Y6788150D01*
X9530841Y7087615D02*
G01*
X9520427Y7082536D01*
X9510013Y7072121D01*
X9504679Y7061708D01*
X9499600Y7045960D01*
X9499600Y7020052D01*
X9504679Y7004558D01*
X9510013Y6994144D01*
X9520427Y6983729D01*
X9530841Y6978650D01*
X9551670Y6978650D01*
X9561829Y6983729D01*
X9572243Y6994144D01*
X9577577Y7004558D01*
X9582658Y7020052D01*
X9582658Y7045960D01*
X9577577Y7061708D01*
X9572243Y7072121D01*
X9561829Y7082536D01*
X9551670Y7087615D01*
X9530841Y7087615D01*
X9546336Y6999223D02*
G01*
X9577577Y6968236D01*
X9679431Y7087615D02*
G01*
X9627361Y7087615D01*
X9622281Y7040879D01*
X9627361Y7045960D01*
X9643109Y7051294D01*
X9658604Y7051294D01*
X9674097Y7045960D01*
X9684511Y7035800D01*
X9689845Y7020052D01*
X9689845Y7009637D01*
X9684511Y6994144D01*
X9674097Y6983729D01*
X9658604Y6978650D01*
X9643109Y6978650D01*
X9627361Y6983729D01*
X9622281Y6988810D01*
X9616947Y6999223D01*
X12844779Y9144508D02*
G01*
X12844779Y9149587D01*
X12850113Y9160002D01*
X12855193Y9165336D01*
X12865608Y9170415D01*
X12886436Y9170415D01*
X12896850Y9165336D01*
X12901929Y9160002D01*
X12907263Y9149587D01*
X12907263Y9139174D01*
X12901929Y9128760D01*
X12891770Y9113265D01*
X12839700Y9061450D01*
X12912343Y9061450D01*
X12946634Y9170415D02*
G01*
X12946634Y9061450D01*
X13019531Y9170415D02*
G01*
X12946634Y9097771D01*
X12972795Y9123679D02*
G01*
X13019531Y9061450D01*
X13058902Y9144508D02*
G01*
X13058902Y9149587D01*
X13064236Y9160002D01*
X13069315Y9165336D01*
X13079729Y9170415D01*
X13100558Y9170415D01*
X13110972Y9165336D01*
X13116052Y9160002D01*
X13121386Y9149587D01*
X13121386Y9139174D01*
X13116052Y9128760D01*
X13105638Y9113265D01*
X13053822Y9061450D01*
X13126466Y9061450D01*
X11536679Y9157208D02*
G01*
X11536679Y9162287D01*
X11542013Y9172702D01*
X11547093Y9178036D01*
X11557508Y9183115D01*
X11578336Y9183115D01*
X11588750Y9178036D01*
X11593829Y9172702D01*
X11599163Y9162287D01*
X11599163Y9151874D01*
X11593829Y9141460D01*
X11583670Y9125965D01*
X11531600Y9074150D01*
X11604243Y9074150D01*
X11643868Y9157208D02*
G01*
X11643868Y9162287D01*
X11648947Y9172702D01*
X11654281Y9178036D01*
X11664695Y9183115D01*
X11685270Y9183115D01*
X11695684Y9178036D01*
X11701018Y9172702D01*
X11706097Y9162287D01*
X11706097Y9151874D01*
X11701018Y9141460D01*
X11690604Y9125965D01*
X11638534Y9074150D01*
X11711431Y9074150D01*
X11776709Y9183115D02*
G01*
X11761215Y9178036D01*
X11750802Y9162287D01*
X11745722Y9136379D01*
X11745722Y9120886D01*
X11750802Y9094724D01*
X11761215Y9079229D01*
X11776709Y9074150D01*
X11787124Y9074150D01*
X11802872Y9079229D01*
X11813286Y9094724D01*
X11818365Y9120886D01*
X11818365Y9136379D01*
X11813286Y9162287D01*
X11802872Y9178036D01*
X11787124Y9183115D01*
X11776709Y9183115D01*
X7645400Y6901687D02*
G01*
X7655813Y6907021D01*
X7671308Y6922515D01*
X7671308Y6813550D01*
X7736840Y6922515D02*
G01*
X7721345Y6917436D01*
X7710931Y6901687D01*
X7705597Y6875779D01*
X7705597Y6860286D01*
X7710931Y6834123D01*
X7721345Y6818629D01*
X7736840Y6813550D01*
X7747254Y6813550D01*
X7762747Y6818629D01*
X7773161Y6834123D01*
X7778495Y6860286D01*
X7778495Y6875779D01*
X7773161Y6901687D01*
X7762747Y6917436D01*
X7747254Y6922515D01*
X7736840Y6922515D01*
X7843774Y6922515D02*
G01*
X7828279Y6917436D01*
X7817865Y6901687D01*
X7812786Y6875779D01*
X7812786Y6860286D01*
X7817865Y6834123D01*
X7828279Y6818629D01*
X7843774Y6813550D01*
X7854188Y6813550D01*
X7869936Y6818629D01*
X7880350Y6834123D01*
X7885429Y6860286D01*
X7885429Y6875779D01*
X7880350Y6901687D01*
X7869936Y6917436D01*
X7854188Y6922515D01*
X7843774Y6922515D01*
X7919720Y6922515D02*
G01*
X7919720Y6813550D01*
X7971790Y6886194D02*
G01*
X7919720Y6834123D01*
X7940547Y6854952D02*
G01*
X7976870Y6813550D01*
X7645400Y6279387D02*
G01*
X7655813Y6284721D01*
X7671308Y6300215D01*
X7671308Y6191250D01*
X7736840Y6300215D02*
G01*
X7721345Y6295136D01*
X7710931Y6279387D01*
X7705597Y6253479D01*
X7705597Y6237986D01*
X7710931Y6211823D01*
X7721345Y6196329D01*
X7736840Y6191250D01*
X7747254Y6191250D01*
X7762747Y6196329D01*
X7773161Y6211823D01*
X7778495Y6237986D01*
X7778495Y6253479D01*
X7773161Y6279387D01*
X7762747Y6295136D01*
X7747254Y6300215D01*
X7736840Y6300215D01*
X7843774Y6300215D02*
G01*
X7828279Y6295136D01*
X7817865Y6279387D01*
X7812786Y6253479D01*
X7812786Y6237986D01*
X7817865Y6211823D01*
X7828279Y6196329D01*
X7843774Y6191250D01*
X7854188Y6191250D01*
X7869936Y6196329D01*
X7880350Y6211823D01*
X7885429Y6237986D01*
X7885429Y6253479D01*
X7880350Y6279387D01*
X7869936Y6295136D01*
X7854188Y6300215D01*
X7843774Y6300215D01*
X7919720Y6300215D02*
G01*
X7919720Y6191250D01*
X7971790Y6263894D02*
G01*
X7919720Y6211823D01*
X7940547Y6232652D02*
G01*
X7976870Y6191250D01*
X8978900Y13772387D02*
G01*
X8989313Y13777721D01*
X9004808Y13793216D01*
X9004808Y13684250D01*
X9044431Y13767307D02*
G01*
X9044431Y13772387D01*
X9049511Y13782802D01*
X9054845Y13788136D01*
X9065259Y13793216D01*
X9085834Y13793216D01*
X9096247Y13788136D01*
X9101581Y13782802D01*
X9106661Y13772387D01*
X9106661Y13761974D01*
X9101581Y13751560D01*
X9091168Y13736066D01*
X9039097Y13684250D01*
X9111995Y13684250D01*
X9146286Y13793216D02*
G01*
X9146286Y13684250D01*
X9218929Y13793216D02*
G01*
X9146286Y13720571D01*
X9172193Y13746479D02*
G01*
X9218929Y13684250D01*
X7479284Y15162524D02*
G01*
X7479284Y15110708D01*
X7526020Y15105374D01*
X7520940Y15110708D01*
X7515606Y15126202D01*
X7515606Y15141950D01*
X7520940Y15157444D01*
X7531100Y15167858D01*
X7546847Y15172938D01*
X7557261Y15172938D01*
X7572756Y15167858D01*
X7583170Y15157444D01*
X7588250Y15141950D01*
X7588250Y15126202D01*
X7583170Y15110708D01*
X7578090Y15105374D01*
X7567675Y15100294D01*
X7500111Y15207228D02*
G01*
X7494777Y15217642D01*
X7479284Y15233390D01*
X7588250Y15233390D01*
X7479284Y15298668D02*
G01*
X7484363Y15283174D01*
X7500111Y15272760D01*
X7526020Y15267680D01*
X7541513Y15267680D01*
X7567675Y15272760D01*
X7583170Y15283174D01*
X7588250Y15298668D01*
X7588250Y15309082D01*
X7583170Y15324830D01*
X7567675Y15335244D01*
X7541513Y15340324D01*
X7526020Y15340324D01*
X7500111Y15335244D01*
X7484363Y15324830D01*
X7479284Y15309082D01*
X7479284Y15298668D01*
X8750300Y14635987D02*
G01*
X8760713Y14641321D01*
X8776208Y14656816D01*
X8776208Y14547850D01*
X8810497Y14656816D02*
G01*
X8810497Y14547850D01*
X8862568Y14620494D02*
G01*
X8810497Y14568424D01*
X8831325Y14589252D02*
G01*
X8867647Y14547850D01*
X6958584Y15200624D02*
G01*
X6958584Y15148808D01*
X7005320Y15143474D01*
X7000240Y15148808D01*
X6994906Y15164302D01*
X6994906Y15180050D01*
X7000240Y15195544D01*
X7010400Y15205958D01*
X7026147Y15211038D01*
X7036561Y15211038D01*
X7052056Y15205958D01*
X7062470Y15195544D01*
X7067550Y15180050D01*
X7067550Y15164302D01*
X7062470Y15148808D01*
X7057390Y15143474D01*
X7046975Y15138394D01*
X6979411Y15245328D02*
G01*
X6974077Y15255742D01*
X6958584Y15271490D01*
X7067550Y15271490D01*
X6958584Y15336768D02*
G01*
X6963663Y15321274D01*
X6979411Y15310860D01*
X7005320Y15305780D01*
X7020813Y15305780D01*
X7046975Y15310860D01*
X7062470Y15321274D01*
X7067550Y15336768D01*
X7067550Y15347182D01*
X7062470Y15362930D01*
X7046975Y15373344D01*
X7020813Y15378424D01*
X7005320Y15378424D01*
X6979411Y15373344D01*
X6963663Y15362930D01*
X6958584Y15347182D01*
X6958584Y15336768D01*
X9271000Y14216887D02*
G01*
X9281413Y14222221D01*
X9296908Y14237716D01*
X9296908Y14128750D01*
X9362440Y14237716D02*
G01*
X9346945Y14232636D01*
X9336531Y14216887D01*
X9331197Y14190979D01*
X9331197Y14175486D01*
X9336531Y14149324D01*
X9346945Y14133829D01*
X9362440Y14128750D01*
X9372854Y14128750D01*
X9388347Y14133829D01*
X9398761Y14149324D01*
X9404095Y14175486D01*
X9404095Y14190979D01*
X9398761Y14216887D01*
X9388347Y14232636D01*
X9372854Y14237716D01*
X9362440Y14237716D01*
X9469374Y14237716D02*
G01*
X9453879Y14232636D01*
X9443465Y14216887D01*
X9438386Y14190979D01*
X9438386Y14175486D01*
X9443465Y14149324D01*
X9453879Y14133829D01*
X9469374Y14128750D01*
X9479788Y14128750D01*
X9495536Y14133829D01*
X9505950Y14149324D01*
X9511029Y14175486D01*
X9511029Y14190979D01*
X9505950Y14216887D01*
X9495536Y14232636D01*
X9479788Y14237716D01*
X9469374Y14237716D01*
X9545320Y14237716D02*
G01*
X9545320Y14128750D01*
X9617963Y14237716D02*
G01*
X9545320Y14165071D01*
X9571227Y14190979D02*
G01*
X9617963Y14128750D01*
X9855194Y15766287D02*
G01*
X9865608Y15771621D01*
X9881102Y15787116D01*
X9881102Y15678150D01*
X9946634Y15787116D02*
G01*
X9931140Y15782036D01*
X9920726Y15766287D01*
X9915392Y15740379D01*
X9915392Y15724886D01*
X9920726Y15698724D01*
X9931140Y15683229D01*
X9946634Y15678150D01*
X9957048Y15678150D01*
X9972542Y15683229D01*
X9982956Y15698724D01*
X9988290Y15724886D01*
X9988290Y15740379D01*
X9982956Y15766287D01*
X9972542Y15782036D01*
X9957048Y15787116D01*
X9946634Y15787116D01*
X10053568Y15787116D02*
G01*
X10038074Y15782036D01*
X10027660Y15766287D01*
X10022580Y15740379D01*
X10022580Y15724886D01*
X10027660Y15698724D01*
X10038074Y15683229D01*
X10053568Y15678150D01*
X10063982Y15678150D01*
X10079730Y15683229D01*
X10090144Y15698724D01*
X10095224Y15724886D01*
X10095224Y15740379D01*
X10090144Y15766287D01*
X10079730Y15782036D01*
X10063982Y15787116D01*
X10053568Y15787116D01*
X10129514Y15787116D02*
G01*
X10129514Y15678150D01*
X10202158Y15787116D02*
G01*
X10129514Y15714471D01*
X10155422Y15740379D02*
G01*
X10202158Y15678150D01*
X7525511Y13804900D02*
G01*
X7520177Y13815313D01*
X7504684Y13830807D01*
X7613650Y13830807D01*
X7504684Y13896339D02*
G01*
X7509763Y13880845D01*
X7525511Y13870431D01*
X7551420Y13865097D01*
X7566913Y13865097D01*
X7593075Y13870431D01*
X7608570Y13880845D01*
X7613650Y13896339D01*
X7613650Y13906754D01*
X7608570Y13922247D01*
X7593075Y13932662D01*
X7566913Y13937995D01*
X7551420Y13937995D01*
X7525511Y13932662D01*
X7509763Y13922247D01*
X7504684Y13906754D01*
X7504684Y13896339D01*
X7504684Y14003274D02*
G01*
X7509763Y13987779D01*
X7525511Y13977366D01*
X7551420Y13972286D01*
X7566913Y13972286D01*
X7593075Y13977366D01*
X7608570Y13987779D01*
X7613650Y14003274D01*
X7613650Y14013687D01*
X7608570Y14029436D01*
X7593075Y14039850D01*
X7566913Y14044929D01*
X7551420Y14044929D01*
X7525511Y14039850D01*
X7509763Y14029436D01*
X7504684Y14013687D01*
X7504684Y14003274D01*
X7504684Y14079220D02*
G01*
X7613650Y14079220D01*
X7504684Y14151863D02*
G01*
X7577327Y14079220D01*
X7551420Y14105128D02*
G01*
X7613650Y14151863D01*
X7017511Y13792200D02*
G01*
X7012177Y13802613D01*
X6996684Y13818107D01*
X7105650Y13818107D01*
X6996684Y13883639D02*
G01*
X7001763Y13868145D01*
X7017511Y13857731D01*
X7043420Y13852397D01*
X7058913Y13852397D01*
X7085075Y13857731D01*
X7100570Y13868145D01*
X7105650Y13883639D01*
X7105650Y13894054D01*
X7100570Y13909547D01*
X7085075Y13919962D01*
X7058913Y13925295D01*
X7043420Y13925295D01*
X7017511Y13919962D01*
X7001763Y13909547D01*
X6996684Y13894054D01*
X6996684Y13883639D01*
X6996684Y13990574D02*
G01*
X7001763Y13975079D01*
X7017511Y13964666D01*
X7043420Y13959586D01*
X7058913Y13959586D01*
X7085075Y13964666D01*
X7100570Y13975079D01*
X7105650Y13990574D01*
X7105650Y14000987D01*
X7100570Y14016736D01*
X7085075Y14027150D01*
X7058913Y14032229D01*
X7043420Y14032229D01*
X7017511Y14027150D01*
X7001763Y14016736D01*
X6996684Y14000987D01*
X6996684Y13990574D01*
X6996684Y14066520D02*
G01*
X7105650Y14066520D01*
X6996684Y14139163D02*
G01*
X7069327Y14066520D01*
X7043420Y14092428D02*
G01*
X7105650Y14139163D01*
X10134600Y14648687D02*
G01*
X10145013Y14654021D01*
X10160508Y14669516D01*
X10160508Y14560550D01*
X10226040Y14669516D02*
G01*
X10210545Y14664436D01*
X10200131Y14648687D01*
X10194797Y14622779D01*
X10194797Y14607286D01*
X10200131Y14581124D01*
X10210545Y14565629D01*
X10226040Y14560550D01*
X10236454Y14560550D01*
X10251947Y14565629D01*
X10262361Y14581124D01*
X10267695Y14607286D01*
X10267695Y14622779D01*
X10262361Y14648687D01*
X10251947Y14664436D01*
X10236454Y14669516D01*
X10226040Y14669516D01*
X10301986Y14669516D02*
G01*
X10301986Y14560550D01*
X10374629Y14669516D02*
G01*
X10301986Y14596871D01*
X10327893Y14622779D02*
G01*
X10374629Y14560550D01*
X10261594Y15220187D02*
G01*
X10272008Y15225521D01*
X10287502Y15241016D01*
X10287502Y15132050D01*
X10353034Y15241016D02*
G01*
X10337540Y15235936D01*
X10327126Y15220187D01*
X10321792Y15194279D01*
X10321792Y15178786D01*
X10327126Y15152624D01*
X10337540Y15137129D01*
X10353034Y15132050D01*
X10363448Y15132050D01*
X10378942Y15137129D01*
X10389356Y15152624D01*
X10394690Y15178786D01*
X10394690Y15194279D01*
X10389356Y15220187D01*
X10378942Y15235936D01*
X10363448Y15241016D01*
X10353034Y15241016D01*
X10459968Y15241016D02*
G01*
X10444474Y15235936D01*
X10434060Y15220187D01*
X10428980Y15194279D01*
X10428980Y15178786D01*
X10434060Y15152624D01*
X10444474Y15137129D01*
X10459968Y15132050D01*
X10470382Y15132050D01*
X10486130Y15137129D01*
X10496544Y15152624D01*
X10501624Y15178786D01*
X10501624Y15194279D01*
X10496544Y15220187D01*
X10486130Y15235936D01*
X10470382Y15241016D01*
X10459968Y15241016D01*
X8166608Y15293594D02*
G01*
X8156193Y15288260D01*
X8145779Y15278100D01*
X8140700Y15262352D01*
X8140700Y15251937D01*
X8145779Y15236444D01*
X8156193Y15226029D01*
X8166608Y15220950D01*
X8182356Y15220950D01*
X8192770Y15226029D01*
X8202929Y15236444D01*
X8208263Y15251937D01*
X8208263Y15262352D01*
X8202929Y15278100D01*
X8192770Y15288260D01*
X8182356Y15293594D01*
X8166608Y15293594D01*
X8242554Y15293594D02*
G01*
X8242554Y15184374D01*
X8242554Y15278100D02*
G01*
X8252968Y15288260D01*
X8263381Y15293594D01*
X8278875Y15293594D01*
X8289290Y15288260D01*
X8299704Y15278100D01*
X8304784Y15262352D01*
X8304784Y15251937D01*
X8299704Y15236444D01*
X8289290Y15226029D01*
X8278875Y15220950D01*
X8263381Y15220950D01*
X8252968Y15226029D01*
X8242554Y15236444D01*
X8401558Y15293594D02*
G01*
X8401558Y15220950D01*
X8401558Y15278100D02*
G01*
X8391143Y15288260D01*
X8380729Y15293594D01*
X8365236Y15293594D01*
X8354822Y15288260D01*
X8344408Y15278100D01*
X8339074Y15262352D01*
X8339074Y15251937D01*
X8344408Y15236444D01*
X8354822Y15226029D01*
X8365236Y15220950D01*
X8380729Y15220950D01*
X8391143Y15226029D01*
X8401558Y15236444D01*
X8440927Y15304007D02*
G01*
X8440927Y15309087D01*
X8446261Y15319502D01*
X8451341Y15324836D01*
X8461756Y15329916D01*
X8482584Y15329916D01*
X8492997Y15324836D01*
X8498077Y15319502D01*
X8503411Y15309087D01*
X8503411Y15298674D01*
X8498077Y15288260D01*
X8487663Y15272766D01*
X8435847Y15220950D01*
X8508491Y15220950D01*
X8542781Y15309087D02*
G01*
X8553195Y15314421D01*
X8568690Y15329916D01*
X8568690Y15220950D01*
X8613393Y15329916D02*
G01*
X8670543Y15329916D01*
X8639556Y15288260D01*
X8655050Y15288260D01*
X8665463Y15283179D01*
X8670543Y15278100D01*
X8675877Y15262352D01*
X8675877Y15251937D01*
X8670543Y15236444D01*
X8660129Y15226029D01*
X8644636Y15220950D01*
X8629141Y15220950D01*
X8613393Y15226029D01*
X8608313Y15231110D01*
X8602979Y15241524D01*
X8761984Y15329916D02*
G01*
X8710168Y15257271D01*
X8788145Y15257271D01*
X8761984Y15329916D02*
G01*
X8761984Y15220950D01*
X8822436Y15293594D02*
G01*
X8822436Y15184374D01*
X8822436Y15278100D02*
G01*
X8832850Y15288260D01*
X8843009Y15293594D01*
X8858758Y15293594D01*
X8869172Y15288260D01*
X8879586Y15278100D01*
X8884665Y15262352D01*
X8884665Y15251937D01*
X8879586Y15236444D01*
X8869172Y15226029D01*
X8858758Y15220950D01*
X8843009Y15220950D01*
X8832850Y15226029D01*
X8822436Y15236444D01*
X8981440Y15293594D02*
G01*
X8981440Y15220950D01*
X8981440Y15278100D02*
G01*
X8971025Y15288260D01*
X8960611Y15293594D01*
X8944863Y15293594D01*
X8934450Y15288260D01*
X8924290Y15278100D01*
X8918956Y15262352D01*
X8918956Y15251937D01*
X8924290Y15236444D01*
X8934450Y15226029D01*
X8944863Y15220950D01*
X8960611Y15220950D01*
X8971025Y15226029D01*
X8981440Y15236444D01*
X8483600Y15571216D02*
G01*
X8483600Y15493237D01*
X8488679Y15477744D01*
X8499093Y15467329D01*
X8514841Y15462250D01*
X8525256Y15462250D01*
X8540750Y15467329D01*
X8551163Y15477744D01*
X8556243Y15493237D01*
X8556243Y15571216D01*
X8590534Y15550387D02*
G01*
X8600947Y15555721D01*
X8616695Y15571216D01*
X8616695Y15462250D01*
X5335015Y5816600D02*
G01*
X5226050Y5816600D01*
X5335015Y5816600D02*
G01*
X5335015Y5769863D01*
X5329936Y5754370D01*
X5324602Y5749036D01*
X5314188Y5743955D01*
X5298693Y5743955D01*
X5288279Y5749036D01*
X5283200Y5754370D01*
X5277865Y5769863D01*
X5277865Y5816600D01*
X5314188Y5709665D02*
G01*
X5319522Y5699252D01*
X5335015Y5683504D01*
X5226050Y5683504D01*
X13867384Y5778500D02*
G01*
X13976350Y5778500D01*
X13867384Y5778500D02*
G01*
X13867384Y5825236D01*
X13872463Y5840729D01*
X13877797Y5846063D01*
X13888211Y5851144D01*
X13903706Y5851144D01*
X13914120Y5846063D01*
X13919200Y5840729D01*
X13924534Y5825236D01*
X13924534Y5778500D01*
X13893291Y5890768D02*
G01*
X13888211Y5890768D01*
X13877797Y5895847D01*
X13872463Y5901181D01*
X13867384Y5911595D01*
X13867384Y5932170D01*
X13872463Y5942584D01*
X13877797Y5947918D01*
X13888211Y5952997D01*
X13898625Y5952997D01*
X13909040Y5947918D01*
X13924534Y5937504D01*
X13976350Y5885434D01*
X13976350Y5958331D01*
X5600700Y12665440D02*
G01*
X5600700Y12592542D01*
X5600700Y12665440D02*
G01*
X5631941Y12665440D01*
X5642356Y12661884D01*
X5645658Y12658328D01*
X5649213Y12651470D01*
X5649213Y12644612D01*
X5645658Y12637754D01*
X5642356Y12634198D01*
X5631941Y12630642D01*
X5600700Y12630642D02*
G01*
X5631941Y12630642D01*
X5642356Y12627340D01*
X5645658Y12623784D01*
X5649213Y12616926D01*
X5649213Y12606512D01*
X5645658Y12599654D01*
X5642356Y12596098D01*
X5631941Y12592542D01*
X5600700Y12592542D01*
X13438886Y12157455D02*
G01*
X13411200Y12084558D01*
X13438886Y12157455D02*
G01*
X13466572Y12084558D01*
X13421613Y12108942D02*
G01*
X13456158Y12108942D01*
X5676900Y12651470D02*
G01*
X5683758Y12655026D01*
X5694172Y12665440D01*
X5694172Y12592542D01*
X13494258Y12157455D02*
G01*
X13532358Y12157455D01*
X13511529Y12129770D01*
X13521943Y12129770D01*
X13529056Y12126213D01*
X13532358Y12122658D01*
X13535913Y12112244D01*
X13535913Y12105386D01*
X13532358Y12094971D01*
X13525500Y12088113D01*
X13515086Y12084558D01*
X13504672Y12084558D01*
X13494258Y12088113D01*
X13490956Y12091670D01*
X13487400Y12098528D01*
X13579602Y12157455D02*
G01*
X13569188Y12153900D01*
X13562329Y12143486D01*
X13558774Y12126213D01*
X13558774Y12115800D01*
X13562329Y12098528D01*
X13569188Y12088113D01*
X13579602Y12084558D01*
X13586459Y12084558D01*
X13596874Y12088113D01*
X13603731Y12098528D01*
X13607288Y12115800D01*
X13607288Y12126213D01*
X13603731Y12143486D01*
X13596874Y12153900D01*
X13586459Y12157455D01*
X13579602Y12157455D01*
X5628386Y12160996D02*
G01*
X5600700Y12088098D01*
X5628386Y12160996D02*
G01*
X5656072Y12088098D01*
X5611113Y12112482D02*
G01*
X5645658Y12112482D01*
X5676900Y12143470D02*
G01*
X5683758Y12147026D01*
X5694172Y12157440D01*
X5694172Y12084542D01*
X13411200Y12665425D02*
G01*
X13411200Y12592527D01*
X13411200Y12665425D02*
G01*
X13442441Y12665425D01*
X13452856Y12661869D01*
X13456158Y12658313D01*
X13459713Y12651455D01*
X13459713Y12644597D01*
X13456158Y12637739D01*
X13452856Y12634183D01*
X13442441Y12630627D01*
X13411200Y12630627D02*
G01*
X13442441Y12630627D01*
X13452856Y12627325D01*
X13456158Y12623769D01*
X13459713Y12616911D01*
X13459713Y12606497D01*
X13456158Y12599639D01*
X13452856Y12596083D01*
X13442441Y12592527D01*
X13411200Y12592527D01*
X13494258Y12665455D02*
G01*
X13532358Y12665455D01*
X13511529Y12637770D01*
X13521943Y12637770D01*
X13529056Y12634213D01*
X13532358Y12630658D01*
X13535913Y12620244D01*
X13535913Y12613386D01*
X13532358Y12602971D01*
X13525500Y12596113D01*
X13515086Y12592558D01*
X13504672Y12592558D01*
X13494258Y12596113D01*
X13490956Y12599670D01*
X13487400Y12606528D01*
X13579602Y12665455D02*
G01*
X13569188Y12661900D01*
X13562329Y12651486D01*
X13558774Y12634213D01*
X13558774Y12623800D01*
X13562329Y12606528D01*
X13569188Y12596113D01*
X13579602Y12592558D01*
X13586459Y12592558D01*
X13596874Y12596113D01*
X13603731Y12606528D01*
X13607288Y12623800D01*
X13607288Y12634213D01*
X13603731Y12651486D01*
X13596874Y12661900D01*
X13586459Y12665455D01*
X13579602Y12665455D01*
D10*
X7972043Y13105892D02*
G01*
X7962900Y13124434D01*
X7935213Y13133578D01*
X7916672Y13133578D01*
X7888986Y13124434D01*
X7870443Y13096747D01*
X7861300Y13050520D01*
X7861300Y13004292D01*
X7870443Y12967462D01*
X7888986Y12948920D01*
X7916672Y12939776D01*
X7926070Y12939776D01*
X7953756Y12948920D01*
X7972043Y12967462D01*
X7981441Y12995147D01*
X7981441Y13004292D01*
X7972043Y13031978D01*
X7953756Y13050520D01*
X7926070Y13059663D01*
X7916672Y13059663D01*
X7888986Y13050520D01*
X7870443Y13031978D01*
X7861300Y13004292D01*
X8097774Y13133578D02*
G01*
X8070088Y13124434D01*
X8051545Y13096747D01*
X8042402Y13050520D01*
X8042402Y13022834D01*
X8051545Y12976605D01*
X8070088Y12948920D01*
X8097774Y12939776D01*
X8116315Y12939776D01*
X8144002Y12948920D01*
X8162290Y12976605D01*
X8171688Y13022834D01*
X8171688Y13050520D01*
X8162290Y13096747D01*
X8144002Y13124434D01*
X8116315Y13133578D01*
X8097774Y13133578D01*
X8374888Y13133578D02*
G01*
X8374888Y12939776D01*
X8374888Y13133578D02*
G01*
X8457945Y13133578D01*
X8485631Y13124434D01*
X8495029Y13115289D01*
X8504174Y13096747D01*
X8504174Y13069062D01*
X8495029Y13050520D01*
X8485631Y13041376D01*
X8457945Y13031978D01*
X8374888Y13031978D01*
X8565134Y13133578D02*
G01*
X8565134Y12939776D01*
X8626093Y13133578D02*
G01*
X8626093Y12939776D01*
X8626093Y13133578D02*
G01*
X8755379Y12939776D01*
X8755379Y13133578D02*
G01*
X8755379Y12939776D01*
X8958579Y13133578D02*
G01*
X8958579Y12939776D01*
X8958579Y13133578D02*
G01*
X9078722Y13133578D01*
X8958579Y13041376D02*
G01*
X9032493Y13041376D01*
X9213595Y13133578D02*
G01*
X9139681Y12939776D01*
X9213595Y13133578D02*
G01*
X9287509Y12939776D01*
X9167368Y13004292D02*
G01*
X9259570Y13004292D01*
X9348470Y13133578D02*
G01*
X9348470Y12939776D01*
X9348470Y13133578D02*
G01*
X9422129Y12939776D01*
X9496043Y13133578D02*
G01*
X9422129Y12939776D01*
X9496043Y13133578D02*
G01*
X9496043Y12939776D01*
X9557004Y13133578D02*
G01*
X9557004Y12939776D01*
X9756647Y13087350D02*
G01*
X9747250Y13105892D01*
X9728961Y13124434D01*
X9710420Y13133578D01*
X9673590Y13133578D01*
X9655047Y13124434D01*
X9636506Y13105892D01*
X9627361Y13087350D01*
X9617963Y13059663D01*
X9617963Y13013689D01*
X9627361Y12985750D01*
X9636506Y12967462D01*
X9655047Y12948920D01*
X9673590Y12939776D01*
X9710420Y12939776D01*
X9728961Y12948920D01*
X9747250Y12967462D01*
X9756647Y12985750D01*
X9872979Y13133578D02*
G01*
X9854438Y13124434D01*
X9836150Y13105892D01*
X9826752Y13087350D01*
X9817608Y13059663D01*
X9817608Y13013689D01*
X9826752Y12985750D01*
X9836150Y12967462D01*
X9854438Y12948920D01*
X9872979Y12939776D01*
X9909809Y12939776D01*
X9928352Y12948920D01*
X9946893Y12967462D01*
X9956038Y12985750D01*
X9965436Y13013689D01*
X9965436Y13059663D01*
X9956038Y13087350D01*
X9946893Y13105892D01*
X9928352Y13124434D01*
X9909809Y13133578D01*
X9872979Y13133578D01*
X10026395Y13133578D02*
G01*
X10026395Y12939776D01*
X10026395Y13133578D02*
G01*
X10100309Y12939776D01*
X10173970Y13133578D02*
G01*
X10100309Y12939776D01*
X10173970Y13133578D02*
G01*
X10173970Y12939776D01*
X10506709Y13105892D02*
G01*
X10488168Y13124434D01*
X10460481Y13133578D01*
X10423397Y13133578D01*
X10395711Y13124434D01*
X10377170Y13105892D01*
X10377170Y13087350D01*
X10386568Y13069062D01*
X10395711Y13059663D01*
X10414254Y13050520D01*
X10469625Y13031978D01*
X10488168Y13022834D01*
X10497311Y13013689D01*
X10506709Y12995147D01*
X10506709Y12967462D01*
X10488168Y12948920D01*
X10460481Y12939776D01*
X10423397Y12939776D01*
X10395711Y12948920D01*
X10377170Y12967462D01*
X10567670Y13133578D02*
G01*
X10567670Y12939776D01*
X10567670Y12939776D02*
G01*
X10678413Y12939776D01*
X10794745Y13133578D02*
G01*
X10776204Y13124434D01*
X10757915Y13105892D01*
X10748518Y13087350D01*
X10739374Y13059663D01*
X10739374Y13013689D01*
X10748518Y12985750D01*
X10757915Y12967462D01*
X10776204Y12948920D01*
X10794745Y12939776D01*
X10831829Y12939776D01*
X10850118Y12948920D01*
X10868659Y12967462D01*
X10877804Y12985750D01*
X10887202Y13013689D01*
X10887202Y13059663D01*
X10877804Y13087350D01*
X10868659Y13105892D01*
X10850118Y13124434D01*
X10831829Y13133578D01*
X10794745Y13133578D01*
X11012677Y13133578D02*
G01*
X11012677Y12939776D01*
X10948161Y13133578D02*
G01*
X11077447Y13133578D01*
G36*
X9055100Y4419600D02*
G01*
X9066022Y4408119D01*
X9077502Y4397197D01*
X9089542Y4386884D01*
X9102140Y4377232D01*
X9115145Y4368190D01*
X9128658Y4359859D01*
X9142526Y4352239D01*
X9156801Y4345330D01*
X9171432Y4339183D01*
X9186316Y4333798D01*
X9201505Y4329176D01*
X9216847Y4325315D01*
X9232442Y4322318D01*
X9248089Y4320082D01*
X9263888Y4318660D01*
X9279737Y4318050D01*
X9295587Y4318254D01*
X9311386Y4319270D01*
X9327134Y4321098D01*
X9342780Y4323740D01*
X9350552Y4325315D01*
X9365894Y4329176D01*
X9381083Y4333798D01*
X9395968Y4339183D01*
X9410598Y4345330D01*
X9424873Y4352239D01*
X9438741Y4359859D01*
X9452254Y4368190D01*
X9465259Y4377232D01*
X9477857Y4386884D01*
X9489897Y4397197D01*
X9501378Y4408119D01*
X9512300Y4419600D01*
G37*
G36*
X13385800Y8356600D02*
G01*
X13396722Y8345119D01*
X13408202Y8334197D01*
X13420242Y8323884D01*
X13432840Y8314232D01*
X13445845Y8305190D01*
X13459358Y8296859D01*
X13473226Y8289239D01*
X13487501Y8282330D01*
X13502132Y8276183D01*
X13517016Y8270798D01*
X13532205Y8266175D01*
X13547547Y8262315D01*
X13563142Y8259318D01*
X13578789Y8257082D01*
X13594588Y8255660D01*
X13610437Y8255050D01*
X13626287Y8255253D01*
X13642086Y8256270D01*
X13657834Y8258098D01*
X13673480Y8260740D01*
X13681252Y8262315D01*
X13696594Y8266175D01*
X13711783Y8270798D01*
X13726668Y8276183D01*
X13741298Y8282330D01*
X13755573Y8289239D01*
X13769441Y8296859D01*
X13782954Y8305190D01*
X13795959Y8314232D01*
X13808557Y8323884D01*
X13820597Y8334197D01*
X13832078Y8345119D01*
X13843000Y8356600D01*
G37*
G36*
X14274800Y14998700D02*
G01*
X14263319Y14987778D01*
X14252397Y14976297D01*
X14242084Y14964257D01*
X14232432Y14951659D01*
X14223390Y14938654D01*
X14215059Y14925141D01*
X14207439Y14911273D01*
X14200530Y14896998D01*
X14194383Y14882368D01*
X14188998Y14867483D01*
X14184376Y14852294D01*
X14180515Y14836952D01*
X14177518Y14821357D01*
X14175282Y14805710D01*
X14173860Y14789912D01*
X14173250Y14774062D01*
X14173454Y14758212D01*
X14174469Y14742413D01*
X14176298Y14726666D01*
X14178940Y14711019D01*
X14180515Y14703247D01*
X14184376Y14687905D01*
X14188998Y14672716D01*
X14194383Y14657832D01*
X14200530Y14643201D01*
X14207439Y14628926D01*
X14215059Y14615058D01*
X14223390Y14601545D01*
X14232432Y14588540D01*
X14242084Y14575942D01*
X14252397Y14563902D01*
X14263319Y14552422D01*
X14274800Y14541500D01*
G37*
G36*
X5588000Y14427200D02*
G01*
X5598922Y14415719D01*
X5610402Y14404797D01*
X5622442Y14394484D01*
X5635040Y14384832D01*
X5648045Y14375790D01*
X5661558Y14367459D01*
X5675426Y14359839D01*
X5689701Y14352930D01*
X5704332Y14346783D01*
X5719216Y14341398D01*
X5734405Y14336776D01*
X5749747Y14332915D01*
X5765342Y14329918D01*
X5780989Y14327682D01*
X5796788Y14326260D01*
X5812637Y14325650D01*
X5828487Y14325854D01*
X5844286Y14326869D01*
X5860034Y14328698D01*
X5875680Y14331340D01*
X5883452Y14332915D01*
X5898794Y14336776D01*
X5913983Y14341398D01*
X5928868Y14346783D01*
X5943498Y14352930D01*
X5957773Y14359839D01*
X5971641Y14367459D01*
X5985154Y14375790D01*
X5998159Y14384832D01*
X6010757Y14394484D01*
X6022797Y14404797D01*
X6034278Y14415719D01*
X6045200Y14427200D01*
G37*
G36*
X5003800Y15887700D02*
G01*
X4992319Y15876778D01*
X4981397Y15865297D01*
X4971084Y15853257D01*
X4961432Y15840659D01*
X4952390Y15827654D01*
X4944059Y15814141D01*
X4936439Y15800273D01*
X4929530Y15785998D01*
X4923383Y15771368D01*
X4917998Y15756483D01*
X4913376Y15741294D01*
X4909515Y15725952D01*
X4906518Y15710357D01*
X4904282Y15694710D01*
X4902860Y15678912D01*
X4902250Y15663062D01*
X4902454Y15647212D01*
X4903470Y15631413D01*
X4905298Y15615666D01*
X4907940Y15600019D01*
X4909515Y15592247D01*
X4913376Y15576905D01*
X4917998Y15561716D01*
X4923383Y15546832D01*
X4929530Y15532201D01*
X4936439Y15517926D01*
X4944059Y15504058D01*
X4952390Y15490545D01*
X4961432Y15477540D01*
X4971084Y15464942D01*
X4981397Y15452902D01*
X4992319Y15441422D01*
X5003800Y15430500D01*
G37*
G36*
X13487400Y14998700D02*
G01*
X13475919Y14987778D01*
X13464997Y14976297D01*
X13454684Y14964257D01*
X13445032Y14951659D01*
X13435990Y14938654D01*
X13427659Y14925141D01*
X13420039Y14911273D01*
X13413130Y14896998D01*
X13406983Y14882368D01*
X13401598Y14867483D01*
X13396976Y14852294D01*
X13393115Y14836952D01*
X13390118Y14821357D01*
X13387882Y14805710D01*
X13386460Y14789912D01*
X13385850Y14774062D01*
X13386054Y14758212D01*
X13387069Y14742413D01*
X13388898Y14726666D01*
X13391540Y14711019D01*
X13393115Y14703247D01*
X13396976Y14687905D01*
X13401598Y14672716D01*
X13406983Y14657832D01*
X13413130Y14643201D01*
X13420039Y14628926D01*
X13427659Y14615058D01*
X13435990Y14601545D01*
X13445032Y14588540D01*
X13454684Y14575942D01*
X13464997Y14563902D01*
X13475919Y14552422D01*
X13487400Y14541500D01*
G37*
G36*
X11874500Y8763000D02*
G01*
X11874500Y8305800D01*
X11885980Y8316722D01*
X11896902Y8328202D01*
X11907215Y8340242D01*
X11916867Y8352840D01*
X11925909Y8365845D01*
X11934240Y8379358D01*
X11941860Y8393226D01*
X11948769Y8407501D01*
X11954916Y8422132D01*
X11960301Y8437016D01*
X11964924Y8452205D01*
X11968784Y8467547D01*
X11971782Y8483142D01*
X11974017Y8498789D01*
X11975439Y8514588D01*
X11976049Y8530437D01*
X11975846Y8546287D01*
X11974830Y8562086D01*
X11973001Y8577834D01*
X11970359Y8593480D01*
X11968784Y8601252D01*
X11964924Y8616594D01*
X11960301Y8631783D01*
X11954916Y8646668D01*
X11948769Y8661298D01*
X11941860Y8675573D01*
X11934240Y8689441D01*
X11925909Y8702954D01*
X11916867Y8715959D01*
X11907215Y8728557D01*
X11896902Y8740597D01*
X11885980Y8752078D01*
G37*
G36*
X11330025Y14922500D02*
G01*
X11330025Y14592300D01*
X11339576Y14602053D01*
X11348567Y14612315D01*
X11356949Y14623135D01*
X11364671Y14634413D01*
X11371681Y14646148D01*
X11377980Y14658289D01*
X11383518Y14670786D01*
X11388344Y14683587D01*
X11392357Y14696643D01*
X11395608Y14709901D01*
X11398046Y14723363D01*
X11399672Y14736927D01*
X11400485Y14750542D01*
X11400485Y14764257D01*
X11399672Y14777872D01*
X11398046Y14791436D01*
X11395608Y14804898D01*
X11392357Y14818156D01*
X11388344Y14831212D01*
X11383518Y14844013D01*
X11377980Y14856510D01*
X11371681Y14868651D01*
X11364671Y14880386D01*
X11356949Y14891664D01*
X11348567Y14902484D01*
X11339576Y14912746D01*
G37*
G36*
X12012574Y5194300D02*
G01*
X12003024Y5184546D01*
X11994032Y5174284D01*
X11985650Y5163464D01*
X11977928Y5152186D01*
X11970918Y5140452D01*
X11964619Y5128310D01*
X11959082Y5115814D01*
X11954256Y5103012D01*
X11950242Y5089956D01*
X11946991Y5076698D01*
X11944553Y5063236D01*
X11942927Y5049672D01*
X11942114Y5036058D01*
X11942114Y5022342D01*
X11942927Y5008727D01*
X11944553Y4995164D01*
X11946991Y4981702D01*
X11950242Y4968443D01*
X11954256Y4955387D01*
X11959082Y4942586D01*
X11964619Y4930089D01*
X11970918Y4917948D01*
X11977928Y4906213D01*
X11985650Y4894935D01*
X11994032Y4884115D01*
X12003024Y4873853D01*
X12012574Y4864100D01*
G37*
G36*
X6096000Y13978686D02*
G01*
X6082334Y13978280D01*
X6068720Y13977061D01*
X6055207Y13975029D01*
X6041847Y13972184D01*
X6028690Y13968526D01*
X6022187Y13966444D01*
X6009386Y13961618D01*
X5996889Y13956080D01*
X5984748Y13949781D01*
X5973013Y13942771D01*
X5961735Y13935049D01*
X5950915Y13926667D01*
X5940653Y13917676D01*
X5930900Y13908125D01*
X6261100Y13908125D01*
X6251346Y13917676D01*
X6241084Y13926667D01*
X6230264Y13935049D01*
X6218986Y13942771D01*
X6207252Y13949781D01*
X6195110Y13956080D01*
X6182614Y13961618D01*
X6169812Y13966444D01*
X6156756Y13970457D01*
X6143498Y13973708D01*
X6130036Y13976146D01*
X6116472Y13977772D01*
X6102858Y13978585D01*
G37*
D13*
X10172954Y13868654D02*
G01*
X10680954Y13868654D01*
X10680954Y14122654D01*
X10172954Y14122654D01*
X10172954Y13868654D01*
X7963154Y14452345D02*
G01*
X7963154Y13944345D01*
X8217154Y13944345D01*
X8217154Y14452345D01*
X7963154Y14452345D01*
X11023854Y14299945D02*
G01*
X11023854Y13791945D01*
X11277854Y13791945D01*
X11277854Y14299945D01*
X11023854Y14299945D01*
X8318245Y13817345D02*
G01*
X7810245Y13817345D01*
X7810245Y13563345D01*
X8318245Y13563345D01*
X8318245Y13817345D01*
D14*
X10048900Y4400100D02*
G01*
X10048900Y4820099D01*
X10448899Y4400100D02*
G01*
X10448899Y4820099D01*
X10048900Y4400100D02*
G01*
X10155671Y4400100D01*
X10342128Y4400100D02*
G01*
X10448899Y4400100D01*
X10048900Y4820099D02*
G01*
X10155671Y4820099D01*
X10342128Y4820099D02*
G01*
X10448899Y4820099D01*
X9486900Y4762500D02*
G01*
X9385300Y4762500D01*
X9436100Y4813300D02*
G01*
X9436100Y4711700D01*
D15*
X7607300Y4318000D02*
G01*
X7289800Y4318000D01*
D10*
X7607300Y4318000D02*
G01*
X7607300Y4064000D01*
X7099300Y4064000D01*
X7099300Y4318000D01*
X7289800Y4318000D01*
D14*
X6129020Y4734560D02*
G01*
X6367779Y4734560D01*
X6367779Y4734560D02*
G01*
X6367779Y4104639D01*
X6367779Y4104639D02*
G01*
X6129020Y4104639D01*
X6129020Y4104639D02*
G01*
X6129020Y4734560D01*
X13817600Y8699500D02*
G01*
X13716000Y8699500D01*
X13766800Y8750300D02*
G01*
X13766800Y8648700D01*
X14617700Y14566900D02*
G01*
X14617700Y14668500D01*
X14668500Y14617700D02*
G01*
X14566900Y14617700D01*
X6019800Y14770100D02*
G01*
X5918200Y14770100D01*
X5969000Y14820900D02*
G01*
X5969000Y14719300D01*
X5346700Y15455900D02*
G01*
X5346700Y15557500D01*
X5397500Y15506700D02*
G01*
X5295900Y15506700D01*
X13830300Y14566900D02*
G01*
X13830300Y14668500D01*
X13881100Y14617700D02*
G01*
X13779500Y14617700D01*
X11531600Y8737600D02*
G01*
X11531600Y8636000D01*
X11480800Y8686800D02*
G01*
X11582400Y8686800D01*
X12566200Y8772499D02*
G01*
X12986199Y8772499D01*
X12566200Y8372500D02*
G01*
X12986199Y8372500D01*
X12566200Y8772499D02*
G01*
X12566200Y8665728D01*
X12566200Y8479271D02*
G01*
X12566200Y8372500D01*
X12986199Y8772499D02*
G01*
X12986199Y8665728D01*
X12986199Y8479271D02*
G01*
X12986199Y8372500D01*
X5889599Y5328099D02*
G01*
X5889599Y4908100D01*
X5489600Y5328099D02*
G01*
X5489600Y4908100D01*
X5889599Y5328099D02*
G01*
X5782828Y5328099D01*
X5596371Y5328099D02*
G01*
X5489600Y5328099D01*
X5889599Y4908100D02*
G01*
X5782828Y4908100D01*
X5596371Y4908100D02*
G01*
X5489600Y4908100D01*
X13661999Y7448999D02*
G01*
X13661999Y7029000D01*
X13262000Y7448999D02*
G01*
X13262000Y7029000D01*
X13661999Y7448999D02*
G01*
X13555228Y7448999D01*
X13368771Y7448999D02*
G01*
X13262000Y7448999D01*
X13661999Y7029000D02*
G01*
X13555228Y7029000D01*
X13368771Y7029000D02*
G01*
X13262000Y7029000D01*
X4880000Y14382300D02*
G01*
X4880000Y14802299D01*
X5279999Y14382300D02*
G01*
X5279999Y14802299D01*
X4880000Y14382300D02*
G01*
X4986771Y14382300D01*
X5173228Y14382300D02*
G01*
X5279999Y14382300D01*
X4880000Y14802299D02*
G01*
X4986771Y14802299D01*
X5173228Y14802299D02*
G01*
X5279999Y14802299D01*
X10998987Y14907387D02*
G01*
X11100587Y14907387D01*
X11050600Y14957399D02*
G01*
X11050600Y14855799D01*
X12343612Y4879212D02*
G01*
X12242012Y4879212D01*
X12291999Y4829200D02*
G01*
X12291999Y4930800D01*
X5946013Y13577087D02*
G01*
X5946013Y13678687D01*
X5896000Y13628700D02*
G01*
X5997600Y13628700D01*
D13*
X10058145Y5968745D02*
G01*
X9550145Y5968745D01*
X9550145Y5714745D01*
X10058145Y5714745D01*
X10058145Y5968745D01*
X9473945Y5968745D02*
G01*
X8965945Y5968745D01*
X8965945Y5714745D01*
X9473945Y5714745D01*
X9473945Y5968745D01*
X14465554Y15925545D02*
G01*
X14465554Y15417545D01*
X14719554Y15417545D01*
X14719554Y15925545D01*
X14465554Y15925545D01*
X6413754Y15011145D02*
G01*
X6413754Y14503145D01*
X6667754Y14503145D01*
X6667754Y15011145D01*
X6413754Y15011145D01*
X11925045Y9753345D02*
G01*
X11417045Y9753345D01*
X11417045Y9499345D01*
X11925045Y9499345D01*
X11925045Y9753345D01*
X9296654Y15620745D02*
G01*
X9296654Y15112745D01*
X9550654Y15112745D01*
X9550654Y15620745D01*
X9296654Y15620745D01*
D14*
X4954699Y13855197D02*
G01*
X5484700Y13855197D01*
X5484700Y13475202D02*
G01*
X4954699Y13475202D01*
X4954699Y13475202D02*
G01*
X4954699Y13582820D01*
X4954699Y13747579D02*
G01*
X4954699Y13855197D01*
X5484700Y13475202D02*
G01*
X5484700Y13582820D01*
X5484700Y13747579D02*
G01*
X5484700Y13855197D01*
D15*
X12827000Y15836900D02*
G01*
X10985500Y15836900D01*
D10*
X12827000Y15836900D02*
G01*
X13081000Y15836900D01*
X13081000Y15582900D01*
X10795000Y15582900D01*
X10795000Y15836900D01*
X10985500Y15836900D01*
D15*
X5905500Y7988300D02*
G01*
X5905500Y8305800D01*
D10*
X5905500Y7988300D02*
G01*
X5651500Y7988300D01*
X5651500Y8496300D01*
X5905500Y8496300D01*
X5905500Y8305800D01*
D15*
X12433300Y4343400D02*
G01*
X12115800Y4343400D01*
D10*
X12433300Y4343400D02*
G01*
X12433300Y4089400D01*
X11925300Y4089400D01*
X11925300Y4343400D01*
X12115800Y4343400D01*
D14*
X11008486Y9062593D02*
G01*
X11008486Y8666606D01*
D10*
X9830993Y6214287D02*
G01*
X9219006Y6214287D01*
X9842550Y6714312D02*
G01*
X9219006Y6714312D01*
D14*
X12639040Y8999220D02*
G01*
X12639040Y9237979D01*
X12639040Y9237979D02*
G01*
X13268959Y9237979D01*
X13268959Y9237979D02*
G01*
X13268959Y8999220D01*
X13268959Y8999220D02*
G01*
X12639040Y8999220D01*
X11356340Y8999220D02*
G01*
X11356340Y9237979D01*
X11356340Y9237979D02*
G01*
X11986259Y9237979D01*
X11986259Y9237979D02*
G01*
X11986259Y8999220D01*
X11986259Y8999220D02*
G01*
X11356340Y8999220D01*
X7495540Y6751320D02*
G01*
X7495540Y6990079D01*
X7495540Y6990079D02*
G01*
X8125459Y6990079D01*
X8125459Y6990079D02*
G01*
X8125459Y6751320D01*
X8125459Y6751320D02*
G01*
X7495540Y6751320D01*
X7495540Y6116320D02*
G01*
X7495540Y6355079D01*
X7495540Y6355079D02*
G01*
X8125459Y6355079D01*
X8125459Y6355079D02*
G01*
X8125459Y6116320D01*
X8125459Y6116320D02*
G01*
X7495540Y6116320D01*
X9408159Y13860779D02*
G01*
X9408159Y13622020D01*
X9408159Y13622020D02*
G01*
X8778240Y13622020D01*
X8778240Y13622020D02*
G01*
X8778240Y13860779D01*
X8778240Y13860779D02*
G01*
X9408159Y13860779D01*
X7437120Y15567660D02*
G01*
X7675879Y15567660D01*
X7675879Y15567660D02*
G01*
X7675879Y14937739D01*
X7675879Y14937739D02*
G01*
X7437120Y14937739D01*
X7437120Y14937739D02*
G01*
X7437120Y15567660D01*
X9166859Y14724379D02*
G01*
X9166859Y14485620D01*
X9166859Y14485620D02*
G01*
X8536940Y14485620D01*
X8536940Y14485620D02*
G01*
X8536940Y14724379D01*
X8536940Y14724379D02*
G01*
X9166859Y14724379D01*
X6916420Y15567660D02*
G01*
X7155179Y15567660D01*
X7155179Y15567660D02*
G01*
X7155179Y14937739D01*
X7155179Y14937739D02*
G01*
X6916420Y14937739D01*
X6916420Y14937739D02*
G01*
X6916420Y15567660D01*
X9121140Y14053820D02*
G01*
X9121140Y14292579D01*
X9121140Y14292579D02*
G01*
X9751059Y14292579D01*
X9751059Y14292579D02*
G01*
X9751059Y14053820D01*
X9751059Y14053820D02*
G01*
X9121140Y14053820D01*
X10373359Y15854679D02*
G01*
X10373359Y15615920D01*
X10373359Y15615920D02*
G01*
X9743440Y15615920D01*
X9743440Y15615920D02*
G01*
X9743440Y15854679D01*
X9743440Y15854679D02*
G01*
X10373359Y15854679D01*
X7688579Y13667739D02*
G01*
X7449820Y13667739D01*
X7449820Y13667739D02*
G01*
X7449820Y14297660D01*
X7449820Y14297660D02*
G01*
X7688579Y14297660D01*
X7688579Y14297660D02*
G01*
X7688579Y13667739D01*
X7167879Y13667739D02*
G01*
X6929120Y13667739D01*
X6929120Y13667739D02*
G01*
X6929120Y14297660D01*
X6929120Y14297660D02*
G01*
X7167879Y14297660D01*
X7167879Y14297660D02*
G01*
X7167879Y13667739D01*
X10525759Y14724379D02*
G01*
X10525759Y14485620D01*
X10525759Y14485620D02*
G01*
X9895840Y14485620D01*
X9895840Y14485620D02*
G01*
X9895840Y14724379D01*
X9895840Y14724379D02*
G01*
X10525759Y14724379D01*
X10690859Y15321279D02*
G01*
X10690859Y15082520D01*
X10690859Y15082520D02*
G01*
X10060940Y15082520D01*
X10060940Y15082520D02*
G01*
X10060940Y15321279D01*
X10060940Y15321279D02*
G01*
X10690859Y15321279D01*
D16*
X9074800Y15328900D02*
G01*
X9074800Y15127399D01*
X8044799Y15127399D01*
X8044799Y15657400D01*
X9074800Y15657400D01*
X9074800Y15455900D01*
D14*
X3732860Y7758455D02*
G01*
X5190058Y7758455D01*
X5190058Y3841521D01*
X4108780Y3841521D01*
X3732860Y3841521D01*
X3732860Y7751851D01*
X3739464Y7758455D01*
X3535806Y7015581D02*
G01*
X3722954Y7015581D01*
X3729634Y7022261D01*
X3729634Y4562475D01*
X3722954Y4555794D01*
X3542487Y4555794D01*
X3535806Y4562475D01*
X3535806Y6982180D01*
X3535527Y7012381D01*
X3733215Y7564958D02*
G01*
X3599535Y7564958D01*
X3599535Y7364425D01*
X3606215Y7357745D01*
X3733215Y7357745D01*
X3733215Y4229531D02*
G01*
X3606215Y4229531D01*
X3599535Y4222851D01*
X3599535Y4022318D01*
X3733215Y4022318D01*
X15469539Y3836644D02*
G01*
X14012341Y3836644D01*
X14012341Y7753578D01*
X15093619Y7753578D01*
X15469539Y7753578D01*
X15469539Y3843248D01*
X15462935Y3836644D01*
X15666593Y4579518D02*
G01*
X15479445Y4579518D01*
X15472765Y4572838D01*
X15472765Y7032625D01*
X15479445Y7039305D01*
X15659912Y7039305D01*
X15666593Y7032625D01*
X15666593Y4612919D01*
X15666872Y4582718D01*
X15469184Y4030141D02*
G01*
X15602864Y4030141D01*
X15602864Y4230674D01*
X15596184Y4237354D01*
X15469184Y4237354D01*
X15469184Y7365568D02*
G01*
X15596184Y7365568D01*
X15602864Y7372248D01*
X15602864Y7572781D01*
X15469184Y7572781D01*
X11844020Y12242800D02*
G01*
X11844020Y12291060D01*
X11907520Y12242800D02*
G01*
X11844020Y12242800D01*
X11907520Y12291060D02*
G01*
X11907520Y12242800D01*
X11907520Y12496800D02*
G01*
X11907520Y12448539D01*
X11844020Y12496800D02*
G01*
X11907520Y12496800D01*
X11844020Y12448539D02*
G01*
X11844020Y12496800D01*
X10320020Y12242800D02*
G01*
X10320020Y12291060D01*
X10383520Y12242800D02*
G01*
X10320020Y12242800D01*
X10383520Y12291060D02*
G01*
X10383520Y12242800D01*
X10383520Y12496800D02*
G01*
X10383520Y12448539D01*
X10320020Y12496800D02*
G01*
X10383520Y12496800D01*
X10320020Y12448539D02*
G01*
X10320020Y12496800D01*
X8796020Y12242800D02*
G01*
X8796020Y12291060D01*
X8859520Y12242800D02*
G01*
X8796020Y12242800D01*
X8859520Y12291060D02*
G01*
X8859520Y12242800D01*
X8859520Y12496800D02*
G01*
X8859520Y12448539D01*
X8796020Y12496800D02*
G01*
X8859520Y12496800D01*
X8796020Y12448539D02*
G01*
X8796020Y12496800D01*
X7272020Y12240260D02*
G01*
X7272020Y12288520D01*
X7335520Y12240260D02*
G01*
X7272020Y12240260D01*
X7335520Y12288520D02*
G01*
X7335520Y12240260D01*
X7272020Y12494260D02*
G01*
X7335520Y12494260D01*
X12098020Y12242800D02*
G01*
X12098020Y12291060D01*
X12161520Y12242800D02*
G01*
X12098020Y12242800D01*
X12161520Y12291060D02*
G01*
X12161520Y12242800D01*
X12352020Y12242800D02*
G01*
X12352020Y12291060D01*
X12415520Y12242800D02*
G01*
X12352020Y12242800D01*
X12415520Y12291060D02*
G01*
X12415520Y12242800D01*
X12606020Y12242800D02*
G01*
X12606020Y12291060D01*
X12666979Y12242800D02*
G01*
X12606020Y12242800D01*
X12666979Y12291060D02*
G01*
X12666979Y12242800D01*
X12857479Y12242800D02*
G01*
X12857479Y12291060D01*
X12920979Y12242800D02*
G01*
X12857479Y12242800D01*
X12920979Y12291060D02*
G01*
X12920979Y12242800D01*
X13111479Y12242800D02*
G01*
X13111479Y12291060D01*
X13174979Y12242800D02*
G01*
X13111479Y12242800D01*
X13174979Y12291060D02*
G01*
X13174979Y12242800D01*
X13174979Y12496800D02*
G01*
X13174979Y12448539D01*
X13111479Y12496800D02*
G01*
X13174979Y12496800D01*
X13111479Y12448539D02*
G01*
X13111479Y12496800D01*
X12920979Y12496800D02*
G01*
X12920979Y12448539D01*
X12857479Y12496800D02*
G01*
X12920979Y12496800D01*
X12857479Y12448539D02*
G01*
X12857479Y12496800D01*
X12666979Y12496800D02*
G01*
X12666979Y12448539D01*
X12606020Y12496800D02*
G01*
X12666979Y12496800D01*
X12606020Y12448539D02*
G01*
X12606020Y12496800D01*
X12415520Y12496800D02*
G01*
X12415520Y12448539D01*
X12352020Y12496800D02*
G01*
X12415520Y12496800D01*
X12352020Y12448539D02*
G01*
X12352020Y12496800D01*
X12161520Y12496800D02*
G01*
X12161520Y12448539D01*
X12098020Y12496800D02*
G01*
X12161520Y12496800D01*
X12098020Y12448539D02*
G01*
X12098020Y12496800D01*
X10574020Y12242800D02*
G01*
X10574020Y12291060D01*
X10637520Y12242800D02*
G01*
X10574020Y12242800D01*
X10637520Y12291060D02*
G01*
X10637520Y12242800D01*
X10828020Y12242800D02*
G01*
X10828020Y12291060D01*
X10891520Y12242800D02*
G01*
X10828020Y12242800D01*
X10891520Y12291060D02*
G01*
X10891520Y12242800D01*
X11082020Y12242800D02*
G01*
X11082020Y12291060D01*
X11142979Y12242800D02*
G01*
X11082020Y12242800D01*
X11142979Y12291060D02*
G01*
X11142979Y12242800D01*
X11333479Y12242800D02*
G01*
X11333479Y12291060D01*
X11396979Y12242800D02*
G01*
X11333479Y12242800D01*
X11396979Y12291060D02*
G01*
X11396979Y12242800D01*
X11587479Y12242800D02*
G01*
X11587479Y12291060D01*
X11650979Y12242800D02*
G01*
X11587479Y12242800D01*
X11650979Y12291060D02*
G01*
X11650979Y12242800D01*
X11650979Y12496800D02*
G01*
X11650979Y12448539D01*
X11587479Y12496800D02*
G01*
X11650979Y12496800D01*
X11587479Y12448539D02*
G01*
X11587479Y12496800D01*
X11396979Y12496800D02*
G01*
X11396979Y12448539D01*
X11333479Y12496800D02*
G01*
X11396979Y12496800D01*
X11333479Y12448539D02*
G01*
X11333479Y12496800D01*
X11142979Y12496800D02*
G01*
X11142979Y12448539D01*
X11082020Y12496800D02*
G01*
X11142979Y12496800D01*
X11082020Y12448539D02*
G01*
X11082020Y12496800D01*
X10891520Y12496800D02*
G01*
X10891520Y12448539D01*
X10828020Y12496800D02*
G01*
X10891520Y12496800D01*
X10828020Y12448539D02*
G01*
X10828020Y12496800D01*
X10637520Y12496800D02*
G01*
X10637520Y12448539D01*
X10574020Y12496800D02*
G01*
X10637520Y12496800D01*
X10574020Y12448539D02*
G01*
X10574020Y12496800D01*
X9050020Y12242800D02*
G01*
X9050020Y12291060D01*
X9113520Y12242800D02*
G01*
X9050020Y12242800D01*
X9113520Y12291060D02*
G01*
X9113520Y12242800D01*
X9304020Y12242800D02*
G01*
X9304020Y12291060D01*
X9367520Y12242800D02*
G01*
X9304020Y12242800D01*
X9367520Y12291060D02*
G01*
X9367520Y12242800D01*
X9558020Y12242800D02*
G01*
X9558020Y12291060D01*
X9618979Y12242800D02*
G01*
X9558020Y12242800D01*
X9618979Y12291060D02*
G01*
X9618979Y12242800D01*
X9809479Y12242800D02*
G01*
X9809479Y12291060D01*
X9872979Y12242800D02*
G01*
X9809479Y12242800D01*
X9872979Y12291060D02*
G01*
X9872979Y12242800D01*
X10063479Y12242800D02*
G01*
X10063479Y12291060D01*
X10126979Y12242800D02*
G01*
X10063479Y12242800D01*
X10126979Y12291060D02*
G01*
X10126979Y12242800D01*
X10126979Y12496800D02*
G01*
X10126979Y12448539D01*
X10063479Y12496800D02*
G01*
X10126979Y12496800D01*
X10063479Y12448539D02*
G01*
X10063479Y12496800D01*
X9872979Y12496800D02*
G01*
X9872979Y12448539D01*
X9809479Y12496800D02*
G01*
X9872979Y12496800D01*
X9809479Y12448539D02*
G01*
X9809479Y12496800D01*
X9618979Y12496800D02*
G01*
X9618979Y12448539D01*
X9558020Y12496800D02*
G01*
X9618979Y12496800D01*
X9558020Y12448539D02*
G01*
X9558020Y12496800D01*
X9367520Y12496800D02*
G01*
X9367520Y12448539D01*
X9304020Y12496800D02*
G01*
X9367520Y12496800D01*
X9304020Y12448539D02*
G01*
X9304020Y12496800D01*
X9113520Y12496800D02*
G01*
X9113520Y12448539D01*
X9050020Y12496800D02*
G01*
X9113520Y12496800D01*
X9050020Y12448539D02*
G01*
X9050020Y12496800D01*
X7526020Y12242800D02*
G01*
X7526020Y12291060D01*
X7589520Y12242800D02*
G01*
X7526020Y12242800D01*
X7589520Y12291060D02*
G01*
X7589520Y12242800D01*
X7780020Y12242800D02*
G01*
X7780020Y12291060D01*
X7843520Y12242800D02*
G01*
X7780020Y12242800D01*
X7843520Y12291060D02*
G01*
X7843520Y12242800D01*
X8034020Y12242800D02*
G01*
X8034020Y12291060D01*
X8094979Y12242800D02*
G01*
X8034020Y12242800D01*
X8094979Y12291060D02*
G01*
X8094979Y12242800D01*
X8285479Y12242800D02*
G01*
X8285479Y12291060D01*
X8348979Y12242800D02*
G01*
X8285479Y12242800D01*
X8348979Y12291060D02*
G01*
X8348979Y12242800D01*
X8539479Y12242800D02*
G01*
X8539479Y12291060D01*
X8602979Y12242800D02*
G01*
X8539479Y12242800D01*
X8602979Y12291060D02*
G01*
X8602979Y12242800D01*
X8602979Y12496800D02*
G01*
X8602979Y12448539D01*
X8539479Y12496800D02*
G01*
X8602979Y12496800D01*
X8539479Y12448539D02*
G01*
X8539479Y12496800D01*
X8348979Y12496800D02*
G01*
X8348979Y12448539D01*
X8285479Y12496800D02*
G01*
X8348979Y12496800D01*
X8285479Y12448539D02*
G01*
X8285479Y12496800D01*
X8094979Y12496800D02*
G01*
X8094979Y12448539D01*
X8034020Y12496800D02*
G01*
X8094979Y12496800D01*
X8034020Y12448539D02*
G01*
X8034020Y12496800D01*
X7843520Y12496800D02*
G01*
X7843520Y12448539D01*
X7780020Y12496800D02*
G01*
X7843520Y12496800D01*
X7780020Y12448539D02*
G01*
X7780020Y12496800D01*
X7589520Y12496800D02*
G01*
X7589520Y12448539D01*
X7526020Y12496800D02*
G01*
X7589520Y12496800D01*
X6002020Y12242800D02*
G01*
X6002020Y12291060D01*
X6065520Y12242800D02*
G01*
X6002020Y12242800D01*
X6256020Y12242800D02*
G01*
X6256020Y12291060D01*
X6319520Y12242800D02*
G01*
X6256020Y12242800D01*
X6319520Y12291060D02*
G01*
X6319520Y12242800D01*
X6510020Y12242800D02*
G01*
X6510020Y12291060D01*
X6570979Y12242800D02*
G01*
X6510020Y12242800D01*
X6570979Y12291060D02*
G01*
X6570979Y12242800D01*
X6761479Y12242800D02*
G01*
X6761479Y12291060D01*
X6824979Y12242800D02*
G01*
X6761479Y12242800D01*
X6824979Y12291060D02*
G01*
X6824979Y12242800D01*
X7015479Y12242800D02*
G01*
X7015479Y12291060D01*
X7078979Y12242800D02*
G01*
X7015479Y12242800D01*
X7078979Y12291060D02*
G01*
X7078979Y12242800D01*
X6824979Y12496800D02*
G01*
X6824979Y12448539D01*
X6761479Y12496800D02*
G01*
X6824979Y12496800D01*
X6761479Y12448539D02*
G01*
X6761479Y12496800D01*
X6570979Y12496800D02*
G01*
X6570979Y12448539D01*
X6510020Y12496800D02*
G01*
X6570979Y12496800D01*
X6510020Y12448539D02*
G01*
X6510020Y12496800D01*
X6319520Y12496800D02*
G01*
X6319520Y12448539D01*
X6256020Y12496800D02*
G01*
X6319520Y12496800D01*
X6256020Y12448539D02*
G01*
X6256020Y12496800D01*
X6065520Y12496800D02*
G01*
X6065520Y12448539D01*
X6002020Y12496800D02*
G01*
X6065520Y12496800D01*
X6002020Y12448539D02*
G01*
X6002020Y12496800D01*
X5651500Y12448539D02*
G01*
X5651500Y12291060D01*
X7078979Y12496800D02*
G01*
X7078979Y12448539D01*
X7015479Y12448539D02*
G01*
X7015479Y12496800D01*
X7015479Y12496800D02*
G01*
X7078979Y12496800D01*
X6065520Y12291060D02*
G01*
X6065520Y12242800D01*
X7272020Y12448539D02*
G01*
X7272020Y12494260D01*
X7335520Y12494260D02*
G01*
X7335520Y12448539D01*
X7526020Y12448539D02*
G01*
X7526020Y12496800D01*
X13525500Y12448539D02*
G01*
X5651500Y12448539D01*
X5651500Y12291060D02*
G01*
X6081877Y12291187D01*
X13525500Y12293600D01*
X13525500Y12293600D02*
G01*
X13525500Y12448539D01*
X13652500Y11899900D02*
G01*
X13652500Y12839700D01*
X5524500Y12839700D02*
G01*
X5524500Y11899900D01*
X13652500Y12839700D02*
G01*
X5524500Y12839700D01*
X5524500Y11899900D02*
G01*
X13652500Y11899900D01*
X13677900Y12839700D02*
G01*
X15201900Y12839700D01*
X15201900Y11899900D01*
X13677900Y11899900D01*
X13677900Y12839700D01*
X3975100Y12839700D02*
G01*
X5499100Y12839700D01*
X5499100Y11899900D01*
X3975100Y11899900D01*
X3975100Y12839700D01*
G75*
G01*
X10732516Y9078976D02*
G03*
X10737355Y8647453I125982J-214376D01*
D10*
G75*
G01*
X9830994Y6214288D02*
G03*
X9830994Y6714312I-5040J250012D01*
G75*
G01*
X9219006Y6714312D02*
G03*
X9219006Y6214288I5040J-250012D01*
D17*
G75*
G01*
X9004808Y15557500D02*
G03*
X9004808Y15556992I-29999J-254D01*
D16*
G75*
G01*
X9074912Y15455900D02*
G03*
X9074912Y15328900I0J-63500D01*
D14*
G75*
G01
X9598660Y4635500D02*
G03X9598660Y4635500I-314960J0D01*
G75*
G01
X13929360Y8572500D02*
G03X13929360Y8572500I-314960J0D01*
G75*
G01
X14805660Y14770100D02*
G03X14805660Y14770100I-314960J0D01*
G75*
G01
X6131560Y14643100D02*
G03X6131560Y14643100I-314960J0D01*
G75*
G01
X5534660Y15659100D02*
G03X5534660Y15659100I-314960J0D01*
G75*
G01
X14018260Y14770100D02*
G03X14018260Y14770100I-314960J0D01*
G75*
G01
X11973560Y8534400D02*
G03X11973560Y8534400I-314960J0D01*
D18*
G75*
G01
X11400612Y14757400D02*
G03X11400612Y14757400I-250012J0D01*
G75*
G01
X12442012Y5029200D02*
G03X12442012Y5029200I-250012J0D01*
G75*
G01
X6346012Y13728700D02*
G03X6346012Y13728700I-250012J0D01*
D14*
G75*
G01
X6609512Y15646400D02*
G03X6609512Y15646400I-450012J0D01*
G75*
G01
X14242212Y15709900D02*
G03X14242212Y15709900I-450012J0D01*
M02*
