G04 Layer: BottomPasteMaskLayer*
G04 EasyEDA v6.5.42, 2024-04-13 20:59:12*
G04 594e40a4052f4cff86669ddfe18c1731,a2f4cb7aa3704937908c5b59a0d1150c,10*
G04 Gerber Generator version 0.2*
G04 Scale: 100 percent, Rotated: No, Reflected: No *
G04 Dimensions in millimeters *
G04 leading zeros omitted , absolute positions ,4 integer and 5 decimal *
%FSLAX45Y45*%
%MOMM*%

%AMMACRO1*21,1,$1,$2,0,0,$3*%
%ADD10MACRO1,0.5715X2.0701X90.0000*%
%ADD11MACRO1,0.5715X2.0701X0.0000*%

%LPD*%
D10*
G01*
X10380979Y9745979D03*
G01*
X10380979Y9667239D03*
G01*
X10380979Y9585960D03*
G01*
X10380979Y9507220D03*
G01*
X10380979Y9425939D03*
G01*
X10380979Y9347200D03*
G01*
X10380979Y9265920D03*
G01*
X10380979Y9187179D03*
G01*
X10380979Y9105900D03*
G01*
X10380979Y9027160D03*
G01*
X10380979Y8945879D03*
G01*
X10380979Y8867139D03*
G01*
X10380979Y8785860D03*
G01*
X10380979Y8707120D03*
G01*
X10380979Y8625839D03*
G01*
X10380979Y8547100D03*
G01*
X10380979Y8465820D03*
G01*
X10380979Y8387079D03*
G01*
X10380979Y8305800D03*
G01*
X10380979Y8227060D03*
G01*
X10380979Y8145779D03*
G01*
X10380979Y8067039D03*
G01*
X10380979Y7985760D03*
G01*
X10380979Y7907020D03*
D11*
G01*
X10137140Y7683500D03*
G01*
X10058400Y7683500D03*
G01*
X9977120Y7683500D03*
G01*
X9898379Y7683500D03*
G01*
X9817100Y7683500D03*
G01*
X9738359Y7683500D03*
G01*
X9657079Y7683500D03*
G01*
X9578340Y7683500D03*
G01*
X9497059Y7683500D03*
G01*
X9418320Y7683500D03*
G01*
X9337040Y7683500D03*
G01*
X9258300Y7683500D03*
G01*
X9177020Y7683500D03*
G01*
X9098279Y7683500D03*
G01*
X9017000Y7683500D03*
G01*
X8938259Y7683500D03*
D10*
G01*
X8694420Y7907020D03*
G01*
X8694420Y7985760D03*
G01*
X8694420Y8067039D03*
G01*
X8694420Y8145779D03*
G01*
X8694420Y8227060D03*
G01*
X8694420Y8305800D03*
G01*
X8694420Y8387079D03*
G01*
X8694420Y8465820D03*
G01*
X8694420Y8547100D03*
G01*
X8694420Y8625839D03*
G01*
X8694420Y8707120D03*
G01*
X8694420Y8785860D03*
G01*
X8694420Y8867139D03*
G01*
X8694420Y8945879D03*
G01*
X8694420Y9027160D03*
G01*
X8694420Y9105900D03*
G01*
X8694420Y9187179D03*
G01*
X8694420Y9265920D03*
G01*
X8694420Y9347200D03*
G01*
X8694420Y9425939D03*
G01*
X8694420Y9507220D03*
G01*
X8694420Y9585960D03*
G01*
X8694420Y9667239D03*
G01*
X8694420Y9745979D03*
D11*
G01*
X8938259Y9969500D03*
G01*
X9017000Y9969500D03*
G01*
X9098279Y9969500D03*
G01*
X9177020Y9969500D03*
G01*
X9258300Y9969500D03*
G01*
X9337040Y9969500D03*
G01*
X9418320Y9969500D03*
G01*
X9497059Y9969500D03*
G01*
X9578340Y9969500D03*
G01*
X9657079Y9969500D03*
G01*
X9738359Y9969500D03*
G01*
X9817100Y9969500D03*
G01*
X9898379Y9969500D03*
G01*
X9977120Y9969500D03*
G01*
X10058400Y9969500D03*
G01*
X10137140Y9969500D03*
M02*
