M48
METRIC,LZ,000.000
;FILE_FORMAT=3:3
;TYPE=PLATED
;Layer: PTH_Through_Via
;EasyEDA v6.5.22, 2023-03-19 17:06:58
;335dbd9ce43f406c9e30b40db76e6e78,a2f4cb7aa3704937908c5b59a0d1150c,10
;Gerber Generator version 0.2
;Holesize 1 = 0.305 mm
T01C0.305
;Holesize 2 = 0.306 mm
T02C0.306
;Holesize 3 = 0.351 mm
T03C0.351
;Holesize 4 = 0.400 mm
T04C0.400
;Holesize 5 = 0.501 mm
T05C0.501
;Holesize 6 = 0.650 mm
T06C0.650
%
G05
G90
T01
X051816Y-026543
X047752Y-026543
X057658Y-035052
X095123Y-007112
T02
X015494Y048514
X052832Y029210
X049657Y-027457
X082677Y-006096
X056769Y-093726
X058791Y-027457
X054743Y-035607
X037187Y-036440
X045847Y-022466
X059817Y043180
X048387Y-020273
X041377Y-024581
X038227Y033528
X035687Y-024559
X038227Y-025266
X039645Y-024353
X034176Y-023661
X072771Y-049022
X045847Y043493
X036449Y035306
X037846Y031750
X059132Y024961
X063627Y028509
X066692Y-038388
X033147Y034163
X045320Y-036466
X042790Y-042967
X065024Y-032131
X092759Y-008114
T03
X086852Y-068580
T04
X048387Y014986
X048895Y027559
X054483Y027686
T05
X053213Y019685
T06
X015240Y022352
X056261Y-084365
X069850Y-093726
X074742Y-093726
M30
