M48
METRIC,LZ,000.000
;FILE_FORMAT=3:3
;TYPE=PLATED
;Layer: PTH_Through
;EasyEDA v6.5.22, 2023-03-19 17:06:58
;335dbd9ce43f406c9e30b40db76e6e78,a2f4cb7aa3704937908c5b59a0d1150c,10
;Gerber Generator version 0.2
;Holesize 1 = 0.611 mm
T01C0.611
;Holesize 2 = 0.701 mm
T02C0.701
;Holesize 3 = 0.712 mm
T03C0.712
;Holesize 4 = 0.800 mm
T04C0.800
;Holesize 5 = 0.900 mm
T05C0.900
;Holesize 6 = 0.901 mm
T06C0.901
;Holesize 7 = 0.914 mm
T07C0.914
;Holesize 8 = 0.915 mm
T08C0.915
;Holesize 9 = 1.000 mm
T09C1.000
;Holesize 10 = 1.022 mm
T10C1.022
;Holesize 11 = 1.200 mm
T11C1.200
;Holesize 12 = 1.501 mm
T12C1.501
%
G05
G90
T01
X061849Y-015113
X066167Y-010668
X070739Y-006096
X021971Y-076073
X055880Y-025400
X055880Y-030607
T02
X079854Y-043942G85X079859Y-043942
X084733Y-043942G85X084738Y-043942
X021971Y-071501
X018460Y-085643
X058420Y050927
X024511Y050800
X039497Y050927
X031877Y050800
X062738Y-085852
X045298Y-070485
X053086Y-078105
X051727Y-064057
X037786Y-070485
X030403Y-070485
X013571Y041315
X012954Y034838
X012954Y029892
X012954Y024210
X012954Y020266
X064523Y062992
X060512Y062992
X055284Y062992
X046877Y066968
X044577Y053744
X047169Y056261
X038800Y053446
X044577Y048274
X044577Y034417
X052832Y029210
X089288Y-004924
X052689Y025963
X053086Y033655
X089288Y003549
X084582Y-085471
X077035Y062992
X081081Y062992
X085100Y062992
X085100Y057743
X085100Y053744
X085100Y048853
X033711Y079710
X039727Y079710
X044941Y079710
X029464Y069850
X022352Y069850
X029464Y064643
X012065Y056515
X017653Y056515
X012065Y061722
X017653Y061722
X008636Y072263
X014224Y072263
X008636Y077470
X014224Y077470
X085725Y-023689
X082677Y072136
X073914Y072136
X067310Y072136
X059817Y072136
X046863Y072390
X068453Y-021082
X085217Y-012192
X085979Y-004064
X071247Y002413
X076327Y002413
X073660Y-002540
X063500Y-005080
X060960Y-007620
X065913Y-002667
X090170Y-042164
X085344Y-051943
X085344Y-057150
X090043Y-052070
X090170Y-057150
X069342Y-063627
X060833Y-058547
X086360Y-096774
X058547Y-097790
X044958Y-097790
X021082Y-097282
X033020Y-076327
X038100Y-076327
X025527Y-081280
T03
X054864Y033528
X054864Y036068
X068199Y-006096
X070739Y-006096
X094107Y-020447
X091567Y-020447
X034544Y-040640
X037084Y-040640
X013208Y-055245
X013208Y-052705
X094107Y-015621
X091567Y-015621
X037719Y-044069
X040259Y-044069
X074041Y-028829
X076581Y-028829
X020447Y030607
X022987Y030607
X025527Y030607
X028067Y030607
X030607Y030607
X033147Y030607
X035687Y030607
X038227Y030607
X040767Y030607
X043307Y030607
X045847Y030607
X048387Y030607
X048387Y045847
X045847Y045847
X043307Y045847
X040767Y045847
X038227Y045847
X035687Y045847
X033147Y045847
X030607Y045847
X028067Y045847
X025527Y045847
X022987Y045847
X020447Y045847
X058420Y030734
X060960Y030734
X063500Y030734
X066040Y030734
X068580Y030734
X071120Y030734
X073660Y030734
X076200Y030734
X078740Y030734
X081280Y030734
X083820Y030734
X086360Y030734
X086360Y045974
X083820Y045974
X081280Y045974
X078740Y045974
X076200Y045974
X073660Y045974
X071120Y045974
X068580Y045974
X066040Y045974
X063500Y045974
X060960Y045974
X058420Y045974
X082423Y-031750
X084963Y-031750
X074041Y-037846
X076581Y-037846
X076581Y-033147
X074041Y-033147
X020447Y037973
X022987Y037973
X025527Y037973
X028067Y037973
X030607Y037973
X033147Y037989
X035687Y037973
X038227Y037939
X040767Y038007
X043307Y037973
X045847Y037973
X048387Y037973
X058420Y037973
X060960Y037949
X063500Y037949
X066040Y037973
X068580Y037973
X071120Y037915
X073660Y037973
X086360Y037978
X083820Y037978
X081280Y037883
X078740Y037883
X076200Y037931
T04
X049657Y-055519
X049657Y-045319
X019177Y-025130
X019177Y-023130
X039132Y-050292
X041132Y-050292
X019177Y-031734
X019177Y-029734
X037227Y-067564
X039227Y-067564
X029083Y-066060
X029083Y-055860
X046355Y-055519
X046355Y-045319
X067544Y-023622
X077744Y-023622
X077724Y-021864
X077724Y-011664
X021062Y-041656
X031262Y-041656
X015494Y-066187
X015494Y-055987
X022733Y-066060
X022733Y-055860
X021062Y-037211
X031262Y-037211
X034544Y-057805
X034544Y-047605
X017018Y-044978
X017018Y-034778
X019304Y-055138
X019304Y-044938
X085725Y-067707
X085725Y-069707
X080910Y076225G85X083810Y076225
X083810Y082525G85X080910Y082525
X077660Y080775G85X077660Y077875
X087100Y080800G85X087100Y077900
X073947Y081160G85X073947Y078260
X063746Y081160G85X063746Y078260
X058960Y081160G85X058960Y078260
X048760Y081160G85X048760Y078260
X028650Y081150G85X028650Y078250
X018662Y081160G85X018662Y078260
X022000Y084572G85X024900Y084572
X052638Y084582G85X055538Y084582
X067624Y084582G85X070524Y084582
T05
X017018Y074676
X017018Y064516
X025527Y074676
X025527Y064516
X082677Y060325
X092837Y060325
X080772Y070485
X080772Y060325
X094107Y-035814
X094107Y-025654
X088773Y-025654
X088773Y-035814
T06
X087884Y050673
X087884Y055753
X084582Y-064008
X079502Y-064008
X087757Y062738
X087757Y067818
X054991Y058039
X049911Y058039
X022637Y-045116
X022637Y-047656
X022637Y-050196
X022637Y-052736
X030257Y-045116
X030257Y-047656
X030257Y-050196
X030257Y-052736
T07
X048760Y078917G85X048760Y080503
X058960Y078667G85X058960Y080753
X054303Y084582G85X053217Y084582
X018450Y079157G85X018450Y080243
X028650Y079157G85X028650Y080243
X023993Y084572G85X022907Y084572
X063746Y079167G85X063746Y080253
X073946Y079167G85X073946Y080253
X069289Y084582G85X068203Y084582
X048760Y078667G85X048760Y080753
X028829Y078699G85X028829Y080785
X018661Y078667G85X018661Y080753
X024492Y084498G85X022406Y084498
X054802Y084582G85X052716Y084582
X069661Y084582G85X067575Y084582
X063746Y078667G85X063746Y080753
X073947Y078667G85X073947Y080753
T08
X083185Y-015875
X083185Y-018415
X070866Y-017145
X073406Y-017145
X061341Y-012192
X063881Y-012192
X052197Y051308
X052197Y048768
X036195Y067945
X038735Y067945
X053848Y067818
X051308Y067818
X039243Y057531
X041783Y057531
X089900Y-080350
X089900Y-075850
X081600Y-075850
X081600Y-080350
T09
X062567Y-087862
X065335Y-087862
X068106Y-087862
X070875Y-087862
X073646Y-087862
X076415Y-087862
X079186Y-087862
X081939Y-087827
X063936Y-090705
X066704Y-090705
X069476Y-090705
X072244Y-090705
X075015Y-090705
X077784Y-090705
X080555Y-090705
X021817Y-087862
X024585Y-087862
X027357Y-087862
X030125Y-087862
X032896Y-087862
X035665Y-087862
X038436Y-087862
X041189Y-087827
X023186Y-090705
X025954Y-090705
X028726Y-090705
X031494Y-090705
X034265Y-090705
X037034Y-090705
X039805Y-090705
X065151Y-028702
X065151Y-026162
X065151Y-023622
X081153Y051562
X081153Y054102
X081153Y056642
X082042Y-034671
X082042Y-037211
X082042Y-039751
X014100Y-083600G85X015600Y-083600
X014350Y-080500G85X015350Y-080500
X014350Y-077400G85X015350Y-077400
X014350Y-074400G85X015350Y-074400
X014150Y-071450G85X015650Y-071450
T10
X020447Y017526
X020447Y012446
X017907Y017526
X022987Y017526
X025527Y017526
X015367Y017526
X015367Y012446
X017907Y012446
X022987Y012446
X025527Y012446
X028067Y017526
X028067Y012446
X035687Y017526
X035687Y012446
X033147Y017526
X038227Y017526
X040767Y017526
X030607Y017526
X030607Y012446
X033147Y012446
X038227Y012446
X040767Y012446
X043307Y017526
X043307Y012446
X050927Y017526
X050927Y012446
X048387Y017526
X053467Y017526
X056007Y017526
X045847Y017526
X045847Y012446
X048387Y012446
X053467Y012446
X056007Y012446
X058547Y017526
X058547Y012446
X066167Y017526
X066167Y012446
X063627Y017526
X068707Y017526
X071247Y017526
X061087Y017526
X061087Y012446
X063627Y012446
X068707Y012446
X071247Y012446
X073787Y017526
X073787Y012446
X081407Y017526
X081407Y012446
X078867Y017526
X083947Y017526
X086487Y017526
X076327Y017526
X076327Y012446
X078867Y012446
X083947Y012446
X086487Y012446
X089027Y017526
X089027Y012446
T11
X064648Y062992
X064638Y060452
X064648Y065532
T12
X053760Y079710
X023450Y079700
X068746Y079710
M30
