G04 Layer: BottomSolderMaskLayer*
G04 EasyEDA v6.5.22, 2023-03-19 17:06:58*
G04 335dbd9ce43f406c9e30b40db76e6e78,a2f4cb7aa3704937908c5b59a0d1150c,10*
G04 Gerber Generator version 0.2*
G04 Scale: 100 percent, Rotated: No, Reflected: No *
G04 Dimensions in millimeters *
G04 leading zeros omitted , absolute positions ,4 integer and 5 decimal *
%FSLAX45Y45*%
%MOMM*%

%AMMACRO1*1,1,$1,$2,$3*1,1,$1,$4,$5*1,1,$1,0-$2,0-$3*1,1,$1,0-$4,0-$5*20,1,$1,$2,$3,$4,$5,0*20,1,$1,$4,$5,0-$2,0-$3,0*20,1,$1,0-$2,0-$3,0-$4,0-$5,0*20,1,$1,0-$4,0-$5,$2,$3,0*4,1,4,$2,$3,$4,$5,0-$2,0-$3,0-$4,0-$5,$2,$3,0*%
%ADD10MACRO1,0.2032X1.035X-0.2858X1.035X0.2858*%
%ADD11MACRO1,0.2032X0.2858X1.035X-0.2858X1.035*%
%ADD12C,1.5016*%
%ADD13C,1.2954*%
%ADD14C,2.0828*%
%ADD15C,1.7272*%
%ADD16C,1.3016*%
%ADD17C,1.5032*%
%ADD18O,1.62306X2.3622*%
%ADD19MACRO1,0.2032X-0.7099X1.016X0.7099X1.016*%
%ADD20C,1.8032*%
%ADD21MACRO1,0.2032X-0.8001X0.8001X0.8001X0.8001*%
%ADD22O,1.9015964X1.9015964*%
%ADD23MACRO1,0.1016X0.9X-0.9X-0.9X-0.9*%
%ADD24MACRO1,0.2032X-0.6985X0.6985X0.6985X0.6985*%
%ADD25C,1.6002*%
%ADD26O,4.701590799999999X2.101596*%
%ADD27O,2.101596X4.701590799999999*%
%ADD28MACRO1,0.1016X-0.9X0.9X0.9X0.9*%
%ADD29C,1.9016*%
%ADD30C,3.2032*%
%ADD31O,1.6031971999999999X3.0031944*%
%ADD32O,1.6031971999999999X4.203192*%
%ADD33O,3.0031944X1.6031971999999999*%
%ADD34O,2.7015948X1.9015964*%
%ADD35MACRO1,0.1016X1.3X0.9X1.3X-0.9*%
%ADD36C,1.4040*%
%ADD37C,1.2040*%
%ADD38O,5.2040028X2.7040078*%
%ADD39O,4.2040048X2.2040088*%
%ADD40C,1.6016*%
%ADD41R,1.6016X1.6016*%
%ADD42O,4.203192X1.6031971999999999*%
%ADD43O,0.0159X1.6031971999999999*%

%LPD*%
D10*
G01*
X6050279Y-1785620D03*
G01*
X6050279Y-1864360D03*
G01*
X6050279Y-1945639D03*
G01*
X6050279Y-2024379D03*
G01*
X6050279Y-2105660D03*
G01*
X6050279Y-2184400D03*
G01*
X6050279Y-2265679D03*
G01*
X6050279Y-2344420D03*
G01*
X6050279Y-2425700D03*
G01*
X6050279Y-2504439D03*
G01*
X6050279Y-2585720D03*
G01*
X6050279Y-2664460D03*
G01*
X6050279Y-2745739D03*
G01*
X6050279Y-2824479D03*
G01*
X6050279Y-2905760D03*
G01*
X6050279Y-2984500D03*
G01*
X6050279Y-3065779D03*
G01*
X6050279Y-3144520D03*
G01*
X6050279Y-3225800D03*
G01*
X6050279Y-3304539D03*
G01*
X6050279Y-3385820D03*
G01*
X6050279Y-3464560D03*
G01*
X6050279Y-3545839D03*
G01*
X6050279Y-3624579D03*
D11*
G01*
X5806440Y-3848100D03*
G01*
X5727700Y-3848100D03*
G01*
X5646420Y-3848100D03*
G01*
X5567679Y-3848100D03*
G01*
X5486400Y-3848100D03*
G01*
X5407659Y-3848100D03*
G01*
X5326379Y-3848100D03*
G01*
X5247640Y-3848100D03*
G01*
X5166359Y-3848100D03*
G01*
X5087620Y-3848100D03*
G01*
X5006340Y-3848100D03*
G01*
X4927600Y-3848100D03*
G01*
X4846320Y-3848100D03*
G01*
X4767579Y-3848100D03*
G01*
X4686300Y-3848100D03*
G01*
X4607559Y-3848100D03*
D10*
G01*
X4363720Y-3624579D03*
G01*
X4363720Y-3545839D03*
G01*
X4363720Y-3464560D03*
G01*
X4363720Y-3385820D03*
G01*
X4363720Y-3304539D03*
G01*
X4363720Y-3225800D03*
G01*
X4363720Y-3144520D03*
G01*
X4363720Y-3065779D03*
G01*
X4363720Y-2984500D03*
G01*
X4363720Y-2905760D03*
G01*
X4363720Y-2824479D03*
G01*
X4363720Y-2745739D03*
G01*
X4363720Y-2664460D03*
G01*
X4363720Y-2585720D03*
G01*
X4363720Y-2504439D03*
G01*
X4363720Y-2425700D03*
G01*
X4363720Y-2344420D03*
G01*
X4363720Y-2265679D03*
G01*
X4363720Y-2184400D03*
G01*
X4363720Y-2105660D03*
G01*
X4363720Y-2024379D03*
G01*
X4363720Y-1945639D03*
G01*
X4363720Y-1864360D03*
G01*
X4363720Y-1785620D03*
D11*
G01*
X4607559Y-1562100D03*
G01*
X4686300Y-1562100D03*
G01*
X4767579Y-1562100D03*
G01*
X4846320Y-1562100D03*
G01*
X4927600Y-1562100D03*
G01*
X5006340Y-1562100D03*
G01*
X5087620Y-1562100D03*
G01*
X5166359Y-1562100D03*
G01*
X5247640Y-1562100D03*
G01*
X5326379Y-1562100D03*
G01*
X5407659Y-1562100D03*
G01*
X5486400Y-1562100D03*
G01*
X5567679Y-1562100D03*
G01*
X5646420Y-1562100D03*
G01*
X5727700Y-1562100D03*
G01*
X5806440Y-1562100D03*
D12*
G01*
X4965700Y-5551906D03*
G01*
X4965700Y-4531893D03*
D13*
G01*
X5486400Y3352800D03*
G01*
X5486400Y3606800D03*
D14*
G01*
X1701800Y7467600D03*
G01*
X1701800Y6451600D03*
G01*
X2552700Y7467600D03*
G01*
X2552700Y6451600D03*
D15*
G01*
X8318500Y-1587500D03*
G01*
X8318500Y-1841500D03*
G01*
X7086600Y-1714500D03*
G01*
X7340600Y-1714500D03*
G01*
X6134100Y-1219200D03*
G01*
X6388100Y-1219200D03*
D13*
G01*
X6819900Y-609600D03*
G01*
X7073900Y-609600D03*
G01*
X9410700Y-2044700D03*
G01*
X9156700Y-2044700D03*
D15*
G01*
X5219700Y5130800D03*
G01*
X5219700Y4876800D03*
D16*
G01*
X8788400Y5067300D03*
G01*
X8788400Y5575300D03*
D15*
G01*
X3619500Y6794500D03*
G01*
X3873500Y6794500D03*
D13*
G01*
X3454400Y-4064000D03*
G01*
X3708400Y-4064000D03*
G01*
X1320800Y-5524500D03*
G01*
X1320800Y-5270500D03*
G01*
X9410700Y-1562100D03*
G01*
X9156700Y-1562100D03*
G01*
X3771900Y-4406900D03*
G01*
X4025900Y-4406900D03*
D17*
G01*
X1917700Y-2512999D03*
G01*
X1917700Y-2313000D03*
G01*
X3913200Y-5029200D03*
G01*
X4113199Y-5029200D03*
G01*
X1917700Y-3173399D03*
G01*
X1917700Y-2973400D03*
G01*
X3722700Y-6756400D03*
G01*
X3922699Y-6756400D03*
D12*
G01*
X2908300Y-6606006D03*
G01*
X2908300Y-5585993D03*
G01*
X4635500Y-5551906D03*
G01*
X4635500Y-4531893D03*
G01*
X6754393Y-2362200D03*
G01*
X7774406Y-2362200D03*
G01*
X7772400Y-2186406D03*
G01*
X7772400Y-1166393D03*
G01*
X2106193Y-4165600D03*
G01*
X3126206Y-4165600D03*
G01*
X1549400Y-6618706D03*
G01*
X1549400Y-5598693D03*
G01*
X2273300Y-6606006D03*
G01*
X2273300Y-5585993D03*
G01*
X2106193Y-3721100D03*
G01*
X3126206Y-3721100D03*
G01*
X3454400Y-5780506D03*
G01*
X3454400Y-4760493D03*
G01*
X1701800Y-4497806D03*
G01*
X1701800Y-3477793D03*
G01*
X1930400Y-5513806D03*
G01*
X1930400Y-4493793D03*
D13*
G01*
X7404100Y-2882900D03*
G01*
X7658100Y-2882900D03*
D17*
G01*
X8572500Y-6770700D03*
G01*
X8572500Y-6970699D03*
D18*
G01*
X2044700Y1752600D03*
G01*
X2044700Y1244600D03*
G01*
X1790700Y1752600D03*
G01*
X2298700Y1752600D03*
G01*
X2552700Y1752600D03*
G01*
X1536700Y1752600D03*
D19*
G01*
X1536700Y1244600D03*
D18*
G01*
X1790700Y1244600D03*
G01*
X2298700Y1244600D03*
G01*
X2552700Y1244600D03*
G01*
X2806700Y1752600D03*
G01*
X2806700Y1244600D03*
G01*
X3568700Y1752600D03*
G01*
X3568700Y1244600D03*
G01*
X3314700Y1752600D03*
G01*
X3822700Y1752600D03*
G01*
X4076700Y1752600D03*
G01*
X3060700Y1752600D03*
G01*
X3060700Y1244600D03*
G01*
X3314700Y1244600D03*
G01*
X3822700Y1244600D03*
G01*
X4076700Y1244600D03*
G01*
X4330700Y1752600D03*
G01*
X4330700Y1244600D03*
G01*
X5092700Y1752600D03*
G01*
X5092700Y1244600D03*
G01*
X4838700Y1752600D03*
G01*
X5346700Y1752600D03*
G01*
X5600700Y1752600D03*
G01*
X4584700Y1752600D03*
G01*
X4584700Y1244600D03*
G01*
X4838700Y1244600D03*
G01*
X5346700Y1244600D03*
G01*
X5600700Y1244600D03*
G01*
X5854700Y1752600D03*
G01*
X5854700Y1244600D03*
G01*
X6616700Y1752600D03*
G01*
X6616700Y1244600D03*
G01*
X6362700Y1752600D03*
G01*
X6870700Y1752600D03*
G01*
X7124700Y1752600D03*
G01*
X6108700Y1752600D03*
G01*
X6108700Y1244600D03*
G01*
X6362700Y1244600D03*
G01*
X6870700Y1244600D03*
G01*
X7124700Y1244600D03*
G01*
X7378700Y1752600D03*
G01*
X7378700Y1244600D03*
G01*
X8140700Y1752600D03*
G01*
X8140700Y1244600D03*
G01*
X7886700Y1752600D03*
G01*
X8394700Y1752600D03*
G01*
X8648700Y1752600D03*
G01*
X7632700Y1752600D03*
G01*
X7632700Y1244600D03*
G01*
X7886700Y1244600D03*
G01*
X8394700Y1244600D03*
G01*
X8648700Y1244600D03*
G01*
X8902700Y1752600D03*
G01*
X8902700Y1244600D03*
D20*
G01*
X6256680Y-8786215D03*
G01*
X6533540Y-8786215D03*
G01*
X6810654Y-8786215D03*
G01*
X7087514Y-8786215D03*
G01*
X7364628Y-8786215D03*
G01*
X7641488Y-8786215D03*
G01*
X7918602Y-8786215D03*
D21*
G01*
X8193879Y-8782695D03*
D20*
G01*
X6393586Y-9070441D03*
G01*
X6670446Y-9070441D03*
G01*
X6947560Y-9070441D03*
G01*
X7224420Y-9070441D03*
G01*
X7501534Y-9070441D03*
G01*
X7778394Y-9070441D03*
G01*
X8055508Y-9070441D03*
G01*
X2181682Y-8786215D03*
G01*
X2458542Y-8786215D03*
G01*
X2735656Y-8786215D03*
G01*
X3012516Y-8786215D03*
G01*
X3289630Y-8786215D03*
G01*
X3566490Y-8786215D03*
G01*
X3843604Y-8786215D03*
D21*
G01*
X4118886Y-8782695D03*
D20*
G01*
X2318588Y-9070441D03*
G01*
X2595448Y-9070441D03*
G01*
X2872562Y-9070441D03*
G01*
X3149422Y-9070441D03*
G01*
X3426536Y-9070441D03*
G01*
X3703396Y-9070441D03*
G01*
X3980510Y-9070441D03*
D22*
G01*
X6515100Y-2870200D03*
G01*
X6515100Y-2616200D03*
D23*
G01*
X6515100Y-2362200D03*
D15*
G01*
X7985607Y-4394200D03*
G01*
X8473592Y-4394200D03*
D24*
G01*
X2044700Y3060700D03*
D25*
G01*
X2298700Y3060700D03*
G01*
X2552700Y3060700D03*
G01*
X2806700Y3060700D03*
G01*
X3060700Y3060700D03*
G01*
X3314700Y3060700D03*
G01*
X3568700Y3060700D03*
G01*
X3822700Y3060700D03*
G01*
X4076700Y3060700D03*
G01*
X4330700Y3060700D03*
G01*
X4584700Y3060700D03*
G01*
X4838700Y3060700D03*
G01*
X4838700Y4584700D03*
G01*
X4584700Y4584700D03*
G01*
X4330700Y4584700D03*
G01*
X4076700Y4584700D03*
G01*
X3822700Y4584700D03*
G01*
X3568700Y4584700D03*
G01*
X3314700Y4584700D03*
G01*
X3060700Y4584700D03*
G01*
X2806700Y4584700D03*
G01*
X2552700Y4584700D03*
G01*
X2298700Y4584700D03*
G01*
X2044700Y4584700D03*
D24*
G01*
X5842000Y3073400D03*
D25*
G01*
X6096000Y3073400D03*
G01*
X6350000Y3073400D03*
G01*
X6604000Y3073400D03*
G01*
X6858000Y3073400D03*
G01*
X7112000Y3073400D03*
G01*
X7366000Y3073400D03*
G01*
X7620000Y3073400D03*
G01*
X7874000Y3073400D03*
G01*
X8128000Y3073400D03*
G01*
X8382000Y3073400D03*
G01*
X8636000Y3073400D03*
G01*
X8636000Y4597400D03*
G01*
X8382000Y4597400D03*
G01*
X8128000Y4597400D03*
G01*
X7874000Y4597400D03*
G01*
X7620000Y4597400D03*
G01*
X7366000Y4597400D03*
G01*
X7112000Y4597400D03*
G01*
X6858000Y4597400D03*
G01*
X6604000Y4597400D03*
G01*
X6350000Y4597400D03*
G01*
X6096000Y4597400D03*
G01*
X5842000Y4597400D03*
D16*
G01*
X8458200Y-6400800D03*
G01*
X7950200Y-6400800D03*
D26*
G01*
X8235975Y7622489D03*
G01*
X8236000Y8252485D03*
D27*
G01*
X7765973Y7932496D03*
D28*
G01*
X8115300Y5156200D03*
D29*
G01*
X8115300Y5410200D03*
G01*
X8115300Y5664200D03*
D14*
G01*
X8267700Y6032500D03*
G01*
X9283700Y6032500D03*
G01*
X8077200Y7048500D03*
G01*
X8077200Y6032500D03*
D30*
G01*
X5376011Y7971002D03*
D31*
G01*
X4876012Y7971002D03*
D32*
G01*
X5896000Y7971002D03*
D33*
G01*
X5376011Y8458200D03*
D30*
G01*
X2345004Y7969986D03*
D31*
G01*
X1845005Y7969986D03*
G01*
X2864993Y7969986D03*
D33*
G01*
X2345004Y8457184D03*
D30*
G01*
X6874611Y7971002D03*
D31*
G01*
X6374612Y7971002D03*
G01*
X7394600Y7971002D03*
D33*
G01*
X6874611Y8458200D03*
D13*
G01*
X8242300Y-3175000D03*
G01*
X8496300Y-3175000D03*
G01*
X7404100Y-3784600D03*
G01*
X7658100Y-3784600D03*
G01*
X7658100Y-3314700D03*
G01*
X7404100Y-3314700D03*
D15*
G01*
X5384800Y6781800D03*
G01*
X5130800Y6781800D03*
D16*
G01*
X8775700Y6273800D03*
G01*
X8775700Y6781800D03*
D23*
G01*
X8204200Y-3467100D03*
D29*
G01*
X8204200Y-3721100D03*
G01*
X8204200Y-3975100D03*
D14*
G01*
X9410700Y-3581400D03*
G01*
X9410700Y-2565400D03*
G01*
X8877300Y-2565400D03*
G01*
X8877300Y-3581400D03*
D34*
G01*
X6464782Y6299200D03*
G01*
X6463791Y6045174D03*
D35*
G01*
X6464795Y6553212D03*
D15*
G01*
X3924300Y5753100D03*
G01*
X4178300Y5753100D03*
D16*
G01*
X5499100Y5803900D03*
G01*
X4991100Y5803900D03*
D27*
G01*
X8709990Y7934985D03*
D36*
G01*
X2197100Y-7150100D03*
G01*
X1846021Y-8564346D03*
G01*
X5842000Y5092700D03*
G01*
X2451100Y5080000D03*
G01*
X3949700Y5092700D03*
G01*
X3187700Y5080000D03*
G01*
X6273800Y-8585200D03*
G01*
X4529836Y-7048500D03*
G01*
X5308600Y-7810500D03*
G01*
X5172684Y-6405651D03*
G01*
X3778631Y-7048500D03*
G01*
X3040329Y-7048500D03*
G01*
X1357096Y4131538D03*
G01*
X1295400Y3483787D03*
G01*
X1295400Y2989148D03*
G01*
X1295400Y2421001D03*
G01*
X1295400Y2026640D03*
G01*
X6452285Y6299200D03*
G01*
X6051245Y6299200D03*
G01*
X5528386Y6299200D03*
G01*
X4687671Y6696786D03*
G01*
X4457700Y5374386D03*
G01*
X4716881Y5626100D03*
G01*
X3880027Y5344566D03*
G01*
X4457700Y4827346D03*
G01*
X4457700Y3441700D03*
G01*
X5283200Y2921000D03*
G01*
X8928760Y-492379D03*
G01*
X5268874Y2596311D03*
G01*
X5308600Y3365500D03*
G01*
X8928760Y354939D03*
D25*
G01*
X2044700Y3797300D03*
G01*
X2298700Y3797300D03*
G01*
X2552700Y3797300D03*
G01*
X2806700Y3797300D03*
G01*
X3060700Y3797300D03*
G01*
X3314700Y3798900D03*
G01*
X3568700Y3797300D03*
G01*
X3822700Y3793921D03*
G01*
X4076700Y3800678D03*
G01*
X4330700Y3797300D03*
G01*
X4584700Y3797300D03*
G01*
X4838700Y3797300D03*
G01*
X5842000Y3797300D03*
G01*
X6096000Y3794937D03*
G01*
X6350000Y3794937D03*
G01*
X6604000Y3797300D03*
G01*
X6858000Y3797300D03*
G01*
X7112000Y3791534D03*
G01*
X7366000Y3797300D03*
G01*
X8636000Y3797757D03*
G01*
X8382000Y3797757D03*
G01*
X8128000Y3788359D03*
G01*
X7874000Y3788359D03*
G01*
X7620000Y3793058D03*
D36*
G01*
X8458200Y-8547100D03*
D37*
G01*
X6184900Y-1511300D03*
G01*
X6616700Y-1066800D03*
G01*
X7073900Y-609600D03*
G01*
X2197100Y-7607300D03*
G01*
X5588000Y-2540000D03*
G01*
X5588000Y-3060700D03*
D36*
G01*
X7703515Y6299200D03*
G01*
X8108035Y6299200D03*
G01*
X8510015Y6299200D03*
G01*
X8510015Y5774258D03*
G01*
X8510015Y5374462D03*
G01*
X8510015Y4885258D03*
D38*
G01*
X1485011Y-8359978D03*
D39*
G01*
X1485011Y-8049996D03*
G01*
X1485011Y-7739989D03*
G01*
X1485011Y-7439990D03*
D38*
G01*
X1489989Y-7144994D03*
D36*
G01*
X3371138Y7971002D03*
G01*
X3972712Y7971002D03*
G01*
X4494098Y7971002D03*
G01*
X2946400Y6985000D03*
G01*
X2235200Y6985000D03*
G01*
X2946400Y6464300D03*
G01*
X1206500Y5651500D03*
G01*
X1765300Y5651500D03*
G01*
X1206500Y6172200D03*
G01*
X1765300Y6172200D03*
G01*
X863600Y7226300D03*
G01*
X1422400Y7226300D03*
G01*
X863600Y7747000D03*
G01*
X1422400Y7747000D03*
D15*
G01*
X8989974Y-8034985D03*
G01*
X8989974Y-7584998D03*
G01*
X8159978Y-7584998D03*
G01*
X8159978Y-8034985D03*
D36*
G01*
X8572500Y-2368880D03*
D40*
G01*
X2263724Y-4511624D03*
G01*
X2263724Y-4765624D03*
G01*
X2263724Y-5019624D03*
G01*
X2263724Y-5273624D03*
G01*
X3025724Y-4511624D03*
G01*
X3025724Y-4765624D03*
G01*
X3025724Y-5019624D03*
D41*
G01*
X3025724Y-5273624D03*
D36*
G01*
X8267700Y7213600D03*
G01*
X7391400Y7213600D03*
G01*
X6731000Y7213600D03*
G01*
X5981700Y7213600D03*
G01*
X4686300Y7239000D03*
D32*
G01*
X4876038Y7971028D03*
G01*
X2882900Y7974203D03*
G01*
X1866137Y7971028D03*
D42*
G01*
X2344927Y8449818D03*
G01*
X5375909Y8458200D03*
G01*
X6861809Y8458200D03*
D32*
G01*
X6374612Y7971002D03*
G01*
X7394702Y7971028D03*
D27*
G01*
X7394702Y7971028D03*
G01*
X6374612Y7971002D03*
G01*
X5896000Y7971002D03*
G01*
X4876012Y7971002D03*
G01*
X2864993Y7969986D03*
G01*
X1866137Y7971028D03*
D26*
G01*
X2345004Y8457184D03*
G01*
X5408802Y8458200D03*
G01*
X6907402Y8458200D03*
D36*
G01*
X6845300Y-2108200D03*
G01*
X8521700Y-1219200D03*
G01*
X8597900Y-406400D03*
G01*
X7124700Y241300D03*
G01*
X7632700Y241300D03*
G01*
X7366000Y-254000D03*
G01*
X6350000Y-508000D03*
G01*
X6096000Y-762000D03*
G01*
X6591300Y-266700D03*
G01*
X9017000Y-4216400D03*
G01*
X8534400Y-5194300D03*
G01*
X8534400Y-5715000D03*
G01*
X9004300Y-5207000D03*
G01*
X9017000Y-5715000D03*
G01*
X6934200Y-6362700D03*
G01*
X6083300Y-5854700D03*
G01*
X8636000Y-9677400D03*
G01*
X5854700Y-9779000D03*
G01*
X4495800Y-9779000D03*
G01*
X2108200Y-9728200D03*
G01*
X3302000Y-7632700D03*
G01*
X3810000Y-7632700D03*
G01*
X2552700Y-8128000D03*
M02*
