G04 Layer: BottomSilkscreenLayer*
G04 EasyEDA v6.5.42, 2024-04-13 21:48:16*
G04 7b93da579f024c5689f0948710d994dc,a2f4cb7aa3704937908c5b59a0d1150c,10*
G04 Gerber Generator version 0.2*
G04 Scale: 100 percent, Rotated: No, Reflected: No *
G04 Dimensions in millimeters *
G04 leading zeros omitted , absolute positions ,4 integer and 5 decimal *
%FSLAX45Y45*%
%MOMM*%

%ADD10C,0.2032*%
%ADD11C,0.1524*%
%ADD12C,0.2007*%
%ADD13C,0.2489*%
%ADD14C,0.5994*%

%LPD*%
D10*
X5561446Y-2703253D02*
G01*
X5561446Y-2897215D01*
X5626100Y-2703253D02*
G01*
X5496791Y-2703253D01*
X5435831Y-2740197D02*
G01*
X5417357Y-2730962D01*
X5389648Y-2703253D01*
X5389648Y-2897215D01*
X5282509Y-2703253D02*
G01*
X5310217Y-2712488D01*
X5319453Y-2730962D01*
X5319453Y-2749435D01*
X5310217Y-2767906D01*
X5291744Y-2777144D01*
X5254797Y-2786379D01*
X5227088Y-2795615D01*
X5208617Y-2814088D01*
X5199379Y-2832562D01*
X5199379Y-2860271D01*
X5208617Y-2878744D01*
X5217853Y-2887979D01*
X5245562Y-2897215D01*
X5282509Y-2897215D01*
X5310217Y-2887979D01*
X5319453Y-2878744D01*
X5328688Y-2860271D01*
X5328688Y-2832562D01*
X5319453Y-2814088D01*
X5300979Y-2795615D01*
X5273271Y-2786379D01*
X5236326Y-2777144D01*
X5217853Y-2767906D01*
X5208617Y-2749435D01*
X5208617Y-2730962D01*
X5217853Y-2712488D01*
X5245562Y-2703253D01*
X5282509Y-2703253D01*
X5138420Y-2740197D02*
G01*
X5119949Y-2730962D01*
X5092240Y-2703253D01*
X5092240Y-2897215D01*
X4985097Y-2703253D02*
G01*
X5012806Y-2712488D01*
X5022042Y-2730962D01*
X5022042Y-2749435D01*
X5012806Y-2767906D01*
X4994333Y-2777144D01*
X4957389Y-2786379D01*
X4929680Y-2795615D01*
X4911206Y-2814088D01*
X4901971Y-2832562D01*
X4901971Y-2860271D01*
X4911206Y-2878744D01*
X4920442Y-2887979D01*
X4948151Y-2897215D01*
X4985097Y-2897215D01*
X5012806Y-2887979D01*
X5022042Y-2878744D01*
X5031280Y-2860271D01*
X5031280Y-2832562D01*
X5022042Y-2814088D01*
X5003571Y-2795615D01*
X4975862Y-2786379D01*
X4938915Y-2777144D01*
X4920442Y-2767906D01*
X4911206Y-2749435D01*
X4911206Y-2730962D01*
X4920442Y-2712488D01*
X4948151Y-2703253D01*
X4985097Y-2703253D01*
X4841011Y-2703253D02*
G01*
X4841011Y-2897215D01*
X4841011Y-2703253D02*
G01*
X4757884Y-2703253D01*
X4730173Y-2712488D01*
X4720937Y-2721726D01*
X4711702Y-2740197D01*
X4711702Y-2767906D01*
X4720937Y-2786379D01*
X4730173Y-2795615D01*
X4757884Y-2804853D01*
X4841011Y-2804853D01*
D11*
X5219700Y-1294361D02*
G01*
X5219700Y-1372293D01*
X5214505Y-1387878D01*
X5204114Y-1398270D01*
X5188526Y-1403464D01*
X5178135Y-1403464D01*
X5162550Y-1398270D01*
X5152158Y-1387878D01*
X5146964Y-1372293D01*
X5146964Y-1294361D01*
X5112674Y-1315143D02*
G01*
X5102283Y-1309946D01*
X5086695Y-1294361D01*
X5086695Y-1403464D01*
D12*
X4506975Y-1705102D02*
G01*
X5907024Y-1705102D01*
X5907024Y-3705097D01*
X4506975Y-3705097D01*
X4506975Y-3705097D02*
G01*
X4506975Y-1705102D01*
D13*
G75*
G01*
X6037072Y-1702562D02*
G02*
X6037072Y-1702816I12445J-127D01*
D14*
G75*
G01*
X5776976Y-1805178D02*
G02*
X5776976Y-1805686I29971J-254D01*
M02*
