G04 Layer: BottomPasteMaskLayer*
G04 EasyEDA v6.5.22, 2023-03-19 17:06:58*
G04 335dbd9ce43f406c9e30b40db76e6e78,a2f4cb7aa3704937908c5b59a0d1150c,10*
G04 Gerber Generator version 0.2*
G04 Scale: 100 percent, Rotated: No, Reflected: No *
G04 Dimensions in millimeters *
G04 leading zeros omitted , absolute positions ,4 integer and 5 decimal *
%FSLAX45Y45*%
%MOMM*%

%AMMACRO1*21,1,$1,$2,0,0,$3*%
%ADD10MACRO1,0.5715X2.0701X90.0000*%
%ADD11MACRO1,0.5715X2.0701X0.0000*%

%LPD*%
D10*
G01*
X6050279Y-1785620D03*
G01*
X6050279Y-1864360D03*
G01*
X6050279Y-1945639D03*
G01*
X6050279Y-2024379D03*
G01*
X6050279Y-2105660D03*
G01*
X6050279Y-2184400D03*
G01*
X6050279Y-2265679D03*
G01*
X6050279Y-2344420D03*
G01*
X6050279Y-2425700D03*
G01*
X6050279Y-2504439D03*
G01*
X6050279Y-2585720D03*
G01*
X6050279Y-2664460D03*
G01*
X6050279Y-2745739D03*
G01*
X6050279Y-2824479D03*
G01*
X6050279Y-2905760D03*
G01*
X6050279Y-2984500D03*
G01*
X6050279Y-3065779D03*
G01*
X6050279Y-3144520D03*
G01*
X6050279Y-3225800D03*
G01*
X6050279Y-3304539D03*
G01*
X6050279Y-3385820D03*
G01*
X6050279Y-3464560D03*
G01*
X6050279Y-3545839D03*
G01*
X6050279Y-3624579D03*
D11*
G01*
X5806440Y-3848100D03*
G01*
X5727700Y-3848100D03*
G01*
X5646420Y-3848100D03*
G01*
X5567679Y-3848100D03*
G01*
X5486400Y-3848100D03*
G01*
X5407659Y-3848100D03*
G01*
X5326379Y-3848100D03*
G01*
X5247640Y-3848100D03*
G01*
X5166359Y-3848100D03*
G01*
X5087620Y-3848100D03*
G01*
X5006340Y-3848100D03*
G01*
X4927600Y-3848100D03*
G01*
X4846320Y-3848100D03*
G01*
X4767579Y-3848100D03*
G01*
X4686300Y-3848100D03*
G01*
X4607559Y-3848100D03*
D10*
G01*
X4363720Y-3624579D03*
G01*
X4363720Y-3545839D03*
G01*
X4363720Y-3464560D03*
G01*
X4363720Y-3385820D03*
G01*
X4363720Y-3304539D03*
G01*
X4363720Y-3225800D03*
G01*
X4363720Y-3144520D03*
G01*
X4363720Y-3065779D03*
G01*
X4363720Y-2984500D03*
G01*
X4363720Y-2905760D03*
G01*
X4363720Y-2824479D03*
G01*
X4363720Y-2745739D03*
G01*
X4363720Y-2664460D03*
G01*
X4363720Y-2585720D03*
G01*
X4363720Y-2504439D03*
G01*
X4363720Y-2425700D03*
G01*
X4363720Y-2344420D03*
G01*
X4363720Y-2265679D03*
G01*
X4363720Y-2184400D03*
G01*
X4363720Y-2105660D03*
G01*
X4363720Y-2024379D03*
G01*
X4363720Y-1945639D03*
G01*
X4363720Y-1864360D03*
G01*
X4363720Y-1785620D03*
D11*
G01*
X4607559Y-1562100D03*
G01*
X4686300Y-1562100D03*
G01*
X4767579Y-1562100D03*
G01*
X4846320Y-1562100D03*
G01*
X4927600Y-1562100D03*
G01*
X5006340Y-1562100D03*
G01*
X5087620Y-1562100D03*
G01*
X5166359Y-1562100D03*
G01*
X5247640Y-1562100D03*
G01*
X5326379Y-1562100D03*
G01*
X5407659Y-1562100D03*
G01*
X5486400Y-1562100D03*
G01*
X5567679Y-1562100D03*
G01*
X5646420Y-1562100D03*
G01*
X5727700Y-1562100D03*
G01*
X5806440Y-1562100D03*
M02*
