M48
METRIC,LZ,000.000
;FILE_FORMAT=3:3
;TYPE=PLATED
;Layer: PTH_Through
;EasyEDA v6.5.42, 2024-03-05 11:07:17
;3b4d56fbe8a64d45884a67d00f8a37e5,a2f4cb7aa3704937908c5b59a0d1150c,10
;Gerber Generator version 0.2
;Holesize 1 = 0.351 mm
T01C0.351
;Holesize 2 = 0.701 mm
T02C0.701
;Holesize 3 = 0.800 mm
T03C0.800
;Holesize 4 = 0.889 mm
T04C0.889
;Holesize 5 = 0.914 mm
T05C0.914
;Holesize 6 = 0.915 mm
T06C0.915
;Holesize 7 = 1.000 mm
T07C1.000
;Holesize 8 = 1.200 mm
T08C1.200
;Holesize 9 = 1.600 mm
T09C1.600
%
G05
G90
T01
X091694Y034798
X092392Y034798
X093088Y034798
T02
X051562Y054483
X052832Y054483
X054102Y054483
T03
X049784Y047010
X049784Y036810
X040132Y061579
X040132Y059579
X064364Y087155G85X064364Y087755
X064364Y093855G85X064364Y094455
X058064Y090655G85X058064Y091255
X058064Y087155G85X058064Y087755
X058064Y093855G85X058064Y094455
X088715Y089489G85X089515Y089489
X074999Y089489G85X075799Y089489
X046932Y089489G85X047732Y089489
X064623Y064770
X074823Y064770
X066421Y081300
X066421Y071100
X038227Y081173
X038227Y070973
X048133Y081300
X048133Y071100
X057531Y081300
X057531Y071100
X039370Y047010
X039370Y036810
X091186Y048895
X091186Y046355
X091186Y043815
X091186Y041275
X091186Y038735
X093726Y038735
X096266Y038735
X098806Y038735
X098806Y041402
X098806Y043942
X098806Y046355
X098806Y048895
X096266Y048895
X093853Y048895
X093726Y046355
X093726Y043815
X093726Y041275
X096266Y041275
X096266Y043815
X096266Y046355
X091186Y051308
X093853Y051308
X096266Y051308
X098806Y051435
X088392Y051308
X088392Y048895
X088392Y046355
X088392Y043815
X088392Y041275
X088392Y038735
X100838Y053467
X101346Y042164
X099568Y058166
X089281Y036576
T04
X086741Y033147
X089281Y033147
X091821Y033147
X094361Y033147
X096901Y033147
X099441Y033147
X101981Y033147
X104521Y033147
X107061Y033147
X075438Y082042
X077978Y082042
T05
X094115Y088646G85X094115Y090332
X083915Y088646G85X083915Y090332
X088272Y094361G85X089958Y094361
X080399Y088646G85X080399Y090332
X070199Y088646G85X070199Y090332
X074556Y094361G85X076242Y094361
X052332Y088646G85X052332Y090332
X042132Y088646G85X042132Y090332
X046489Y094361G85X048175Y094361
T06
X047455Y064770
X057955Y064770
T07
X114046Y046355
X114046Y041275
X079629Y040894
X079629Y045974
X083185Y077089
X083185Y072009
X121793Y041021
X121793Y046101
X058801Y039624
X058801Y044704
X068072Y044704
X068072Y039624
X120269Y063754
X120269Y058674
X068199Y055880
X068199Y050800
X115316Y034163
X120396Y034163
X117221Y090297
X117221Y085217
X075565Y077696
X075565Y074196
T08
X079562Y058674
X087062Y058674
X108374Y085673G85X105874Y085673
X105874Y091873G85X108374Y091873
X111824Y087423G85X111824Y089923
T09
X106045Y068257
X106045Y081857
X098171Y068257
X098171Y081857
X090424Y081857
X090424Y068257
X122301Y081857
X122301Y068257
M30
