G04 Layer: TopSilkscreenLayer*
G04 EasyEDA v6.5.42, 2024-03-05 11:07:17*
G04 3b4d56fbe8a64d45884a67d00f8a37e5,a2f4cb7aa3704937908c5b59a0d1150c,10*
G04 Gerber Generator version 0.2*
G04 Scale: 100 percent, Rotated: No, Reflected: No *
G04 Dimensions in millimeters *
G04 leading zeros omitted , absolute positions ,4 integer and 5 decimal *
%FSLAX45Y45*%
%MOMM*%

%ADD10C,0.1200*%
%ADD11C,0.3500*%
%ADD12C,1.0000*%
%ADD13C,0.2500*%

%LPD*%
G36*
X6495948Y8155482D02*
G01*
X6408928Y8141004D01*
X6396329Y8138414D01*
X6383883Y8135467D01*
X6371691Y8132114D01*
X6359804Y8128457D01*
X6348272Y8124545D01*
X6337198Y8120380D01*
X6326581Y8116011D01*
X6316522Y8111490D01*
X6307074Y8106867D01*
X6298285Y8102142D01*
X6290208Y8097418D01*
X6282893Y8092744D01*
X6276441Y8088122D01*
X6270904Y8083550D01*
X6266281Y8079181D01*
X6262725Y8074964D01*
X6260185Y8071002D01*
X6258814Y8067294D01*
X6258560Y8065566D01*
X6258661Y8063890D01*
X6259017Y8062315D01*
X6259728Y8060893D01*
X6260744Y8059521D01*
X6262116Y8058251D01*
X6263792Y8057083D01*
X6265824Y8056067D01*
X6271006Y8054340D01*
X6277711Y8053171D01*
X6285890Y8052562D01*
X6297879Y8052206D01*
X6304584Y8051342D01*
X6310731Y8049920D01*
X6316268Y8047990D01*
X6321247Y8045551D01*
X6325616Y8042656D01*
X6329375Y8039303D01*
X6332474Y8035442D01*
X6334963Y8031225D01*
X6336741Y8026552D01*
X6337858Y8021523D01*
X6338316Y8016138D01*
X6338062Y8010448D01*
X6337046Y8004403D01*
X6335318Y7998053D01*
X6332880Y7991398D01*
X6320282Y7961426D01*
X6219291Y7996174D01*
X6082690Y7946999D01*
X5975400Y7784439D01*
X5975411Y7700975D01*
X6177178Y7700975D01*
X6193383Y7758125D01*
X6198565Y7774533D01*
X6204000Y7790129D01*
X6209741Y7804759D01*
X6215684Y7818424D01*
X6221831Y7831175D01*
X6228080Y7842859D01*
X6234480Y7853476D01*
X6240983Y7863027D01*
X6247536Y7871459D01*
X6254140Y7878724D01*
X6257391Y7881924D01*
X6263995Y7887411D01*
X6270498Y7891627D01*
X6273698Y7893253D01*
X6276898Y7894574D01*
X6280099Y7895539D01*
X6283248Y7896199D01*
X6286347Y7896504D01*
X6289395Y7896453D01*
X6292392Y7896047D01*
X6295390Y7895336D01*
X6298285Y7894269D01*
X6301130Y7892796D01*
X6303975Y7890967D01*
X6306667Y7888782D01*
X6309360Y7886242D01*
X6311950Y7883347D01*
X6313830Y7880603D01*
X6315405Y7877606D01*
X6316573Y7874253D01*
X6317488Y7870647D01*
X6318046Y7866786D01*
X6318351Y7862620D01*
X6317996Y7853629D01*
X6317437Y7848853D01*
X6315506Y7838694D01*
X6312611Y7827975D01*
X6308801Y7816799D01*
X6304280Y7805318D01*
X6298996Y7793634D01*
X6293104Y7781950D01*
X6286703Y7770368D01*
X6279794Y7759039D01*
X6272580Y7748117D01*
X6265062Y7737703D01*
X6257340Y7727950D01*
X6249517Y7719059D01*
X6241694Y7711084D01*
X6233922Y7704175D01*
X6226302Y7698536D01*
X6222542Y7696200D01*
X6218885Y7694269D01*
X6215278Y7692694D01*
X6211773Y7691526D01*
X6208420Y7690764D01*
X6205118Y7690408D01*
X6201968Y7690510D01*
X6198920Y7691120D01*
X6196025Y7692186D01*
X6177178Y7700975D01*
X5975411Y7700975D01*
X5975705Y7687919D01*
X5976518Y7674102D01*
X5977788Y7660436D01*
X5979515Y7647127D01*
X5981649Y7634528D01*
X5984087Y7622743D01*
X5986881Y7612075D01*
X5989878Y7602778D01*
X5993130Y7595057D01*
X5994806Y7591856D01*
X5996533Y7589164D01*
X6017717Y7559344D01*
X6155994Y7559344D01*
X6277203Y7636357D01*
X6302806Y7559344D01*
X6347714Y7559446D01*
X6356299Y7560259D01*
X6366459Y7561783D01*
X6377889Y7564018D01*
X6390386Y7566863D01*
X6403644Y7570266D01*
X6417411Y7574127D01*
X6431483Y7578394D01*
X6445554Y7583017D01*
X6459372Y7587945D01*
X6546951Y7621625D01*
X6546951Y7652105D01*
X6546545Y7658252D01*
X6545376Y7663942D01*
X6543497Y7669123D01*
X6540957Y7673644D01*
X6537959Y7677403D01*
X6534505Y7680198D01*
X6530644Y7682026D01*
X6524650Y7682788D01*
X6522821Y7683347D01*
X6521145Y7684211D01*
X6519519Y7685430D01*
X6517995Y7687005D01*
X6516573Y7688884D01*
X6515252Y7691069D01*
X6512915Y7696504D01*
X6510934Y7703159D01*
X6509410Y7711033D01*
X6508242Y7720126D01*
X6507429Y7730337D01*
X6507073Y7741666D01*
X6507073Y7754061D01*
X6507480Y7767523D01*
X6508292Y7781950D01*
X6509461Y7797342D01*
X6511086Y7813700D01*
X6515404Y7849006D01*
X6521348Y7887614D01*
X6554012Y8067090D01*
X6564833Y8129473D01*
G37*
G36*
X4486605Y8144916D02*
G01*
X4250893Y8144306D01*
X4217060Y8143748D01*
X4184446Y8142782D01*
X4153509Y8141512D01*
X4124807Y8139938D01*
X4098848Y8138159D01*
X4076141Y8136077D01*
X4057243Y8133842D01*
X4042613Y8131454D01*
X4037076Y8130235D01*
X4032808Y8128965D01*
X4024782Y8125256D01*
X4019042Y8122107D01*
X4014012Y8118754D01*
X4009593Y8115300D01*
X4005834Y8111744D01*
X4002735Y8108035D01*
X4000296Y8104225D01*
X3998518Y8100364D01*
X3997401Y8096402D01*
X3996893Y8092389D01*
X3997096Y8088274D01*
X3997960Y8084159D01*
X3999484Y8079994D01*
X4001617Y8075828D01*
X4004462Y8071662D01*
X4007916Y8067446D01*
X4012082Y8063280D01*
X4016908Y8059166D01*
X4022344Y8055000D01*
X4028490Y8050936D01*
X4061561Y8030209D01*
X4046829Y7895488D01*
X4041749Y7854188D01*
X4036314Y7817103D01*
X4033418Y7800086D01*
X4030421Y7784033D01*
X4027322Y7768996D01*
X4024071Y7754874D01*
X4020667Y7741666D01*
X4017162Y7729372D01*
X4013504Y7717942D01*
X4009694Y7707426D01*
X4005732Y7697673D01*
X4001566Y7688783D01*
X3997248Y7680706D01*
X3992727Y7673340D01*
X3988054Y7666736D01*
X3986194Y7664450D01*
X4274769Y7664450D01*
X4290009Y7877149D01*
X4293717Y7917027D01*
X4295698Y7934909D01*
X4297781Y7951470D01*
X4300067Y7966760D01*
X4302455Y7980781D01*
X4304995Y7993583D01*
X4307789Y8005114D01*
X4310735Y8015478D01*
X4313936Y8024672D01*
X4317339Y8032699D01*
X4320997Y8039608D01*
X4324908Y8045399D01*
X4329125Y8050174D01*
X4333646Y8053831D01*
X4336034Y8055305D01*
X4341012Y8057438D01*
X4343654Y8058150D01*
X4346397Y8058607D01*
X4349191Y8058810D01*
X4355033Y8058505D01*
X4361332Y8057286D01*
X4367987Y8055152D01*
X4375048Y8052155D01*
X4382566Y8048244D01*
X4390491Y8043570D01*
X4398924Y8038033D01*
X4407814Y8031683D01*
X4444492Y8004048D01*
X4444441Y7782814D01*
X4373067Y7674914D01*
X4274769Y7664450D01*
X3986194Y7664450D01*
X3983177Y7660894D01*
X3978046Y7655712D01*
X3972763Y7651242D01*
X3967226Y7647431D01*
X3929735Y7626654D01*
X3944874Y7567066D01*
X4172661Y7562088D01*
X4209084Y7561783D01*
X4251401Y7562037D01*
X4282846Y7562799D01*
X4312361Y7564069D01*
X4340047Y7565898D01*
X4366006Y7568285D01*
X4390390Y7571231D01*
X4413351Y7574838D01*
X4434992Y7579055D01*
X4455464Y7583931D01*
X4465320Y7586624D01*
X4484319Y7592568D01*
X4502454Y7599172D01*
X4519879Y7606538D01*
X4528362Y7610500D01*
X4540859Y7616850D01*
X4557166Y7625943D01*
X4569256Y7633309D01*
X4648200Y7685531D01*
X4681778Y7771028D01*
X4686858Y7785100D01*
X4691380Y7798968D01*
X4695342Y7812582D01*
X4698796Y7825943D01*
X4701641Y7839151D01*
X4703978Y7852156D01*
X4705756Y7864906D01*
X4706975Y7877556D01*
X4707636Y7889951D01*
X4707737Y7902244D01*
X4707331Y7914335D01*
X4706315Y7926273D01*
X4704791Y7938058D01*
X4702657Y7949742D01*
X4700016Y7961274D01*
X4696815Y7972704D01*
X4693056Y7984032D01*
X4688738Y7995259D01*
X4683861Y8006334D01*
X4678426Y8017408D01*
X4672431Y8028330D01*
X4629505Y8099856D01*
G37*
G36*
X5112867Y7989570D02*
G01*
X5100980Y7989316D01*
X5088788Y7988604D01*
X5076393Y7987436D01*
X5063693Y7985759D01*
X5050790Y7983677D01*
X5037683Y7981137D01*
X5024272Y7978089D01*
X5010708Y7974634D01*
X4996891Y7970723D01*
X4982921Y7966303D01*
X4968697Y7961477D01*
X4863490Y7921498D01*
X4761608Y7810804D01*
X4975860Y7810804D01*
X4975910Y7816240D01*
X4976571Y7822082D01*
X4977739Y7828280D01*
X4979466Y7834731D01*
X4981752Y7841437D01*
X4984597Y7848193D01*
X4988001Y7855051D01*
X4991912Y7861858D01*
X4996332Y7868564D01*
X5000701Y7874304D01*
X5005019Y7879435D01*
X5009388Y7883855D01*
X5013655Y7887665D01*
X5017922Y7890865D01*
X5022088Y7893405D01*
X5026152Y7895285D01*
X5030063Y7896555D01*
X5033822Y7897164D01*
X5037378Y7897164D01*
X5040731Y7896504D01*
X5043830Y7895234D01*
X5046675Y7893354D01*
X5049215Y7890865D01*
X5051450Y7887716D01*
X5053330Y7884007D01*
X5054854Y7879638D01*
X5055971Y7874660D01*
X5056632Y7869123D01*
X5056886Y7862925D01*
X5056632Y7857642D01*
X5055870Y7852359D01*
X5054701Y7847126D01*
X5053126Y7841945D01*
X5051094Y7836814D01*
X5048758Y7831836D01*
X5046014Y7826959D01*
X5042966Y7822285D01*
X5039664Y7817815D01*
X5036058Y7813548D01*
X5032248Y7809585D01*
X5028184Y7805877D01*
X5023967Y7802524D01*
X5019598Y7799527D01*
X5015077Y7796885D01*
X5010505Y7794650D01*
X5005781Y7792872D01*
X5001056Y7791602D01*
X4996281Y7790789D01*
X4991557Y7790484D01*
X4987544Y7790992D01*
X4984140Y7792415D01*
X4981295Y7794650D01*
X4979111Y7797698D01*
X4977434Y7801457D01*
X4976368Y7805877D01*
X4975860Y7810804D01*
X4761608Y7810804D01*
X4743450Y7791094D01*
X4740452Y7633766D01*
X4855006Y7559344D01*
X5043982Y7559344D01*
X5138521Y7593990D01*
X5154066Y7600238D01*
X5168341Y7606588D01*
X5181295Y7612989D01*
X5192928Y7619390D01*
X5203139Y7625842D01*
X5211978Y7632242D01*
X5219446Y7638643D01*
X5225440Y7644942D01*
X5227878Y7648041D01*
X5229961Y7651140D01*
X5231638Y7654188D01*
X5232958Y7657236D01*
X5233924Y7660233D01*
X5234482Y7663180D01*
X5234686Y7666075D01*
X5234482Y7668920D01*
X5233873Y7671765D01*
X5232908Y7674508D01*
X5231536Y7677200D01*
X5229758Y7679893D01*
X5227574Y7682433D01*
X5224983Y7684973D01*
X5202021Y7702499D01*
X5134000Y7681315D01*
X5118709Y7677403D01*
X5103418Y7674356D01*
X5088280Y7672070D01*
X5073446Y7670596D01*
X5059121Y7669885D01*
X5045456Y7669987D01*
X5032603Y7670800D01*
X5020716Y7672425D01*
X5009997Y7674762D01*
X5005120Y7676184D01*
X5000548Y7677810D01*
X4996383Y7679639D01*
X4992624Y7681620D01*
X4989220Y7683804D01*
X4986274Y7686141D01*
X4983784Y7688630D01*
X4981752Y7691323D01*
X4980228Y7694168D01*
X4971796Y7713472D01*
X5020614Y7713522D01*
X5031486Y7714234D01*
X5042763Y7715605D01*
X5054396Y7717637D01*
X5066334Y7720279D01*
X5078476Y7723479D01*
X5090718Y7727238D01*
X5103063Y7731506D01*
X5115407Y7736281D01*
X5127650Y7741513D01*
X5139791Y7747152D01*
X5151628Y7753197D01*
X5163210Y7759598D01*
X5174437Y7766354D01*
X5185206Y7773416D01*
X5195468Y7780731D01*
X5205120Y7788249D01*
X5214112Y7796022D01*
X5261000Y7840878D01*
X5261000Y7942834D01*
X5211267Y7969097D01*
X5202224Y7973212D01*
X5192877Y7976870D01*
X5183225Y7980070D01*
X5173218Y7982813D01*
X5162905Y7985048D01*
X5152288Y7986877D01*
X5141366Y7988249D01*
X5130190Y7989112D01*
G37*
G36*
X6819290Y7989112D02*
G01*
X6752945Y7963103D01*
X6739737Y7957566D01*
X6726986Y7951876D01*
X6714642Y7945983D01*
X6702755Y7939938D01*
X6691325Y7933791D01*
X6680453Y7927441D01*
X6670040Y7920990D01*
X6660184Y7914436D01*
X6650888Y7907781D01*
X6642100Y7901025D01*
X6633972Y7894218D01*
X6626402Y7887360D01*
X6619443Y7880400D01*
X6613144Y7873390D01*
X6607505Y7866380D01*
X6584950Y7834782D01*
X6634022Y7790129D01*
X6664655Y7809230D01*
X6671665Y7812887D01*
X6678320Y7815478D01*
X6684721Y7816951D01*
X6687820Y7817256D01*
X6690918Y7817256D01*
X6693916Y7816951D01*
X6696964Y7816342D01*
X6699910Y7815427D01*
X6702856Y7814157D01*
X6705853Y7812531D01*
X6711746Y7808264D01*
X6717690Y7802575D01*
X6723786Y7795310D01*
X6729984Y7786522D01*
X6736435Y7776108D01*
X6743192Y7763967D01*
X6750253Y7750098D01*
X6757720Y7734350D01*
X6765696Y7716774D01*
X6774129Y7697216D01*
X6836308Y7546949D01*
X6813092Y7514183D01*
X6809231Y7509205D01*
X6805168Y7504887D01*
X6800951Y7501077D01*
X6796684Y7497927D01*
X6792366Y7495286D01*
X6788048Y7493253D01*
X6783831Y7491730D01*
X6779768Y7490815D01*
X6775907Y7490409D01*
X6772300Y7490561D01*
X6768998Y7491272D01*
X6766102Y7492441D01*
X6763664Y7494168D01*
X6761683Y7496403D01*
X6760311Y7499146D01*
X6759498Y7502347D01*
X6759397Y7506106D01*
X6760057Y7510272D01*
X6761480Y7514945D01*
X6763766Y7520127D01*
X6765493Y7525054D01*
X6766204Y7530947D01*
X6765950Y7537551D01*
X6764781Y7544663D01*
X6762750Y7552029D01*
X6759905Y7559446D01*
X6756298Y7566659D01*
X6751929Y7573568D01*
X6729222Y7605572D01*
X6682994Y7605572D01*
X6675170Y7605420D01*
X6667652Y7605014D01*
X6660489Y7604252D01*
X6653682Y7603236D01*
X6647180Y7601864D01*
X6641084Y7600238D01*
X6635292Y7598308D01*
X6629806Y7596073D01*
X6624675Y7593533D01*
X6619900Y7590688D01*
X6615480Y7587589D01*
X6611366Y7584135D01*
X6607556Y7580375D01*
X6604101Y7576312D01*
X6601002Y7571994D01*
X6598208Y7567320D01*
X6595770Y7562342D01*
X6593636Y7557058D01*
X6591858Y7551470D01*
X6590385Y7545578D01*
X6589268Y7539380D01*
X6588455Y7532827D01*
X6587947Y7526020D01*
X6587794Y7518857D01*
X6587794Y7469124D01*
X6700062Y7402220D01*
X6869074Y7416495D01*
X7016699Y7501534D01*
X7164679Y7727492D01*
X7184593Y7937804D01*
X7152690Y7957769D01*
X7147915Y7960461D01*
X7142530Y7962900D01*
X7136587Y7965186D01*
X7130135Y7967167D01*
X7123379Y7968945D01*
X7116318Y7970418D01*
X7109104Y7971637D01*
X7101789Y7972552D01*
X7094524Y7973110D01*
X7087311Y7973364D01*
X7080351Y7973263D01*
X7073696Y7972755D01*
X7026656Y7967725D01*
X7019899Y7931607D01*
X7019188Y7926273D01*
X7018934Y7920431D01*
X7019137Y7914081D01*
X7019747Y7907375D01*
X7020763Y7900416D01*
X7022134Y7893202D01*
X7023862Y7885938D01*
X7025944Y7878673D01*
X7028332Y7871510D01*
X7030974Y7864602D01*
X7033920Y7857947D01*
X7037120Y7851698D01*
X7061098Y7807959D01*
X7045756Y7755331D01*
X7042505Y7745679D01*
X7039254Y7737348D01*
X7035850Y7730439D01*
X7032396Y7725003D01*
X7030618Y7722768D01*
X7028789Y7720939D01*
X7026909Y7719466D01*
X7025030Y7718399D01*
X7023049Y7717637D01*
X7021068Y7717281D01*
X7018985Y7717332D01*
X7016902Y7717688D01*
X7014718Y7718501D01*
X7012482Y7719618D01*
X7007809Y7723124D01*
X7002830Y7728153D01*
X6997547Y7734757D01*
X6991908Y7742986D01*
X6985914Y7752842D01*
X6979513Y7764322D01*
X6972655Y7777480D01*
X6965340Y7792313D01*
X6949287Y7827111D01*
X6890461Y7960359D01*
G37*
G36*
X5809589Y7987741D02*
G01*
X5800547Y7987385D01*
X5791098Y7986522D01*
X5781243Y7985150D01*
X5771032Y7983169D01*
X5760466Y7980680D01*
X5749493Y7977682D01*
X5738215Y7974075D01*
X5726531Y7969961D01*
X5714492Y7965236D01*
X5702147Y7960004D01*
X5689396Y7954213D01*
X5676341Y7947812D01*
X5647639Y7933029D01*
X5633567Y7926324D01*
X5621324Y7920990D01*
X5611571Y7917332D01*
X5607761Y7916214D01*
X5604814Y7915605D01*
X5602782Y7915503D01*
X5601716Y7915960D01*
X5582818Y7942173D01*
X5574690Y7952689D01*
X5567121Y7961579D01*
X5559907Y7968894D01*
X5556300Y7971993D01*
X5552744Y7974685D01*
X5549138Y7977073D01*
X5545480Y7979105D01*
X5541721Y7980781D01*
X5537860Y7982102D01*
X5533796Y7983169D01*
X5529580Y7983880D01*
X5525160Y7984286D01*
X5520486Y7984439D01*
X5510276Y7983829D01*
X5498693Y7982153D01*
X5485587Y7979511D01*
X5470702Y7975904D01*
X5434482Y7966252D01*
X5420106Y7962036D01*
X5406237Y7957413D01*
X5392928Y7952333D01*
X5380228Y7946999D01*
X5368239Y7941411D01*
X5357012Y7935620D01*
X5346598Y7929676D01*
X5337098Y7923682D01*
X5328513Y7917688D01*
X5320944Y7911795D01*
X5314442Y7905953D01*
X5309108Y7900314D01*
X5304942Y7894929D01*
X5302097Y7889849D01*
X5301132Y7887462D01*
X5300522Y7885125D01*
X5300268Y7882940D01*
X5300370Y7880858D01*
X5300878Y7878876D01*
X5301691Y7877048D01*
X5302910Y7875320D01*
X5304536Y7873796D01*
X5306568Y7872374D01*
X5308955Y7871155D01*
X5311800Y7870088D01*
X5315051Y7869174D01*
X5322874Y7867954D01*
X5332425Y7867548D01*
X5363057Y7867548D01*
X5362041Y7796479D01*
X5361432Y7784388D01*
X5359095Y7757363D01*
X5355386Y7728458D01*
X5351932Y7706918D01*
X5349392Y7693152D01*
X5346649Y7680198D01*
X5340502Y7654137D01*
X5337860Y7640167D01*
X5335828Y7626654D01*
X5334508Y7614056D01*
X5333898Y7602728D01*
X5334050Y7592923D01*
X5334406Y7588758D01*
X5334965Y7585151D01*
X5335727Y7582103D01*
X5336692Y7579664D01*
X5347004Y7559344D01*
X5419191Y7559446D01*
X5433263Y7560208D01*
X5447588Y7561681D01*
X5461711Y7563764D01*
X5475224Y7566355D01*
X5487720Y7569453D01*
X5498795Y7572908D01*
X5503672Y7574737D01*
X5511850Y7578598D01*
X5546039Y7597851D01*
X5567375Y7712811D01*
X5570880Y7729016D01*
X5574792Y7744358D01*
X5579008Y7758836D01*
X5583529Y7772400D01*
X5588355Y7784947D01*
X5593384Y7796530D01*
X5598718Y7807096D01*
X5604256Y7816596D01*
X5609996Y7824978D01*
X5615889Y7832242D01*
X5621883Y7838338D01*
X5628081Y7843266D01*
X5631180Y7845247D01*
X5634329Y7846923D01*
X5637479Y7848295D01*
X5640679Y7849311D01*
X5643880Y7850022D01*
X5647080Y7850428D01*
X5650280Y7850479D01*
X5653481Y7850174D01*
X5656732Y7849565D01*
X5659932Y7848600D01*
X5663133Y7847279D01*
X5681370Y7838795D01*
X5642762Y7588554D01*
X5686602Y7555484D01*
X5764123Y7566507D01*
X5776620Y7568895D01*
X5789574Y7571790D01*
X5802782Y7575245D01*
X5815888Y7579106D01*
X5828792Y7583322D01*
X5841136Y7587792D01*
X5852668Y7592466D01*
X5863234Y7597241D01*
X5872480Y7602016D01*
X5923432Y7633106D01*
X5870295Y7708087D01*
X5894832Y7810550D01*
X5897575Y7823453D01*
X5899759Y7835900D01*
X5901486Y7847888D01*
X5902706Y7859369D01*
X5903417Y7870393D01*
X5903671Y7880959D01*
X5903417Y7891018D01*
X5902756Y7900568D01*
X5901537Y7909661D01*
X5899912Y7918297D01*
X5897829Y7926425D01*
X5895238Y7934045D01*
X5892241Y7941208D01*
X5888786Y7947812D01*
X5884875Y7953959D01*
X5880557Y7959598D01*
X5875782Y7964728D01*
X5870600Y7969351D01*
X5864961Y7973466D01*
X5858916Y7977073D01*
X5852414Y7980121D01*
X5845556Y7982712D01*
X5838291Y7984744D01*
X5830570Y7986268D01*
X5822492Y7987233D01*
G37*
G36*
X5420106Y7383018D02*
G01*
X5394909Y7382662D01*
X5372303Y7381748D01*
X5362143Y7381087D01*
X5345836Y7379411D01*
X5306060Y7374280D01*
X5252516Y7366660D01*
X5191963Y7357516D01*
X5000396Y7326884D01*
X4811979Y7225741D01*
X4515916Y7282637D01*
X4343095Y7263130D01*
X4199636Y7143242D01*
X4131411Y7143242D01*
X4119727Y7142886D01*
X4108196Y7142225D01*
X4096918Y7141260D01*
X4085844Y7139940D01*
X4074972Y7138263D01*
X4064304Y7136282D01*
X4053840Y7133945D01*
X4043578Y7131303D01*
X4033520Y7128306D01*
X4023715Y7125004D01*
X4014063Y7121347D01*
X4004614Y7117384D01*
X3995420Y7113066D01*
X3986377Y7108393D01*
X3977589Y7103414D01*
X3969004Y7098080D01*
X3960571Y7092442D01*
X3952392Y7086447D01*
X3944416Y7080097D01*
X3936593Y7073392D01*
X3929024Y7066432D01*
X3921658Y7059066D01*
X3914495Y7051395D01*
X3907485Y7043369D01*
X3900728Y7034987D01*
X3894175Y7026300D01*
X3887774Y7017258D01*
X3881628Y7007859D01*
X3875633Y6998157D01*
X3869893Y6988098D01*
X3864305Y6977684D01*
X3858920Y6966915D01*
X3853789Y6955840D01*
X3848811Y6944410D01*
X3844036Y6932675D01*
X3839464Y6920534D01*
X3835095Y6908088D01*
X3826916Y6882130D01*
X3819550Y6854799D01*
X3812997Y6826097D01*
X3810000Y6811264D01*
X3804804Y6781647D01*
X3867556Y6781647D01*
X3893362Y6872325D01*
X3897274Y6884517D01*
X3901643Y6896506D01*
X3906367Y6908241D01*
X3911498Y6919722D01*
X3916984Y6930948D01*
X3922776Y6941921D01*
X3928973Y6952589D01*
X3935476Y6963003D01*
X3942283Y6973112D01*
X3949446Y6982917D01*
X3956862Y6992366D01*
X3964533Y7001459D01*
X3972509Y7010247D01*
X3980738Y7018680D01*
X3989171Y7026757D01*
X3997858Y7034428D01*
X4006748Y7041692D01*
X4015841Y7048601D01*
X4025137Y7055053D01*
X4034637Y7061098D01*
X4044238Y7066737D01*
X4054043Y7071868D01*
X4064000Y7076592D01*
X4074058Y7080859D01*
X4084218Y7084618D01*
X4094479Y7087870D01*
X4104843Y7090664D01*
X4115308Y7092899D01*
X4125772Y7094626D01*
X4136339Y7095845D01*
X4146956Y7096506D01*
X4196791Y7097014D01*
X4205186Y7077049D01*
X4293209Y7077049D01*
X4293666Y7086752D01*
X4294987Y7096556D01*
X4297222Y7106462D01*
X4300321Y7116521D01*
X4304284Y7126782D01*
X4327499Y7177328D01*
X4396892Y7200087D01*
X4418787Y7206640D01*
X4429252Y7209383D01*
X4439513Y7211771D01*
X4449724Y7213803D01*
X4459935Y7215479D01*
X4470247Y7216800D01*
X4480763Y7217765D01*
X4491634Y7218375D01*
X4502912Y7218680D01*
X4514697Y7218578D01*
X4527143Y7218172D01*
X4911344Y7218172D01*
X4963210Y7240473D01*
X4984902Y7248956D01*
X5010353Y7258151D01*
X5037785Y7267448D01*
X5072227Y7278420D01*
X5097729Y7285939D01*
X5119471Y7291831D01*
X5128361Y7293914D01*
X5135727Y7295388D01*
X5141214Y7296200D01*
X5142128Y7295997D01*
X5142128Y7295184D01*
X5141366Y7293762D01*
X5137454Y7289292D01*
X5130698Y7282840D01*
X5121351Y7274610D01*
X5109718Y7264908D01*
X5096103Y7253935D01*
X5080711Y7241997D01*
X5046014Y7215987D01*
X5031028Y7205218D01*
X5017871Y7196277D01*
X5006390Y7189063D01*
X4996281Y7183577D01*
X4991709Y7181443D01*
X4987391Y7179716D01*
X4983276Y7178344D01*
X4979416Y7177430D01*
X4975758Y7176820D01*
X4972202Y7176617D01*
X4968798Y7176770D01*
X4965496Y7177227D01*
X4962245Y7178090D01*
X4959045Y7179259D01*
X4955895Y7180732D01*
X4949444Y7184694D01*
X4942789Y7189825D01*
X4935575Y7196124D01*
X4911344Y7218172D01*
X4527143Y7218172D01*
X4540300Y7217460D01*
X4554321Y7216394D01*
X4585258Y7213244D01*
X4620768Y7208824D01*
X4655464Y7203998D01*
X4674463Y7200849D01*
X4694834Y7196886D01*
X4716373Y7192162D01*
X4738979Y7186726D01*
X4762500Y7180630D01*
X4786833Y7173975D01*
X4811826Y7166711D01*
X4843780Y7156907D01*
X4869789Y7148575D01*
X4897910Y7139127D01*
X5072938Y7139127D01*
X5134406Y7189520D01*
X5141518Y7194803D01*
X5149646Y7200442D01*
X5168595Y7212482D01*
X5190490Y7225233D01*
X5214620Y7238238D01*
X5233670Y7247991D01*
X5253278Y7257491D01*
X5279644Y7269530D01*
X5305653Y7280554D01*
X5434482Y7331252D01*
X5687009Y7316470D01*
X5787999Y7279538D01*
X5796940Y7275931D01*
X5816447Y7267092D01*
X5830184Y7260285D01*
X5991758Y7260285D01*
X5992368Y7261809D01*
X5993079Y7262368D01*
X5995263Y7262977D01*
X5998413Y7262977D01*
X6002680Y7262368D01*
X6007912Y7261148D01*
X6014212Y7259370D01*
X6029858Y7253935D01*
X6049670Y7246162D01*
X6073597Y7236002D01*
X6101689Y7223556D01*
X6132372Y7209383D01*
X6147308Y7202017D01*
X6162040Y7194448D01*
X6176264Y7186777D01*
X6202832Y7171588D01*
X6214770Y7164222D01*
X6225641Y7157161D01*
X6235242Y7150506D01*
X6243370Y7144308D01*
X6249924Y7138771D01*
X6254699Y7133945D01*
X6282690Y7101484D01*
X6228029Y7067245D01*
X6076442Y7182866D01*
X6052261Y7201814D01*
X6032093Y7218222D01*
X6015990Y7231989D01*
X6004001Y7243216D01*
X5999480Y7247890D01*
X5996025Y7251903D01*
X5993587Y7255357D01*
X5992164Y7258100D01*
X5991809Y7259269D01*
X5991758Y7260285D01*
X5830184Y7260285D01*
X5849213Y7250277D01*
X5872784Y7237018D01*
X5897372Y7222490D01*
X5928918Y7202881D01*
X5954420Y7186320D01*
X5979718Y7169251D01*
X6004458Y7151878D01*
X6028334Y7134555D01*
X6050940Y7117435D01*
X6071870Y7100824D01*
X6090869Y7084923D01*
X6107480Y7070039D01*
X6114796Y7063028D01*
X6121400Y7056323D01*
X6127242Y7050024D01*
X6132220Y7044131D01*
X6136386Y7038695D01*
X6157569Y7008774D01*
X6146998Y6993331D01*
X6263894Y6993331D01*
X6296355Y7030669D01*
X6302756Y7037527D01*
X6309461Y7044283D01*
X6316573Y7050887D01*
X6323990Y7057390D01*
X6331712Y7063790D01*
X6339738Y7070090D01*
X6348120Y7076287D01*
X6356756Y7082332D01*
X6365697Y7088276D01*
X6384391Y7099757D01*
X6399123Y7108037D01*
X6419596Y7118654D01*
X6435547Y7126224D01*
X6446469Y7131151D01*
X6468872Y7140498D01*
X6497980Y7151370D01*
X6509867Y7155434D01*
X6528054Y7161275D01*
X6552742Y7168540D01*
X6577939Y7175144D01*
X6597142Y7179665D01*
X6629552Y7186371D01*
X6655765Y7190943D01*
X6675577Y7193940D01*
X6702145Y7197242D01*
X6722059Y7199274D01*
X6742023Y7200849D01*
X6775246Y7202525D01*
X6795058Y7202931D01*
X6821322Y7202779D01*
X6847331Y7201814D01*
X6860184Y7201001D01*
X6885686Y7198766D01*
X6904481Y7196531D01*
X6929170Y7192772D01*
X6953250Y7188098D01*
X6964476Y7185558D01*
X6974890Y7182866D01*
X6985152Y7179919D01*
X6999986Y7174941D01*
X7009638Y7171334D01*
X7019036Y7167422D01*
X7032650Y7161072D01*
X7041438Y7156500D01*
X7050024Y7151674D01*
X7058304Y7146594D01*
X7066432Y7141260D01*
X7074255Y7135622D01*
X7081875Y7129780D01*
X7089190Y7123684D01*
X7096353Y7117283D01*
X7103211Y7110679D01*
X7109866Y7103770D01*
X7116267Y7096658D01*
X7122414Y7089292D01*
X7128306Y7081672D01*
X7133996Y7073798D01*
X7139431Y7065670D01*
X7144562Y7057339D01*
X7149541Y7048703D01*
X7154214Y7039864D01*
X7158634Y7030821D01*
X7162850Y7021474D01*
X7166762Y7011924D01*
X7170470Y7002119D01*
X7173925Y6992112D01*
X7177125Y6981850D01*
X7182815Y6960616D01*
X7185253Y6949694D01*
X7189419Y6927088D01*
X7192568Y6903618D01*
X7194702Y6879234D01*
X7195820Y6853986D01*
X7195921Y6827875D01*
X7194956Y6800900D01*
X7194143Y6787083D01*
X7191654Y6758889D01*
X7188149Y6729780D01*
X7183628Y6699910D01*
X7180986Y6684670D01*
X7176465Y6661403D01*
X7169607Y6629704D01*
X7164933Y6611213D01*
X7159142Y6590944D01*
X7152335Y6569151D01*
X7144512Y6545935D01*
X7135774Y6521500D01*
X7123734Y6489395D01*
X7113270Y6462674D01*
X7099249Y6428282D01*
X7087463Y6400139D01*
X7072020Y6364427D01*
X7059218Y6335623D01*
X7042810Y6299555D01*
X7022693Y6256680D01*
X7009180Y6228537D01*
X6992264Y6194196D01*
X6975449Y6160973D01*
X6962190Y6135471D01*
X6949186Y6111036D01*
X6933438Y6082284D01*
X6921296Y6060897D01*
X6909663Y6041136D01*
X6898589Y6023152D01*
X6888175Y6007049D01*
X6878523Y5993028D01*
X6869633Y5981293D01*
X6865569Y5976264D01*
X6858050Y5968136D01*
X6854647Y5965088D01*
X6851548Y5962650D01*
X6848703Y5960922D01*
X6846163Y5959957D01*
X6843877Y5959652D01*
X6841896Y5960160D01*
X6841032Y5960719D01*
X6839966Y5961837D01*
X6839254Y5963310D01*
X6838899Y5965190D01*
X6838848Y5967425D01*
X6839153Y5970066D01*
X6840778Y5976366D01*
X6843725Y5984087D01*
X6847941Y5993130D01*
X6853478Y6003594D01*
X6860286Y6015278D01*
X6868312Y6028283D01*
X6877558Y6042507D01*
X6888022Y6057900D01*
X6899706Y6074460D01*
X6936231Y6124905D01*
X6915454Y6155690D01*
X6910882Y6164072D01*
X6905752Y6174790D01*
X6900214Y6187338D01*
X6894474Y6201308D01*
X6888734Y6216345D01*
X6883095Y6231940D01*
X6877761Y6247739D01*
X6851700Y6331051D01*
X6896353Y6368237D01*
X6907072Y6377787D01*
X6916877Y6387185D01*
X6925818Y6396431D01*
X6933895Y6405575D01*
X6941108Y6414516D01*
X6947458Y6423304D01*
X6952945Y6431940D01*
X6957618Y6440322D01*
X6961378Y6448501D01*
X6964324Y6456476D01*
X6966407Y6464147D01*
X6967677Y6471564D01*
X6968083Y6478727D01*
X6967981Y6482181D01*
X6967118Y6488887D01*
X6965442Y6495288D01*
X6962902Y6501333D01*
X6959549Y6506972D01*
X6955383Y6512306D01*
X6950405Y6517233D01*
X6944614Y6521805D01*
X6938009Y6525920D01*
X6930542Y6529628D01*
X6922312Y6532880D01*
X6913270Y6535674D01*
X6903415Y6538010D01*
X6892747Y6539839D01*
X6881317Y6541160D01*
X6869074Y6541973D01*
X6856018Y6542278D01*
X6800596Y6542278D01*
X6672630Y6444335D01*
X6656578Y6432448D01*
X6642201Y6422136D01*
X6629450Y6413398D01*
X6618224Y6406184D01*
X6608368Y6400495D01*
X6599885Y6396278D01*
X6592570Y6393586D01*
X6589369Y6392773D01*
X6586423Y6392316D01*
X6583730Y6392265D01*
X6581292Y6392519D01*
X6579108Y6393180D01*
X6577126Y6394145D01*
X6575348Y6395516D01*
X6573774Y6397193D01*
X6572402Y6399225D01*
X6570167Y6404356D01*
X6568592Y6410858D01*
X6567474Y6418630D01*
X6566814Y6427774D01*
X6566509Y6438239D01*
X6565900Y6448806D01*
X6564579Y6459931D01*
X6562547Y6471513D01*
X6559854Y6483502D01*
X6556502Y6495694D01*
X6552641Y6508038D01*
X6548221Y6520484D01*
X6543294Y6532829D01*
X6537959Y6545122D01*
X6532219Y6557111D01*
X6526123Y6568795D01*
X6519722Y6580073D01*
X6513068Y6590792D01*
X6506209Y6600901D01*
X6499148Y6610299D01*
X6491986Y6618833D01*
X6484772Y6626504D01*
X6471056Y6639153D01*
X6465366Y6646011D01*
X6460439Y6653631D01*
X6458254Y6657695D01*
X6454444Y6666433D01*
X6452768Y6671056D01*
X6450076Y6680860D01*
X6448958Y6685991D01*
X6447383Y6696811D01*
X6446469Y6708241D01*
X6446367Y6720281D01*
X6446926Y6732930D01*
X6448298Y6746138D01*
X6450380Y6759905D01*
X6453174Y6774180D01*
X6456730Y6789013D01*
X6461048Y6804304D01*
X6466078Y6820001D01*
X6471869Y6836206D01*
X6505194Y6921042D01*
X6568744Y6966966D01*
X6577533Y6972604D01*
X6586931Y6978091D01*
X6596938Y6983323D01*
X6607505Y6988403D01*
X6618528Y6993229D01*
X6630009Y6997852D01*
X6641846Y7002170D01*
X6653987Y7006234D01*
X6672681Y7011873D01*
X6685432Y7015225D01*
X6698234Y7018324D01*
X6717588Y7022287D01*
X6730492Y7024573D01*
X6743293Y7026452D01*
X6755942Y7027976D01*
X6768439Y7029145D01*
X6780733Y7029907D01*
X6792671Y7030262D01*
X6804304Y7030212D01*
X6815480Y7029754D01*
X6826199Y7028840D01*
X6836409Y7027468D01*
X6848449Y7025436D01*
X6855206Y7024573D01*
X6861606Y7024065D01*
X6873189Y7024014D01*
X6878421Y7024471D01*
X6883196Y7025182D01*
X6887514Y7026148D01*
X6891375Y7027367D01*
X6894779Y7028840D01*
X6897674Y7030567D01*
X6900062Y7032447D01*
X6901942Y7034530D01*
X6903313Y7036816D01*
X6904075Y7039254D01*
X6904278Y7041845D01*
X6903923Y7044588D01*
X6902958Y7047433D01*
X6901383Y7050379D01*
X6899148Y7053427D01*
X6896303Y7056577D01*
X6892798Y7059777D01*
X6888581Y7062978D01*
X6883704Y7066280D01*
X6853428Y7085228D01*
X6588506Y7072477D01*
X6521196Y7024166D01*
X6513169Y7017867D01*
X6504736Y7010704D01*
X6495948Y7002780D01*
X6486906Y6994194D01*
X6477711Y6985101D01*
X6459169Y6965543D01*
X6450076Y6955383D01*
X6432499Y6934555D01*
X6424218Y6924141D01*
X6416446Y6913880D01*
X6409232Y6903821D01*
X6350254Y6816344D01*
X6263894Y6993331D01*
X6146998Y6993331D01*
X6069990Y6881063D01*
X6050737Y6853885D01*
X6033008Y6829450D01*
X6017666Y6809079D01*
X6005525Y6793839D01*
X6001004Y6788505D01*
X5997549Y6784848D01*
X5995466Y6783171D01*
X5993434Y6782155D01*
X5990894Y6781393D01*
X5987897Y6780834D01*
X5984443Y6780479D01*
X5976162Y6780479D01*
X5966155Y6781393D01*
X5954471Y6783070D01*
X5941110Y6785609D01*
X5926277Y6788912D01*
X5909919Y6792925D01*
X5892139Y6797751D01*
X5873038Y6803237D01*
X5852617Y6809435D01*
X5808319Y6823760D01*
X5753354Y6842810D01*
X5700572Y6862114D01*
X5665927Y6875221D01*
X5608320Y6897674D01*
X5563666Y6915658D01*
X5517946Y6934504D01*
X5486958Y6947509D01*
X5416397Y6977938D01*
X5345176Y7009739D01*
X5305552Y7027875D01*
X5266131Y7046264D01*
X5234787Y7061149D01*
X5072938Y7139127D01*
X4897910Y7139127D01*
X4922367Y7130643D01*
X4961737Y7116267D01*
X4987747Y7106412D01*
X5013350Y7096302D01*
X5044694Y7083399D01*
X5063032Y7075627D01*
X5098338Y7059879D01*
X5126126Y7046722D01*
X5162804Y7028180D01*
X5198211Y7010603D01*
X5241747Y6989724D01*
X5303469Y6960768D01*
X5362041Y6933946D01*
X5419445Y6908139D01*
X5603646Y6826859D01*
X4903774Y6838137D01*
X4679238Y6806742D01*
X4426153Y6897522D01*
X4360011Y6958177D01*
X4349191Y6968794D01*
X4339336Y6979158D01*
X4330446Y6989368D01*
X4322521Y6999427D01*
X4315612Y7009333D01*
X4309618Y7019137D01*
X4304538Y7028891D01*
X4300474Y7038543D01*
X4298746Y7043318D01*
X4296003Y7052970D01*
X4294987Y7057745D01*
X4293666Y7067346D01*
X4293311Y7072172D01*
X4293209Y7077049D01*
X4205186Y7077049D01*
X4211828Y7060793D01*
X4213453Y7055459D01*
X4214571Y7050328D01*
X4215231Y7045452D01*
X4215434Y7040778D01*
X4215130Y7036358D01*
X4214368Y7032193D01*
X4213098Y7028332D01*
X4211421Y7024674D01*
X4209288Y7021322D01*
X4206697Y7018223D01*
X4203649Y7015480D01*
X4200194Y7012990D01*
X4196283Y7010806D01*
X4191965Y7008926D01*
X4187240Y7007402D01*
X4182110Y7006183D01*
X4176522Y7005269D01*
X4170578Y7004761D01*
X4159453Y7004354D01*
X4154322Y7003694D01*
X4148988Y7002678D01*
X4137660Y6999528D01*
X4125874Y6995159D01*
X4113936Y6989724D01*
X4102252Y6983526D01*
X4091127Y6976719D01*
X4080967Y6969556D01*
X4072077Y6962241D01*
X4068267Y6958634D01*
X4064914Y6955028D01*
X4062069Y6951522D01*
X4059783Y6948119D01*
X4058056Y6944817D01*
X4057040Y6941718D01*
X4056684Y6938772D01*
X4056684Y6924040D01*
X4233824Y6944106D01*
X4499000Y6798157D01*
X4499102Y6796582D01*
X4498492Y6792468D01*
X4495190Y6777228D01*
X4485843Y6739737D01*
X4477207Y6707022D01*
X4458258Y6637781D01*
X4451705Y6612026D01*
X4446981Y6592011D01*
X4442460Y6571589D01*
X4437989Y6549948D01*
X4544720Y6549948D01*
X4556658Y6655612D01*
X4558690Y6671411D01*
X4563262Y6701028D01*
X4565650Y6714439D01*
X4568088Y6726580D01*
X4570526Y6737248D01*
X4572914Y6746138D01*
X4575200Y6753098D01*
X4577283Y6757873D01*
X4578299Y6759346D01*
X4589881Y6773519D01*
X4669028Y6741515D01*
X4633163Y6700062D01*
X4627168Y6692595D01*
X4620818Y6684060D01*
X4607407Y6664706D01*
X4594047Y6643674D01*
X4581753Y6622542D01*
X4576267Y6612432D01*
X4544720Y6549948D01*
X4437989Y6549948D01*
X4432960Y6523634D01*
X4428286Y6496862D01*
X4424324Y6471259D01*
X4421124Y6447282D01*
X4418838Y6425488D01*
X4417466Y6406388D01*
X4414291Y6313170D01*
X4606290Y6313170D01*
X4606645Y6315608D01*
X4607509Y6317996D01*
X4608931Y6320383D01*
X4610862Y6322669D01*
X4613351Y6324955D01*
X4616297Y6327140D01*
X4619752Y6329222D01*
X4628032Y6333032D01*
X4632858Y6334760D01*
X4638090Y6336334D01*
X4649825Y6338925D01*
X4656277Y6339992D01*
X4670348Y6341414D01*
X4677918Y6341821D01*
X4736592Y6341922D01*
X4716724Y6325362D01*
X4751273Y6325362D01*
X4780026Y6317030D01*
X4786020Y6314948D01*
X4792065Y6312103D01*
X4797958Y6308648D01*
X4803597Y6304737D01*
X4808778Y6300470D01*
X4813300Y6295948D01*
X4817059Y6291376D01*
X4819904Y6286804D01*
X4822444Y6281166D01*
X4823968Y6276390D01*
X4824476Y6272479D01*
X4824120Y6269482D01*
X4822952Y6267297D01*
X4820970Y6265926D01*
X4818380Y6265418D01*
X4815128Y6265672D01*
X4811369Y6266738D01*
X4807153Y6268567D01*
X4802530Y6271158D01*
X4797602Y6274511D01*
X4792472Y6278626D01*
X4787138Y6283401D01*
X4781702Y6288938D01*
X4776317Y6295136D01*
X4751273Y6325362D01*
X4716724Y6325362D01*
X4700879Y6312154D01*
X4695799Y6308191D01*
X4690414Y6304534D01*
X4684776Y6301232D01*
X4678984Y6298285D01*
X4673092Y6295694D01*
X4667250Y6293561D01*
X4661458Y6291834D01*
X4655820Y6290564D01*
X4650435Y6289802D01*
X4645406Y6289548D01*
X4640681Y6289802D01*
X4636465Y6290665D01*
X4630521Y6292545D01*
X4625289Y6294577D01*
X4620666Y6296660D01*
X4616754Y6298895D01*
X4613452Y6301181D01*
X4610811Y6303467D01*
X4608779Y6305854D01*
X4607356Y6308293D01*
X4606544Y6310731D01*
X4606290Y6313170D01*
X4414291Y6313170D01*
X4413859Y6300470D01*
X4439158Y6276340D01*
X4444542Y6269939D01*
X4450384Y6261963D01*
X4456531Y6252667D01*
X4462729Y6242405D01*
X4468876Y6231483D01*
X4474768Y6220155D01*
X4480153Y6208776D01*
X4505604Y6149136D01*
X4463542Y6065469D01*
X4454042Y6044590D01*
X4444695Y6021476D01*
X4435805Y5997143D01*
X4431639Y5984798D01*
X4425848Y5966409D01*
X4419142Y5942838D01*
X4416348Y5931662D01*
X4414012Y5921146D01*
X4409440Y5898083D01*
X4406138Y5884926D01*
X4402277Y5872073D01*
X4397959Y5859729D01*
X4393336Y5848146D01*
X4388408Y5837478D01*
X4383278Y5827979D01*
X4378096Y5819851D01*
X4372965Y5813298D01*
X4370374Y5810707D01*
X4367885Y5808573D01*
X4345640Y5791758D01*
X4485335Y5791758D01*
X4485640Y5867654D01*
X4486249Y5878474D01*
X4487367Y5890158D01*
X4489043Y5902553D01*
X4491126Y5915406D01*
X4493666Y5928664D01*
X4496562Y5942076D01*
X4499813Y5955436D01*
X4503369Y5968644D01*
X4507230Y5981446D01*
X4511243Y5993688D01*
X4515510Y6005169D01*
X4526635Y6033516D01*
X4535678Y6058916D01*
X4544364Y6085382D01*
X4552238Y6111494D01*
X4558842Y6135878D01*
X4563770Y6157010D01*
X4577892Y6226352D01*
X4686604Y6220460D01*
X4715002Y6218224D01*
X4742738Y6215227D01*
X4768596Y6211671D01*
X4791151Y6207709D01*
X4800752Y6205626D01*
X4809032Y6203543D01*
X4815840Y6201460D01*
X4824831Y6198057D01*
X4836617Y6194145D01*
X4847640Y6191453D01*
X4857851Y6189776D01*
X4867198Y6189218D01*
X4871516Y6189319D01*
X4875682Y6189675D01*
X4883251Y6191097D01*
X4886756Y6192164D01*
X4892954Y6194958D01*
X4895748Y6196736D01*
X4898288Y6198666D01*
X4900574Y6200851D01*
X4902606Y6203188D01*
X4904435Y6205778D01*
X4906010Y6208522D01*
X4907330Y6211468D01*
X4908397Y6214567D01*
X4909210Y6217920D01*
X4909769Y6221374D01*
X4910074Y6228842D01*
X4909362Y6236919D01*
X4907534Y6245606D01*
X4904638Y6254851D01*
X4900574Y6264605D01*
X4895443Y6274816D01*
X4889093Y6285433D01*
X4881575Y6296507D01*
X4872888Y6307836D01*
X4831943Y6358534D01*
X4644390Y6419240D01*
X4656683Y6443472D01*
X4657953Y6446367D01*
X4660341Y6454089D01*
X4662576Y6464147D01*
X4664557Y6476187D01*
X4666183Y6489700D01*
X4667554Y6504330D01*
X4668469Y6519722D01*
X4668977Y6535369D01*
X4669028Y6618579D01*
X4773625Y6670344D01*
X4878933Y6632549D01*
X4896154Y6626859D01*
X4909362Y6623202D01*
X4914646Y6622135D01*
X4919116Y6621576D01*
X4922875Y6621576D01*
X4925974Y6622084D01*
X4928412Y6623151D01*
X4930343Y6624726D01*
X4931816Y6626859D01*
X4932883Y6629501D01*
X4933594Y6632752D01*
X4934051Y6636512D01*
X4934356Y6645808D01*
X4934407Y6683248D01*
X4842560Y6712458D01*
X4830114Y6716877D01*
X4819142Y6721144D01*
X4809693Y6725310D01*
X4801717Y6729323D01*
X4795164Y6733235D01*
X4790033Y6736994D01*
X4786325Y6740652D01*
X4783886Y6744106D01*
X4783175Y6745833D01*
X4782718Y6749135D01*
X4782972Y6750710D01*
X4783937Y6753047D01*
X4785004Y6754571D01*
X4787087Y6756806D01*
X4790948Y6759651D01*
X4795977Y6762343D01*
X4802073Y6764883D01*
X4809337Y6767322D01*
X4817618Y6769658D01*
X4837277Y6773875D01*
X4848555Y6775754D01*
X4863998Y6777939D01*
X4877358Y6779564D01*
X4895291Y6781393D01*
X4926634Y6783882D01*
X4974691Y6786422D01*
X5022850Y6787845D01*
X5069433Y6788403D01*
X5118658Y6788302D01*
X5176113Y6787388D01*
X5211775Y6786422D01*
X5272786Y6784136D01*
X5341772Y6780682D01*
X5392775Y6777481D01*
X5444236Y6773773D01*
X5476494Y6771182D01*
X5521655Y6767169D01*
X5553811Y6764070D01*
X5624017Y6756501D01*
X5668060Y6751116D01*
X5705246Y6746189D01*
X5741822Y6740956D01*
X5771743Y6736334D01*
X5806897Y6730542D01*
X5835497Y6725462D01*
X5863386Y6720128D01*
X5890564Y6714642D01*
X6039815Y6682435D01*
X6097524Y6782663D01*
X6123127Y6828078D01*
X6146038Y6869226D01*
X6182207Y6935216D01*
X6209995Y6906869D01*
X6213957Y6902043D01*
X6218224Y6895490D01*
X6222746Y6887311D01*
X6227470Y6877761D01*
X6232245Y6866940D01*
X6237122Y6855053D01*
X6241948Y6842201D01*
X6246672Y6828637D01*
X6251244Y6814464D01*
X6255613Y6799884D01*
X6259677Y6785051D01*
X6263386Y6770116D01*
X6289040Y6661708D01*
X6257340Y6496304D01*
X6249974Y6459575D01*
X6246622Y6444335D01*
X6243370Y6431076D01*
X6240119Y6419646D01*
X6236868Y6409944D01*
X6233414Y6401866D01*
X6231636Y6398412D01*
X6227826Y6392519D01*
X6223711Y6388049D01*
X6221476Y6386271D01*
X6219088Y6384798D01*
X6216650Y6383629D01*
X6214008Y6382715D01*
X6211265Y6382054D01*
X6208318Y6381648D01*
X6201968Y6381546D01*
X6194856Y6382207D01*
X6186881Y6383629D01*
X6177991Y6385610D01*
X6094730Y6407404D01*
X6045860Y6390589D01*
X6040780Y6388658D01*
X6035751Y6386423D01*
X6030722Y6383782D01*
X6025794Y6380886D01*
X6020968Y6377736D01*
X6011722Y6370726D01*
X6003290Y6363004D01*
X5999429Y6358940D01*
X5995873Y6354775D01*
X5992672Y6350558D01*
X5989777Y6346291D01*
X5987288Y6342024D01*
X5985205Y6337808D01*
X5983630Y6333642D01*
X5970523Y6294221D01*
X6051956Y6294221D01*
X6066434Y6322415D01*
X6068822Y6326276D01*
X6071260Y6329680D01*
X6073851Y6332626D01*
X6076594Y6335064D01*
X6079540Y6337046D01*
X6082690Y6338570D01*
X6086144Y6339636D01*
X6089853Y6340195D01*
X6093917Y6340297D01*
X6098336Y6339941D01*
X6103213Y6339078D01*
X6108496Y6337757D01*
X6114288Y6335928D01*
X6120587Y6333642D01*
X6134862Y6327597D01*
X6151676Y6319570D01*
X6444894Y6171488D01*
X6444894Y6095339D01*
X6473342Y6095339D01*
X6479082Y6095593D01*
X6484416Y6096254D01*
X6489242Y6097371D01*
X6493662Y6098946D01*
X6497624Y6100978D01*
X6501079Y6103416D01*
X6504127Y6106363D01*
X6506768Y6109665D01*
X6508902Y6113475D01*
X6510578Y6117691D01*
X6511798Y6122365D01*
X6512610Y6127445D01*
X6512915Y6132982D01*
X6512763Y6138976D01*
X6512204Y6145377D01*
X6511137Y6152184D01*
X6509664Y6159449D01*
X6507683Y6167120D01*
X6505295Y6175248D01*
X6484721Y6233668D01*
X6362547Y6281369D01*
X6409029Y6346901D01*
X6395008Y6450634D01*
X6393332Y6466433D01*
X6392113Y6482080D01*
X6391300Y6497167D01*
X6390944Y6511544D01*
X6391046Y6524955D01*
X6391605Y6537096D01*
X6392570Y6547662D01*
X6393992Y6556502D01*
X6394856Y6560210D01*
X6396939Y6565849D01*
X6410858Y6593230D01*
X6485737Y6523431D01*
X6486093Y6452463D01*
X6486550Y6438646D01*
X6487414Y6425641D01*
X6488684Y6413398D01*
X6490309Y6401968D01*
X6492341Y6391351D01*
X6494830Y6381546D01*
X6497675Y6372453D01*
X6500977Y6364224D01*
X6504685Y6356756D01*
X6508800Y6350050D01*
X6513372Y6344158D01*
X6518351Y6339027D01*
X6523735Y6334709D01*
X6529578Y6331153D01*
X6535877Y6328410D01*
X6542633Y6326428D01*
X6549796Y6325209D01*
X6557467Y6324803D01*
X6565544Y6325158D01*
X6574129Y6326276D01*
X6583121Y6328156D01*
X6592620Y6330848D01*
X6602577Y6334302D01*
X6612991Y6338519D01*
X6623913Y6343497D01*
X6635343Y6349238D01*
X6647230Y6355791D01*
X6659575Y6363055D01*
X6672478Y6371132D01*
X6685838Y6379972D01*
X6699707Y6389522D01*
X6727799Y6409486D01*
X6754977Y6428028D01*
X6780377Y6444538D01*
X6803186Y6458610D01*
X6822490Y6469634D01*
X6830568Y6473850D01*
X6837425Y6477101D01*
X6843014Y6479336D01*
X6847179Y6480454D01*
X6852666Y6480556D01*
X6859727Y6480048D01*
X6865670Y6479082D01*
X6870547Y6477558D01*
X6872528Y6476593D01*
X6874256Y6475476D01*
X6875678Y6474206D01*
X6876846Y6472783D01*
X6877710Y6471259D01*
X6878269Y6469532D01*
X6878523Y6467703D01*
X6878523Y6465671D01*
X6878218Y6463487D01*
X6876694Y6458661D01*
X6873951Y6453174D01*
X6869938Y6446926D01*
X6864756Y6440017D01*
X6858253Y6432346D01*
X6850532Y6423964D01*
X6841490Y6414719D01*
X6831177Y6404711D01*
X6819544Y6393891D01*
X6792214Y6369659D01*
X6759448Y6341872D01*
X6587794Y6200648D01*
X6587794Y6164021D01*
X6588353Y6154826D01*
X6589064Y6150051D01*
X6591435Y6139637D01*
X6669633Y6139637D01*
X6669684Y6143447D01*
X6670294Y6147612D01*
X6671462Y6152083D01*
X6673240Y6156909D01*
X6675475Y6161989D01*
X6678269Y6167323D01*
X6681571Y6172860D01*
X6685381Y6178600D01*
X6689699Y6184442D01*
X6694525Y6190437D01*
X6699808Y6196533D01*
X6705549Y6202680D01*
X6711746Y6208877D01*
X6724142Y6219952D01*
X6730288Y6224879D01*
X6736334Y6229299D01*
X6742328Y6233312D01*
X6748221Y6236919D01*
X6754012Y6240018D01*
X6759752Y6242659D01*
X6765442Y6244894D01*
X6770979Y6246622D01*
X6776415Y6247942D01*
X6781698Y6248806D01*
X6786930Y6249162D01*
X6792010Y6249111D01*
X6796938Y6248552D01*
X6801764Y6247587D01*
X6806438Y6246114D01*
X6810959Y6244183D01*
X6815277Y6241796D01*
X6819493Y6238900D01*
X6820509Y6237630D01*
X6820763Y6235801D01*
X6820255Y6233566D01*
X6819138Y6230874D01*
X6817410Y6227775D01*
X6812178Y6220612D01*
X6804964Y6212332D01*
X6796074Y6203137D01*
X6785813Y6193434D01*
X6774586Y6183376D01*
X6762699Y6173368D01*
X6750456Y6163614D01*
X6738264Y6154369D01*
X6726326Y6146038D01*
X6715099Y6138773D01*
X6704888Y6132880D01*
X6700266Y6130544D01*
X6695998Y6128715D01*
X6692138Y6127343D01*
X6688734Y6126480D01*
X6685838Y6126175D01*
X6681673Y6126480D01*
X6678117Y6127394D01*
X6675221Y6128816D01*
X6672935Y6130848D01*
X6671208Y6133287D01*
X6670141Y6136284D01*
X6669633Y6139637D01*
X6591435Y6139637D01*
X6594551Y6129731D01*
X6598666Y6119164D01*
X6603644Y6108395D01*
X6609384Y6097625D01*
X6615785Y6086906D01*
X6622846Y6076289D01*
X6630365Y6065977D01*
X6634620Y6060643D01*
X6735216Y6060643D01*
X6736384Y6065215D01*
X6738924Y6070447D01*
X6742785Y6076289D01*
X6747865Y6082487D01*
X6754012Y6088837D01*
X6761175Y6095288D01*
X6768338Y6101029D01*
X6775297Y6106160D01*
X6782104Y6110782D01*
X6788607Y6114796D01*
X6794855Y6118199D01*
X6800748Y6120993D01*
X6806285Y6123127D01*
X6811416Y6124702D01*
X6816090Y6125616D01*
X6820255Y6125870D01*
X6823913Y6125464D01*
X6826961Y6124346D01*
X6829450Y6122619D01*
X6831279Y6120180D01*
X6832346Y6117031D01*
X6832752Y6113170D01*
X6832142Y6109868D01*
X6830466Y6106261D01*
X6827824Y6102299D01*
X6824268Y6098082D01*
X6819950Y6093764D01*
X6814972Y6089294D01*
X6809486Y6084824D01*
X6803491Y6080353D01*
X6790690Y6071819D01*
X6777431Y6064250D01*
X6770928Y6060998D01*
X6764629Y6058154D01*
X6758635Y6055868D01*
X6753098Y6054090D01*
X6748119Y6053023D01*
X6743750Y6052616D01*
X6740194Y6053023D01*
X6737502Y6054242D01*
X6735572Y6056934D01*
X6735216Y6060643D01*
X6634620Y6060643D01*
X6642506Y6051296D01*
X6651040Y6042101D01*
X6659829Y6033566D01*
X6668770Y6025794D01*
X6677812Y6018885D01*
X6686905Y6012942D01*
X6695897Y6008065D01*
X6704787Y6004356D01*
X6750303Y5988405D01*
X6726326Y5941263D01*
X6670344Y5941364D01*
X6660388Y5942177D01*
X6649262Y5943803D01*
X6637172Y5946140D01*
X6624421Y5949137D01*
X6611213Y5952693D01*
X6597853Y5956706D01*
X6584543Y5961176D01*
X6571589Y5966053D01*
X6559245Y5971184D01*
X6549085Y5975807D01*
X6539687Y5979668D01*
X6529222Y5983478D01*
X6517843Y5987288D01*
X6505702Y5990996D01*
X6479641Y5998108D01*
X6452057Y6004458D01*
X6424117Y6009894D01*
X6396837Y6014059D01*
X6383731Y6015634D01*
X6271412Y6025997D01*
X6194755Y6146139D01*
X6177026Y6172454D01*
X6168034Y6185154D01*
X6150051Y6209233D01*
X6141313Y6220358D01*
X6124600Y6240373D01*
X6116828Y6249009D01*
X6109563Y6256629D01*
X6102908Y6263081D01*
X6096914Y6268313D01*
X6091631Y6272174D01*
X6089345Y6273596D01*
X6051956Y6294221D01*
X5970523Y6294221D01*
X5970270Y6293459D01*
X6036056Y6241034D01*
X6044895Y6233566D01*
X6053886Y6225540D01*
X6072174Y6208166D01*
X6089904Y6189827D01*
X6098336Y6180683D01*
X6106261Y6171641D01*
X6113576Y6162852D01*
X6120180Y6154470D01*
X6125972Y6146596D01*
X6163665Y6090259D01*
X6143193Y5953150D01*
X6097168Y5909970D01*
X6091275Y5903874D01*
X6084722Y5896610D01*
X6069990Y5878931D01*
X6053582Y5857849D01*
X6036157Y5834278D01*
X6018479Y5809132D01*
X6001156Y5783275D01*
X5992825Y5770422D01*
X5921146Y5656173D01*
X5815330Y5578195D01*
X5793333Y5562752D01*
X5770880Y5547969D01*
X5753709Y5537250D01*
X5730544Y5523636D01*
X5718860Y5517083D01*
X5701182Y5507583D01*
X5677458Y5495594D01*
X5665520Y5489854D01*
X5647588Y5481675D01*
X5635599Y5476443D01*
X5617616Y5469026D01*
X5599633Y5462066D01*
X5575757Y5453583D01*
X5552033Y5445963D01*
X5528513Y5439308D01*
X5516829Y5436311D01*
X5493816Y5431129D01*
X5471160Y5426913D01*
X5448960Y5423712D01*
X5368188Y5413959D01*
X5354675Y5430469D01*
X5352897Y5433212D01*
X5351932Y5436158D01*
X5351627Y5439257D01*
X5351983Y5442508D01*
X5352999Y5445963D01*
X5354624Y5449519D01*
X5356809Y5453126D01*
X5359552Y5456834D01*
X5362803Y5460593D01*
X5366461Y5464352D01*
X5370576Y5468162D01*
X5379974Y5475579D01*
X5390692Y5482793D01*
X5402427Y5489498D01*
X5408574Y5492648D01*
X5421325Y5498287D01*
X5427827Y5500776D01*
X5440934Y5504992D01*
X5447487Y5506669D01*
X5453938Y5507990D01*
X5460339Y5508955D01*
X5466588Y5509564D01*
X5472734Y5509768D01*
X5521147Y5509768D01*
X5613908Y5586018D01*
X5632450Y5602173D01*
X5651957Y5619750D01*
X5671921Y5638241D01*
X5691682Y5657088D01*
X5715152Y5680202D01*
X5732272Y5697728D01*
X5758484Y5725718D01*
X5770168Y5737504D01*
X5782005Y5748934D01*
X5793841Y5759754D01*
X5805424Y5769813D01*
X5816549Y5778906D01*
X5827014Y5786882D01*
X5836513Y5793536D01*
X5844946Y5798718D01*
X5852007Y5802172D01*
X5890361Y5817666D01*
X5873343Y5865368D01*
X5868670Y5876290D01*
X5866231Y5881065D01*
X5863742Y5885383D01*
X5861151Y5889193D01*
X5858560Y5892546D01*
X5855817Y5895441D01*
X5853023Y5897880D01*
X5850077Y5899810D01*
X5847080Y5901334D01*
X5843930Y5902350D01*
X5840679Y5902858D01*
X5837275Y5902909D01*
X5833719Y5902553D01*
X5830062Y5901639D01*
X5826201Y5900318D01*
X5822238Y5898489D01*
X5818073Y5896203D01*
X5813704Y5893409D01*
X5809183Y5890158D01*
X5799582Y5882233D01*
X5789117Y5872429D01*
X5777738Y5860694D01*
X5768441Y5850534D01*
X5761177Y5842965D01*
X5744311Y5826455D01*
X5724652Y5808472D01*
X5702960Y5789472D01*
X5667857Y5760212D01*
X5643575Y5740806D01*
X5619394Y5722061D01*
X5595823Y5704484D01*
X5573522Y5688431D01*
X5553151Y5674461D01*
X5535218Y5663031D01*
X5527395Y5658408D01*
X5520436Y5654598D01*
X5514340Y5651652D01*
X5509310Y5649620D01*
X5505348Y5648604D01*
X5490514Y5647842D01*
X5481726Y5646775D01*
X5472938Y5645200D01*
X5464200Y5643118D01*
X5455513Y5640527D01*
X5446877Y5637428D01*
X5438241Y5633872D01*
X5429758Y5629859D01*
X5421274Y5625439D01*
X5412892Y5620512D01*
X5404612Y5615228D01*
X5396382Y5609488D01*
X5388305Y5603341D01*
X5380278Y5596839D01*
X5372404Y5589930D01*
X5364632Y5582666D01*
X5356961Y5574995D01*
X5349443Y5567019D01*
X5342026Y5558739D01*
X5334812Y5550103D01*
X5327700Y5541162D01*
X5313984Y5522417D01*
X5307380Y5512612D01*
X5300980Y5502554D01*
X5294731Y5492242D01*
X5285689Y5476290D01*
X5279948Y5465419D01*
X5269077Y5443016D01*
X5259019Y5419852D01*
X5249976Y5396026D01*
X5241848Y5371592D01*
X5238191Y5359247D01*
X5234787Y5346750D01*
X5231688Y5334152D01*
X5228844Y5321452D01*
X5226304Y5308752D01*
X5224018Y5295900D01*
X5222036Y5283047D01*
X5220411Y5270195D01*
X5219039Y5257241D01*
X5218023Y5244338D01*
X5217312Y5231384D01*
X5216956Y5218430D01*
X5216906Y5205526D01*
X5217210Y5192674D01*
X5217871Y5179822D01*
X5218887Y5167020D01*
X5220309Y5154320D01*
X5236870Y5020868D01*
X5285536Y4948529D01*
X5292598Y4938623D01*
X5308803Y4917643D01*
X5326888Y4896002D01*
X5336286Y4885283D01*
X5355234Y4864811D01*
X5373522Y4846574D01*
X5382107Y4838649D01*
X5391658Y4830216D01*
X5401716Y4820818D01*
X5410708Y4811725D01*
X5418582Y4802886D01*
X5425440Y4794351D01*
X5431180Y4786172D01*
X5435904Y4778349D01*
X5439613Y4770831D01*
X5442305Y4763719D01*
X5443931Y4757013D01*
X5444591Y4750714D01*
X5444540Y4747666D01*
X5443728Y4741976D01*
X5442966Y4739335D01*
X5440680Y4734306D01*
X5437428Y4729734D01*
X5433212Y4725670D01*
X5430774Y4723790D01*
X5425186Y4720488D01*
X5418683Y4717643D01*
X5411266Y4715408D01*
X5402935Y4713681D01*
X5393740Y4712512D01*
X5383631Y4711903D01*
X5372709Y4711954D01*
X5360924Y4712563D01*
X5348274Y4713833D01*
X5334812Y4715713D01*
X5320487Y4718253D01*
X5305399Y4721504D01*
X5230368Y4738725D01*
X4899761Y4954981D01*
X4861001Y5024323D01*
X4838801Y5065572D01*
X4812334Y5115814D01*
X4782667Y5173370D01*
X4730242Y5276138D01*
X4729886Y5412384D01*
X4729276Y5444185D01*
X4728464Y5468416D01*
X4727295Y5492800D01*
X4724654Y5533491D01*
X4721250Y5573776D01*
X4717135Y5613044D01*
X4713427Y5643372D01*
X4708245Y5679440D01*
X4703826Y5706516D01*
X4699101Y5731713D01*
X4694174Y5754674D01*
X4689094Y5775147D01*
X4686503Y5784392D01*
X4681220Y5800598D01*
X4678578Y5807557D01*
X4675886Y5813653D01*
X4673193Y5818886D01*
X4670552Y5823204D01*
X4667859Y5826607D01*
X4641494Y5850737D01*
X4625390Y5829046D01*
X4623409Y5825591D01*
X4621885Y5821222D01*
X4620818Y5816041D01*
X4620209Y5810148D01*
X4620056Y5803646D01*
X4620310Y5796635D01*
X4620971Y5789218D01*
X4622088Y5781446D01*
X4623612Y5773470D01*
X4625543Y5765393D01*
X4627880Y5757265D01*
X4630623Y5749188D01*
X4651908Y5690971D01*
X4611370Y5660390D01*
X4485335Y5791758D01*
X4345640Y5791758D01*
X4337710Y5785764D01*
X4292295Y5807659D01*
X4288332Y5810097D01*
X4284014Y5813196D01*
X4279392Y5816955D01*
X4269232Y5826353D01*
X4257903Y5838139D01*
X4245508Y5852109D01*
X4232249Y5868060D01*
X4218127Y5885891D01*
X4203344Y5905347D01*
X4188002Y5926328D01*
X4172153Y5948629D01*
X4155948Y5972098D01*
X4139488Y5996533D01*
X4118711Y6028182D01*
X4102100Y6054191D01*
X4085590Y6080607D01*
X4069334Y6107328D01*
X4053382Y6134049D01*
X4037888Y6160719D01*
X4019296Y6193637D01*
X4005224Y6219393D01*
X3991914Y6244539D01*
X3973779Y6280658D01*
X3963009Y6303365D01*
X3953459Y6324854D01*
X3945178Y6344869D01*
X3890314Y6488328D01*
X3867556Y6781647D01*
X3804804Y6781647D01*
X3801059Y6756450D01*
X3787190Y6654749D01*
X3811676Y6535877D01*
X3816400Y6515303D01*
X3821988Y6493916D01*
X3828338Y6471869D01*
X3837381Y6443319D01*
X3845407Y6419900D01*
X3856329Y6389878D01*
X3870756Y6353048D01*
X3883761Y6321806D01*
X3897579Y6290208D01*
X3912158Y6258407D01*
X3924249Y6232956D01*
X3936746Y6207455D01*
X3952900Y6175756D01*
X3976217Y6131864D01*
X3989933Y6107176D01*
X4003801Y6082842D01*
X4024884Y6047232D01*
X4042664Y6018428D01*
X4056938Y5996127D01*
X4071264Y5974486D01*
X4089095Y5948527D01*
X4103319Y5928715D01*
X4117390Y5909868D01*
X4131360Y5891987D01*
X4145127Y5875121D01*
X4158691Y5859424D01*
X4175302Y5841492D01*
X4185005Y5831687D01*
X4197705Y5819800D01*
X4209999Y5809335D01*
X4271518Y5759754D01*
X4368952Y5737707D01*
X4381093Y5734354D01*
X4393742Y5730341D01*
X4406849Y5725617D01*
X4420209Y5720384D01*
X4433773Y5714593D01*
X4447438Y5708396D01*
X4461052Y5701842D01*
X4474514Y5694934D01*
X4487773Y5687822D01*
X4513072Y5673140D01*
X4524857Y5665673D01*
X4536033Y5658256D01*
X4546346Y5650890D01*
X4555794Y5643727D01*
X4564227Y5636768D01*
X4571492Y5630062D01*
X4577537Y5623712D01*
X4582261Y5617819D01*
X4584090Y5615025D01*
X4585512Y5612384D01*
X4586528Y5609844D01*
X4587189Y5607507D01*
X4587392Y5605272D01*
X4587138Y5604103D01*
X4585258Y5600598D01*
X4581601Y5595467D01*
X4576318Y5588863D01*
X4561332Y5571947D01*
X4541316Y5550865D01*
X4529785Y5539079D01*
X4504131Y5513781D01*
X4464913Y5476392D01*
X4441444Y5453278D01*
X4419650Y5430977D01*
X4400296Y5410352D01*
X4380542Y5388000D01*
X4470755Y5388000D01*
X4471212Y5390540D01*
X4472076Y5393232D01*
X4473397Y5396077D01*
X4475175Y5399176D01*
X4480102Y5405882D01*
X4486859Y5413502D01*
X4495444Y5422188D01*
X4505858Y5431942D01*
X4532274Y5455310D01*
X4591507Y5505856D01*
X4602530Y5514848D01*
X4612030Y5522112D01*
X4620107Y5527700D01*
X4626914Y5531612D01*
X4629861Y5532932D01*
X4632553Y5533796D01*
X4634941Y5534253D01*
X4637125Y5534304D01*
X4639005Y5533898D01*
X4640681Y5533034D01*
X4642154Y5531764D01*
X4643424Y5530088D01*
X4644542Y5527903D01*
X4645456Y5525363D01*
X4646828Y5518861D01*
X4647742Y5510580D01*
X4648200Y5500573D01*
X4648403Y5475122D01*
X4648301Y5459679D01*
X4647895Y5443016D01*
X4646777Y5426608D01*
X4645101Y5410911D01*
X4642916Y5396331D01*
X4640224Y5383326D01*
X4637227Y5372252D01*
X4635601Y5367629D01*
X4633874Y5363616D01*
X4632147Y5360263D01*
X4630318Y5357723D01*
X4612640Y5336641D01*
X4517593Y5360466D01*
X4505655Y5363819D01*
X4495444Y5367070D01*
X4486960Y5370322D01*
X4480255Y5373725D01*
X4477562Y5375503D01*
X4475327Y5377332D01*
X4473549Y5379262D01*
X4472178Y5381244D01*
X4471263Y5383377D01*
X4470806Y5385612D01*
X4470755Y5388000D01*
X4380542Y5388000D01*
X4369308Y5374030D01*
X4365447Y5368493D01*
X4362907Y5364175D01*
X4346803Y5332526D01*
X4427728Y5265978D01*
X4409897Y5138724D01*
X4405731Y5112664D01*
X4401362Y5089652D01*
X4398975Y5079187D01*
X4396333Y5069332D01*
X4393539Y5060086D01*
X4390390Y5051298D01*
X4386986Y5043017D01*
X4383176Y5035143D01*
X4378960Y5027676D01*
X4374286Y5020513D01*
X4369155Y5013604D01*
X4363466Y5006949D01*
X4357166Y5000447D01*
X4350308Y4994046D01*
X4342739Y4987747D01*
X4334510Y4981448D01*
X4325467Y4975098D01*
X4315663Y4968697D01*
X4305046Y4962194D01*
X4293565Y4955489D01*
X4267708Y4941316D01*
X4237888Y4925822D01*
X4203700Y4908651D01*
X4023360Y4818989D01*
X3996740Y4751628D01*
X3992016Y4737912D01*
X3987698Y4723536D01*
X3983837Y4708906D01*
X3980535Y4694478D01*
X3977944Y4680610D01*
X3976115Y4667808D01*
X3975150Y4656480D01*
X3974998Y4651552D01*
X3974998Y4605934D01*
X3981104Y4601616D01*
X4056684Y4601616D01*
X4056684Y4735830D01*
X4095546Y4771847D01*
X4103115Y4777943D01*
X4112107Y4784598D01*
X4122318Y4791557D01*
X4133494Y4798771D01*
X4145432Y4806086D01*
X4157929Y4813350D01*
X4170679Y4820361D01*
X4183481Y4827066D01*
X4196080Y4833315D01*
X4237482Y4852670D01*
X4290618Y4878222D01*
X4337151Y4901133D01*
X4438904Y4952695D01*
X4464456Y5029606D01*
X4468977Y5044846D01*
X4473143Y5060442D01*
X4476851Y5076037D01*
X4480001Y5091125D01*
X4482490Y5105247D01*
X4484268Y5117947D01*
X4485182Y5128818D01*
X4485436Y5137912D01*
X4486351Y5148275D01*
X4488078Y5160010D01*
X4490516Y5172760D01*
X4493564Y5186121D01*
X4497171Y5199684D01*
X4501235Y5213045D01*
X4505604Y5225796D01*
X4530496Y5288737D01*
X4670552Y5240832D01*
X4682693Y5204409D01*
X4683810Y5200396D01*
X4684623Y5195874D01*
X4685233Y5190947D01*
X4685588Y5185664D01*
X4685487Y5174081D01*
X4684471Y5161534D01*
X4682540Y5148478D01*
X4679696Y5135219D01*
X4678019Y5128666D01*
X4674006Y5115864D01*
X4670348Y5106162D01*
X4667707Y5097983D01*
X4665167Y5088686D01*
X4662728Y5078323D01*
X4660442Y5066995D01*
X4658309Y5054955D01*
X4656328Y5042204D01*
X4652924Y5015331D01*
X4651552Y5001412D01*
X4649978Y4980381D01*
X4649216Y4966411D01*
X4648758Y4952593D01*
X4648606Y4939131D01*
X4648606Y4826711D01*
X4593234Y4755489D01*
X4584141Y4744821D01*
X4574540Y4734560D01*
X4564684Y4724857D01*
X4554728Y4715814D01*
X4544872Y4707636D01*
X4536380Y4701235D01*
X4730242Y4701235D01*
X4730648Y4707178D01*
X4731156Y4709769D01*
X4731969Y4712157D01*
X4733086Y4714341D01*
X4734610Y4716322D01*
X4736490Y4718100D01*
X4738827Y4719726D01*
X4741621Y4721098D01*
X4744923Y4722317D01*
X4748834Y4723384D01*
X4753305Y4724298D01*
X4764227Y4725568D01*
X4777994Y4726330D01*
X4794910Y4726533D01*
X4815382Y4726279D01*
X4868062Y4724501D01*
X4954828Y4721047D01*
X4954828Y4770069D01*
X4908245Y4770120D01*
X4895138Y4770729D01*
X4882489Y4771898D01*
X4870348Y4773676D01*
X4858613Y4776012D01*
X4847386Y4778959D01*
X4836617Y4782413D01*
X4826355Y4786477D01*
X4816551Y4791049D01*
X4807204Y4796180D01*
X4798415Y4801870D01*
X4790135Y4808118D01*
X4782312Y4814874D01*
X4775047Y4822139D01*
X4768291Y4829911D01*
X4762093Y4838192D01*
X4756404Y4847031D01*
X4751273Y4856327D01*
X4746650Y4866132D01*
X4742637Y4876393D01*
X4739132Y4887163D01*
X4736236Y4898390D01*
X4733899Y4910124D01*
X4732121Y4922316D01*
X4730953Y4934915D01*
X4730343Y4948021D01*
X4730343Y4962194D01*
X4730800Y4975758D01*
X4731766Y4987442D01*
X4733239Y4997297D01*
X4735322Y5005324D01*
X4736592Y5008626D01*
X4738014Y5011470D01*
X4739589Y5013858D01*
X4741316Y5015788D01*
X4743196Y5017262D01*
X4745278Y5018278D01*
X4747564Y5018836D01*
X4750003Y5018938D01*
X4752594Y5018582D01*
X4755388Y5017770D01*
X4758436Y5016500D01*
X4761636Y5014772D01*
X4765040Y5012588D01*
X4772456Y5006898D01*
X4780788Y4999380D01*
X4789982Y4990084D01*
X4800092Y4978958D01*
X4819091Y4956810D01*
X4827270Y4947666D01*
X4835753Y4938572D01*
X4853533Y4920538D01*
X4872329Y4902809D01*
X4892040Y4885334D01*
X4912614Y4868265D01*
X4928514Y4855667D01*
X4944872Y4843322D01*
X4961534Y4831232D01*
X4978501Y4819396D01*
X5007457Y4800295D01*
X5025136Y4789220D01*
X5049012Y4774946D01*
X5073192Y4761280D01*
X5097475Y4748276D01*
X5128006Y4732934D01*
X5152440Y4721453D01*
X5170728Y4713325D01*
X5194909Y4703216D01*
X5218887Y4693869D01*
X5242560Y4685385D01*
X5254244Y4681474D01*
X5271566Y4676038D01*
X5294223Y4669637D01*
X5316270Y4664151D01*
X5332374Y4660696D01*
X5342890Y4658715D01*
X5363311Y4655566D01*
X5382920Y4653483D01*
X5401564Y4652518D01*
X5410504Y4652467D01*
X5419191Y4652721D01*
X5427573Y4653280D01*
X5435701Y4654143D01*
X5443474Y4655261D01*
X5450992Y4656734D01*
X5458206Y4658512D01*
X5465064Y4660595D01*
X5471566Y4663033D01*
X5477764Y4665776D01*
X5483555Y4668875D01*
X5489041Y4672279D01*
X5526379Y4697780D01*
X5526379Y4797958D01*
X5448604Y4868265D01*
X5438394Y4877816D01*
X5422849Y4892903D01*
X5402376Y4913680D01*
X5383276Y4934102D01*
X5366461Y4953203D01*
X5359247Y4961890D01*
X5352999Y4969814D01*
X5347868Y4976825D01*
X5314797Y5024323D01*
X5305348Y5166360D01*
X5303875Y5198059D01*
X5303164Y5228894D01*
X5303215Y5257901D01*
X5304078Y5283962D01*
X5304739Y5295544D01*
X5305602Y5306009D01*
X5306618Y5315204D01*
X5307838Y5323027D01*
X5309209Y5329326D01*
X5323027Y5371084D01*
X5394960Y5371084D01*
X5404053Y5371388D01*
X5425033Y5372862D01*
X5448960Y5375351D01*
X5474716Y5378704D01*
X5507939Y5383936D01*
X5534152Y5388762D01*
X5558840Y5393994D01*
X5572709Y5397144D01*
X5607659Y5404307D01*
X5634329Y5409184D01*
X5658561Y5413095D01*
X5678830Y5415788D01*
X5687161Y5416651D01*
X5693968Y5417058D01*
X5734507Y5417312D01*
X5686856Y5356250D01*
X5678119Y5344312D01*
X5670448Y5333187D01*
X5663946Y5322824D01*
X5658459Y5313273D01*
X5654040Y5304536D01*
X5650636Y5296611D01*
X5648147Y5289550D01*
X5646623Y5283301D01*
X5646013Y5277866D01*
X5646216Y5273344D01*
X5647334Y5269687D01*
X5648147Y5268163D01*
X5650433Y5265826D01*
X5651855Y5264962D01*
X5655259Y5263946D01*
X5659323Y5263845D01*
X5664098Y5264658D01*
X5669534Y5266436D01*
X5675579Y5269128D01*
X5682132Y5272735D01*
X5689295Y5277307D01*
X5696966Y5282895D01*
X5705043Y5289397D01*
X5713628Y5296916D01*
X5722620Y5305399D01*
X5731967Y5314899D01*
X5741720Y5325465D01*
X5751728Y5336997D01*
X5822340Y5423103D01*
X5860084Y5277408D01*
X5892241Y5282742D01*
X5898591Y5284266D01*
X5904230Y5286502D01*
X5909106Y5289397D01*
X5913069Y5292801D01*
X5916066Y5296611D01*
X5917946Y5300726D01*
X5918657Y5304993D01*
X5917996Y5309362D01*
X5916980Y5314086D01*
X5916015Y5320995D01*
X5914237Y5340502D01*
X5912866Y5365953D01*
X5911951Y5395366D01*
X5911697Y5410962D01*
X5911646Y5522976D01*
X5948375Y5576570D01*
X5956554Y5587644D01*
X5964072Y5596839D01*
X5971082Y5604103D01*
X5974435Y5607050D01*
X5977737Y5609488D01*
X5980938Y5611469D01*
X5984087Y5612942D01*
X5987186Y5613958D01*
X5990234Y5614466D01*
X5993282Y5614517D01*
X5996381Y5614060D01*
X5999429Y5613146D01*
X6002528Y5611723D01*
X6005677Y5609793D01*
X6008878Y5607405D01*
X6012180Y5604510D01*
X6019038Y5597296D01*
X6026302Y5588050D01*
X6034176Y5576874D01*
X6050788Y5551424D01*
X6058408Y5540654D01*
X6065621Y5531256D01*
X6072378Y5523331D01*
X6078677Y5516778D01*
X6084519Y5511647D01*
X6089904Y5507786D01*
X6094730Y5505297D01*
X6099048Y5504078D01*
X6100978Y5503926D01*
X6102807Y5504129D01*
X6104483Y5504637D01*
X6106007Y5505399D01*
X6107379Y5506516D01*
X6108598Y5507939D01*
X6109665Y5509615D01*
X6111392Y5513933D01*
X6112408Y5519369D01*
X6112865Y5525922D01*
X6112611Y5533644D01*
X6111646Y5542381D01*
X6110020Y5552186D01*
X6107633Y5563057D01*
X6104483Y5574893D01*
X6100622Y5587746D01*
X6095949Y5601512D01*
X6090513Y5616244D01*
X6083808Y5633212D01*
X6077204Y5650738D01*
X6071565Y5666892D01*
X6066942Y5681776D01*
X6063284Y5695289D01*
X6060592Y5707430D01*
X6058916Y5718251D01*
X6058204Y5727700D01*
X6058204Y5731916D01*
X6058458Y5735828D01*
X6058966Y5739384D01*
X6059728Y5742584D01*
X6060694Y5745480D01*
X6061964Y5748020D01*
X6063437Y5750204D01*
X6065164Y5752084D01*
X6067145Y5753608D01*
X6069380Y5754827D01*
X6071819Y5755640D01*
X6074511Y5756148D01*
X6077508Y5756351D01*
X6085433Y5754776D01*
X6091885Y5750560D01*
X6096304Y5744362D01*
X6097879Y5736742D01*
X6098540Y5731560D01*
X6099823Y5727547D01*
X6169355Y5727547D01*
X6170777Y5797499D01*
X6171895Y5809183D01*
X6173774Y5821680D01*
X6176365Y5834786D01*
X6179616Y5848146D01*
X6183477Y5861558D01*
X6187795Y5874766D01*
X6192570Y5887466D01*
X6197701Y5899454D01*
X6203137Y5910427D01*
X6240018Y5974435D01*
X6452108Y5957163D01*
X6537756Y5914440D01*
X6553758Y5906871D01*
X6569456Y5899962D01*
X6584289Y5893765D01*
X6598005Y5888482D01*
X6610045Y5884316D01*
X6620103Y5881370D01*
X6627672Y5879795D01*
X6630466Y5879592D01*
X6653580Y5879592D01*
X6638086Y5816955D01*
X6634835Y5806541D01*
X6630720Y5795518D01*
X6625945Y5784088D01*
X6620509Y5772404D01*
X6614668Y5760821D01*
X6608419Y5749442D01*
X6601917Y5738571D01*
X6595262Y5728411D01*
X6588556Y5719165D01*
X6545326Y5665927D01*
X6448501Y5638088D01*
X6433616Y5634075D01*
X6419596Y5630672D01*
X6406286Y5627878D01*
X6393688Y5625693D01*
X6381699Y5624169D01*
X6370269Y5623255D01*
X6359245Y5623001D01*
X6348628Y5623407D01*
X6338316Y5624474D01*
X6328257Y5626252D01*
X6318300Y5628741D01*
X6308445Y5631992D01*
X6298539Y5635904D01*
X6288633Y5640628D01*
X6278524Y5646064D01*
X6268161Y5652312D01*
X6257544Y5659374D01*
X6246520Y5667197D01*
X6234988Y5675833D01*
X6169355Y5727547D01*
X6099823Y5727547D01*
X6101842Y5722823D01*
X6105499Y5716422D01*
X6110224Y5709615D01*
X6115964Y5702452D01*
X6122619Y5694984D01*
X6130188Y5687263D01*
X6138519Y5679338D01*
X6147612Y5671312D01*
X6157315Y5663184D01*
X6167678Y5655005D01*
X6178499Y5646826D01*
X6189827Y5638698D01*
X6201511Y5630722D01*
X6213500Y5622899D01*
X6225743Y5615330D01*
X6238189Y5607964D01*
X6250736Y5601004D01*
X6263284Y5594350D01*
X6275832Y5588203D01*
X6288227Y5582513D01*
X6300520Y5577332D01*
X6312509Y5572760D01*
X6414312Y5538470D01*
X6568287Y5549188D01*
X6552082Y5519978D01*
X6546088Y5508599D01*
X6540398Y5497118D01*
X6535013Y5485536D01*
X6529882Y5473852D01*
X6525006Y5462016D01*
X6520434Y5450128D01*
X6516166Y5438190D01*
X6512153Y5426151D01*
X6508445Y5414060D01*
X6504990Y5401868D01*
X6500368Y5383580D01*
X6497675Y5371338D01*
X6495237Y5359044D01*
X6491224Y5334457D01*
X6488988Y5316016D01*
X6487871Y5303723D01*
X6486499Y5279237D01*
X6486245Y5267045D01*
X6486296Y5254904D01*
X6486652Y5242814D01*
X6487261Y5230774D01*
X6488226Y5218836D01*
X6489446Y5207000D01*
X6490970Y5195214D01*
X6492798Y5183530D01*
X6494932Y5171948D01*
X6497370Y5160518D01*
X6500114Y5149189D01*
X6503111Y5138013D01*
X6506464Y5126939D01*
X6510121Y5116017D01*
X6514033Y5105298D01*
X6518605Y5093614D01*
X6523431Y5080254D01*
X6527952Y5066284D01*
X6532168Y5051958D01*
X6535928Y5037582D01*
X6539280Y5023408D01*
X6542074Y5009692D01*
X6544259Y4996738D01*
X6545834Y4984800D01*
X6546646Y4974183D01*
X6546951Y4914544D01*
X6255918Y4782769D01*
X6192266Y4754473D01*
X6133236Y4728972D01*
X6078423Y4706061D01*
X6052362Y4695545D01*
X6027115Y4685639D01*
X5996686Y4674006D01*
X5973064Y4665319D01*
X5944412Y4655159D01*
X5922060Y4647590D01*
X5894781Y4638751D01*
X5862777Y4628997D01*
X5831332Y4620158D01*
X5800242Y4612132D01*
X5779617Y4607204D01*
X5753811Y4601464D01*
X5712155Y4593132D01*
X5691022Y4589322D01*
X5669534Y4585716D01*
X5562511Y4569155D01*
X5947003Y4569155D01*
X5947562Y4572000D01*
X5949035Y4574946D01*
X5951575Y4578146D01*
X5955080Y4581550D01*
X5959652Y4585208D01*
X5965342Y4589119D01*
X5972098Y4593285D01*
X5989116Y4602683D01*
X6010960Y4613503D01*
X6037884Y4625898D01*
X6070092Y4640122D01*
X6151372Y4674616D01*
X6352946Y4758639D01*
X6379565Y4769205D01*
X6402324Y4777740D01*
X6421678Y4784140D01*
X6430111Y4786579D01*
X6437884Y4788458D01*
X6444894Y4789881D01*
X6451295Y4790744D01*
X6457137Y4791100D01*
X6462369Y4790948D01*
X6467144Y4790287D01*
X6471412Y4789119D01*
X6475272Y4787442D01*
X6478778Y4785258D01*
X6481927Y4782566D01*
X6484823Y4779314D01*
X6487464Y4775606D01*
X6489954Y4771390D01*
X6492240Y4766665D01*
X6494475Y4761382D01*
X6498742Y4749393D01*
X6508089Y4719421D01*
X6518909Y4685639D01*
X6523532Y4669942D01*
X6527698Y4654397D01*
X6531457Y4638954D01*
X6534810Y4623765D01*
X6537706Y4608728D01*
X6540144Y4593996D01*
X6542176Y4579518D01*
X6543751Y4565396D01*
X6544919Y4551629D01*
X6545630Y4538268D01*
X6545884Y4525314D01*
X6545732Y4512868D01*
X6545122Y4500880D01*
X6544056Y4489500D01*
X6542582Y4478629D01*
X6540601Y4468418D01*
X6538214Y4458817D01*
X6535369Y4449876D01*
X6532067Y4441698D01*
X6528358Y4434281D01*
X6524142Y4427626D01*
X6501282Y4395419D01*
X6594144Y4342536D01*
X6581851Y4318304D01*
X6580124Y4315714D01*
X6577584Y4313072D01*
X6574231Y4310329D01*
X6570167Y4307535D01*
X6559956Y4301794D01*
X6547357Y4296105D01*
X6532829Y4290568D01*
X6516776Y4285386D01*
X6499606Y4280712D01*
X6481724Y4276750D01*
X6381902Y4256735D01*
X6342532Y4248556D01*
X6309410Y4241342D01*
X6282029Y4234942D01*
X6259830Y4229252D01*
X6242202Y4224121D01*
X6228689Y4219346D01*
X6223254Y4217060D01*
X6218631Y4214774D01*
X6214719Y4212539D01*
X6211519Y4210304D01*
X6208877Y4208068D01*
X6206794Y4205782D01*
X6205118Y4203446D01*
X6194501Y4179874D01*
X6288227Y4193590D01*
X6307226Y4195927D01*
X6329222Y4198162D01*
X6353505Y4200194D01*
X6379464Y4202023D01*
X6406489Y4203649D01*
X6447586Y4205528D01*
X6474409Y4206341D01*
X6500012Y4206798D01*
X6638798Y4207560D01*
X6638798Y4161332D01*
X6312204Y4120794D01*
X6036919Y4008577D01*
X5999124Y4038092D01*
X6021679Y4244492D01*
X6102096Y4253788D01*
X6020663Y4343044D01*
X6008471Y4357065D01*
X5997651Y4370120D01*
X5988304Y4382262D01*
X5980430Y4393590D01*
X5973927Y4404106D01*
X5968847Y4413859D01*
X5965190Y4422902D01*
X5963920Y4427169D01*
X5962954Y4431284D01*
X5962396Y4435195D01*
X5962142Y4439005D01*
X5962243Y4442612D01*
X5962700Y4446117D01*
X5963513Y4449470D01*
X5964682Y4452670D01*
X5966206Y4455769D01*
X5968034Y4458716D01*
X5970270Y4461611D01*
X5972810Y4464304D01*
X5975705Y4466945D01*
X5978956Y4469485D01*
X5982512Y4471924D01*
X5990742Y4476496D01*
X6000292Y4480763D01*
X6025388Y4489856D01*
X6036767Y4494834D01*
X6041390Y4497324D01*
X6045352Y4499762D01*
X6048603Y4502200D01*
X6051092Y4504588D01*
X6052921Y4506976D01*
X6054090Y4509363D01*
X6054496Y4511751D01*
X6054191Y4514138D01*
X6053226Y4516526D01*
X6051550Y4518914D01*
X6049162Y4521301D01*
X6046063Y4523740D01*
X6042202Y4526127D01*
X6037732Y4528566D01*
X6032500Y4531055D01*
X6019901Y4536033D01*
X6004458Y4541113D01*
X5983884Y4547158D01*
X5970422Y4551578D01*
X5964732Y4553762D01*
X5959754Y4555947D01*
X5955588Y4558182D01*
X5952185Y4560468D01*
X5949594Y4562805D01*
X5947918Y4565243D01*
X5947359Y4566513D01*
X5947003Y4569155D01*
X5562511Y4569155D01*
X5524906Y4563364D01*
X5235295Y4603902D01*
X5131866Y4617212D01*
X5074869Y4624019D01*
X5022189Y4629962D01*
X4976012Y4634788D01*
X4938522Y4638192D01*
X4894935Y4641596D01*
X4875174Y4643577D01*
X4856683Y4645710D01*
X4839512Y4648098D01*
X4823612Y4650638D01*
X4809032Y4653432D01*
X4795723Y4656378D01*
X4783683Y4659579D01*
X4772914Y4662982D01*
X4763363Y4666640D01*
X4755032Y4670501D01*
X4751324Y4672482D01*
X4744872Y4676698D01*
X4739589Y4681118D01*
X4735474Y4685792D01*
X4732578Y4690719D01*
X4731562Y4693259D01*
X4730851Y4695850D01*
X4730394Y4698542D01*
X4730242Y4701235D01*
X4536380Y4701235D01*
X4530699Y4697272D01*
X4521911Y4691938D01*
X4517796Y4689754D01*
X4510227Y4686554D01*
X4503369Y4684522D01*
X4499559Y4682998D01*
X4495495Y4681067D01*
X4491126Y4678680D01*
X4481677Y4672634D01*
X4471365Y4665167D01*
X4460544Y4656429D01*
X4449318Y4646574D01*
X4437938Y4635804D01*
X4426610Y4624324D01*
X4415536Y4612233D01*
X4394301Y4586986D01*
X4384040Y4575302D01*
X4374235Y4564735D01*
X4364837Y4555236D01*
X4355896Y4546854D01*
X4347464Y4539538D01*
X4339488Y4533290D01*
X4332071Y4528108D01*
X4325162Y4524044D01*
X4318863Y4520996D01*
X4313072Y4519066D01*
X4307941Y4518202D01*
X4305604Y4518152D01*
X4301388Y4518863D01*
X4299508Y4519625D01*
X4297781Y4520641D01*
X4296257Y4521911D01*
X4294886Y4523486D01*
X4292650Y4527346D01*
X4291177Y4532274D01*
X4290364Y4538218D01*
X4290314Y4545228D01*
X4291025Y4553305D01*
X4292498Y4562398D01*
X4294784Y4572508D01*
X4297934Y4583633D01*
X4301845Y4595774D01*
X4306671Y4608982D01*
X4337151Y4685284D01*
X4302912Y4754676D01*
X4249775Y4754270D01*
X4236059Y4753254D01*
X4229049Y4752492D01*
X4215282Y4750358D01*
X4202379Y4747615D01*
X4196435Y4746091D01*
X4186174Y4742688D01*
X4182008Y4740910D01*
X4154220Y4727600D01*
X4182973Y4569714D01*
X4159300Y4569714D01*
X4155744Y4569866D01*
X4147007Y4570984D01*
X4136593Y4573066D01*
X4125163Y4575962D01*
X4113326Y4579467D01*
X4101693Y4583531D01*
X4056684Y4601616D01*
X3981104Y4601616D01*
X4026204Y4569764D01*
X4037025Y4562551D01*
X4048150Y4555591D01*
X4059529Y4548886D01*
X4071162Y4542383D01*
X4083050Y4536186D01*
X4095140Y4530191D01*
X4107383Y4524451D01*
X4132376Y4513783D01*
X4145026Y4508855D01*
X4157776Y4504232D01*
X4170629Y4499864D01*
X4183481Y4495800D01*
X4196334Y4492040D01*
X4209237Y4488535D01*
X4222038Y4485386D01*
X4247540Y4479950D01*
X4272635Y4475835D01*
X4297121Y4473041D01*
X4309059Y4472178D01*
X4320794Y4471619D01*
X4332274Y4471466D01*
X4343501Y4471619D01*
X4354423Y4472178D01*
X4365040Y4473041D01*
X4375302Y4474362D01*
X4385208Y4475988D01*
X4394708Y4478020D01*
X4403801Y4480458D01*
X4412488Y4483303D01*
X4422749Y4487214D01*
X4435449Y4491685D01*
X4448403Y4495850D01*
X4461256Y4499508D01*
X4473600Y4502658D01*
X4485081Y4505147D01*
X4495393Y4506925D01*
X4504029Y4507839D01*
X4512360Y4508144D01*
X4517034Y4508550D01*
X4526178Y4510227D01*
X4530699Y4511446D01*
X4535170Y4512919D01*
X4543907Y4516577D01*
X4552442Y4521250D01*
X4560671Y4526889D01*
X4568545Y4533442D01*
X4572406Y4537049D01*
X4579772Y4544923D01*
X4586782Y4553661D01*
X4593386Y4563160D01*
X4599584Y4573524D01*
X4605274Y4584547D01*
X4610506Y4596384D01*
X4615180Y4608830D01*
X4619294Y4621987D01*
X4638395Y4695596D01*
X4730140Y4601972D01*
X4696764Y4493514D01*
X4688992Y4470908D01*
X4679848Y4446981D01*
X4666945Y4416450D01*
X4655870Y4392371D01*
X4644491Y4369358D01*
X4633112Y4348226D01*
X4627575Y4338523D01*
X4608830Y4309008D01*
X4601159Y4296156D01*
X4593996Y4283252D01*
X4587443Y4270451D01*
X4581652Y4258056D01*
X4576622Y4246270D01*
X4572558Y4235297D01*
X4569510Y4225442D01*
X4567631Y4216908D01*
X4567123Y4213199D01*
X4566970Y4204309D01*
X4626152Y4204309D01*
X4638395Y4269232D01*
X4704181Y4265777D01*
X4729327Y4263694D01*
X4758537Y4260900D01*
X4789525Y4257598D01*
X4819954Y4253992D01*
X4913985Y4242054D01*
X4913985Y4291990D01*
X4823561Y4302963D01*
X4806137Y4305808D01*
X4790033Y4309110D01*
X4775301Y4312869D01*
X4761941Y4317085D01*
X4750104Y4321708D01*
X4739894Y4326636D01*
X4735372Y4329226D01*
X4731258Y4331868D01*
X4727600Y4334560D01*
X4724400Y4337354D01*
X4721606Y4340148D01*
X4719320Y4343044D01*
X4717440Y4345940D01*
X4716068Y4348886D01*
X4715205Y4351832D01*
X4714798Y4354830D01*
X4714900Y4357827D01*
X4715510Y4360875D01*
X4716678Y4363923D01*
X4718354Y4366920D01*
X4720539Y4369968D01*
X4734712Y4387291D01*
X4829810Y4369257D01*
X4859731Y4405782D01*
X4771085Y4450181D01*
X4771085Y4499152D01*
X4771339Y4505960D01*
X4771999Y4512868D01*
X4773117Y4519777D01*
X4774590Y4526584D01*
X4776419Y4533239D01*
X4778603Y4539640D01*
X4781042Y4545685D01*
X4783785Y4551324D01*
X4786731Y4556455D01*
X4789830Y4561027D01*
X4793183Y4564938D01*
X4796637Y4568088D01*
X4822139Y4588002D01*
X4990388Y4580940D01*
X5027015Y4578807D01*
X5061559Y4575911D01*
X5092903Y4572508D01*
X5107076Y4570628D01*
X5119979Y4568647D01*
X5131562Y4566615D01*
X5141671Y4564583D01*
X5150104Y4562500D01*
X5156809Y4560366D01*
X5161584Y4558284D01*
X5163210Y4557268D01*
X5186426Y4539742D01*
X5157825Y4492142D01*
X5154472Y4485995D01*
X5151678Y4480306D01*
X5149443Y4475073D01*
X5147716Y4470349D01*
X5146548Y4466082D01*
X5145938Y4462322D01*
X5145836Y4459020D01*
X5146243Y4456226D01*
X5147208Y4453890D01*
X5148681Y4452061D01*
X5150713Y4450689D01*
X5153253Y4449826D01*
X5156352Y4449419D01*
X5159959Y4449521D01*
X5164074Y4450080D01*
X5168747Y4451146D01*
X5173878Y4452721D01*
X5179568Y4454753D01*
X5192471Y4460290D01*
X5207457Y4467860D01*
X5221681Y4475581D01*
X5234584Y4482185D01*
X5248351Y4488688D01*
X5262575Y4494936D01*
X5276799Y4500778D01*
X5290616Y4506061D01*
X5303621Y4510532D01*
X5315305Y4514037D01*
X5369102Y4527042D01*
X5355844Y4407611D01*
X5353862Y4382211D01*
X5352643Y4354880D01*
X5352288Y4340758D01*
X5352288Y4304995D01*
X5353151Y4276750D01*
X5354726Y4249826D01*
X5357012Y4225086D01*
X5358434Y4213758D01*
X5360009Y4203344D01*
X5376113Y4106621D01*
X5275122Y4087469D01*
X5055108Y4142130D01*
X5028336Y4148378D01*
X4979873Y4158945D01*
X4951882Y4164634D01*
X4917033Y4171391D01*
X4882997Y4177537D01*
X4850434Y4183024D01*
X4825746Y4186885D01*
X4802682Y4190136D01*
X4781550Y4192828D01*
X4762601Y4194810D01*
X4626152Y4204309D01*
X4566970Y4204309D01*
X4566970Y4172661D01*
X4529378Y4165244D01*
X4523841Y4163618D01*
X4517390Y4160824D01*
X4510125Y4156862D01*
X4502099Y4151934D01*
X4493412Y4145991D01*
X4484116Y4139184D01*
X4474311Y4131614D01*
X4453483Y4114342D01*
X4431436Y4094734D01*
X4420158Y4084320D01*
X4397552Y4062476D01*
X4375251Y4039920D01*
X4353966Y4017264D01*
X4337106Y3998366D01*
X4449114Y3998366D01*
X4449622Y4005732D01*
X4450943Y4013047D01*
X4451908Y4016756D01*
X4454499Y4024071D01*
X4457903Y4031386D01*
X4462170Y4038701D01*
X4467199Y4045965D01*
X4473092Y4053128D01*
X4479798Y4060240D01*
X4487265Y4067251D01*
X4495596Y4074160D01*
X4504639Y4080967D01*
X4514545Y4087622D01*
X4525213Y4094124D01*
X4536643Y4100474D01*
X4548886Y4106672D01*
X4561890Y4112615D01*
X4575657Y4118406D01*
X4610506Y4131767D01*
X4625898Y4137406D01*
X4639310Y4142028D01*
X4651146Y4145584D01*
X4661712Y4148124D01*
X4671466Y4149699D01*
X4680813Y4150258D01*
X4690110Y4149953D01*
X4699762Y4148683D01*
X4710125Y4146550D01*
X4721656Y4143552D01*
X4734661Y4139742D01*
X4762652Y4130903D01*
X4772964Y4127195D01*
X4779968Y4124401D01*
X4951171Y4124401D01*
X5044389Y4094175D01*
X5091277Y4079849D01*
X5135981Y4066743D01*
X5209133Y4046423D01*
X5222189Y4042410D01*
X5233771Y4038346D01*
X5243982Y4034332D01*
X5252770Y4030370D01*
X5260136Y4026458D01*
X5266131Y4022598D01*
X5270754Y4018889D01*
X5274005Y4015232D01*
X5275834Y4011726D01*
X5276240Y4009999D01*
X5276342Y4008323D01*
X5276088Y4006697D01*
X5275478Y4005122D01*
X5274564Y4003548D01*
X5271668Y4000601D01*
X5267452Y3997807D01*
X5261914Y3995267D01*
X5255056Y3992930D01*
X5246878Y3990848D01*
X5237429Y3989019D01*
X5226659Y3987495D01*
X5214569Y3986225D01*
X5201259Y3985260D01*
X5186629Y3984650D01*
X5170779Y3984396D01*
X5155438Y3984447D01*
X5142585Y3984751D01*
X5131054Y3985514D01*
X5120538Y3986834D01*
X5110734Y3988765D01*
X5106060Y3990035D01*
X5096967Y3993286D01*
X5088026Y3997502D01*
X5083556Y3999992D01*
X5074361Y4005935D01*
X5064709Y4013200D01*
X5054396Y4021937D01*
X5043068Y4032250D01*
X5030571Y4044289D01*
X5016601Y4058158D01*
X4951171Y4124401D01*
X4779968Y4124401D01*
X4789982Y4120235D01*
X4814824Y4109008D01*
X4827727Y4102658D01*
X4847234Y4092600D01*
X4860036Y4085640D01*
X4872583Y4078528D01*
X4884572Y4071365D01*
X4895850Y4064304D01*
X4977333Y4010355D01*
X4964988Y3930192D01*
X4822139Y3874617D01*
X4567428Y3885387D01*
X4505909Y3920032D01*
X4496308Y3926128D01*
X4487621Y3932377D01*
X4479848Y3938828D01*
X4472940Y3945432D01*
X4466945Y3952189D01*
X4461814Y3959047D01*
X4457547Y3966006D01*
X4454194Y3973068D01*
X4451654Y3980230D01*
X4450029Y3987444D01*
X4449216Y3994759D01*
X4449114Y3998366D01*
X4337106Y3998366D01*
X4320946Y3979214D01*
X4305503Y3959504D01*
X4299000Y3950411D01*
X4293362Y3941978D01*
X4288739Y3934206D01*
X4283893Y3924503D01*
X4345228Y3924503D01*
X4345279Y3926840D01*
X4345940Y3928872D01*
X4347210Y3930497D01*
X4348988Y3931767D01*
X4351274Y3932682D01*
X4354017Y3933190D01*
X4357268Y3933342D01*
X4360926Y3933088D01*
X4364990Y3932428D01*
X4369460Y3931310D01*
X4374235Y3929837D01*
X4379366Y3927906D01*
X4384751Y3925519D01*
X4396384Y3919423D01*
X4402531Y3915714D01*
X4422597Y3902456D01*
X4432096Y3896614D01*
X4441901Y3890975D01*
X4462272Y3880256D01*
X4483658Y3870248D01*
X4505909Y3861054D01*
X4517390Y3856736D01*
X4540910Y3848709D01*
X4552950Y3845001D01*
X4577588Y3838244D01*
X4590135Y3835196D01*
X4615637Y3829761D01*
X4628591Y3827373D01*
X4648250Y3824274D01*
X4661509Y3822446D01*
X4674819Y3820871D01*
X4786884Y3810762D01*
X4910785Y3854602D01*
X4932426Y3861663D01*
X4956302Y3869131D01*
X4981956Y3876852D01*
X5015636Y3886555D01*
X5057140Y3897985D01*
X5091379Y3906977D01*
X5117795Y3913581D01*
X5182209Y3928668D01*
X5214518Y3936644D01*
X5244693Y3944416D01*
X5271617Y3951833D01*
X5294223Y3958488D01*
X5311444Y3964127D01*
X5317693Y3966464D01*
X5322214Y3968445D01*
X5334812Y3974642D01*
X5344566Y3979062D01*
X5351780Y3981856D01*
X5356809Y3982923D01*
X5360111Y3982313D01*
X5361990Y3980129D01*
X5362854Y3976319D01*
X5363057Y3970934D01*
X5362448Y3969410D01*
X5360619Y3967581D01*
X5357672Y3965448D01*
X5348478Y3960368D01*
X5335270Y3954272D01*
X5318404Y3947312D01*
X5298287Y3939540D01*
X5275224Y3931056D01*
X5222036Y3912666D01*
X5161788Y3893058D01*
X5130038Y3883050D01*
X5089448Y3870655D01*
X5024424Y3851554D01*
X4992624Y3842562D01*
X4932426Y3826306D01*
X4904790Y3819347D01*
X4879289Y3813251D01*
X4856327Y3808171D01*
X4836210Y3804208D01*
X4819396Y3801516D01*
X4718507Y3789426D01*
X4609388Y3808323D01*
X4586274Y3812794D01*
X4556353Y3819296D01*
X4541824Y3822801D01*
X4513681Y3830320D01*
X4500168Y3834231D01*
X4487062Y3838295D01*
X4462119Y3846829D01*
X4450334Y3851198D01*
X4439005Y3855720D01*
X4428236Y3860292D01*
X4418025Y3864914D01*
X4408322Y3869639D01*
X4399229Y3874363D01*
X4390796Y3879189D01*
X4382973Y3884066D01*
X4375810Y3888943D01*
X4369308Y3893820D01*
X4363567Y3898747D01*
X4358741Y3903319D01*
X4354677Y3907637D01*
X4351375Y3911650D01*
X4348784Y3915359D01*
X4346956Y3918712D01*
X4345736Y3921760D01*
X4345228Y3924503D01*
X4283893Y3924503D01*
X4281830Y3918508D01*
X4281373Y3916019D01*
X4281220Y3913835D01*
X4281627Y3908450D01*
X4282795Y3903065D01*
X4284776Y3897579D01*
X4287520Y3892092D01*
X4290974Y3886606D01*
X4295190Y3881069D01*
X4300118Y3875582D01*
X4305757Y3870045D01*
X4312056Y3864559D01*
X4319016Y3859072D01*
X4326585Y3853637D01*
X4334814Y3848201D01*
X4343654Y3842867D01*
X4353102Y3837533D01*
X4363110Y3832250D01*
X4384802Y3821887D01*
X4408576Y3811879D01*
X4421225Y3807002D01*
X4434332Y3802227D01*
X4461967Y3793032D01*
X4491278Y3784346D01*
X4522165Y3776167D01*
X4554524Y3768648D01*
X4588154Y3761790D01*
X4622952Y3755694D01*
X4764582Y3734511D01*
X4890973Y3759657D01*
X4915154Y3764889D01*
X4940706Y3770833D01*
X4974386Y3779265D01*
X5009540Y3788613D01*
X5038445Y3796690D01*
X5075174Y3807409D01*
X5134457Y3825646D01*
X5163820Y3835095D01*
X5199837Y3847084D01*
X5254955Y3866387D01*
X5280914Y3875938D01*
X5305450Y3885285D01*
X5328412Y3894378D01*
X5349595Y3903167D01*
X5368696Y3911549D01*
X5385612Y3919474D01*
X5400040Y3926840D01*
X5406288Y3930294D01*
X5416600Y3936746D01*
X5468416Y3974388D01*
X5455310Y4015943D01*
X5452821Y4027322D01*
X5450179Y4043730D01*
X5447385Y4064508D01*
X5444540Y4088993D01*
X5441746Y4116628D01*
X5439003Y4146651D01*
X5436412Y4178452D01*
X5434076Y4211472D01*
X5421579Y4419701D01*
X5468823Y4505807D01*
X5612790Y4525060D01*
X5637072Y4528058D01*
X5669178Y4531461D01*
X5700014Y4534204D01*
X5728360Y4536186D01*
X5753201Y4537303D01*
X5773318Y4537506D01*
X5781294Y4537252D01*
X5787644Y4536744D01*
X5834684Y4531207D01*
X5934405Y4315460D01*
X5933694Y4201922D01*
X5933338Y4190136D01*
X5931763Y4164990D01*
X5929223Y4138371D01*
X5926683Y4117949D01*
X5922670Y4090771D01*
X5917946Y4064406D01*
X5912662Y4039717D01*
X5909868Y4028186D01*
X5906973Y4017416D01*
X5898438Y3988714D01*
X5893816Y3970782D01*
X5890209Y3954119D01*
X5887669Y3939133D01*
X5886787Y3932224D01*
X5938266Y3932224D01*
X5938418Y3935577D01*
X5939434Y3940251D01*
X5941263Y3945839D01*
X5943650Y3952087D01*
X5946495Y3958539D01*
X5949645Y3964940D01*
X5952896Y3970934D01*
X5956147Y3976217D01*
X5959195Y3980383D01*
X5961938Y3983126D01*
X5964174Y3984142D01*
X5966764Y3982974D01*
X5980531Y3974236D01*
X6003544Y3958590D01*
X6020022Y3947058D01*
X6100521Y3947058D01*
X6100927Y3949192D01*
X6101892Y3951478D01*
X6103366Y3953814D01*
X6105448Y3956253D01*
X6108039Y3958844D01*
X6111189Y3961536D01*
X6119266Y3967276D01*
X6129629Y3973626D01*
X6142329Y3980586D01*
X6157417Y3988257D01*
X6174943Y3996588D01*
X6192316Y4004564D01*
X6206693Y4010710D01*
X6219799Y4015892D01*
X6231636Y4020108D01*
X6242151Y4023360D01*
X6251346Y4025696D01*
X6259220Y4027119D01*
X6262624Y4027525D01*
X6268415Y4027576D01*
X6270802Y4027271D01*
X6272834Y4026763D01*
X6274511Y4026052D01*
X6275882Y4025087D01*
X6276848Y4023969D01*
X6277457Y4022598D01*
X6277711Y4021023D01*
X6277610Y4019296D01*
X6276289Y4015130D01*
X6273495Y4010202D01*
X6269177Y4004513D01*
X6263386Y3998010D01*
X6256020Y3990797D01*
X6247130Y3982872D01*
X6236716Y3974185D01*
X6224625Y3964838D01*
X6162802Y3918153D01*
X6125159Y3929126D01*
X6116167Y3932326D01*
X6109208Y3935679D01*
X6106464Y3937457D01*
X6104229Y3939235D01*
X6102502Y3941064D01*
X6101334Y3942994D01*
X6100673Y3944975D01*
X6100521Y3947058D01*
X6020022Y3947058D01*
X6067196Y3913682D01*
X6088024Y3899865D01*
X6110782Y3885336D01*
X6140856Y3866896D01*
X6171387Y3848811D01*
X6203448Y3830726D01*
X6281623Y3830726D01*
X6281623Y3920134D01*
X6339789Y3972255D01*
X6349847Y3980738D01*
X6360109Y3988815D01*
X6370472Y3996436D01*
X6381038Y4003700D01*
X6391706Y4010558D01*
X6402527Y4017010D01*
X6413500Y4023055D01*
X6424523Y4028744D01*
X6435648Y4033977D01*
X6446875Y4038803D01*
X6458153Y4043222D01*
X6469481Y4047236D01*
X6480911Y4050842D01*
X6492341Y4054043D01*
X6503822Y4056837D01*
X6515303Y4059224D01*
X6526784Y4061206D01*
X6538264Y4062780D01*
X6549745Y4063898D01*
X6561175Y4064660D01*
X6572605Y4064965D01*
X6583934Y4064863D01*
X6595211Y4064355D01*
X6606438Y4063441D01*
X6617563Y4062069D01*
X6628638Y4060291D01*
X6639559Y4058107D01*
X6650380Y4055516D01*
X6661099Y4052519D01*
X6671665Y4049064D01*
X6682079Y4045204D01*
X6692290Y4040936D01*
X6702399Y4036212D01*
X6712254Y4031081D01*
X6721957Y4025544D01*
X6731457Y4019550D01*
X6740753Y4013149D01*
X6749796Y4006342D01*
X6758584Y3999077D01*
X6815937Y3947718D01*
X6802831Y3896664D01*
X6800189Y3889298D01*
X6796836Y3882085D01*
X6792823Y3875074D01*
X6788150Y3868267D01*
X6782917Y3861612D01*
X6777024Y3855161D01*
X6770573Y3848912D01*
X6763562Y3842867D01*
X6756044Y3837076D01*
X6747967Y3831437D01*
X6739483Y3826052D01*
X6730492Y3820871D01*
X6721094Y3815943D01*
X6711238Y3811219D01*
X6701028Y3806748D01*
X6690461Y3802532D01*
X6679590Y3798519D01*
X6668363Y3794810D01*
X6656831Y3791305D01*
X6645046Y3788105D01*
X6633006Y3785108D01*
X6608318Y3780028D01*
X6595719Y3777894D01*
X6582968Y3776065D01*
X6570065Y3774490D01*
X6557060Y3773220D01*
X6537452Y3771849D01*
X6524294Y3771341D01*
X6511137Y3771137D01*
X6497980Y3771239D01*
X6484874Y3771646D01*
X6471767Y3772357D01*
X6458762Y3773424D01*
X6445859Y3774846D01*
X6433108Y3776573D01*
X6420459Y3778656D01*
X6408013Y3781044D01*
X6395720Y3783837D01*
X6383680Y3786936D01*
X6371894Y3790442D01*
X6360363Y3794302D01*
X6349085Y3798519D01*
X6338163Y3803091D01*
X6327546Y3808018D01*
X6281623Y3830726D01*
X6203448Y3830726D01*
X6222898Y3820261D01*
X6236106Y3813403D01*
X6251448Y3805123D01*
X6265621Y3797147D01*
X6278422Y3789578D01*
X6289700Y3782466D01*
X6299250Y3776065D01*
X6306870Y3770376D01*
X6312458Y3765600D01*
X6314389Y3763619D01*
X6315710Y3761841D01*
X6316472Y3760419D01*
X6316573Y3759250D01*
X6316014Y3758387D01*
X6314287Y3757269D01*
X6310172Y3755491D01*
X6305194Y3754424D01*
X6299403Y3754069D01*
X6292748Y3754424D01*
X6285230Y3755491D01*
X6276898Y3757218D01*
X6267704Y3759708D01*
X6257645Y3762857D01*
X6246774Y3766667D01*
X6235039Y3771239D01*
X6222441Y3776472D01*
X6194755Y3789019D01*
X6163716Y3804412D01*
X6129324Y3822547D01*
X6091580Y3843477D01*
X5939231Y3930446D01*
X5938266Y3932224D01*
X5886787Y3932224D01*
X5885992Y3920744D01*
X5886043Y3915867D01*
X5886399Y3911752D01*
X5887059Y3908450D01*
X5888075Y3905961D01*
X5889396Y3904386D01*
X5908141Y3890873D01*
X5927801Y3877462D01*
X5948222Y3864203D01*
X5974842Y3847947D01*
X5996889Y3835196D01*
X6031077Y3816502D01*
X6054547Y3804412D01*
X6072428Y3795522D01*
X6090513Y3786835D01*
X6108801Y3778351D01*
X6133490Y3767277D01*
X6164630Y3754069D01*
X6196076Y3741420D01*
X6227622Y3729532D01*
X6259169Y3718306D01*
X6287780Y3708806D01*
X6536740Y3708806D01*
X6637172Y3729329D01*
X6650736Y3732428D01*
X6664706Y3735984D01*
X6693204Y3744163D01*
X6721246Y3753358D01*
X6734606Y3758133D01*
X6747306Y3763010D01*
X6759143Y3767836D01*
X6769912Y3772662D01*
X6779463Y3777335D01*
X6804152Y3790238D01*
X6815886Y3795725D01*
X6826148Y3799941D01*
X6834784Y3802887D01*
X6841744Y3804615D01*
X6844588Y3805021D01*
X6846976Y3805123D01*
X6848957Y3804920D01*
X6850481Y3804412D01*
X6851497Y3803599D01*
X6852107Y3802481D01*
X6852208Y3801059D01*
X6851853Y3799332D01*
X6850989Y3797350D01*
X6847738Y3792423D01*
X6842455Y3786378D01*
X6835038Y3779164D01*
X6825488Y3770833D01*
X6819188Y3766108D01*
X6811670Y3761384D01*
X6802983Y3756710D01*
X6793331Y3752037D01*
X6782714Y3747465D01*
X6771335Y3743045D01*
X6759244Y3738727D01*
X6746544Y3734562D01*
X6719773Y3726891D01*
X6705904Y3723436D01*
X6691833Y3720236D01*
X6670649Y3715969D01*
X6656628Y3713581D01*
X6642760Y3711549D01*
X6629196Y3709924D01*
X6615988Y3708755D01*
X6603288Y3707993D01*
X6591198Y3707739D01*
X6536740Y3708806D01*
X6287780Y3708806D01*
X6315557Y3700170D01*
X6340348Y3692956D01*
X6364833Y3686352D01*
X6400850Y3677564D01*
X6424320Y3672535D01*
X6447332Y3668115D01*
X6469735Y3664356D01*
X6496862Y3660698D01*
X6517741Y3658565D01*
X6537909Y3657244D01*
X6557162Y3656634D01*
X6679641Y3655517D01*
X6882841Y3729837D01*
X6957263Y3827779D01*
X6812483Y4044746D01*
X6690817Y4112666D01*
X6714744Y4184700D01*
X6682943Y4221632D01*
X6679133Y4226814D01*
X6675374Y4232656D01*
X6671767Y4239158D01*
X6668211Y4246270D01*
X6664807Y4254042D01*
X6661505Y4262374D01*
X6658254Y4271365D01*
X6655155Y4280865D01*
X6649262Y4301693D01*
X6643878Y4324705D01*
X6638950Y4349902D01*
X6634530Y4377080D01*
X6630619Y4406239D01*
X6627266Y4437278D01*
X6624421Y4470095D01*
X6622186Y4504588D01*
X6620509Y4540402D01*
X6619392Y4557928D01*
X6618020Y4574895D01*
X6616395Y4591050D01*
X6614515Y4606086D01*
X6612432Y4619752D01*
X6610197Y4631842D01*
X6607911Y4642002D01*
X6605524Y4650028D01*
X6603085Y4655616D01*
X6600291Y4659680D01*
X6596684Y4666284D01*
X6592570Y4675479D01*
X6588099Y4686858D01*
X6583425Y4700016D01*
X6578650Y4714595D01*
X6574028Y4730089D01*
X6569557Y4746244D01*
X6547561Y4833569D01*
X6625996Y4916474D01*
X6592620Y5030012D01*
X6586016Y5054295D01*
X6579565Y5080660D01*
X6573367Y5108244D01*
X6566255Y5143144D01*
X6561328Y5170373D01*
X6557162Y5196078D01*
X6554063Y5219446D01*
X6552895Y5229910D01*
X6543344Y5327650D01*
X6601409Y5471160D01*
X6611061Y5496001D01*
X6625437Y5534507D01*
X6639153Y5572760D01*
X6647535Y5597093D01*
X6655053Y5619800D01*
X6661556Y5640273D01*
X6666788Y5657951D01*
X6690461Y5744616D01*
X6788302Y5826760D01*
X6804101Y5840577D01*
X6819798Y5855055D01*
X6835444Y5870194D01*
X6854850Y5890006D01*
X6874052Y5910732D01*
X6893102Y5932373D01*
X6908241Y5950305D01*
X6919468Y5964123D01*
X6937959Y5987745D01*
X6956247Y6012180D01*
X6970674Y6032195D01*
X6988403Y6057849D01*
X7002373Y6078829D01*
X7019544Y6105601D01*
X7039660Y6138468D01*
X7059269Y6172098D01*
X7081367Y6212128D01*
X7096658Y6241237D01*
X7108545Y6264808D01*
X7120128Y6288582D01*
X7134148Y6318504D01*
X7152995Y6360871D01*
X7163257Y6385255D01*
X7175601Y6415887D01*
X7185050Y6440474D01*
X7198512Y6477457D01*
X7209078Y6508292D01*
X7217054Y6532981D01*
X7226401Y6563766D01*
X7233412Y6588353D01*
X7243114Y6625081D01*
X7250379Y6655511D01*
X7256932Y6685737D01*
X7260488Y6703771D01*
X7265771Y6733540D01*
X7271105Y6768896D01*
X7274610Y6797954D01*
X7287209Y6921042D01*
X7222083Y7090156D01*
X7074763Y7220102D01*
X6842963Y7271258D01*
X6557822Y7234580D01*
X6341364Y7142378D01*
X6240627Y7206335D01*
X6220917Y7218070D01*
X6198920Y7230313D01*
X6175248Y7242759D01*
X6156756Y7252106D01*
X6137910Y7261250D01*
X6112662Y7272934D01*
X6087872Y7283856D01*
X6064046Y7293660D01*
X6041898Y7302093D01*
X5924397Y7343292D01*
X5831840Y7343495D01*
X5817057Y7343902D01*
X5801817Y7344664D01*
X5786475Y7345730D01*
X5771286Y7347051D01*
X5756503Y7348626D01*
X5742482Y7350455D01*
X5729427Y7352436D01*
X5717641Y7354620D01*
X5707481Y7356906D01*
X5691835Y7360920D01*
X5673496Y7364526D01*
X5651754Y7367930D01*
X5627217Y7371080D01*
X5600547Y7373975D01*
X5572201Y7376515D01*
X5542838Y7378700D01*
X5513070Y7380478D01*
X5483402Y7381798D01*
X5454446Y7382662D01*
G37*
G36*
X5565851Y6684518D02*
G01*
X5551627Y6684111D01*
X5537758Y6683095D01*
X5524347Y6681419D01*
X5511495Y6679031D01*
X5504688Y6677456D01*
X5497830Y6675577D01*
X5484215Y6671106D01*
X5477560Y6668617D01*
X5464708Y6663029D01*
X5452872Y6656984D01*
X5447385Y6653834D01*
X5437632Y6647332D01*
X5433415Y6644030D01*
X5429707Y6640779D01*
X5426608Y6637528D01*
X5424017Y6634378D01*
X5402427Y6603898D01*
X5428691Y6604406D01*
X5432602Y6604660D01*
X5437022Y6605320D01*
X5447334Y6607759D01*
X5458815Y6611366D01*
X5470956Y6616039D01*
X5483098Y6621475D01*
X5500268Y6630568D01*
X5506567Y6633514D01*
X5513324Y6636308D01*
X5520436Y6638899D01*
X5535218Y6643471D01*
X5542737Y6645402D01*
X5550204Y6647027D01*
X5557469Y6648348D01*
X5564530Y6649313D01*
X5571185Y6649923D01*
X5577382Y6650126D01*
X5583580Y6649923D01*
X5590286Y6649313D01*
X5597296Y6648348D01*
X5604611Y6647027D01*
X5612028Y6645402D01*
X5619546Y6643471D01*
X5634329Y6638899D01*
X5641441Y6636308D01*
X5648198Y6633514D01*
X5654497Y6630568D01*
X5667095Y6623761D01*
X5673902Y6620306D01*
X5687263Y6614464D01*
X5700014Y6609994D01*
X5706059Y6608267D01*
X5711901Y6606895D01*
X5717489Y6605879D01*
X5722721Y6605219D01*
X5727649Y6604965D01*
X5732170Y6605016D01*
X5736285Y6605422D01*
X5739942Y6606235D01*
X5743143Y6607403D01*
X5745835Y6608927D01*
X5748020Y6610858D01*
X5749594Y6613194D01*
X5750560Y6615887D01*
X5750864Y6618935D01*
X5750661Y6621881D01*
X5750001Y6624726D01*
X5748883Y6627622D01*
X5747359Y6630466D01*
X5745480Y6633260D01*
X5740501Y6638747D01*
X5734100Y6644081D01*
X5726379Y6649161D01*
X5717438Y6654088D01*
X5707481Y6658711D01*
X5696508Y6663080D01*
X5684672Y6667093D01*
X5672124Y6670751D01*
X5658916Y6674103D01*
X5645200Y6676999D01*
X5631129Y6679488D01*
X5616752Y6681470D01*
X5602224Y6682994D01*
X5587593Y6684009D01*
X5573064Y6684518D01*
G37*
G36*
X5662472Y6385458D02*
G01*
X5652770Y6385153D01*
X5643067Y6384290D01*
X5633262Y6382918D01*
X5623306Y6380988D01*
X5613146Y6378600D01*
X5602782Y6375654D01*
X5592165Y6371945D01*
X5581446Y6367424D01*
X5570728Y6362242D01*
X5560009Y6356299D01*
X5549392Y6349746D01*
X5538927Y6342634D01*
X5528716Y6334963D01*
X5518759Y6326835D01*
X5509158Y6318199D01*
X5499963Y6309207D01*
X5491226Y6299860D01*
X5483047Y6290208D01*
X5477849Y6283553D01*
X5576773Y6283553D01*
X5577230Y6285484D01*
X5578551Y6287871D01*
X5580634Y6290564D01*
X5583428Y6293612D01*
X5590844Y6300368D01*
X5600242Y6307785D01*
X5610961Y6315354D01*
X5622442Y6322720D01*
X5634075Y6329476D01*
X5645302Y6335115D01*
X5650534Y6337452D01*
X5655513Y6339332D01*
X5660034Y6340754D01*
X5664098Y6341618D01*
X5667603Y6341922D01*
X5671261Y6341414D01*
X5676239Y6340043D01*
X5682335Y6337858D01*
X5696915Y6331407D01*
X5713222Y6322872D01*
X5761126Y6294221D01*
X5632297Y6312916D01*
X5618937Y6296609D01*
X5615787Y6293307D01*
X5611825Y6290310D01*
X5607304Y6287566D01*
X5602376Y6285230D01*
X5597144Y6283299D01*
X5591759Y6281877D01*
X5586425Y6281013D01*
X5581294Y6280810D01*
X5578703Y6281166D01*
X5577230Y6282131D01*
X5576773Y6283553D01*
X5477849Y6283553D01*
X5471922Y6275273D01*
X5442051Y6231686D01*
X5514746Y6149289D01*
X5521756Y6175095D01*
X5522620Y6177635D01*
X5523788Y6180124D01*
X5527141Y6185001D01*
X5531764Y6189726D01*
X5537606Y6194298D01*
X5544616Y6198666D01*
X5552795Y6202832D01*
X5561990Y6206794D01*
X5572252Y6210554D01*
X5583478Y6214059D01*
X5595620Y6217361D01*
X5608675Y6220358D01*
X5622594Y6223152D01*
X5637326Y6225641D01*
X5652820Y6227826D01*
X5669026Y6229705D01*
X5685840Y6231280D01*
X5703316Y6232550D01*
X5721400Y6233464D01*
X5739993Y6234074D01*
X5776214Y6234480D01*
X5793181Y6234988D01*
X5809640Y6235750D01*
X5840069Y6238036D01*
X5853480Y6239510D01*
X5865317Y6241135D01*
X5875324Y6242913D01*
X5883198Y6244793D01*
X5886297Y6245758D01*
X5914288Y6259017D01*
X5850077Y6303670D01*
X5834583Y6314186D01*
X5819800Y6323888D01*
X5805728Y6332829D01*
X5792266Y6341008D01*
X5779414Y6348476D01*
X5767070Y6355181D01*
X5755233Y6361176D01*
X5743803Y6366459D01*
X5732780Y6371031D01*
X5722112Y6374993D01*
X5711748Y6378295D01*
X5701588Y6380937D01*
X5691632Y6382969D01*
X5681827Y6384391D01*
X5672124Y6385204D01*
G37*
G36*
X7917434Y8533892D02*
G01*
X7883652Y8524494D01*
X7883652Y8517890D01*
X7901686Y8516112D01*
X7901505Y8390128D01*
X7919974Y8390128D01*
X7919974Y8453882D01*
X7928457Y8460587D01*
X7935823Y8464397D01*
X7942173Y8466175D01*
X7947659Y8466582D01*
X7951825Y8466277D01*
X7955737Y8465312D01*
X7959394Y8463737D01*
X7962798Y8461552D01*
X7965897Y8458708D01*
X7968640Y8455253D01*
X7971028Y8451189D01*
X7973059Y8446465D01*
X7974685Y8441182D01*
X7975904Y8435289D01*
X7976616Y8428736D01*
X7976870Y8421624D01*
X7976565Y8414207D01*
X7975752Y8407552D01*
X7974380Y8401608D01*
X7972602Y8396427D01*
X7970367Y8391906D01*
X7967776Y8388045D01*
X7964881Y8384895D01*
X7961680Y8382304D01*
X7958226Y8380374D01*
X7954568Y8379002D01*
X7950809Y8378190D01*
X7946898Y8377936D01*
X7940344Y8378596D01*
X7933639Y8380679D01*
X7926831Y8384489D01*
X7919974Y8390128D01*
X7901505Y8390128D01*
X7901431Y8378698D01*
X7884668Y8376158D01*
X7884668Y8369300D01*
X7917688Y8367014D01*
X7919720Y8382253D01*
X7927340Y8374532D01*
X7935264Y8369706D01*
X7943189Y8367217D01*
X7950962Y8366506D01*
X7955889Y8366759D01*
X7960563Y8367572D01*
X7965084Y8368842D01*
X7969300Y8370620D01*
X7973314Y8372906D01*
X7977073Y8375599D01*
X7980527Y8378698D01*
X7983677Y8382253D01*
X7986572Y8386165D01*
X7989062Y8390483D01*
X7991246Y8395157D01*
X7993075Y8400135D01*
X7994497Y8405469D01*
X7995564Y8411108D01*
X7996224Y8417001D01*
X7996428Y8423148D01*
X7996072Y8431428D01*
X7994954Y8439099D01*
X7993176Y8446160D01*
X7990738Y8452561D01*
X7987741Y8458250D01*
X7984185Y8463330D01*
X7980121Y8467648D01*
X7975600Y8471204D01*
X7970723Y8474049D01*
X7965440Y8476081D01*
X7959852Y8477351D01*
X7954009Y8477758D01*
X7949539Y8477504D01*
X7945069Y8476792D01*
X7940649Y8475522D01*
X7936280Y8473795D01*
X7932013Y8471509D01*
X7927797Y8468664D01*
X7923682Y8465261D01*
X7919720Y8461248D01*
X7919720Y8500618D01*
X7920228Y8532368D01*
G37*
G36*
X8045196Y8533892D02*
G01*
X8010906Y8524494D01*
X8010906Y8517890D01*
X8028940Y8516112D01*
X8028889Y8406790D01*
X8028431Y8378698D01*
X8010906Y8376158D01*
X8010906Y8369300D01*
X8065516Y8369300D01*
X8065516Y8376158D01*
X8047736Y8378698D01*
X8047228Y8416036D01*
X8047228Y8500618D01*
X8048244Y8532368D01*
G37*
G36*
X8340344Y8533892D02*
G01*
X8306053Y8524494D01*
X8306053Y8517890D01*
X8324088Y8516112D01*
X8323986Y8387994D01*
X8323834Y8378698D01*
X8306308Y8376158D01*
X8306308Y8369300D01*
X8360409Y8369300D01*
X8360409Y8376158D01*
X8342884Y8378698D01*
X8342375Y8410956D01*
X8357362Y8425942D01*
X8391906Y8369300D01*
X8422132Y8369300D01*
X8422132Y8376158D01*
X8407654Y8378190D01*
X8370062Y8438896D01*
X8395716Y8464550D01*
X8416544Y8467344D01*
X8416544Y8474710D01*
X8365236Y8474710D01*
X8365236Y8467344D01*
X8382762Y8463788D01*
X8342375Y8422386D01*
X8342375Y8500618D01*
X8343392Y8532368D01*
G37*
G36*
X7132320Y8530590D02*
G01*
X7126782Y8529624D01*
X7122261Y8526881D01*
X7119213Y8522665D01*
X7118096Y8517128D01*
X7119213Y8511540D01*
X7122261Y8507069D01*
X7126782Y8504174D01*
X7132320Y8503158D01*
X7138009Y8504174D01*
X7142581Y8507120D01*
X7145680Y8511540D01*
X7146798Y8517128D01*
X7145680Y8522665D01*
X7142581Y8526881D01*
X7138009Y8529624D01*
G37*
G36*
X6880859Y8521700D02*
G01*
X6874408Y8521446D01*
X6868210Y8520734D01*
X6862165Y8519566D01*
X6856323Y8517991D01*
X6850684Y8515959D01*
X6845350Y8513521D01*
X6840270Y8510676D01*
X6835444Y8507425D01*
X6830923Y8503818D01*
X6826707Y8499906D01*
X6822846Y8495588D01*
X6819290Y8490966D01*
X6816140Y8486038D01*
X6813296Y8480806D01*
X6810908Y8475319D01*
X6808876Y8469528D01*
X6807250Y8463483D01*
X6806133Y8457184D01*
X6805422Y8450681D01*
X6805168Y8443976D01*
X6805371Y8437118D01*
X6806082Y8430514D01*
X6807200Y8424113D01*
X6808724Y8418017D01*
X6810654Y8412175D01*
X6813042Y8406638D01*
X6815734Y8401405D01*
X6818884Y8396427D01*
X6822338Y8391855D01*
X6826148Y8387537D01*
X6830314Y8383625D01*
X6834784Y8380069D01*
X6839610Y8376869D01*
X6844690Y8374075D01*
X6850075Y8371636D01*
X6855714Y8369655D01*
X6861657Y8368080D01*
X6867804Y8366912D01*
X6874205Y8366252D01*
X6880859Y8365998D01*
X6886752Y8366150D01*
X6892544Y8366607D01*
X6898233Y8367420D01*
X6903821Y8368588D01*
X6909358Y8370112D01*
X6914794Y8371992D01*
X6920128Y8374278D01*
X6925309Y8376920D01*
X6925818Y8409432D01*
X6913625Y8409432D01*
X6908038Y8381238D01*
X6901688Y8378698D01*
X6895236Y8377072D01*
X6888734Y8376158D01*
X6882384Y8375903D01*
X6876542Y8376158D01*
X6870953Y8376970D01*
X6865620Y8378342D01*
X6860540Y8380272D01*
X6855764Y8382711D01*
X6851294Y8385657D01*
X6847179Y8389162D01*
X6843420Y8393176D01*
X6840016Y8397748D01*
X6837019Y8402777D01*
X6834428Y8408365D01*
X6832295Y8414461D01*
X6830568Y8421116D01*
X6829298Y8428228D01*
X6828536Y8435848D01*
X6828281Y8443976D01*
X6828586Y8452002D01*
X6829399Y8459571D01*
X6830720Y8466683D01*
X6832549Y8473236D01*
X6834886Y8479332D01*
X6837629Y8484920D01*
X6840778Y8490000D01*
X6844334Y8494572D01*
X6848195Y8498636D01*
X6852462Y8502142D01*
X6856984Y8505139D01*
X6861809Y8507628D01*
X6866890Y8509558D01*
X6872224Y8510930D01*
X6877710Y8511794D01*
X6883400Y8512048D01*
X6888988Y8511692D01*
X6894626Y8510676D01*
X6900316Y8508949D01*
X6906006Y8506460D01*
X6911594Y8478012D01*
X6923786Y8478012D01*
X6923278Y8510778D01*
X6917842Y8513673D01*
X6912305Y8516010D01*
X6906818Y8517940D01*
X6901383Y8519363D01*
X6896049Y8520430D01*
X6890816Y8521192D01*
X6885736Y8521598D01*
G37*
G36*
X7007098Y8520430D02*
G01*
X6942912Y8428736D01*
X6952488Y8428736D01*
X7001509Y8499602D01*
X7001509Y8428736D01*
X6942912Y8428736D01*
X6941312Y8426450D01*
X6941312Y8415528D01*
X7001509Y8415528D01*
X7001509Y8369300D01*
X7019544Y8369300D01*
X7019544Y8415528D01*
X7042912Y8415528D01*
X7042912Y8428736D01*
X7019544Y8428736D01*
X7019544Y8520430D01*
G37*
G36*
X7374128Y8477758D02*
G01*
X7368946Y8477402D01*
X7363815Y8476335D01*
X7358684Y8474608D01*
X7353655Y8472271D01*
X7348728Y8469325D01*
X7344003Y8465870D01*
X7339533Y8461908D01*
X7335266Y8457438D01*
X7333488Y8475472D01*
X7330440Y8477504D01*
X7298944Y8465312D01*
X7298944Y8458708D01*
X7316724Y8456930D01*
X7317181Y8443671D01*
X7316978Y8378698D01*
X7300468Y8376158D01*
X7300468Y8369300D01*
X7351775Y8369300D01*
X7351775Y8376158D01*
X7336281Y8378698D01*
X7335774Y8416036D01*
X7335774Y8449056D01*
X7343902Y8455609D01*
X7351369Y8460079D01*
X7358583Y8462721D01*
X7366000Y8463534D01*
X7370419Y8463229D01*
X7374229Y8462162D01*
X7377379Y8460384D01*
X7379919Y8457692D01*
X7381849Y8454034D01*
X7383221Y8449411D01*
X7384034Y8443620D01*
X7384288Y8436610D01*
X7384034Y8378698D01*
X7367016Y8376158D01*
X7367016Y8369300D01*
X7418324Y8369300D01*
X7418324Y8376158D01*
X7403084Y8378698D01*
X7402626Y8397544D01*
X7402575Y8437372D01*
X7402372Y8443366D01*
X7401814Y8448802D01*
X7410297Y8455609D01*
X7418019Y8460181D01*
X7425232Y8462721D01*
X7432294Y8463534D01*
X7436815Y8463229D01*
X7440675Y8462314D01*
X7443927Y8460587D01*
X7446568Y8457996D01*
X7448550Y8454440D01*
X7449972Y8449818D01*
X7450836Y8443976D01*
X7451090Y8436864D01*
X7451039Y8407298D01*
X7450581Y8378698D01*
X7434072Y8376158D01*
X7434072Y8369300D01*
X7485125Y8369300D01*
X7485125Y8376158D01*
X7469631Y8378698D01*
X7469124Y8416036D01*
X7469124Y8439150D01*
X7468616Y8448700D01*
X7467193Y8456777D01*
X7464856Y8463432D01*
X7461656Y8468715D01*
X7457592Y8472779D01*
X7452715Y8475573D01*
X7447076Y8477199D01*
X7440675Y8477758D01*
X7435342Y8477453D01*
X7430058Y8476488D01*
X7424826Y8474913D01*
X7419644Y8472678D01*
X7414615Y8469782D01*
X7409738Y8466175D01*
X7405014Y8461908D01*
X7400544Y8456930D01*
X7398816Y8461959D01*
X7396632Y8466277D01*
X7394041Y8469884D01*
X7390942Y8472779D01*
X7387437Y8474964D01*
X7383475Y8476538D01*
X7379055Y8477453D01*
G37*
G36*
X7566152Y8477758D02*
G01*
X7561783Y8477504D01*
X7557414Y8476843D01*
X7553096Y8475624D01*
X7548778Y8473897D01*
X7544562Y8471611D01*
X7540396Y8468766D01*
X7536332Y8465312D01*
X7532370Y8461248D01*
X7530846Y8475472D01*
X7527798Y8477504D01*
X7496556Y8465312D01*
X7496556Y8458708D01*
X7514336Y8456930D01*
X7514894Y8443569D01*
X7515098Y8427720D01*
X7515098Y8388858D01*
X7533386Y8388858D01*
X7533386Y8454390D01*
X7541717Y8460587D01*
X7548880Y8464296D01*
X7555128Y8466124D01*
X7560564Y8466582D01*
X7564628Y8466277D01*
X7568488Y8465312D01*
X7572095Y8463686D01*
X7575448Y8461451D01*
X7578496Y8458606D01*
X7581188Y8455101D01*
X7583576Y8450986D01*
X7585557Y8446211D01*
X7587132Y8440877D01*
X7588300Y8434882D01*
X7589012Y8428329D01*
X7589266Y8421116D01*
X7588961Y8413800D01*
X7588148Y8407247D01*
X7586827Y8401405D01*
X7584998Y8396274D01*
X7582763Y8391804D01*
X7580172Y8387994D01*
X7577175Y8384844D01*
X7573873Y8382304D01*
X7570317Y8380374D01*
X7566507Y8379002D01*
X7562443Y8378190D01*
X7558278Y8377936D01*
X7552029Y8378545D01*
X7545831Y8380425D01*
X7539634Y8383828D01*
X7533386Y8388858D01*
X7515098Y8388858D01*
X7515047Y8353856D01*
X7514590Y8325612D01*
X7496556Y8322818D01*
X7496556Y8315959D01*
X7553452Y8315959D01*
X7553452Y8322818D01*
X7533131Y8325866D01*
X7532624Y8363712D01*
X7532624Y8381238D01*
X7540040Y8374125D01*
X7547660Y8369604D01*
X7555433Y8367217D01*
X7563103Y8366506D01*
X7567879Y8366759D01*
X7572502Y8367522D01*
X7576921Y8368741D01*
X7581138Y8370417D01*
X7585151Y8372551D01*
X7588859Y8375142D01*
X7592364Y8378190D01*
X7595565Y8381593D01*
X7598460Y8385454D01*
X7601000Y8389721D01*
X7603236Y8394293D01*
X7605115Y8399272D01*
X7606588Y8404656D01*
X7607655Y8410295D01*
X7608366Y8416340D01*
X7608570Y8422640D01*
X7608214Y8430920D01*
X7607096Y8438642D01*
X7605318Y8445703D01*
X7602880Y8452154D01*
X7599883Y8457946D01*
X7596327Y8463076D01*
X7592263Y8467445D01*
X7587742Y8471103D01*
X7582865Y8473948D01*
X7577581Y8476081D01*
X7571994Y8477351D01*
G37*
G36*
X7679436Y8477758D02*
G01*
X7674356Y8477504D01*
X7669377Y8476742D01*
X7664551Y8475472D01*
X7659878Y8473744D01*
X7655458Y8471611D01*
X7651242Y8468969D01*
X7647279Y8465921D01*
X7643622Y8462416D01*
X7640269Y8458555D01*
X7637322Y8454288D01*
X7634681Y8449665D01*
X7632496Y8444636D01*
X7630718Y8439302D01*
X7629448Y8433612D01*
X7629163Y8431530D01*
X7648194Y8431530D01*
X7649565Y8440724D01*
X7651953Y8448598D01*
X7655153Y8455101D01*
X7659014Y8460333D01*
X7663434Y8464346D01*
X7668209Y8467191D01*
X7673289Y8468817D01*
X7678420Y8469376D01*
X7683652Y8468817D01*
X7688376Y8467242D01*
X7692593Y8464804D01*
X7696149Y8461552D01*
X7699095Y8457692D01*
X7701229Y8453323D01*
X7702600Y8448497D01*
X7703058Y8443468D01*
X7702550Y8438438D01*
X7700721Y8434476D01*
X7697063Y8431936D01*
X7691120Y8431022D01*
X7648194Y8431530D01*
X7629163Y8431530D01*
X7628636Y8427669D01*
X7628381Y8421370D01*
X7628636Y8415020D01*
X7629296Y8409025D01*
X7630464Y8403386D01*
X7632039Y8398103D01*
X7634020Y8393226D01*
X7636408Y8388705D01*
X7639151Y8384590D01*
X7642301Y8380882D01*
X7645755Y8377580D01*
X7649565Y8374684D01*
X7653731Y8372246D01*
X7658150Y8370163D01*
X7662925Y8368588D01*
X7667904Y8367420D01*
X7673187Y8366759D01*
X7678674Y8366506D01*
X7685735Y8366963D01*
X7692339Y8368284D01*
X7698384Y8370366D01*
X7703921Y8373313D01*
X7708900Y8376970D01*
X7713370Y8381288D01*
X7717231Y8386318D01*
X7720584Y8391906D01*
X7716266Y8394954D01*
X7710119Y8388400D01*
X7703108Y8383320D01*
X7694930Y8380120D01*
X7685024Y8378952D01*
X7679690Y8379256D01*
X7674711Y8380171D01*
X7670088Y8381695D01*
X7665821Y8383879D01*
X7661960Y8386622D01*
X7658506Y8390026D01*
X7655458Y8393988D01*
X7652918Y8398611D01*
X7650886Y8403793D01*
X7649362Y8409635D01*
X7648346Y8416086D01*
X7647940Y8423148D01*
X7719568Y8422894D01*
X7720736Y8428329D01*
X7721092Y8435340D01*
X7720736Y8441690D01*
X7719669Y8447582D01*
X7717942Y8453018D01*
X7715605Y8457946D01*
X7712659Y8462416D01*
X7709204Y8466378D01*
X7705242Y8469731D01*
X7700822Y8472576D01*
X7695996Y8474811D01*
X7690815Y8476437D01*
X7685278Y8477402D01*
G37*
G36*
X7807959Y8477758D02*
G01*
X7803388Y8477250D01*
X7798765Y8475827D01*
X7794244Y8473440D01*
X7789875Y8470138D01*
X7785760Y8466023D01*
X7781899Y8461044D01*
X7778445Y8455304D01*
X7775448Y8448802D01*
X7773416Y8475472D01*
X7770368Y8477504D01*
X7738872Y8465312D01*
X7738872Y8458708D01*
X7756652Y8456930D01*
X7757109Y8443671D01*
X7756906Y8378698D01*
X7740650Y8376158D01*
X7740650Y8369300D01*
X7794752Y8369300D01*
X7794752Y8376158D01*
X7776209Y8378952D01*
X7775702Y8416036D01*
X7775702Y8433562D01*
X7779258Y8442858D01*
X7783525Y8450783D01*
X7788757Y8457438D01*
X7795006Y8463026D01*
X7800898Y8457895D01*
X7804200Y8455863D01*
X7807706Y8454593D01*
X7811516Y8454136D01*
X7817256Y8455253D01*
X7821218Y8458301D01*
X7823504Y8463127D01*
X7824216Y8469376D01*
X7821472Y8472932D01*
X7817713Y8475573D01*
X7813090Y8477199D01*
G37*
G36*
X8132572Y8477758D02*
G01*
X8127746Y8477554D01*
X8122920Y8476843D01*
X8118246Y8475726D01*
X8113674Y8474151D01*
X8109254Y8472170D01*
X8105038Y8469731D01*
X8101025Y8466836D01*
X8097316Y8463483D01*
X8093913Y8459774D01*
X8090865Y8455558D01*
X8088122Y8450986D01*
X8085836Y8445957D01*
X8084007Y8440470D01*
X8082635Y8434628D01*
X8081822Y8428329D01*
X8081518Y8421624D01*
X8101838Y8421624D01*
X8102092Y8429091D01*
X8102752Y8435898D01*
X8103870Y8442147D01*
X8105444Y8447786D01*
X8107476Y8452764D01*
X8109864Y8457133D01*
X8112709Y8460841D01*
X8115909Y8463889D01*
X8119516Y8466277D01*
X8123529Y8468004D01*
X8127847Y8469020D01*
X8132572Y8469376D01*
X8137245Y8469020D01*
X8141563Y8468004D01*
X8145525Y8466277D01*
X8149132Y8463889D01*
X8152333Y8460841D01*
X8155178Y8457133D01*
X8157616Y8452764D01*
X8159648Y8447786D01*
X8161223Y8442147D01*
X8162391Y8435898D01*
X8163052Y8429091D01*
X8163306Y8421624D01*
X8163052Y8414308D01*
X8162391Y8407603D01*
X8161223Y8401456D01*
X8159648Y8395970D01*
X8157616Y8391093D01*
X8155178Y8386825D01*
X8152333Y8383219D01*
X8149132Y8380222D01*
X8145525Y8377885D01*
X8141563Y8376208D01*
X8137245Y8375243D01*
X8132572Y8374888D01*
X8127847Y8375243D01*
X8123529Y8376208D01*
X8119516Y8377885D01*
X8115909Y8380222D01*
X8112709Y8383219D01*
X8109864Y8386825D01*
X8107476Y8391093D01*
X8105444Y8395970D01*
X8103870Y8401456D01*
X8102752Y8407603D01*
X8102092Y8414308D01*
X8101838Y8421624D01*
X8081518Y8421624D01*
X8081822Y8414969D01*
X8082635Y8408771D01*
X8084007Y8402980D01*
X8085836Y8397595D01*
X8088071Y8392617D01*
X8090763Y8388096D01*
X8093811Y8384031D01*
X8097215Y8380323D01*
X8100923Y8377123D01*
X8104936Y8374278D01*
X8109153Y8371941D01*
X8113572Y8369960D01*
X8118144Y8368436D01*
X8122869Y8367369D01*
X8127695Y8366709D01*
X8132572Y8366506D01*
X8137398Y8366709D01*
X8142224Y8367369D01*
X8146948Y8368436D01*
X8151520Y8369960D01*
X8155940Y8371941D01*
X8160207Y8374278D01*
X8164220Y8377123D01*
X8167928Y8380323D01*
X8171383Y8384031D01*
X8174481Y8388096D01*
X8177174Y8392617D01*
X8179511Y8397595D01*
X8181340Y8402980D01*
X8182762Y8408771D01*
X8183575Y8414969D01*
X8183880Y8421624D01*
X8183575Y8428380D01*
X8182762Y8434679D01*
X8181340Y8440572D01*
X8179511Y8446058D01*
X8177174Y8451088D01*
X8174481Y8455660D01*
X8171383Y8459876D01*
X8167928Y8463584D01*
X8164220Y8466886D01*
X8160207Y8469782D01*
X8155940Y8472220D01*
X8151520Y8474202D01*
X8146948Y8475776D01*
X8142224Y8476843D01*
X8137398Y8477554D01*
G37*
G36*
X8255000Y8477758D02*
G01*
X8249970Y8477504D01*
X8245043Y8476792D01*
X8240217Y8475624D01*
X8235543Y8473948D01*
X8231073Y8471865D01*
X8226755Y8469325D01*
X8222742Y8466328D01*
X8218982Y8462924D01*
X8215579Y8459114D01*
X8212480Y8454898D01*
X8209788Y8450275D01*
X8207502Y8445296D01*
X8205673Y8439912D01*
X8204301Y8434171D01*
X8203488Y8428075D01*
X8203184Y8421624D01*
X8203438Y8415426D01*
X8204098Y8409533D01*
X8205216Y8403996D01*
X8206790Y8398764D01*
X8208772Y8393887D01*
X8211108Y8389315D01*
X8213852Y8385200D01*
X8216950Y8381390D01*
X8220405Y8378037D01*
X8224215Y8375040D01*
X8228330Y8372500D01*
X8232749Y8370366D01*
X8237474Y8368690D01*
X8242452Y8367471D01*
X8247735Y8366759D01*
X8253222Y8366506D01*
X8260689Y8366963D01*
X8267547Y8368334D01*
X8273745Y8370570D01*
X8279231Y8373618D01*
X8284108Y8377478D01*
X8288274Y8382152D01*
X8291779Y8387537D01*
X8294624Y8393684D01*
X8290052Y8395716D01*
X8287207Y8391956D01*
X8284006Y8388603D01*
X8280450Y8385708D01*
X8276640Y8383320D01*
X8272576Y8381441D01*
X8268258Y8380069D01*
X8263737Y8379256D01*
X8259064Y8378952D01*
X8253882Y8379307D01*
X8248903Y8380272D01*
X8244331Y8381949D01*
X8240014Y8384235D01*
X8236153Y8387130D01*
X8232648Y8390636D01*
X8229600Y8394750D01*
X8227059Y8399424D01*
X8224977Y8404656D01*
X8223503Y8410448D01*
X8222538Y8416798D01*
X8222234Y8423656D01*
X8222538Y8430615D01*
X8223351Y8437118D01*
X8224672Y8443010D01*
X8226552Y8448395D01*
X8228838Y8453170D01*
X8231631Y8457387D01*
X8234832Y8460994D01*
X8238439Y8463940D01*
X8242401Y8466328D01*
X8246668Y8468004D01*
X8251342Y8469020D01*
X8256270Y8469376D01*
X8262061Y8468817D01*
X8268208Y8467344D01*
X8272525Y8451596D01*
X8273948Y8447278D01*
X8276285Y8444026D01*
X8279790Y8441893D01*
X8284464Y8441182D01*
X8287918Y8441690D01*
X8290712Y8443264D01*
X8292795Y8445804D01*
X8294116Y8449310D01*
X8292388Y8455253D01*
X8289493Y8460740D01*
X8285632Y8465566D01*
X8280857Y8469731D01*
X8275269Y8473135D01*
X8269020Y8475624D01*
X8262264Y8477199D01*
G37*
G36*
X7138924Y8477504D02*
G01*
X7105396Y8465566D01*
X7105396Y8458962D01*
X7122922Y8457184D01*
X7123480Y8443569D01*
X7123684Y8427720D01*
X7123633Y8379815D01*
X7123175Y8360003D01*
X7122718Y8351824D01*
X7122058Y8344814D01*
X7121194Y8338870D01*
X7120178Y8333892D01*
X7118858Y8329930D01*
X7116825Y8326323D01*
X7114794Y8323834D01*
X7109459Y8328152D01*
X7105396Y8331098D01*
X7101484Y8333181D01*
X7097522Y8334349D01*
X7093458Y8334756D01*
X7088886Y8334197D01*
X7085177Y8332520D01*
X7082332Y8329726D01*
X7080503Y8325866D01*
X7081824Y8321649D01*
X7085482Y8317788D01*
X7091680Y8314994D01*
X7100570Y8313928D01*
X7109155Y8314740D01*
X7116419Y8317128D01*
X7122668Y8321090D01*
X7128256Y8326628D01*
X7130846Y8329828D01*
X7133081Y8333181D01*
X7135012Y8336838D01*
X7136587Y8340801D01*
X7137857Y8345170D01*
X7138924Y8349945D01*
X7139736Y8355279D01*
X7140346Y8361222D01*
X7141006Y8375142D01*
X7141209Y8392160D01*
X7141209Y8446008D01*
X7141718Y8475472D01*
G37*
G36*
X7199375Y8476488D02*
G01*
X7166609Y8473186D01*
X7166609Y8466582D01*
X7182612Y8463280D01*
X7182103Y8406638D01*
X7182510Y8396376D01*
X7183983Y8387842D01*
X7186422Y8380882D01*
X7189724Y8375446D01*
X7193889Y8371382D01*
X7198868Y8368588D01*
X7204608Y8367014D01*
X7211059Y8366506D01*
X7216292Y8366861D01*
X7221524Y8367826D01*
X7226706Y8369503D01*
X7231837Y8371789D01*
X7236815Y8374786D01*
X7241641Y8378393D01*
X7246264Y8382660D01*
X7250684Y8387588D01*
X7252716Y8367522D01*
X7283703Y8369300D01*
X7283703Y8375903D01*
X7268464Y8378444D01*
X7268464Y8442706D01*
X7268972Y8474202D01*
X7266940Y8476488D01*
X7234936Y8472932D01*
X7234936Y8466328D01*
X7250684Y8463280D01*
X7250175Y8395462D01*
X7242657Y8389112D01*
X7234936Y8384590D01*
X7227011Y8381898D01*
X7218934Y8380984D01*
X7214616Y8381339D01*
X7210907Y8382355D01*
X7207707Y8384184D01*
X7205065Y8386876D01*
X7203033Y8390534D01*
X7201560Y8395106D01*
X7200696Y8400796D01*
X7200392Y8407654D01*
X7200392Y8442706D01*
X7201408Y8474202D01*
G37*
D10*
X8597900Y3555237D02*
G01*
X8597900Y3459734D01*
X8597900Y3555237D02*
G01*
X8638793Y3555237D01*
X8652509Y3550665D01*
X8657081Y3546094D01*
X8661654Y3537204D01*
X8661654Y3523487D01*
X8657081Y3514344D01*
X8652509Y3509771D01*
X8638793Y3505200D01*
X8597900Y3505200D01*
X8691625Y3537204D02*
G01*
X8700515Y3541776D01*
X8714231Y3555237D01*
X8714231Y3459734D01*
X8851900Y3555237D02*
G01*
X8851900Y3459734D01*
X8851900Y3555237D02*
G01*
X8892793Y3555237D01*
X8906509Y3550665D01*
X8911081Y3546094D01*
X8915654Y3537204D01*
X8915654Y3523487D01*
X8911081Y3514344D01*
X8906509Y3509771D01*
X8892793Y3505200D01*
X8851900Y3505200D01*
X8950197Y3532631D02*
G01*
X8950197Y3537204D01*
X8954515Y3546094D01*
X8959088Y3550665D01*
X8968231Y3555237D01*
X8986520Y3555237D01*
X8995409Y3550665D01*
X8999981Y3546094D01*
X9004554Y3537204D01*
X9004554Y3528060D01*
X8999981Y3518915D01*
X8991091Y3505200D01*
X8945625Y3459734D01*
X9009125Y3459734D01*
X9123172Y3532631D02*
G01*
X9118854Y3541776D01*
X9109709Y3550665D01*
X9100565Y3555237D01*
X9082277Y3555237D01*
X9073388Y3550665D01*
X9064243Y3541776D01*
X9059672Y3532631D01*
X9055100Y3518915D01*
X9055100Y3496310D01*
X9059672Y3482594D01*
X9064243Y3473450D01*
X9073388Y3464305D01*
X9082277Y3459734D01*
X9100565Y3459734D01*
X9109709Y3464305D01*
X9118854Y3473450D01*
X9123172Y3482594D01*
X9123172Y3496310D01*
X9100565Y3496310D02*
G01*
X9123172Y3496310D01*
X9153397Y3555237D02*
G01*
X9153397Y3459734D01*
X9153397Y3555237D02*
G01*
X9216897Y3459734D01*
X9216897Y3555237D02*
G01*
X9216897Y3459734D01*
X9246870Y3555237D02*
G01*
X9246870Y3459734D01*
X9246870Y3555237D02*
G01*
X9278620Y3555237D01*
X9292336Y3550665D01*
X9301479Y3541776D01*
X9306052Y3532631D01*
X9310624Y3518915D01*
X9310624Y3496310D01*
X9306052Y3482594D01*
X9301479Y3473450D01*
X9292336Y3464305D01*
X9278620Y3459734D01*
X9246870Y3459734D01*
X9388093Y3541776D02*
G01*
X9388093Y3459734D01*
X9347200Y3500881D02*
G01*
X9428988Y3500881D01*
X9513570Y3555237D02*
G01*
X9468104Y3555237D01*
X9463531Y3514344D01*
X9468104Y3518915D01*
X9481820Y3523487D01*
X9495281Y3523487D01*
X9508997Y3518915D01*
X9518141Y3509771D01*
X9522713Y3496310D01*
X9522713Y3487165D01*
X9518141Y3473450D01*
X9508997Y3464305D01*
X9495281Y3459734D01*
X9481820Y3459734D01*
X9468104Y3464305D01*
X9463531Y3468878D01*
X9458959Y3478021D01*
X9629393Y3541776D02*
G01*
X9629393Y3459734D01*
X9588500Y3500881D02*
G01*
X9670288Y3500881D01*
X9754870Y3555237D02*
G01*
X9709404Y3555237D01*
X9704831Y3514344D01*
X9709404Y3518915D01*
X9723120Y3523487D01*
X9736581Y3523487D01*
X9750297Y3518915D01*
X9759441Y3509771D01*
X9764013Y3496310D01*
X9764013Y3487165D01*
X9759441Y3473450D01*
X9750297Y3464305D01*
X9736581Y3459734D01*
X9723120Y3459734D01*
X9709404Y3464305D01*
X9704831Y3468878D01*
X9700259Y3478021D01*
X9883393Y3541776D02*
G01*
X9883393Y3459734D01*
X9842500Y3500881D02*
G01*
X9924288Y3500881D01*
X10008870Y3555237D02*
G01*
X9963404Y3555237D01*
X9958831Y3514344D01*
X9963404Y3518915D01*
X9977120Y3523487D01*
X9990581Y3523487D01*
X10004297Y3518915D01*
X10013441Y3509771D01*
X10018013Y3496310D01*
X10018013Y3487165D01*
X10013441Y3473450D01*
X10004297Y3464305D01*
X9990581Y3459734D01*
X9977120Y3459734D01*
X9963404Y3464305D01*
X9958831Y3468878D01*
X9954259Y3478021D01*
X10236454Y3541776D02*
G01*
X10227309Y3550665D01*
X10213593Y3555237D01*
X10195306Y3555237D01*
X10181843Y3550665D01*
X10172700Y3541776D01*
X10172700Y3532631D01*
X10177272Y3523487D01*
X10181843Y3518915D01*
X10190988Y3514344D01*
X10218165Y3505200D01*
X10227309Y3500881D01*
X10231881Y3496310D01*
X10236454Y3487165D01*
X10236454Y3473450D01*
X10227309Y3464305D01*
X10213593Y3459734D01*
X10195306Y3459734D01*
X10181843Y3464305D01*
X10172700Y3473450D01*
X10393172Y3532631D02*
G01*
X10388854Y3541776D01*
X10379709Y3550665D01*
X10370565Y3555237D01*
X10352277Y3555237D01*
X10343388Y3550665D01*
X10334243Y3541776D01*
X10329672Y3532631D01*
X10325100Y3518915D01*
X10325100Y3496310D01*
X10329672Y3482594D01*
X10334243Y3473450D01*
X10343388Y3464305D01*
X10352277Y3459734D01*
X10370565Y3459734D01*
X10379709Y3464305D01*
X10388854Y3473450D01*
X10393172Y3482594D01*
X10393172Y3496310D01*
X10370565Y3496310D02*
G01*
X10393172Y3496310D01*
X10423397Y3555237D02*
G01*
X10423397Y3459734D01*
X10423397Y3555237D02*
G01*
X10486897Y3459734D01*
X10486897Y3555237D02*
G01*
X10486897Y3459734D01*
X10516870Y3555237D02*
G01*
X10516870Y3459734D01*
X10516870Y3555237D02*
G01*
X10548620Y3555237D01*
X10562336Y3550665D01*
X10571479Y3541776D01*
X10576052Y3532631D01*
X10580624Y3518915D01*
X10580624Y3496310D01*
X10576052Y3482594D01*
X10571479Y3473450D01*
X10562336Y3464305D01*
X10548620Y3459734D01*
X10516870Y3459734D01*
X10668000Y3555237D02*
G01*
X10704322Y3459734D01*
X10740643Y3555237D02*
G01*
X10704322Y3459734D01*
D11*
X2630170Y3937000D02*
G01*
X2821177Y3937000D01*
X2630170Y3937000D02*
G01*
X2630170Y4018787D01*
X2639313Y4045965D01*
X2648458Y4055110D01*
X2666745Y4064254D01*
X2684779Y4064254D01*
X2703068Y4055110D01*
X2712211Y4045965D01*
X2721102Y4018787D01*
X2721102Y3937000D01*
X2721102Y4000754D02*
G01*
X2821177Y4064254D01*
X2675636Y4260595D02*
G01*
X2657602Y4251452D01*
X2639313Y4233418D01*
X2630170Y4215129D01*
X2630170Y4178807D01*
X2639313Y4160520D01*
X2657602Y4142486D01*
X2675636Y4133342D01*
X2703068Y4124197D01*
X2748534Y4124197D01*
X2775711Y4133342D01*
X2794000Y4142486D01*
X2812034Y4160520D01*
X2821177Y4178807D01*
X2821177Y4215129D01*
X2812034Y4233418D01*
X2794000Y4251452D01*
X2775711Y4260595D01*
X2630170Y4393437D02*
G01*
X2821177Y4320539D01*
X2630170Y4393437D02*
G01*
X2821177Y4466081D01*
X2757677Y4347971D02*
G01*
X2757677Y4438904D01*
X2630170Y4738878D02*
G01*
X2821177Y4665979D01*
X2630170Y4738878D02*
G01*
X2821177Y4811521D01*
X2757677Y4693412D02*
G01*
X2757677Y4784344D01*
X2593847Y5035295D02*
G01*
X2884931Y4871465D01*
X2630170Y5095239D02*
G01*
X2821177Y5167884D01*
X2630170Y5240528D02*
G01*
X2821177Y5167884D01*
X2630170Y5495289D02*
G01*
X2639313Y5477002D01*
X2657602Y5458713D01*
X2675636Y5449823D01*
X2703068Y5440679D01*
X2748534Y5440679D01*
X2775711Y5449823D01*
X2794000Y5458713D01*
X2812034Y5477002D01*
X2821177Y5495289D01*
X2821177Y5531612D01*
X2812034Y5549645D01*
X2794000Y5567934D01*
X2775711Y5577078D01*
X2748534Y5585968D01*
X2703068Y5585968D01*
X2675636Y5577078D01*
X2657602Y5567934D01*
X2639313Y5549645D01*
X2630170Y5531612D01*
X2630170Y5495289D01*
X2630170Y5646165D02*
G01*
X2766568Y5646165D01*
X2794000Y5655055D01*
X2812034Y5673344D01*
X2821177Y5700521D01*
X2821177Y5718810D01*
X2812034Y5745987D01*
X2794000Y5764276D01*
X2766568Y5773420D01*
X2630170Y5773420D01*
X2630170Y5897118D02*
G01*
X2821177Y5897118D01*
X2630170Y5833363D02*
G01*
X2630170Y5960618D01*
X2630170Y6020562D02*
G01*
X2821177Y6020562D01*
X2630170Y6020562D02*
G01*
X2630170Y6102350D01*
X2639313Y6129781D01*
X2648458Y6138926D01*
X2666745Y6147815D01*
X2693924Y6147815D01*
X2712211Y6138926D01*
X2721102Y6129781D01*
X2730245Y6102350D01*
X2730245Y6020562D01*
X2630170Y6208013D02*
G01*
X2766568Y6208013D01*
X2794000Y6216904D01*
X2812034Y6235192D01*
X2821177Y6262370D01*
X2821177Y6280657D01*
X2812034Y6307836D01*
X2794000Y6326123D01*
X2766568Y6335268D01*
X2630170Y6335268D01*
X2630170Y6458712D02*
G01*
X2821177Y6458712D01*
X2630170Y6395212D02*
G01*
X2630170Y6522465D01*
X2630170Y6722363D02*
G01*
X2821177Y6722363D01*
X2630170Y6722363D02*
G01*
X2630170Y6804152D01*
X2639313Y6831584D01*
X2648458Y6840728D01*
X2666745Y6849618D01*
X2693924Y6849618D01*
X2712211Y6840728D01*
X2721102Y6831584D01*
X2730245Y6804152D01*
X2730245Y6722363D01*
X2630170Y6964171D02*
G01*
X2639313Y6946137D01*
X2657602Y6927850D01*
X2675636Y6918705D01*
X2703068Y6909815D01*
X2748534Y6909815D01*
X2775711Y6918705D01*
X2794000Y6927850D01*
X2812034Y6946137D01*
X2821177Y6964171D01*
X2821177Y7000747D01*
X2812034Y7018781D01*
X2794000Y7037070D01*
X2775711Y7045960D01*
X2748534Y7055104D01*
X2703068Y7055104D01*
X2675636Y7045960D01*
X2657602Y7037070D01*
X2639313Y7018781D01*
X2630170Y7000747D01*
X2630170Y6964171D01*
X2630170Y7115302D02*
G01*
X2821177Y7160513D01*
X2630170Y7205979D02*
G01*
X2821177Y7160513D01*
X2630170Y7205979D02*
G01*
X2821177Y7251445D01*
X2630170Y7296912D02*
G01*
X2821177Y7251445D01*
X2630170Y7357110D02*
G01*
X2821177Y7357110D01*
X2630170Y7357110D02*
G01*
X2630170Y7475220D01*
X2721102Y7357110D02*
G01*
X2721102Y7429754D01*
X2821177Y7357110D02*
G01*
X2821177Y7475220D01*
X2630170Y7535163D02*
G01*
X2821177Y7535163D01*
X2630170Y7535163D02*
G01*
X2630170Y7616952D01*
X2639313Y7644384D01*
X2648458Y7653273D01*
X2666745Y7662418D01*
X2684779Y7662418D01*
X2703068Y7653273D01*
X2712211Y7644384D01*
X2721102Y7616952D01*
X2721102Y7535163D01*
X2721102Y7598918D02*
G01*
X2821177Y7662418D01*
X2630170Y7862570D02*
G01*
X2821177Y7862570D01*
X2630170Y7862570D02*
G01*
X2630170Y7944358D01*
X2639313Y7971536D01*
X2648458Y7980679D01*
X2666745Y7989823D01*
X2684779Y7989823D01*
X2703068Y7980679D01*
X2712211Y7971536D01*
X2721102Y7944358D01*
X2721102Y7862570D02*
G01*
X2721102Y7944358D01*
X2730245Y7971536D01*
X2739390Y7980679D01*
X2757677Y7989823D01*
X2784856Y7989823D01*
X2802890Y7980679D01*
X2812034Y7971536D01*
X2821177Y7944358D01*
X2821177Y7862570D01*
X2630170Y8104378D02*
G01*
X2639313Y8086089D01*
X2657602Y8067802D01*
X2675636Y8058912D01*
X2703068Y8049768D01*
X2748534Y8049768D01*
X2775711Y8058912D01*
X2794000Y8067802D01*
X2812034Y8086089D01*
X2821177Y8104378D01*
X2821177Y8140700D01*
X2812034Y8158734D01*
X2794000Y8177021D01*
X2775711Y8186165D01*
X2748534Y8195055D01*
X2703068Y8195055D01*
X2675636Y8186165D01*
X2657602Y8177021D01*
X2639313Y8158734D01*
X2630170Y8140700D01*
X2630170Y8104378D01*
X2630170Y8327897D02*
G01*
X2821177Y8255254D01*
X2630170Y8327897D02*
G01*
X2821177Y8400542D01*
X2757677Y8282431D02*
G01*
X2757677Y8373363D01*
X2630170Y8460739D02*
G01*
X2821177Y8460739D01*
X2630170Y8460739D02*
G01*
X2630170Y8542528D01*
X2639313Y8569705D01*
X2648458Y8578850D01*
X2666745Y8587994D01*
X2684779Y8587994D01*
X2703068Y8578850D01*
X2712211Y8569705D01*
X2721102Y8542528D01*
X2721102Y8460739D01*
X2721102Y8524239D02*
G01*
X2821177Y8587994D01*
X2630170Y8647937D02*
G01*
X2821177Y8647937D01*
X2630170Y8647937D02*
G01*
X2630170Y8711437D01*
X2639313Y8738870D01*
X2657602Y8756904D01*
X2675636Y8766047D01*
X2703068Y8775192D01*
X2748534Y8775192D01*
X2775711Y8766047D01*
X2794000Y8756904D01*
X2812034Y8738870D01*
X2821177Y8711437D01*
X2821177Y8647937D01*
D12*
X9130538Y7794244D02*
G01*
X9062465Y7771637D01*
X9039606Y7726171D01*
X9039606Y7680705D01*
X9062465Y7635239D01*
X9107931Y7612634D01*
X9198863Y7589773D01*
X9266936Y7567168D01*
X9312402Y7521702D01*
X9335261Y7476236D01*
X9335261Y7407910D01*
X9312402Y7362444D01*
X9289795Y7339837D01*
X9221470Y7316978D01*
X9130538Y7316978D01*
X9062465Y7339837D01*
X9039606Y7362444D01*
X9017000Y7407910D01*
X9017000Y7476236D01*
X9039606Y7521702D01*
X9085072Y7567168D01*
X9153397Y7589773D01*
X9244329Y7612634D01*
X9289795Y7635239D01*
X9312402Y7680705D01*
X9312402Y7726171D01*
X9289795Y7771637D01*
X9221470Y7794244D01*
X9130538Y7794244D01*
X9835134Y7794244D02*
G01*
X9835134Y7316978D01*
X9835134Y7794244D02*
G01*
X10039604Y7794244D01*
X10107929Y7771637D01*
X10130536Y7748778D01*
X10153395Y7703312D01*
X10153395Y7658100D01*
X10130536Y7612634D01*
X10107929Y7589773D01*
X10039604Y7567168D01*
X9835134Y7567168D02*
G01*
X10039604Y7567168D01*
X10107929Y7544308D01*
X10130536Y7521702D01*
X10153395Y7476236D01*
X10153395Y7407910D01*
X10130536Y7362444D01*
X10107929Y7339837D01*
X10039604Y7316978D01*
X9835134Y7316978D01*
X10303256Y7794244D02*
G01*
X10303256Y7316978D01*
X10612374Y7794244D02*
G01*
X10612374Y7316978D01*
X10453370Y7794244D02*
G01*
X10771631Y7794244D01*
X9076436Y6436868D02*
G01*
X9053829Y6482334D01*
X8985504Y6504939D01*
X8917431Y6504939D01*
X8849106Y6482334D01*
X8826500Y6436868D01*
X8849106Y6391402D01*
X8894572Y6368542D01*
X9008363Y6345936D01*
X9053829Y6323076D01*
X9076436Y6277610D01*
X9076436Y6255004D01*
X9053829Y6209537D01*
X8985504Y6186678D01*
X8917431Y6186678D01*
X8849106Y6209537D01*
X8826500Y6255004D01*
X9249156Y6504939D02*
G01*
X9385554Y6186678D01*
X9521952Y6504939D02*
G01*
X9385554Y6186678D01*
X9340088Y6095745D01*
X9294622Y6050534D01*
X9249156Y6027673D01*
X9226550Y6027673D01*
X9922002Y6436868D02*
G01*
X9899141Y6482334D01*
X9831070Y6504939D01*
X9762743Y6504939D01*
X9694672Y6482334D01*
X9672065Y6436868D01*
X9694672Y6391402D01*
X9740138Y6368542D01*
X9853675Y6345936D01*
X9899141Y6323076D01*
X9922002Y6277610D01*
X9922002Y6255004D01*
X9899141Y6209537D01*
X9831070Y6186678D01*
X9762743Y6186678D01*
X9694672Y6209537D01*
X9672065Y6255004D01*
X10140188Y6663944D02*
G01*
X10140188Y6277610D01*
X10162793Y6209537D01*
X10208259Y6186678D01*
X10253725Y6186678D01*
X10071861Y6504939D02*
G01*
X10231120Y6504939D01*
X10403840Y6368542D02*
G01*
X10676381Y6368542D01*
X10676381Y6414007D01*
X10653775Y6459473D01*
X10630915Y6482334D01*
X10585704Y6504939D01*
X10517377Y6504939D01*
X10471911Y6482334D01*
X10426445Y6436868D01*
X10403840Y6368542D01*
X10403840Y6323076D01*
X10426445Y6255004D01*
X10471911Y6209537D01*
X10517377Y6186678D01*
X10585704Y6186678D01*
X10630915Y6209537D01*
X10676381Y6255004D01*
X10826495Y6504939D02*
G01*
X10826495Y6186678D01*
X10826495Y6414007D02*
G01*
X10894568Y6482334D01*
X10940034Y6504939D01*
X11008359Y6504939D01*
X11053825Y6482334D01*
X11076431Y6414007D01*
X11076431Y6186678D01*
X11076431Y6414007D02*
G01*
X11144758Y6482334D01*
X11190224Y6504939D01*
X11258295Y6504939D01*
X11303761Y6482334D01*
X11326622Y6414007D01*
X11326622Y6186678D01*
D13*
X3134868Y7243571D02*
G01*
X3130295Y7243571D01*
X3121406Y7248144D01*
X3116834Y7252715D01*
X3112261Y7261605D01*
X3112261Y7279894D01*
X3116834Y7289037D01*
X3121406Y7293610D01*
X3130295Y7298181D01*
X3139440Y7298181D01*
X3148584Y7293610D01*
X3162300Y7284465D01*
X3207765Y7239000D01*
X3207765Y7302754D01*
X3112261Y7396226D02*
G01*
X3207765Y7350760D01*
X3112261Y7332726D02*
G01*
X3112261Y7396226D01*
X3093974Y7507986D02*
G01*
X3239515Y7426197D01*
X3130295Y7538212D02*
G01*
X3125724Y7547102D01*
X3112261Y7560818D01*
X3207765Y7560818D01*
X3130295Y7590789D02*
G01*
X3125724Y7599934D01*
X3112261Y7613650D01*
X3207765Y7613650D01*
X3093974Y7725410D02*
G01*
X3239515Y7643621D01*
X3134868Y7759954D02*
G01*
X3130295Y7759954D01*
X3121406Y7764526D01*
X3116834Y7769097D01*
X3112261Y7777987D01*
X3112261Y7796276D01*
X3116834Y7805420D01*
X3121406Y7809992D01*
X3130295Y7814563D01*
X3139440Y7814563D01*
X3148584Y7809992D01*
X3162300Y7800847D01*
X3207765Y7755381D01*
X3207765Y7818881D01*
X3112261Y7876286D02*
G01*
X3116834Y7862570D01*
X3130295Y7853426D01*
X3153156Y7849108D01*
X3166618Y7849108D01*
X3189477Y7853426D01*
X3203193Y7862570D01*
X3207765Y7876286D01*
X3207765Y7885429D01*
X3203193Y7898892D01*
X3189477Y7908036D01*
X3166618Y7912608D01*
X3153156Y7912608D01*
X3130295Y7908036D01*
X3116834Y7898892D01*
X3112261Y7885429D01*
X3112261Y7876286D01*
X3134868Y7947152D02*
G01*
X3130295Y7947152D01*
X3121406Y7951723D01*
X3116834Y7956295D01*
X3112261Y7965439D01*
X3112261Y7983473D01*
X3116834Y7992618D01*
X3121406Y7997189D01*
X3130295Y8001762D01*
X3139440Y8001762D01*
X3148584Y7997189D01*
X3162300Y7988045D01*
X3207765Y7942579D01*
X3207765Y8006334D01*
X3112261Y8045450D02*
G01*
X3112261Y8095487D01*
X3148584Y8068055D01*
X3148584Y8081771D01*
X3153156Y8090915D01*
X3157727Y8095487D01*
X3171190Y8099805D01*
X3180334Y8099805D01*
X3194050Y8095487D01*
X3203193Y8086344D01*
X3207765Y8072628D01*
X3207765Y8058912D01*
X3203193Y8045450D01*
X3198622Y8040878D01*
X3189477Y8036305D01*
X3138424Y6070854D02*
G01*
X3129534Y6061710D01*
X3124961Y6047994D01*
X3124961Y6029705D01*
X3129534Y6016244D01*
X3138424Y6007100D01*
X3147568Y6007100D01*
X3156711Y6011671D01*
X3161284Y6016244D01*
X3165856Y6025387D01*
X3175000Y6052565D01*
X3179318Y6061710D01*
X3183890Y6066281D01*
X3193034Y6070854D01*
X3206750Y6070854D01*
X3215893Y6061710D01*
X3220465Y6047994D01*
X3220465Y6029705D01*
X3215893Y6016244D01*
X3206750Y6007100D01*
X3124961Y6128004D02*
G01*
X3129534Y6118860D01*
X3138424Y6109715D01*
X3147568Y6105397D01*
X3161284Y6100826D01*
X3183890Y6100826D01*
X3197606Y6105397D01*
X3206750Y6109715D01*
X3215893Y6118860D01*
X3220465Y6128004D01*
X3220465Y6146292D01*
X3215893Y6155181D01*
X3206750Y6164326D01*
X3197606Y6168897D01*
X3183890Y6173470D01*
X3161284Y6173470D01*
X3147568Y6168897D01*
X3138424Y6164326D01*
X3129534Y6155181D01*
X3124961Y6146292D01*
X3124961Y6128004D01*
X3147568Y6271768D02*
G01*
X3138424Y6267195D01*
X3129534Y6258052D01*
X3124961Y6248907D01*
X3124961Y6230620D01*
X3129534Y6221729D01*
X3138424Y6212586D01*
X3147568Y6208013D01*
X3161284Y6203442D01*
X3183890Y6203442D01*
X3197606Y6208013D01*
X3206750Y6212586D01*
X3215893Y6221729D01*
X3220465Y6230620D01*
X3220465Y6248907D01*
X3215893Y6258052D01*
X3206750Y6267195D01*
X3197606Y6271768D01*
X3124961Y6301739D02*
G01*
X3220465Y6301739D01*
X3124961Y6365239D02*
G01*
X3220465Y6365239D01*
X3170427Y6301739D02*
G01*
X3170427Y6365239D01*
X3124961Y6395212D02*
G01*
X3220465Y6395212D01*
X3252215Y6425184D02*
G01*
X3252215Y6507226D01*
X3124961Y6573520D02*
G01*
X3220465Y6537197D01*
X3124961Y6573520D02*
G01*
X3220465Y6609842D01*
X3188461Y6550660D02*
G01*
X3188461Y6596126D01*
X3124961Y6639813D02*
G01*
X3220465Y6639813D01*
X3124961Y6639813D02*
G01*
X3124961Y6671563D01*
X3129534Y6685279D01*
X3138424Y6694423D01*
X3147568Y6698995D01*
X3161284Y6703568D01*
X3183890Y6703568D01*
X3197606Y6698995D01*
X3206750Y6694423D01*
X3215893Y6685279D01*
X3220465Y6671563D01*
X3220465Y6639813D01*
X3124961Y6733539D02*
G01*
X3220465Y6733539D01*
X3220465Y6733539D02*
G01*
X3220465Y6787895D01*
X3124961Y6818121D02*
G01*
X3220465Y6818121D01*
X3124961Y6818121D02*
G01*
X3124961Y6877050D01*
X3170427Y6818121D02*
G01*
X3170427Y6854444D01*
X3220465Y6818121D02*
G01*
X3220465Y6877050D01*
X3124961Y6907021D02*
G01*
X3220465Y6907021D01*
X3124961Y6907021D02*
G01*
X3124961Y6947915D01*
X3129534Y6961631D01*
X3134106Y6966204D01*
X3142995Y6970776D01*
X3152140Y6970776D01*
X3161284Y6966204D01*
X3165856Y6961631D01*
X3170427Y6947915D01*
X3170427Y6907021D01*
X3170427Y6939026D02*
G01*
X3220465Y6970776D01*
M02*
