G04 Layer: BottomSolderMaskLayer*
G04 EasyEDA v6.5.42, 2024-03-05 11:07:17*
G04 3b4d56fbe8a64d45884a67d00f8a37e5,a2f4cb7aa3704937908c5b59a0d1150c,10*
G04 Gerber Generator version 0.2*
G04 Scale: 100 percent, Rotated: No, Reflected: No *
G04 Dimensions in millimeters *
G04 leading zeros omitted , absolute positions ,4 integer and 5 decimal *
%FSLAX45Y45*%
%MOMM*%

%AMMACRO1*1,1,$1,$2,$3*1,1,$1,$4,$5*1,1,$1,0-$2,0-$3*1,1,$1,0-$4,0-$5*20,1,$1,$2,$3,$4,$5,0*20,1,$1,$4,$5,0-$2,0-$3,0*20,1,$1,0-$2,0-$3,0-$4,0-$5,0*20,1,$1,0-$4,0-$5,$2,$3,0*4,1,4,$2,$3,$4,$5,0-$2,0-$3,0-$4,0-$5,$2,$3,0*%
%AMMACRO2*4,1,8,-4.114,-5.511,-4.114,5.511,-2.49,5.511,-2.49,3.733,4.114,3.733,4.114,-4.3675,-2.49,-4.3675,-2.49,-5.511,-4.114,-5.511,0*%
%ADD10C,1.5016*%
%ADD11C,2.3016*%
%ADD12C,1.7016*%
%ADD13C,1.4016*%
%ADD14O,2.101596X3.1015939999999995*%
%ADD15O,2.101596X2.601595*%
%ADD16O,3.2031940000000003X2.703195*%
%ADD17O,2.703195X4.2031920000000005*%
%ADD18O,4.2031920000000005X2.703195*%
%ADD19C,2.5016*%
%ADD20O,5.10159X3.101594*%
%ADD21O,3.101594X5.10159*%
%ADD22MACRO1,0.1016X-0.7874X-0.7874X0.7874X-0.7874*%
%ADD23C,1.6764*%
%ADD24MACRO1,0.1016X-2.5X2.7X2.5X2.7*%
%ADD25O,1.0015981999999999X1.7015968*%
%ADD26MACRO1,0.1016X0.45X0.8X-0.45X0.8*%
%ADD27MACRO1,0.1016X1.6X0.575X-1.6X0.575*%
%ADD28MACRO2*%
%ADD29R,2.1016X3.1016*%

%LPD*%
D10*
G01*
X4978400Y4701006D03*
G01*
X4978400Y3680993D03*
D11*
G01*
X7956219Y5867400D03*
G01*
X8706205Y5867400D03*
D12*
G01*
X11404600Y4635500D03*
G01*
X11404600Y4127500D03*
G01*
X7962900Y4089400D03*
G01*
X7962900Y4597400D03*
G01*
X8318500Y7708900D03*
G01*
X8318500Y7200900D03*
G01*
X12179300Y4102100D03*
G01*
X12179300Y4610100D03*
G01*
X5880100Y3962400D03*
G01*
X5880100Y4470400D03*
G01*
X6807200Y4470400D03*
G01*
X6807200Y3962400D03*
G01*
X12026900Y6375400D03*
G01*
X12026900Y5867400D03*
G01*
X6819900Y5588000D03*
G01*
X6819900Y5080000D03*
G01*
X11531600Y3416300D03*
G01*
X12039600Y3416300D03*
G01*
X11722100Y9029700D03*
G01*
X11722100Y8521700D03*
G01*
X7556500Y7769605D03*
G01*
X7556500Y7419594D03*
D13*
G01*
X4013200Y6157899D03*
G01*
X4013200Y5957900D03*
D14*
G01*
X6436410Y8745499D03*
G01*
X6436410Y9415500D03*
D15*
G01*
X5806389Y9095511D03*
G01*
X5806389Y8745499D03*
G01*
X5806389Y9415500D03*
D16*
G01*
X8911488Y8948902D03*
D17*
G01*
X9411487Y8948902D03*
G01*
X8391499Y8948902D03*
D18*
G01*
X8911488Y9436100D03*
D16*
G01*
X7539888Y8948902D03*
D17*
G01*
X8039887Y8948902D03*
G01*
X7019899Y8948902D03*
D18*
G01*
X7539888Y9436100D03*
D16*
G01*
X4733188Y8948902D03*
D17*
G01*
X5233187Y8948902D03*
G01*
X4213199Y8948902D03*
D18*
G01*
X4733188Y9436100D03*
D19*
G01*
X10604500Y6825691D03*
G01*
X10604500Y8185708D03*
G01*
X9817100Y6825691D03*
G01*
X9817100Y8185708D03*
G01*
X9042400Y8185708D03*
G01*
X9042400Y6825691D03*
G01*
X12230100Y8185708D03*
G01*
X12230100Y6825691D03*
D20*
G01*
X10712424Y8567318D03*
G01*
X10712399Y9187281D03*
D21*
G01*
X11182426Y8867292D03*
D22*
G01*
X8674100Y3314700D03*
D23*
G01*
X8928100Y3314700D03*
G01*
X9182100Y3314700D03*
G01*
X9436100Y3314700D03*
G01*
X9690100Y3314700D03*
G01*
X9944100Y3314700D03*
G01*
X10198100Y3314700D03*
G01*
X10452100Y3314700D03*
G01*
X10706100Y3314700D03*
D24*
G01*
X10746587Y5854700D03*
G01*
X9776612Y5854700D03*
D25*
G01*
X5156200Y5448300D03*
G01*
X5283200Y5448300D03*
D26*
G01*
X5410198Y5448300D03*
D12*
G01*
X4745507Y6477000D03*
G01*
X5795518Y6477000D03*
D10*
G01*
X6462293Y6477000D03*
G01*
X7482306Y6477000D03*
G01*
X6642100Y8130006D03*
G01*
X6642100Y7109993D03*
G01*
X3822700Y8117306D03*
G01*
X3822700Y7097293D03*
G01*
X4813300Y8130006D03*
G01*
X4813300Y7109993D03*
G01*
X5753100Y8130006D03*
G01*
X5753100Y7109993D03*
G01*
X3937000Y4701006D03*
G01*
X3937000Y3680993D03*
D27*
G01*
X10482976Y4041140D03*
G01*
X10482976Y4211319D03*
G01*
X10482976Y4551680D03*
G01*
X10482976Y4381500D03*
G01*
X10482976Y4721859D03*
D28*
G01*
X9481438Y4381500D03*
D29*
G01*
X11366500Y5876010D03*
G01*
X11366500Y6315989D03*
D10*
G01*
X9118600Y4889500D03*
G01*
X9118600Y4635500D03*
G01*
X9118600Y4381500D03*
G01*
X9118600Y4127500D03*
G01*
X9118600Y3873500D03*
G01*
X9372600Y3873500D03*
G01*
X9626600Y3873500D03*
G01*
X9880600Y3873500D03*
G01*
X9880600Y4140200D03*
G01*
X9880600Y4394200D03*
G01*
X9880600Y4635500D03*
G01*
X9880600Y4889500D03*
G01*
X9626600Y4889500D03*
G01*
X9385300Y4889500D03*
G01*
X9372600Y4635500D03*
G01*
X9372600Y4381500D03*
G01*
X9372600Y4127500D03*
G01*
X9626600Y4127500D03*
G01*
X9626600Y4381500D03*
G01*
X9626600Y4635500D03*
G01*
X9118600Y5130800D03*
G01*
X9385300Y5130800D03*
G01*
X9626600Y5130800D03*
G01*
X9880600Y5143500D03*
G01*
X8839200Y5130800D03*
G01*
X8839200Y4889500D03*
G01*
X8839200Y4635500D03*
G01*
X8839200Y4381500D03*
G01*
X8839200Y4127500D03*
G01*
X8839200Y3873500D03*
G01*
X10083800Y5346700D03*
D22*
G01*
X7543800Y8204200D03*
D23*
G01*
X7797800Y8204200D03*
M02*
