G04 Layer: TopLayer*
G04 EasyEDA v6.5.42, 2024-03-05 11:07:17*
G04 3b4d56fbe8a64d45884a67d00f8a37e5,a2f4cb7aa3704937908c5b59a0d1150c,10*
G04 Gerber Generator version 0.2*
G04 Scale: 100 percent, Rotated: No, Reflected: No *
G04 Dimensions in millimeters *
G04 leading zeros omitted , absolute positions ,4 integer and 5 decimal *
%FSLAX45Y45*%
%MOMM*%

%AMMACRO1*21,1,$1,$2,0,0,$3*%
%ADD10C,1.0000*%
%ADD11C,2.0000*%
%ADD12C,0.6500*%
%ADD13C,1.4000*%
%ADD14C,2.2000*%
%ADD15C,1.6000*%
%ADD16C,1.3000*%
%ADD17O,1.9999959999999999X2.999994*%
%ADD18O,1.9999959999999999X2.4999949999999997*%
%ADD19O,2.999994X2.4999949999999997*%
%ADD20O,2.4999949999999997X3.9999919999999998*%
%ADD21O,3.9999919999999998X2.4999949999999997*%
%ADD22C,2.4000*%
%ADD23O,4.9999899999999995X2.999994*%
%ADD24O,2.999994X4.9999899999999995*%
%ADD25MACRO1,1.5748X1.5748X0.0000*%
%ADD26C,1.5748*%
%ADD27O,0.8999982X1.5999968*%
%ADD28MACRO1,0.9X1.6X0.0000*%
%ADD29C,0.6500*%
%ADD30C,0.0138*%

%LPD*%
G36*
X9497822Y3208020D02*
G01*
X9493656Y3208934D01*
X9490202Y3211474D01*
X9488119Y3215233D01*
X9487763Y3219500D01*
X9489186Y3223514D01*
X9492183Y3226612D01*
X9499803Y3231692D01*
X9510064Y3240735D01*
X9519107Y3250996D01*
X9526727Y3262376D01*
X9532772Y3274669D01*
X9537141Y3287623D01*
X9539833Y3301034D01*
X9540748Y3314700D01*
X9539833Y3328365D01*
X9537141Y3341776D01*
X9532772Y3354730D01*
X9526727Y3367024D01*
X9519107Y3378403D01*
X9510064Y3388664D01*
X9499803Y3397707D01*
X9492183Y3402787D01*
X9489186Y3405886D01*
X9487763Y3409899D01*
X9488119Y3414166D01*
X9490202Y3417925D01*
X9493656Y3420465D01*
X9497822Y3421379D01*
X9628378Y3421379D01*
X9632543Y3420465D01*
X9635998Y3417925D01*
X9638080Y3414166D01*
X9638436Y3409899D01*
X9637014Y3405886D01*
X9634016Y3402787D01*
X9626396Y3397707D01*
X9616135Y3388664D01*
X9607092Y3378403D01*
X9599472Y3367024D01*
X9593427Y3354730D01*
X9589058Y3341776D01*
X9586366Y3328365D01*
X9585452Y3314700D01*
X9586366Y3301034D01*
X9589058Y3287623D01*
X9593427Y3274669D01*
X9599472Y3262376D01*
X9607092Y3250996D01*
X9616135Y3240735D01*
X9626396Y3231692D01*
X9634016Y3226612D01*
X9637014Y3223514D01*
X9638436Y3219500D01*
X9638080Y3215233D01*
X9635998Y3211474D01*
X9632543Y3208934D01*
X9628378Y3208020D01*
G37*

%LPD*%
G36*
X8783980Y3208020D02*
G01*
X8779764Y3208934D01*
X8776360Y3211474D01*
X8774277Y3215233D01*
X8773922Y3219551D01*
X8776106Y3224733D01*
X8778036Y3230219D01*
X8778748Y3236518D01*
X8778748Y3241954D01*
X8779205Y3244951D01*
X8781846Y3249574D01*
X8788908Y3263036D01*
X8791498Y3269843D01*
X8793581Y3273196D01*
X8796782Y3275482D01*
X8800693Y3276396D01*
X8804554Y3275736D01*
X8807958Y3273602D01*
X8810244Y3270402D01*
X8816644Y3256178D01*
X8824518Y3243173D01*
X8833866Y3231235D01*
X8839758Y3225342D01*
X8841943Y3222040D01*
X8842705Y3218180D01*
X8841943Y3214268D01*
X8839758Y3210966D01*
X8836456Y3208782D01*
X8832545Y3208020D01*
G37*

%LPD*%
G36*
X9023654Y3208020D02*
G01*
X9019743Y3208782D01*
X9016441Y3210966D01*
X9014256Y3214268D01*
X9013494Y3218180D01*
X9014256Y3222040D01*
X9016441Y3225342D01*
X9022334Y3231235D01*
X9031681Y3243173D01*
X9039555Y3256178D01*
X9045803Y3270046D01*
X9050324Y3284575D01*
X9053068Y3299510D01*
X9054033Y3315004D01*
X9054033Y3521506D01*
X9054795Y3525418D01*
X9056979Y3528720D01*
X9060281Y3530904D01*
X9064193Y3531666D01*
X9115298Y3531666D01*
X9119006Y3531006D01*
X9122206Y3528974D01*
X9124442Y3525926D01*
X9125407Y3522268D01*
X9125000Y3518509D01*
X9123172Y3515156D01*
X9121038Y3512464D01*
X9116212Y3503828D01*
X9112910Y3494532D01*
X9111234Y3484727D01*
X9111234Y3474974D01*
X9112808Y3465474D01*
X9115958Y3456330D01*
X9120530Y3447897D01*
X9127286Y3439363D01*
X9134703Y3432860D01*
X9143136Y3427679D01*
X9152331Y3423970D01*
X9162084Y3421887D01*
X9169704Y3421379D01*
X9374378Y3421379D01*
X9378543Y3420465D01*
X9381998Y3417925D01*
X9384080Y3414166D01*
X9384436Y3409899D01*
X9383014Y3405886D01*
X9380016Y3402787D01*
X9372396Y3397707D01*
X9362135Y3388664D01*
X9353092Y3378403D01*
X9345472Y3367024D01*
X9339427Y3354730D01*
X9335058Y3341776D01*
X9332366Y3328365D01*
X9331452Y3314700D01*
X9332366Y3301034D01*
X9335058Y3287623D01*
X9339427Y3274669D01*
X9345472Y3262376D01*
X9353092Y3250996D01*
X9362135Y3240735D01*
X9372396Y3231692D01*
X9380016Y3226612D01*
X9383014Y3223514D01*
X9384436Y3219500D01*
X9384080Y3215233D01*
X9381998Y3211474D01*
X9378543Y3208934D01*
X9374378Y3208020D01*
G37*

%LPD*%
G36*
X9751822Y3208020D02*
G01*
X9747656Y3208934D01*
X9744202Y3211474D01*
X9742119Y3215233D01*
X9741763Y3219500D01*
X9743186Y3223514D01*
X9746183Y3226612D01*
X9753803Y3231692D01*
X9764064Y3240735D01*
X9773107Y3250996D01*
X9780727Y3262376D01*
X9786772Y3274669D01*
X9791141Y3287623D01*
X9793833Y3301034D01*
X9794748Y3314700D01*
X9793833Y3328365D01*
X9791141Y3341776D01*
X9786772Y3354730D01*
X9780727Y3367024D01*
X9773107Y3378403D01*
X9764064Y3388664D01*
X9753803Y3397707D01*
X9746183Y3402787D01*
X9743186Y3405886D01*
X9741763Y3409899D01*
X9742119Y3414166D01*
X9744202Y3417925D01*
X9747656Y3420465D01*
X9751822Y3421379D01*
X9882378Y3421379D01*
X9886543Y3420465D01*
X9889998Y3417925D01*
X9892080Y3414166D01*
X9892436Y3409899D01*
X9891014Y3405886D01*
X9888016Y3402787D01*
X9880396Y3397707D01*
X9870135Y3388664D01*
X9861092Y3378403D01*
X9853472Y3367024D01*
X9847427Y3354730D01*
X9843058Y3341776D01*
X9840366Y3328365D01*
X9839452Y3314700D01*
X9840366Y3301034D01*
X9843058Y3287623D01*
X9847427Y3274669D01*
X9853472Y3262376D01*
X9861092Y3250996D01*
X9870135Y3240735D01*
X9880396Y3231692D01*
X9888016Y3226612D01*
X9891014Y3223514D01*
X9892436Y3219500D01*
X9892080Y3215233D01*
X9889998Y3211474D01*
X9886543Y3208934D01*
X9882378Y3208020D01*
G37*

%LPD*%
G36*
X10005822Y3208020D02*
G01*
X10001656Y3208934D01*
X9998202Y3211474D01*
X9996119Y3215233D01*
X9995763Y3219500D01*
X9997186Y3223514D01*
X10000183Y3226612D01*
X10007803Y3231692D01*
X10018064Y3240735D01*
X10027107Y3250996D01*
X10034727Y3262376D01*
X10040772Y3274669D01*
X10045141Y3287623D01*
X10047833Y3301034D01*
X10048748Y3314700D01*
X10047833Y3328365D01*
X10045141Y3341776D01*
X10040772Y3354730D01*
X10034727Y3367024D01*
X10027107Y3378403D01*
X10018064Y3388664D01*
X10007803Y3397707D01*
X10000183Y3402787D01*
X9997186Y3405886D01*
X9995763Y3409899D01*
X9996119Y3414166D01*
X9998202Y3417925D01*
X10001656Y3420465D01*
X10005822Y3421379D01*
X10066020Y3421379D01*
X10069931Y3420618D01*
X10073233Y3418433D01*
X10075418Y3415131D01*
X10076180Y3411220D01*
X10076180Y3378606D01*
X10077043Y3368598D01*
X10079380Y3359251D01*
X10083241Y3350412D01*
X10088575Y3342284D01*
X10092182Y3338271D01*
X10093909Y3335629D01*
X10094722Y3332632D01*
X10093452Y3314700D01*
X10094366Y3301034D01*
X10097058Y3287623D01*
X10101427Y3274669D01*
X10107472Y3262376D01*
X10115092Y3250996D01*
X10124135Y3240735D01*
X10134396Y3231692D01*
X10142016Y3226612D01*
X10145014Y3223514D01*
X10146436Y3219500D01*
X10146080Y3215233D01*
X10143998Y3211474D01*
X10140543Y3208934D01*
X10136378Y3208020D01*
G37*

%LPD*%
G36*
X2423668Y3086608D02*
G01*
X2419756Y3087370D01*
X2416505Y3089605D01*
X2414270Y3092856D01*
X2413508Y3096768D01*
X2413508Y4419600D01*
X2400808Y9499650D01*
X2400808Y9552432D01*
X2401570Y9556343D01*
X2403805Y9559594D01*
X2407056Y9561830D01*
X2410968Y9562592D01*
X12689332Y9562592D01*
X12693243Y9561830D01*
X12696494Y9559594D01*
X12698730Y9556343D01*
X12699492Y9552432D01*
X12699492Y3096768D01*
X12698730Y3092856D01*
X12696494Y3089605D01*
X12693243Y3087370D01*
X12689332Y3086608D01*
X10584586Y3086608D01*
X10580573Y3087420D01*
X10577220Y3089757D01*
X10575036Y3093161D01*
X10574426Y3097174D01*
X10575391Y3101136D01*
X10577830Y3104388D01*
X10582503Y3108502D01*
X10682376Y3208375D01*
X10685068Y3210306D01*
X10688218Y3211271D01*
X10706100Y3210052D01*
X10719765Y3210966D01*
X10733176Y3213658D01*
X10746130Y3218027D01*
X10758424Y3224072D01*
X10769803Y3231692D01*
X10780064Y3240735D01*
X10789107Y3250996D01*
X10796727Y3262376D01*
X10802772Y3274669D01*
X10807141Y3287623D01*
X10809833Y3301034D01*
X10810748Y3314700D01*
X10809833Y3328365D01*
X10807141Y3341776D01*
X10802772Y3354730D01*
X10796727Y3367024D01*
X10789107Y3378403D01*
X10780064Y3388664D01*
X10769803Y3397707D01*
X10758424Y3405327D01*
X10746130Y3411372D01*
X10733176Y3415741D01*
X10719765Y3418433D01*
X10706100Y3419348D01*
X10692434Y3418433D01*
X10679023Y3415741D01*
X10666069Y3411372D01*
X10653776Y3405327D01*
X10642396Y3397707D01*
X10632135Y3388664D01*
X10623092Y3378403D01*
X10615472Y3367024D01*
X10609427Y3354730D01*
X10605058Y3341776D01*
X10602366Y3328365D01*
X10601452Y3314700D01*
X10602671Y3296818D01*
X10601706Y3293668D01*
X10599775Y3290976D01*
X10519765Y3210966D01*
X10516463Y3208782D01*
X10512602Y3208020D01*
X10259822Y3208020D01*
X10255656Y3208934D01*
X10252202Y3211474D01*
X10250119Y3215233D01*
X10249763Y3219500D01*
X10251186Y3223514D01*
X10254183Y3226612D01*
X10261803Y3231692D01*
X10272064Y3240735D01*
X10281107Y3250996D01*
X10288727Y3262376D01*
X10294772Y3274669D01*
X10299141Y3287623D01*
X10301833Y3301034D01*
X10302748Y3314700D01*
X10301833Y3328365D01*
X10299141Y3341776D01*
X10294772Y3354730D01*
X10288727Y3367024D01*
X10281107Y3378403D01*
X10272064Y3388664D01*
X10261803Y3397707D01*
X10250424Y3405327D01*
X10238130Y3411372D01*
X10225176Y3415741D01*
X10211765Y3418433D01*
X10202519Y3419043D01*
X10198811Y3420008D01*
X10195763Y3422243D01*
X10193731Y3425444D01*
X10193020Y3429152D01*
X10193020Y3479596D01*
X10192816Y3484626D01*
X10192207Y3489401D01*
X10191191Y3494125D01*
X10189819Y3498748D01*
X10188092Y3503269D01*
X10185958Y3507587D01*
X10183469Y3511753D01*
X10180675Y3515664D01*
X10177576Y3519373D01*
X10174173Y3522776D01*
X10170464Y3525875D01*
X10166553Y3528669D01*
X10162387Y3531158D01*
X10158069Y3533292D01*
X10153548Y3535019D01*
X10148925Y3536391D01*
X10144201Y3537407D01*
X10139426Y3538016D01*
X10134396Y3538220D01*
X10101326Y3538220D01*
X10097211Y3539083D01*
X10093807Y3541572D01*
X10091674Y3545179D01*
X10091216Y3549396D01*
X10092486Y3553409D01*
X10095331Y3556558D01*
X10103764Y3563365D01*
X10109454Y3568700D01*
X10541000Y4000246D01*
X10546334Y4005935D01*
X10551210Y4011777D01*
X10555732Y4017873D01*
X10559846Y4024274D01*
X10563606Y4030878D01*
X10566908Y4037736D01*
X10569803Y4044746D01*
X10572292Y4051960D01*
X10574324Y4059275D01*
X10575950Y4066692D01*
X10577068Y4074210D01*
X10577779Y4081779D01*
X10578033Y4089552D01*
X10578033Y4363262D01*
X10578795Y4367123D01*
X10580979Y4370425D01*
X10717174Y4506620D01*
X10720476Y4508804D01*
X10724337Y4509566D01*
X11404295Y4509566D01*
X11419789Y4510532D01*
X11434724Y4513275D01*
X11449253Y4517796D01*
X11463121Y4524044D01*
X11476126Y4531918D01*
X11488064Y4541266D01*
X11498834Y4552035D01*
X11508181Y4563973D01*
X11516055Y4576978D01*
X11522303Y4590846D01*
X11526824Y4605375D01*
X11529568Y4620310D01*
X11530482Y4635500D01*
X11529568Y4650689D01*
X11526824Y4665624D01*
X11522303Y4680153D01*
X11516055Y4694021D01*
X11508181Y4707026D01*
X11498834Y4718964D01*
X11488064Y4729734D01*
X11476126Y4739081D01*
X11463121Y4746955D01*
X11449253Y4753203D01*
X11434724Y4757724D01*
X11419789Y4760468D01*
X11404295Y4761382D01*
X10668152Y4761382D01*
X10660380Y4761179D01*
X10652810Y4760468D01*
X10645292Y4759350D01*
X10637875Y4757724D01*
X10630560Y4755692D01*
X10623346Y4753203D01*
X10616336Y4750308D01*
X10609478Y4747006D01*
X10602874Y4743246D01*
X10596473Y4739132D01*
X10590377Y4734610D01*
X10584535Y4729734D01*
X10578846Y4724400D01*
X10363200Y4508754D01*
X10357866Y4503064D01*
X10352989Y4497222D01*
X10348468Y4491126D01*
X10344353Y4484725D01*
X10340594Y4478121D01*
X10337292Y4471263D01*
X10334396Y4464253D01*
X10331907Y4457039D01*
X10329875Y4449724D01*
X10328249Y4442307D01*
X10327132Y4434789D01*
X10326420Y4427220D01*
X10326217Y4419447D01*
X10326217Y4145737D01*
X10325404Y4141876D01*
X10323220Y4138574D01*
X9971125Y3786479D01*
X9967823Y3784295D01*
X9963962Y3783482D01*
X8928404Y3783482D01*
X8912910Y3782568D01*
X8897975Y3779824D01*
X8883446Y3775303D01*
X8869578Y3769055D01*
X8856573Y3761181D01*
X8844635Y3751834D01*
X8833866Y3741064D01*
X8824518Y3729126D01*
X8816644Y3716121D01*
X8810396Y3702253D01*
X8805875Y3687724D01*
X8803132Y3672789D01*
X8802217Y3657295D01*
X8802217Y3382264D01*
X8801252Y3377996D01*
X8798610Y3374491D01*
X8794750Y3372459D01*
X8790381Y3372256D01*
X8786317Y3373831D01*
X8783320Y3377031D01*
X8780221Y3382213D01*
X8779103Y3384753D01*
X8778748Y3387445D01*
X8778748Y3392881D01*
X8778036Y3399180D01*
X8776106Y3404666D01*
X8773058Y3409543D01*
X8768943Y3413658D01*
X8764066Y3416706D01*
X8758682Y3418636D01*
X8750706Y3419398D01*
X8747353Y3420313D01*
X8744559Y3422345D01*
X8714079Y3452774D01*
X8711895Y3456076D01*
X8711133Y3459937D01*
X8711133Y5252262D01*
X8711895Y5256123D01*
X8714079Y5259425D01*
X8795105Y5340451D01*
X8800439Y5346141D01*
X8805316Y5351983D01*
X8809837Y5358079D01*
X8813952Y5364480D01*
X8817711Y5371084D01*
X8821013Y5377942D01*
X8823909Y5384952D01*
X8826398Y5392166D01*
X8828430Y5399481D01*
X8830056Y5406898D01*
X8831173Y5414416D01*
X8831884Y5421985D01*
X8832138Y5429758D01*
X8832138Y5811062D01*
X8832900Y5814923D01*
X8835085Y5818225D01*
X9131300Y6114440D01*
X9136634Y6120130D01*
X9141510Y6125972D01*
X9146032Y6132068D01*
X9150146Y6138468D01*
X9153906Y6145072D01*
X9157208Y6151930D01*
X9160103Y6158941D01*
X9162592Y6166154D01*
X9164624Y6173470D01*
X9166250Y6180886D01*
X9167368Y6188405D01*
X9168079Y6195974D01*
X9168333Y6203746D01*
X9168333Y6749745D01*
X9168638Y6752285D01*
X9169552Y6754672D01*
X9173819Y6762394D01*
X9180118Y6777532D01*
X9184640Y6793230D01*
X9187383Y6809384D01*
X9188297Y6825691D01*
X9187383Y6842048D01*
X9184640Y6858152D01*
X9180118Y6873900D01*
X9173819Y6888988D01*
X9165945Y6903313D01*
X9156446Y6916674D01*
X9145574Y6928866D01*
X9133382Y6939737D01*
X9120022Y6949236D01*
X9105696Y6957161D01*
X9090609Y6963409D01*
X9074861Y6967931D01*
X9058757Y6970674D01*
X9042400Y6971588D01*
X9026042Y6970674D01*
X9009938Y6967931D01*
X8994190Y6963409D01*
X8979103Y6957161D01*
X8964777Y6949236D01*
X8951417Y6939737D01*
X8939225Y6928866D01*
X8928354Y6916674D01*
X8918854Y6903313D01*
X8910980Y6888988D01*
X8904681Y6873900D01*
X8900160Y6858152D01*
X8897416Y6842048D01*
X8896502Y6825691D01*
X8897416Y6809384D01*
X8900160Y6793230D01*
X8904681Y6777532D01*
X8910980Y6762394D01*
X8915247Y6754672D01*
X8916162Y6752285D01*
X8916517Y6749745D01*
X8916517Y6259931D01*
X8915704Y6256070D01*
X8913520Y6252768D01*
X8654643Y5993892D01*
X8652052Y5992012D01*
X8638235Y5985103D01*
X8625027Y5976416D01*
X8612936Y5966256D01*
X8602116Y5954776D01*
X8592667Y5942076D01*
X8584742Y5928410D01*
X8578494Y5913882D01*
X8573973Y5898743D01*
X8571230Y5883198D01*
X8570315Y5867400D01*
X8571230Y5851652D01*
X8573973Y5836056D01*
X8578494Y5820918D01*
X8579459Y5818682D01*
X8580323Y5814669D01*
X8580323Y5485942D01*
X8579510Y5482082D01*
X8577326Y5478780D01*
X8496300Y5397754D01*
X8490966Y5392064D01*
X8486089Y5386222D01*
X8481568Y5380126D01*
X8477453Y5373725D01*
X8473694Y5367121D01*
X8470392Y5360263D01*
X8467496Y5353253D01*
X8465007Y5346039D01*
X8462975Y5338724D01*
X8461349Y5331307D01*
X8460232Y5323789D01*
X8459520Y5316220D01*
X8459317Y5308447D01*
X8459317Y3403752D01*
X8459520Y3395979D01*
X8460232Y3388410D01*
X8461349Y3380892D01*
X8462975Y3373475D01*
X8465007Y3366160D01*
X8467496Y3358946D01*
X8470392Y3351936D01*
X8473694Y3345078D01*
X8477453Y3338474D01*
X8481568Y3332073D01*
X8486089Y3325977D01*
X8490966Y3320135D01*
X8496300Y3314446D01*
X8566454Y3244240D01*
X8568486Y3241446D01*
X8569401Y3238093D01*
X8570163Y3230118D01*
X8572093Y3224733D01*
X8574278Y3219551D01*
X8573922Y3215233D01*
X8571839Y3211474D01*
X8568436Y3208934D01*
X8564219Y3208020D01*
X6479997Y3208020D01*
X6476136Y3208782D01*
X6472834Y3210966D01*
X5961786Y3722014D01*
X5954115Y3728516D01*
X5945835Y3733444D01*
X5936843Y3736949D01*
X5927344Y3738930D01*
X5919876Y3739387D01*
X5059070Y3739387D01*
X5054701Y3740404D01*
X5051196Y3743147D01*
X5048453Y3746449D01*
X5038902Y3755390D01*
X5028234Y3762959D01*
X5016601Y3768953D01*
X5004257Y3773373D01*
X4991455Y3776014D01*
X4978400Y3776929D01*
X4965344Y3776014D01*
X4952542Y3773373D01*
X4940198Y3768953D01*
X4928565Y3762959D01*
X4917897Y3755390D01*
X4908346Y3746449D01*
X4900066Y3736340D01*
X4893259Y3725113D01*
X4888077Y3713124D01*
X4884521Y3700526D01*
X4882743Y3687572D01*
X4882743Y3674465D01*
X4884521Y3661511D01*
X4888077Y3648913D01*
X4893259Y3636924D01*
X4900066Y3625748D01*
X4908346Y3615588D01*
X4917897Y3606647D01*
X4928565Y3599078D01*
X4940198Y3593084D01*
X4952542Y3588715D01*
X4965344Y3586022D01*
X4978400Y3585159D01*
X4991455Y3586022D01*
X5004257Y3588715D01*
X5016601Y3593084D01*
X5028234Y3599078D01*
X5038902Y3606647D01*
X5048453Y3615588D01*
X5051145Y3618839D01*
X5054650Y3621582D01*
X5059019Y3622598D01*
X5891784Y3622598D01*
X5895695Y3621786D01*
X5898997Y3619601D01*
X6409994Y3108604D01*
X6414820Y3104540D01*
X6417360Y3101289D01*
X6418376Y3097326D01*
X6417767Y3093262D01*
X6415633Y3089808D01*
X6412280Y3087420D01*
X6408267Y3086608D01*
G37*

%LPC*%
G36*
X11531600Y3310432D02*
G01*
X11545417Y3311296D01*
X11558981Y3314039D01*
X11572138Y3318459D01*
X11584533Y3324606D01*
X11596065Y3332276D01*
X11606479Y3341420D01*
X11615623Y3351834D01*
X11623294Y3363366D01*
X11629440Y3375761D01*
X11633860Y3388918D01*
X11636603Y3402482D01*
X11637467Y3416300D01*
X11636603Y3430117D01*
X11633860Y3443681D01*
X11629440Y3456838D01*
X11623294Y3469233D01*
X11615623Y3480765D01*
X11606479Y3491179D01*
X11596065Y3500323D01*
X11584533Y3507994D01*
X11572138Y3514140D01*
X11558981Y3518560D01*
X11545417Y3521303D01*
X11531600Y3522167D01*
X11517782Y3521303D01*
X11504218Y3518560D01*
X11491061Y3514140D01*
X11478666Y3507994D01*
X11467134Y3500323D01*
X11456720Y3491179D01*
X11447576Y3480765D01*
X11439906Y3469233D01*
X11433759Y3456838D01*
X11429339Y3443681D01*
X11426596Y3430117D01*
X11425732Y3416300D01*
X11426596Y3402482D01*
X11429339Y3388918D01*
X11433759Y3375761D01*
X11439906Y3363366D01*
X11447576Y3351834D01*
X11456720Y3341420D01*
X11467134Y3332276D01*
X11478666Y3324606D01*
X11491061Y3318459D01*
X11504218Y3314039D01*
X11517782Y3311296D01*
G37*
G36*
X3937000Y3585159D02*
G01*
X3950055Y3586022D01*
X3962857Y3588715D01*
X3975201Y3593084D01*
X3986834Y3599078D01*
X3997502Y3606647D01*
X4007053Y3615588D01*
X4015333Y3625748D01*
X4022140Y3636924D01*
X4027373Y3648913D01*
X4030878Y3661511D01*
X4032656Y3674465D01*
X4032656Y3687572D01*
X4030878Y3700526D01*
X4027373Y3713124D01*
X4022140Y3725113D01*
X4015333Y3736340D01*
X4007053Y3746449D01*
X3997502Y3755390D01*
X3986834Y3762959D01*
X3975201Y3768953D01*
X3962857Y3773373D01*
X3950055Y3776014D01*
X3937000Y3776929D01*
X3923944Y3776014D01*
X3911142Y3773373D01*
X3898798Y3768953D01*
X3887165Y3762959D01*
X3876497Y3755390D01*
X3866946Y3746449D01*
X3858666Y3736340D01*
X3851859Y3725113D01*
X3846677Y3713124D01*
X3843121Y3700526D01*
X3841343Y3687572D01*
X3841343Y3674465D01*
X3843121Y3661511D01*
X3846677Y3648913D01*
X3851859Y3636924D01*
X3858666Y3625748D01*
X3866946Y3615588D01*
X3876497Y3606647D01*
X3887165Y3599078D01*
X3898798Y3593084D01*
X3911142Y3588715D01*
X3923944Y3586022D01*
G37*
G36*
X6807200Y3856532D02*
G01*
X6821017Y3857396D01*
X6834581Y3860139D01*
X6847738Y3864559D01*
X6860133Y3870706D01*
X6871665Y3878376D01*
X6882079Y3887520D01*
X6891223Y3897934D01*
X6898894Y3909466D01*
X6905040Y3921861D01*
X6909460Y3935018D01*
X6912203Y3948582D01*
X6913067Y3962400D01*
X6912203Y3976217D01*
X6909460Y3989781D01*
X6905040Y4002938D01*
X6898894Y4015333D01*
X6891223Y4026865D01*
X6882079Y4037279D01*
X6871665Y4046423D01*
X6860133Y4054094D01*
X6847738Y4060240D01*
X6834581Y4064660D01*
X6821017Y4067403D01*
X6807200Y4068267D01*
X6793382Y4067403D01*
X6779818Y4064660D01*
X6766661Y4060240D01*
X6754266Y4054094D01*
X6742734Y4046423D01*
X6732320Y4037279D01*
X6723176Y4026865D01*
X6715506Y4015333D01*
X6709359Y4002938D01*
X6704939Y3989781D01*
X6702196Y3976217D01*
X6701332Y3962400D01*
X6702196Y3948582D01*
X6704939Y3935018D01*
X6709359Y3921861D01*
X6715506Y3909466D01*
X6723176Y3897934D01*
X6732320Y3887520D01*
X6742734Y3878376D01*
X6754266Y3870706D01*
X6766661Y3864559D01*
X6779818Y3860139D01*
X6793382Y3857396D01*
G37*
G36*
X7962900Y3983532D02*
G01*
X7976717Y3984396D01*
X7990281Y3987139D01*
X8003438Y3991559D01*
X8015833Y3997706D01*
X8027365Y4005376D01*
X8037779Y4014520D01*
X8046923Y4024934D01*
X8054594Y4036466D01*
X8060740Y4048861D01*
X8065160Y4062018D01*
X8067903Y4075582D01*
X8068767Y4089400D01*
X8067903Y4103217D01*
X8065160Y4116781D01*
X8060740Y4129938D01*
X8054594Y4142333D01*
X8046923Y4153865D01*
X8037779Y4164279D01*
X8027365Y4173423D01*
X8015833Y4181094D01*
X8003438Y4187240D01*
X7990281Y4191660D01*
X7976717Y4194403D01*
X7962900Y4195267D01*
X7949082Y4194403D01*
X7935518Y4191660D01*
X7922361Y4187240D01*
X7909966Y4181094D01*
X7898434Y4173423D01*
X7888020Y4164279D01*
X7878876Y4153865D01*
X7871206Y4142333D01*
X7865059Y4129938D01*
X7860639Y4116781D01*
X7857896Y4103217D01*
X7857032Y4089400D01*
X7857896Y4075582D01*
X7860639Y4062018D01*
X7865059Y4048861D01*
X7871206Y4036466D01*
X7878876Y4024934D01*
X7888020Y4014520D01*
X7898434Y4005376D01*
X7909966Y3997706D01*
X7922361Y3991559D01*
X7935518Y3987139D01*
X7949082Y3984396D01*
G37*
G36*
X10134600Y4090517D02*
G01*
X10149789Y4091432D01*
X10164724Y4094175D01*
X10179253Y4098696D01*
X10193121Y4104944D01*
X10206126Y4112818D01*
X10218064Y4122165D01*
X10228834Y4132935D01*
X10238181Y4144873D01*
X10246055Y4157878D01*
X10252303Y4171746D01*
X10256824Y4186275D01*
X10259568Y4201210D01*
X10260533Y4216704D01*
X10260533Y4629962D01*
X10261295Y4633823D01*
X10263479Y4637125D01*
X10579100Y4952746D01*
X10584434Y4958435D01*
X10589310Y4964277D01*
X10593832Y4970373D01*
X10597946Y4976774D01*
X10601706Y4983378D01*
X10605008Y4990236D01*
X10607903Y4997246D01*
X10610392Y5004460D01*
X10612424Y5011775D01*
X10614050Y5019192D01*
X10615168Y5026710D01*
X10615879Y5034280D01*
X10616133Y5042052D01*
X10616133Y5283047D01*
X10615879Y5290820D01*
X10615168Y5298389D01*
X10614050Y5305907D01*
X10612424Y5313324D01*
X10610392Y5320639D01*
X10607903Y5327853D01*
X10605008Y5334863D01*
X10601706Y5341721D01*
X10597946Y5348325D01*
X10593832Y5354726D01*
X10589310Y5360822D01*
X10584434Y5366664D01*
X10579100Y5372354D01*
X10045954Y5905500D01*
X10040264Y5910834D01*
X10034422Y5915710D01*
X10028326Y5920232D01*
X10021925Y5924346D01*
X10015321Y5928106D01*
X10008463Y5931408D01*
X10001453Y5934303D01*
X9994239Y5936792D01*
X9986924Y5938824D01*
X9979507Y5940450D01*
X9971989Y5941568D01*
X9964420Y5942279D01*
X9956800Y5942482D01*
X9949180Y5942279D01*
X9941610Y5941568D01*
X9934092Y5940450D01*
X9926675Y5938824D01*
X9919360Y5936792D01*
X9912146Y5934303D01*
X9905136Y5931408D01*
X9898278Y5928106D01*
X9891674Y5924346D01*
X9885273Y5920232D01*
X9879177Y5915710D01*
X9873335Y5910834D01*
X9867798Y5905601D01*
X9862566Y5900064D01*
X9857689Y5894222D01*
X9853168Y5888126D01*
X9849053Y5881725D01*
X9845294Y5875121D01*
X9841992Y5868263D01*
X9839096Y5861253D01*
X9836607Y5854039D01*
X9834575Y5846724D01*
X9832949Y5839307D01*
X9831832Y5831789D01*
X9831120Y5824220D01*
X9830917Y5816600D01*
X9831120Y5808980D01*
X9831832Y5801410D01*
X9832949Y5793892D01*
X9834575Y5786475D01*
X9836607Y5779160D01*
X9839096Y5771946D01*
X9841992Y5764936D01*
X9845294Y5758078D01*
X9849053Y5751474D01*
X9853168Y5745073D01*
X9857689Y5738977D01*
X9862566Y5733135D01*
X9867900Y5727446D01*
X10361320Y5234025D01*
X10363504Y5230723D01*
X10364317Y5226862D01*
X10364317Y5098237D01*
X10363504Y5094376D01*
X10361320Y5091074D01*
X10045700Y4775454D01*
X10040366Y4769764D01*
X10035489Y4763922D01*
X10030968Y4757826D01*
X10026853Y4751425D01*
X10023094Y4744821D01*
X10019792Y4737963D01*
X10016896Y4730953D01*
X10014407Y4723739D01*
X10012375Y4716424D01*
X10010749Y4709007D01*
X10009632Y4701489D01*
X10008920Y4693920D01*
X10008717Y4686147D01*
X10008717Y4216704D01*
X10009632Y4201210D01*
X10012375Y4186275D01*
X10016896Y4171746D01*
X10023144Y4157878D01*
X10031018Y4144873D01*
X10040366Y4132935D01*
X10051135Y4122165D01*
X10063073Y4112818D01*
X10076078Y4104944D01*
X10089946Y4098696D01*
X10104475Y4094175D01*
X10119410Y4091432D01*
G37*
G36*
X5880100Y4364532D02*
G01*
X5893917Y4365396D01*
X5907481Y4368139D01*
X5920638Y4372559D01*
X5933033Y4378706D01*
X5944565Y4386376D01*
X5954979Y4395520D01*
X5964123Y4405934D01*
X5971794Y4417466D01*
X5977940Y4429861D01*
X5982360Y4443018D01*
X5985103Y4456582D01*
X5985967Y4470400D01*
X5985103Y4484217D01*
X5982360Y4497781D01*
X5977940Y4510938D01*
X5971794Y4523333D01*
X5964123Y4534865D01*
X5954979Y4545279D01*
X5944565Y4554423D01*
X5933033Y4562094D01*
X5920638Y4568240D01*
X5907481Y4572660D01*
X5893917Y4575403D01*
X5880100Y4576267D01*
X5866282Y4575403D01*
X5852718Y4572660D01*
X5839561Y4568240D01*
X5827166Y4562094D01*
X5815634Y4554423D01*
X5805220Y4545279D01*
X5796076Y4534865D01*
X5788406Y4523333D01*
X5782259Y4510938D01*
X5777839Y4497781D01*
X5775096Y4484217D01*
X5774232Y4470400D01*
X5775096Y4456582D01*
X5777839Y4443018D01*
X5782259Y4429861D01*
X5788406Y4417466D01*
X5796076Y4405934D01*
X5805220Y4395520D01*
X5815634Y4386376D01*
X5827166Y4378706D01*
X5839561Y4372559D01*
X5852718Y4368139D01*
X5866282Y4365396D01*
G37*
G36*
X12179300Y4504232D02*
G01*
X12193117Y4505096D01*
X12206681Y4507839D01*
X12219838Y4512259D01*
X12232233Y4518406D01*
X12243765Y4526076D01*
X12254179Y4535220D01*
X12263323Y4545634D01*
X12270994Y4557166D01*
X12277140Y4569561D01*
X12281560Y4582718D01*
X12284303Y4596282D01*
X12285167Y4610100D01*
X12284303Y4623917D01*
X12281560Y4637481D01*
X12277140Y4650638D01*
X12270994Y4663033D01*
X12263323Y4674565D01*
X12254179Y4684979D01*
X12243765Y4694123D01*
X12232233Y4701794D01*
X12219838Y4707940D01*
X12206681Y4712360D01*
X12193117Y4715103D01*
X12179300Y4715967D01*
X12165482Y4715103D01*
X12151918Y4712360D01*
X12138761Y4707940D01*
X12126366Y4701794D01*
X12114834Y4694123D01*
X12104420Y4684979D01*
X12095276Y4674565D01*
X12087606Y4663033D01*
X12081459Y4650638D01*
X12077039Y4637481D01*
X12074296Y4623917D01*
X12073432Y4610100D01*
X12074296Y4596282D01*
X12077039Y4582718D01*
X12081459Y4569561D01*
X12087606Y4557166D01*
X12095276Y4545634D01*
X12104420Y4535220D01*
X12114834Y4526076D01*
X12126366Y4518406D01*
X12138761Y4512259D01*
X12151918Y4507839D01*
X12165482Y4505096D01*
G37*
G36*
X4978400Y4605070D02*
G01*
X4991455Y4605985D01*
X5004257Y4608626D01*
X5016601Y4613046D01*
X5028234Y4619040D01*
X5038902Y4626610D01*
X5048453Y4635550D01*
X5056733Y4645660D01*
X5063540Y4656886D01*
X5068773Y4668875D01*
X5072278Y4681474D01*
X5074056Y4694428D01*
X5074056Y4707534D01*
X5072278Y4720488D01*
X5068773Y4733086D01*
X5063540Y4745075D01*
X5056733Y4756251D01*
X5048453Y4766411D01*
X5038902Y4775352D01*
X5028234Y4782921D01*
X5016601Y4788916D01*
X5004257Y4793284D01*
X4991455Y4795977D01*
X4978400Y4796840D01*
X4965344Y4795977D01*
X4952542Y4793284D01*
X4940198Y4788916D01*
X4928565Y4782921D01*
X4917897Y4775352D01*
X4908346Y4766411D01*
X4900066Y4756251D01*
X4893259Y4745075D01*
X4888077Y4733086D01*
X4884521Y4720488D01*
X4882743Y4707534D01*
X4882743Y4694428D01*
X4884521Y4681474D01*
X4888077Y4668875D01*
X4893259Y4656886D01*
X4900066Y4645660D01*
X4908346Y4635550D01*
X4917897Y4626610D01*
X4928565Y4619040D01*
X4940198Y4613046D01*
X4952542Y4608626D01*
X4965344Y4605985D01*
G37*
G36*
X3937000Y4605070D02*
G01*
X3950055Y4605985D01*
X3962857Y4608626D01*
X3975201Y4613046D01*
X3986834Y4619040D01*
X3997502Y4626610D01*
X4007053Y4635550D01*
X4015333Y4645660D01*
X4022140Y4656886D01*
X4027373Y4668875D01*
X4030878Y4681474D01*
X4032656Y4694428D01*
X4032656Y4707534D01*
X4030878Y4720488D01*
X4027373Y4733086D01*
X4022140Y4745075D01*
X4015333Y4756251D01*
X4007053Y4766411D01*
X3997502Y4775352D01*
X3986834Y4782921D01*
X3975201Y4788916D01*
X3962857Y4793284D01*
X3950055Y4795977D01*
X3937000Y4796840D01*
X3923944Y4795977D01*
X3911142Y4793284D01*
X3898798Y4788916D01*
X3887165Y4782921D01*
X3876497Y4775352D01*
X3866946Y4766411D01*
X3858666Y4756251D01*
X3851859Y4745075D01*
X3846677Y4733086D01*
X3843121Y4720488D01*
X3841343Y4707534D01*
X3841343Y4694428D01*
X3843121Y4681474D01*
X3846677Y4668875D01*
X3851859Y4656886D01*
X3858666Y4645660D01*
X3866946Y4635550D01*
X3876497Y4626610D01*
X3887165Y4619040D01*
X3898798Y4613046D01*
X3911142Y4608626D01*
X3923944Y4605985D01*
G37*
G36*
X11434978Y5318658D02*
G01*
X11454841Y5320080D01*
X11474450Y5323433D01*
X11493601Y5328666D01*
X11512245Y5335727D01*
X11530076Y5344566D01*
X11546941Y5355031D01*
X11562791Y5367121D01*
X11577320Y5380685D01*
X11590528Y5395569D01*
X11602212Y5411673D01*
X11612321Y5428792D01*
X11620703Y5446877D01*
X11627307Y5465622D01*
X11632082Y5484926D01*
X11634927Y5504637D01*
X11635892Y5524500D01*
X11634927Y5544362D01*
X11632082Y5564073D01*
X11627307Y5583377D01*
X11620703Y5602122D01*
X11612321Y5620207D01*
X11602212Y5637326D01*
X11590528Y5653430D01*
X11577320Y5668314D01*
X11562791Y5681878D01*
X11546941Y5693968D01*
X11530076Y5704433D01*
X11512245Y5713272D01*
X11493601Y5720334D01*
X11474450Y5725566D01*
X11454841Y5728919D01*
X11434978Y5730341D01*
X11415064Y5729833D01*
X11395354Y5727446D01*
X11375898Y5723178D01*
X11357000Y5717032D01*
X11338763Y5709056D01*
X11321338Y5699404D01*
X11304981Y5688076D01*
X11289792Y5675274D01*
X11275872Y5661050D01*
X11263426Y5645505D01*
X11252504Y5628894D01*
X11243259Y5611266D01*
X11235791Y5592826D01*
X11230102Y5573776D01*
X11226241Y5554268D01*
X11224361Y5534456D01*
X11224361Y5514543D01*
X11226241Y5494731D01*
X11230102Y5475224D01*
X11235791Y5456174D01*
X11243259Y5437733D01*
X11252504Y5420106D01*
X11263426Y5403494D01*
X11275872Y5387949D01*
X11289792Y5373725D01*
X11304981Y5360924D01*
X11321338Y5349595D01*
X11338763Y5339943D01*
X11357000Y5331968D01*
X11375898Y5325821D01*
X11395354Y5321554D01*
X11415064Y5319166D01*
G37*
G36*
X3281578Y5331358D02*
G01*
X3301441Y5332780D01*
X3321050Y5336133D01*
X3340201Y5341366D01*
X3358845Y5348427D01*
X3376676Y5357266D01*
X3393541Y5367731D01*
X3409391Y5379821D01*
X3423920Y5393385D01*
X3437128Y5408269D01*
X3448812Y5424373D01*
X3458921Y5441492D01*
X3467303Y5459577D01*
X3473907Y5478322D01*
X3478682Y5497626D01*
X3481527Y5517337D01*
X3482492Y5537200D01*
X3481527Y5557062D01*
X3478682Y5576773D01*
X3473907Y5596077D01*
X3467303Y5614822D01*
X3458921Y5632907D01*
X3448812Y5650026D01*
X3437128Y5666130D01*
X3423920Y5681014D01*
X3409391Y5694578D01*
X3393541Y5706668D01*
X3376676Y5717133D01*
X3358845Y5725972D01*
X3340201Y5733034D01*
X3321050Y5738266D01*
X3301441Y5741619D01*
X3281578Y5743041D01*
X3261664Y5742533D01*
X3241954Y5740146D01*
X3222498Y5735878D01*
X3203600Y5729732D01*
X3185363Y5721756D01*
X3167938Y5712104D01*
X3151581Y5700776D01*
X3136392Y5687974D01*
X3122472Y5673750D01*
X3110026Y5658205D01*
X3099104Y5641594D01*
X3089859Y5623966D01*
X3082391Y5605526D01*
X3076702Y5586476D01*
X3072841Y5566968D01*
X3070961Y5547156D01*
X3070961Y5527243D01*
X3072841Y5507431D01*
X3076702Y5487924D01*
X3082391Y5468874D01*
X3089859Y5450433D01*
X3099104Y5432806D01*
X3110026Y5416194D01*
X3122472Y5400649D01*
X3136392Y5386425D01*
X3151581Y5373624D01*
X3167938Y5362295D01*
X3185363Y5352643D01*
X3203600Y5344668D01*
X3222498Y5338521D01*
X3241954Y5334254D01*
X3261664Y5331866D01*
G37*
G36*
X5365750Y5342382D02*
G01*
X5454650Y5342382D01*
X5460949Y5343093D01*
X5466435Y5345023D01*
X5471312Y5348071D01*
X5475427Y5352186D01*
X5478475Y5357063D01*
X5480405Y5362549D01*
X5481116Y5368848D01*
X5481116Y5527751D01*
X5480405Y5534050D01*
X5478475Y5539536D01*
X5475427Y5544413D01*
X5471312Y5548528D01*
X5466435Y5551576D01*
X5460949Y5553506D01*
X5454650Y5554218D01*
X5365750Y5554218D01*
X5359450Y5553506D01*
X5353964Y5551576D01*
X5349087Y5548528D01*
X5344972Y5544413D01*
X5342686Y5540705D01*
X5339638Y5537657D01*
X5335625Y5536082D01*
X5331307Y5536336D01*
X5327497Y5538419D01*
X5324856Y5540654D01*
X5315356Y5546445D01*
X5305094Y5550712D01*
X5294274Y5553303D01*
X5283200Y5554167D01*
X5272125Y5553303D01*
X5261305Y5550712D01*
X5251043Y5546445D01*
X5241544Y5540654D01*
X5233060Y5533440D01*
X5227421Y5526786D01*
X5223967Y5524144D01*
X5219700Y5523230D01*
X5215432Y5524144D01*
X5211978Y5526786D01*
X5206339Y5533440D01*
X5197856Y5540654D01*
X5188356Y5546445D01*
X5178094Y5550712D01*
X5167274Y5553303D01*
X5156200Y5554167D01*
X5145125Y5553303D01*
X5134305Y5550712D01*
X5124043Y5546445D01*
X5114544Y5540654D01*
X5106060Y5533440D01*
X5098846Y5524957D01*
X5093055Y5515457D01*
X5088788Y5505196D01*
X5086197Y5494375D01*
X5085283Y5482894D01*
X5085283Y5413705D01*
X5086197Y5402224D01*
X5088788Y5391404D01*
X5093055Y5381142D01*
X5098846Y5371642D01*
X5106060Y5363159D01*
X5114544Y5355945D01*
X5124043Y5350154D01*
X5134305Y5345887D01*
X5145125Y5343296D01*
X5156200Y5342432D01*
X5167274Y5343296D01*
X5178094Y5345887D01*
X5188356Y5350154D01*
X5197856Y5355945D01*
X5206339Y5363159D01*
X5211978Y5369814D01*
X5215432Y5372455D01*
X5219700Y5373370D01*
X5223967Y5372455D01*
X5227421Y5369814D01*
X5233060Y5363159D01*
X5241544Y5355945D01*
X5251043Y5350154D01*
X5261305Y5345887D01*
X5272125Y5343296D01*
X5283200Y5342432D01*
X5294274Y5343296D01*
X5305094Y5345887D01*
X5315356Y5350154D01*
X5324856Y5355945D01*
X5327497Y5358180D01*
X5331307Y5360263D01*
X5335625Y5360517D01*
X5339638Y5358942D01*
X5342686Y5355894D01*
X5344972Y5352186D01*
X5349087Y5348071D01*
X5353964Y5345023D01*
X5359450Y5343093D01*
G37*
G36*
X6819900Y5482132D02*
G01*
X6833717Y5482996D01*
X6847281Y5485739D01*
X6860438Y5490159D01*
X6872833Y5496306D01*
X6884365Y5503976D01*
X6894779Y5513120D01*
X6903923Y5523534D01*
X6911594Y5535066D01*
X6917740Y5547461D01*
X6922160Y5560618D01*
X6924903Y5574182D01*
X6925767Y5588000D01*
X6924903Y5601817D01*
X6922160Y5615381D01*
X6917740Y5628538D01*
X6911594Y5640933D01*
X6903923Y5652465D01*
X6894779Y5662879D01*
X6884365Y5672023D01*
X6872833Y5679694D01*
X6860438Y5685840D01*
X6847281Y5690260D01*
X6833717Y5693003D01*
X6819900Y5693867D01*
X6806082Y5693003D01*
X6792518Y5690260D01*
X6779361Y5685840D01*
X6766966Y5679694D01*
X6755434Y5672023D01*
X6745020Y5662879D01*
X6735876Y5652465D01*
X6728206Y5640933D01*
X6722059Y5628538D01*
X6717639Y5615381D01*
X6714896Y5601817D01*
X6714032Y5588000D01*
X6714896Y5574182D01*
X6717639Y5560618D01*
X6722059Y5547461D01*
X6728206Y5535066D01*
X6735876Y5523534D01*
X6745020Y5513120D01*
X6755434Y5503976D01*
X6766966Y5496306D01*
X6779361Y5490159D01*
X6792518Y5485739D01*
X6806082Y5482996D01*
G37*
G36*
X12026900Y5761532D02*
G01*
X12040717Y5762396D01*
X12054281Y5765139D01*
X12067438Y5769559D01*
X12079833Y5775706D01*
X12091365Y5783376D01*
X12101779Y5792520D01*
X12110923Y5802934D01*
X12118594Y5814466D01*
X12124740Y5826861D01*
X12129160Y5840018D01*
X12131903Y5853582D01*
X12132767Y5867400D01*
X12131903Y5881217D01*
X12129160Y5894781D01*
X12124740Y5907938D01*
X12118594Y5920333D01*
X12110923Y5931865D01*
X12101779Y5942279D01*
X12091365Y5951423D01*
X12079833Y5959094D01*
X12067438Y5965240D01*
X12054281Y5969660D01*
X12040717Y5972403D01*
X12026900Y5973267D01*
X12013082Y5972403D01*
X11999518Y5969660D01*
X11986361Y5965240D01*
X11973966Y5959094D01*
X11962434Y5951423D01*
X11952020Y5942279D01*
X11942876Y5931865D01*
X11935206Y5920333D01*
X11929059Y5907938D01*
X11924639Y5894781D01*
X11921896Y5881217D01*
X11921032Y5867400D01*
X11921896Y5853582D01*
X11924639Y5840018D01*
X11929059Y5826861D01*
X11935206Y5814466D01*
X11942876Y5802934D01*
X11952020Y5792520D01*
X11962434Y5783376D01*
X11973966Y5775706D01*
X11986361Y5769559D01*
X11999518Y5765139D01*
X12013082Y5762396D01*
G37*
G36*
X4006850Y5867247D02*
G01*
X4019550Y5867247D01*
X4032097Y5869025D01*
X4044289Y5872480D01*
X4055872Y5877661D01*
X4066641Y5884367D01*
X4076344Y5892546D01*
X4084828Y5901944D01*
X4091889Y5912459D01*
X4097477Y5923838D01*
X4101388Y5935929D01*
X4103573Y5948375D01*
X4104030Y5961075D01*
X4102709Y5973673D01*
X4099610Y5985967D01*
X4094886Y5997752D01*
X4088536Y6008725D01*
X4080764Y6018733D01*
X4071620Y6027521D01*
X4061358Y6034989D01*
X4050182Y6040932D01*
X4038244Y6045250D01*
X4024833Y6048044D01*
X4021124Y6049670D01*
X4018330Y6052566D01*
X4016857Y6056325D01*
X4017010Y6060338D01*
X4018686Y6063996D01*
X4021683Y6066739D01*
X4025493Y6068060D01*
X4032097Y6069025D01*
X4044289Y6072479D01*
X4055872Y6077661D01*
X4066641Y6084366D01*
X4076344Y6092545D01*
X4084828Y6101943D01*
X4091889Y6112459D01*
X4097477Y6123838D01*
X4101388Y6135928D01*
X4103573Y6148374D01*
X4104030Y6161074D01*
X4102709Y6173673D01*
X4099610Y6185966D01*
X4094886Y6197752D01*
X4088536Y6208725D01*
X4080764Y6218732D01*
X4071620Y6227521D01*
X4061358Y6234988D01*
X4050182Y6240932D01*
X4038244Y6245250D01*
X4025849Y6247892D01*
X4013200Y6248806D01*
X4000550Y6247892D01*
X3988155Y6245250D01*
X3976217Y6240932D01*
X3965041Y6234988D01*
X3954779Y6227521D01*
X3945636Y6218732D01*
X3937863Y6208725D01*
X3931513Y6197752D01*
X3926789Y6185966D01*
X3923690Y6173673D01*
X3922369Y6161074D01*
X3922826Y6148374D01*
X3925011Y6135928D01*
X3928922Y6123838D01*
X3934510Y6112459D01*
X3941572Y6101943D01*
X3950055Y6092545D01*
X3959758Y6084366D01*
X3970528Y6077661D01*
X3982110Y6072479D01*
X3994353Y6068974D01*
X4000652Y6068009D01*
X4004411Y6066637D01*
X4007358Y6063945D01*
X4009034Y6060287D01*
X4009136Y6056274D01*
X4007713Y6052515D01*
X4004919Y6049619D01*
X4001262Y6048044D01*
X3988155Y6045250D01*
X3976217Y6040932D01*
X3965041Y6034989D01*
X3954779Y6027521D01*
X3945636Y6018733D01*
X3937863Y6008725D01*
X3931513Y5997752D01*
X3926789Y5985967D01*
X3923690Y5973673D01*
X3922369Y5961075D01*
X3922826Y5948375D01*
X3925011Y5935929D01*
X3928922Y5923838D01*
X3934510Y5912459D01*
X3941572Y5901944D01*
X3950055Y5892546D01*
X3959758Y5884367D01*
X3970528Y5877661D01*
X3982110Y5872480D01*
X3994302Y5869025D01*
G37*
G36*
X5795518Y6371132D02*
G01*
X5809335Y6371996D01*
X5822899Y6374739D01*
X5836005Y6379159D01*
X5848451Y6385306D01*
X5859932Y6392976D01*
X5866333Y6398564D01*
X5869432Y6400444D01*
X5872988Y6401104D01*
X6400444Y6401104D01*
X6403848Y6400495D01*
X6418224Y6391859D01*
X6430213Y6386626D01*
X6442811Y6383121D01*
X6455765Y6381343D01*
X6468872Y6381343D01*
X6481826Y6383121D01*
X6494424Y6386626D01*
X6506413Y6391859D01*
X6517640Y6398666D01*
X6527749Y6406946D01*
X6536690Y6416497D01*
X6544259Y6427165D01*
X6550253Y6438798D01*
X6554673Y6451142D01*
X6557314Y6463944D01*
X6558229Y6477000D01*
X6557314Y6490055D01*
X6554673Y6502857D01*
X6550253Y6515201D01*
X6544259Y6526834D01*
X6536690Y6537502D01*
X6527749Y6547053D01*
X6517640Y6555333D01*
X6506413Y6562140D01*
X6494424Y6567322D01*
X6481826Y6570878D01*
X6468872Y6572656D01*
X6455765Y6572656D01*
X6442811Y6570878D01*
X6430213Y6567322D01*
X6418224Y6562140D01*
X6403848Y6553504D01*
X6400444Y6552895D01*
X5872988Y6552895D01*
X5869432Y6553555D01*
X5866333Y6555435D01*
X5859932Y6561023D01*
X5848451Y6568694D01*
X5836005Y6574840D01*
X5822899Y6579260D01*
X5809335Y6582003D01*
X5795518Y6582867D01*
X5781649Y6582003D01*
X5768086Y6579260D01*
X5754979Y6574840D01*
X5742533Y6568694D01*
X5731052Y6561023D01*
X5720638Y6551879D01*
X5711494Y6541465D01*
X5703773Y6529933D01*
X5697677Y6517538D01*
X5693206Y6504381D01*
X5690514Y6490817D01*
X5689600Y6477000D01*
X5690514Y6463182D01*
X5693206Y6449618D01*
X5697677Y6436461D01*
X5703773Y6424066D01*
X5711494Y6412534D01*
X5720638Y6402120D01*
X5731052Y6392976D01*
X5742533Y6385306D01*
X5754979Y6379159D01*
X5768086Y6374739D01*
X5781649Y6371996D01*
G37*
G36*
X7475728Y6381343D02*
G01*
X7488834Y6381343D01*
X7501788Y6383121D01*
X7514386Y6386626D01*
X7526375Y6391859D01*
X7537551Y6398666D01*
X7547711Y6406946D01*
X7556652Y6416497D01*
X7564221Y6427165D01*
X7570216Y6438798D01*
X7574584Y6451142D01*
X7576820Y6461810D01*
X7577836Y6464554D01*
X7579614Y6466941D01*
X7612024Y6499402D01*
X7617663Y6506260D01*
X7623708Y6515912D01*
X7624825Y6518097D01*
X7628229Y6526326D01*
X7628991Y6528663D01*
X7631125Y6537248D01*
X7631531Y6539687D01*
X7632344Y6548526D01*
X7632395Y7333538D01*
X7633157Y7337399D01*
X7635392Y7340701D01*
X7638694Y7342936D01*
X7642555Y7343698D01*
X7828635Y7343749D01*
X7837474Y7344562D01*
X7839913Y7344968D01*
X7848549Y7347102D01*
X7850886Y7347864D01*
X7859115Y7351268D01*
X7861300Y7352385D01*
X7868920Y7357008D01*
X7877759Y7364069D01*
X7967624Y7453934D01*
X7974685Y7462774D01*
X7979308Y7470394D01*
X7980425Y7472578D01*
X7983829Y7480808D01*
X7984591Y7483144D01*
X7986725Y7491780D01*
X7987131Y7494219D01*
X7987944Y7503058D01*
X7987944Y8092541D01*
X7987131Y8101380D01*
X7986725Y8103819D01*
X7984591Y8112455D01*
X7983829Y8114792D01*
X7980425Y8123021D01*
X7979308Y8125206D01*
X7974685Y8132825D01*
X7967624Y8141665D01*
X7904937Y8204403D01*
X7902854Y8207400D01*
X7901990Y8210905D01*
X7901533Y8217865D01*
X7898841Y8231276D01*
X7894472Y8244230D01*
X7888427Y8256524D01*
X7880807Y8267903D01*
X7871764Y8278164D01*
X7861096Y8287461D01*
X7858099Y8290559D01*
X7856626Y8294624D01*
X7856981Y8298891D01*
X7859064Y8302650D01*
X7862519Y8305190D01*
X7866735Y8306104D01*
X8600541Y8306155D01*
X8609380Y8306968D01*
X8611819Y8307374D01*
X8620455Y8309508D01*
X8622792Y8310270D01*
X8631021Y8313674D01*
X8633206Y8314791D01*
X8640826Y8319414D01*
X8649665Y8326475D01*
X8967012Y8643823D01*
X8974074Y8652662D01*
X8978696Y8660282D01*
X8979814Y8662466D01*
X8983218Y8670696D01*
X8983980Y8673033D01*
X8986113Y8681669D01*
X8986520Y8684107D01*
X8987332Y8692946D01*
X8987383Y8800134D01*
X8988145Y8804046D01*
X8990380Y8807297D01*
X8993682Y8809532D01*
X9001963Y8812936D01*
X9016746Y8821115D01*
X9030563Y8830919D01*
X9043162Y8842197D01*
X9054439Y8854846D01*
X9064244Y8868613D01*
X9072422Y8883446D01*
X9078925Y8899042D01*
X9083598Y8915349D01*
X9086443Y8932011D01*
X9087358Y8948877D01*
X9086443Y8965793D01*
X9083598Y8982456D01*
X9078925Y8998762D01*
X9072422Y9014358D01*
X9064244Y9029192D01*
X9054439Y9042958D01*
X9043162Y9055608D01*
X9030563Y9066885D01*
X9016746Y9076690D01*
X9001963Y9084868D01*
X8986316Y9091320D01*
X8970060Y9095994D01*
X8953398Y9098838D01*
X8936228Y9099804D01*
X8886748Y9099804D01*
X8869578Y9098838D01*
X8852916Y9095994D01*
X8836660Y9091320D01*
X8821013Y9084868D01*
X8806230Y9076690D01*
X8792413Y9066885D01*
X8779814Y9055608D01*
X8768537Y9042958D01*
X8758732Y9029192D01*
X8750554Y9014358D01*
X8744051Y8998762D01*
X8739378Y8982456D01*
X8736533Y8965793D01*
X8735618Y8948877D01*
X8736533Y8932011D01*
X8739378Y8915349D01*
X8744051Y8899042D01*
X8750554Y8883446D01*
X8758732Y8868613D01*
X8768537Y8854846D01*
X8779814Y8842197D01*
X8792413Y8830919D01*
X8806230Y8821115D01*
X8821013Y8812936D01*
X8829294Y8809532D01*
X8832596Y8807297D01*
X8834831Y8804046D01*
X8835593Y8800134D01*
X8835593Y8731250D01*
X8834831Y8727338D01*
X8832596Y8724036D01*
X8569452Y8460892D01*
X8566150Y8458657D01*
X8562238Y8457895D01*
X6891426Y8457844D01*
X6882587Y8457031D01*
X6880148Y8456625D01*
X6871563Y8454491D01*
X6869226Y8453729D01*
X6860997Y8450326D01*
X6858812Y8449208D01*
X6849160Y8443163D01*
X6842302Y8437524D01*
X6632041Y8227314D01*
X6629653Y8225536D01*
X6626910Y8224520D01*
X6616242Y8222284D01*
X6603898Y8217916D01*
X6592265Y8211921D01*
X6581597Y8204352D01*
X6572046Y8195411D01*
X6563766Y8185251D01*
X6556959Y8174075D01*
X6551777Y8162086D01*
X6548221Y8149488D01*
X6546443Y8136534D01*
X6546443Y8123428D01*
X6548221Y8110474D01*
X6551777Y8097875D01*
X6556959Y8085886D01*
X6563766Y8074659D01*
X6572046Y8064550D01*
X6581597Y8055609D01*
X6592265Y8048040D01*
X6603898Y8042046D01*
X6616242Y8037626D01*
X6629044Y8034985D01*
X6642100Y8034070D01*
X6655155Y8034985D01*
X6667957Y8037626D01*
X6680301Y8042046D01*
X6691934Y8048040D01*
X6702602Y8055609D01*
X6712153Y8064550D01*
X6720433Y8074659D01*
X6727240Y8085886D01*
X6732473Y8097875D01*
X6735978Y8110474D01*
X6736486Y8114131D01*
X6737451Y8117230D01*
X6739381Y8119922D01*
X6922566Y8303107D01*
X6925868Y8305342D01*
X6929729Y8306104D01*
X7431633Y8306104D01*
X7435392Y8305342D01*
X7438644Y8303259D01*
X7440879Y8300110D01*
X7441793Y8296402D01*
X7441234Y8292592D01*
X7439863Y8288680D01*
X7439152Y8282381D01*
X7439152Y8126018D01*
X7439863Y8119719D01*
X7441793Y8114233D01*
X7444841Y8109356D01*
X7448956Y8105241D01*
X7453833Y8102193D01*
X7459319Y8100263D01*
X7465618Y8099552D01*
X7621981Y8099552D01*
X7628280Y8100263D01*
X7633766Y8102193D01*
X7638643Y8105241D01*
X7642758Y8109356D01*
X7645806Y8114233D01*
X7647736Y8119719D01*
X7648448Y8126018D01*
X7648448Y8282381D01*
X7647736Y8288680D01*
X7646365Y8292592D01*
X7645806Y8296402D01*
X7646720Y8300110D01*
X7648956Y8303259D01*
X7652207Y8305342D01*
X7655966Y8306104D01*
X7728864Y8306104D01*
X7733080Y8305190D01*
X7736535Y8302650D01*
X7738618Y8298891D01*
X7738973Y8294624D01*
X7737500Y8290559D01*
X7734096Y8287207D01*
X7723835Y8278164D01*
X7714792Y8267903D01*
X7707172Y8256524D01*
X7701127Y8244230D01*
X7696758Y8231276D01*
X7694066Y8217865D01*
X7693152Y8204200D01*
X7694066Y8190534D01*
X7696758Y8177123D01*
X7701127Y8164169D01*
X7707172Y8151875D01*
X7714792Y8140496D01*
X7723835Y8130235D01*
X7734096Y8121192D01*
X7745475Y8113572D01*
X7757769Y8107527D01*
X7770723Y8103158D01*
X7784134Y8100466D01*
X7791094Y8100009D01*
X7794599Y8099145D01*
X7797596Y8097062D01*
X7833207Y8061452D01*
X7835442Y8058150D01*
X7836204Y8054238D01*
X7836204Y7541361D01*
X7835442Y7537450D01*
X7833207Y7534148D01*
X7797546Y7498486D01*
X7794244Y7496251D01*
X7790332Y7495489D01*
X7634020Y7495489D01*
X7630414Y7496149D01*
X7627315Y7498029D01*
X7620965Y7503617D01*
X7609433Y7511288D01*
X7597038Y7517434D01*
X7583881Y7521854D01*
X7570317Y7524597D01*
X7556500Y7525461D01*
X7542682Y7524597D01*
X7529118Y7521854D01*
X7515961Y7517434D01*
X7503566Y7511288D01*
X7492034Y7503617D01*
X7481620Y7494473D01*
X7472476Y7484059D01*
X7464806Y7472527D01*
X7458659Y7460132D01*
X7454239Y7446975D01*
X7451496Y7433411D01*
X7450632Y7419594D01*
X7451496Y7405776D01*
X7454239Y7392212D01*
X7458659Y7379055D01*
X7464806Y7366660D01*
X7472476Y7355128D01*
X7478064Y7348778D01*
X7479944Y7345680D01*
X7480604Y7342073D01*
X7480604Y6586829D01*
X7479842Y6582968D01*
X7477607Y6579666D01*
X7472222Y6574281D01*
X7469530Y6572351D01*
X7466431Y6571386D01*
X7462774Y6570878D01*
X7450175Y6567322D01*
X7438186Y6562140D01*
X7426959Y6555333D01*
X7416850Y6547053D01*
X7407909Y6537502D01*
X7400340Y6526834D01*
X7394346Y6515201D01*
X7389926Y6502857D01*
X7387285Y6490055D01*
X7386370Y6477000D01*
X7387285Y6463944D01*
X7389926Y6451142D01*
X7394346Y6438798D01*
X7400340Y6427165D01*
X7407909Y6416497D01*
X7416850Y6406946D01*
X7426959Y6398666D01*
X7438186Y6391859D01*
X7450175Y6386626D01*
X7462774Y6383121D01*
G37*
G36*
X12230100Y6679793D02*
G01*
X12246457Y6680708D01*
X12262561Y6683451D01*
X12278309Y6687972D01*
X12293396Y6694271D01*
X12307722Y6702145D01*
X12321082Y6711645D01*
X12333274Y6722516D01*
X12344146Y6734759D01*
X12353645Y6748068D01*
X12361519Y6762394D01*
X12367818Y6777532D01*
X12372340Y6793230D01*
X12375083Y6809384D01*
X12375997Y6825691D01*
X12375083Y6842048D01*
X12372340Y6858152D01*
X12367818Y6873900D01*
X12361519Y6888988D01*
X12353645Y6903313D01*
X12344146Y6916674D01*
X12333274Y6928866D01*
X12321082Y6939737D01*
X12307722Y6949236D01*
X12293396Y6957161D01*
X12278309Y6963409D01*
X12262561Y6967931D01*
X12246457Y6970674D01*
X12230100Y6971588D01*
X12213742Y6970674D01*
X12197638Y6967931D01*
X12181890Y6963409D01*
X12166803Y6957161D01*
X12152477Y6949236D01*
X12139117Y6939737D01*
X12126925Y6928866D01*
X12116054Y6916674D01*
X12106554Y6903313D01*
X12098680Y6888988D01*
X12092381Y6873900D01*
X12087860Y6858152D01*
X12085116Y6842048D01*
X12084202Y6825691D01*
X12085116Y6809384D01*
X12087860Y6793230D01*
X12092381Y6777532D01*
X12098680Y6762394D01*
X12106554Y6748068D01*
X12116054Y6734759D01*
X12126925Y6722516D01*
X12139117Y6711645D01*
X12152477Y6702145D01*
X12166803Y6694271D01*
X12181890Y6687972D01*
X12197638Y6683451D01*
X12213742Y6680708D01*
G37*
G36*
X11430000Y6908292D02*
G01*
X11445392Y6909257D01*
X11460530Y6912000D01*
X11475212Y6916572D01*
X11489232Y6922922D01*
X11502440Y6930898D01*
X11514531Y6940397D01*
X11525402Y6951268D01*
X11534902Y6963359D01*
X11542877Y6976567D01*
X11549227Y6990588D01*
X11553799Y7005269D01*
X11556542Y7020407D01*
X11557508Y7035800D01*
X11556542Y7051192D01*
X11553799Y7066330D01*
X11549227Y7081012D01*
X11542877Y7095032D01*
X11534902Y7108240D01*
X11525402Y7120331D01*
X11514531Y7131202D01*
X11502440Y7140702D01*
X11489232Y7148677D01*
X11475212Y7155027D01*
X11460530Y7159599D01*
X11445392Y7162342D01*
X11430000Y7163308D01*
X11414607Y7162342D01*
X11399469Y7159599D01*
X11384788Y7155027D01*
X11370767Y7148677D01*
X11357559Y7140702D01*
X11345468Y7131202D01*
X11334597Y7120331D01*
X11325098Y7108240D01*
X11317122Y7095032D01*
X11310772Y7081012D01*
X11306200Y7066330D01*
X11303457Y7051192D01*
X11302492Y7035800D01*
X11303457Y7020407D01*
X11306200Y7005269D01*
X11310772Y6990588D01*
X11317122Y6976567D01*
X11325098Y6963359D01*
X11334597Y6951268D01*
X11345468Y6940397D01*
X11357559Y6930898D01*
X11370767Y6922922D01*
X11384788Y6916572D01*
X11399469Y6912000D01*
X11414607Y6909257D01*
G37*
G36*
X3822700Y7001459D02*
G01*
X3835755Y7002322D01*
X3848557Y7005015D01*
X3860901Y7009384D01*
X3872534Y7015378D01*
X3883202Y7022947D01*
X3892753Y7031888D01*
X3901033Y7042048D01*
X3907840Y7053224D01*
X3913073Y7065213D01*
X3916578Y7077811D01*
X3918356Y7090765D01*
X3918356Y7103872D01*
X3916578Y7116825D01*
X3913073Y7129424D01*
X3907840Y7141413D01*
X3901033Y7152640D01*
X3892753Y7162749D01*
X3883202Y7171690D01*
X3872534Y7179259D01*
X3860901Y7185253D01*
X3848557Y7189673D01*
X3835755Y7192314D01*
X3822700Y7193229D01*
X3809644Y7192314D01*
X3796842Y7189673D01*
X3784498Y7185253D01*
X3772865Y7179259D01*
X3762197Y7171690D01*
X3752646Y7162749D01*
X3744366Y7152640D01*
X3737559Y7141413D01*
X3732377Y7129424D01*
X3728821Y7116825D01*
X3727043Y7103872D01*
X3727043Y7090765D01*
X3728821Y7077811D01*
X3732377Y7065213D01*
X3737559Y7053224D01*
X3744366Y7042048D01*
X3752646Y7031888D01*
X3762197Y7022947D01*
X3772865Y7015378D01*
X3784498Y7009384D01*
X3796842Y7005015D01*
X3809644Y7002322D01*
G37*
G36*
X5753100Y7014159D02*
G01*
X5766155Y7015022D01*
X5778957Y7017715D01*
X5791301Y7022084D01*
X5802934Y7028078D01*
X5813602Y7035647D01*
X5823153Y7044588D01*
X5831433Y7054748D01*
X5838240Y7065924D01*
X5843473Y7077913D01*
X5846978Y7090511D01*
X5848756Y7103465D01*
X5848756Y7116572D01*
X5846978Y7129525D01*
X5843473Y7142124D01*
X5838240Y7154113D01*
X5831433Y7165340D01*
X5823153Y7175449D01*
X5813602Y7184390D01*
X5802934Y7191959D01*
X5791301Y7197953D01*
X5778957Y7202373D01*
X5766155Y7205014D01*
X5753100Y7205929D01*
X5740044Y7205014D01*
X5727242Y7202373D01*
X5714898Y7197953D01*
X5703265Y7191959D01*
X5692597Y7184390D01*
X5683046Y7175449D01*
X5674766Y7165340D01*
X5667959Y7154113D01*
X5662777Y7142124D01*
X5659221Y7129525D01*
X5657443Y7116572D01*
X5657443Y7103465D01*
X5659221Y7090511D01*
X5662777Y7077913D01*
X5667959Y7065924D01*
X5674766Y7054748D01*
X5683046Y7044588D01*
X5692597Y7035647D01*
X5703265Y7028078D01*
X5714898Y7022084D01*
X5727242Y7017715D01*
X5740044Y7015022D01*
G37*
G36*
X4813300Y7014159D02*
G01*
X4826355Y7015022D01*
X4839157Y7017715D01*
X4851501Y7022084D01*
X4863134Y7028078D01*
X4873802Y7035647D01*
X4883353Y7044588D01*
X4891633Y7054748D01*
X4898440Y7065924D01*
X4903673Y7077913D01*
X4907178Y7090511D01*
X4908956Y7103465D01*
X4908956Y7116572D01*
X4907178Y7129525D01*
X4903673Y7142124D01*
X4898440Y7154113D01*
X4891633Y7165340D01*
X4883353Y7175449D01*
X4873802Y7184390D01*
X4863134Y7191959D01*
X4851501Y7197953D01*
X4839157Y7202373D01*
X4826355Y7205014D01*
X4813300Y7205929D01*
X4800244Y7205014D01*
X4787442Y7202373D01*
X4775098Y7197953D01*
X4763465Y7191959D01*
X4752797Y7184390D01*
X4743246Y7175449D01*
X4734966Y7165340D01*
X4728159Y7154113D01*
X4722977Y7142124D01*
X4719421Y7129525D01*
X4717643Y7116572D01*
X4717643Y7103465D01*
X4719421Y7090511D01*
X4722977Y7077913D01*
X4728159Y7065924D01*
X4734966Y7054748D01*
X4743246Y7044588D01*
X4752797Y7035647D01*
X4763465Y7028078D01*
X4775098Y7022084D01*
X4787442Y7017715D01*
X4800244Y7015022D01*
G37*
G36*
X6642100Y7014159D02*
G01*
X6655155Y7015022D01*
X6667957Y7017715D01*
X6680301Y7022084D01*
X6691934Y7028078D01*
X6702602Y7035647D01*
X6712153Y7044588D01*
X6720433Y7054748D01*
X6727240Y7065924D01*
X6732473Y7077913D01*
X6735978Y7090511D01*
X6737756Y7103465D01*
X6737756Y7116572D01*
X6735978Y7129525D01*
X6732473Y7142124D01*
X6727240Y7154113D01*
X6720433Y7165340D01*
X6712153Y7175449D01*
X6702602Y7184390D01*
X6691934Y7191959D01*
X6680301Y7197953D01*
X6667957Y7202373D01*
X6655155Y7205014D01*
X6642100Y7205929D01*
X6629044Y7205014D01*
X6616242Y7202373D01*
X6603898Y7197953D01*
X6592265Y7191959D01*
X6581597Y7184390D01*
X6572046Y7175449D01*
X6563766Y7165340D01*
X6556959Y7154113D01*
X6551777Y7142124D01*
X6548221Y7129525D01*
X6546443Y7116572D01*
X6546443Y7103465D01*
X6548221Y7090511D01*
X6551777Y7077913D01*
X6556959Y7065924D01*
X6563766Y7054748D01*
X6572046Y7044588D01*
X6581597Y7035647D01*
X6592265Y7028078D01*
X6603898Y7022084D01*
X6616242Y7017715D01*
X6629044Y7015022D01*
G37*
G36*
X8318500Y7095032D02*
G01*
X8332317Y7095896D01*
X8345881Y7098639D01*
X8359038Y7103059D01*
X8371433Y7109206D01*
X8382965Y7116876D01*
X8393379Y7126020D01*
X8402523Y7136434D01*
X8410194Y7147966D01*
X8416340Y7160361D01*
X8420760Y7173518D01*
X8423503Y7187082D01*
X8424367Y7200900D01*
X8423503Y7214717D01*
X8420760Y7228281D01*
X8416340Y7241438D01*
X8410194Y7253833D01*
X8402523Y7265365D01*
X8393379Y7275779D01*
X8382965Y7284923D01*
X8371433Y7292594D01*
X8359038Y7298740D01*
X8345881Y7303160D01*
X8332317Y7305903D01*
X8318500Y7306767D01*
X8304682Y7305903D01*
X8291118Y7303160D01*
X8277961Y7298740D01*
X8265566Y7292594D01*
X8254034Y7284923D01*
X8243620Y7275779D01*
X8234476Y7265365D01*
X8226806Y7253833D01*
X8220659Y7241438D01*
X8216239Y7228281D01*
X8213496Y7214717D01*
X8212632Y7200900D01*
X8213496Y7187082D01*
X8216239Y7173518D01*
X8220659Y7160361D01*
X8226806Y7147966D01*
X8234476Y7136434D01*
X8243620Y7126020D01*
X8254034Y7116876D01*
X8265566Y7109206D01*
X8277961Y7103059D01*
X8291118Y7098639D01*
X8304682Y7095896D01*
G37*
G36*
X11434978Y7325258D02*
G01*
X11454841Y7326680D01*
X11474450Y7330033D01*
X11493601Y7335266D01*
X11512245Y7342327D01*
X11530076Y7351166D01*
X11546941Y7361631D01*
X11562791Y7373721D01*
X11577320Y7387285D01*
X11590528Y7402169D01*
X11602212Y7418273D01*
X11612321Y7435392D01*
X11620703Y7453477D01*
X11627307Y7472222D01*
X11632082Y7491526D01*
X11634927Y7511237D01*
X11635892Y7531100D01*
X11634927Y7550962D01*
X11632082Y7570673D01*
X11627307Y7589977D01*
X11620703Y7608722D01*
X11612321Y7626807D01*
X11602212Y7643926D01*
X11590528Y7660030D01*
X11577320Y7674914D01*
X11562791Y7688478D01*
X11546941Y7700568D01*
X11530076Y7711033D01*
X11512245Y7719872D01*
X11493601Y7726934D01*
X11474450Y7732166D01*
X11454841Y7735519D01*
X11434978Y7736941D01*
X11415064Y7736433D01*
X11395354Y7734046D01*
X11375898Y7729778D01*
X11357000Y7723631D01*
X11338763Y7715656D01*
X11321338Y7706004D01*
X11304981Y7694675D01*
X11289792Y7681874D01*
X11275872Y7667650D01*
X11263426Y7652105D01*
X11252504Y7635494D01*
X11243259Y7617866D01*
X11235791Y7599425D01*
X11230102Y7580375D01*
X11226241Y7560868D01*
X11224361Y7541056D01*
X11224361Y7521143D01*
X11226241Y7501331D01*
X11230102Y7481824D01*
X11235791Y7462774D01*
X11243259Y7444333D01*
X11252504Y7426706D01*
X11263426Y7410094D01*
X11275872Y7394549D01*
X11289792Y7380325D01*
X11304981Y7367524D01*
X11321338Y7356195D01*
X11338763Y7346543D01*
X11357000Y7338568D01*
X11375898Y7332421D01*
X11395354Y7328153D01*
X11415064Y7325766D01*
G37*
G36*
X7556500Y7663738D02*
G01*
X7570317Y7664602D01*
X7583881Y7667345D01*
X7597038Y7671765D01*
X7609433Y7677912D01*
X7620965Y7685582D01*
X7631379Y7694726D01*
X7640523Y7705140D01*
X7648194Y7716672D01*
X7654340Y7729067D01*
X7658760Y7742224D01*
X7661503Y7755788D01*
X7662367Y7769606D01*
X7661503Y7783423D01*
X7658760Y7796987D01*
X7654340Y7810144D01*
X7648194Y7822539D01*
X7640523Y7834071D01*
X7631379Y7844485D01*
X7620965Y7853629D01*
X7609433Y7861300D01*
X7597038Y7867446D01*
X7583881Y7871866D01*
X7570317Y7874609D01*
X7556500Y7875473D01*
X7542682Y7874609D01*
X7529118Y7871866D01*
X7515961Y7867446D01*
X7503566Y7861300D01*
X7492034Y7853629D01*
X7481620Y7844485D01*
X7472476Y7834071D01*
X7464806Y7822539D01*
X7458659Y7810144D01*
X7454239Y7796987D01*
X7451496Y7783423D01*
X7450632Y7769606D01*
X7451496Y7755788D01*
X7454239Y7742224D01*
X7458659Y7729067D01*
X7464806Y7716672D01*
X7472476Y7705140D01*
X7481620Y7694726D01*
X7492034Y7685582D01*
X7503566Y7677912D01*
X7515961Y7671765D01*
X7529118Y7667345D01*
X7542682Y7664602D01*
G37*
G36*
X3822700Y8021370D02*
G01*
X3835755Y8022285D01*
X3848557Y8024926D01*
X3860901Y8029346D01*
X3872534Y8035340D01*
X3883202Y8042909D01*
X3892753Y8051850D01*
X3901033Y8061959D01*
X3907840Y8073186D01*
X3913073Y8085175D01*
X3916578Y8097774D01*
X3918356Y8110728D01*
X3918356Y8123834D01*
X3916578Y8136788D01*
X3913073Y8149386D01*
X3907840Y8161375D01*
X3901033Y8172551D01*
X3892753Y8182711D01*
X3883202Y8191652D01*
X3872534Y8199221D01*
X3860901Y8205216D01*
X3848557Y8209584D01*
X3835755Y8212277D01*
X3822700Y8213140D01*
X3809644Y8212277D01*
X3796842Y8209584D01*
X3784498Y8205216D01*
X3772865Y8199221D01*
X3762197Y8191652D01*
X3752646Y8182711D01*
X3744366Y8172551D01*
X3737559Y8161375D01*
X3732377Y8149386D01*
X3728821Y8136788D01*
X3727043Y8123834D01*
X3727043Y8110728D01*
X3728821Y8097774D01*
X3732377Y8085175D01*
X3737559Y8073186D01*
X3744366Y8061959D01*
X3752646Y8051850D01*
X3762197Y8042909D01*
X3772865Y8035340D01*
X3784498Y8029346D01*
X3796842Y8024926D01*
X3809644Y8022285D01*
G37*
G36*
X5753100Y8034070D02*
G01*
X5766155Y8034985D01*
X5778957Y8037626D01*
X5791301Y8042046D01*
X5802934Y8048040D01*
X5813602Y8055609D01*
X5823153Y8064550D01*
X5831433Y8074659D01*
X5838240Y8085886D01*
X5843473Y8097875D01*
X5846978Y8110474D01*
X5848756Y8123428D01*
X5848756Y8136534D01*
X5846978Y8149488D01*
X5843473Y8162086D01*
X5838240Y8174075D01*
X5831433Y8185251D01*
X5823153Y8195411D01*
X5813602Y8204352D01*
X5802934Y8211921D01*
X5791301Y8217916D01*
X5778957Y8222284D01*
X5766155Y8224977D01*
X5753100Y8225840D01*
X5740044Y8224977D01*
X5727242Y8222284D01*
X5714898Y8217916D01*
X5703265Y8211921D01*
X5692597Y8204352D01*
X5683046Y8195411D01*
X5674766Y8185251D01*
X5667959Y8174075D01*
X5662777Y8162086D01*
X5659221Y8149488D01*
X5657443Y8136534D01*
X5657443Y8123428D01*
X5659221Y8110474D01*
X5662777Y8097875D01*
X5667959Y8085886D01*
X5674766Y8074659D01*
X5683046Y8064550D01*
X5692597Y8055609D01*
X5703265Y8048040D01*
X5714898Y8042046D01*
X5727242Y8037626D01*
X5740044Y8034985D01*
G37*
G36*
X4813300Y8034070D02*
G01*
X4826355Y8034985D01*
X4839157Y8037626D01*
X4851501Y8042046D01*
X4863134Y8048040D01*
X4873802Y8055609D01*
X4883353Y8064550D01*
X4891633Y8074659D01*
X4898440Y8085886D01*
X4903673Y8097875D01*
X4907178Y8110474D01*
X4908956Y8123428D01*
X4908956Y8136534D01*
X4907178Y8149488D01*
X4903673Y8162086D01*
X4898440Y8174075D01*
X4891633Y8185251D01*
X4883353Y8195411D01*
X4873802Y8204352D01*
X4863134Y8211921D01*
X4851501Y8217916D01*
X4839157Y8222284D01*
X4826355Y8224977D01*
X4813300Y8225840D01*
X4800244Y8224977D01*
X4787442Y8222284D01*
X4775098Y8217916D01*
X4763465Y8211921D01*
X4752797Y8204352D01*
X4743246Y8195411D01*
X4734966Y8185251D01*
X4728159Y8174075D01*
X4722977Y8162086D01*
X4719421Y8149488D01*
X4717643Y8136534D01*
X4717643Y8123428D01*
X4719421Y8110474D01*
X4722977Y8097875D01*
X4728159Y8085886D01*
X4734966Y8074659D01*
X4743246Y8064550D01*
X4752797Y8055609D01*
X4763465Y8048040D01*
X4775098Y8042046D01*
X4787442Y8037626D01*
X4800244Y8034985D01*
G37*
G36*
X12230100Y8039811D02*
G01*
X12246457Y8040725D01*
X12262561Y8043468D01*
X12278309Y8047990D01*
X12293396Y8054238D01*
X12307722Y8062163D01*
X12321082Y8071662D01*
X12333274Y8082534D01*
X12344146Y8094725D01*
X12353645Y8108086D01*
X12361519Y8122412D01*
X12367818Y8137499D01*
X12372340Y8153247D01*
X12375083Y8169351D01*
X12375997Y8185708D01*
X12375083Y8202015D01*
X12372340Y8218170D01*
X12367818Y8233867D01*
X12361519Y8249005D01*
X12353645Y8263331D01*
X12344146Y8276640D01*
X12333274Y8288883D01*
X12321082Y8299754D01*
X12307722Y8309254D01*
X12293396Y8317128D01*
X12278309Y8323427D01*
X12262561Y8327948D01*
X12246457Y8330692D01*
X12230100Y8331606D01*
X12213742Y8330692D01*
X12197638Y8327948D01*
X12181890Y8323427D01*
X12166803Y8317128D01*
X12152477Y8309254D01*
X12139117Y8299754D01*
X12126925Y8288883D01*
X12116054Y8276640D01*
X12106554Y8263331D01*
X12098680Y8249005D01*
X12092381Y8233867D01*
X12087860Y8218170D01*
X12085116Y8202015D01*
X12084202Y8185708D01*
X12085116Y8169351D01*
X12087860Y8153247D01*
X12092381Y8137499D01*
X12098680Y8122412D01*
X12106554Y8108086D01*
X12116054Y8094725D01*
X12126925Y8082534D01*
X12139117Y8071662D01*
X12152477Y8062163D01*
X12166803Y8054238D01*
X12181890Y8047990D01*
X12197638Y8043468D01*
X12213742Y8040725D01*
G37*
G36*
X9042400Y8039811D02*
G01*
X9058757Y8040725D01*
X9074861Y8043468D01*
X9090609Y8047990D01*
X9105696Y8054238D01*
X9120022Y8062163D01*
X9133382Y8071662D01*
X9145574Y8082534D01*
X9156446Y8094725D01*
X9165945Y8108086D01*
X9173819Y8122412D01*
X9180118Y8137499D01*
X9184640Y8153247D01*
X9187383Y8169351D01*
X9188297Y8185708D01*
X9187383Y8202015D01*
X9184640Y8218170D01*
X9180118Y8233867D01*
X9173819Y8249005D01*
X9165945Y8263331D01*
X9156446Y8276640D01*
X9145574Y8288883D01*
X9133382Y8299754D01*
X9120022Y8309254D01*
X9105696Y8317128D01*
X9090609Y8323427D01*
X9074861Y8327948D01*
X9058757Y8330692D01*
X9042400Y8331606D01*
X9026042Y8330692D01*
X9009938Y8327948D01*
X8994190Y8323427D01*
X8979103Y8317128D01*
X8964777Y8309254D01*
X8951417Y8299754D01*
X8939225Y8288883D01*
X8928354Y8276640D01*
X8918854Y8263331D01*
X8910980Y8249005D01*
X8904681Y8233867D01*
X8900160Y8218170D01*
X8897416Y8202015D01*
X8896502Y8185708D01*
X8897416Y8169351D01*
X8900160Y8153247D01*
X8904681Y8137499D01*
X8910980Y8122412D01*
X8918854Y8108086D01*
X8928354Y8094725D01*
X8939225Y8082534D01*
X8951417Y8071662D01*
X8964777Y8062163D01*
X8979103Y8054238D01*
X8994190Y8047990D01*
X9009938Y8043468D01*
X9026042Y8040725D01*
G37*
G36*
X9817100Y8039811D02*
G01*
X9833457Y8040725D01*
X9849561Y8043468D01*
X9865309Y8047990D01*
X9880396Y8054238D01*
X9894722Y8062163D01*
X9908082Y8071662D01*
X9920274Y8082534D01*
X9931146Y8094725D01*
X9940645Y8108086D01*
X9948519Y8122412D01*
X9954818Y8137499D01*
X9959340Y8153247D01*
X9962083Y8169351D01*
X9962997Y8185708D01*
X9962083Y8202015D01*
X9959340Y8218170D01*
X9954818Y8233867D01*
X9948519Y8249005D01*
X9940645Y8263331D01*
X9931146Y8276640D01*
X9920274Y8288883D01*
X9908082Y8299754D01*
X9894722Y8309254D01*
X9880396Y8317128D01*
X9865309Y8323427D01*
X9849561Y8327948D01*
X9833457Y8330692D01*
X9817100Y8331606D01*
X9800742Y8330692D01*
X9784638Y8327948D01*
X9768890Y8323427D01*
X9753803Y8317128D01*
X9739477Y8309254D01*
X9726117Y8299754D01*
X9713925Y8288883D01*
X9703054Y8276640D01*
X9693554Y8263331D01*
X9685680Y8249005D01*
X9679381Y8233867D01*
X9674860Y8218170D01*
X9672116Y8202015D01*
X9671202Y8185708D01*
X9672116Y8169351D01*
X9674860Y8153247D01*
X9679381Y8137499D01*
X9685680Y8122412D01*
X9693554Y8108086D01*
X9703054Y8094725D01*
X9713925Y8082534D01*
X9726117Y8071662D01*
X9739477Y8062163D01*
X9753803Y8054238D01*
X9768890Y8047990D01*
X9784638Y8043468D01*
X9800742Y8040725D01*
G37*
G36*
X10604500Y8039811D02*
G01*
X10620857Y8040725D01*
X10636961Y8043468D01*
X10652709Y8047990D01*
X10667796Y8054238D01*
X10682122Y8062163D01*
X10695482Y8071662D01*
X10707674Y8082534D01*
X10718546Y8094725D01*
X10728045Y8108086D01*
X10735919Y8122412D01*
X10742218Y8137499D01*
X10746740Y8153247D01*
X10749483Y8169351D01*
X10750397Y8185708D01*
X10749483Y8202015D01*
X10746740Y8218170D01*
X10742218Y8233867D01*
X10735919Y8249005D01*
X10728045Y8263331D01*
X10718546Y8276640D01*
X10707674Y8288883D01*
X10695482Y8299754D01*
X10682122Y8309254D01*
X10667796Y8317128D01*
X10652709Y8323427D01*
X10636961Y8327948D01*
X10620857Y8330692D01*
X10604500Y8331606D01*
X10588142Y8330692D01*
X10572038Y8327948D01*
X10556290Y8323427D01*
X10541203Y8317128D01*
X10526877Y8309254D01*
X10513517Y8299754D01*
X10501325Y8288883D01*
X10490454Y8276640D01*
X10480954Y8263331D01*
X10473080Y8249005D01*
X10466781Y8233867D01*
X10462260Y8218170D01*
X10459516Y8202015D01*
X10458602Y8185708D01*
X10459516Y8169351D01*
X10462260Y8153247D01*
X10466781Y8137499D01*
X10473080Y8122412D01*
X10480954Y8108086D01*
X10490454Y8094725D01*
X10501325Y8082534D01*
X10513517Y8071662D01*
X10526877Y8062163D01*
X10541203Y8054238D01*
X10556290Y8047990D01*
X10572038Y8043468D01*
X10588142Y8040725D01*
G37*
G36*
X11087252Y8306866D02*
G01*
X11633047Y8306866D01*
X11640820Y8307120D01*
X11648389Y8307831D01*
X11655907Y8308949D01*
X11663324Y8310575D01*
X11670639Y8312607D01*
X11677853Y8315096D01*
X11684863Y8317992D01*
X11691721Y8321294D01*
X11698325Y8325053D01*
X11704726Y8329168D01*
X11710822Y8333689D01*
X11716664Y8338566D01*
X11722354Y8343900D01*
X11810898Y8432444D01*
X11821210Y8444077D01*
X11829846Y8456574D01*
X11836908Y8470036D01*
X11842292Y8484260D01*
X11845950Y8498992D01*
X11847779Y8514080D01*
X11847779Y8529320D01*
X11845950Y8544407D01*
X11842292Y8559139D01*
X11836908Y8573363D01*
X11829846Y8586825D01*
X11821210Y8599322D01*
X11811101Y8610701D01*
X11799722Y8620810D01*
X11787225Y8629446D01*
X11773763Y8636508D01*
X11759539Y8641892D01*
X11744807Y8645550D01*
X11729720Y8647379D01*
X11714480Y8647379D01*
X11699392Y8645550D01*
X11684660Y8641892D01*
X11670436Y8636508D01*
X11656974Y8629446D01*
X11644477Y8620810D01*
X11632844Y8610498D01*
X11584025Y8561679D01*
X11580723Y8559495D01*
X11576862Y8558682D01*
X11143437Y8558682D01*
X11139576Y8559495D01*
X11136274Y8561679D01*
X11125454Y8572500D01*
X11119764Y8577834D01*
X11111179Y8585098D01*
X11108740Y8588197D01*
X11107674Y8592007D01*
X11108131Y8595918D01*
X11110061Y8599373D01*
X11113109Y8601811D01*
X11116919Y8602929D01*
X11120831Y8602472D01*
X11138306Y8596985D01*
X11155781Y8593429D01*
X11173510Y8591600D01*
X11191341Y8591600D01*
X11209070Y8593429D01*
X11226495Y8596985D01*
X11243513Y8602319D01*
X11259870Y8609380D01*
X11275466Y8618016D01*
X11290096Y8628176D01*
X11303609Y8639810D01*
X11315852Y8652713D01*
X11326774Y8666784D01*
X11336223Y8681923D01*
X11344046Y8697925D01*
X11350244Y8714638D01*
X11354714Y8731859D01*
X11357406Y8749487D01*
X11358321Y8767521D01*
X11358321Y8967012D01*
X11357406Y8985097D01*
X11354714Y9002674D01*
X11350244Y9019946D01*
X11344046Y9036659D01*
X11336223Y9052661D01*
X11326774Y9067749D01*
X11315852Y9081871D01*
X11303609Y9094774D01*
X11290096Y9106357D01*
X11275466Y9116568D01*
X11259870Y9125204D01*
X11243513Y9132214D01*
X11226495Y9137548D01*
X11209070Y9141155D01*
X11191341Y9142933D01*
X11173510Y9142933D01*
X11155781Y9141155D01*
X11138306Y9137548D01*
X11121339Y9132214D01*
X11104930Y9125204D01*
X11089386Y9116568D01*
X11074755Y9106357D01*
X11061242Y9094774D01*
X11048949Y9081871D01*
X11038027Y9067749D01*
X11028629Y9052661D01*
X11020755Y9036659D01*
X11014608Y9019946D01*
X11010138Y9002674D01*
X11007445Y8985097D01*
X11006531Y8967012D01*
X11006531Y8767521D01*
X11007445Y8749487D01*
X11010138Y8731859D01*
X11014608Y8714638D01*
X11020755Y8697925D01*
X11028629Y8681923D01*
X11038027Y8666784D01*
X11048949Y8652713D01*
X11061242Y8639810D01*
X11074755Y8628176D01*
X11085118Y8620963D01*
X11087963Y8617966D01*
X11089386Y8614105D01*
X11089132Y8609990D01*
X11087252Y8606282D01*
X11084052Y8603640D01*
X11080089Y8602522D01*
X11075974Y8603030D01*
X11066424Y8605824D01*
X11059007Y8607450D01*
X11051489Y8608568D01*
X11043920Y8609279D01*
X11036147Y8609482D01*
X11016437Y8609482D01*
X11012576Y8610295D01*
X11009274Y8612479D01*
X10962132Y8659622D01*
X10951464Y8675014D01*
X10939881Y8688527D01*
X10926978Y8700770D01*
X10912906Y8711692D01*
X10897768Y8721090D01*
X10881766Y8728964D01*
X10865053Y8735161D01*
X10847781Y8739632D01*
X10830204Y8742324D01*
X10812119Y8743238D01*
X10612678Y8743238D01*
X10594594Y8742324D01*
X10577017Y8739632D01*
X10559745Y8735161D01*
X10543032Y8728964D01*
X10527030Y8721090D01*
X10511891Y8711692D01*
X10497820Y8700770D01*
X10484916Y8688527D01*
X10473283Y8674963D01*
X10463123Y8660384D01*
X10454487Y8644788D01*
X10447477Y8628430D01*
X10442143Y8611412D01*
X10438536Y8593937D01*
X10436707Y8576208D01*
X10436707Y8558428D01*
X10438536Y8540699D01*
X10442143Y8523224D01*
X10447477Y8506206D01*
X10454487Y8489848D01*
X10463123Y8474252D01*
X10473283Y8459673D01*
X10484916Y8446109D01*
X10497820Y8433866D01*
X10511891Y8422944D01*
X10527030Y8413546D01*
X10543032Y8405672D01*
X10559745Y8399475D01*
X10577017Y8395004D01*
X10594594Y8392312D01*
X10612678Y8391398D01*
X10812119Y8391398D01*
X10830204Y8392312D01*
X10847781Y8395004D01*
X10860278Y8398256D01*
X10863681Y8398560D01*
X10867034Y8397697D01*
X10869828Y8395766D01*
X10876635Y8389366D01*
X10882477Y8384489D01*
X10888573Y8379968D01*
X10894974Y8375853D01*
X10901578Y8372094D01*
X10908436Y8368792D01*
X10915446Y8365896D01*
X10922660Y8363407D01*
X10929975Y8361375D01*
X10937392Y8359749D01*
X10944910Y8358631D01*
X10952480Y8357920D01*
X10960252Y8357666D01*
X10979962Y8357666D01*
X10983823Y8356904D01*
X10987125Y8354720D01*
X10997946Y8343900D01*
X11003635Y8338566D01*
X11009477Y8333689D01*
X11015573Y8329168D01*
X11021974Y8325053D01*
X11028578Y8321294D01*
X11035436Y8317992D01*
X11042446Y8315096D01*
X11049660Y8312607D01*
X11056975Y8310575D01*
X11064392Y8308949D01*
X11071910Y8307831D01*
X11079480Y8307120D01*
G37*
G36*
X3276600Y8368792D02*
G01*
X3291992Y8369757D01*
X3307130Y8372500D01*
X3321812Y8377072D01*
X3335832Y8383422D01*
X3349040Y8391398D01*
X3361131Y8400897D01*
X3372002Y8411768D01*
X3381501Y8423859D01*
X3389477Y8437067D01*
X3395827Y8451088D01*
X3400399Y8465769D01*
X3403142Y8480907D01*
X3404108Y8496300D01*
X3403142Y8511692D01*
X3400399Y8526830D01*
X3395827Y8541512D01*
X3389477Y8555532D01*
X3381501Y8568740D01*
X3372002Y8580831D01*
X3361131Y8591702D01*
X3349040Y8601202D01*
X3335832Y8609177D01*
X3321812Y8615527D01*
X3307130Y8620099D01*
X3291992Y8622842D01*
X3276600Y8623808D01*
X3261207Y8622842D01*
X3246069Y8620099D01*
X3231388Y8615527D01*
X3217367Y8609177D01*
X3204159Y8601202D01*
X3192068Y8591702D01*
X3181197Y8580831D01*
X3171698Y8568740D01*
X3163722Y8555532D01*
X3157372Y8541512D01*
X3152800Y8526830D01*
X3150057Y8511692D01*
X3149092Y8496300D01*
X3150057Y8480907D01*
X3152800Y8465769D01*
X3157372Y8451088D01*
X3163722Y8437067D01*
X3171698Y8423859D01*
X3181197Y8411768D01*
X3192068Y8400897D01*
X3204159Y8391398D01*
X3217367Y8383422D01*
X3231388Y8377072D01*
X3246069Y8372500D01*
X3261207Y8369757D01*
G37*
G36*
X6436410Y8569604D02*
G01*
X6451600Y8570518D01*
X6466535Y8573262D01*
X6481064Y8577783D01*
X6494881Y8584031D01*
X6507937Y8591905D01*
X6519875Y8601303D01*
X6530644Y8612022D01*
X6539992Y8624011D01*
X6547866Y8637016D01*
X6554114Y8650884D01*
X6558635Y8665362D01*
X6561378Y8680348D01*
X6562293Y8695842D01*
X6562293Y8795207D01*
X6561378Y8810701D01*
X6558635Y8825636D01*
X6554114Y8840165D01*
X6547866Y8854033D01*
X6539992Y8867038D01*
X6530644Y8878976D01*
X6519875Y8889746D01*
X6507937Y8899093D01*
X6494881Y8906967D01*
X6481064Y8913215D01*
X6466535Y8917736D01*
X6451600Y8920480D01*
X6436410Y8921394D01*
X6421221Y8920480D01*
X6406286Y8917736D01*
X6391757Y8913215D01*
X6377889Y8906967D01*
X6364884Y8899093D01*
X6352946Y8889746D01*
X6342176Y8878976D01*
X6332778Y8867038D01*
X6324955Y8854033D01*
X6318707Y8840165D01*
X6314186Y8825636D01*
X6311442Y8810701D01*
X6310477Y8795207D01*
X6310477Y8695842D01*
X6311442Y8680348D01*
X6314186Y8665362D01*
X6318707Y8650884D01*
X6324955Y8637016D01*
X6332778Y8624011D01*
X6342176Y8612022D01*
X6352946Y8601303D01*
X6364884Y8591905D01*
X6377889Y8584031D01*
X6391757Y8577783D01*
X6406286Y8573262D01*
X6421221Y8570518D01*
G37*
G36*
X5806389Y8594648D02*
G01*
X5821578Y8595563D01*
X5836513Y8598306D01*
X5851042Y8602827D01*
X5864910Y8609025D01*
X5877915Y8616899D01*
X5889904Y8626297D01*
X5900623Y8637016D01*
X5910021Y8649004D01*
X5917895Y8662009D01*
X5924092Y8675878D01*
X5928614Y8690406D01*
X5931357Y8705342D01*
X5932322Y8720836D01*
X5932322Y8770213D01*
X5931357Y8785707D01*
X5928614Y8800642D01*
X5924092Y8815171D01*
X5917895Y8829040D01*
X5910021Y8842044D01*
X5900623Y8853982D01*
X5889904Y8864752D01*
X5877915Y8874099D01*
X5864910Y8881973D01*
X5851042Y8888222D01*
X5836513Y8892743D01*
X5821578Y8895486D01*
X5806389Y8896400D01*
X5791250Y8895486D01*
X5776264Y8892743D01*
X5761736Y8888222D01*
X5747918Y8881973D01*
X5734913Y8874099D01*
X5722924Y8864752D01*
X5712155Y8853982D01*
X5702808Y8842044D01*
X5694934Y8829040D01*
X5688685Y8815171D01*
X5684164Y8800642D01*
X5681421Y8785707D01*
X5680506Y8770213D01*
X5680506Y8720836D01*
X5681421Y8705342D01*
X5684164Y8690406D01*
X5688685Y8675878D01*
X5694934Y8662009D01*
X5702808Y8649004D01*
X5712155Y8637016D01*
X5722924Y8626297D01*
X5734913Y8616899D01*
X5747918Y8609025D01*
X5761736Y8602827D01*
X5776264Y8598306D01*
X5791250Y8595563D01*
G37*
G36*
X6124956Y8634679D02*
G01*
X6139078Y8636050D01*
X6152946Y8639200D01*
X6166307Y8644077D01*
X6178905Y8650681D01*
X6190538Y8658809D01*
X6201054Y8668359D01*
X6210249Y8679180D01*
X6218021Y8691067D01*
X6224168Y8703868D01*
X6228638Y8717381D01*
X6231382Y8731300D01*
X6232296Y8745474D01*
X6231382Y8759698D01*
X6228638Y8773617D01*
X6224168Y8787130D01*
X6218021Y8799931D01*
X6210249Y8811818D01*
X6201054Y8822639D01*
X6190538Y8832189D01*
X6178905Y8840317D01*
X6166307Y8846921D01*
X6152946Y8851798D01*
X6139078Y8854948D01*
X6124956Y8856319D01*
X6110732Y8855862D01*
X6096711Y8853627D01*
X6083096Y8849563D01*
X6070092Y8843822D01*
X6057950Y8836456D01*
X6046825Y8827566D01*
X6036970Y8817356D01*
X6028486Y8805976D01*
X6021476Y8793632D01*
X6016142Y8780424D01*
X6012535Y8766708D01*
X6010757Y8752586D01*
X6010757Y8738412D01*
X6012535Y8724290D01*
X6016142Y8710574D01*
X6021476Y8697366D01*
X6028486Y8685022D01*
X6036970Y8673642D01*
X6046825Y8663432D01*
X6057950Y8654542D01*
X6070092Y8647176D01*
X6083096Y8641435D01*
X6096711Y8637371D01*
X6110732Y8635136D01*
G37*
G36*
X4708448Y8798001D02*
G01*
X4757928Y8798001D01*
X4775098Y8798966D01*
X4791760Y8801811D01*
X4808016Y8806484D01*
X4823663Y8812936D01*
X4838446Y8821115D01*
X4852263Y8830919D01*
X4864862Y8842197D01*
X4876139Y8854846D01*
X4885944Y8868613D01*
X4894122Y8883446D01*
X4900625Y8899042D01*
X4905298Y8915349D01*
X4908143Y8932011D01*
X4909058Y8948877D01*
X4908143Y8965793D01*
X4905298Y8982456D01*
X4900625Y8998762D01*
X4894122Y9014358D01*
X4885944Y9029192D01*
X4876139Y9042958D01*
X4864862Y9055608D01*
X4852263Y9066885D01*
X4838446Y9076690D01*
X4823663Y9084868D01*
X4808016Y9091320D01*
X4791760Y9095994D01*
X4775098Y9098838D01*
X4757928Y9099804D01*
X4708448Y9099804D01*
X4691278Y9098838D01*
X4674616Y9095994D01*
X4658360Y9091320D01*
X4642713Y9084868D01*
X4627930Y9076690D01*
X4614113Y9066885D01*
X4601514Y9055608D01*
X4590237Y9042958D01*
X4580432Y9029192D01*
X4572254Y9014358D01*
X4565751Y8998762D01*
X4561078Y8982456D01*
X4558233Y8965793D01*
X4557318Y8948877D01*
X4558233Y8932011D01*
X4561078Y8915349D01*
X4565751Y8899042D01*
X4572254Y8883446D01*
X4580432Y8868613D01*
X4590237Y8854846D01*
X4601514Y8842197D01*
X4614113Y8830919D01*
X4627930Y8821115D01*
X4642713Y8812936D01*
X4658360Y8806484D01*
X4674616Y8801811D01*
X4691278Y8798966D01*
G37*
G36*
X7515148Y8798001D02*
G01*
X7564628Y8798001D01*
X7581798Y8798966D01*
X7598460Y8801811D01*
X7614716Y8806484D01*
X7630363Y8812936D01*
X7645146Y8821115D01*
X7658963Y8830919D01*
X7671562Y8842197D01*
X7682839Y8854846D01*
X7692644Y8868613D01*
X7700822Y8883446D01*
X7707325Y8899042D01*
X7711998Y8915349D01*
X7714843Y8932011D01*
X7715758Y8948877D01*
X7714843Y8965793D01*
X7711998Y8982456D01*
X7707325Y8998762D01*
X7700822Y9014358D01*
X7692644Y9029192D01*
X7682839Y9042958D01*
X7671562Y9055608D01*
X7658963Y9066885D01*
X7645146Y9076690D01*
X7630363Y9084868D01*
X7614716Y9091320D01*
X7598460Y9095994D01*
X7581798Y9098838D01*
X7564628Y9099804D01*
X7515148Y9099804D01*
X7497978Y9098838D01*
X7481316Y9095994D01*
X7465059Y9091320D01*
X7449413Y9084868D01*
X7434630Y9076690D01*
X7420813Y9066885D01*
X7408214Y9055608D01*
X7396937Y9042958D01*
X7387132Y9029192D01*
X7378953Y9014358D01*
X7372451Y8998762D01*
X7367778Y8982456D01*
X7364933Y8965793D01*
X7364018Y8948877D01*
X7364933Y8932011D01*
X7367778Y8915349D01*
X7372451Y8899042D01*
X7378953Y8883446D01*
X7387132Y8868613D01*
X7396937Y8854846D01*
X7408214Y8842197D01*
X7420813Y8830919D01*
X7434630Y8821115D01*
X7449413Y8812936D01*
X7465059Y8806484D01*
X7481316Y8801811D01*
X7497978Y8798966D01*
G37*
G36*
X3281578Y8798458D02*
G01*
X3301441Y8799880D01*
X3321050Y8803233D01*
X3340201Y8808466D01*
X3358845Y8815527D01*
X3376676Y8824366D01*
X3393541Y8834831D01*
X3409391Y8846921D01*
X3423920Y8860485D01*
X3437128Y8875369D01*
X3448812Y8891473D01*
X3458921Y8908592D01*
X3467303Y8926677D01*
X3473907Y8945422D01*
X3478682Y8964726D01*
X3481527Y8984437D01*
X3482492Y9004300D01*
X3481527Y9024162D01*
X3478682Y9043873D01*
X3473907Y9063177D01*
X3467303Y9081922D01*
X3458921Y9100007D01*
X3448812Y9117126D01*
X3437128Y9133230D01*
X3423920Y9148114D01*
X3409391Y9161678D01*
X3393541Y9173768D01*
X3376676Y9184233D01*
X3358845Y9193072D01*
X3340201Y9200134D01*
X3321050Y9205366D01*
X3301441Y9208719D01*
X3281578Y9210141D01*
X3261664Y9209633D01*
X3241954Y9207246D01*
X3222498Y9202978D01*
X3203600Y9196832D01*
X3185363Y9188856D01*
X3167938Y9179204D01*
X3151581Y9167876D01*
X3136392Y9155074D01*
X3122472Y9140850D01*
X3110026Y9125305D01*
X3099104Y9108694D01*
X3089859Y9091066D01*
X3082391Y9072626D01*
X3076702Y9053576D01*
X3072841Y9034068D01*
X3070961Y9014256D01*
X3070961Y8994343D01*
X3072841Y8974531D01*
X3076702Y8955024D01*
X3082391Y8935974D01*
X3089859Y8917533D01*
X3099104Y8899906D01*
X3110026Y8883294D01*
X3122472Y8867749D01*
X3136392Y8853525D01*
X3151581Y8840724D01*
X3167938Y8829395D01*
X3185363Y8819743D01*
X3203600Y8811768D01*
X3222498Y8805621D01*
X3241954Y8801354D01*
X3261664Y8798966D01*
G37*
G36*
X11722100Y8923832D02*
G01*
X11735917Y8924696D01*
X11749481Y8927439D01*
X11762638Y8931859D01*
X11775033Y8938006D01*
X11786565Y8945676D01*
X11796979Y8954820D01*
X11806123Y8965234D01*
X11813794Y8976766D01*
X11819940Y8989161D01*
X11824360Y9002318D01*
X11827103Y9015882D01*
X11827967Y9029700D01*
X11827103Y9043517D01*
X11824360Y9057081D01*
X11819940Y9070238D01*
X11813794Y9082633D01*
X11806123Y9094165D01*
X11796979Y9104579D01*
X11786565Y9113723D01*
X11775033Y9121394D01*
X11762638Y9127540D01*
X11749481Y9131960D01*
X11735917Y9134703D01*
X11722100Y9135567D01*
X11708282Y9134703D01*
X11694718Y9131960D01*
X11681561Y9127540D01*
X11669166Y9121394D01*
X11657634Y9113723D01*
X11647220Y9104579D01*
X11638076Y9094165D01*
X11630406Y9082633D01*
X11624259Y9070238D01*
X11619839Y9057081D01*
X11617096Y9043517D01*
X11616232Y9029700D01*
X11617096Y9015882D01*
X11619839Y9002318D01*
X11624259Y8989161D01*
X11630406Y8976766D01*
X11638076Y8965234D01*
X11647220Y8954820D01*
X11657634Y8945676D01*
X11669166Y8938006D01*
X11681561Y8931859D01*
X11694718Y8927439D01*
X11708282Y8924696D01*
G37*
G36*
X5806389Y8944610D02*
G01*
X5821578Y8945524D01*
X5836513Y8948267D01*
X5851042Y8952788D01*
X5864910Y8959037D01*
X5877915Y8966911D01*
X5889904Y8976258D01*
X5900623Y8987028D01*
X5910021Y8999016D01*
X5917844Y9012021D01*
X5924092Y9025890D01*
X5928614Y9040368D01*
X5931357Y9055354D01*
X5932322Y9070797D01*
X5932322Y9120225D01*
X5931357Y9135668D01*
X5928614Y9150654D01*
X5924092Y9165132D01*
X5917844Y9179001D01*
X5910021Y9192006D01*
X5900623Y9203994D01*
X5889904Y9214764D01*
X5877915Y9224111D01*
X5864910Y9231985D01*
X5851042Y9238234D01*
X5836513Y9242755D01*
X5821578Y9245498D01*
X5806389Y9246412D01*
X5791200Y9245498D01*
X5776264Y9242755D01*
X5761736Y9238234D01*
X5747918Y9231985D01*
X5734862Y9224111D01*
X5722924Y9214764D01*
X5712155Y9203994D01*
X5702808Y9192006D01*
X5694934Y9179001D01*
X5688685Y9165132D01*
X5684164Y9150654D01*
X5681421Y9135668D01*
X5680506Y9120225D01*
X5680506Y9070797D01*
X5681421Y9055354D01*
X5684164Y9040368D01*
X5688685Y9025890D01*
X5694934Y9012021D01*
X5702808Y8999016D01*
X5712155Y8987028D01*
X5722924Y8976258D01*
X5734862Y8966911D01*
X5747918Y8959037D01*
X5761736Y8952788D01*
X5776264Y8948267D01*
X5791200Y8945524D01*
G37*
G36*
X10612628Y9011361D02*
G01*
X10812119Y9011361D01*
X10830204Y9012275D01*
X10847781Y9015018D01*
X10865053Y9019438D01*
X10881766Y9025636D01*
X10897768Y9033510D01*
X10912856Y9042908D01*
X10926978Y9053830D01*
X10939881Y9066123D01*
X10951464Y9079636D01*
X10961674Y9094266D01*
X10970310Y9109811D01*
X10977321Y9126220D01*
X10982655Y9143187D01*
X10986262Y9160662D01*
X10988040Y9178391D01*
X10988040Y9196222D01*
X10986262Y9213951D01*
X10982655Y9231376D01*
X10977321Y9248394D01*
X10970310Y9264751D01*
X10961674Y9280347D01*
X10951464Y9294977D01*
X10939881Y9308490D01*
X10926978Y9320733D01*
X10912856Y9331655D01*
X10897768Y9341104D01*
X10881766Y9348927D01*
X10865053Y9355124D01*
X10847781Y9359595D01*
X10830204Y9362287D01*
X10812119Y9363202D01*
X10612628Y9363202D01*
X10594594Y9362287D01*
X10576966Y9359595D01*
X10559745Y9355124D01*
X10543032Y9348927D01*
X10527030Y9341104D01*
X10511891Y9331655D01*
X10497820Y9320733D01*
X10484916Y9308490D01*
X10473283Y9294977D01*
X10463123Y9280347D01*
X10454487Y9264751D01*
X10447426Y9248394D01*
X10442092Y9231376D01*
X10438536Y9213951D01*
X10436707Y9196222D01*
X10436707Y9178391D01*
X10438536Y9160662D01*
X10442092Y9143187D01*
X10447426Y9126220D01*
X10454487Y9109811D01*
X10463123Y9094266D01*
X10473283Y9079636D01*
X10484916Y9066123D01*
X10497820Y9053830D01*
X10511891Y9042908D01*
X10527030Y9033510D01*
X10543032Y9025636D01*
X10559745Y9019438D01*
X10576966Y9015018D01*
X10594594Y9012275D01*
G37*
G36*
X6124956Y9234678D02*
G01*
X6139078Y9236049D01*
X6152946Y9239199D01*
X6166307Y9244076D01*
X6178905Y9250680D01*
X6190538Y9258808D01*
X6201054Y9268358D01*
X6210249Y9279178D01*
X6218021Y9291066D01*
X6224168Y9303867D01*
X6228638Y9317380D01*
X6231382Y9331299D01*
X6232296Y9345472D01*
X6231382Y9359696D01*
X6228638Y9373616D01*
X6224168Y9387128D01*
X6218021Y9399930D01*
X6210249Y9411817D01*
X6201054Y9422638D01*
X6190538Y9432188D01*
X6178905Y9440316D01*
X6166307Y9446920D01*
X6152946Y9451797D01*
X6139078Y9454946D01*
X6124956Y9456318D01*
X6110732Y9455861D01*
X6096711Y9453626D01*
X6083096Y9449562D01*
X6070092Y9443821D01*
X6057950Y9436455D01*
X6046825Y9427565D01*
X6036970Y9417354D01*
X6028486Y9405975D01*
X6021476Y9393631D01*
X6016142Y9380423D01*
X6012535Y9366707D01*
X6010757Y9352584D01*
X6010757Y9338411D01*
X6012535Y9324289D01*
X6016142Y9310573D01*
X6021476Y9297365D01*
X6028486Y9285020D01*
X6036970Y9273641D01*
X6046825Y9263430D01*
X6057950Y9254540D01*
X6070092Y9247174D01*
X6083096Y9241434D01*
X6096711Y9237370D01*
X6110732Y9235135D01*
G37*

%LPD*%
D10*
X7797800Y8204200D02*
G01*
X7912100Y8089900D01*
X7912100Y7505700D01*
X7825993Y7419594D01*
X7556500Y7419594D01*
X7482306Y6477000D02*
G01*
X7556500Y6551193D01*
X7556500Y7419594D01*
X5795518Y6477000D02*
G01*
X6462293Y6477000D01*
X6642100Y8130006D02*
G01*
X6894093Y8382000D01*
X8597900Y8382000D01*
X8911488Y8695588D01*
X8911488Y8948902D01*
D11*
X10712424Y8567318D02*
G01*
X10876381Y8567318D01*
X10960100Y8483600D01*
X11036300Y8483600D01*
X11087100Y8432800D01*
X11633200Y8432800D01*
X11722100Y8521700D01*
X10134600Y4216400D02*
G01*
X10134600Y4686300D01*
X10490200Y5041900D01*
X10490200Y5283200D01*
X9956800Y5816600D01*
X9042400Y6825691D02*
G01*
X9042400Y6203594D01*
X8706205Y5867400D01*
X8706205Y5867400D02*
G01*
X8706205Y5429605D01*
X8585200Y5308600D01*
X8585200Y3403600D01*
X8674100Y3314700D01*
D12*
X9239211Y3479800D02*
G01*
X9169400Y3479800D01*
X9308825Y3479800D02*
G01*
X9239211Y3479800D01*
X10198100Y3314700D02*
G01*
X10134600Y3378200D01*
X10134600Y3479800D01*
X9308825Y3479800D01*
X10706100Y3314700D02*
G01*
X10541000Y3149600D01*
X8229600Y3149600D01*
X8229600Y3149600D02*
G01*
X6451600Y3149600D01*
X5920206Y3680993D01*
X4978400Y3680993D01*
D11*
X11404600Y4635500D02*
G01*
X10668000Y4635500D01*
X10452100Y4419600D01*
X10452100Y4089400D01*
X10020300Y3657600D01*
X8928100Y3657600D01*
X8928100Y3314700D01*
D13*
G01*
X4978400Y4701006D03*
G01*
X4978400Y3680993D03*
D14*
G01*
X7956219Y5867400D03*
G01*
X8706205Y5867400D03*
D15*
G01*
X11404600Y4635500D03*
G01*
X11404600Y4127500D03*
G01*
X7962900Y4089400D03*
G01*
X7962900Y4597400D03*
G01*
X8318500Y7708900D03*
G01*
X8318500Y7200900D03*
G01*
X12179300Y4102100D03*
G01*
X12179300Y4610100D03*
G01*
X5880100Y3962400D03*
G01*
X5880100Y4470400D03*
G01*
X6807200Y4470400D03*
G01*
X6807200Y3962400D03*
G01*
X12026900Y6375400D03*
G01*
X12026900Y5867400D03*
G01*
X6819900Y5588000D03*
G01*
X6819900Y5080000D03*
G01*
X11531600Y3416300D03*
G01*
X12039600Y3416300D03*
G01*
X11722100Y9029700D03*
G01*
X11722100Y8521700D03*
G01*
X7556500Y7769605D03*
G01*
X7556500Y7419594D03*
D16*
G01*
X4013200Y6157899D03*
G01*
X4013200Y5957900D03*
D17*
G01*
X6436410Y8745499D03*
G01*
X6436410Y9415500D03*
D18*
G01*
X5806389Y9095511D03*
G01*
X5806389Y8745499D03*
G01*
X5806389Y9415500D03*
D19*
G01*
X8911488Y8948902D03*
D20*
G01*
X9411487Y8948902D03*
G01*
X8391499Y8948902D03*
D21*
G01*
X8911488Y9436100D03*
D19*
G01*
X7539888Y8948902D03*
D20*
G01*
X8039887Y8948902D03*
G01*
X7019899Y8948902D03*
D21*
G01*
X7539888Y9436100D03*
D19*
G01*
X4733188Y8948902D03*
D20*
G01*
X5233187Y8948902D03*
G01*
X4213199Y8948902D03*
D21*
G01*
X4733188Y9436100D03*
D22*
G01*
X10604500Y6825691D03*
G01*
X10604500Y8185708D03*
G01*
X9817100Y6825691D03*
G01*
X9817100Y8185708D03*
G01*
X9042400Y8185708D03*
G01*
X9042400Y6825691D03*
G01*
X12230100Y8185708D03*
G01*
X12230100Y6825691D03*
D23*
G01*
X10712424Y8567318D03*
G01*
X10712399Y9187281D03*
D24*
G01*
X11182426Y8867292D03*
D25*
G01*
X8674100Y3314700D03*
D26*
G01*
X8928100Y3314700D03*
G01*
X9182100Y3314700D03*
G01*
X9436100Y3314700D03*
G01*
X9690100Y3314700D03*
G01*
X9944100Y3314700D03*
G01*
X10198100Y3314700D03*
G01*
X10452100Y3314700D03*
G01*
X10706100Y3314700D03*
D27*
G01*
X5156200Y5448300D03*
G01*
X5283200Y5448300D03*
D28*
G01*
X5410198Y5448300D03*
D15*
G01*
X4745507Y6477000D03*
G01*
X5795518Y6477000D03*
D13*
G01*
X6462293Y6477000D03*
G01*
X7482306Y6477000D03*
G01*
X6642100Y8130006D03*
G01*
X6642100Y7109993D03*
G01*
X3822700Y8117306D03*
G01*
X3822700Y7097293D03*
G01*
X4813300Y8130006D03*
G01*
X4813300Y7109993D03*
G01*
X5753100Y8130006D03*
G01*
X5753100Y7109993D03*
G01*
X3937000Y4701006D03*
G01*
X3937000Y3680993D03*
G01*
X9118600Y4889500D03*
G01*
X9118600Y4635500D03*
G01*
X9118600Y4381500D03*
G01*
X9118600Y4127500D03*
G01*
X9118600Y3873500D03*
G01*
X9372600Y3873500D03*
G01*
X9626600Y3873500D03*
G01*
X9880600Y3873500D03*
G01*
X9880600Y4140200D03*
G01*
X9880600Y4394200D03*
G01*
X9880600Y4635500D03*
G01*
X9880600Y4889500D03*
G01*
X9626600Y4889500D03*
G01*
X9385300Y4889500D03*
G01*
X9372600Y4635500D03*
G01*
X9372600Y4381500D03*
G01*
X9372600Y4127500D03*
G01*
X9626600Y4127500D03*
G01*
X9626600Y4381500D03*
G01*
X9626600Y4635500D03*
G01*
X9118600Y5130800D03*
G01*
X9385300Y5130800D03*
G01*
X9626600Y5130800D03*
G01*
X9880600Y5143500D03*
G01*
X8839200Y5130800D03*
G01*
X8839200Y4889500D03*
G01*
X8839200Y4635500D03*
G01*
X8839200Y4381500D03*
G01*
X8839200Y4127500D03*
G01*
X8839200Y3873500D03*
G01*
X10083800Y5346700D03*
D25*
G01*
X7543800Y8204200D03*
D26*
G01*
X7797800Y8204200D03*
D11*
G01*
X10134600Y4216400D03*
G01*
X9956800Y5816600D03*
D29*
G01*
X9169400Y3479800D03*
G01*
X9239224Y3479800D03*
G01*
X9308820Y3479800D03*
D11*
G01*
X8928100Y3657600D03*
M02*
